<svg id="Image" xmlns="http://www.w3.org/2000/svg" viewBox="0 0 24 24">
  <g id="g816">
    <path id="path825" d="M14.492.086a.531.531,0,0,0-.252.068L7.658,3.941l-.435.252L.258,8.373A.527.527,0,0,0,0,8.826V16.49a.525.525,0,0,0,.258.453l6.967,4.182a.529.529,0,0,0,.543,0l.744-.447a.576.576,0,0,0,.06-.033L10.18,19.7a7.553,7.553,0,0,1-.252-1.09L8.023,19.729V13.242l.446-.262-.477-.941-.58.342-5.9-3.537L7.65,5.158,13.611,8.74,9.764,11H11.84l2.14-1.258v.975a11.037,11.037,0,0,1,1.053-.4V9.129l5.91-3.477L20.936,7.32h0l0,.893,0,.9h0l-.006,1.541a7.764,7.764,0,0,1,1.041.623L21.971,9.3l.007,0L22,4.8a.52.52,0,0,0-.256-.455L14.773.16A.533.533,0,0,0,14.492.086ZM14.5,1.223l5.889,3.535L14.611,8.15l.02-.031L8.7,4.559ZM1.051,9.791l5.918,3.551v6.4L1.051,16.193Z" class="aw-theme-iconOutline" fill="#464646"/>
    <path id="path821" d="M17.5,11A9.164,9.164,0,0,0,14,12H9l2,4v1.5A6.5,6.5,0,1,0,17.5,11Zm0,1A5.5,5.5,0,1,1,12,17.5V15.766l-.107-.211L10.617,13h3.629l.217-.113A8.048,8.048,0,0,1,17.5,12ZM17,14v3H14v1h3v3h1V18h3V17H18V14Z" class="aw-theme-iconOutline" fill="#464646"/>
  </g>
</svg>
