<svg id="svg838" xmlns="http://www.w3.org/2000/svg" viewBox="0 0 24 24">
  <g id="g824">
    <path id="path817" d="M10.1,23.964a.532.532,0,0,1-.265-.248.5.5,0,0,1,0-.381c.028-.062,4.02-7.036,4.042-7.062,0,0,.8.44.823.464.008.007-.795,1.424-1.784,3.148l-1.8,3.136,2.885,0c1.587,0,4.182,0,5.768,0l2.883,0-3.1-5.4c-1.7-2.971-3.1-5.408-3.094-5.415a8.438,8.438,0,0,1,.826-.466c.031.031,6.636,11.56,6.659,11.623a.492.492,0,0,1-.142.524c-.148.126.453.116-6.933.115C10.324,24,10.191,24,10.1,23.964Z" class="aw-theme-iconOutline" fill="#464646"/>
    <path id="path4" d="M5.546,6.607l-2.175.956L3.5,10.108.965,9.938,0,12.224l2.009,1.644L.1,15.555l.888,2.169L3.535,17.6l-.2,2.606L5.649,21l1.662-1.912L9.007,21l.5-.2c.068-.132.4-.712.6-1.088l-.794.323-1.431-1.6a.59.59,0,0,0-.511-.214.761.761,0,0,0-.6.244L5.394,20.075l-1.107-.466.156-2.028a.728.728,0,0,0-.246-.6.591.591,0,0,0-.509-.212l-2.143.1L1.15,15.9l1.6-1.415a.586.586,0,0,0,.216-.51.756.756,0,0,0-.246-.6L1.1,11.993l.467-1.1,2.072.071c.269.02.42.033.567-.159a.586.586,0,0,0,.216-.507l-.1-2.137.97-.391L6.811,9.408a.677.677,0,0,0,.555.211,1.061,1.061,0,0,0,.557-.3L9.211,7.727l1.1.465-.071,2.065a.726.726,0,0,0,.163.566.576.576,0,0,0,.595.25l2.142-.1.393.963-1.6,1.418c-.157.133-.192.22-.214.509a.754.754,0,0,0,.246.6l.748.638c.124-.216.368-.647.447-.781l-.533-.475,1.916-1.688-.887-2.168-2.553.126L11.268,7.6,8.973,6.63,7.3,8.593Z" class="aw-theme-iconOutline" fill="#464646"/>
    <path id="path6-9" d="M17.1,10.6H15.39l-.67-1.724-1.636.749-1.191-1.2.748-1.648-1.636-.6V4.456l1.711-.6-.744-1.648,1.19-1.2,1.637.75L15.39.11H17.1l.6,1.648,1.637-.75,1.19,1.2-.744,1.648,1.711.6V6.179l-1.711.6.744,1.648-1.19,1.2L17.7,8.876Zm-1.265-.75h.67L17.027,8.5a.743.743,0,0,1,.3-.374.472.472,0,0,1,.447,0l1.342.6.448-.447-.6-1.349a.5.5,0,0,1,.371-.749l1.342-.524V4.98l-1.342-.524a.739.739,0,0,1-.371-.3.48.48,0,0,1,0-.448l.6-1.348-.448-.448-1.342.6a.661.661,0,0,1-.467.03.454.454,0,0,1-.278-.333L16.579.859H15.91l-.521,1.349a.664.664,0,0,1-.262.32.548.548,0,0,1-.482-.02l-1.342-.6-.448.447.6,1.349a.478.478,0,0,1,0,.447.49.49,0,0,1-.3.3l-1.406.529v.674l1.342.524a.756.756,0,0,1,.372.3.478.478,0,0,1,0,.447l-.6,1.349.448.448,1.342-.6a.469.469,0,0,1,.448,0,.527.527,0,0,1,.3.374Z" class="aw-theme-iconOutline" fill="#464646"/>
    <path id="path8" d="M16.266,6.8a1.487,1.487,0,1,1,1.476-1.5v.009A1.485,1.485,0,0,1,16.266,6.8Zm0-2.229a.7.7,0,0,0-.738.658q0,.042,0,.084a.738.738,0,1,0,1.475,0v0a.7.7,0,0,0-.654-.742A.575.575,0,0,0,16.266,4.574Z" class="aw-theme-iconOutline" fill="#464646"/>
    <path id="path4534" d="M7.362,11.4a2.461,2.461,0,1,0,2.461,2.461A2.461,2.461,0,0,0,7.362,11.4Zm0,.984a1.477,1.477,0,1,1-1.475,1.475A1.476,1.476,0,0,1,7.362,12.387Z" class="aw-theme-iconOutline" fill="#464646"/>
  </g>
</svg>
