<svg id="Verb_Zone" xmlns="http://www.w3.org/2000/svg"  viewBox="0 0 24 24">
  <g id="g819">
    <path id="path819" d="M17.619,19.131a7.921,7.921,0,0,1-1.373-.352,4.041,4.041,0,0,1-2.647-2.41,1.5,1.5,0,0,1-.072-.286A5.706,5.706,0,0,1,14.308,16h.166l.077.207a3.513,3.513,0,0,0,2.387,1.749,7.261,7.261,0,0,0,2.13.255,5.7,5.7,0,0,0,3.145-.99,2.335,2.335,0,0,0,.888-1.137l.084-.231V13.015c0-1.561-.014-2.839-.03-2.839a.235.235,0,0,0-.1.076,5.7,5.7,0,0,1-1.065.678,7.352,7.352,0,0,1-2.229.611,12.434,12.434,0,0,1-1.891,0,6.639,6.639,0,0,1-3.1-1.126l-.306-.231-.01.392-.01.391h-.933v-1.6a6.647,6.647,0,0,1,.076-1.843c.454-1.471,2.252-2.548,4.538-2.716a8.35,8.35,0,0,1,3.224.389,4.45,4.45,0,0,1,1.259.6,3.3,3.3,0,0,1,1.259,1.369c.266.553.251.268.251,4.8v4.066l-.107.333c-.442,1.376-1.837,2.359-3.9,2.749a8.978,8.978,0,0,1-1.205.067A5.907,5.907,0,0,1,17.619,19.131Zm1.521-8.558a6.142,6.142,0,0,0,2.421-.527,3.31,3.31,0,0,0,1.466-1.257,1,1,0,0,0,.1-.59,1.05,1.05,0,0,0-.093-.575,2.473,2.473,0,0,0-.7-.823,5.649,5.649,0,0,0-2.2-.9A9.537,9.537,0,0,0,18,5.822a4.221,4.221,0,0,0-3.432,1.8A1.37,1.37,0,0,0,14.7,8.977a4.559,4.559,0,0,0,3.251,1.575A4.193,4.193,0,0,0,19.14,10.573Z" class="aw-theme-iconOutline" fill="#464646"/>
    <path id="path821" d="M4.057,19.182C2.086,18.837.667,17.891.17,16.59l-.122-.319V7.713l.117-.287C.673,6.169,2.052,5.284,4.039,4.939a12.17,12.17,0,0,1,2.517,0,7.328,7.328,0,0,1,2.283.749A3.369,3.369,0,0,1,10.564,7.7a9.908,9.908,0,0,1,.073,2.268v2.005H9.7v-.863a6.373,6.373,0,0,0-.03-.863.223.223,0,0,0-.094.07,5.214,5.214,0,0,1-.811.552,7.348,7.348,0,0,1-2.154.7,12.3,12.3,0,0,1-2.574,0,7.093,7.093,0,0,1-1.957-.609,5.283,5.283,0,0,1-.988-.634.235.235,0,0,0-.1-.076c-.017,0-.027,1.3-.022,2.922l.01,2.921.129.27a2.358,2.358,0,0,0,.757.9,5.824,5.824,0,0,0,3.465,1.018c1.97-.007,3.627-.758,4.194-1.9l.156-.314.012-.515.011-.516h.93v.548a1.94,1.94,0,0,1-.121.9,2.855,2.855,0,0,1-.793,1.237,4.8,4.8,0,0,1-2.033,1.2,7.06,7.06,0,0,1-2.5.355A5.59,5.59,0,0,1,4.057,19.182Zm2.736-8.659A4.428,4.428,0,0,0,9.187,9.339a1.342,1.342,0,0,0,.474-1.045.9.9,0,0,0-.123-.63A1.854,1.854,0,0,0,9.112,7.1,4.775,4.775,0,0,0,6.574,5.948,10.985,10.985,0,0,0,4.485,5.9c-1.674.191-2.945.866-3.391,1.8a.976.976,0,0,0-.111.56.959.959,0,0,0,.134.6,3.185,3.185,0,0,0,1.59,1.316,7.424,7.424,0,0,0,2.123.486A10.65,10.65,0,0,0,6.793,10.523Z" class="aw-theme-iconOutline" fill="#464646"/>
    <path id="polygon6" d="M12.035,10.968l0,1.994H7.006V14H12.03L12,16l2.1-1.26,2.115-1.227-2.1-1.256Z" class="aw-theme-iconOutline" fill="#464646"/>
  </g>
</svg>
