<svg id="svg8" xmlns="http://www.w3.org/2000/svg" viewBox="0 0 24 24">
  <g id="g843">
    <path id="path847" d="M20.682,10.537V6.019l-2.206,0c-2.167,0-2.437,0-3.106-.056a4.085,4.085,0,0,1-1.654-.485,4.534,4.534,0,0,1-.8-.474,4.27,4.27,0,0,1-1.14-1.149c-.11-.159-.227-.353-.664-1.1l-.146-.25L10.957,7.4v3.311l-.9-.009c-.027-.1-.028-10.213,0-10.309a.472.472,0,0,1,.224-.265L10.372.08H21.213L21.3.122A.434.434,0,0,1,21.51.35a2.534,2.534,0,0,1,.041.692c.005.341.019.7.029.791a4.19,4.19,0,0,0,.353,1.186,16.745,16.745,0,0,0,1.481,2.014,1.756,1.756,0,0,1,.343.515.483.483,0,0,1-.053.3c-.047.075-.143.133-.165.1s-.023-.01-.019.024a6.122,6.122,0,0,1-1.094.046l-.836.013L21.581,9.3l-.009,1.5Zm-3.424-5.48c-.05-.045-.216-.185-.369-.311s-.331-.277-.4-.335-.159-.141-.21-.184L16.19,4.15l-.1.018c-.173.031-1.072.16-1.712.245-.33.044-.6.083-.608.087a3.8,3.8,0,0,0,.535.268,3.193,3.193,0,0,0,.934.266,16.1,16.1,0,0,0,1.717.1l.4,0Zm5.1.074s-.1-.137-.22-.292a9.818,9.818,0,0,1-1.029-1.518,4.907,4.907,0,0,1-.367-1.064,8.981,8.981,0,0,1-.1-1.022l-.012-.229H15.908c-2.595,0-4.718,0-4.718.012,0,.038.554,1.047.827,1.507.106.178.228.384.27.458a5.367,5.367,0,0,0,.513.74l.066.074.443-.066c.244-.036.569-.082.722-.1s.525-.072.827-.115c.591-.086,1.314-.18,1.523-.2a.312.312,0,0,1,.225.035,1.613,1.613,0,0,1,.256.193c.179.162,1.279,1.108,1.618,1.392l.215.18,1.412.009,1.829.013C22.166,5.139,22.354,5.136,22.354,5.131Z" class="aw-theme-iconOutline" fill="#464646"/>
    <path id="path849" d="M12.071,9.48a.505.505,0,0,1-.219-.211.485.485,0,0,1,.184-.623,33.382,33.382,0,0,1,3.742-.036h3.673l.071.04a.472.472,0,0,1-.011.811l-.094.047H15.776C12.565,9.508,12.127,9.5,12.071,9.48Z" class="aw-theme-iconOutline" fill="#464646"/>
    <path id="path851" d="M12.07,7.705a.477.477,0,0,1-.037-.793l.077-.055h7.4l.079.056a.479.479,0,0,1-.047.8l-.082.038H12.149Z" class="aw-theme-iconOutline" fill="#464646"/>
    <path id="path853" d="M18.444,4.448a.513.513,0,0,1-.087-.771c.1-.1.077-.1,1.215-.1a4.411,4.411,0,0,1,1.119.034.353.353,0,0,1,.19.206.535.535,0,0,1-.068.532c-.114.134-.043.126-1.24.126A6.445,6.445,0,0,1,18.444,4.448Z" class="aw-theme-iconOutline" fill="#464646"/>
    <path id="path856" d="M13.23,2.784a.449.449,0,0,1-.241-.234.538.538,0,0,1,.027-.458.405.405,0,0,1,.24-.187c.1-.027,6.251-.025,6.357,0a.479.479,0,0,1,.054.862A28.836,28.836,0,0,1,16.44,2.8C14.67,2.8,13.261,2.793,13.23,2.784Z" class="aw-theme-iconOutline" fill="#464646"/>
    <path id="path858" d="M3.976,5.031V2.024H5.654c.923,0,1.678,0,1.678-.008s-.185-.2-.411-.423a3.352,3.352,0,0,1-.445-.485.481.481,0,0,1,.1-.569.674.674,0,0,1,.15-.111.349.349,0,0,1,.2-.037c.222,0,.149-.059,1.161.951a8.716,8.716,0,0,1,.919.957.506.506,0,0,1,.047.3c-.026.166,0,.142-.967,1.1s-.957.954-1.111.974a.529.529,0,0,1-.565-.586c.027-.145.043-.164.5-.626l.433-.435H4.98V8.037h-1Z" class="aw-theme-iconOutline" fill="#464646"/>
    <path id="path860" d="M4.255,22.658a5.712,5.712,0,0,1-2.619-.8,3.737,3.737,0,0,1-1.1-.9,2.6,2.6,0,0,1-.44-.931l-.09-.316V16.308a36.942,36.942,0,0,1,.087-4.5,3.832,3.832,0,0,1,.408-.832A3.358,3.358,0,0,1,1.569,10a8.021,8.021,0,0,1,1.749-.634,6.648,6.648,0,0,1,1.687-.154,7.073,7.073,0,0,1,1.7.151,5.085,5.085,0,0,1,2.742,1.48l.2.2-.6-.011-.605-.011L8.2,10.876a5.429,5.429,0,0,0-2.385-.784,11.426,11.426,0,0,0-1.526,0,5.552,5.552,0,0,0-2.461.783,2.329,2.329,0,0,0-.852.987,1.645,1.645,0,0,0,.013,1.114,3.257,3.257,0,0,0,.578.7,3.455,3.455,0,0,0,.922.566,9.4,9.4,0,0,0,1.589.4A9.213,9.213,0,0,0,6,14.7a5.985,5.985,0,0,0,2.492-1.062,1.867,1.867,0,0,1,.261-.177,9.5,9.5,0,0,1,.406.861,6.173,6.173,0,0,1-1.154.706,6.2,6.2,0,0,1-1.755.546,8.24,8.24,0,0,1-2.093.038A6.479,6.479,0,0,1,1.14,14.526.955.955,0,0,0,.932,14.4C.925,14.4.913,15.557.905,16.96L.891,19.511l.071.216a2.136,2.136,0,0,0,.6.963,5.2,5.2,0,0,0,1.549.827,4.6,4.6,0,0,0,1.6.28A5.3,5.3,0,0,0,7.5,21.266a2.629,2.629,0,0,0,1.535-1.524l.063-.207.01-2.25c.006-1.237.015-2.253.019-2.258a1.085,1.085,0,0,1,.345-.062c.011.011.14.279.288.6l.27.576v3.529l-.1.3a3.4,3.4,0,0,1-.683,1.228A3.747,3.747,0,0,1,7.9,22.1a6.537,6.537,0,0,1-3.006.569c-.267,0-.575-.008-.638-.013Z" class="aw-theme-iconOutline" fill="#464646"/>
    <path id="path855" d="M21.183,18.064h-3v3h-1v-3h-3v-1h3v-3h1v3h3Z" class="aw-theme-iconOutline" fill="#464646"/>
    <path id="path2" d="M17.683,11.064a9.164,9.164,0,0,0-3.5,1h-5l2,4v1.5a6.5,6.5,0,1,0,6.5-6.5Zm0,1a5.5,5.5,0,1,1-5.5,5.5h0V15.828l-.105-.211L10.8,13.064h3.629l.219-.113A8.057,8.057,0,0,1,17.683,12.064Z" class="aw-theme-iconOutline" fill="#464646"/>
  </g>
</svg>
