<svg id="Layer_1" data-name="Layer 1" xmlns="http://www.w3.org/2000/svg" viewBox="0 0 24 24">
  <g id="g846">
    <path id="rect816" d="M0,0H22V1H0Z" class="aw-theme-iconOutline" fill="#464646"/>
    <path id="rect816-9" d="M0,4H22V5H0Z" class="aw-theme-iconOutline" fill="#464646"/>
    <path id="rect816-9-0" d="M1,0V22H0V0Z" class="aw-theme-iconOutline" fill="#464646"/>
    <path id="rect816-9-0-7" d="M22,0V12H21V0Z" class="aw-theme-iconOutline" fill="#464646"/>
    <path id="rect816-9-0-7-3" d="M11,22H0V21H11Z" class="aw-theme-iconOutline" fill="#464646"/>
    <path id="rect1037-1" d="M5,2H9V3H5Z" class="aw-theme-iconOutline" fill="#464646"/>
    <path id="rect1037-7" d="M11,2h4V3H11Z" class="aw-theme-iconOutline" fill="#464646"/>
    <path id="rect1037-7-3" d="M18,2h1V3H18Z" class="aw-theme-iconOutline" fill="#464646"/>
    <path id="path840" d="M17.742,17.45a3.488,3.488,0,0,1-2.059-3.06,2.136,2.136,0,0,1,.336-1.246,2.614,2.614,0,0,1,3.027-1.2,3.015,3.015,0,0,1,1.265.885,2.7,2.7,0,0,1,.108,3.074C19.767,17.155,18.689,17.777,17.742,17.45Zm1.09-.921a2.273,2.273,0,0,0,1-1.376,2.839,2.839,0,0,0-.012-1.53,1.478,1.478,0,0,0-1.249-.85c-1.27-.146-1.972.429-1.972,1.615a2.315,2.315,0,0,0,1.322,2.245A1.565,1.565,0,0,0,18.832,16.529Z" class="aw-theme-iconOutline" fill="#464646"/>
    <path id="path836" d="M14.772,21.992V19.983h.966V24h-.966Z" class="aw-theme-iconOutline" fill="#464646"/>
    <path id="path838" d="M12.9,21.623c.016-2.324.021-2.44.124-2.712a3.308,3.308,0,0,1,1.676-1.85,1.736,1.736,0,0,1,.468-.179,1.48,1.48,0,0,1,.457.2,5.539,5.539,0,0,0,2.149.823,5.111,5.111,0,0,0,3.008-.769,2.271,2.271,0,0,1,.562-.252,4.523,4.523,0,0,1,1.151.553,3.664,3.664,0,0,1,1.29,1.574c.105.277.11.379.126,2.64L23.929,24h-.916L23,21.623l-.015-2.377-.157-.28a2.741,2.741,0,0,0-1.1-.942l-.351-.184-.469.231a7.354,7.354,0,0,1-1.727.6l-.344.063.026.156c.056.337.484,3.757.472,3.766L18.845,23l-.478.334L18.03,23.1c-.186-.131-.406-.288-.489-.348l-.15-.11.218-1.721c.12-.946.232-1.814.247-1.928l.028-.208-.367-.06a5.014,5.014,0,0,1-1.636-.6l-.645-.331-.268.144a2.427,2.427,0,0,0-.99,1l-.147.32-.016,2.4L13.8,24h-.915Z" class="aw-theme-iconOutline" fill="#464646"/>
    <path id="path848" d="M21.026,21.992V19.983h.966V24h-.966Z" class="aw-theme-iconOutline" fill="#464646"/>
    <path id="path861" d="M12.674,9.116l-.7,0v0H8.489v-.01l-.714,0v.01H6.739l0,2.661,0,2.662.035.1a1.256,1.256,0,0,0,.254.419,1.084,1.084,0,0,0,.387.232h0c.062.018.618.017,2.833.017h2.757l.107-.042a1,1,0,0,0,.5-.5c.1-.226.1-.024.091-2.924l0-2.618-.521,0-.514,0Zm-5.225.8h5.557v2.171c0,2.339,0,2.243-.072,2.3-.03.023-.257.026-2.7.027-2.936,0-2.732.007-2.763-.1-.012-.036-.017-.678-.017-2.226Z" class="aw-theme-iconOutline" fill="#464646"/>
    <path id="path847" d="M6.113,5.888a3.4,3.4,0,0,0-.676.041,2.627,2.627,0,0,0-1.99,1.752A3.25,3.25,0,0,0,3.308,8.84v.422l.773,0V8.8a2.191,2.191,0,0,1,.1-.888,1.509,1.509,0,0,1,.2-.388,1.959,1.959,0,0,1,.447-.479,1.835,1.835,0,0,1,2.459.167,1.884,1.884,0,0,1,.482.778,2.306,2.306,0,0,1,.079.818v.459l.761,0v-.4a4.173,4.173,0,0,0-.062-.886,2.715,2.715,0,0,0-.823-1.443A2.683,2.683,0,0,0,6.27,5.9C6.218,5.893,6.165,5.89,6.113,5.888Z" class="aw-theme-iconOutline" fill="#464646"/>
    <path id="path4-4" d="M11.428,12.072a.995.995,0,0,0-1.989-.057v.057A.936.936,0,0,0,10.1,13v.729h.663V13A.938.938,0,0,0,11.428,12.072Zm-.994.332a.333.333,0,1,1,.331-.333h0a.314.314,0,0,1-.294.332Z" class="aw-theme-iconOutline" fill="#464646"/>
  </g>
</svg>
