<svg id="Layer_1" data-name="Layer 1" xmlns="http://www.w3.org/2000/svg" viewBox="0 0 24 24">
  <g id="g835">
    <path id="rect816" d="M1,1H23V2H1Z" class="aw-theme-iconOutline" fill="#464646"/>
    <path id="rect816-9" d="M1,5H23V6H1Z" class="aw-theme-iconOutline" fill="#464646"/>
    <path id="rect816-9-0" d="M2,1V23H1V1Z" class="aw-theme-iconOutline" fill="#464646"/>
    <path id="rect816-9-0-7" d="M23,1V23H22V1Z" class="aw-theme-iconOutline" fill="#464646"/>
    <path id="rect816-9-0-7-3" d="M22.93,23H1V22H22.93Z" class="aw-theme-iconOutline" fill="#464646"/>
    <path id="rect1037-1" d="M6,3h4V4H6Z" class="aw-theme-iconOutline" fill="#464646"/>
    <path id="rect1037-7" d="M12,3h4V4H12Z" class="aw-theme-iconOutline" fill="#464646"/>
    <path id="rect1037-7-3" d="M19,3h1V4H19Z" class="aw-theme-iconOutline" fill="#464646"/>
    <path id="path861" d="M15.835,12l-.8,0v0H11.049v-.012l-.815,0V12H9.048l.005,3.07,0,3.071.04.118a1.448,1.448,0,0,0,.29.483,1.228,1.228,0,0,0,.442.268h0c.07.021.707.02,3.239.02h3.152l.123-.049a1.143,1.143,0,0,0,.574-.578c.116-.261.109-.027.105-3.374l0-3.019-.6,0-.588,0Zm-5.975.923h6.355v2.505c0,2.7,0,2.587-.084,2.656-.034.028-.293.031-3.093.032-3.356,0-3.122.008-3.159-.113-.013-.041-.019-.782-.019-2.568Z" class="aw-theme-iconOutline" fill="#464646"/>
    <path id="path847" d="M8.271,8.145a3.913,3.913,0,0,0-.779.048,3.03,3.03,0,0,0-2.3,2.021,3.733,3.733,0,0,0-.16,1.337v.487l.892,0v-.531a2.506,2.506,0,0,1,.115-1.024,1.7,1.7,0,0,1,.233-.447,2.249,2.249,0,0,1,.516-.554,2.118,2.118,0,0,1,2.837.193,2.18,2.18,0,0,1,.556.9,2.691,2.691,0,0,1,.091.945l0,.529.878,0v-.465a4.8,4.8,0,0,0-.073-1.022,3.124,3.124,0,0,0-.95-1.665,3.091,3.091,0,0,0-1.68-.741C8.393,8.151,8.332,8.148,8.271,8.145Z" class="aw-theme-iconOutline" fill="#464646"/>
    <path id="path4-4" d="M14.2,15.323a1.147,1.147,0,1,0-2.294-.066q0,.033,0,.066a1.08,1.08,0,0,0,.764,1.07v.842h.765v-.842A1.081,1.081,0,0,0,14.2,15.323Zm-1.147.382a.383.383,0,1,1,.382-.384v0a.361.361,0,0,1-.339.382Z" class="aw-theme-iconOutline" fill="#464646"/>
  </g>
</svg>
