<svg id="Livello_2" data-name="Livello 2" xmlns="http://www.w3.org/2000/svg" viewBox="0 0 24 24">
  <g id="g1061">
    <path id="path925" d="M6.563,1.5v.7H6.91V1.5Z" class="aw-theme-iconOutline" fill="#464646"/>
    <path id="path923" d="M13.561,1.5v.7h.35V1.5Z" class="aw-theme-iconOutline" fill="#464646"/>
    <path id="path921" d="M20.561,1.5v.7h.348V1.5Z" class="aw-theme-iconOutline" fill="#464646"/>
    <path id="path919" d="M6.563,2.9v.7H6.91V2.9Z" class="aw-theme-iconOutline" fill="#464646"/>
    <path id="path917" d="M13.561,2.9v.7h.35V2.9Z" class="aw-theme-iconOutline" fill="#464646"/>
    <path id="path911" d="M6.563,4.3V5H6.91V4.3Z" class="aw-theme-iconOutline" fill="#464646"/>
    <path id="path909" d="M13.561,4.3v.527h-.176v.348h.7V4.824H13.91V4.3Z" class="aw-theme-iconOutline" fill="#464646"/>
    <path id="path907" d="M2.361,4.824v.348h.525V4.824Z" class="aw-theme-iconOutline" fill="#464646"/>
    <path id="path905" d="M3.588,4.824v.348h.7V4.824Z" class="aw-theme-iconOutline" fill="#464646"/>
    <path id="path903" d="M4.986,4.824v.348h.7V4.824Z" class="aw-theme-iconOutline" fill="#464646"/>
    <path id="path901" d="M7.787,4.824v.348h.7V4.824Z" class="aw-theme-iconOutline" fill="#464646"/>
    <path id="path899" d="M9.186,4.824v.348h.7V4.824Z" class="aw-theme-iconOutline" fill="#464646"/>
    <path id="path897" d="M10.586,4.824v.348h.7V4.824Z" class="aw-theme-iconOutline" fill="#464646"/>
    <path id="path895" d="M11.984,4.824v.348h.7V4.824Z" class="aw-theme-iconOutline" fill="#464646"/>
    <path id="path893" d="M14.785,4.824v.348h.7V4.824Z" class="aw-theme-iconOutline" fill="#464646"/>
    <path id="path891" d="M16.186,4.824v.348h.7V4.824Z" class="aw-theme-iconOutline" fill="#464646"/>
    <path id="path889" d="M6.563,5.7v.7H6.91V5.7Z" class="aw-theme-iconOutline" fill="#464646"/>
    <path id="path887" d="M13.561,5.7v.7h.35V5.7Z" class="aw-theme-iconOutline" fill="#464646"/>
    <path id="path885" d="M6.563,7.1v.7H6.91V7.1Z" class="aw-theme-iconOutline" fill="#464646"/>
    <path id="path883" d="M20.561,7.1v.7h.348V7.1Z" class="aw-theme-iconOutline" fill="#464646"/>
    <path id="path879" d="M6.563,8.5v.7H6.91V8.5Z" class="aw-theme-iconOutline" fill="#464646"/>
    <path id="path877" d="M6.563,9.9v.7H6.91V9.9Z" class="aw-theme-iconOutline" fill="#464646"/>
    <path id="path871" d="M2.361,10.078v.348h.525v-.348Z" class="aw-theme-iconOutline" fill="#464646"/>
    <path id="path869" d="M3.588,10.078v.348h.7v-.348Z" class="aw-theme-iconOutline" fill="#464646"/>
    <path id="path867" d="M4.986,10.078v.348h.7v-.348Z" class="aw-theme-iconOutline" fill="#464646"/>
    <path id="path865" d="M7.787,10.078v.348h.7v-.348Z" class="aw-theme-iconOutline" fill="#464646"/>
    <path id="path863" d="M9.186,10.078v.348h.7v-.348Z" class="aw-theme-iconOutline" fill="#464646"/>
    <path id="path897-9" d="M16.186,4.824v.348h.7V4.824Z" class="aw-theme-iconOutline" fill="#464646"/>
    <path id="path895-4" d="M17.584,4.824v.348h.7V4.824Z" class="aw-theme-iconOutline" fill="#464646"/>
    <path id="path893-4" d="M20.385,4.824v.348h.7V4.824Z" class="aw-theme-iconOutline" fill="#464646"/>
    <path id="path891-3" d="M21.786,4.824v.348h.7V4.824Z" class="aw-theme-iconOutline" fill="#464646"/>
    <path id="path925-9" d="M6.563,9.9v.7H6.91V9.9Z" class="aw-theme-iconOutline" fill="#464646"/>
    <path id="path919-0" d="M6.563,11.3V12H6.91v-.7Z" class="aw-theme-iconOutline" fill="#464646"/>
    <path id="path885-0-2" d="M12.654,10.081h-.7v.347h.7Z" class="aw-theme-iconOutline" fill="#464646"/>
    <path id="path879-4-0" d="M11.254,10.081h-.7v.347h.7Z" class="aw-theme-iconOutline" fill="#464646"/>
    <path id="path877-0-0" d="M9.852,10.081h-.7v.347h.7Z" class="aw-theme-iconOutline" fill="#464646"/>
    <path id="path877-0-0-1" d="M13.89,6.394v-.7h-.347v.7Z" class="aw-theme-iconOutline" fill="#464646"/>
    <path id="path925-9-4-57" d="M20.883,4.293v.7h-.347v-.7Z" class="aw-theme-iconOutline" fill="#464646"/>
    <path id="path919-0-7-9" d="M20.883,5.693v.7h-.347v-.7Z" class="aw-theme-iconOutline" fill="#464646"/>
    <path id="path911-5-7-0" d="M20.883,7.094v.7h-.347v-.7Z" class="aw-theme-iconOutline" fill="#464646"/>
    <path id="path889-6-9-2" d="M20.883,8.494v.7h-.347v-.7Z" class="aw-theme-iconOutline" fill="#464646"/>
    <path id="path885-0-2-7" d="M20.883,9.9v.7h-.347V9.9Z" class="aw-theme-iconOutline" fill="#464646"/>
    <path id="path925-9-4-8" d="M23.825,10.076h-.7v.347h.7Z" class="aw-theme-iconOutline" fill="#464646"/>
    <path id="path919-0-7-21" d="M22.425,10.076h-.7v.347h.7Z" class="aw-theme-iconOutline" fill="#464646"/>
    <path id="path911-5-7-31" d="M21.024,10.076h-.7v.347h.7Z" class="aw-theme-iconOutline" fill="#464646"/>
    <path id="path889-6-9-29" d="M19.624,10.076h-.7v.347h.7Z" class="aw-theme-iconOutline" fill="#464646"/>
    <path id="path925-9-4-56" d="M23.889,4.825h-.7v.347h.7Z" class="aw-theme-iconOutline" fill="#464646"/>
    <path id="path919-0-7-79" d="M22.489,4.825h-.7v.347h.7Z" class="aw-theme-iconOutline" fill="#464646"/>
    <path id="path911-5-7-22" d="M21.088,4.825h-.7v.347h.7Z" class="aw-theme-iconOutline" fill="#464646"/>
    <path id="path889-6-9-3" d="M19.688,4.825h-.7v.347h.7Z" class="aw-theme-iconOutline" fill="#464646"/>
    <path id="path885-0-2-52" d="M18.285,4.825h-.7v.347h.7Z" class="aw-theme-iconOutline" fill="#464646"/>
    <path id="path879-4-0-0" d="M16.885,4.825h-.7v.347h.7Z" class="aw-theme-iconOutline" fill="#464646"/>
    <path id="path877-0-0-7" d="M15.483,4.825h-.7v.347h.7Z" class="aw-theme-iconOutline" fill="#464646"/>
    <path id="path925-9-4-0" d="M20.909,10.6V9.9h-.347v.7Z" class="aw-theme-iconOutline" fill="#464646"/>
    <path id="path919-0-7-95" d="M20.909,9.2V8.5h-.347v.7Z" class="aw-theme-iconOutline" fill="#464646"/>
    <path id="path911-5-7-7" d="M20.909,7.8V7.1h-.347v.7Z" class="aw-theme-iconOutline" fill="#464646"/>
    <path id="path889-6-9-4" d="M20.909,6.4V5.7h-.347v.7Z" class="aw-theme-iconOutline" fill="#464646"/>
    <path id="path885-0-2-63" d="M20.909,5V4.3h-.347V5Z" class="aw-theme-iconOutline" fill="#464646"/>
    <path id="path879-4-0-04" d="M20.909,3.6V2.9h-.347v.7Z" class="aw-theme-iconOutline" fill="#464646"/>
    <path id="path877-0-0-63" d="M20.909,2.2V1.5h-.347v.7Z" class="aw-theme-iconOutline" fill="#464646"/>
    <path id="rect1224" d="M.5,0A.511.511,0,0,1,1,.523V23.477A.511.511,0,0,1,.5,24a.511.511,0,0,1-.5-.523V.523A.511.511,0,0,1,.5,0Z" class="aw-theme-iconOutline" fill="#464646"/>
    <path id="rect1224-6" d="M24,23.5a.511.511,0,0,1-.523.5H.523a.5.5,0,1,1,0-1H23.477A.511.511,0,0,1,24,23.5Z" class="aw-theme-iconOutline" fill="#464646"/>
    <path id="rect903" d="M2,14V24H6V14Zm1,1H5v8H3Z" class="aw-theme-iconOutline" fill="#464646"/>
    <path id="rect932" d="M8,11V24h4V11Zm1,1h2V23H9Z" class="aw-theme-iconOutline" fill="#464646"/>
    <path id="rect932-2" d="M20,11V24h4V11Zm1,1h2V23H21Z" class="aw-theme-iconOutline" fill="#464646"/>
    <path id="rect974" d="M14,7V24h4V7Zm1,1h2V23H15Z" class="aw-theme-iconOutline" fill="#464646"/>
  </g>
</svg>
