<svg id="Image" xmlns="http://www.w3.org/2000/svg" viewBox="0 0 24 24">
  <g id="g850">
    <path id="path2" d="M17.5,24A6.5,6.5,0,1,1,24,17.5,6.5,6.5,0,0,1,17.5,24Zm0-12A5.5,5.5,0,1,0,23,17.5,5.5,5.5,0,0,0,17.5,12Z" class="aw-theme-iconOutline" fill="#464646"/>
    <path id="polygon4" d="M17,21h1V18h3V17H18V14H17v3H14v1h3Z" class="aw-theme-iconOutline" fill="#464646"/>
    <path id="rect848" d="M0,0H1V21.864H0Z" class="aw-theme-iconOutline" fill="#464646"/>
    <path id="rect848-3" d="M7,0H8V21.941H7Z" class="aw-theme-iconOutline" fill="#464646"/>
    <path id="rect865" d="M2,16H6v4H2Z" class="aw-theme-iconOutline" fill="#464646"/>
    <path id="rect894" d="M1,0H15V1H1Z" class="aw-theme-iconOutline" fill="#464646"/>
    <path id="rect894-2" d="M0,21H10.2a9.374,9.374,0,0,0,.9,1H0Z" class="aw-theme-iconOutline" fill="#464646"/>
    <path id="rect848-3-9" d="M14,1h1v9.1a1.8,1.8,0,0,0-1,.4Z" class="aw-theme-iconOutline" fill="#464646"/>
    <path id="rect865-0-3" d="M9,2h4V6H9Z" class="aw-theme-iconOutline" fill="#464646"/>
    <path id="rect941" d="M.924,7h14V8h-14Z" class="aw-theme-iconOutline" fill="#464646"/>
    <path id="rect941-2" d="M.924,14h9.252a2.382,2.382,0,0,0-.252,1h-9Z" class="aw-theme-iconOutline" fill="#464646"/>
  </g>
</svg>
