<svg id="svg8" xmlns="http://www.w3.org/2000/svg" viewBox="0 0 24 24">
  <g id="g858">
    <path id="path841" d="M1.289,0A1.3,1.3,0,0,0,0,1.31V19.688A1.3,1.3,0,0,0,1.286,21H11v-.875H8.75v-3.5H11V15.75H8.75v-3.5H11v-.9H8.75V7.875h3.063V11h.875V7.875h3.066V11h.875V7.875h3.078V11h.856V1.313A1.3,1.3,0,0,0,19.276,0H1.289Zm.424.875H18.85a.905.905,0,0,1,.857.875V6.938H.857V1.75A.9.9,0,0,1,1.713.875Zm-.856,7H3.938v3.471H.857Zm3.956,0H7.875v3.471H4.813ZM.857,12.25H3.938v3.5H.857Zm3.956,0H7.875v3.5H4.813ZM.857,16.625H3.938v3.5H1.713a.9.9,0,0,1-.856-.875Zm3.956,0H7.875v3.5H4.813Z" class="aw-theme-iconOutline" fill="#464646" fill-rule="evenodd"/>
    <path id="path837" d="M6.391,2.188a1.75,1.75,0,1,0,1.75,1.75A1.749,1.749,0,0,0,6.391,2.188Zm0,.875a.875.875,0,1,1-.875.875A.875.875,0,0,1,6.391,3.063Z" class="aw-theme-iconOutline" fill="#464646" fill-rule="evenodd"/>
    <path id="path835" d="M14.266,2.188a1.75,1.75,0,1,0,1.75,1.75A1.749,1.749,0,0,0,14.266,2.188Zm0,.875a.875.875,0,1,1,0,1.75h0a.875.875,0,0,1,0-1.75Z" class="aw-theme-iconOutline" fill="#464646" fill-rule="evenodd"/>
    <path id="rect4" d="M16.286,18.857h3.428v.857H16.286Z" class="aw-theme-iconOutline" fill="#464646"/>
    <path id="rect6" d="M16.286,20.571h3.428v.858H16.286Z" class="aw-theme-iconOutline" fill="#464646"/>
    <path id="path8-3" d="M21.171,12H12V24H24V14.829Zm-4.885.857H18v1.714h.857V12.857h.857v2.572H16.286Zm5.143,10.286H14.571V18.429A.4.4,0,0,1,14.95,18,.417.417,0,0,1,15,18h6a.4.4,0,0,1,.429.379.417.417,0,0,1,0,.05Zm1.714,0h-.857V18.429A1.318,1.318,0,0,0,21,17.143H15a1.318,1.318,0,0,0-1.286,1.286v4.714h-.857V12.857h2.572v3.429h5.142V12.857h.258l2.314,2.314Z" class="aw-theme-iconOutline" fill="#464646"/>
  </g>
</svg>
