<svg id="Image" xmlns="http://www.w3.org/2000/svg" viewBox="0 0 24 24">
  <g id="g829">
    <path id="path855" d="M0,.033V21.008H13.872v-.934H1.082V.967H18V7.991h1V.033Z" class="aw-theme-iconOutline" fill="#464646"/>
    <path id="path835" d="M10,4.5A.5.5,0,0,0,9.5,4h-6a.5.5,0,0,0,0,1h6a.5.5,0,0,0,.5-.5Z" class="aw-theme-iconOutline" fill="#464646"/>
    <path id="path833" d="M10,9.5A.5.5,0,0,0,9.5,9h-6a.5.5,0,0,0,0,1h6a.5.5,0,0,0,.5-.5Z" class="aw-theme-iconOutline" fill="#464646"/>
    <path id="path831" d="M10,14.5a.5.5,0,0,0-.5-.5h-6a.5.5,0,0,0,0,1h6a.5.5,0,0,0,.5-.5Z" class="aw-theme-iconOutline" fill="#464646"/>
    <path id="path829" d="M16.249,6.72a.541.541,0,0,0-.757.065l-1.58,1.877L12.919,7.7a.541.541,0,0,0-.757.774l1.406,1.376.017.011s.007.012.013.016a.439.439,0,0,0,.108.06.474.474,0,0,0,.054.031.523.523,0,0,0,.191.037.56.56,0,0,0,.217-.047.438.438,0,0,0,.063-.043.537.537,0,0,0,.109-.074.15.15,0,0,1,.01-.016.1.1,0,0,0,.017-.013l1.948-2.329A.542.542,0,0,0,16.249,6.72Z" class="aw-theme-iconOutline" fill="#464646"/>
    <path id="path2-6" d="M20.561,12.863a.487.487,0,0,0-.653.218l-1.647,3.292L16.791,14.9a.487.487,0,0,0-.689.689l1.949,1.948a.483.483,0,0,0,.344.143.512.512,0,0,0,.078-.006.489.489,0,0,0,.358-.263l1.948-3.9a.488.488,0,0,0-.218-.654h0Z" class="aw-theme-iconOutline" fill="#464646"/>
    <path id="path4" d="M23.123,15.059l.773-1.307a.437.437,0,0,0-.181-.611l-.034-.016L22.246,12.5l-.185-1.487a.468.468,0,0,0-.526-.393l-.037.005-1.551.293-1.072-1.1a.508.508,0,0,0-.691-.005l-.005.005-1.072,1.1-1.551-.293a.51.51,0,0,0-.371.077.445.445,0,0,0-.192.31L14.808,12.5l-1.435.626a.44.44,0,0,0-.233.6l.017.031.774,1.307-.773,1.306a.437.437,0,0,0,.181.611l.034.016,1.435.627.185,1.487a.47.47,0,0,0,.526.393l.037-.006.129-.024v4.118a.462.462,0,0,0,.473.449.5.5,0,0,0,.285-.09l2.084-1.481,2.084,1.481a.487.487,0,0,0,.285.09.462.462,0,0,0,.473-.449h0V19.469l.129.024a.473.473,0,0,0,.557-.352l.006-.035.185-1.487,1.435-.627a.439.439,0,0,0,.233-.6l-.018-.032Zm-2.7,7.63-1.611-1.144a.493.493,0,0,0-.568,0l-1.611,1.144v-3.4l.475-.09,1.072,1.1a.493.493,0,0,0,.67.025l.026-.025,1.072-1.1.475.089Zm1.745-7.411.652,1.1-1.211.528a.45.45,0,0,0-.272.355l-.156,1.255-1.308-.247a.487.487,0,0,0-.44.135l-.9.928-.9-.928a.487.487,0,0,0-.348-.144.584.584,0,0,0-.093.008l-1.308.247-.156-1.254a.453.453,0,0,0-.272-.356l-1.211-.527.652-1.1a.429.429,0,0,0,0-.44l-.652-1.1,1.211-.527a.451.451,0,0,0,.272-.355l.156-1.255,1.308.247a.482.482,0,0,0,.44-.136l.905-.927.9.927a.48.48,0,0,0,.441.136l1.307-.247.156,1.254a.453.453,0,0,0,.273.355l1.211.528-.652,1.1a.427.427,0,0,0,0,.439Z" class="aw-theme-iconOutline" fill="#464646"/>
    <path id="path2-8" d="M16.244,1.72a.541.541,0,0,0-.757.065L13.908,3.662,12.92,2.7a.542.542,0,0,0-.758.774h0l1.406,1.376a.079.079,0,0,1,.016.012s.008.011.013.015a.554.554,0,0,0,.1.058.53.53,0,0,0,.057.033A.546.546,0,0,0,13.947,5a.556.556,0,0,0,.216-.047.4.4,0,0,0,.064-.043.521.521,0,0,0,.108-.072l.011-.018s.012-.007.016-.013l1.956-2.324a.542.542,0,0,0-.074-.763Z" class="aw-theme-iconOutline" fill="#464646"/>
  </g>
</svg>
