<svg id="svg8" xmlns="http://www.w3.org/2000/svg" viewBox="0 0 24 24">
  <g id="g852">
    <path id="rect815" d="M1.289,0A1.3,1.3,0,0,0,0,1.313V19.688A1.3,1.3,0,0,0,1.289,21H9.5v-.875H8.75v-3.5H9.5V15.75H8.75v-3.5H14v-.9H8.75V7.875h3.063V11.3h.875V7.875h3.066V12h.875V7.875h3.078V12h.856V1.313A1.3,1.3,0,0,0,19.275,0Zm.424.875H18.85a.905.905,0,0,1,.857.875V6.938H.857V1.75A.9.9,0,0,1,1.713.875ZM6.391,2.188a1.75,1.75,0,1,0,1.75,1.75A1.749,1.749,0,0,0,6.391,2.188Zm7.875,0a1.75,1.75,0,1,0,1.75,1.75A1.749,1.749,0,0,0,14.266,2.188Zm-7.875.875a.875.875,0,1,1-.875.875A.875.875,0,0,1,6.391,3.063Zm7.875,0a.875.875,0,1,1-.875.875A.875.875,0,0,1,14.266,3.063ZM.857,7.875H3.938v3.471H.857Zm3.956,0H7.875v3.471H4.813ZM.857,12.25H3.938v3.5H.857Zm3.956,0H7.875v3.5H4.813ZM.857,16.625H3.938v3.5H1.713a.9.9,0,0,1-.856-.875Zm3.956,0H7.875v3.5H4.813Z" class="aw-theme-iconOutline" fill="#464646" fill-rule="evenodd"/>
    <path id="path6" d="M14.8,19.749a.5.5,0,0,1-.457-.274,3.4,3.4,0,0,1-.183-1.1A2.852,2.852,0,0,1,17,15.538a3.172,3.172,0,0,1,.824.092.408.408,0,0,1,.292.5.456.456,0,0,1-.018.052c-.091.183-.366.366-.549.274a1.014,1.014,0,0,0-.457-.091,2,2,0,0,0-1.922,1.921,1.722,1.722,0,0,0,.183.732.442.442,0,0,1-.274.549C14.9,19.749,14.9,19.749,14.8,19.749Z" class="aw-theme-iconOutline" fill="#464646"/>
    <path id="path10" d="M17,21.213a2.682,2.682,0,0,1-.915-.183.434.434,0,1,1,.254-.829l.021.006a2.31,2.31,0,0,0,.64.183,2,2,0,0,0,1.922-1.922,1.348,1.348,0,0,0-.092-.64.434.434,0,0,1,.824-.275,3.788,3.788,0,0,1,.091,1.007,2.675,2.675,0,0,1-2.7,2.654Z" class="aw-theme-iconOutline" fill="#464646"/>
    <path id="path14" d="M17,23.226a6.67,6.67,0,0,1-2.47-.366.434.434,0,1,1,.244-.833l.03.01a5.087,5.087,0,0,0,2.1.366,7.218,7.218,0,0,0,6.13-3.935A10.511,10.511,0,0,0,21.118,16a.453.453,0,0,1,.64-.641,10,10,0,0,1,2.1,2.654.816.816,0,0,1,0,.915A8.122,8.122,0,0,1,17,23.226Z" class="aw-theme-iconOutline" fill="#464646"/>
    <path id="path18" d="M12.517,21.671a.333.333,0,0,1-.275-.092,7.49,7.49,0,0,1-2.105-2.745.816.816,0,0,1,0-.915A8.038,8.038,0,0,1,17,13.527a6.5,6.5,0,0,1,2.379.366.434.434,0,1,1-.244.833l-.03-.01a4.939,4.939,0,0,0-2.013-.366,7.225,7.225,0,0,0-6.131,3.935,7.025,7.025,0,0,0,1.922,2.471.452.452,0,0,1,.1.631l-.007.009A.835.835,0,0,1,12.517,21.671Z" class="aw-theme-iconOutline" fill="#464646"/>
    <path id="path51" d="M11.876,23.958a.547.547,0,0,1-.366-.091.443.443,0,0,1-.015-.626l.015-.015L21.761,12.978a.453.453,0,0,1,.641.64L12.242,23.867A.545.545,0,0,1,11.876,23.958Z" class="aw-theme-iconOutline" fill="#464646"/>
    <path id="rect823" d="M11.808,11.034h.878V13h-.878Z" class="aw-theme-iconOutline" fill="#464646"/>
  </g>
</svg>
