<svg id="Artwork" xmlns="http://www.w3.org/2000/svg" viewBox="0 0 24 24">
  <g id="g823">
    <path id="rect946-9" d="M21.441,1.635l-8,.01V3.561L12.355,1.674,5.42,5.66,7.369,9.051,4.156,7.807,1.762,13.992l-.741,0L1,21.99l13.828.039.559.971,1.677-.965,1.688,0,1.166.451.174-.447.908,0v0l.445,0V19.518l.877-.5L21.7,17.928l1.11-2.9L21.443,14.5Zm-7,1.01h6V20.992h-6Zm-2.455.394,1.145,1.99L7.939,8.037,6.785,6.029Zm1.453,2.967V8.568L9.6,10.924,8.438,8.9ZM4.727,9.1l.9.347-2.148,5.6L2.561,14.7Zm8.711.623v2.738l-2.18,1.35L10.1,11.791ZM6.523,9.8l.924.357L5.3,15.756,4.375,15.4Zm1.766.861.662,1.172L7.166,16.48,6.2,16.105ZM9.572,12.9l.151.258.382.633.1.166.022.037L9,17.191l-.938-.363Zm3.864.715,0,3.979-1.678-2.92Zm-2.577,1.432L11,15.3l.295.465.016.029.2.4-.653,1.721L9.9,17.541ZM17.5,16.992a1.5,1.5,0,1,0,1.5,1.5A1.5,1.5,0,0,0,17.5,16.992Zm-5.385.326.8,1.391-1.16-.449Zm5.385.674a.5.5,0,1,1-.5.5A.5.5,0,0,1,17.5,17.992Z" class="aw-theme-iconOutline" fill="#464646"/>
  </g>
</svg>
