<svg id="Image" xmlns="http://www.w3.org/2000/svg" viewBox="0 0 24 24">
  <g id="g947">
    <path id="path928" d="M.725,23.947A1.314,1.314,0,0,1,.1,23.383L0,23.2V9.357L.085,9.2a1.313,1.313,0,0,1,.526-.534l.18-.1H14.13l.177.087a1.286,1.286,0,0,1,.532.514l.082.154V23.236l-.081.152a1.1,1.1,0,0,1-.506.5l-.2.1L7.515,24C1.507,24,.883,24,.725,23.947Zm2.053-2,.01-1.069H.953v.9c0,.853,0,.911.075,1.025a1.072,1.072,0,0,0,.081.122s.07.024.149.052a2.9,2.9,0,0,0,.827.045l.684-.008Zm2.8,0,.01-1.069H3.757v1.054c0,.58.011,1.066.025,1.08a9.034,9.034,0,0,0,.908.015l.883-.01Zm2.777.009V20.881h-1.8v1.054c0,.58.01,1.066.024,1.079a8.961,8.961,0,0,0,.9.024h.874Zm2.805,0V20.881h-1.8v2.157h1.8Zm2.577,1.016a.667.667,0,0,0,.162-.162c.081-.113.084-.142.095-1.024l.012-.908H12.171v2.163l.746-.012A3.493,3.493,0,0,0,13.741,22.975ZM2.786,18.8V17.717H.953v2.157H2.786Zm2.805,0V17.717H3.757v2.157H5.591Zm2.768,0V17.717h-1.8v2.157h1.8Zm2.805,0V17.717h-1.8v2.157h1.8Zm2.822,0v-1.06l-.908-.01-.907-.009v2.159l.907-.009.908-.01Zm-11.2-3.146v-1.06H.953V16.71H2.786Zm2.805,0v-1.06H3.757V16.71H5.591Zm2.768,0v-1.06h-1.8V16.71h1.8Zm2.805,0v-1.06h-1.8V16.71h1.8ZM14,15.64l.009-1.051H12.171v2.122l.907-.009.908-.01Zm-.01-3.928a7.3,7.3,0,0,0-.063-1.932c-.133-.242.368-.225-6.483-.225H1.232l-.14.14-.139.139v3.712l6.517-.009,6.516-.009Z" class="aw-theme-iconOutline" fill="#464646"/>
    <path id="path930" d="M9.942,12.951A1.444,1.444,0,0,1,8.9,11.8,1.427,1.427,0,0,1,9.864,10.2a1.411,1.411,0,0,1,1.774.892,1.234,1.234,0,0,1,.059.529,1.07,1.07,0,0,1-.129.563A1.424,1.424,0,0,1,9.942,12.951Zm.576-1.006a.437.437,0,1,0-.557-.659.459.459,0,0,0,.116.658.5.5,0,0,0,.441,0Z" class="aw-theme-iconOutline" fill="#464646"/>
    <path id="path932" d="M4.368,12.958a1.518,1.518,0,0,1-.963-.8,1.059,1.059,0,0,1-.1-.584,1.044,1.044,0,0,1,.111-.612,1.5,1.5,0,0,1,.7-.7,1.017,1.017,0,0,1,.593-.111.986.986,0,0,1,.6.116,1.464,1.464,0,0,1,.8,1.527,1.536,1.536,0,0,1-.405.79A1.414,1.414,0,0,1,4.368,12.958Zm.608-1.05a.44.44,0,1,0-.645-.108A.443.443,0,0,0,4.976,11.908Z" class="aw-theme-iconOutline" fill="#464646"/>
    <path id="path844" d="M21,13.374a5.406,5.406,0,0,1-.928,2.822,6.505,6.505,0,0,1-1.244,1.291c-.388.285-.46.245.852.475a9.469,9.469,0,0,1,.982.2,2.676,2.676,0,0,1-.121.865,12.659,12.659,0,0,1-1.947-.293,10.124,10.124,0,0,1-1.914-.412c0-.086.666-3.793.685-3.815a3.276,3.276,0,0,1,.479.069c.428.078.46.092.437.193-.094.42-.384,2.134-.363,2.154.047.047.511-.3.828-.625a4.592,4.592,0,0,0,1.313-2.906l.031-.344H21Z" class="aw-theme-iconOutline" fill="#464646"/>
    <path id="rect1021" d="M16,6v5h8V6Zm1,1h6v3H17Z" class="aw-theme-iconOutline" fill="#464646"/>
    <path id="path843-8" d="M19,9.063a.5.5,0,1,0,.5-.5A.5.5,0,0,0,19,9.063Z" class="aw-theme-iconOutline" fill="#464646"/>
    <path id="path841-5" d="M17.5,8.563a.5.5,0,1,1-.5.5A.5.5,0,0,1,17.5,8.563Z" class="aw-theme-iconOutline" fill="#464646"/>
    <path id="path839-1" d="M20.5,7.563a.5.5,0,1,1-.5.5A.5.5,0,0,1,20.5,7.563Z" class="aw-theme-iconOutline" fill="#464646"/>
    <path id="path837-1" d="M18.5,7.563a.5.5,0,1,1-.5.5A.5.5,0,0,1,18.5,7.563Z" class="aw-theme-iconOutline" fill="#464646"/>
    <path id="path839-2-4" d="M22.5,7.563a.5.5,0,1,1-.5.5A.5.5,0,0,1,22.5,7.563Z" class="aw-theme-iconOutline" fill="#464646"/>
    <path id="path843-3-3" d="M20.975,9.063a.5.5,0,1,0,.5-.5A.5.5,0,0,0,20.975,9.063Z" class="aw-theme-iconOutline" fill="#464646"/>
    <path id="rect1021-1" d="M16,0V5h8V0Zm1,1h6V4H17Z" class="aw-theme-iconOutline" fill="#464646"/>
    <path id="path844-2" d="M10,6.625A5.406,5.406,0,0,1,10.928,3.8a6.505,6.505,0,0,1,1.244-1.291c.388-.285.46-.245-.852-.474a9.325,9.325,0,0,1-.982-.2,2.676,2.676,0,0,1,.121-.865,12.659,12.659,0,0,1,1.947.293,10.124,10.124,0,0,1,1.914.412c0,.086-.666,3.793-.685,3.815a3.276,3.276,0,0,1-.479-.069c-.428-.078-.46-.092-.437-.193.094-.419.384-2.134.363-2.154-.047-.047-.511.3-.828.625a4.592,4.592,0,0,0-1.313,2.906l-.031.344H10Z" class="aw-theme-iconOutline" fill="#464646"/>
  </g>
</svg>
