<svg id="svg8" xmlns="http://www.w3.org/2000/svg" viewBox="0 0 24 24">
  <g id="g824">
    <path id="path830" d="M10.084-.033C1.741-.046,1.017-.039.811.039a1.551,1.551,0,0,0-.735.65L-.033.9-.047,9.889c-.008,5.785,0,9.06.037,9.179a1.4,1.4,0,0,0,.834.9c.119.044,2.406.062,9.184.064h.441a7.41,7.41,0,0,1-.261-.912h-1.6V15.871h1.6a7.475,7.475,0,0,1,.269-.914H8.584V11.7h2.848v1.4a7.49,7.49,0,0,1,.966-1.093V11.7h.354a7.508,7.508,0,0,1,1.525-.965H12.4v-3.2h2.848v2.822a7.7,7.7,0,0,1,.971-.244l.008-.965.011-1.587,1.438-.014,1.435-.014v2.651a7.522,7.522,0,0,1,.942.275V10c0-8.246-.007-9.067-.082-9.232a1.6,1.6,0,0,0-.625-.672l-.209-.112ZM1.59.871l8.416,0c8.1,0,8.426.005,8.627.1a.972.972,0,0,1,.33.265l.121.172.016,2.58.013,2.58H.906V1.445l.115-.172A1.063,1.063,0,0,1,1.363.986Zm6.029,6.66v3.205h-2.9l.013-1.59.014-1.587,1.436-.014Zm-6.713,0H3.754v3.2H.906v-3.2Zm7.678,0h2.848v3.2H8.584v-3.2ZM.906,11.7H3.754v3.256H.906V11.7Zm3.815,0h2.9v3.256h-2.9V11.7ZM.906,15.871H3.754v3.254l-1.08,0c-1.152,0-1.3-.025-1.5-.209-.26-.242-.27-.3-.27-1.717Zm3.815,0h2.9v3.254h-2.9V15.871Z" class="aw-theme-iconOutline" fill="#464646"/>
    <path id="path832" d="M13.227,5.341a2.028,2.028,0,0,1-.921-.829,1.26,1.26,0,0,1-.137-.768,1.186,1.186,0,0,1,.151-.781,1.993,1.993,0,0,1,.83-.777,1.369,1.369,0,0,1,.723-.119,1.285,1.285,0,0,1,.777.148,1.685,1.685,0,0,1,.41,2.774,1.952,1.952,0,0,1-.554.353A2.007,2.007,0,0,1,13.227,5.341Zm.968-.878a.781.781,0,0,0-.21-1.487.913.913,0,0,0-.722.27A.789.789,0,0,0,14.2,4.463Z" class="aw-theme-iconOutline" fill="#464646"/>
    <path id="path835" d="M5.656,5.378A1.914,1.914,0,0,1,4.8,4.744,1.7,1.7,0,0,1,5.475,2.2a1.391,1.391,0,0,1,.745-.135,1.372,1.372,0,0,1,.738.133,1.919,1.919,0,0,1,.853.858A1.75,1.75,0,0,1,7.833,4.4a1.73,1.73,0,0,1-.782.844,1.314,1.314,0,0,1-.754.187A2.169,2.169,0,0,1,5.656,5.378Zm.92-.947a.746.746,0,0,0,.321-.3.778.778,0,0,0-1.259-.9.571.571,0,0,0-.192.446.691.691,0,0,0,.394.738A.711.711,0,0,0,6.576,4.431Z" class="aw-theme-iconOutline" fill="#464646"/>
    <path id="path4" d="M18.58,24H16.417l-.746-2.111-2,.948-1.528-1.528.951-2L11,18.561V16.4l2.1-.744-.951-2,1.528-1.528,2.006.952L16.419,11H18.58l.742,2.079,2-.953,1.529,1.529-.951,2L24,16.4v2.164l-2.1.744.951,2-1.53,1.528-2-.948Zm-1.507-.929h.851l.606-1.716a.718.718,0,0,1,.967-.417l1.635.778.6-.6-.776-1.633a.7.7,0,0,1-.016-.569.719.719,0,0,1,.419-.4l1.709-.606v-.85l-1.709-.606a.7.7,0,0,1-.4-.97l.776-1.631-.6-.6-1.633.778a.724.724,0,0,1-.968-.394l-.606-1.7h-.853l-.6,1.7a.723.723,0,0,1-.972.391l-1.63-.774-.6.6.776,1.635a.708.708,0,0,1-.4.968l-1.709.606v.85l1.708.608a.7.7,0,0,1,.4.968l-.775,1.633.6.6,1.633-.776a.726.726,0,0,1,.967.41Z" class="aw-theme-iconOutline" fill="#464646"/>
    <path id="path6" d="M17.5,19.359A1.858,1.858,0,1,1,19.356,17.5,1.859,1.859,0,0,1,17.5,19.359Zm0-2.786a.929.929,0,1,0,.928.928A.928.928,0,0,0,17.5,16.573Z" class="aw-theme-iconOutline" fill="#464646"/>
    <path id="path824" d="M4,13.237V11H8.213v4.474H4Z" class="aw-theme-iconOutline" fill="#464646"/>
  </g>
</svg>
