<svg id="Layer_1" data-name="Layer 1" xmlns="http://www.w3.org/2000/svg" viewBox="0 0 24 24">
  <g id="g830">
    <path id="path857" d="M16.449,23.019l2.14-2.05-.684-.654-2.134,2.051a2.658,2.658,0,0,1-3.57,0,2.364,2.364,0,0,1-.091-3.342h0c.029-.031.059-.062.091-.091.421-.4.772-.752,1.1-1.067,1.522-1.5,1.833-1.782,2.7-1.9l.032,0a2.5,2.5,0,0,1,2.833,2.064l.956-.127v-.029a3.463,3.463,0,0,0-3.953-2.821h0c-1.216.168-1.689.633-3.263,2.177-.311.308-.667.655-1.083,1.054a3.265,3.265,0,0,0-.128,4.615c.041.044.084.087.128.129a3.589,3.589,0,0,0,4.928,0Z" class="aw-theme-iconOutline" fill="#464646"/>
    <path id="path2-5" d="M20.6,19.029l2.382-2.29a3.264,3.264,0,0,0,.129-4.613h0c-.042-.044-.084-.087-.128-.128a3.672,3.672,0,0,0-4.933,0l-2.141,2.049.685.654,2.134-2.052a2.659,2.659,0,0,1,3.569,0,2.365,2.365,0,0,1,.091,3.343c-.029.031-.059.061-.091.09l-2.374,2.29a2.552,2.552,0,0,1-4.282-1.377l-.956.124a3.531,3.531,0,0,0,5.92,1.91Z" class="aw-theme-iconOutline" fill="#464646"/>
    <path id="rect815" d="M1.314.057A1.31,1.31,0,0,0,0,1.366V19.692A1.31,1.31,0,0,0,1.314,21H9.683v-.873H8.919v-3.49h2.8v-.873h-2.8v-3.49h3.1v-.9h-3.1V7.91h3.122v7.306h.892V7.91h3.125v3.814h.892V7.91h3.137V9.931h.873V1.366A1.31,1.31,0,0,0,19.647.057Zm.432.872H19.214a.912.912,0,0,1,.873.873V6.976H.874V1.8A.907.907,0,0,1,1.746.929Zm4.768,1.31A1.741,1.741,0,0,0,5.253,5.218,1.789,1.789,0,0,0,8.3,3.984,1.763,1.763,0,0,0,6.514,2.239Zm8.027,0A1.741,1.741,0,0,0,13.28,5.218a1.789,1.789,0,0,0,3.045-1.234A1.763,1.763,0,0,0,14.541,2.239Zm-8.027.872A.871.871,0,0,1,7.145,4.6a.894.894,0,0,1-1.522-.617A.882.882,0,0,1,6.514,3.111Zm8.027,0a.871.871,0,0,1,.631,1.49.894.894,0,0,1-1.522-.617A.882.882,0,0,1,14.541,3.111ZM.874,7.91h3.14v3.462H.874Zm4.032,0H8.027v3.462H4.906ZM.874,12.274h3.14v3.49H.874Zm4.032,0H8.027v3.49H4.906ZM.874,16.637h3.14v3.49H1.746a.905.905,0,0,1-.872-.872Zm4.032,0H8.027v3.49H4.906Z" class="aw-theme-iconOutline" fill="#464646" fill-rule="evenodd"/>
    <path id="rect816" d="M11.685,11.371h3.856v.9H11.685Z" class="aw-theme-iconOutline" fill="#464646"/>
  </g>
</svg>
