<svg id="svg8" xmlns="http://www.w3.org/2000/svg"  viewBox="0 0 24 24">
  <g id="g880">
    <path id="rect854" d="M1,.928H22.981v1H1Z" class="aw-theme-iconOutline" fill="#464646" fill-rule="evenodd"/>
    <path id="rect856" d="M18.984,1.51h1V13.928h-1Z" class="aw-theme-iconOutline" fill="#464646" fill-rule="evenodd"/>
    <path id="rect856-6" d="M6.994,13.428h1v2h-1Z" class="aw-theme-iconOutline" fill="#464646" fill-rule="evenodd"/>
    <path id="rect856-1" d="M1.214,14.389l.98.235L.981,22.262,0,22.027Z" class="aw-theme-iconOutline" fill="#464646" fill-rule="evenodd"/>
    <path id="rect885" d="M7.677,13.784h8.806v1.324H7.677Z" class="aw-theme-iconOutline" fill="#464646" fill-rule="evenodd"/>
    <path id="rect893" d="M1,14.928H22.981v1H1Z" class="aw-theme-iconOutline" fill="#464646" fill-rule="evenodd"/>
    <path id="rect854-5-0" d="M5,1.548v12.32H4V1.548Z" class="aw-theme-iconOutline" fill="#464646" fill-rule="evenodd"/>
    <path id="rect854-5-0-9" d="M22.981.937V15.629h-1V.937Z" class="aw-theme-iconOutline" fill="#464646" fill-rule="evenodd"/>
    <path id="rect856-5-5" d="M1,1.62H2v14H1Z" class="aw-theme-iconOutline" fill="#464646" fill-rule="evenodd"/>
    <path id="rect854-5-6" d="M0,22H24v1H0Z" class="aw-theme-iconOutline" fill="#464646" fill-rule="evenodd"/>
    <path id="rect933" d="M15.779,17.315a.714.714,0,0,0-.691.668L15,19.213a.682.682,0,0,0,.691.715h1.27a.681.681,0,0,0,.691-.715l-.086-1.23a.713.713,0,0,0-.691-.668Zm0,.687h1.1c.01,0,0-.007.006.03l.088,1.228c0-.021,0-.019-.008-.019h-1.27c-.01,0,0,0,0,.019l.085-1.228c0-.037,0-.03.006-.03Z" class="aw-theme-iconOutline" fill="#464646"/>
    <path id="rect836" d="M1.047,14.826,4.6,13l.456.89L1.5,15.716Z" class="aw-theme-iconOutline" fill="#464646"/>
    <path id="rect836-2" d="M22.981,14.826,19.425,13l-.456.89,3.555,1.826Z" class="aw-theme-iconOutline" fill="#464646"/>
    <path id="rect856-6-4" d="M15.987,13.428h1v2h-1Z" class="aw-theme-iconOutline" fill="#464646" fill-rule="evenodd"/>
    <path id="rect868" d="M4.933,12.928H19.02v1H4.933Z" class="aw-theme-iconOutline" fill="#464646"/>
    <path id="path872" d="M16.813,13.009c0,.447-2.1.809-4.689.809s-4.688-.362-4.688-.809,2.1-.809,4.688-.809h0c2.59,0,4.689.362,4.689.809Z" class="aw-theme-iconOutline" fill="#464646"/>
    <path id="rect856-1-48-9" d="M22.775,14.369l-.98.235,1.213,7.639.981-.235Z" class="aw-theme-iconOutline" fill="#464646" fill-rule="evenodd"/>
    <path id="rect904" d="M2.954,20.267l.938-2.929a.5.5,0,1,1,.951.3l-.938,2.929a.5.5,0,0,1-.951-.3Z" class="aw-theme-iconOutline" fill="#464646"/>
    <path id="rect906" d="M3.494,19.928H13.739a.5.5,0,0,1,.5.5v.006a.5.5,0,0,1-.5.5H3.494a.5.5,0,0,1-.5-.5v-.006A.5.5,0,0,1,3.494,19.928Z" class="aw-theme-iconOutline" fill="#464646"/>
    <path id="rect906-9" d="M4.482,16.985h8.226a.5.5,0,0,1,.5.5v.007a.5.5,0,0,1-.5.5H4.482a.5.5,0,0,1-.5-.5v-.007A.5.5,0,0,1,4.482,16.985Z" class="aw-theme-iconOutline" fill="#464646"/>
    <path id="rect933-3" d="M19.279,17.315a.714.714,0,0,0-.691.668l-.086,1.23a.682.682,0,0,0,.691.715h1.27a.681.681,0,0,0,.691-.715l-.086-1.23a.713.713,0,0,0-.691-.668Zm0,.687h1.1c.01,0,0-.007.006.03l.088,1.228c0-.021,0-.019-.008-.019h-1.27c-.01,0,0,0-.005.019l.085-1.228c0-.037,0-.03.006-.03Z" class="aw-theme-iconOutline" fill="#464646"/>
    <path id="rect904-2" d="M14.241,20.265,13.3,17.336a.5.5,0,0,0-.952.3l.939,2.929a.5.5,0,0,0,.951-.3Z" class="aw-theme-iconOutline" fill="#464646"/>
    <path id="rect895-4" d="M8.461,18.588H9.1a.345.345,0,1,1,0,.69H8.461a.345.345,0,1,1,0-.69Z" class="aw-theme-iconOutline" fill="#464646"/>
    <path id="rect895-4-7" d="M10.79,18.588h.64a.345.345,0,1,1,0,.69h-.64a.345.345,0,0,1,0-.69Z" class="aw-theme-iconOutline" fill="#464646"/>
    <path id="rect895-4-74" d="M6.131,18.588h.64a.345.345,0,0,1,0,.69h-.64a.345.345,0,0,1,0-.69Z" class="aw-theme-iconOutline" fill="#464646"/>
  </g>
</svg>
