<svg id="Livello_2" data-name="Livello 2" xmlns="http://www.w3.org/2000/svg" viewBox="0 0 24 24">
  <g id="g841">
    <path id="rect873" d="M0,14H11v1H0Z" class="aw-theme-iconOutline" fill="#464646"/>
    <path id="rect873-8" d="M21,14h3v1H21Z" class="aw-theme-iconOutline" fill="#464646"/>
    <path id="rect890" d="M0,1H1V14H0Z" class="aw-theme-iconOutline" fill="#464646"/>
    <path id="rect890-0" d="M23,1h1V14H23Z" class="aw-theme-iconOutline" fill="#464646"/>
    <path id="rect873-4" d="M0,0H23.99V1H0Z" class="aw-theme-iconOutline" fill="#464646"/>
    <path id="path938" d="M17.471,23.189c-.092-.124-1.06-1.984-1.683-3.236-.2-.41-.38-.746-.391-.746-.033,0-.924,1.079-2.048,2.481L12.3,23l.024-1.6c.024-1.583.162-8.322.242-11.829.022-1,.053-1.829.067-1.844.039-.043,10.425,10.414,10.676,10.749l.211.281-.133.024c-.073.013-1.1.009-2.289-.008-2.7-.039-2.562-.039-2.5,0,.026.016.507.885,1.069,1.931,1.117,2.078,1.146,2.148.905,2.189-.192.033-1.618.226-2.255.306-.327.041-.629.083-.672.092C17.579,23.3,17.536,23.275,17.471,23.189Zm1.234-1.07.458-.07c.035-.007-.031-.151-.319-.7-.43-.812-1.656-3.068-1.837-3.381a.9.9,0,0,1-.123-.264c.01-.011.977,0,2.149.019s2.139.029,2.149.02-1.664-1.7-3.719-3.765-3.768-3.8-3.807-3.873l-.071-.126-.009.108c-.019.235-.227,9.881-.214,9.894s.433-.454.949-1.023A12.752,12.752,0,0,1,15.7,17.519c.007.009.463.9,1.012,1.975,1.382,2.709,1.375,2.7,1.469,2.7.043,0,.28-.032.527-.07Z" class="aw-theme-iconOutline" fill="#464646"/>
    <path id="path942" d="M13.288,7.5a.75.75,0,0,1-.75.75h0a.75.75,0,1,1,.75-.75Z" class="aw-theme-iconOutline" fill="#464646"/>
    <path id="path1057" d="M12.1,2.086l-.057.012,0,2.113,0,1.881a1.5,1.5,0,0,1,.492-.084,1.478,1.478,0,0,1,.514.092l0-1.928L13.033,2.1l-.066-.012A8.318,8.318,0,0,0,12.1,2.086ZM9.125,3.133c-.021.018-.185.163-.365.324l-.328.293.031.041c.017.023.665.752,1.439,1.621L11.184,6.85a1.5,1.5,0,0,1,.7-.7L10.6,4.711C9.171,3.107,9.162,3.1,9.125,3.133Zm6.787.129c-.008,0-.656.671-1.441,1.492L13.143,6.141a1.5,1.5,0,0,1,.718.677c.125-.134.584-.614,1.3-1.357.8-.836,1.455-1.528,1.455-1.537A4.927,4.927,0,0,0,15.912,3.262Zm-4.789,3.73L9.211,7l-2.1.01-.015.2c-.008.109-.008.33,0,.49l.011.291,2.129.006,1.881,0a1.486,1.486,0,0,1-.086-.49A1.515,1.515,0,0,1,11.123,6.992Zm2.813,0a1.479,1.479,0,0,1,.013,1h3.989l.011-.082a7.02,7.02,0,0,0,0-.795L17.938,7h-2.12C14.783,7,14.116,7,13.936,6.992ZM11.189,8.18,9.9,9.525c-.8.84-1.464,1.536-1.466,1.547a3.993,3.993,0,0,0,.543.555.771.771,0,0,0,.156.115c.007,0,.6-.615,1.312-1.361.608-.635,1.134-1.186,1.451-1.516A1.5,1.5,0,0,1,11.189,8.18Z" class="aw-theme-iconOutline" fill="#464646"/>
  </g>
</svg>
