<svg id="Layer_1" data-name="Layer 1" xmlns="http://www.w3.org/2000/svg" viewBox="0 0 24 24">
  <g id="g894">
    <path id="rect843" d="M13.383,21.191h6.9a.354.354,0,0,1,.355.356v.1a.355.355,0,0,1-.355.356H13.383a.355.355,0,0,1-.355-.356v-.1A.354.354,0,0,1,13.383,21.191Z" class="aw-theme-iconOutline" fill="#464646"/>
    <path id="rect843-4" d="M13.383,19.6h6.9a.355.355,0,0,1,.355.356v.1a.355.355,0,0,1-.355.356H13.383a.355.355,0,0,1-.355-.356v-.1A.355.355,0,0,1,13.383,19.6Z" class="aw-theme-iconOutline" fill="#464646"/>
    <path id="rect843-0" d="M13.383,18h6.9a.355.355,0,0,1,.355.356v.1a.354.354,0,0,1-.355.356H13.383a.354.354,0,0,1-.355-.356v-.1A.355.355,0,0,1,13.383,18Z" class="aw-theme-iconOutline" fill="#464646"/>
    <path id="rect843-9" d="M14.21,13.54h6.284a.356.356,0,0,1,.356.356v.1a.356.356,0,0,1-.356.356H14.21a.356.356,0,0,1-.356-.356v-.1A.356.356,0,0,1,14.21,13.54Z" class="aw-theme-iconOutline" fill="#464646"/>
    <path id="rect843-6" d="M19.188,14.987h2.086a.344.344,0,0,1,.345.345v.094a.344.344,0,0,1-.345.345H19.188a.344.344,0,0,1-.345-.345v-.094A.344.344,0,0,1,19.188,14.987Z" class="aw-theme-iconOutline" fill="#464646"/>
    <path id="path841" d="M11.869,23.945a.6.6,0,0,1-.135-.067c-.118-.1-.112.2-.113-5.94,0-5.537,0-5.768.046-5.828A.7.7,0,0,1,11.776,12a48.148,48.148,0,0,1,5.02-.046,49.6,49.6,0,0,1,5.02.047.5.5,0,0,1,.116.146c.045.089.052.157.058.584a4.381,4.381,0,0,0,.107,1.115,2.917,2.917,0,0,0,.465,1.045c.2.3.687.941,1.012,1.335.441.536.486.629.392.812-.061.118,0,.111-1.2.142l-.744.019,0,3.264c0,3.622.015,3.349-.163,3.457a46.139,46.139,0,0,1-4.986.053c-4.065,0-4.924,0-5-.029Zm9.439-3.726V17.193H19.547c-1.954,0-3-.028-3.387-.087a4.615,4.615,0,0,1-2.031-.894,3.557,3.557,0,0,1-.832-.81,9.374,9.374,0,0,1-.681-1.091l-.283-.481v9.415h8.975Zm1.575-3.731c0-.011-.138-.2-.306-.413a9.943,9.943,0,0,1-.9-1.334,4.9,4.9,0,0,1-.331-1.017,6.29,6.29,0,0,1-.056-.642l-.016-.414H16.893c-2.41,0-4.382,0-4.382.008s.105.2.232.439a14.183,14.183,0,0,0,1.3,2.118l.055.051.483-.074c.265-.041.568-.091.673-.112.322-.062,1.035-.163,1.437-.2.786-.078.7-.081.872.034a4.644,4.644,0,0,1,.456.375c.393.359.741.659,1.1.944l.29.232.8.007c2.008.017,2.672.017,2.671,0Zm-4.936-.375c-.228-.2-.483-.429-.567-.5l-.152-.138-1.094.162-1.214.178c-.066.009-.12.026-.12.038a5.37,5.37,0,0,0,.966.451,5.415,5.415,0,0,0,.966.165c.049.005.435.011.859.013l.77,0Z" class="aw-theme-iconOutline" fill="#464646"/>
    <path id="path2" d="M5.459,23.971a5.405,5.405,0,1,1,5.409-5.405h0a5.4,5.4,0,0,1-5.387,5.405A.081.081,0,0,1,5.459,23.971Zm0-9.979a4.574,4.574,0,1,0,4.577,4.574A4.575,4.575,0,0,0,5.459,13.992Z" class="aw-theme-iconOutline" fill="#464646"/>
    <path id="polygon4" d="M4.848,18.436l-1.83,1.747.666.665,1.747-1.83,1.747,1.83.666-.665L6.013,18.436,7.844,16.69l-.666-.665L5.431,17.854,3.684,16.025l-.666.665Z" class="aw-theme-iconOutline" fill="#464646"/>
    <path id="path1144" d="M3.016,5.882a16.451,16.451,0,0,0-3,.243V7.333a8.456,8.456,0,0,1,1.11-.149A15.81,15.81,0,0,1,2.961,7.1l.233,0a13.551,13.551,0,0,1,4,.571A2.43,2.43,0,0,1,8.3,8.291c.025.072-.018.124-.213.263A9.574,9.574,0,0,1,3.7,9.536c-.354.015-1.253.013-1.623-.006A9.5,9.5,0,0,1,.018,9.313v1.194c.5.092,1.014.16,1.525.2.432.037,2.373.037,2.812,0A18.21,18.21,0,0,0,6.2,10.474c.218-.042.65-.138.725-.16q.071,1.072.041,2.148a6.2,6.2,0,0,1,.923.295v-2.75L8,9.964a5.289,5.289,0,0,0,.747-.4,2.557,2.557,0,0,0,.594-.594,1.07,1.07,0,0,0,.176-.657.858.858,0,0,0-.052-.4,1.469,1.469,0,0,0-.376-.563,4.523,4.523,0,0,0-2.006-.991A16.328,16.328,0,0,0,3.016,5.882Z" class="aw-theme-iconOutline" fill="#464646"/>
    <path id="rect1146" d="M13.872-.019,2.953,2.018l.458,2.451L16.5,2.03V-.019ZM8.013,1.918l.15.819L4.074,3.5l-.151-.817Z" class="aw-theme-iconOutline" fill="#464646"/>
    <path id="path4-8" d="M18.666,8.334l-.709-.709L16.309,9.274V7.248a3.274,3.274,0,0,0-6.3-1.262l.925.384a2.272,2.272,0,0,1,4.369.874V9.27L13.659,7.625l-.709.709,2.5,2.5a.5.5,0,0,0,.707,0h0Z" class="aw-theme-iconOutline" fill="#464646"/>
  </g>
</svg>
