<svg id="Verb_Zone" xmlns="http://www.w3.org/2000/svg" viewBox="0 0 24 24">
  <g id="g834">
    <path id="path6" d="M6.968,10H3.953V7.031H6.969V10ZM4.953,9H5.969V8.031H4.953Z" class="aw-theme-iconOutline" fill="#464646"/>
    <path id="path10" d="M14.953,2h-12V6.016h13V2Zm0,3.016h-11V3h11Z" class="aw-theme-iconOutline" fill="#464646"/>
    <path id="path12" d="M23.135,18.276a4.755,4.755,0,1,1-4.754-4.848H20.8l-1.9,1.94.605.617,2.939-3-2.854-3-.69.706,1.9,1.851h-2.42A5.73,5.73,0,1,0,24,18.381c0-.035,0-.069,0-.1Z" class="aw-theme-iconOutline" fill="#464646"/>
    <path id="path20" d="M11.458,20.063H.951V.961H17.976V9.879l.954-.771V.48A.478.478,0,0,0,18.455,0H.476A.477.477,0,0,0,0,.48V20.543a.475.475,0,0,0,.476.48H12Z" class="aw-theme-iconOutline" fill="#464646"/>
    <path id="path6-3" d="M10.952,10H7.937V7.031h3.016V10ZM8.937,9H9.953V8.031H8.937Z" class="aw-theme-iconOutline" fill="#464646"/>
    <path id="path6-3-8" d="M6.968,14H3.953V11.031H6.969V14ZM4.953,13H5.969v-.969H4.953Z" class="aw-theme-iconOutline" fill="#464646"/>
    <path id="path6-3-0" d="M6.952,18h-3V15h3v3Zm-2-1.01h1.01v-.98H4.948Z" class="aw-theme-iconOutline" fill="#464646"/>
    <path id="path6-3-08" d="M14.968,10H11.953V7.031h3.016V10ZM12.953,9h1.016V8.031H12.953Z" class="aw-theme-iconOutline" fill="#464646"/>
    <path id="path6-3-6" d="M10.951,14H7.936V11.031h3.016V14ZM8.936,13H9.952v-.969H8.936Z" class="aw-theme-iconOutline" fill="#464646"/>
    <path id="path6-3-08-2" d="M11.953,11v3h1.084a6.738,6.738,0,0,1,1.916-1.617V11Zm.994,1.01h1.012v.98H12.947Z" class="aw-theme-iconOutline" fill="#464646"/>
    <path id="path6-3-6-6" d="M10.952,18h-3V15h3v3Zm-2-1.01h1.01v-.98H8.948Z" class="aw-theme-iconOutline" fill="#464646"/>
  </g>
</svg>
