<svg id="Image" xmlns="http://www.w3.org/2000/svg" viewBox="0 0 24 24">
  <g id="g817">
    <path id="path2-4" d="M21.9,17.11l-2-2a.5.5,0,1,0-.708.708l1.147,1.146H14.756L15.9,15.818a.5.5,0,0,0-.708-.708l-2,2a.5.5,0,0,0,0,.707h0l2,2a.5.5,0,0,0,.708-.708l-1.147-1.146h5.586L19.2,19.11a.5.5,0,0,0,.708.708l2-2a.5.5,0,0,0,0-.707Z" class="aw-theme-iconOutline" fill="#464646"/>
    <path id="path4-7" d="M10,0,0,10,10,20l.332-.332a7.367,7.367,0,0,1-.234-1.016l-.1.1L1.25,10,10,1.25,18.75,10l-.09.09a7.473,7.473,0,0,1,1.012.238L20,10ZM9.559,3.3V7.352l-1.633-1.7L7.348,6.2,9.559,8.61c.083.084.271.274.441.274a.656.656,0,0,0,.41-.227L12.762,6.2l-.6-.557-1.7,1.741L10.483,3.3Zm4.173,3.943L11.277,9.59a.654.654,0,0,0-.226.41c0,.17.192.358.275.441l1.4,1.288a7.526,7.526,0,0,1,.677-.5l-.82-.789H14.97a7.474,7.474,0,0,1,1.664-.384l-.006-.541-4.082.021,1.738-1.7Zm-7.5.1-.554.6,1.738,1.7-4.082-.03-.01.928H7.379l-1.7,1.633.552.576L8.64,10.539c.083-.083.275-.271.275-.441a.659.659,0,0,0-.226-.409Zm3.811,3.748c-.17,0-.358.192-.441.275l-2.211,2.4.576.552,1.635-1.7v4.055h.453a7.452,7.452,0,0,1,.463-1.871l-.012-2.217.758.773a7.468,7.468,0,0,1,.5-.673l-1.313-1.371a.652.652,0,0,0-.408-.232Z" class="aw-theme-iconOutline" fill="#464646"/>
    <path id="path2" d="M17.5,24A6.5,6.5,0,1,1,24,17.5,6.5,6.5,0,0,1,17.5,24Zm0-12A5.5,5.5,0,1,0,23,17.5,5.5,5.5,0,0,0,17.5,12Z" class="aw-theme-iconOutline" fill="#464646"/>
  </g>
</svg>
