<svg id="Layer_1" data-name="Layer 1" xmlns="http://www.w3.org/2000/svg" viewBox="0 0 24 24">
  <g id="g823">
    <path id="path857" d="M12,13.451l-.214-3.187-1.014.113.22,3.183a2.868,2.868,0,0,1-2.47,2.951A2.548,2.548,0,0,1,5.7,14.274q-.009-.069-.012-.138c-.04-.625-.088-1.158-.124-1.644-.184-2.293-.205-2.747.3-3.548l.019-.031A2.693,2.693,0,0,1,9.541,8l.556-.878-.023-.02A3.732,3.732,0,0,0,5.008,8.418h0c-.7,1.121-.645,1.834-.457,4.2.039.47.08,1.005.122,1.624a3.518,3.518,0,0,0,3.725,3.3c.066,0,.131-.009.2-.017A3.865,3.865,0,0,0,12,13.451Z" class="aw-theme-iconOutline" fill="#464646"/>
    <path id="path2-5" d="M22.862,8l.778-3.475A3.518,3.518,0,0,0,21.008.3c-.063-.015-.127-.028-.191-.039A3.958,3.958,0,0,0,16.385,3.2L15.68,6.315l1,.18.7-3.113a2.865,2.865,0,0,1,3.207-2.125A2.549,2.549,0,0,1,22.66,4.206c-.008.046-.018.091-.028.136l-.771,3.47a2.751,2.751,0,0,1-4.667,1.311l-.785.681A3.806,3.806,0,0,0,22.865,8Z" class="aw-theme-iconOutline" fill="#464646"/>
    <path id="path2-5-0-8" d="M5.783,13.322l.175,1.023.042,0,0,.006c.06-.008.121-.014.182-.018a2.756,2.756,0,0,1,1.707.515,2.865,2.865,0,0,1,.928,3.289l-.013.035c-.021.05-.044.1-.067.147l-1.6,3.173a2.546,2.546,0,0,1-2.027,1.4c-.035,0-.07.006-.106.008H4.955a2.751,2.751,0,0,1-1.7-.565,2.864,2.864,0,0,1-.826-3.353l.035-.072,1.6-3.173a2.591,2.591,0,0,1,.327-.5L4.2,14a3.536,3.536,0,0,0-1.029,1.242l-.159.317,0,0-.927,1.855-.51,1.012A3.807,3.807,0,0,0,2.5,23.012a3.979,3.979,0,0,0,.65.482,3.52,3.52,0,0,0,2.179.422c.032,0,.063,0,.095-.009l0,0a3.519,3.519,0,0,0,2.611-1.917l.16-.317,0,0,.693-1.387.743-1.475a3.806,3.806,0,0,0-1.024-4.677l-.032-.023a3.9,3.9,0,0,0-.522-.372,3.511,3.511,0,0,0-2.2-.419h-.01l-.058,0Z" class="aw-theme-iconOutline" fill="#464646"/>
  </g>
</svg>
