<svg id="Image" xmlns="http://www.w3.org/2000/svg" viewBox="0 0 24 24">
  <path id="path824" d="M11.219,2.59l-.868-.016,1.9-1.1,1.9-1.1.008-2.66c.005-1.6,0-2.659-.02-2.659s-1.162.655-2.547,1.456L9.071-2.028V2.6L8.72,2.579c-.194-.011-.405-.02-.469-.02H8.134V-2.029l-2.621-1.5c-1.442-.827-2.637-1.5-2.656-1.5s-.036.711-.036,2.7v2.7L4.746,1.468,6.671,2.574,5.7,2.583l-.975.008L3.33,1.786a10.059,10.059,0,0,1-1.45-.9,20.045,20.045,0,0,1-.059-3.506V-6.032l.071-.076c.038-.042,1.525-.91,3.3-1.929C7.754-9.5,8.454-9.89,8.54-9.891a34.851,34.851,0,0,1,3.25,1.82c1.727,1,3.169,1.849,3.2,1.883.062.06.063.108.071,3.5a31.062,31.062,0,0,1-.04,3.539c-.04.086-.258.223-1.472.928-.783.455-1.433.827-1.445.827ZM11.2-4.34c1.366-.791,2.487-1.451,2.492-1.465s-1.152-.727-2.569-1.584L8.541-8.946,5.963-7.436C4.545-6.6,3.384-5.918,3.384-5.909c0,.036,5.238,3.031,5.281,3.019C8.691-2.9,9.829-3.549,11.2-4.34Z" fill="none"/>
  <g id="g840">
    <path id="path832" d="M3.4,23.967a.566.566,0,0,1-.342-.364c-.019-.066-.339-2.885-.825-6.249s-.624-4.112-.634-4.185H.01l.02-.351c.021-.372.1-.421.475-.605l.435-.106L2.245,12.1l2.6,0v1.043h-2.3l.018-.014c.024.154,1.425,9.8,1.425,9.841,0,.026,2.153.035,7.993.035h7.992l.715-5.82c.391-3.181.523-3.4.587-4.056l-.018-.006-2.39.011H4.7v-1.04l14.967.015,3.367.009a1.492,1.492,0,0,1,.344.122c.228.149.468.24.561.6.085.328.026.287-.749.3-.641.009-.8.008-.8.042,0,.115-1.44,10.245-1.471,10.391a.508.508,0,0,1-.358.4c-.148.041-16.995.043-17.17,0Z" class="aw-theme-iconOutline" fill="#464646"/>
    <path id="path834" d="M19.429,9c-.036-.022-.724-.689-1.528-1.482L16.439,6.076l.2-.185c.11-.1.268-.246.35-.321l.151-.137.95.95c.522.522.955.943.962.935a5.072,5.072,0,0,0-.016-.53C19.019,6.505,19,5.668,19,4.929c-.02-1.314-.007-.958,0-1.571a3.073,3.073,0,0,1,1.374-2.6A3.173,3.173,0,0,1,22.128.141l.351-.018-.009.947h-.253a2.033,2.033,0,0,0-1.406.572c-.7.666-.882,1.4-.835,3.584,0,.815.05,2.213.079,2.242,0,0,.478-.419,1.051-.943l1.041-.953.33.318a4.345,4.345,0,0,1,.331.338c0,.011-.633.6-1.407,1.31S19.95,8.87,19.9,8.922A.458.458,0,0,1,19.429,9Z" class="aw-theme-iconOutline" fill="#464646"/>
    <path id="path838" d="M6,18V16H7.214v4H6Z" class="aw-theme-iconOutline" fill="#464646"/>
    <path id="path840" d="M7.8,18V16h.653v4H7.8Z" class="aw-theme-iconOutline" fill="#464646"/>
    <path id="path842" d="M9.21,18V16h.614v4H9.21Z" class="aw-theme-iconOutline" fill="#464646"/>
    <path id="path844" d="M10.4,18V16h.832v4H10.4Z" class="aw-theme-iconOutline" fill="#464646"/>
    <path id="path846" d="M12,18V16h.571v4H12Z" class="aw-theme-iconOutline" fill="#464646"/>
    <path id="path848" d="M13.211,18V16l.278.006.278.006.015,1.994L13.8,20h-.586Z" class="aw-theme-iconOutline" fill="#464646"/>
    <path id="path850" d="M14.537,18V16h.635v4h-.635Z" class="aw-theme-iconOutline" fill="#464646"/>
    <path id="path852" d="M15.959,18V16h.994v4h-.994Z" class="aw-theme-iconOutline" fill="#464646"/>
    <path id="path854" d="M17.618,18V16H18v4h-.382Z" class="aw-theme-iconOutline" fill="#464646"/>
    <path id="path826" d="M11.219,12.59l-.868-.016,1.9-1.1,1.9-1.1.008-2.66c.005-1.6,0-2.659-.02-2.659s-1.162.655-2.547,1.456L9.071,7.972V12.6l-.351-.021c-.194-.011-.405-.02-.469-.02H8.134V7.971l-2.621-1.5c-1.442-.827-2.637-1.5-2.656-1.5s-.036.711-.036,2.7v2.7l1.925,1.107,1.925,1.106-.974.009-.975.008-1.392-.8a10.059,10.059,0,0,1-1.45-.9,20.045,20.045,0,0,1-.059-3.506V3.968l.071-.076c.038-.042,1.525-.91,3.3-1.929C7.754.5,8.454.11,8.54.109a34.851,34.851,0,0,1,3.25,1.82c1.727,1,3.169,1.849,3.2,1.883.062.06.063.108.071,3.5a31.062,31.062,0,0,1-.04,3.539c-.04.086-.258.223-1.472.928-.783.455-1.433.827-1.445.827ZM11.2,5.66c1.366-.791,2.487-1.451,2.492-1.465s-1.152-.727-2.569-1.584L8.541,1.054,5.963,2.564C4.545,3.4,3.384,4.082,3.384,4.091c0,.036,5.238,3.031,5.281,3.019C8.691,7.1,9.829,6.451,11.2,5.66Z" class="aw-theme-iconOutline" fill="#464646"/>
  </g>
</svg>
