<svg id="Livello_1" data-name="Livello 1" xmlns="http://www.w3.org/2000/svg" viewBox="0 0 24 24">
  <g id="g845">
    <path id="path824" d="M17.6,16.943s-.034-.214-.074-.469c-.065-.413-.071-.465-.053-.473s.306-.052.656-.105c.73-.111.708-.107.7-.122s-.075-.066-.158-.133a3.664,3.664,0,0,0-1.785-.846,2.119,2.119,0,0,0-.821.076,2.453,2.453,0,0,0-.509.265,3.211,3.211,0,0,0-.9,1.115c-.04.077-.075.142-.077.145s-.827-.431-.852-.449c0,0,.043-.074.257-.4a3.479,3.479,0,0,1,1.579-1.539,3.561,3.561,0,0,1,.8-.184,2.709,2.709,0,0,1,.693.013A5.164,5.164,0,0,1,19.15,14.85a.717.717,0,0,0,.168.107c0-.008-.039-.289-.091-.625s-.092-.612-.089-.615.215-.038.472-.077l.468-.072.225,1.461c.124.8.224,1.463.223,1.465s-.644.1-1.427.221-1.44.222-1.459.226a.094.094,0,0,1-.036,0Z" class="aw-theme-iconOutline" fill="#464646"/>
    <path id="path9" d="M10.586.006C1.87-.008,1.114,0,.9.08A1.623,1.623,0,0,0,.131.762L.018.977,0,10.385c-.008,6.052.005,9.479.04,9.6a1.452,1.452,0,0,0,.873.946c.123.047,2.511.064,9.591.066h.367a7.553,7.553,0,0,1-.42-.953H9.02v-3.4h1.035a7.364,7.364,0,0,1,.178-.957H9.02V12.279h2.974v.141a7.514,7.514,0,0,1,1.342-1.15H13V7.92h2.975v2.244A7.442,7.442,0,0,1,17,10.018l0-.411.012-1.66,1.5-.013,1.5-.016v2.527a7.624,7.624,0,0,1,.982.426V10.5c0-8.626-.007-9.486-.086-9.658a1.666,1.666,0,0,0-.652-.7L20.041.021ZM1.713.951l8.791,0c8.461,0,8.8,0,9.012.1a1,1,0,0,1,.345.277l.127.182L20,4.209l.016,2.7H1V1.551l.121-.18a1.078,1.078,0,0,1,.357-.3Zm6.3,6.967v3.353H4.981L5,9.607l.014-1.66,1.5-.013ZM1,7.92H3.973v3.351H1V7.92Zm8.021,0h2.974v3.351H9.02V7.92ZM1,12.281H3.973v3.407H1V12.281Zm3.984,0H8.012v3.407H4.983V12.281ZM1,16.643H3.973v3.4l-1.127,0c-1.2,0-1.361-.026-1.566-.219-.272-.253-.281-.312-.281-1.8Zm3.984,0H8.012v3.4H4.983v-3.4Z" class="aw-theme-iconOutline" fill="#464646"/>
    <path id="path11" d="M13.277,5.379a2.024,2.024,0,0,1-.922-.828,1.272,1.272,0,0,1-.137-.769A1.193,1.193,0,0,1,12.368,3a1.991,1.991,0,0,1,.83-.776,1.353,1.353,0,0,1,.723-.12,1.29,1.29,0,0,1,.777.148,1.685,1.685,0,0,1,.41,2.774,1.956,1.956,0,0,1-.555.353,1.991,1.991,0,0,1-1.276,0m.967-.878a.781.781,0,0,0-.209-1.487.913.913,0,0,0-.723.271A.789.789,0,0,0,14.244,4.5" class="aw-theme-iconOutline" fill="#464646"/>
    <path id="path13" d="M5.706,5.417a1.913,1.913,0,0,1-.859-.635A1.694,1.694,0,0,1,5.525,2.24a1.379,1.379,0,0,1,.745-.135,1.367,1.367,0,0,1,.737.132A1.924,1.924,0,0,1,7.86,3.1,1.748,1.748,0,0,1,7.882,4.44a1.717,1.717,0,0,1-.781.843,1.31,1.31,0,0,1-.755.187,2.207,2.207,0,0,1-.64-.053m.919-.948a.749.749,0,0,0,.321-.3.778.778,0,0,0-1.259-.9.568.568,0,0,0-.191.446.689.689,0,0,0,.393.737.711.711,0,0,0,.736.014" class="aw-theme-iconOutline" fill="#464646"/>
    <path id="path3-5" d="M17.5,24a6.487,6.487,0,1,1,.026,0H17.5m0-12A5.5,5.5,0,1,0,23,17.5,5.5,5.5,0,0,0,17.5,12" class="aw-theme-iconOutline" fill="#464646"/>
    <path id="circle5-7" d="M17,19.251A1.75,1.75,0,1,1,15.251,17.5h0A1.75,1.75,0,0,1,17,19.251Z" class="aw-theme-iconOutline" fill="#464646"/>
    <path id="circle5-4" d="M19.762,17.508a1.76,1.76,0,1,0,.024,0Zm.012,1h.01a.75.75,0,0,1,.75.75h0a.75.75,0,1,1-.76-.75Z" class="aw-theme-iconOutline" fill="#464646"/>
  </g>
</svg>
