<svg id="svg8" xmlns="http://www.w3.org/2000/svg" viewBox="0 0 24 24">
  <g id="g836">
    <path id="rect854" d="M.906,0V13.414L0,19.094H0V20H10.438a7.3,7.3,0,0,1-.256-.906H.926l.875-5.5h9.308a7.5,7.5,0,0,1,3.528-3.016,15.041,15.041,0,0,0-3.651-.361c-2.178,0-4,.284-4.226.658H4.527V.906H17.2v9.106q.15-.009.3-.012c.2,0,.405.011.607.029V.906h1.811v9.5a7.565,7.565,0,0,1,.906.379V0Zm.9.906h1.81V11.223l-1.81.929ZM4.52,11.779H6.338v.907H2.754Zm-.459,2.772a.555.555,0,0,0-.071.013.444.444,0,0,0-.463.3l-.851,2.654a.454.454,0,0,0,.291.571h0a.415.415,0,0,0,.111.011.425.425,0,0,0,.086.018h6.865A6,6,0,0,1,10,17.5c0-.094.007-.189.014-.283H3.727l.562-1.76h6a7.463,7.463,0,0,1,.314-.906ZM5.557,16a.313.313,0,0,0-.035.625.2.2,0,0,0,.035,0h.578A.313.313,0,1,0,6.17,16H5.557Zm2.109,0a.313.313,0,0,0,0,.625h.58A.313.313,0,1,0,8.281,16H7.666Zm2.111,0a.313.313,0,0,0,0,.625h.28c.023-.21.054-.418.095-.625Z" class="aw-theme-iconOutline" fill="#464646" fill-rule="evenodd"/>
    <path id="path824" d="M17.6,16.943s-.034-.214-.074-.469c-.066-.413-.072-.465-.054-.473s.307-.052.656-.105c.73-.111.708-.107.7-.122s-.075-.066-.158-.133a3.668,3.668,0,0,0-1.785-.846,2.119,2.119,0,0,0-.821.076,2.453,2.453,0,0,0-.509.265,3.189,3.189,0,0,0-.9,1.115c-.04.077-.075.142-.077.145s-.827-.431-.853-.449c0,0,.044-.074.257-.4a3.481,3.481,0,0,1,1.58-1.539,3.548,3.548,0,0,1,.8-.184,2.709,2.709,0,0,1,.693.013,5.155,5.155,0,0,1,2.084,1.014.733.733,0,0,0,.169.107c0-.008-.04-.289-.092-.625s-.092-.612-.089-.615.216-.038.473-.077l.467-.072.226,1.461c.124.8.224,1.463.222,1.465s-.644.1-1.427.221-1.439.222-1.458.226a.093.093,0,0,1-.036,0Z" class="aw-theme-iconOutline" fill="#464646"/>
    <path id="path3-5" d="M17.5,24a6.487,6.487,0,1,1,.026,0H17.5m0-12A5.5,5.5,0,1,0,23,17.5,5.5,5.5,0,0,0,17.5,12" class="aw-theme-iconOutline" fill="#464646"/>
    <path id="circle5-7" d="M17,19.251A1.75,1.75,0,1,1,15.251,17.5h0A1.75,1.75,0,0,1,17,19.251Z" class="aw-theme-iconOutline" fill="#464646"/>
    <path id="circle5-4" d="M19.762,17.508a1.76,1.76,0,1,0,.024,0Zm.012,1h.01a.75.75,0,0,1,.75.75h0a.75.75,0,1,1-.76-.75Z" class="aw-theme-iconOutline" fill="#464646"/>
  </g>
</svg>
