<svg id="Livello_1" data-name="Livello 1" xmlns="http://www.w3.org/2000/svg" viewBox="0 0 24 24">
  <g id="g826">
    <path id="path830" d="M22.174,23.938a1.507,1.507,0,0,1-.545-.215c-.1-.062-.5-.449-1.313-1.259l-1.172-1.171-.153.07a4.774,4.774,0,0,1-2.065.45,4.6,4.6,0,0,1-2.177-.506,4.814,4.814,0,0,1-2.231-2.232,4.742,4.742,0,0,1-.5-2.148,4.915,4.915,0,0,1,.268-1.638,6.575,6.575,0,0,1,.521-1.054,4.9,4.9,0,0,1,4.073-2.22,4.58,4.58,0,0,1,1.548.243,4.907,4.907,0,0,1,2.958,6.671,1.453,1.453,0,0,0-.087.209c0,.013.54.566,1.2,1.229a8.987,8.987,0,0,1,1.283,1.364,1.571,1.571,0,0,1,0,1.427,1.823,1.823,0,0,1-.464.527A1.544,1.544,0,0,1,22.174,23.938Zm.475-.987a.5.5,0,0,0,.32-.507.409.409,0,0,0-.059-.265c-.033-.054-.536-.576-1.12-1.158l-1.06-1.059-.062.076a7.569,7.569,0,0,1-.585.595l-.147.127,1.087,1.085c.6.6,1.091,1.086,1.1,1.086s.049.015.1.032A.643.643,0,0,0,22.649,22.951Zm-5.027-2.163a3.933,3.933,0,0,0-.873-7.795,3.614,3.614,0,0,0-.986.161,3.938,3.938,0,0,0,.655,7.677A5.491,5.491,0,0,0,17.622,20.788Z" class="aw-theme-iconOutline" fill="#464646"/>
    <path id="path832" d="M14.958,18.34c-.6-.726-1.1-1.332-1.108-1.346s.1-.123.358-.343c.208-.174.385-.316.395-.316s.338.38.732.845.721.845.73.845.729-.88,1.6-1.956,1.173-1.4,1.18-1.4.183.139.392.308l.38.307-1.56,1.913c-1.1,1.348-1.988,2.466-2,2.466S15.556,19.066,14.958,18.34Z" class="aw-theme-iconOutline" fill="#464646"/>
    <path id="path9" d="M1,1H2V20H1ZM0,0V21H12l-.5-1H3V1H16V11l1-.1V0Z" class="aw-theme-iconOutline" fill="#464646"/>
    <path id="path11" d="M13.5,4h-8A1.5,1.5,0,0,0,4,5.5v4A1.5,1.5,0,0,0,5.5,11h8A1.5,1.5,0,0,0,15,9.5v-4A1.5,1.5,0,0,0,13.5,4M14,9.5a.5.5,0,0,1-.5.5h-8A.5.5,0,0,1,5,9.5v-4A.5.5,0,0,1,5.5,5h8a.5.5,0,0,1,.5.5Z" class="aw-theme-iconOutline" fill="#464646"/>
    <path id="rect13" d="M6,8h6V9H6Z" class="aw-theme-iconOutline" fill="#464646"/>
    <path id="rect15" d="M6,6h7V7H6Z" class="aw-theme-iconOutline" fill="#464646"/>
  </g>
</svg>
