<svg id="Layer_1" data-name="Layer 1" xmlns="http://www.w3.org/2000/svg" viewBox="0 0 24 24">
  <g id="g847">
    <path id="path827" d="M12.321,22.818V21.652l.046-.069a.442.442,0,0,1,.206-.175c.073-.035.12-.04.47-.049l.39-.009.077-.055a.579.579,0,0,0,.132-.142l.054-.088.011-1.008a5.19,5.19,0,0,1,.132-1.618,3.97,3.97,0,0,1,2.325-2.709l.148-.059v-.478h3.5l0,.217.005.218.161.058a3.92,3.92,0,0,1,2.247,2.156,4.257,4.257,0,0,1,.314,1.252c.01.113.019.588.019,1.054,0,.908,0,.925.093,1.05a.481.481,0,0,0,.123.1c.079.047.09.048.467.058.356.009.394.013.472.051a.489.489,0,0,1,.223.229,8.954,8.954,0,0,1,.024,1.2v1.143H12.321Zm10.71-.14.005-.325L22.9,22.34a1.407,1.407,0,0,1-1.262-1.158,7.878,7.878,0,0,1-.026-1c0-.5-.008-.946-.019-1.046a3.04,3.04,0,0,0-1.608-2.392,1.291,1.291,0,0,0-.157-.074c-.007,0-.013,1.217-.013,2.7v2.706h-.953V16.487h-1.6v5.591h-.953V16.717l-.109.062a3.231,3.231,0,0,0-.956.859,3.921,3.921,0,0,0-.425.836,4.621,4.621,0,0,0-.164,1.714,8.137,8.137,0,0,1-.025.994,1.4,1.4,0,0,1-1.219,1.152l-.176.021v.317A2.367,2.367,0,0,0,13.25,23c.007.006,2.209.01,4.894.007l4.883,0Z" class="aw-theme-iconOutline" fill="#464646"/>
    <path id="rect816" d="M0,0H24V1H0Z" class="aw-theme-iconOutline" fill="#464646"/>
    <path id="rect816-9" d="M0,4H24V5H0Z" class="aw-theme-iconOutline" fill="#464646"/>
    <path id="rect816-9-0" d="M1,0V21H0V0Z" class="aw-theme-iconOutline" fill="#464646"/>
    <path id="rect816-9-0-7" d="M24,0V16.271H23V0Z" class="aw-theme-iconOutline" fill="#464646"/>
    <path id="rect816-9-0-7-3" d="M11,21H0V20H11Z" class="aw-theme-iconOutline" fill="#464646"/>
    <path id="rect1037" d="M2,2H6V3H2Z" class="aw-theme-iconOutline" fill="#464646"/>
    <path id="rect1037-1" d="M8,2h4V3H8Z" class="aw-theme-iconOutline" fill="#464646"/>
    <path id="rect1037-7" d="M14,2h4V3H14Z" class="aw-theme-iconOutline" fill="#464646"/>
    <path id="rect1037-7-0" d="M21,2h1V3H21Z" class="aw-theme-iconOutline" fill="#464646"/>
    <path id="rect4578-5" d="M3,17H6V8H3Zm1-1V9H5v7Z" class="aw-theme-iconOutline" fill="#464646"/>
    <path id="rect841" d="M3.8,12H5.119v4.271H3.8Z" class="aw-theme-iconOutline" fill="#464646"/>
    <path id="path843" d="M14.513,6.085A5.476,5.476,0,0,0,9,11.525c0,.164.009.328.025.492h.926a4.263,4.263,0,0,1-.032-.492,4.594,4.594,0,0,1,9.187,0,4.508,4.508,0,0,1-.028.492H20c.016-.164.024-.328.025-.492A5.476,5.476,0,0,0,14.513,6.085Z" class="aw-theme-iconOutline" fill="#464646"/>
    <path id="rect865" d="M12.525,8.177l2.681,3.39-.731.578-2.681-3.39Z" class="aw-theme-iconOutline" fill="#464646"/>
    <path id="path867" d="M15.881,12a1,1,0,1,1-1-1A1,1,0,0,1,15.881,12Z" class="aw-theme-iconOutline" fill="#464646"/>
  </g>
</svg>
