<svg id="Livello_2" data-name="Livello 2" xmlns="http://www.w3.org/2000/svg" viewBox="0 0 24 24">
  <g id="g1015">
    <path id="path959" d="M12.666,3.034A4.011,4.011,0,0,0,10,4.177c-2.081,1.856-2.6,5.6-3.356,8.192s-.8,4.778-2.451,6.425c-.518.516-2.166.343-2.166.343l-.012.994s1.962.15,2.671-.405c1.971-1.54,2.187-4.178,2.882-6.928s1.142-5.9,2.964-7.742a3.061,3.061,0,0,1,2.076-1,2.831,2.831,0,0,1,2.215.9c1.649,1.99,2.221,4.824,2.595,7.649s.927,5.579,2.982,7.135c.7.527,2.6.317,2.6.317v-.958c-.027,0-1.691.243-2.232-.276-1.815-1.744-2.1-4.161-2.461-6.956-.366-2.82-.971-5.7-2.763-7.6A4.157,4.157,0,0,0,12.666,3.034Z" class="aw-theme-iconOutline" fill="#464646"/>
    <path id="path925" d="M6.563,1.5v.7H6.91V1.5Z" class="aw-theme-iconOutline" fill="#464646"/>
    <path id="path923" d="M13.561,1.5v.7h.35V1.5Z" class="aw-theme-iconOutline" fill="#464646"/>
    <path id="path921" d="M20.561,1.5v.7h.348V1.5Z" class="aw-theme-iconOutline" fill="#464646"/>
    <path id="path919" d="M6.563,2.9v.7H6.91V2.9Z" class="aw-theme-iconOutline" fill="#464646"/>
    <path id="path911" d="M6.563,4.3V5H6.91V4.3Z" class="aw-theme-iconOutline" fill="#464646"/>
    <path id="path907" d="M2.361,4.824v.348h.525V4.824Z" class="aw-theme-iconOutline" fill="#464646"/>
    <path id="path905" d="M3.588,4.824v.348h.7V4.824Z" class="aw-theme-iconOutline" fill="#464646"/>
    <path id="path903" d="M4.986,4.824v.348h.7V4.824Z" class="aw-theme-iconOutline" fill="#464646"/>
    <path id="path901" d="M7.787,4.824v.348h.7V4.824Z" class="aw-theme-iconOutline" fill="#464646"/>
    <path id="path895" d="M11.984,4.824v.348h.7V4.824Z" class="aw-theme-iconOutline" fill="#464646"/>
    <path id="path889" d="M6.563,5.7v.7H6.91V5.7Z" class="aw-theme-iconOutline" fill="#464646"/>
    <path id="path887" d="M13.561,5.7v.7h.35V5.7Z" class="aw-theme-iconOutline" fill="#464646"/>
    <path id="path885" d="M6.563,7.1v.7H6.91V7.1Z" class="aw-theme-iconOutline" fill="#464646"/>
    <path id="path883" d="M20.561,7.1v.7h.348V7.1Z" class="aw-theme-iconOutline" fill="#464646"/>
    <path id="path879" d="M6.563,8.5v.7H6.91V8.5Z" class="aw-theme-iconOutline" fill="#464646"/>
    <path id="path871" d="M2.361,10.078v.348h.525v-.348Z" class="aw-theme-iconOutline" fill="#464646"/>
    <path id="path869" d="M3.588,10.078v.348h.7v-.348Z" class="aw-theme-iconOutline" fill="#464646"/>
    <path id="path867" d="M4.986,10.078v.348h.7v-.348Z" class="aw-theme-iconOutline" fill="#464646"/>
    <path id="path863" d="M9.186,10.078v.348h.7v-.348Z" class="aw-theme-iconOutline" fill="#464646"/>
    <path id="path861" d="M13.561,11.305v.7h.35v-.7Z" class="aw-theme-iconOutline" fill="#464646"/>
    <path id="path855" d="M20.561,14.105v.7h.348v-.7Z" class="aw-theme-iconOutline" fill="#464646"/>
    <path id="path853" d="M20.561,15.506v.7h.348v-.7Z" class="aw-theme-iconOutline" fill="#464646"/>
    <path id="path851" d="M2.361,16.207v.35h.525v-.35Z" class="aw-theme-iconOutline" fill="#464646"/>
    <path id="path849" d="M3.588,16.207v.35h.7v-.35Z" class="aw-theme-iconOutline" fill="#464646"/>
    <path id="path847" d="M9.186,16.207v.35h.7v-.35Z" class="aw-theme-iconOutline" fill="#464646"/>
    <path id="path845" d="M10.586,16.207v.35h.7v-.35Z" class="aw-theme-iconOutline" fill="#464646"/>
    <path id="path843" d="M16.186,16.207v.35h.7v-.35Z" class="aw-theme-iconOutline" fill="#464646"/>
    <path id="path837" d="M20.385,16.207v.35h.7v-.35Z" class="aw-theme-iconOutline" fill="#464646"/>
    <path id="path835" d="M21.783,16.207v.35h.7v-.35Z" class="aw-theme-iconOutline" fill="#464646"/>
    <path id="path833" d="M20.561,16.908v.7h.348v-.7Z" class="aw-theme-iconOutline" fill="#464646"/>
    <path id="path829" d="M13.561,18.307v.7h.35v-.7Z" class="aw-theme-iconOutline" fill="#464646"/>
    <path id="path825" d="M13.561,19.711v.7h.35v-.7Z" class="aw-theme-iconOutline" fill="#464646"/>
    <path id="path821" d="M6.563,21.111v.525H6.91v-.525Z" class="aw-theme-iconOutline" fill="#464646"/>
    <path id="path819" d="M13.561,21.111v.525h.35v-.525Z" class="aw-theme-iconOutline" fill="#464646"/>
    <path id="path954" d="M20.561,21.111v.525h.348v-.525Z" class="aw-theme-iconOutline" fill="#464646"/>
    <path id="path895-4" d="M17.584,4.824v.348h.7V4.824Z" class="aw-theme-iconOutline" fill="#464646"/>
    <path id="path893-4" d="M20.385,4.824v.348h.7V4.824Z" class="aw-theme-iconOutline" fill="#464646"/>
    <path id="path891-3" d="M21.786,4.824v.348h.7V4.824Z" class="aw-theme-iconOutline" fill="#464646"/>
    <path id="path877-0" d="M6.563,18.308v.7H6.91v-.7Z" class="aw-theme-iconOutline" fill="#464646"/>
    <path id="path911-5-7" d="M15.457,10.081h-.7v.347h.7Z" class="aw-theme-iconOutline" fill="#464646"/>
    <path id="path889-6-9" d="M14.057,10.081h-.7v.347h.7Z" class="aw-theme-iconOutline" fill="#464646"/>
    <path id="path885-0-2" d="M12.654,10.081h-.7v.347h.7Z" class="aw-theme-iconOutline" fill="#464646"/>
    <path id="path879-4-0" d="M11.254,10.081h-.7v.347h.7Z" class="aw-theme-iconOutline" fill="#464646"/>
    <path id="path877-0-0" d="M9.852,10.081h-.7v.347h.7Z" class="aw-theme-iconOutline" fill="#464646"/>
    <path id="path925-9-4-4" d="M13.89,20.406v-.7h-.347v.7Z" class="aw-theme-iconOutline" fill="#464646"/>
    <path id="path919-0-7-0" d="M13.89,19.006v-.7h-.347v.7Z" class="aw-theme-iconOutline" fill="#464646"/>
    <path id="path911-5-7-3" d="M13.89,17.605v-.7h-.347v.7Z" class="aw-theme-iconOutline" fill="#464646"/>
    <path id="path889-6-9-8" d="M13.89,16.2v-.7h-.347v.7Z" class="aw-theme-iconOutline" fill="#464646"/>
    <path id="path885-0-2-5" d="M13.89,14.8v-.7h-.347v.7Z" class="aw-theme-iconOutline" fill="#464646"/>
    <path id="path879-4-0-9" d="M13.89,13.4v-.7h-.347v.7Z" class="aw-theme-iconOutline" fill="#464646"/>
    <path id="path877-0-0-0" d="M13.89,12v-.7h-.347V12Z" class="aw-theme-iconOutline" fill="#464646"/>
    <path id="path925-9-4-5" d="M13.89,14.8v-.7h-.347v.7Z" class="aw-theme-iconOutline" fill="#464646"/>
    <path id="path919-0-7-7" d="M13.89,13.4v-.7h-.347v.7Z" class="aw-theme-iconOutline" fill="#464646"/>
    <path id="path911-5-7-4" d="M13.89,12v-.7h-.347V12Z" class="aw-theme-iconOutline" fill="#464646"/>
    <path id="path889-6-9-0" d="M13.89,10.6V9.9h-.347v.7Z" class="aw-theme-iconOutline" fill="#464646"/>
    <path id="path885-0-2-3" d="M13.89,9.2V8.5h-.347v.7Z" class="aw-theme-iconOutline" fill="#464646"/>
    <path id="path879-4-0-3" d="M13.89,7.8v-.7h-.347v.7Z" class="aw-theme-iconOutline" fill="#464646"/>
    <path id="path877-0-0-1" d="M13.89,6.394v-.7h-.347v.7Z" class="aw-theme-iconOutline" fill="#464646"/>
    <path id="path925-9-4-57" d="M20.883,4.293v.7h-.347v-.7Z" class="aw-theme-iconOutline" fill="#464646"/>
    <path id="path919-0-7-9" d="M20.883,5.693v.7h-.347v-.7Z" class="aw-theme-iconOutline" fill="#464646"/>
    <path id="path911-5-7-0" d="M20.883,7.094v.7h-.347v-.7Z" class="aw-theme-iconOutline" fill="#464646"/>
    <path id="path889-6-9-2" d="M20.883,8.494v.7h-.347v-.7Z" class="aw-theme-iconOutline" fill="#464646"/>
    <path id="path885-0-2-7" d="M20.883,9.9v.7h-.347V9.9Z" class="aw-theme-iconOutline" fill="#464646"/>
    <path id="path879-4-0-8" d="M20.883,11.3V12h-.347v-.7Z" class="aw-theme-iconOutline" fill="#464646"/>
    <path id="path877-0-0-18" d="M20.883,12.7v.7h-.347v-.7Z" class="aw-theme-iconOutline" fill="#464646"/>
    <path id="path925-9-4-1" d="M14.135,16.2h-.7v.347h.7Z" class="aw-theme-iconOutline" fill="#464646"/>
    <path id="path919-0-7-8" d="M12.735,16.2h-.7v.347h.7Z" class="aw-theme-iconOutline" fill="#464646"/>
    <path id="path911-5-7-5" d="M11.334,16.2h-.7v.347h.7Z" class="aw-theme-iconOutline" fill="#464646"/>
    <path id="path889-6-9-9" d="M9.934,16.2h-.7v.347h.7Z" class="aw-theme-iconOutline" fill="#464646"/>
    <path id="path885-0-2-6" d="M8.531,16.2h-.7v.347h.7Z" class="aw-theme-iconOutline" fill="#464646"/>
    <path id="path925-9-4-578" d="M23.9,16.186h-.7v.347h.7Z" class="aw-theme-iconOutline" fill="#464646"/>
    <path id="path919-0-7-2" d="M22.5,16.186h-.7v.347h.7Z" class="aw-theme-iconOutline" fill="#464646"/>
    <path id="path911-5-7-2" d="M21.1,16.186h-.7v.347h.7Z" class="aw-theme-iconOutline" fill="#464646"/>
    <path id="path879-4-0-6" d="M16.9,16.186h-.7v.347h.7Z" class="aw-theme-iconOutline" fill="#464646"/>
    <path id="path877-0-0-16" d="M15.5,16.186h-.7v.347h.7Z" class="aw-theme-iconOutline" fill="#464646"/>
    <path id="path925-9-4-8" d="M23.825,10.076h-.7v.347h.7Z" class="aw-theme-iconOutline" fill="#464646"/>
    <path id="path919-0-7-21" d="M22.425,10.076h-.7v.347h.7Z" class="aw-theme-iconOutline" fill="#464646"/>
    <path id="path911-5-7-31" d="M21.024,10.076h-.7v.347h.7Z" class="aw-theme-iconOutline" fill="#464646"/>
    <path id="path889-6-9-29" d="M19.624,10.076h-.7v.347h.7Z" class="aw-theme-iconOutline" fill="#464646"/>
    <path id="path877-0-0-6" d="M15.419,10.076h-.7v.347h.7Z" class="aw-theme-iconOutline" fill="#464646"/>
    <path id="path925-9-4-56" d="M23.889,4.825h-.7v.347h.7Z" class="aw-theme-iconOutline" fill="#464646"/>
    <path id="path919-0-7-79" d="M22.489,4.825h-.7v.347h.7Z" class="aw-theme-iconOutline" fill="#464646"/>
    <path id="path911-5-7-22" d="M21.088,4.825h-.7v.347h.7Z" class="aw-theme-iconOutline" fill="#464646"/>
    <path id="path889-6-9-3" d="M19.688,4.825h-.7v.347h.7Z" class="aw-theme-iconOutline" fill="#464646"/>
    <path id="path885-0-2-52" d="M18.285,4.825h-.7v.347h.7Z" class="aw-theme-iconOutline" fill="#464646"/>
    <path id="path925-9-4-2" d="M6.9,21.8v-.7H6.55v.7Z" class="aw-theme-iconOutline" fill="#464646"/>
    <path id="path919-0-7-4" d="M6.9,20.4v-.7H6.55v.7Z" class="aw-theme-iconOutline" fill="#464646"/>
    <path id="path911-5-7-1" d="M6.9,19v-.7H6.55V19Z" class="aw-theme-iconOutline" fill="#464646"/>
    <path id="path925-9-4-0" d="M20.909,10.6V9.9h-.347v.7Z" class="aw-theme-iconOutline" fill="#464646"/>
    <path id="path919-0-7-95" d="M20.909,9.2V8.5h-.347v.7Z" class="aw-theme-iconOutline" fill="#464646"/>
    <path id="path911-5-7-7" d="M20.909,7.8V7.1h-.347v.7Z" class="aw-theme-iconOutline" fill="#464646"/>
    <path id="path889-6-9-4" d="M20.909,6.4V5.7h-.347v.7Z" class="aw-theme-iconOutline" fill="#464646"/>
    <path id="path885-0-2-63" d="M20.909,5V4.3h-.347V5Z" class="aw-theme-iconOutline" fill="#464646"/>
    <path id="path879-4-0-04" d="M20.909,3.6V2.9h-.347v.7Z" class="aw-theme-iconOutline" fill="#464646"/>
    <path id="path877-0-0-63" d="M20.909,2.2V1.5h-.347v.7Z" class="aw-theme-iconOutline" fill="#464646"/>
    <path id="rect1224" d="M.5,0A.511.511,0,0,1,1,.523V23.477A.511.511,0,0,1,.5,24a.511.511,0,0,1-.5-.523V.523A.511.511,0,0,1,.5,0Z" class="aw-theme-iconOutline" fill="#464646"/>
    <path id="rect1224-6" d="M24,23.5a.511.511,0,0,1-.523.5H.523a.5.5,0,1,1,0-1H23.477A.511.511,0,0,1,24,23.5Z" class="aw-theme-iconOutline" fill="#464646"/>
  </g>
</svg>
