
<svg version="1.1"
	 id="svg8" xmlns:inkscape="http://www.inkscape.org/namespaces/inkscape" xmlns:sodipodi="http://sodipodi.sourceforge.net/DTD/sodipodi-0.dtd" xmlns:svg="http://www.w3.org/2000/svg" xmlns:cc="http://creativecommons.org/ns#" xmlns:rdf="http://www.w3.org/1999/02/22-rdf-syntax-ns#" xmlns:dc="http://purl.org/dc/elements/1.1/" inkscape:version="0.92.2 (5c3e80d, 2017-08-06)" sodipodi:docname="dropdown.svg"
	 xmlns="http://www.w3.org/2000/svg" xmlns:xlink="http://www.w3.org/1999/xlink" x="0px" y="0px" 
	 viewBox="0 0 24 24" enable-background="new 0 0 24 24" xml:space="preserve">
<g id="layer1" transform="translate(0,-290.64998)">
	<path id="rect818" class="aw-theme-iconOutline" fill="#464646" d="M1,292.65v1h14.551v6.574H1v1h21v10.426H1v1h22v-1v-11.234
		v-0.191v-6.574v-0.184v-0.816H1z M16.551,293.65H22v6.574h-5.449V293.65z M17.494,295.629l0.838,1.422l0.813,1.438l0.813-1.438
		l0.838-1.422l-1.65,0.016L17.494,295.629z M3.018,296.65v1h10v-1H3.018z M3.057,304.338v1h7.525v-1H3.057z M3,308.15v1h10v-1H3z"/>
</g>
</svg>
