<svg id="Layer_1" data-name="Layer 1" xmlns="http://www.w3.org/2000/svg" viewBox="0 0 24 24">
  <g id="g893">
    <path id="path1052-2-1-8" d="M2.506,3.3A1.253,1.253,0,0,1,3.758,4.549h0A1.253,1.253,0,0,1,2.506,5.8h0a1.253,1.253,0,0,1,0-2.506Zm0,.835a.418.418,0,1,0,.417.418.418.418,0,0,0-.417-.418Z" class="aw-theme-iconOutline" fill="#464646"/>
    <path id="path1052-2-3" d="M1.253,9.978a1.253,1.253,0,0,1,1.253,1.253h0a1.253,1.253,0,0,1-1.253,1.252h0A1.253,1.253,0,0,1,0,11.231H0A1.253,1.253,0,0,1,1.253,9.978Zm0,.835a.418.418,0,1,0,0,.835h0a.417.417,0,0,0,.417-.417h0A.418.418,0,0,0,1.253,10.813Z" class="aw-theme-iconOutline" fill="#464646"/>
    <path id="path1052-2-1-5" d="M3.758,13.319a1.252,1.252,0,0,1,1.253,1.252h0a1.253,1.253,0,0,1-1.253,1.253h0a1.252,1.252,0,0,1-1.252-1.253h0a1.251,1.251,0,0,1,1.252-1.252Zm0,.835a.418.418,0,1,0,.418.417A.417.417,0,0,0,3.758,14.154Z" class="aw-theme-iconOutline" fill="#464646"/>
    <path id="rect1193" d="M2.923,14.154H0v.835H2.923Z" class="aw-theme-iconOutline" fill="#464646"/>
    <path id="rect1356" d="M1.67,4.131H0v.836H1.67Z" class="aw-theme-iconOutline" fill="#464646"/>
    <path id="path1052-1" d="M3.758,9.978A1.252,1.252,0,0,1,2.506,8.725h0a1.253,1.253,0,1,1,2.505,0h0A1.253,1.253,0,0,1,3.758,9.978Zm0-.835a.418.418,0,1,0-.417-.418A.418.418,0,0,0,3.758,9.143Z" class="aw-theme-iconOutline" fill="#464646"/>
    <path id="path1354-3" d="M0,7.055v.417H2.357l.361.361.361.361.04-.071a1.323,1.323,0,0,1,.407-.441,1.076,1.076,0,0,1,.114-.068l.023-.008-.446-.445c-.477-.476-.507-.49-.616-.524-.31-.012,1.79.007-1.706,0L0,6.637Z" class="aw-theme-iconOutline" fill="#464646"/>
    <path id="rect852" d="M8.352,16.659H5.011v.835H8.352Z" class="aw-theme-iconOutline" fill="#464646"/>
    <path id="rect854" d="M5.846,17.494H5.011V20h.835Z" class="aw-theme-iconOutline" fill="#464646"/>
    <path id="rect856" d="M8.352,4.131H5.846V5.8H8.352Z" class="aw-theme-iconOutline" fill="#464646"/>
    <path id="rect856-6" d="M8.352,6.637H5.846v1.67H8.352Z" class="aw-theme-iconOutline" fill="#464646"/>
    <path id="rect856-6-6-5" d="M8.352,14.154H5.846v1.67H8.352Z" class="aw-theme-iconOutline" fill="#464646"/>
    <path id="rect922" d="M0-.044H5.011V.791H0Z" class="aw-theme-iconOutline" fill="#464646"/>
    <path id="rect925" d="M0,19.165H5.011V20H0Z" class="aw-theme-iconOutline" fill="#464646"/>
    <path id="rect856-6-6-5-5" d="M8.352,11.648H5.846v1.671H8.352Z" class="aw-theme-iconOutline" fill="#464646"/>
    <path id="rect962" d="M7.517,10.813h.835v6.681H7.517Z" class="aw-theme-iconOutline" fill="#464646"/>
    <path id="rect964" d="M7.517,3.3h.835V9.143H7.517Z" class="aw-theme-iconOutline" fill="#464646"/>
    <path id="rect854-8" d="M5.846-.044H5.011V2.461h.835Z" class="aw-theme-iconOutline" fill="#464646"/>
    <path id="rect852-9" d="M8.352,2.461H5.011V3.3H8.352Z" class="aw-theme-iconOutline" fill="#464646"/>
    <path id="path4-2" d="M14.923,10l-3.292-.7L20,3.819l-.663-1.106L11.017,8.2l.819-3.233L10.764,4.7,9.56,9.2a1.134,1.134,0,0,0,0,.733.882.882,0,0,0,.568.313l4.579.875Z" class="aw-theme-iconOutline" fill="#464646"/>
    <path id="path2-2" d="M17.5,24A6.5,6.5,0,1,1,24,17.5h0A6.487,6.487,0,0,1,17.526,24H17.5Zm0-12A5.5,5.5,0,1,0,23,17.5h0A5.55,5.55,0,0,0,17.5,12Z" class="aw-theme-iconOutline" fill="#464646"/>
    <path id="path4-8" d="M18.546,13l-.708.708,1.647,1.646H17.461A3.269,3.269,0,0,0,16.2,21.641l.384-.923a2.269,2.269,0,0,1,.873-4.364h2.024L17.838,18l.708.708,2.5-2.5a.5.5,0,0,0,0-.707h0Z" class="aw-theme-iconOutline" fill="#464646"/>
  </g>
</svg>
