<svg id="Image" xmlns="http://www.w3.org/2000/svg" viewBox="0 0 24 24">
  <g id="g4563">
    <path id="path4556" d="M9.205,21.348c-.832-.4-8.88-5.018-9.082-5.209l-.1-.094.01-5.328c.009-5.144.012-5.331.077-5.4.1-.109,1.195-.755,4.355-2.566C7.673.91,9.257.025,9.437-.029A11.479,11.479,0,0,1,11.512.977c.3.172,1.146.653,1.888,1.067s1.377.782,1.412.816c.094.091.133.416.134,1.108a3.372,3.372,0,0,0,.032.638,11.732,11.732,0,0,0,1.016-.777C17.261,2.8,17.372,2.72,17.508,2.72a9.756,9.756,0,0,1,2.04,1.088c1.536.876,2.383,1.379,2.5,1.483l.094.087v6.335l-.207-.15c-.114-.083-.324-.225-.467-.317l-.26-.166-.01-2.38-.009-2.38L20,7.011c-.652.381-1.485.864-1.851,1.075s-.7.4-.732.433a4.064,4.064,0,0,0-.328.819l-.261.771-.452.077c-.249.042-.492.086-.54.1-.085.021-.08,0,.192-.832.153-.469.289-.879.3-.91s-.232-.173-1.315-.665c-.737-.335-1.355-.608-1.373-.608s-.055.059-.08.132c-.055.158-.062.151.314.33.276.131.444.282.482.434a28.025,28.025,0,0,1-.854,2.7l-.178.508-.312.234c-.172.128-.454.366-.627.529s.194-.172-.314.264l.989-3.169q-.016-.016-2.882,1.589l-.256.143L9.9,15.582c-.015,2.539-.019,4.624-.01,4.633a1.249,1.249,0,0,0,.3-.16l.287-.179.134.33c.073.182.151.374.174.427s.033.1.024.112c-.056.048-1.18.7-1.24.721A.754.754,0,0,1,9.205,21.348Zm-.287-2.795c.03-2.014.03-6.224,0-7l-.023-.6L4.954,8.711C2.786,7.473,1,6.46.986,6.46S.96,8.519.96,11.036v4.577l3.946,2.255c2.17,1.24,3.955,2.254,3.967,2.254S8.9,19.416,8.918,18.553Zm1-8.682c1.214-.648,2.873-1.59,2.846-1.616s-.579-.282-1.252-.592c-1.587-.731-1.623-.75-1.713-.927a.378.378,0,0,1,.07-.477c.053-.052.89-.728,1.859-1.5s1.782-1.436,1.807-1.466c.039-.048-.033-.1-.539-.39C11.647,2.128,9.544.959,9.506.959,9.432.959,1.392,5.576,1.419,5.6c.068.068,7.907,4.523,7.96,4.523A3.507,3.507,0,0,0,9.918,9.871Zm8.066-2.788c1.474-.838,2.676-1.538,2.676-1.558s-3-1.74-3.067-1.755c-.042-.009-3.358,2.65-3.377,2.709,0,.012.494.245,1.107.517a9.445,9.445,0,0,0,1.618.671C16.961,7.66,17.43,7.4,17.984,7.083Zm-5.213-.309a3.19,3.19,0,0,1,.206-.469,5.234,5.234,0,0,1,.534-.479l.464-.378V4.821c0-.344-.006-.626-.014-.626s-.474.364-1.034.809-1.192.943-1.4,1.106a4.572,4.572,0,0,0-.386.316.362.362,0,0,0,.133.086c.143.071,1.353.631,1.362.631S12.7,6.977,12.771,6.774Z" class="aw-theme-iconOutline" fill="#464646"/>
    <path id="path4546" d="M17.6,16.932c-.01-.03-.143-.924-.138-.929s.311-.053.684-.11.682-.108.685-.111a3.741,3.741,0,0,0-.533-.415,3.344,3.344,0,0,0-1.3-.555,2.718,2.718,0,0,0-.563-.018,1.891,1.891,0,0,0-1.117.549,3.364,3.364,0,0,0-.655.912.719.719,0,0,1-.085.142c-.008,0-.835-.44-.846-.448s.046-.081.107-.176a6.985,6.985,0,0,1,.9-1.2,2.406,2.406,0,0,1,1.608-.749,2.548,2.548,0,0,1,.807.028A5.331,5.331,0,0,1,19.2,14.883a.766.766,0,0,0,.119.08s-.038-.285-.091-.626-.094-.623-.093-.624.9-.14.933-.144c.011,0,.056.274.239,1.459.2,1.288.225,1.462.212,1.467s-2.871.448-2.9.448A.02.02,0,0,1,17.6,16.932Z" class="aw-theme-iconOutline" fill="#464646"/>
    <path id="path3-5" d="M17.5,24a6.487,6.487,0,1,1,.026,0H17.5m0-12A5.5,5.5,0,1,0,23,17.5,5.5,5.5,0,0,0,17.5,12" class="aw-theme-iconOutline" fill="#464646"/>
    <path id="circle5-7" d="M17,19.251A1.75,1.75,0,1,1,15.251,17.5h0A1.75,1.75,0,0,1,17,19.251Z" class="aw-theme-iconOutline" fill="#464646"/>
    <path id="circle5-4" d="M19.762,17.508a1.76,1.76,0,1,0,.024,0Zm.012,1h.01a.75.75,0,0,1,.75.75h0a.75.75,0,1,1-.76-.75Z" class="aw-theme-iconOutline" fill="#464646"/>
  </g>
</svg>
