<svg id="Layer_1" data-name="Layer 1" xmlns="http://www.w3.org/2000/svg" viewBox="0 0 24 24">
  <g id="g832">
    <path id="path825" d="M13.6,21.084c-.186-.208-.339-.386-.341-.4s3.406-3.855,3.426-3.846.5.549,1.089,1.213l1.075,1.207,2.021-2.022a18.849,18.849,0,0,1,2.055-1.986l.351.392L23.6,16l-.335.34c-.184.186-.943.959-1.686,1.717s-1.662,1.692-2.041,2.075l-.689.7-1.073-1.206c-.59-.663-1.084-1.2-1.1-1.2s-.614.669-1.335,1.478-1.331,1.49-1.356,1.515C13.938,21.462,13.93,21.455,13.6,21.084Z" class="aw-theme-iconOutline" fill="#464646"/>
    <path id="path823" d="M5.874,2.234V.025l.365.014A3.918,3.918,0,0,1,7.971.476a3.727,3.727,0,0,1,1.091.779,4.124,4.124,0,0,1,1.222,2.894v.294H5.874Zm3.461,1.2a3.331,3.331,0,0,0-.477-1.1A4.325,4.325,0,0,0,8.029,1.5a3.819,3.819,0,0,0-1.2-.523L6.737.962V3.58H9.369Z" class="aw-theme-iconOutline" fill="#464646"/>
    <path id="path821" d="M3.884,10.338a4.361,4.361,0,0,1-.962-.191A5.25,5.25,0,0,1,1.8,9.578,5.381,5.381,0,0,1,.816,8.6a4.5,4.5,0,0,1-.7-1.6A3.071,3.071,0,0,1,.063,6.2,3.306,3.306,0,0,1,.245,4.911,5.273,5.273,0,0,1,.81,3.8a4.176,4.176,0,0,1,3.9-1.737l.114.015V5.569h3.5l.02.138A6.116,6.116,0,0,1,8.322,6.78a4.25,4.25,0,0,1-.439,1.33A4.174,4.174,0,0,1,3.884,10.338Zm.983-.922a3.32,3.32,0,0,0,2.457-2.2A3.484,3.484,0,0,0,7.48,6.5c0-.044-.058-.045-1.774-.045H3.932V2.9l-.126.016a3.917,3.917,0,0,0-.853.229,3.192,3.192,0,0,0-1.133.785,3.173,3.173,0,0,0-.9,2.115A3.315,3.315,0,0,0,3.681,9.441,4.759,4.759,0,0,0,4.867,9.416Z" class="aw-theme-iconOutline" fill="#464646"/>
    <path id="rect4561" d="M11.5,0h1V24h-1Z" class="aw-theme-iconOutline" fill="#464646"/>
    <path id="rect4561-6" d="M24,11.5v1H0v-1Z" class="aw-theme-iconOutline" fill="#464646"/>
    <path id="rect4578" d="M1,19v3h9V19Zm1,1H9v1H2Z" class="aw-theme-iconOutline" fill="#464646"/>
    <path id="rect4578-2" d="M1,15v3H8V15Zm1.109,1h5v1h-5Z" class="aw-theme-iconOutline" fill="#464646"/>
    <path id="rect4578-5" d="M19.034,10h3V1h-3Zm1-1V2h1V9Z" class="aw-theme-iconOutline" fill="#464646"/>
    <path id="rect4578-2-6" d="M15.034,10h3V3h-3Zm1-1.109v-5h1v5Z" class="aw-theme-iconOutline" fill="#464646"/>
  </g>
</svg>
