<svg id="svg8" xmlns="http://www.w3.org/2000/svg" viewBox="0 0 24 24">
  <g id="g847">
    <path id="rect827" d="M14,23H24v1H14Z" class="aw-theme-iconOutline" fill="#464646"/>
    <path id="rect829-3" d="M23,14.746h1v8.432H23Z" class="aw-theme-iconOutline" fill="#464646"/>
    <path id="rect827-3" d="M14,14H24v1H14Z" class="aw-theme-iconOutline" fill="#464646"/>
    <path id="rect829-3-6" d="M14,14.8h1v8.432H14Z" class="aw-theme-iconOutline" fill="#464646"/>
    <path id="rect827-2" d="M0,21H10v1H0Z" class="aw-theme-iconOutline" fill="#464646"/>
    <path id="rect829-3-66" d="M9,12.72h1V21.2H9Z" class="aw-theme-iconOutline" fill="#464646"/>
    <path id="rect827-3-5" d="M0,12H10v1H0Z" class="aw-theme-iconOutline" fill="#464646"/>
    <path id="rect829-3-6-4" d="M0,12.746H1v8.559H0Z" class="aw-theme-iconOutline" fill="#464646"/>
    <path id="rect827-2-7" d="M0,9H10v1H0Z" class="aw-theme-iconOutline" fill="#464646"/>
    <path id="rect829-3-66-5" d="M9,.847h1V9.2H9Z" class="aw-theme-iconOutline" fill="#464646"/>
    <path id="rect827-3-5-7" d="M0,0H10V1H0Z" class="aw-theme-iconOutline" fill="#464646"/>
    <path id="rect829-3-6-4-7" d="M0,.619H1V9.381H0Z" class="aw-theme-iconOutline" fill="#464646"/>
    <path id="rect827-2-7-3" d="M14,9H24v1H14Z" class="aw-theme-iconOutline" fill="#464646"/>
    <path id="rect829-3-66-5-9" d="M23,.771h1V9.407H23Z" class="aw-theme-iconOutline" fill="#464646"/>
    <path id="rect827-3-5-7-7" d="M14,0H24V1H14Z" class="aw-theme-iconOutline" fill="#464646"/>
    <path id="rect829-3-6-4-7-1" d="M14,.7h1V9.1H14Z" class="aw-theme-iconOutline" fill="#464646"/>
  </g>
</svg>
