<svg id="svg8" xmlns="http://www.w3.org/2000/svg" viewBox="0 0 24 24">
  <g id="g838">
    <path id="path828" d="M8.034,17.938c-1.533-.225-2.5-1.5-2.9-3.839a19.264,19.264,0,0,1,0-3.827,5.619,5.619,0,0,1,1.382-3.29,2.977,2.977,0,0,1,2.261-.891q2.582,0,3.253,3.254a11.769,11.769,0,0,1,.212,2.568,8.708,8.708,0,0,1-.811,4.22,3.732,3.732,0,0,1-1.484,1.52A3.279,3.279,0,0,1,8.034,17.938ZM9.479,16.7A2.764,2.764,0,0,0,10.7,14.862a13.829,13.829,0,0,0-.047-5.811A2.762,2.762,0,0,0,9.467,7.32,1.266,1.266,0,0,0,8.7,7.184a1.465,1.465,0,0,0-.8.137C6.882,7.8,6.366,9.205,6.3,11.684c-.08,2.974.478,4.667,1.679,5.1A2.321,2.321,0,0,0,9.479,16.7Z" class="aw-theme-iconOutline" fill="#464646"/>
    <path id="path830" d="M2.064,19.949c0-.047,1.229-2.851,1.267-2.89a2.552,2.552,0,0,1,.605-.025l.567.014L3.708,18.51l-.8,1.462H2.488A1.96,1.96,0,0,1,2.064,19.949Z" class="aw-theme-iconOutline" fill="#464646"/>
    <path id="rect818-2" d="M1,2H23V3H1Z" class="aw-theme-iconOutline" fill="#464646" fill-rule="evenodd"/>
    <path id="rect818-7-0" d="M1,21H23v1H1Z" class="aw-theme-iconOutline" fill="#464646" fill-rule="evenodd"/>
    <path id="rect850-5" d="M22,2.9h1V21.1H22Z" class="aw-theme-iconOutline" fill="#464646" fill-rule="evenodd"/>
    <path id="rect858" d="M17,7h1V17H17Z" class="aw-theme-iconOutline" fill="#464646" fill-rule="evenodd"/>
    <path id="rect858-2-6-9" d="M21,6V7H18V6Z" class="aw-theme-iconOutline" fill="#464646" fill-rule="evenodd"/>
    <path id="rect858-2-6-9-4" d="M17,6V7H14V6Z" class="aw-theme-iconOutline" fill="#464646" fill-rule="evenodd"/>
    <path id="rect858-2-6-9-3" d="M21,17v1H18V17Z" class="aw-theme-iconOutline" fill="#464646" fill-rule="evenodd"/>
    <path id="rect858-2-6-9-4-1" d="M17,17v1H14V17Z" class="aw-theme-iconOutline" fill="#464646" fill-rule="evenodd"/>
  </g>
</svg>
