<svg id="svg8" xmlns="http://www.w3.org/2000/svg" viewBox="0 0 24 24">
  <g id="g847">
    <path id="rect827" d="M14,23H24v1H14Z" class="aw-theme-iconOutline" fill="#464646"/>
    <path id="rect829-3" d="M23,14.694h1v8.5H23Z" class="aw-theme-iconOutline" fill="#464646"/>
    <path id="rect827-3" d="M14,14H24v1H14Z" class="aw-theme-iconOutline" fill="#464646"/>
    <path id="rect829-3-6" d="M14,14.64h1v8.666H14Z" class="aw-theme-iconOutline" fill="#464646"/>
    <path id="rect827-2" d="M0,21H10v1H0Z" class="aw-theme-iconOutline" fill="#464646"/>
    <path id="rect829-3-66" d="M9,12.6h1v8.827H9Z" class="aw-theme-iconOutline" fill="#464646"/>
    <path id="rect827-3-5" d="M0,12H10v1H0Z" class="aw-theme-iconOutline" fill="#464646"/>
    <path id="rect829-3-6-4" d="M0,12.461H1V21.4H0Z" class="aw-theme-iconOutline" fill="#464646"/>
    <path id="rect827-2-7" d="M0,9H10v1H0Z" class="aw-theme-iconOutline" fill="#464646"/>
    <path id="rect829-3-66-5" d="M9,.784h1V9.306H9Z" class="aw-theme-iconOutline" fill="#464646"/>
    <path id="rect827-3-5-7" d="M0,0H10V1H0Z" class="aw-theme-iconOutline" fill="#464646"/>
    <path id="rect829-3-6-4-7" d="M0,.658H1v8.5H0Z" class="aw-theme-iconOutline" fill="#464646"/>
    <path id="rect827-2-7-3" d="M14,9H24v1H14Z" class="aw-theme-iconOutline" fill="#464646"/>
    <path id="rect829-3-66-5-9" d="M23,.658h1V9.18H23Z" class="aw-theme-iconOutline" fill="#464646"/>
    <path id="rect827-3-5-7-7" d="M14,0H24V1H14Z" class="aw-theme-iconOutline" fill="#464646"/>
    <path id="rect829-3-6-4-7-1" d="M14,.64h1V9.306H14Z" class="aw-theme-iconOutline" fill="#464646"/>
    <path id="rect973" d="M15,14.542h8.238a.406.406,0,0,1,.406.407v8.34a.405.405,0,0,1-.406.406H15a.405.405,0,0,1-.407-.406v-8.34A.406.406,0,0,1,15,14.542Z" class="aw-theme-iconOutline" fill="#464646"/>
  </g>
</svg>
