<svg id="Layer_1" data-name="Layer 1" xmlns="http://www.w3.org/2000/svg" viewBox="0 0 24 24">
  <g id="g847">
    <path id="path2-4" d="M15.452,22a3.5,3.5,0,1,1,3.5-3.5A3.5,3.5,0,0,1,15.452,22Zm0-6a2.5,2.5,0,1,0,2.5,2.5A2.5,2.5,0,0,0,15.452,16Z" class="aw-theme-iconOutline" fill="#464646"/>
    <path id="path4-9" d="M15.452,24a9.643,9.643,0,0,1-8.436-5.269.5.5,0,0,1,0-.481A9.657,9.657,0,0,1,15.452,13a9.658,9.658,0,0,1,8.44,5.259.5.5,0,0,1,0,.482A9.658,9.658,0,0,1,15.452,24ZM8.027,18.491A8.616,8.616,0,0,0,15.452,23a8.632,8.632,0,0,0,7.427-4.5A8.632,8.632,0,0,0,15.452,14,8.632,8.632,0,0,0,8.027,18.491Z" class="aw-theme-iconOutline" fill="#464646"/>
    <path id="path2-7" d="M3,1H16V11.8l1,.1V0H0V21H7l-.8-1H3ZM1,1H2V20H1Z" class="aw-theme-iconOutline" fill="#464646"/>
    <path id="path4-90" d="M13.5,4h-8A1.5,1.5,0,0,0,4,5.5v4A1.5,1.5,0,0,0,5.5,11h8A1.5,1.5,0,0,0,15,9.5v-4A1.5,1.5,0,0,0,13.5,4ZM14,9.5a.5.5,0,0,1-.5.5h-8A.5.5,0,0,1,5,9.5v-4A.5.5,0,0,1,5.5,5h8a.5.5,0,0,1,.5.5Z" class="aw-theme-iconOutline" fill="#464646"/>
    <path id="rect6-3" d="M6,8h6V9H6Z" class="aw-theme-iconOutline" fill="#464646"/>
    <path id="rect8-6" d="M6,6h7V7H6Z" class="aw-theme-iconOutline" fill="#464646"/>
  </g>
</svg>
