<svg id="Livello_1" data-name="Livello 1" xmlns="http://www.w3.org/2000/svg" viewBox="0 0 24 24">
  <g id="g879">
    <path id="path879" d="M18.284,10.036a5.373,5.373,0,0,1-1.474-.507,4.815,4.815,0,0,1-1.8-1.488,4.984,4.984,0,0,1-.994-3.016,4.742,4.742,0,0,1,.469-2.09A5.008,5.008,0,0,1,18.446.088,6.145,6.145,0,0,1,19.7.107a4.9,4.9,0,0,1,1.582.506,4.978,4.978,0,0,1,2.616,3.432,3.936,3.936,0,0,1,.089.962,4.719,4.719,0,0,1-.515,2.263,4.878,4.878,0,0,1-1,1.366,4.7,4.7,0,0,1-2.521,1.389,4.534,4.534,0,0,1-.858.075A3.86,3.86,0,0,1,18.284,10.036Zm.91-.741a1.673,1.673,0,0,0,.815-.824,4.236,4.236,0,0,0,.243-.516h-2.5a4.968,4.968,0,0,0,.26.549,1.57,1.57,0,0,0,.8.792A.578.578,0,0,0,19.194,9.3Zm-1.71-.264a1.39,1.39,0,0,0-.08-.148,7.846,7.846,0,0,1-.375-.775l-.061-.153H15.857l.117.11a4.879,4.879,0,0,0,1.289.889C17.462,9.044,17.484,9.052,17.484,9.031ZM20.649,9A4.545,4.545,0,0,0,21.655,8.4a3.821,3.821,0,0,0,.467-.447h-1.1l-.043.144a5.842,5.842,0,0,1-.446.9C20.492,9.055,20.505,9.055,20.649,9ZM16.754,7.213A2.31,2.31,0,0,0,16.71,6.9a9.955,9.955,0,0,1-.147-1.164l-.021-.3H14.751v.022a4.01,4.01,0,0,0,.117.647,4.555,4.555,0,0,0,.327.881l.117.224ZM20.5,7.16a8.964,8.964,0,0,0,.217-1.586V5.439H17.274a6.48,6.48,0,0,0,.076.905c.041.284.109.643.154.816l.017.053h2.964Zm2.2.053.123-.261a4.909,4.909,0,0,0,.422-1.419l.012-.094h-1.8l-.011.166a10.545,10.545,0,0,1-.173,1.4.753.753,0,0,0-.035.205ZM16.529,4.67a3.525,3.525,0,0,0,.036-.364,11.427,11.427,0,0,1,.146-1.165c.02-.1.036-.2.036-.215H15.306l-.091.174a4.606,4.606,0,0,0-.372,1.017,3.054,3.054,0,0,0-.083.575h1.754Zm4.191-.1a10.111,10.111,0,0,0-.186-1.455c-.035-.17-.043-.174-.084-.185H17.513a10.237,10.237,0,0,0-.238,1.766H20.72Zm2.52.019a4.9,4.9,0,0,0-.471-1.528L22.7,2.926H21.259c0,.013.02.133.044.276.058.344.111.763.145,1.156.015.177.032.325.037.334h1.761ZM17.033,1.973a6.152,6.152,0,0,1,.376-.768.579.579,0,0,0,.066-.123,1.139,1.139,0,0,0-.165.06A4.423,4.423,0,0,0,16,2.03l-.143.146h1.1Zm3.2.2a5.248,5.248,0,0,0-.326-.7,1.746,1.746,0,0,0-.637-.623A.727.727,0,0,0,18.7.87a.955.955,0,0,0-.3.225,2.468,2.468,0,0,0-.491.738c-.139.278-.154.332-.126.343Zm1.888-.016a1.6,1.6,0,0,0-.184-.192,4.159,4.159,0,0,0-.661-.511,6.526,6.526,0,0,0-.751-.388,1.193,1.193,0,0,0,.1.2A4.607,4.607,0,0,1,20.981,2c.045.132.059.167.1.173h1.043Z" class="aw-theme-iconOutline" fill="#464646"/>
    <path id="path883" d="M5.006,23.967a5.527,5.527,0,0,1-4.563-3.34,6.177,6.177,0,0,1-.35-1.179A4.2,4.2,0,0,1,.037,18.5a4.2,4.2,0,0,1,.056-.944,6.07,6.07,0,0,1,.573-1.655l.083-.145.527.306a4.125,4.125,0,0,0,.55.291.641.641,0,0,0,.093-.135,4.592,4.592,0,0,1,1.249-1.3A4.222,4.222,0,0,1,5.191,14.2l.324-.03V13.012H5.65a6.24,6.24,0,0,1,.935.1,5.486,5.486,0,0,1-.333,10.813A6.646,6.646,0,0,1,5.006,23.967Zm1.24-2.145A3.688,3.688,0,0,0,7.6,21.214a3.662,3.662,0,0,0,1.052-1.271,3.158,3.158,0,0,0,.331-1.49,2.825,2.825,0,0,0-.176-1.11,3.441,3.441,0,0,0-6.64.468,4.371,4.371,0,0,0,0,1.277A3.49,3.49,0,0,0,5.006,21.85,5.148,5.148,0,0,0,6.246,21.822Z" class="aw-theme-iconOutline" fill="#464646"/>
    <path id="rect993" d="M0,0H1V10H0Z" class="aw-theme-iconOutline" fill="#464646"/>
    <path id="rect995" d="M0,9H11v1H0Z" class="aw-theme-iconOutline" fill="#464646"/>
    <path id="rect875" d="M2,2H3V8H2Z" class="aw-theme-iconOutline" fill="#464646"/>
    <path id="rect875-8" d="M4,2H5V8H4Z" class="aw-theme-iconOutline" fill="#464646"/>
    <path id="rect875-84" d="M5,7V8H2V7Z" class="aw-theme-iconOutline" fill="#464646"/>
    <path id="rect875-84-1" d="M5,2V3H2V2Z" class="aw-theme-iconOutline" fill="#464646"/>
    <path id="rect875-5" d="M6,1H7V8H6Z" class="aw-theme-iconOutline" fill="#464646"/>
    <path id="rect875-8-8" d="M8,1H9V8H8Z" class="aw-theme-iconOutline" fill="#464646"/>
    <path id="rect875-84-6" d="M9,6.962V8H6V6.962Z" class="aw-theme-iconOutline" fill="#464646"/>
    <path id="rect875-84-1-1" d="M9,1V2H6V1Z" class="aw-theme-iconOutline" fill="#464646"/>
    <path id="rect875-0" d="M20,14v1H14V14Z" class="aw-theme-iconOutline" fill="#464646"/>
    <path id="rect875-8-4" d="M20,16v1H14V16Z" class="aw-theme-iconOutline" fill="#464646"/>
    <path id="rect875-84-4" d="M15,17H14V14h1Z" class="aw-theme-iconOutline" fill="#464646"/>
    <path id="rect875-84-1-6" d="M20,17H19V14h1Z" class="aw-theme-iconOutline" fill="#464646"/>
    <path id="rect875-5-6" d="M22,19v1H14V19Z" class="aw-theme-iconOutline" fill="#464646"/>
    <path id="rect875-8-8-9" d="M22,21v1H14V21Z" class="aw-theme-iconOutline" fill="#464646"/>
    <path id="rect875-84-6-7" d="M15,22H14V19h1Z" class="aw-theme-iconOutline" fill="#464646"/>
    <path id="rect875-84-1-1-6" d="M23,22H22V19h1Z" class="aw-theme-iconOutline" fill="#464646"/>
    <path id="rect1056" d="M14.5,19.578h3.481V21.3H14.5Z" class="aw-theme-iconOutline" fill="#464646"/>
    <path id="rect862" d="M0,11H24v1H0Z" class="aw-theme-iconOutline" fill="#464646"/>
    <path id="rect862-4" d="M13,0V24H12V0Z" class="aw-theme-iconOutline" fill="#464646"/>
  </g>
</svg>
