<svg id="Layer_1" data-name="Layer 1" xmlns="http://www.w3.org/2000/svg" viewBox="0 0 24 24">
  <g id="g870">
    <path id="path848" d="M12.4,18.2V12.41H23.973v7.632L22,22.012l-1.969,1.97H12.4Zm6.89,3.126V19.685l.081-.138c.148-.253.1-.247,1.943-.247h1.635V15.74H13.457v7.22h5.835Zm1.986-.035c.5-.5.915-.926.915-.94a9.147,9.147,0,0,0-.939-.025h-.94v.94a8.8,8.8,0,0,0,.025.939C20.352,22.2,20.775,21.79,21.278,21.287Zm1.673-7.212v-.643H13.457v1.286h9.494Z" class="aw-theme-iconOutline" fill="#464646"/>
    <path id="rect846" d="M0,13.706H11v1.263H0Z" class="aw-theme-iconOutline" fill="#464646"/>
    <path id="rect855-2" d="M7.773,11.638l2.218-1.229A.626.626,0,0,1,10.6,11.5L8.38,12.733a.626.626,0,0,1-.607-1.1Z" class="aw-theme-iconOutline" fill="#464646"/>
    <path id="rect857-5" d="M9.715,9.961l4.776-2.646,1.114,2.01-4.776,2.646Z" class="aw-theme-iconOutline" fill="#464646"/>
    <path id="rect859-6" d="M14.158,6.893l6.881-3.785-.006,3.8-5.2,3.022Z" class="aw-theme-iconOutline" fill="#464646"/>
    <path id="path903" d="M7.947,1a3.529,3.529,0,0,1-.136.827,3.035,3.035,0,0,0-.111.826.778.778,0,0,0,.134.435,3.293,3.293,0,0,0,.414.453c.067.079.177.133.216.234a.279.279,0,0,1,.011.115c-.018.113-.053.223-.081.334a.639.639,0,0,1-.131.283,3.176,3.176,0,0,1-.21.239.713.713,0,0,0-.146.207.782.782,0,0,0-.048.24,1.778,1.778,0,0,0,.009.379,1.788,1.788,0,0,1,0,.343c-.006.18-.007.361-.005.542a3.1,3.1,0,0,1-.015.409.8.8,0,0,1-.082.245,1.863,1.863,0,0,0-.108.257,2.638,2.638,0,0,0-.069.3A2.343,2.343,0,0,0,7.529,8c0,.11.019.219.01.329a1.671,1.671,0,0,1-.051.306,2.207,2.207,0,0,0-.031.334c-.01.088-.047.169-.057.257a1.787,1.787,0,0,0,0,.207c.017.083.04.165.059.247.013.1.013.2.027.3,0,.066.017.129.023.2a.633.633,0,0,1,.009.2c0,.082,0,.163,0,.244a.124.124,0,0,0,.007.054l-.524-.1h0a.348.348,0,0,1,0-.066c0-.082,0-.163.006-.245a.863.863,0,0,0-.012-.19c-.008-.064-.02-.129-.023-.194-.009-.1-.009-.193-.025-.288a1.842,1.842,0,0,1-.061-.262A1.5,1.5,0,0,1,6.882,9.1c.011-.086.044-.167.056-.253a2.645,2.645,0,0,1,.036-.342,1.892,1.892,0,0,0,.047-.3c.009-.11-.012-.219-.008-.329a2.47,2.47,0,0,1,.055-.33,2.549,2.549,0,0,1,.072-.311,1.9,1.9,0,0,1,.106-.265.688.688,0,0,0,.08-.225,2.986,2.986,0,0,0,.022-.4c0-.182,0-.365,0-.548a2.056,2.056,0,0,0,0-.333,2.2,2.2,0,0,1-.009-.389.777.777,0,0,1,.05-.257A.727.727,0,0,1,7.544,4.6c.072-.075.145-.151.21-.233A.592.592,0,0,0,7.879,4.1a2.926,2.926,0,0,0,.078-.32.355.355,0,0,0,0-.046c-.02-.114-.156-.177-.22-.26a3.042,3.042,0,0,1-.418-.468.8.8,0,0,1-.125-.462,3.417,3.417,0,0,1,.128-.834,2.741,2.741,0,0,0,.11-.834Z" class="aw-theme-iconOutline" fill="#464646"/>
    <g id="g929">
      <path id="path905-3" d="M3.013,14.559c.079.121.146.249.219.373a2.449,2.449,0,0,0,.145.215,1.378,1.378,0,0,0,.111.212,1.006,1.006,0,0,0,.172.19,1.092,1.092,0,0,1,.185.132c.055.057.125.092.178.151a.146.146,0,0,0,.182.035c.215-.156-.012.01-.541.31-.01.006.02-.016.028-.025a.635.635,0,0,0,.067-.1.933.933,0,0,1,.138-.19c.391-.281.511-.389.872-.4a1.02,1.02,0,0,1,.291.028.269.269,0,0,0,.04,0,.14.14,0,0,0,.029-.016l.029-.015c-.184.108-.738.429-.555.319l.634-.378.036-.011c.078-.019,0,.008.07-.024.011-.005.044-.02.034-.014-.129.077-.793.46-.551.32a.375.375,0,0,0,.1-.181c.011-.082.036-.16.049-.241s.041-.157.053-.239.033-.161-.02-.215a.548.548,0,0,0-.217-.028l-.286,0a1.042,1.042,0,0,0-.283.027,1.983,1.983,0,0,1-.288.021c-.095,0-.191,0-.286,0a1.027,1.027,0,0,0-.282.027,2,2,0,0,1-.289.021c-.1,0-.191,0-.286,0s-.188.028-.283.039c-.133.007-.265.027-.4.04A.326.326,0,0,0,1.919,15l.555-.453h0a1.47,1.47,0,0,1,.2-.026c.133-.014.267-.033.4-.045a1.478,1.478,0,0,1,.289-.031c.095,0,.19,0,.284,0a1.912,1.912,0,0,0,.283-.029,1.4,1.4,0,0,1,.289-.017c.1,0,.19,0,.285,0a1.912,1.912,0,0,0,.283-.029,1.339,1.339,0,0,1,.29-.018c.095,0,.191,0,.287,0a.366.366,0,0,1,.252.077.354.354,0,0,1,.045.267.8.8,0,0,1-.051.241c-.01.083-.034.162-.047.244a.6.6,0,0,1-.08.222c-.182.262-.523.327-.794.46.192-.114.383-.23.575-.343.01-.006-.017.014-.026.019-.231.137-.466.416-.754.375A1.058,1.058,0,0,0,4.2,15.9c-.308.022-.607.264.354-.294a.312.312,0,0,0-.147.168c-.013.016-.087.138-.088.138-.581.376-.4.328-.679.395a.251.251,0,0,1-.221-.093c-.055-.053-.122-.091-.176-.146s-.126-.083-.184-.133a1.284,1.284,0,0,1-.183-.206,1.6,1.6,0,0,1-.112-.213,2.189,2.189,0,0,1-.141-.218,3.044,3.044,0,0,0-.22-.369l.609-.366Z" class="aw-theme-iconOutline" fill="#464646"/>
      <path id="path907-6" d="M3.624,15.759a2.7,2.7,0,0,1-.487-.57c-.236-.373-.237-.378-.1-.418.078-.022.608-.062,1.176-.089l1.034-.049-.037.378a1.368,1.368,0,0,1-.091.433,1.335,1.335,0,0,1-.4.123,1.86,1.86,0,0,0-.582.231,1.7,1.7,0,0,1-.254.158C3.878,15.954,3.759,15.865,3.624,15.759Z" class="aw-theme-iconOutline" fill="#464646"/>
    </g>
    <g id="g951">
      <path id="path905-7" d="M5.059,14.1c-.071-.108-.132-.222-.2-.333-.034-.07-.091-.124-.131-.191a1.267,1.267,0,0,0-.1-.188.9.9,0,0,0-.157-.169,1.1,1.1,0,0,1-.168-.117c-.05-.051-.114-.082-.162-.135a.136.136,0,0,0-.166-.031c-.2.139.011-.008.492-.275.01,0-.017.014-.025.022a.552.552,0,0,0-.061.085.87.87,0,0,1-.125.169c-.356.25-.466.346-.795.354A.988.988,0,0,1,3.2,13.27a.145.145,0,0,0-.036,0,.094.094,0,0,0-.026.014l-.027.013c.168-.095.672-.381.505-.283l-.577.336L3,13.361c-.072.018,0-.006-.064.022-.01.005-.041.018-.031.012.117-.068.722-.409.5-.284a.331.331,0,0,0-.09.161c-.01.072-.032.142-.045.214s-.037.14-.047.212-.031.144.017.192a.514.514,0,0,0,.2.024c.086,0,.173,0,.259,0a1.017,1.017,0,0,0,.258-.024,1.927,1.927,0,0,1,.263-.019h.26a.923.923,0,0,0,.257-.024A2.1,2.1,0,0,1,5,13.827c.087,0,.174,0,.261,0s.171-.026.257-.035c.122-.006.242-.024.362-.036a.3.3,0,0,0,.174-.045l-.506.4h0a1.342,1.342,0,0,1-.18.023c-.121.013-.243.029-.364.04a1.374,1.374,0,0,1-.263.028c-.086,0-.173,0-.259,0a1.848,1.848,0,0,0-.258.025,1.287,1.287,0,0,1-.263.016c-.087,0-.173,0-.26,0a1.85,1.85,0,0,0-.257.026,1.3,1.3,0,0,1-.264.016c-.087,0-.174,0-.262,0a.341.341,0,0,1-.23-.068.313.313,0,0,1-.04-.238A.683.683,0,0,1,2.7,13.77c.009-.074.031-.145.043-.218a.54.54,0,0,1,.073-.2c.166-.233.476-.291.723-.409-.175.1-.349.205-.524.306-.008,0,.016-.013.024-.018.211-.122.424-.369.686-.333a1.009,1.009,0,0,0,.257.013c.28-.019.552-.234-.322.261a.276.276,0,0,0,.133-.148c.012-.015.079-.123.08-.124.53-.334.365-.291.619-.351a.234.234,0,0,1,.2.083c.05.047.111.081.16.13s.115.074.168.118a1.118,1.118,0,0,1,.166.184,1.384,1.384,0,0,1,.1.189,1.806,1.806,0,0,1,.128.194,2.685,2.685,0,0,0,.2.328l-.555.325Z" class="aw-theme-iconOutline" fill="#464646"/>
      <path id="path907-1" d="M4.5,13.035a2.427,2.427,0,0,1,.443.507c.216.332.217.336.089.372-.071.02-.553.055-1.071.079l-.942.043.034-.335a1.16,1.16,0,0,1,.083-.385,1.217,1.217,0,0,1,.362-.11A1.709,1.709,0,0,0,4.031,13a1.631,1.631,0,0,1,.232-.141C4.272,12.862,4.38,12.941,4.5,13.035Z" class="aw-theme-iconOutline" fill="#464646"/>
    </g>
    <path id="rect851" d="M4.038,10.916h.17a.3.3,0,0,1,.3.3V17.7a.3.3,0,0,1-.3.3h-.17a.3.3,0,0,1-.305-.3V11.221A.3.3,0,0,1,4.038,10.916Z" class="aw-theme-iconOutline" fill="#464646"/>
    <path id="path903-6" d="M9.367.134a3.377,3.377,0,0,1-.134.821,2.993,2.993,0,0,0-.107.82.764.764,0,0,0,.135.431,3.335,3.335,0,0,0,.416.449c.067.077.177.131.216.231A.259.259,0,0,1,9.9,3c-.017.113-.052.221-.079.332a.632.632,0,0,1-.131.281,3.148,3.148,0,0,1-.209.238.739.739,0,0,0-.145.206.746.746,0,0,0-.047.238,1.817,1.817,0,0,0,.009.376,1.547,1.547,0,0,1,0,.34c0,.179-.005.359,0,.539a2.886,2.886,0,0,1-.013.405A.784.784,0,0,1,9.2,6.2a2.127,2.127,0,0,0-.107.256,2.806,2.806,0,0,0-.068.3,2.336,2.336,0,0,0-.053.321c0,.109.019.217.011.327a1.664,1.664,0,0,1-.051.3,2.166,2.166,0,0,0-.03.331c-.01.087-.046.168-.055.255a1.77,1.77,0,0,0,0,.206c.018.082.041.163.061.245.013.1.013.2.027.293,0,.065.018.128.024.193a.629.629,0,0,1,.01.2c0,.081,0,.161,0,.242a.105.105,0,0,0,.007.053l-.525-.1h0a.338.338,0,0,1,0-.065c0-.081,0-.163,0-.244a.849.849,0,0,0-.012-.188C8.426,9.064,8.413,9,8.41,8.936c-.009-.1-.009-.192-.025-.287a1.775,1.775,0,0,1-.062-.259,1.337,1.337,0,0,1,0-.21c.011-.086.043-.166.055-.251a2.778,2.778,0,0,1,.035-.34,1.866,1.866,0,0,0,.046-.3c.009-.109-.013-.217-.009-.326a2.412,2.412,0,0,1,.054-.328,2.514,2.514,0,0,1,.071-.309,1.922,1.922,0,0,1,.105-.263.683.683,0,0,0,.079-.223,2.786,2.786,0,0,0,.021-.4c0-.181,0-.363,0-.544a2.021,2.021,0,0,0,0-.33,2.175,2.175,0,0,1-.01-.387.779.779,0,0,1,.049-.254.723.723,0,0,1,.152-.224c.072-.076.144-.151.209-.232a.589.589,0,0,0,.124-.262,2.943,2.943,0,0,0,.077-.318.344.344,0,0,0,0-.046c-.021-.113-.156-.175-.221-.258a3.006,3.006,0,0,1-.419-.462.792.792,0,0,1-.127-.458A3.32,3.32,0,0,1,8.742.841,2.7,2.7,0,0,0,8.848.013Z" class="aw-theme-iconOutline" fill="#464646"/>
    <path id="rect871" d="M14.5,17H22v1H14.5Z" class="aw-theme-iconOutline" fill="#464646"/>
    <path id="rect871-6" d="M14.5,19H18v1H14.5Z" class="aw-theme-iconOutline" fill="#464646"/>
    <path id="rect871-6-1" d="M14.5,21H18v1H14.5Z" class="aw-theme-iconOutline" fill="#464646"/>
  </g>
</svg>
