<svg id="svg8" xmlns="http://www.w3.org/2000/svg" viewBox="0 0 24 24">
  <g id="g892">
    <path id="rect827" d="M14,21h8v1H14Z" class="aw-theme-iconOutline" fill="#464646"/>
    <path id="rect829-3" d="M21,15h1v6H21Z" class="aw-theme-iconOutline" fill="#464646"/>
    <path id="rect827-3" d="M14,14h8v1H14Z" class="aw-theme-iconOutline" fill="#464646"/>
    <path id="rect829-3-6" d="M14,15h1v6H14Z" class="aw-theme-iconOutline" fill="#464646"/>
    <path id="rect1002" d="M17.5,12h1v2.2h-1Z" class="aw-theme-iconOutline" fill="#464646"/>
    <path id="rect1002-2" d="M17.5,21.809h1V24h-1Z" class="aw-theme-iconOutline" fill="#464646"/>
    <path id="rect1002-2-0" d="M21.86,18.5v-1H24v1Z" class="aw-theme-iconOutline" fill="#464646"/>
    <path id="rect1002-2-0-8" d="M12,18.5v-1h2.14v1Z" class="aw-theme-iconOutline" fill="#464646"/>
    <path id="rect827-8" d="M2,21h8v1H2Z" class="aw-theme-iconOutline" fill="#464646"/>
    <path id="rect829-3-9" d="M9,15h1v6H9Z" class="aw-theme-iconOutline" fill="#464646"/>
    <path id="rect827-3-3" d="M2,14h8v1H2Z" class="aw-theme-iconOutline" fill="#464646"/>
    <path id="rect829-3-6-9" d="M2,15H3v6H2Z" class="aw-theme-iconOutline" fill="#464646"/>
    <path id="rect1002-5" d="M5.5,12h1v2.127h-1Z" class="aw-theme-iconOutline" fill="#464646"/>
    <path id="rect1002-2-4" d="M5.5,21.733h1V24h-1Z" class="aw-theme-iconOutline" fill="#464646"/>
    <path id="rect1002-2-0-2" d="M9.771,18.5v-1H12v1Z" class="aw-theme-iconOutline" fill="#464646"/>
    <path id="rect1002-2-0-8-4" d="M0,18.5v-1H2.343v1Z" class="aw-theme-iconOutline" fill="#464646"/>
    <path id="rect827-87" d="M14,9h8v1H14Z" class="aw-theme-iconOutline" fill="#464646"/>
    <path id="rect829-3-4" d="M21,3h1V9H21Z" class="aw-theme-iconOutline" fill="#464646"/>
    <path id="rect827-3-7" d="M14,2h8V3H14Z" class="aw-theme-iconOutline" fill="#464646"/>
    <path id="rect829-3-6-5" d="M14,3h1V9H14Z" class="aw-theme-iconOutline" fill="#464646"/>
    <path id="rect1002-56" d="M17.5,0h1V2.483h-1Z" class="aw-theme-iconOutline" fill="#464646"/>
    <path id="rect1002-2-1" d="M17.5,9.809h1V12h-1Z" class="aw-theme-iconOutline" fill="#464646"/>
    <path id="rect1002-2-0-88" d="M21.8,6.5v-1H24v1Z" class="aw-theme-iconOutline" fill="#464646"/>
    <path id="rect1002-2-0-8-2" d="M12,6.5v-1h2.254v1Z" class="aw-theme-iconOutline" fill="#464646"/>
    <path id="rect827-8-0" d="M2,9h8v1H2Z" class="aw-theme-iconOutline" fill="#464646"/>
    <path id="rect829-3-9-6" d="M9,3h1V9H9Z" class="aw-theme-iconOutline" fill="#464646"/>
    <path id="rect827-3-3-1" d="M2,2h8V3H2Z" class="aw-theme-iconOutline" fill="#464646"/>
    <path id="rect829-3-6-9-6" d="M2,3H3V9H2Z" class="aw-theme-iconOutline" fill="#464646"/>
    <path id="rect1002-5-0" d="M5.5,0h1V2.229h-1Z" class="aw-theme-iconOutline" fill="#464646"/>
    <path id="rect1002-2-4-5" d="M5.5,9.771h1V12h-1Z" class="aw-theme-iconOutline" fill="#464646"/>
    <path id="rect1002-2-0-2-6" d="M9.7,6.5v-1H12v1Z" class="aw-theme-iconOutline" fill="#464646"/>
    <path id="rect1002-2-0-8-4-4" d="M0,6.5v-1H2.369v1Z" class="aw-theme-iconOutline" fill="#464646"/>
  </g>
</svg>
