<svg id="Livello_1" data-name="Livello 1" xmlns="http://www.w3.org/2000/svg" viewBox="0 0 24 24">
  <g id="g845">
    <path id="polygon9" d="M6.136,12.773,1.657,10.409,6.793.753l4.485,2.368L10.124,5.239l-.866-.472.677-1.241L7.2,2.083,2.992,10l2.739,1.445L7.465,8.226l.868.467Z" class="aw-theme-iconOutline" fill="#464646"/>
    <path id="path11" d="M6.388,6.422a.229.229,0,0,1,0-.458,5.645,5.645,0,0,1,5.639,5.64c0,.139-.018.275-.027.413.141,0,.328-.17.566-.337s.383-.288.451-.328h0A6.425,6.425,0,0,0,6.388,4.978a1.215,1.215,0,0,0,0,2.43,4.2,4.2,0,0,1,3.551,6.434l-.119.176a4.273,4.273,0,0,0-.256.4l.862.477c.059-.105.135-.213.2-.313.053-.076.1-.148.143-.213A5.182,5.182,0,0,0,6.388,6.422Z" class="aw-theme-iconOutline" fill="#464646"/>
    <path id="polygon13" d="M10.136,3.083,9.272,2.61l.435-.794-.933-.491-.442.807-.865-.475L8.377,0l2.677,1.412Z" class="aw-theme-iconOutline" fill="#464646"/>
    <path id="polygon15" d="M4.975,13.889,1.4,12l.945-1.788.872.46-.484.917,1.835.968.483-.916.873.46Z" class="aw-theme-iconOutline" fill="#464646"/>
    <path id="rect17" d="M.444,12.393l4.678,2.356-.444.88L0,13.274Z" class="aw-theme-iconOutline" fill="#464646"/>
    <path id="polygon19" d="M10.412,15.8H7.124v-.455h3.144l.5-.977-4.517-.01v2.428h3.778Z" class="aw-theme-iconOutline" fill="#464646"/>
    <path id="path824" d="M17.6,16.943s-.034-.214-.074-.469c-.066-.413-.072-.465-.054-.473s.307-.052.656-.105c.73-.111.708-.107.7-.122s-.075-.066-.158-.133a3.668,3.668,0,0,0-1.785-.846,2.119,2.119,0,0,0-.821.076,2.453,2.453,0,0,0-.509.265,3.189,3.189,0,0,0-.9,1.115c-.04.077-.075.142-.077.145s-.827-.431-.853-.449c0,0,.044-.074.257-.4a3.481,3.481,0,0,1,1.58-1.539,3.548,3.548,0,0,1,.8-.184,2.709,2.709,0,0,1,.693.013,5.155,5.155,0,0,1,2.084,1.014.733.733,0,0,0,.169.107c0-.008-.04-.289-.092-.625s-.092-.612-.089-.615.216-.038.473-.077l.467-.072.226,1.461c.124.8.224,1.463.222,1.465s-.644.1-1.427.221-1.439.222-1.458.226a.093.093,0,0,1-.036,0Z" class="aw-theme-iconOutline" fill="#464646"/>
    <path id="path3-5" d="M17.5,24a6.487,6.487,0,1,1,.026,0H17.5m0-12A5.5,5.5,0,1,0,23,17.5,5.5,5.5,0,0,0,17.5,12" class="aw-theme-iconOutline" fill="#464646"/>
    <path id="circle5-7" d="M17,19.251A1.75,1.75,0,1,1,15.251,17.5h0A1.75,1.75,0,0,1,17,19.251Z" class="aw-theme-iconOutline" fill="#464646"/>
    <path id="circle5-4" d="M19.762,17.508a1.76,1.76,0,1,0,.024,0Zm.012,1h.01a.75.75,0,0,1,.75.75h0a.75.75,0,1,1-.76-.75Z" class="aw-theme-iconOutline" fill="#464646"/>
  </g>
</svg>
