<svg id="svg8" xmlns="http://www.w3.org/2000/svg" viewBox="0 0 24 24">
  <g id="g906">
    <path id="rect827" d="M16.292,21.935h6.69v1h-6.69Z" class="aw-theme-iconOutline" fill="#464646"/>
    <path id="rect829-3" d="M22.026,16.647h.956v5.432h-.956Z" class="aw-theme-iconOutline" fill="#464646"/>
    <path id="rect827-3" d="M16.292,15.935h6.69v1h-6.69Z" class="aw-theme-iconOutline" fill="#464646"/>
    <path id="rect829-3-6" d="M16.292,16.791h.956V22.33h-.956Z" class="aw-theme-iconOutline" fill="#464646"/>
    <path id="rect1002" d="M19.159,14.919h.956v1.219h-.956Z" class="aw-theme-iconOutline" fill="#464646"/>
    <path id="rect1002-2" d="M19.159,22.6h.956V24h-.956Z" class="aw-theme-iconOutline" fill="#464646"/>
    <path id="rect1002-2-0" d="M22.573,19.935v-1H24v1Z" class="aw-theme-iconOutline" fill="#464646"/>
    <path id="rect1002-2-0-8" d="M15.279,19.935v-1h1.146v1Z" class="aw-theme-iconOutline" fill="#464646"/>
    <path id="rect827-9" d="M8.646,15.935h6.69v1H8.646Z" class="aw-theme-iconOutline" fill="#464646"/>
    <path id="rect829-3-2" d="M14.38,10.611h.956v5.576H14.38Z" class="aw-theme-iconOutline" fill="#464646"/>
    <path id="rect827-3-8" d="M8.646,9.935h6.69v1H8.646Z" class="aw-theme-iconOutline" fill="#464646"/>
    <path id="rect829-3-6-0" d="M8.646,10.539H9.6v5.612H8.646Z" class="aw-theme-iconOutline" fill="#464646"/>
    <path id="rect1002-23" d="M11.513,8.9h.956v1.242h-.956Z" class="aw-theme-iconOutline" fill="#464646"/>
    <path id="rect1002-2-03" d="M11.513,16.744h.956v1.2h-.956Z" class="aw-theme-iconOutline" fill="#464646"/>
    <path id="rect1002-2-0-3" d="M15.2,13.935v-1h1.147v1Z" class="aw-theme-iconOutline" fill="#464646"/>
    <path id="rect1002-2-0-8-0" d="M7.633,13.935v-1H8.78v1Z" class="aw-theme-iconOutline" fill="#464646"/>
    <path id="rect827-9-6" d="M1,9.935H7.69v1H1Z" class="aw-theme-iconOutline" fill="#464646"/>
    <path id="rect829-3-2-0" d="M6.734,4.539H7.69V10.33H6.734Z" class="aw-theme-iconOutline" fill="#464646"/>
    <path id="rect827-3-8-5" d="M1,3.935H7.69v1H1Z" class="aw-theme-iconOutline" fill="#464646"/>
    <path id="rect829-3-6-0-3" d="M1,4.719h.956v5.539H1Z" class="aw-theme-iconOutline" fill="#464646"/>
    <path id="rect1002-23-2" d="M3.867,2.906h.956V4.138H3.867Z" class="aw-theme-iconOutline" fill="#464646"/>
    <path id="rect1002-2-03-8" d="M3.867,10.744h.956v1.185H3.867Z" class="aw-theme-iconOutline" fill="#464646"/>
    <path id="rect1002-2-0-3-1" d="M7.557,7.935v-1H8.705v1Z" class="aw-theme-iconOutline" fill="#464646"/>
    <path id="path4-4-4-6-7-6" d="M22.305,4.074,20.148,1.9,20.126,12H19.1V1.945L17.027,4.074l-.731-.69L19.148.371c.108-.106.344-.343.56-.343a.625.625,0,0,1,.419.284L23.06,3.384Z" class="aw-theme-iconOutline" fill="#464646" opacity="0.98" style="isolation: isolate"/>
    <path id="path4-4-4-6-7-6-0" d="M14.643,4.1l-2.2-2.176L12.421,6h-.948V1.971L9.359,4.1l-.746-.69L11.522.4c.11-.106.25-.343.47-.343a.635.635,0,0,1,.43.284L15.413,3.41Z" class="aw-theme-iconOutline" fill="#464646"/>
    <path id="rect1002-2-0-84" d="M0,7.884v-1H1.427v1Z" class="aw-theme-iconOutline" fill="#464646"/>
  </g>
</svg>
