<svg id="Layer_1" data-name="Layer 1" xmlns="http://www.w3.org/2000/svg" viewBox="0 0 24 24">
  <g id="g830">
    <path id="path827" d="M2,0V24H22V5.986L15.324.01H14.209ZM3,1H14.323V7H21V23H3Zm12.323.4,5.162,4.605L15.322,6Z" class="aw-theme-iconOutline" fill="#464646"/>
    <path id="rect827" d="M6,19H17v1H6Z" class="aw-theme-iconOutline" fill="#464646"/>
    <path id="rect829-3" d="M16,9h1V20H16Z" class="aw-theme-iconOutline" fill="#464646"/>
    <path id="rect827-3" d="M6,9H17v1H6Z" class="aw-theme-iconOutline" fill="#464646"/>
    <path id="rect829-3-6" d="M6,9H7V20H6Z" class="aw-theme-iconOutline" fill="#464646"/>
    <path id="rect1002" d="M11,7h1V9.641H11Z" class="aw-theme-iconOutline" fill="#464646"/>
    <path id="rect1002-2-0" d="M16.344,15V14h2.687v1Z" class="aw-theme-iconOutline" fill="#464646"/>
    <path id="rect1002-2-0-8" d="M4,15V14H6.828v1Z" class="aw-theme-iconOutline" fill="#464646"/>
    <path id="rect1002-9" d="M11,19.607h1V22H11Z" class="aw-theme-iconOutline" fill="#464646"/>
  </g>
</svg>
