<svg id="Layer_1" data-name="Layer 1" xmlns="http://www.w3.org/2000/svg" viewBox="0 0 24 24">
  <g id="g870">
    <path id="path865" d="M10.5,23.967a.5.5,0,0,1-.268-.232c-.041-.087-.041-.095.013-.283.112-.391,1.011-3.055,1.2-3.549.071-.187.009-.124,2.708-2.754,4.69-4.571,6.3-6.107,6.652-6.359a1.13,1.13,0,0,1,.247-.1,1.066,1.066,0,0,1,.431-.043.73.73,0,0,1,.4.084,4.114,4.114,0,0,1,.894.721,6.992,6.992,0,0,1,1.123,1.2,1.632,1.632,0,0,1,.127.559,1.438,1.438,0,0,1-.139.566,5.187,5.187,0,0,1-.8.861c-1,.989-3.109,3.041-6.632,6.447l-1.66,1.6-1.467.486C10.9,23.973,10.7,24.03,10.5,23.967Zm1.57-1.3c.848-.257,1.4-.432,1.42-.455a16.255,16.255,0,0,0-1.31-1.317,5.873,5.873,0,0,0-.464,1.245c-.114.348-.212.648-.219.665s-.006.031,0,.031S11.766,22.763,12.074,22.67ZM14.666,21.5l.782-.749c1.625-1.552,6.138-5.923,6.138-5.944,0-.04-1.578-1.551-1.751-1.677l-.061-.044-.43.411c-1.544,1.471-4.761,4.588-6.18,5.985L12.641,20l.879.869c.484.477.885.868.891.868S14.532,21.631,14.666,21.5Zm8.109-7.848a2.045,2.045,0,0,0,.272-.328c.031-.074.029-.089-.024-.191a12.591,12.591,0,0,0-1.3-1.32c-.218-.178-.247-.2-.32-.184a.624.624,0,0,0-.2.106,8.07,8.07,0,0,0-.711.654c0,.011.4.407.892.882l.892.862.134-.116C22.475,13.954,22.643,13.79,22.775,13.653Z" class="aw-theme-iconOutline" fill="#464646"/>
    <path id="path856" d="M6.061,0,0,6V21H9.359l1.084-1.014H.951V7H7V1.014H23V8.962l1,.746V0H6.061ZM6,6l-4.6.024L6,1.5Z" class="aw-theme-iconOutline" fill="#464646"/>
    <path id="path825-1" d="M16.875,4.035v6.111l-7.539-2.6v2.2l7.539,2.576v.641L2,7.842v2.191l7.336,2.53V13.2l-7.33-2.523V19H9.979l.982-.971H2.914V12l7.332,2.522V11.854L2.9,9.334V9.178l13.219,4.558,1.656-1.613v-.494l-7.533-2.58v-.17l7.541,2.6L17.779,5h1.393v5.982l.9-.894V4.035Z" class="aw-theme-iconOutline" fill="#464646"/>
  </g>
</svg>
