<svg id="Layer_1" data-name="Layer 1" xmlns="http://www.w3.org/2000/svg" viewBox="0 0 24 24">
  <g id="g864">
    <path id="path1052-2-1-5" d="M6.242,11.667a1.249,1.249,0,0,0-1.25,1.25h0a1.25,1.25,0,0,0,1.25,1.25h0a1.25,1.25,0,0,0,0-2.5Zm0,.833a.417.417,0,1,1-.417.417.417.417,0,0,1,.417-.417Z" class="aw-theme-iconOutline" fill="#464646"/>
    <path id="rect1193" d="M7.083,12.5H13v.833H7.083Z" class="aw-theme-iconOutline" fill="#464646"/>
    <path id="rect1193-3" d="M3.828,15.862H9.675V16.7H3.828Z" class="aw-theme-iconOutline" fill="#464646"/>
    <path id="path1052-2-3-2" d="M10.445,14.958a1.25,1.25,0,1,0,1.25,1.25A1.25,1.25,0,0,0,10.445,14.958Zm0,.833a.417.417,0,1,1-.417.417.417.417,0,0,1,.417-.417Z" class="aw-theme-iconOutline" fill="#464646"/>
    <path id="path1052-2-3-8" d="M2.987,15.028a1.25,1.25,0,1,0,1.251,1.25h0A1.251,1.251,0,0,0,2.987,15.028Zm0,.834a.417.417,0,1,1-.416.416.416.416,0,0,1,.416-.416Z" class="aw-theme-iconOutline" fill="#464646"/>
    <path id="rect924-0" d="M2.5,0V1.667H0V7.234H.833C.845,5.656.855,4.078.833,2.5h2.5V.833H19.167V10H20V0Z" class="aw-theme-iconOutline" fill="#464646"/>
    <path id="rect851" d="M0,5.311H.833V20H0Z" class="aw-theme-iconOutline" fill="#464646"/>
    <path id="rect851-5" d="M13,19.167V20H0v-.833Z" class="aw-theme-iconOutline" fill="#464646"/>
    <path id="rect958-9" d="M6.667,2.284H7.5v7.86H6.667Z" class="aw-theme-iconOutline" fill="#464646"/>
    <path id="rect960-8" d="M6.667,1.667h7.5V2.5h-7.5Z" class="aw-theme-iconOutline" fill="#464646"/>
    <path id="rect960-0-7" d="M6.667,10h7.5v.833h-7.5Z" class="aw-theme-iconOutline" fill="#464646"/>
    <path id="rect958-3-9" d="M13.333,2.32h.834v7.932h-.834Z" class="aw-theme-iconOutline" fill="#464646"/>
    <path id="path1052-7" d="M17.083,1.667a1.25,1.25,0,1,0,1.25,1.25A1.25,1.25,0,0,0,17.083,1.667Zm0,.833a.417.417,0,1,1-.416.417h0A.417.417,0,0,1,17.083,2.5Z" class="aw-theme-iconOutline" fill="#464646"/>
    <path id="path1052-2-1-1" d="M2.917,6.667a1.25,1.25,0,1,0,1.25,1.25h0A1.25,1.25,0,0,0,2.917,6.667Zm0,.833a.417.417,0,1,1-.417.417h0A.417.417,0,0,1,2.917,7.5Z" class="aw-theme-iconOutline" fill="#464646"/>
    <path id="path1052-2-1-8-7" d="M3.75,3.333A1.25,1.25,0,0,0,2.5,4.583h0a1.25,1.25,0,0,0,1.25,1.25h0a1.25,1.25,0,0,0,0-2.5Zm0,.834a.417.417,0,1,1-.417.416h0a.417.417,0,0,1,.417-.416Z" class="aw-theme-iconOutline" fill="#464646"/>
    <path id="rect845" d="M4.583,4.167H6.75V5H4.583Z" class="aw-theme-iconOutline" fill="#464646"/>
    <path id="rect847" d="M3.75,7.5H6.667v.833H3.75Z" class="aw-theme-iconOutline" fill="#464646"/>
    <path id="path851" d="M16.061,9.219l-.449-.471-.393-.417H14.167V7.487h.63c.694,0,.674,0,.766.045a.451.451,0,0,1,.088.062c.023.022.224.229.446.462s.408.428.416.435.05.05.1.1l.083.088-.27.283-.287.3-.017.017Z" class="aw-theme-iconOutline" fill="#464646"/>
    <path id="path851-1" d="M15.972,3.268l-.449.472-.393.417H14.078V5h.631c.693,0,.673,0,.766-.045a.451.451,0,0,0,.088-.062c.023-.021.223-.23.444-.462S16.416,4,16.424,4l.1-.1.083-.083-.27-.288-.286-.3-.017-.018Z" class="aw-theme-iconOutline" fill="#464646"/>
    <path id="rect904" d="M5.833,3.382H7.5v2.5H5.833Z" class="aw-theme-iconOutline" fill="#464646"/>
    <path id="rect904-4" d="M13.333,3.333H15v2.5H13.333Z" class="aw-theme-iconOutline" fill="#464646"/>
    <path id="rect904-6" d="M13.333,6.667H15v2.5H13.333Z" class="aw-theme-iconOutline" fill="#464646"/>
    <path id="rect859" d="M10,2.5h.833v.833H10Z" class="aw-theme-iconOutline" fill="#464646"/>
    <path id="rect904-2" d="M5.841,6.716H7.508v2.5H5.841Z" class="aw-theme-iconOutline" fill="#464646"/>
    <path id="path823" d="M20.326,18.008H12.033v-1h8.293L17.18,13.861l.707-.707,4,4a.5.5,0,0,1,0,.707l-4,4-.707-.707Z" class="aw-theme-iconOutline" fill="#464646"/>
    <path id="path821" d="M24.033,11.016V24h-10V19.672h1v3.462h8V11.881h-8v3.463h-1V11.016Z" class="aw-theme-iconOutline" fill="#464646"/>
  </g>
</svg>
