<svg id="Layer_1" data-name="Layer 1" xmlns="http://www.w3.org/2000/svg" viewBox="0 0 16 16">
  <g id="g815">
    <path id="path849" d="M3.035,15.942c.042-.132,1.7-6.053,1.69-6.057s-.872-.7-1.931-1.564L.433,6.409,0,6H.421c.232-.008,1.573.01,2.98,0,1.836-.013,2.565-.016,2.58-.035S7.534,1.1,7.975.151L8.025,0l.982,3.011L10,6.022,12.975,6h3l-2.4,1.985c-1.309,1.083-2.4,1.965-2.4,1.983s.406,1.373.9,3.009S12.99,16,12.985,16s-2.323-1.681-5-3.6l-.062-.044L5.538,14.13,3.086,15.95,3.017,16Zm7.572-4.416c-.569-1.874-.582-1.921-.537-1.963.025-.024.728-.6,1.562-1.277S13.153,7.012,13.158,7s-.8,0-1.956,0H9.238l-.117-.358C8.3,4.056,8,3.2,7.99,3.2S7.7,4.055,7.346,5.1L6.7,7H5.611c-.6,0-1.478-.008-1.961,0H2.772L4.287,8.25,5.834,9.5a14.269,14.269,0,0,1-.511,1.971c-.3,1.071-.541,1.951-.536,1.956s.709-.511,1.566-1.146l1.556-1.156,1.633,1.166c.9.642,1.636,1.163,1.64,1.159S10.927,12.581,10.607,11.526Z" fill="#464646"/>
  </g>
</svg>
