<svg id="Livello_3" data-name="Livello 3" xmlns="http://www.w3.org/2000/svg" viewBox="0 0 24 24">
  <g id="g840">
    <path id="rect827" d="M3,16h7v1H3Z" class="aw-theme-iconOutline" fill="#464646"/>
    <path id="rect829-3" d="M16,3h1v7.5H16Z" class="aw-theme-iconOutline" fill="#464646"/>
    <path id="rect827-3" d="M3,3H17V4H3Z" class="aw-theme-iconOutline" fill="#464646"/>
    <path id="rect829-3-6" d="M3,3H4V17H3Z" class="aw-theme-iconOutline" fill="#464646"/>
    <path id="rect1002" d="M9.5,0h1V3.144h-1Z" class="aw-theme-iconOutline" fill="#464646"/>
    <path id="rect1002-2-0" d="M16.676,10.5v-1H20v1Z" class="aw-theme-iconOutline" fill="#464646"/>
    <path id="rect1002-2-0-8" d="M0,10.5v-1H3.252v1Z" class="aw-theme-iconOutline" fill="#464646"/>
    <path id="path2-4" d="M17.5,24A6.5,6.5,0,1,1,24,17.5,6.5,6.5,0,0,1,17.5,24Zm0-12A5.5,5.5,0,1,0,23,17.5,5.5,5.5,0,0,0,17.5,12Z" class="aw-theme-iconOutline" fill="#464646"/>
    <path id="rect851" d="M16.5,13.034h2l-.466,6.517H17Z" class="aw-theme-iconOutline" fill="#464646"/>
    <path id="path854" d="M18.407,21.127a.871.871,0,0,1-.877.865h0a.87.87,0,0,1-.877-.865h0a.87.87,0,0,1,.877-.864h0a.871.871,0,0,1,.877.864Z" class="aw-theme-iconOutline" fill="#464646"/>
    <path id="rect1002-1" d="M9,16.712h1V20H9Z" class="aw-theme-iconOutline" fill="#464646"/>
  </g>
</svg>
