<svg id="Layer_1" data-name="Layer 1" xmlns="http://www.w3.org/2000/svg" viewBox="0 0 24 24">
  <g id="g879">
    <path id="path2-6" d="M17.5,24A6.5,6.5,0,1,1,24,17.5,6.5,6.5,0,0,1,17.5,24Zm0-12A5.5,5.5,0,1,0,23,17.5,5.5,5.5,0,0,0,17.5,12Z" class="aw-theme-iconOutline" fill="#464646"/>
    <path id="polygon4" d="M14,17.005v1l3,0v3h1V18l3,0V17l-3,0V14H17v3Z" class="aw-theme-iconOutline" fill="#464646"/>
    <path id="path2-64" d="M8.031,3.066v4.3H9.593v3.813a5.5,5.5,0,0,0,.781.051V10.205h2.342v.389a4.786,4.786,0,0,0,.782-.565V8.484H14.66a5.277,5.277,0,0,0,.322-.859H12.716V9.346H10.374V7.365h1.561v-4.3Zm.781.86h2.342v2.58H8.812Z" class="aw-theme-iconOutline" fill="#464646"/>
    <g id="g864">
      <path id="path4-52" d="M5,6.325a5.422,5.422,0,1,1,9.871,3.1l.684.477a6.263,6.263,0,1,0-10.5-.38L.445,14.1a1.552,1.552,0,0,0,2.2,2.2L7.24,11.7a6.13,6.13,0,0,0,2.217.8l.126-.824A5.456,5.456,0,0,1,5,6.325ZM2.05,15.707a.718.718,0,0,1-1.016-1.015l4.5-4.479a6.356,6.356,0,0,0,1,1.007Z" class="aw-theme-iconOutline" fill="#464646"/>
      <path id="path4-52-8" d="M10.409,11.74a5.422,5.422,0,1,0-3.1-9.871l-.477-.684a6.263,6.263,0,1,1,.379,10.5L2.632,16.29A1.552,1.552,0,0,1,.437,14.1l4.594-4.6a6.132,6.132,0,0,1-.8-2.216l.824-.127A5.456,5.456,0,0,0,10.409,11.74ZM1.027,14.685A.718.718,0,0,0,2.041,15.7l4.48-4.5a6.356,6.356,0,0,1-1.007-1Z" class="aw-theme-iconOutline" fill="#464646"/>
    </g>
  </g>
</svg>
