<svg id="Image" xmlns="http://www.w3.org/2000/svg" viewBox="0 0 24 24">
  <g id="g851">
    <path id="path843" d="M15.382.035a2.756,2.756,0,0,0-2.159,1,1.16,1.16,0,0,1-1.3.066,2.45,2.45,0,0,0-2.928.1c-.419.34-.536.294-.965.12a4.218,4.218,0,0,0-.72-.238,2.355,2.355,0,0,0-1.911.44,2.088,2.088,0,0,0-.785,1.677A2.169,2.169,0,0,0,5.637,5a2.105,2.105,0,0,0,1.879.21c.165-.073.313-.151.45-.225.461-.247.57-.307,1.082.107a2.393,2.393,0,0,0,3.238-.33.63.63,0,0,1,.468-.235.9.9,0,0,1,.668.248,2.486,2.486,0,0,0,2,.8,2.879,2.879,0,0,0,1.644-.554,1.512,1.512,0,0,1,1,1.287l.069.39h1.857L20,6.235a4.446,4.446,0,0,0-1.855-3.349,3.5,3.5,0,0,0-.265-1.319,2.872,2.872,0,0,0-2.5-1.532Zm.043.943A1.763,1.763,0,0,1,15.6.994a1.744,1.744,0,0,1,1.405.935A2.72,2.72,0,0,1,17.2,3.122l-.015.3.265.14A3.492,3.492,0,0,1,19,5.751h-.086a2.179,2.179,0,0,0-1.983-1.688h-.159l-.125.094a2.086,2.086,0,0,1-1.209.471A1.548,1.548,0,0,1,14.1,4.107a1.86,1.86,0,0,0-1.4-.523,1.579,1.579,0,0,0-1.152.587,1.421,1.421,0,0,1-1.885.19,1.621,1.621,0,0,0-2.145-.2c-.115.062-.239.127-.377.187A1.14,1.14,0,0,1,6.15,4.2,1.193,1.193,0,0,1,5.568,3.19a1.125,1.125,0,0,1,.424-.926A1.4,1.4,0,0,1,7.1,2.008,3.341,3.341,0,0,1,7.66,2.2,1.62,1.62,0,0,0,9.6,1.929,1.506,1.506,0,0,1,11.414,1.9a2.1,2.1,0,0,0,2.505-.219A1.8,1.8,0,0,1,15.425.978Z" class="aw-theme-iconOutline" fill="#464646"/>
    <path id="rect2" d="M10.98,21.96h5v1h-5Z" class="aw-theme-iconOutline" fill="#464646"/>
    <path id="rect4" d="M21.98,21.96h2v1h-2Z" class="aw-theme-iconOutline" fill="#464646"/>
    <path id="path6" d="M19.98,23.96h-2a1,1,0,0,1-1-1v-1a1,1,0,0,1,1-1h2a1,1,0,0,1,1,1v1A1,1,0,0,1,19.98,23.96Zm-2-2v1h2v-1Z" class="aw-theme-iconOutline" fill="#464646"/>
    <path id="polygon8" d="M20.686,18.992l.92-2.284-.389-.387-2.3.914L18,14.96H16.96l-.916,2.275-2.3-.914-.389.387.92,2.284L11.98,19.9V20.96h-1V19.224l1.991-.79-.793-1.969L13.5,15.15l1.986.788.8-1.978h2.39l.8,1.978,1.986-.788,1.324,1.315-.793,1.969,1.991.79V20.96h-1V19.9Z" class="aw-theme-iconOutline" fill="#464646"/>
    <path id="path826" d="M17,7v4.976l.078,0a8.356,8.356,0,0,1,.975.063V7.98h1.613v4.408a8.328,8.328,0,0,1,1.053.418V7Z" class="aw-theme-iconOutline" fill="#464646"/>
    <path id="path824" d="M8.2,9.831v2.324l4.626,1.491a8.154,8.154,0,0,1,.924-.792L9.3,11.413v-.18L13.929,12.7a8.332,8.332,0,0,1,1.23-.7Z" class="aw-theme-iconOutline" fill="#464646"/>
    <path id="path825" d="M0,10.241V12.55l8.9,2.66v.669L.009,13.22V22H9V20.981H1.109V14.619l8.884,2.657,0-.022V14.468L1.1,11.811v-.165l10.3,3.068a7.687,7.687,0,0,1,.646-.884Z" class="aw-theme-iconOutline" fill="#464646"/>
  </g>
</svg>
