<svg id="Layer_1" data-name="Layer 1" xmlns="http://www.w3.org/2000/svg" viewBox="0 0 24 24">
  <g id="g845">
    <g id="g843">
      <path id="path829" d="M1.612,21.2c-.224-.055-.556-.142-.737-.194l-.331-.095-.013-2.1c-.007-1.151,0-2.093.016-2.093s.345.183.731.407c.979.567,1.234.591,1.5.139a12.346,12.346,0,0,0,.74-3.4c.2-1.247.358-2.294.358-2.326s-.139-.059-.433-.059H3.01V7.671H4.465l.09-.877a7.556,7.556,0,0,1,.327-1.819A4.415,4.415,0,0,1,7.434,2.318a4.67,4.67,0,0,1,1.805-.3,5.154,5.154,0,0,1,1.742.263l.368.112V4.422c0,1.116-.011,2.029-.026,2.029s-.283-.117-.6-.26A3.659,3.659,0,0,0,9.4,5.74c-.47,0-.605.209-.716,1.1-.117.934-.184.834.559.834h.636v3.814H8.017l-.4,2.58c-.219,1.42-.465,2.839-.545,3.155a5.876,5.876,0,0,1-1.39,2.693,4.373,4.373,0,0,1-2.036,1.262A5.5,5.5,0,0,1,1.612,21.2Zm1.719-.8a4.076,4.076,0,0,0,2.848-3,26.177,26.177,0,0,0,.69-3.869L7.312,10.7l.862-.026.862-.025V8.51L8.362,8.5c-.647-.014-.674-.019-.674-.121a22.561,22.561,0,0,1,.353-2.537A1.311,1.311,0,0,1,8.667,5.1a1.13,1.13,0,0,1,.75-.145,1.89,1.89,0,0,1,.763.114,2.35,2.35,0,0,0,.318.112,8.05,8.05,0,0,0,.038-1.087V3.006l-.221-.061a5.27,5.27,0,0,0-1.534-.1A3.516,3.516,0,0,0,5.606,5.408c-.084.271-.4,2.636-.409,3.039a3.16,3.16,0,0,1-.687.038H3.824v2.186h.508a2.625,2.625,0,0,1,.509.025c0,.013-.208,1.335-.461,2.936-.494,3.123-.6,3.575-.941,4.094a1.5,1.5,0,0,1-.805.629A1.846,1.846,0,0,1,1.6,18.248a2.554,2.554,0,0,0-.25-.1c-.01,0-.019.479-.019,1.066v1.065l.191.05c.1.027.271.072.369.1A4.221,4.221,0,0,0,3.331,20.4Z" class="aw-theme-iconOutline" fill="#464646"/>
      <path id="path841" d="M14.15,20H13.01a9.982,9.982,0,0,1-2.422-6.82A10.36,10.36,0,0,1,13.01,6.25h1.156a10.531,10.531,0,0,0-2.453,6.914A10.345,10.345,0,0,0,14.15,20Z" class="aw-theme-iconOutline" fill="#464646"/>
      <path id="path844" d="M21.507,20H20.366A10.346,10.346,0,0,0,22.8,13.164,10.526,10.526,0,0,0,20.35,6.25h1.157a10.32,10.32,0,0,1,2.437,6.93A9.945,9.945,0,0,1,21.507,20Z" class="aw-theme-iconOutline" fill="#464646"/>
      <path id="rect827" d="M13.287,15.926h8v1h-8Z" class="aw-theme-iconOutline" fill="#464646"/>
      <path id="rect829-3" d="M20.287,9.459h1v6.934h-1Z" class="aw-theme-iconOutline" fill="#464646"/>
      <path id="rect827-3" d="M13.287,8.926h8v1h-8Z" class="aw-theme-iconOutline" fill="#464646"/>
      <path id="rect829-3-6" d="M13.287,9.71h1v6.611h-1Z" class="aw-theme-iconOutline" fill="#464646"/>
      <path id="rect1002" d="M16.787,6.926h1v2.18h-1Z" class="aw-theme-iconOutline" fill="#464646"/>
      <path id="rect1002-2" d="M16.787,16.387h1v2.539h-1Z" class="aw-theme-iconOutline" fill="#464646"/>
      <path id="rect1002-2-0" d="M21,13.426v-1h1.287v1Z" class="aw-theme-iconOutline" fill="#464646"/>
      <path id="rect1002-2-0-8" d="M12.287,13.426v-1h1.395v1Z" class="aw-theme-iconOutline" fill="#464646"/>
    </g>
  </g>
</svg>
