<svg id="Image" xmlns="http://www.w3.org/2000/svg" viewBox="0 0 24 24">
  <g id="g818">
    <path id="path2" d="M.412.008A.4.4,0,0,0,0,.385v9.689a.4.4,0,0,0,.412.377c4.345,0,8.213.876,8.213,1.567a.377.377,0,0,0,.291.353.43.43,0,0,0,.193.051.4.4,0,0,0,.414-.377c0-.282.654-.6,1.715-.867a11.2,11.2,0,0,0,.7,1.3,7.661,7.661,0,0,1,.579-.575A10.052,10.052,0,0,1,12.045,11c-.106-.23-.208-.462-.3-.7v-.006l-.17-.439a.309.309,0,0,1,.141-.434.368.368,0,0,1,.267-.025.354.354,0,0,1,.219.168l.385.576H12.6a.35.35,0,0,0,.064.1.308.308,0,0,0,.057.057.377.377,0,0,0,.064.039.438.438,0,0,0,.07.031.469.469,0,0,0,.082.014.5.5,0,0,0,.077,0,.469.469,0,0,0,.082-.014.4.4,0,0,0,.076-.027.423.423,0,0,0,.062-.037.354.354,0,0,0,.063-.053.4.4,0,0,0,.043-.058.441.441,0,0,0,.033-.065.376.376,0,0,0,.016-.074v-.031h0V6.166a.315.315,0,0,1,.192-.281.358.358,0,0,1,.158-.039.386.386,0,0,1,.049.009.33.33,0,0,1,.3.311V9.232a.415.415,0,0,0,.826,0c-.028-.344.555-.344.527,0V9.7a.338.338,0,0,0,.026.112.414.414,0,0,0,.787-.045.378.378,0,0,0,.013-.067V9.5a.257.257,0,0,1,.264-.24.253.253,0,0,1,.264.23c-.006.095-.006.179-.006.254a2.942,2.942,0,0,0,.008.3,7.658,7.658,0,0,1,.83-.033.24.24,0,0,1,.1-.149.293.293,0,0,1,.231-.044.261.261,0,0,1,.181.224,7.648,7.648,0,0,1,.84.119v-.074a1.032,1.032,0,0,0-.83-1.008h-.013V.412A.4.4,0,0,0,17.73.035c-2.007,0-7.191.316-8.642,1.6C7.683.328,2.435.008.412.008ZM.826.764c4.174.053,7.8.9,7.8,1.564v8.651C6.889,10.027,2.856,9.735.826,9.7Zm16.5.029V8.811a1.121,1.121,0,0,0-.777-.311,1.137,1.137,0,0,0-.508.131,1.1,1.1,0,0,0-1.109-.363V6.49a3.436,3.436,0,0,0-.1-.748,1.2,1.2,0,0,0-2.25.348c-.007.346,0,.425-.008.787V8.834a1.194,1.194,0,0,0-.357-.168,1.275,1.275,0,0,0-.895.086,1.092,1.092,0,0,0-.562.641.926.926,0,0,0,.068.757l.121.329a6.588,6.588,0,0,0-1.42.531V2.357C9.527,1.689,13.15.846,17.324.793ZM2.035,1.621a.376.376,0,1,0,.016.752c4.014,0,5.216,1.153,5.244,1.18a.425.425,0,0,0,.312.129.375.375,0,0,0,.317-.619C7.869,3,6.54,1.621,2.051,1.621Zm14.2,0c-4.489,0-5.818,1.383-5.873,1.442a.374.374,0,0,0,.317.615.43.43,0,0,0,.31-.127c.012-.01,1.2-1.178,5.246-1.178A.376.376,0,1,0,16.232,1.621Zm0,2.031c-4.489,0-5.818,1.382-5.873,1.442a.374.374,0,0,0,.317.617.428.428,0,0,0,.31-.129c.012-.011,1.2-1.176,5.246-1.176A.379.379,0,1,0,16.232,3.652ZM2.051,3.658a.376.376,0,1,0,0,.752c4.015,0,5.216,1.151,5.244,1.178.359.382.987-.108.629-.49C7.869,5.038,6.54,3.658,2.051,3.658Zm0,2.031a.379.379,0,1,0,0,.754c4.014,0,5.216,1.151,5.244,1.178.359.382.987-.108.629-.49C7.869,7.074,6.54,5.693,2.051,5.693Zm0,2.038a.378.378,0,1,0,0,.753A16.38,16.38,0,0,1,4.5,8.648a.4.4,0,0,0,.068.006.376.376,0,1,0,.069-.748v0A17.149,17.149,0,0,0,2.051,7.727Z" class="aw-theme-iconOutline" fill="#464646"/>
    <path id="path2-3" d="M11,17.5A6.5,6.5,0,1,1,17.5,24,6.5,6.5,0,0,1,11,17.5Zm12,0A5.5,5.5,0,1,0,17.5,23,5.5,5.5,0,0,0,23,17.5Z" class="aw-theme-iconOutline" fill="#464646"/>
    <path id="path4" d="M17,21h1V15.7l2.15,2.15.707-.707-3-3a.5.5,0,0,0-.707,0l-3,3,.707.707L17,15.709Z" class="aw-theme-iconOutline" fill="#464646"/>
  </g>
</svg>
