<svg id="Livello_3" data-name="Livello 3" xmlns="http://www.w3.org/2000/svg" viewBox="0 0 24 24">
  <g id="g836">
    <path id="path835" d="M14.563,20.3l-3.676-3.676V12.13l.6-.6.6-.6h.474l.02-.872c.018-.764.013-.875-.036-.9a1.248,1.248,0,0,1-.405-.442,1.023,1.023,0,0,1-.1-.454.759.759,0,0,1,.1-.514A1.093,1.093,0,1,1,13.609,9.2a.348.348,0,0,0-.189.16c-.01.042-.014.409-.009.814l.01.737,1.583.01,1.582.009L20.262,14.6l3.676,3.676-2.849,2.85-2.85,2.849ZM19.4,15.07,16.19,11.861h-1.3c-.717,0-1.3.012-1.3.027s.029.139.064.275l.064.248.162.041a1.1,1.1,0,0,1,.57.368,1.125,1.125,0,0,1-.086,1.588,1.018,1.018,0,0,1-.775.306,1.04,1.04,0,0,1-.81-.342,1.011,1.011,0,0,1-.286-.8,1.014,1.014,0,0,1,.283-.8l.131-.144-.075-.319c-.108-.468-.1-.445-.226-.445-.1,0-.165.05-.429.315l-.314.316v3.773l3.191,3.191,3.191,3.192,2.184-2.185,2.185-2.184Z" class="aw-theme-iconOutline" fill="#464646"/>
    <path id="path837" d="M16.28,19.25l-2.031-2.031.332-.333.333-.332,2.04,2.039,2.04,2.04-.323.324a4.473,4.473,0,0,1-.341.324C18.319,21.281,17.4,20.367,16.28,19.25Z" class="aw-theme-iconOutline" fill="#464646"/>
    <path id="path839" d="M17.639,18.427l-1.75-1.772.322-.32.321-.32,1.77,1.77,1.77,1.77-.322.324a4.2,4.2,0,0,1-.341.322C19.4,20.2,18.6,19.4,17.639,18.427Z" class="aw-theme-iconOutline" fill="#464646"/>
    <path id="path841" d="M18.463,17.083l-2.04-2.041.324-.322.324-.323L19.1,16.428l2.028,2.031-.312.332-.313.332Z" class="aw-theme-iconOutline" fill="#464646"/>
    <path id="rect827" d="M3,16H9.252v1H3Z" class="aw-theme-iconOutline" fill="#464646"/>
    <path id="rect829-3" d="M16,3h1V9.539H16Z" class="aw-theme-iconOutline" fill="#464646"/>
    <path id="rect827-3" d="M3,3H17V4H3Z" class="aw-theme-iconOutline" fill="#464646"/>
    <path id="rect829-3-6" d="M3,3H4V17H3Z" class="aw-theme-iconOutline" fill="#464646"/>
    <path id="rect1002" d="M9.5,0h1V3.324h-1Z" class="aw-theme-iconOutline" fill="#464646"/>
    <path id="rect1002-2-0" d="M17.5,10.5l-.5-1h3v1Z" class="aw-theme-iconOutline" fill="#464646"/>
    <path id="rect1002-2-0-8" d="M0,10.5v-1H3.144v1Z" class="aw-theme-iconOutline" fill="#464646"/>
    <path id="rect1002-9" d="M9,16h1v4H9Z" class="aw-theme-iconOutline" fill="#464646"/>
  </g>
</svg>
