<svg version="1.1" id="Livello_1" xmlns="http://www.w3.org/2000/svg" xmlns:xlink="http://www.w3.org/1999/xlink" x="0px" y="0px"
	  viewBox="0 0 24 24" enable-background="new 0 0 24 24" xml:space="preserve">
<path class="aw-theme-iconOutline" fill="#464646" d="M3,17.133V24h17.988v-3.699h-0.976v2.721H3.977v-5.889H3z M3,0v8.551h0.977V0.977h10.179l5.867,6.076
	L20,16.4h0.977L21,6.661L14.569,0H3z"/>
<rect x="14" y="0.641" class="aw-theme-iconOutline" fill="#464646" width="1" height="6.359"/>
<rect x="14.041" y="6" class="aw-theme-iconOutline" fill="#464646" width="6.224" height="1"/>
<polygon class="aw-theme-iconOutline" fill="#464646" points="20.011,20.345 20.986,20.36 20.974,16.328 20,16.305 "/>
<path class="aw-theme-iconOutline" fill="#464646" d="M1.118,9h16.765v8H1.118V9z M0,18h19V8H0V18z"/>
<path class="aw-theme-iconOutline" fill="#464646" d="M5.937,15.449H4.628l-0.845-1.596c-0.031-0.061-0.064-0.17-0.099-0.328H3.671
	c-0.017,0.074-0.054,0.188-0.113,0.342L2.71,15.449H1.395l1.562-2.451l-1.429-2.451h1.344l0.7,1.47
	c0.055,0.116,0.104,0.254,0.147,0.414h0.014c0.027-0.096,0.078-0.238,0.153-0.427l0.779-1.456h1.23l-1.47,2.43L5.937,15.449z"/>
<path class="aw-theme-iconOutline" fill="#464646" d="M9.3,15.449H6.381v-4.902h1.104v4.005H9.3V15.449z"/>
<path class="aw-theme-iconOutline" fill="#464646" d="M9.595,15.262v-1.094c0.198,0.166,0.413,0.291,0.646,0.373c0.232,0.084,0.468,0.125,0.704,0.125
	c0.14,0,0.261-0.012,0.364-0.037s0.19-0.061,0.26-0.105c0.069-0.043,0.121-0.096,0.155-0.156s0.052-0.125,0.052-0.197
	c0-0.096-0.027-0.18-0.082-0.256c-0.055-0.074-0.13-0.145-0.224-0.209c-0.095-0.063-0.207-0.125-0.337-0.184
	s-0.271-0.119-0.421-0.182c-0.383-0.16-0.668-0.354-0.855-0.584c-0.188-0.23-0.282-0.508-0.282-0.834
	c0-0.255,0.051-0.475,0.153-0.658c0.103-0.183,0.242-0.334,0.419-0.453s0.381-0.206,0.613-0.261
	c0.232-0.056,0.479-0.084,0.738-0.084c0.256,0,0.481,0.016,0.679,0.046c0.196,0.031,0.378,0.078,0.545,0.142v1.022
	c-0.082-0.057-0.171-0.107-0.269-0.15c-0.097-0.043-0.196-0.079-0.299-0.107c-0.103-0.029-0.204-0.05-0.306-0.063
	s-0.197-0.021-0.289-0.021c-0.125,0-0.239,0.012-0.342,0.036c-0.103,0.023-0.188,0.057-0.26,0.101
	c-0.07,0.043-0.125,0.095-0.164,0.155c-0.038,0.061-0.058,0.128-0.058,0.204c0,0.082,0.021,0.156,0.064,0.22
	c0.044,0.065,0.105,0.127,0.185,0.185c0.08,0.059,0.177,0.115,0.291,0.171c0.113,0.056,0.242,0.114,0.386,0.173
	c0.196,0.082,0.372,0.169,0.527,0.262c0.156,0.092,0.291,0.196,0.402,0.313c0.111,0.115,0.197,0.248,0.256,0.398
	c0.06,0.148,0.09,0.322,0.09,0.521c0,0.273-0.053,0.502-0.156,0.688s-0.244,0.336-0.422,0.451s-0.384,0.197-0.62,0.248
	c-0.235,0.051-0.484,0.076-0.747,0.076c-0.269,0-0.524-0.023-0.767-0.068C9.982,15.42,9.772,15.352,9.595,15.262z"/>
<path class="aw-theme-iconOutline" fill="#464646" d="M17.605,15.449h-1.309l-0.844-1.596c-0.032-0.061-0.065-0.17-0.1-0.328H15.34
	c-0.016,0.074-0.054,0.188-0.113,0.342l-0.848,1.582h-1.315l1.562-2.451l-1.428-2.451h1.343l0.7,1.47
	c0.055,0.116,0.104,0.254,0.147,0.414h0.014c0.027-0.096,0.079-0.238,0.153-0.427l0.779-1.456h1.23l-1.469,2.43L17.605,15.449z"/>
</svg>
