<svg version="1.1" id="Livello_1" xmlns="http://www.w3.org/2000/svg" xmlns:xlink="http://www.w3.org/1999/xlink" x="0px" y="0px"
	  viewBox="0 0 24 24" enable-background="new 0 0 24 24" xml:space="preserve">
<polygon class="aw-theme-iconOutline" fill="#464646" points="6.133,12.749 1.655,10.385 6.791,0.729 11.276,3.096 10.121,5.214 9.255,4.742 9.932,3.502 
	7.2,2.059 2.989,9.974 5.729,11.42 7.462,8.201 8.331,8.669 "/>
<path class="aw-theme-iconOutline" fill="#464646" d="M6.385,6.397c-0.125,0-0.228-0.103-0.228-0.229S6.26,5.94,6.385,5.94c3.11,0,5.639,2.53,5.639,5.64
	c0,0.139-0.019,0.275-0.029,0.413c0.141-0.002,0.329-0.17,0.567-0.337c0.248-0.175,0.383-0.288,0.452-0.328c0.009-0.137,0,0,0,0
	c0-3.654-2.976-6.374-6.629-6.374c-0.669,0-1.214,0.545-1.214,1.215s0.544,1.215,1.214,1.215c2.314,0,4.197,1.882,4.197,4.197
	c0,0.794-0.223,1.568-0.646,2.237l-0.118,0.176c-0.088,0.126-0.183,0.264-0.256,0.398l0.862,0.478
	c0.059-0.105,0.135-0.213,0.204-0.313c0.053-0.076,0.103-0.148,0.143-0.213c0.522-0.826,0.798-1.782,0.798-2.762
	C11.568,8.723,9.243,6.397,6.385,6.397z"/>
<polygon class="aw-theme-iconOutline" fill="#464646" points="10.134,3.059 9.27,2.585 9.705,1.792 8.772,1.301 8.329,2.107 7.464,1.633 8.375,-0.024 
	11.051,1.388 "/>
<polygon class="aw-theme-iconOutline" fill="#464646" points="4.972,13.865 1.393,11.976 2.338,10.188 3.209,10.648 2.726,11.564 4.56,12.533 5.044,11.616 
	5.917,12.076 "/>
<rect x="-0.06" y="13.494" transform="matrix(0.8932 0.4497 -0.4497 0.8932 6.5638 0.3438)" class="aw-theme-iconOutline" fill="#464646" width="5.237" height="0.986"/>
<polygon class="aw-theme-iconOutline" fill="#464646" points="10.41,15.775 7.121,15.775 7.121,15.32 10.266,15.32 10.771,14.343 6.253,14.334 6.253,16.762 
	10.031,16.762 "/>
<path class="aw-theme-iconOutline" fill="#464646" d="M17.5,24c-3.59,0-6.5-2.91-6.5-6.5s2.91-6.5,6.5-6.5s6.5,2.91,6.5,6.5c0.007,3.583-2.892,6.493-6.474,6.5
	H17.5z M17.5,12c-3.037,0-5.5,2.463-5.5,5.5s2.463,5.5,5.5,5.5s5.5-2.463,5.5-5.5C22.973,14.474,20.526,12.027,17.5,12"/>
<path class="aw-theme-iconOutline" fill="#464646" d="M18.546,13l-0.708,0.708l1.647,1.646h-2.024c-1.806-0.002-3.271,1.46-3.273,3.265
	c-0.002,1.322,0.792,2.515,2.013,3.022l0.384-0.923c-1.157-0.481-1.705-1.81-1.224-2.966c0.353-0.847,1.18-1.398,2.097-1.398h2.024
	L17.838,18l0.708,0.708l2.5-2.5c0.195-0.195,0.195-0.512,0-0.707L18.546,13z"/>
</svg>
