<svg version="1.1" id="Livello_1" xmlns="http://www.w3.org/2000/svg" xmlns:xlink="http://www.w3.org/1999/xlink" x="0px" y="0px"
	  viewBox="0 0 24 24" enable-background="new 0 0 24 24" xml:space="preserve">
<polygon class="aw-theme-iconOutline" fill="#464646" points="6.133,12.749 1.655,10.385 6.791,0.729 11.276,3.096 10.121,5.214 9.255,4.742 9.932,3.502 
	7.2,2.059 2.989,9.974 5.729,11.42 7.462,8.201 8.331,8.669 "/>
<path class="aw-theme-iconOutline" fill="#464646" d="M6.385,6.397c-0.125,0-0.228-0.103-0.228-0.229S6.26,5.94,6.385,5.94c3.11,0,5.639,2.53,5.639,5.64
	c0,0.139-0.019,0.275-0.029,0.413c0.141-0.002,0.329-0.17,0.567-0.337c0.248-0.175,0.383-0.288,0.452-0.328c0.009-0.137,0,0,0,0
	c0-3.654-2.976-6.374-6.629-6.374c-0.669,0-1.214,0.545-1.214,1.215s0.544,1.215,1.214,1.215c2.314,0,4.197,1.882,4.197,4.197
	c0,0.794-0.223,1.568-0.646,2.237l-0.118,0.176c-0.088,0.126-0.183,0.264-0.256,0.398l0.862,0.478
	c0.059-0.105,0.135-0.213,0.204-0.313c0.053-0.076,0.103-0.148,0.143-0.213c0.522-0.826,0.798-1.782,0.798-2.762
	C11.568,8.723,9.243,6.397,6.385,6.397z"/>
<polygon class="aw-theme-iconOutline" fill="#464646" points="10.134,3.059 9.27,2.585 9.705,1.792 8.772,1.301 8.329,2.107 7.464,1.633 8.375,-0.024 
	11.051,1.388 "/>
<polygon class="aw-theme-iconOutline" fill="#464646" points="4.972,13.865 1.393,11.976 2.338,10.188 3.209,10.648 2.726,11.564 4.56,12.533 5.044,11.616 
	5.917,12.076 "/>
<rect x="-0.06" y="13.494" transform="matrix(0.8932 0.4497 -0.4497 0.8932 6.5638 0.3438)" class="aw-theme-iconOutline" fill="#464646" width="5.237" height="0.986"/>
<polygon class="aw-theme-iconOutline" fill="#464646" points="10.41,15.775 7.121,15.775 7.121,15.32 10.266,15.32 10.771,14.343 6.253,14.334 6.253,16.762 
	10.031,16.762 "/>
<path class="aw-theme-iconOutline" fill="#464646" d="M18.581,24h-2.164l-0.745-2.111l-1.998,0.948l-1.528-1.529l0.95-2.002L11,18.561v-2.162l2.096-0.744l-0.95-2
	l1.527-1.529l2.006,0.953L16.418,11h2.162l0.742,2.079l2.003-0.953l1.529,1.529l-0.951,1.999L24,16.398v2.164l-2.096,0.743l0.951,2
	l-1.53,1.53l-1.997-0.949L18.581,24z M17.073,23.071h0.852l0.606-1.717c0.142-0.396,0.599-0.589,0.967-0.416l1.635,0.777
	l0.603-0.604l-0.776-1.633c-0.085-0.178-0.091-0.386-0.015-0.569c0.075-0.185,0.229-0.33,0.419-0.398l1.709-0.605v-0.852
	l-1.709-0.605c-0.191-0.067-0.345-0.212-0.421-0.396c-0.075-0.185-0.07-0.393,0.016-0.573l0.776-1.631l-0.602-0.603L19.5,14.022
	c-0.364,0.176-0.833-0.018-0.968-0.393l-0.606-1.701h-0.853l-0.605,1.699c-0.14,0.379-0.61,0.567-0.972,0.391l-1.63-0.773
	l-0.602,0.602l0.776,1.634c0.084,0.18,0.09,0.387,0.014,0.572c-0.076,0.184-0.229,0.327-0.417,0.396l-1.709,0.605v0.852l1.708,0.607
	c0.189,0.066,0.344,0.21,0.421,0.395c0.075,0.186,0.068,0.394-0.018,0.573l-0.775,1.633l0.603,0.604l1.634-0.775
	c0.358-0.17,0.826,0.021,0.966,0.409L17.073,23.071z"/>
<path class="aw-theme-iconOutline" fill="#464646" d="M17.499,19.358c-1.023,0-1.856-0.834-1.856-1.857c0-1.025,0.833-1.857,1.856-1.857
	c1.024,0,1.857,0.832,1.857,1.857C19.356,18.524,18.523,19.358,17.499,19.358z M17.499,16.572c-0.513,0-0.928,0.415-0.928,0.929
	c0,0.512,0.415,0.929,0.928,0.929s0.929-0.417,0.929-0.929C18.428,16.987,18.012,16.572,17.499,16.572z"/>
</svg>
