<svg version="1.1" id="Livello_1" xmlns="http://www.w3.org/2000/svg" xmlns:xlink="http://www.w3.org/1999/xlink" x="0px" y="0px"
	  viewBox="0 0 24 24" enable-background="new 0 0 24 24" xml:space="preserve">
<rect x="2.672" y="18" transform="matrix(0.7071 0.7071 -0.7071 0.7071 14.6924 1.5294)" class="aw-theme-iconOutline" fill="#464646" width="5.657" height="1"/>
<rect x="15.673" y="4.999" transform="matrix(0.7071 0.7071 -0.7071 0.7071 9.3053 -11.4679)" class="aw-theme-iconOutline" fill="#464646" width="5.644" height="1"/>
<path class="aw-theme-iconOutline" fill="#464646" d="M1.5,23c-0.13,0-0.258-0.051-0.354-0.146c-0.133-0.134-0.18-0.332-0.12-0.512l2-6
	c0.024-0.073,0.065-0.141,0.121-0.195L17.759,1.531c0.33-0.331,0.77-0.513,1.236-0.513c0.001,0,0.001,0,0.001,0
	c0.467,0,0.906,0.182,1.236,0.512l2.24,2.234c0.683,0.686,0.682,1.797-0.003,2.479L18.792,9.91l-0.705-0.708l3.678-3.666
	c0.293-0.292,0.293-0.77,0-1.064l-2.239-2.234c-0.142-0.142-0.329-0.22-0.529-0.22l0,0c-0.2,0-0.389,0.078-0.53,0.22L3.937,16.771
	l-1.647,4.94l4.939-1.638l1.903-1.925l0.711,0.703l-1.988,2.01C7.8,20.917,7.732,20.96,7.657,20.984l-6,1.99
	C1.606,22.991,1.553,23,1.5,23z"/>
<path class="aw-theme-iconOutline" fill="#464646" d="M17.51,24c-3.596,0-6.493-2.896-6.493-6.492s2.897-6.492,6.493-6.492c3.594,0,6.49,2.896,6.49,6.492
	S21.104,24,17.51,24 M17.51,12.015c-2.996,0-5.494,2.497-5.494,5.493S14.514,23,17.51,23s5.492-2.496,5.492-5.492
	S20.506,12.015,17.51,12.015"/>
<polygon class="aw-theme-iconOutline" fill="#464646" points="19.605,14.611 17.51,16.809 15.412,14.611 14.613,15.41 16.811,17.508 14.613,19.605 15.412,20.404 
	17.51,18.207 19.605,20.404 20.404,19.605 18.209,17.508 20.404,15.41 "/>
</svg>
