<svg id="Livello_1" data-name="Livello 1" xmlns="http://www.w3.org/2000/svg" viewBox="0 0 24 24">
  <g id="g882">
    <path id="path9" d="M8.5,2.991a.65.65,0,0,1-.19-.03.659.659,0,0,1-.16-.11A.511.511,0,0,1,8,2.491a.468.468,0,0,1,.15-.35.447.447,0,0,1,.16-.109.512.512,0,0,1,.54.109.41.41,0,0,1,.11.16.441.441,0,0,1,.04.19.5.5,0,0,1-.5.5" class="aw-theme-iconOutline" fill="#464646"/>
    <path id="path11" d="M12.727,3A2,2,0,0,0,11,2v-.16A2.045,2.045,0,0,0,8.9,0H8.2A2.137,2.137,0,0,0,6,1.842V2A2,2,0,0,0,4.275,3H0V21H10.2l-.4-1H1V4H4V5.5a.5.5,0,0,0,.5.5h8a.5.5,0,0,0,.5-.5V4h3v6l1-.1V3ZM5,5V3.847l.063-.179A1,1,0,0,1,6,3H7V1.842C7,1.41,7.676,1,8.2,1h.7c.5,0,1.1.375,1.1.84V3h1a1.224,1.224,0,0,1,.982.658L12,3.846V5Z" class="aw-theme-iconOutline" fill="#464646"/>
    <path id="rect13" d="M3,8H14V9H3Z" class="aw-theme-iconOutline" fill="#464646"/>
    <path id="rect15" d="M3,11h9v1H3Z" class="aw-theme-iconOutline" fill="#464646"/>
    <path id="rect17" d="M3,14h7v1H3Z" class="aw-theme-iconOutline" fill="#464646"/>
    <path id="rect19" d="M3,17h7v1H3Z" class="aw-theme-iconOutline" fill="#464646"/>
    <path id="path824" d="M17.6,16.943s-.034-.214-.074-.469c-.066-.413-.072-.465-.054-.473s.307-.052.656-.105c.73-.111.708-.107.7-.122s-.075-.066-.158-.133a3.668,3.668,0,0,0-1.785-.846,2.119,2.119,0,0,0-.821.076,2.453,2.453,0,0,0-.509.265,3.189,3.189,0,0,0-.9,1.115c-.04.077-.075.142-.077.145s-.827-.431-.853-.449c0,0,.044-.074.257-.4a3.481,3.481,0,0,1,1.58-1.539,3.548,3.548,0,0,1,.8-.184,2.709,2.709,0,0,1,.693.013,5.155,5.155,0,0,1,2.084,1.014.733.733,0,0,0,.169.107c0-.008-.04-.289-.092-.625s-.092-.612-.089-.615.216-.038.473-.077l.467-.072.226,1.461c.124.8.224,1.463.222,1.465s-.644.1-1.427.221-1.439.222-1.458.226a.093.093,0,0,1-.036,0Z" class="aw-theme-iconOutline" fill="#464646"/>
    <path id="path3-5" d="M17.5,24a6.487,6.487,0,1,1,.026,0H17.5m0-12A5.5,5.5,0,1,0,23,17.5,5.5,5.5,0,0,0,17.5,12" class="aw-theme-iconOutline" fill="#464646"/>
    <path id="circle5-7" d="M17,19.251A1.75,1.75,0,1,1,15.251,17.5h0A1.75,1.75,0,0,1,17,19.251Z" class="aw-theme-iconOutline" fill="#464646"/>
    <path id="circle5-4" d="M19.762,17.508a1.76,1.76,0,1,0,.024,0Zm.012,1h.01a.75.75,0,0,1,.75.75h0a.75.75,0,1,1-.76-.75Z" class="aw-theme-iconOutline" fill="#464646"/>
  </g>
</svg>
