<svg id="Layer_1" data-name="Layer 1" xmlns="http://www.w3.org/2000/svg" viewBox="0 0 24 24">
  <g id="g830">
    <path id="path6" d="M8.5,2.99a.614.614,0,0,1-.19-.03.608.608,0,0,1-.16-.11A.507.507,0,0,1,8,2.49a.468.468,0,0,1,.15-.35.454.454,0,0,1,.16-.11.51.51,0,0,1,.54.11.421.421,0,0,1,.11.16A.427.427,0,0,1,9,2.49a.507.507,0,0,1-.15.36A.5.5,0,0,1,8.5,2.99Z" class="aw-theme-iconOutline" fill="#464646"/>
    <path id="path8" d="M12.726,3A2,2,0,0,0,11,2V1.84A2.046,2.046,0,0,0,8.9,0H8.2A2.136,2.136,0,0,0,6,1.84V2A2,2,0,0,0,4.275,3H0V22H9.2l-.4-1H1V4H4V5.5a.5.5,0,0,0,.5.5h8a.5.5,0,0,0,.5-.5V4h3v7.8l1-.8V3ZM5,5V3.846l.063-.179A1,1,0,0,1,6,3H7V1.84C7,1.408,7.676,1,8.2,1h.7c.5,0,1.1.375,1.1.84V3h1a1.223,1.223,0,0,1,.982.658L12,3.845V5Z" class="aw-theme-iconOutline" fill="#464646"/>
    <path id="rect826" d="M3,8H14V9H3Z" class="aw-theme-iconOutline" fill="#464646"/>
    <path id="rect826-0" d="M3,11H14v1H3Z" class="aw-theme-iconOutline" fill="#464646"/>
    <path id="rect826-0-2" d="M3,14H13.5l-1,1H3Z" class="aw-theme-iconOutline" fill="#464646"/>
    <path id="rect826-0-9" d="M3,17h7.5L10,18H3Z" class="aw-theme-iconOutline" fill="#464646"/>
    <path id="path857" d="M16.449,23.019l2.14-2.05-.684-.654-2.134,2.051a2.658,2.658,0,0,1-3.57,0,2.364,2.364,0,0,1-.091-3.342c.029-.031.059-.062.091-.091.421-.4.772-.752,1.1-1.067,1.522-1.5,1.833-1.782,2.7-1.9l.032-.005a2.5,2.5,0,0,1,2.833,2.064l.956-.127v-.029a3.463,3.463,0,0,0-3.953-2.821h0c-1.216.168-1.689.633-3.263,2.177-.311.308-.667.655-1.083,1.054a3.265,3.265,0,0,0-.128,4.615c.041.044.084.087.128.129a3.588,3.588,0,0,0,4.928,0Z" class="aw-theme-iconOutline" fill="#464646"/>
    <path id="path2-5" d="M20.6,19.029l2.382-2.29a3.263,3.263,0,0,0,.128-4.614c-.042-.044-.084-.087-.128-.128a3.672,3.672,0,0,0-4.933,0l-2.141,2.049.685.654,2.134-2.052a2.659,2.659,0,0,1,3.569,0,2.365,2.365,0,0,1,.091,3.343c-.029.031-.059.061-.091.09l-2.374,2.29a2.552,2.552,0,0,1-4.282-1.377l-.956.124a3.531,3.531,0,0,0,5.92,1.91Z" class="aw-theme-iconOutline" fill="#464646"/>
  </g>
</svg>
