<svg id="Layer_1" data-name="Layer 1" xmlns="http://www.w3.org/2000/svg" viewBox="0 0 24 24">
  <g id="g818">
    <path id="path814" d="M10.289,23.655c-.857-.289-.906-.308-1.009-.409a.361.361,0,0,1-.124-.374c.017-.114.043-.144.774-.881l.758-.763.46-1.664.461-1.664.108-.108c.06-.059,2.157-1.882,4.66-4.05,3.293-2.853,4.577-3.951,4.644-3.971.222-.067.174-.106,1.559,1.27.7.7,1.287,1.3,1.306,1.339a.788.788,0,0,1,.008.423c-.014.036-1.79,2.1-3.946,4.589S16,21.956,15.969,22.006a.347.347,0,0,1-.13.12c-.04.015-.8.229-1.687.475l-1.614.447-.432.427C11.484,24.09,11.563,24.082,10.289,23.655Zm1.226-.807.2-.2-.314-.313-.313-.312-.19.2c-.476.5-.513.541-.475.555.149.058.806.262.847.264S11.392,22.973,11.515,22.848Zm2.133-.961c.648-.177,1.186-.329,1.2-.338s-.57-.605-1.29-1.325-1.312-1.3-1.318-1.3-.652,2.359-.652,2.4a11.844,11.844,0,0,0,.868.882C12.463,22.207,13,22.063,13.648,21.887Zm5.866-5.26,3.434-3.992-.925-.925-.925-.926-.076.061c-.042.034-1.942,1.691-4.223,3.684l-4.147,3.622,1.492,1.492,1.491,1.492.223-.259Z" class="aw-theme-iconOutline" fill="#464646"/>
    <path id="path2" d="M19,2.643C19,.552,12.786,0,9.5,0S0,.552,0,2.643A1.056,1.056,0,0,0,.18,3.2H.163L7,13.649V20.5a.5.5,0,0,0,.8.4l2-1.5-.6-.8L8,19.5v-6a.5.5,0,0,0-.082-.274L2.136,4.4A27.836,27.836,0,0,0,9.5,5.286,27.863,27.863,0,0,0,16.862,4.4l-4.221,6.446.837.548,5.337-8.155H18.8A1.065,1.065,0,0,0,19,2.643Zm-18,0C1,2.152,3.892,1,9.5,1S18,2.152,18,2.643,15.108,4.286,9.5,4.286,1,3.134,1,2.643Z" class="aw-theme-iconOutline" fill="#464646"/>
  </g>
</svg>
