<svg id="Layer_1" data-name="Layer 1" xmlns="http://www.w3.org/2000/svg" viewBox="0 0 24 24">
  <g id="g840">
    <path id="path6" d="M8.5,2.99a.614.614,0,0,1-.19-.03.608.608,0,0,1-.16-.11A.507.507,0,0,1,8,2.49a.468.468,0,0,1,.15-.35.454.454,0,0,1,.16-.11.51.51,0,0,1,.54.11.421.421,0,0,1,.11.16A.427.427,0,0,1,9,2.49a.507.507,0,0,1-.15.36A.5.5,0,0,1,8.5,2.99Z" class="aw-theme-iconOutline" fill="#464646"/>
    <path id="path8" d="M12.726,3A2,2,0,0,0,11,2V1.84A2.046,2.046,0,0,0,8.9,0H8.2A2.136,2.136,0,0,0,6,1.84V2A2,2,0,0,0,4.275,3H0V22H11l-.4-1H1V4H4V5.5a.5.5,0,0,0,.5.5h8a.5.5,0,0,0,.5-.5V4h3v6l1-.1V3ZM5,5V3.846l.063-.179A1,1,0,0,1,6,3H7V1.84C7,1.408,7.676,1,8.2,1h.7c.5,0,1.1.375,1.1.84V3h1a1.223,1.223,0,0,1,.982.658L12,3.845V5Z" class="aw-theme-iconOutline" fill="#464646"/>
    <path id="rect826" d="M3,8H14V9H3Z" class="aw-theme-iconOutline" fill="#464646"/>
    <path id="rect826-0" d="M3,11h9v1H3Z" class="aw-theme-iconOutline" fill="#464646"/>
    <path id="rect826-0-2" d="M3,14h7v1H3Z" class="aw-theme-iconOutline" fill="#464646"/>
    <path id="rect826-0-9" d="M3,17h7v1H3Z" class="aw-theme-iconOutline" fill="#464646"/>
    <path id="path8-8" d="M17.5,24A6.5,6.5,0,1,1,24,17.5,6.5,6.5,0,0,1,17.5,24Zm0-12A5.5,5.5,0,1,0,23,17.5,5.5,5.5,0,0,0,17.5,12Z" class="aw-theme-iconOutline" fill="#464646"/>
    <path id="path10" d="M21,18V17H15.7l2.15-2.149-.708-.708-3,3a.5.5,0,0,0,0,.707h0l3,3,.708-.708L15.71,18Z" class="aw-theme-iconOutline" fill="#464646"/>
  </g>
</svg>
