<svg id="Layer_1" data-name="Layer 1" xmlns="http://www.w3.org/2000/svg" viewBox="0 0 24 24">
  <g id="g817">
    <path id="path2" d="M19,2.643C19,.552,12.786,0,9.5,0S0,.552,0,2.643A1.056,1.056,0,0,0,.18,3.2H.163L7,13.649V20.5a.5.5,0,0,0,.8.4l2-1.5-.6-.8L8,19.5v-6a.5.5,0,0,0-.082-.274L2.136,4.4A27.836,27.836,0,0,0,9.5,5.286,27.863,27.863,0,0,0,16.862,4.4l-4.221,6.446.837.548,5.337-8.155H18.8A1.065,1.065,0,0,0,19,2.643Zm-18,0C1,2.152,3.892,1,9.5,1S18,2.152,18,2.643,15.108,4.286,9.5,4.286,1,3.134,1,2.643Z" class="aw-theme-iconOutline" fill="#464646"/>
    <path id="path2-7" d="M16.453,11,15.7,13.123l-2.045-.975-1.482,1.483.971,2.041L11,16.432v2.117l2.135.752L12.17,21.33l1.48,1.483,2.041-.969L16.451,24h2.117l.762-2.145,2.043.975,1.481-1.48-.977-2.045L24,18.547V16.432l-2.115-.752.967-2.03-.022-.021v0l-1.461-1.459-.019-.022-2.03.969L18.568,11H16.453Zm.594.813h.928l.625,1.755a.643.643,0,0,0,.216.295l.032.022a.7.7,0,0,0,.136.078.652.652,0,0,0,.528-.012l1.687-.8h0l.651.651v0l-.8,1.685a.648.648,0,0,0,.1.711l0,0a.646.646,0,0,0,.28.2l1.756.625v.928l-1.766.625a.65.65,0,0,0-.4.828c.008.022.017.044.027.065a.35.35,0,0,0,.037.062l0,.006.781,1.641-.67.672-1.633-.778a.42.42,0,0,0-.076-.047.651.651,0,0,0-.521-.015.667.667,0,0,0-.371.4l-.625,1.776h-.928l-.625-1.766a.648.648,0,0,0-.328-.371h0l-.018-.008-.043-.022a.644.644,0,0,0-.523.012l-1.688.8-.672-.67.739-1.553a.426.426,0,0,0,.086-.119.651.651,0,0,0,.015-.521.629.629,0,0,0-.133-.2.642.642,0,0,0-.277-.19l-1.765-.627v-.928l1.773-.625a.668.668,0,0,0,.393-.369.644.644,0,0,0-.012-.523l-.8-1.688.67-.672,1.689.8a.65.65,0,0,0,.867-.306.558.558,0,0,0,.028-.067Z" class="aw-theme-iconOutline" fill="#464646"/>
    <path id="path4" d="M17.5,19.531A2.031,2.031,0,1,1,19.531,17.5,2.031,2.031,0,0,1,17.5,19.531Zm0-3.25A1.219,1.219,0,1,0,18.719,17.5,1.219,1.219,0,0,0,17.5,16.281Z" class="aw-theme-iconOutline" fill="#464646"/>
  </g>
</svg>
