<svg id="Livello_1" data-name="Livello 1" xmlns="http://www.w3.org/2000/svg" viewBox="0 0 24 24">
  <g id="g823">
    <path id="path2" d="M0,0V22H11.023a6.492,6.492,0,0,1-.7-.9H.9V.9h9.331L15.6,6.465l-.012,3.726a6.5,6.5,0,0,1,.9-.2L16.5,6.105,10.605,0Z" class="aw-theme-iconOutline" fill="#464646"/>
    <path id="rect4" d="M10.083.484H11V6.313h-.917Z" class="aw-theme-iconOutline" fill="#464646"/>
    <path id="rect6" d="M10.121,5.4h5.705v.916h-5.7Z" class="aw-theme-iconOutline" fill="#464646"/>
    <path id="path4" d="M17.5,24A6.5,6.5,0,1,1,24,17.5,6.5,6.5,0,0,1,17.5,24m0-12A5.5,5.5,0,1,0,23,17.5,5.5,5.5,0,0,0,17.5,12" class="aw-theme-iconOutline" fill="#464646"/>
    <path id="polygon6" d="M14,17v1l3,0v3h1V18l3,0V17l-3,0V14H17v3Z" class="aw-theme-iconOutline" fill="#464646"/>
  </g>
</svg>
