<svg version="1.1" id="Livello_1" xmlns="http://www.w3.org/2000/svg" xmlns:xlink="http://www.w3.org/1999/xlink" x="0px" y="0px"
	  viewBox="0 0 24 24" enable-background="new 0 0 24 24" xml:space="preserve">
<path class="aw-theme-iconOutline" fill="#464646" d="M8.5,2.99c-0.064,0-0.128-0.011-0.19-0.03C8.251,2.931,8.197,2.894,8.15,2.85C8.054,2.755,8,2.625,8,2.49
	C7.998,2.357,8.053,2.23,8.15,2.14c0.045-0.048,0.1-0.086,0.16-0.11c0.186-0.072,0.397-0.029,0.54,0.11
	C8.899,2.184,8.937,2.239,8.96,2.3C8.987,2.359,9.001,2.424,9,2.49c0,0.135-0.054,0.265-0.15,0.36C8.756,2.94,8.63,2.99,8.5,2.99"/>
<path class="aw-theme-iconOutline" fill="#464646" d="M12.726,3C12.37,2.383,11.712,2.002,11,2V1.84C10.892,0.77,9.975-0.034,8.9,0H8.2
	C7.103-0.043,6.151,0.752,6,1.84V2C5.288,2.002,4.631,2.383,4.275,3H0v19h11l-0.4-1H1V4h3v1.5C4,5.776,4.224,6,4.5,6h8
	C12.776,6,13,5.776,13,5.5V4h3v6l1-0.1V3H12.726z M5,5V3.846l0.063-0.179C5.204,3.27,5.578,3.002,6,3h1V1.84C7,1.408,7.676,1,8.2,1
	h0.7C9.4,1,10,1.375,10,1.84V3h1c0.431,0.057,0.77,0.26,0.982,0.658L12,3.845V5H5z"/>
<rect x="3" y="8" class="aw-theme-iconOutline" fill="#464646" width="11" height="1"/>
<rect x="3" y="11" class="aw-theme-iconOutline" fill="#464646" width="9" height="1"/>
<rect x="3" y="14" class="aw-theme-iconOutline" fill="#464646" width="7" height="1"/>
<rect x="3" y="17" class="aw-theme-iconOutline" fill="#464646" width="7" height="1"/>
<path class="aw-theme-iconOutline" fill="#464646" d="M18.581,23.999h-2.164l-0.745-2.111l-1.998,0.948l-1.528-1.529l0.95-2.002L11,18.56v-2.162l2.096-0.744
	l-0.95-2l1.527-1.529l2.006,0.953l0.739-2.078h2.162l0.742,2.079l2.003-0.953l1.529,1.529l-0.951,1.999L24,16.397v2.164
	l-2.096,0.743l0.951,2l-1.53,1.53l-1.997-0.949L18.581,23.999z M17.073,23.07h0.852l0.606-1.717
	c0.142-0.396,0.599-0.589,0.967-0.416l1.635,0.777l0.603-0.604l-0.776-1.633c-0.085-0.178-0.091-0.386-0.015-0.569
	c0.075-0.185,0.229-0.33,0.419-0.398l1.709-0.605v-0.852l-1.709-0.605c-0.191-0.067-0.345-0.212-0.421-0.396
	c-0.075-0.185-0.07-0.393,0.016-0.573l0.776-1.631l-0.602-0.603L19.5,14.021c-0.364,0.176-0.833-0.018-0.968-0.393l-0.606-1.701
	h-0.853l-0.605,1.699c-0.14,0.379-0.61,0.567-0.972,0.391l-1.63-0.773l-0.602,0.602l0.776,1.634c0.084,0.18,0.09,0.387,0.014,0.572
	c-0.076,0.184-0.229,0.327-0.417,0.396l-1.709,0.605v0.852l1.708,0.607c0.189,0.066,0.344,0.21,0.421,0.395
	c0.075,0.186,0.068,0.394-0.018,0.573l-0.775,1.633l0.603,0.604l1.634-0.775c0.358-0.17,0.826,0.021,0.966,0.409L17.073,23.07z"/>
<path class="aw-theme-iconOutline" fill="#464646" d="M17.499,19.357c-1.023,0-1.856-0.834-1.856-1.857c0-1.025,0.833-1.857,1.856-1.857
	c1.024,0,1.857,0.832,1.857,1.857C19.356,18.523,18.523,19.357,17.499,19.357z M17.499,16.571c-0.513,0-0.928,0.415-0.928,0.929
	c0,0.512,0.415,0.929,0.928,0.929s0.929-0.417,0.929-0.929C18.428,16.986,18.012,16.571,17.499,16.571z"/>
</svg>
