<svg id="Layer_1" data-name="Layer 1" xmlns="http://www.w3.org/2000/svg" viewBox="0 0 16 16">
  <g id="g821">
    <path id="path818" d="M3.1,15.936c0-.047.357-1.374.792-2.95s.791-2.916.791-2.978c0-.12-.644-.677-3.15-2.724L0,6.032l2.97-.048c1.634-.026,2.994-.073,3.023-.1s.493-1.356,1.033-2.943S8.027.028,8.05,0s.472,1.311,1,2.973L10.005,6l3,.018,3,.018L13.608,8a14.382,14.382,0,0,0-2.357,2.087l.7,2.342c.365,1.224.752,2.522.86,2.883a3.865,3.865,0,0,1,.169.686c-.015.015-1.067-.72-2.338-1.635s-2.4-1.715-2.509-1.78l-.2-.118-.61.437c-.336.24-1.385,1.016-2.331,1.725C3.033,16.1,3.1,16.05,3.1,15.936Z" class="aw-theme-iconOutline" fill="#464646"/>
  </g>
</svg>
