<svg id="Layer_1" data-name="Layer 1" xmlns="http://www.w3.org/2000/svg" viewBox="0 0 16 16">
  <g id="g829">
    <path id="path825" d="M7.144,12.989c.215-.3,1.91-2.778,2.2-3.219l.278-.423-.377-.57c-.207-.313-.783-1.162-1.279-1.887s-.9-1.325-.9-1.335.756-.018,1.681-.017h1.68l.48.745c.633.985.571.907.646.807.034-.045.272-.412.529-.816l.467-.735,1.681,0c.924,0,1.68.008,1.68.018,0,.026-2.27,3.357-2.454,3.6l-.142.189.219.3c.12.163.705,1.017,1.3,1.9l1.081,1.6-.892.012c-.49.006-1.25,0-1.688-.013l-.8-.025-.516-.8c-.283-.443-.523-.8-.533-.8s-.254.368-.543.817l-.525.817-1.7.009-1.7.01Zm3.584-1.773c.4-.632.747-1.149.761-1.149s.354.517.757,1.149l.731,1.148.71,0a5.47,5.47,0,0,0,.71-.021c0-.023-.173-.284-1.2-1.811a7.1,7.1,0,0,1-.737-1.186,13.024,13.024,0,0,1,1.13-1.762c.439-.643.81-1.189.825-1.213s-.129-.045-.7-.045h-.731l-.069.117c-.193.328-1.19,1.854-1.26,1.927a.166.166,0,0,1-.193.06c-.1-.021-.167-.108-.517-.642-.224-.339-.527-.807-.675-1.04l-.268-.422H9.279c-.62,0-.711.007-.693.054.011.029.261.406.555.836s.73,1.074.969,1.432l.434.651-.174.31c-.095.17-.531.836-.968,1.479s-.8,1.194-.816,1.224c-.018.047.07.054.693.053h.714Z" class="aw-theme-iconOutline" fill="#464646"/>
    <path id="path823" d="M1.01,14.63a7.147,7.147,0,0,1-.878-.218l-.116-.036V12.961c0-.822.014-1.453.034-1.506a.2.2,0,0,1,.281-.1,1.952,1.952,0,0,1,.226.168,2.629,2.629,0,0,0,.787.412.178.178,0,0,0,.124-.081,7.494,7.494,0,0,0,.453-1.843c.038-.341.194-1.4.237-1.609l.021-.1H1.634V5.5H2.6l.026-.333A3.433,3.433,0,0,1,3.785,2.53a3.826,3.826,0,0,1,1.192-.606,4.178,4.178,0,0,1,2.082.108l.291.092V3.54c0,1.24-.007,1.423-.056,1.473-.086.086-.22.068-.4-.054a2.47,2.47,0,0,0-.792-.342c-.278-.064-.355-.034-.405.156-.028.106-.111.641-.111.712A2.666,2.666,0,0,0,6,5.5h.413V8.3l-.62.009-.62.01-.17,1.1a11.5,11.5,0,0,1-.75,3.389,3.5,3.5,0,0,1-.713,1A2.809,2.809,0,0,1,1.01,14.63ZM2.2,13.69A2.524,2.524,0,0,0,3.59,12.253a13.409,13.409,0,0,0,.435-2.024c.116-.8.332-2.225.382-2.522l.037-.221L5,7.46l.555-.026-.009-.526-.01-.526-.372-.018c-.335-.016-.379-.027-.44-.1-.078-.1-.074-.19.043-1.031.122-.876.213-1.1.541-1.32.257-.173.474-.2,1.108-.128l.09.01.01-.511.01-.512-.1-.028A4.665,4.665,0,0,0,5.8,2.714a2.029,2.029,0,0,0-.785.087A2.141,2.141,0,0,0,3.631,4.265c-.049.2-.2,1.322-.256,1.856l-.024.243H2.5V7.442h.648v.1c0,.129-.093.739-.321,2.131-.311,1.9-.394,2.246-.615,2.592a1.047,1.047,0,0,1-1.176.485l-.153-.028v1.011L1,13.768a2.819,2.819,0,0,0,.549.025A1.485,1.485,0,0,0,2.2,13.69Z" class="aw-theme-iconOutline" fill="#464646"/>
  </g>
</svg>
