<svg id="Layer_1" data-name="Layer 1" xmlns="http://www.w3.org/2000/svg" viewBox="0 0 24 24">
  <g id="g827">
    <path id="path818" d="M11,23.665c-.195-.168-.358-.314-.362-.324s2.823-2.846,6.28-6.3L23.2,10.752l.375.324.375.324-6.286,6.286c-3.457,3.457-6.292,6.286-6.3,6.286S11.194,23.834,11,23.665Z" class="aw-theme-iconOutline" fill="#464646"/>
    <path id="path2-4" d="M19.049,2.743C19.049.652,12.835.1,9.549.1S.049.652.049,2.743a1.064,1.064,0,0,0,.18.557H.212L7.049,13.749V20.6a.5.5,0,0,0,.8.4l1.5-1-.6-.8-.7.4v-6a.5.5,0,0,0-.082-.274L2.185,4.5a27.841,27.841,0,0,0,7.364.886A27.858,27.858,0,0,0,16.911,4.5L10.2,14.806l.964.269L18.864,3.339h-.015A1.058,1.058,0,0,0,19.049,2.743Zm-18,0c0-.491,2.892-1.643,8.5-1.643s8.5,1.152,8.5,1.643-2.892,1.643-8.5,1.643S1.049,3.234,1.049,2.743Z" class="aw-theme-iconOutline" fill="#464646"/>
    <path id="rect2" d="M15.005,22l-1,1H15.98V22Z" class="aw-theme-iconOutline" fill="#464646"/>
    <path id="rect4" d="M21.98,22h2v1h-2Z" class="aw-theme-iconOutline" fill="#464646"/>
    <path id="path6" d="M19.98,24h-2a1,1,0,0,1-1-1V22a1,1,0,0,1,1-1h2a1,1,0,0,1,1,1v1A1,1,0,0,1,19.98,24Zm-2-2v1h2V22Z" class="aw-theme-iconOutline" fill="#464646"/>
    <path id="polygon8" d="M16.285,13l-.8,1.979-1.987-.79-1.324,1.317.793,1.969-1.99.789V20h1V18.943l2.3-.912-.922-2.283.391-.387,2.3.914L16.96,14H18l.189.469.77-.766-.284-.7Zm5.693,1.705-.707.711.336.332-.922,2.283,2.3.912V20h1V18.264l-1.99-.789.793-1.969Z" class="aw-theme-iconOutline" fill="#464646"/>
  </g>
</svg>
