<svg id="Layer_1" data-name="Layer 1" xmlns="http://www.w3.org/2000/svg" viewBox="0 0 24 24">
  <g id="g825">
    <path id="rect2" d="M11,22h5v1H11Z" class="aw-theme-iconOutline" fill="#464646"/>
    <path id="rect4" d="M22,22h2v1H22Z" class="aw-theme-iconOutline" fill="#464646"/>
    <path id="path6" d="M20,24H18a1,1,0,0,1-1-1V22a1,1,0,0,1,1-1h2a1,1,0,0,1,1,1v1A1,1,0,0,1,20,24Zm-2-2v1h2V22Z" class="aw-theme-iconOutline" fill="#464646"/>
    <path id="polygon8" d="M15.508,14.978l.8-1.978H18.7l.8,1.978,1.986-.788L22.8,15.505l-.793,1.969,1.991.79V20H23V18.943l-2.294-.911.92-2.284-.389-.387-2.3.914L18.02,14H16.98l-.916,2.275-2.3-.914-.389.387.92,2.284L12,18.943V20H11V18.264l1.991-.79L12.2,15.505l1.324-1.315Z" class="aw-theme-iconOutline" fill="#464646"/>
    <path id="path2-4" d="M19.049,2.743C19.049.652,12.835.1,9.549.1S.049.652.049,2.743a1.064,1.064,0,0,0,.18.557H.212L7.049,13.749V20.6a.5.5,0,0,0,.8.4l1.5-1-.6-.8-.7.4v-6a.5.5,0,0,0-.082-.274L2.185,4.5a27.841,27.841,0,0,0,7.364.886A27.858,27.858,0,0,0,16.911,4.5L10.2,14.806l.964.269L18.864,3.339h-.015A1.058,1.058,0,0,0,19.049,2.743Zm-18,0c0-.491,2.892-1.643,8.5-1.643s8.5,1.152,8.5,1.643-2.892,1.643-8.5,1.643S1.049,3.234,1.049,2.743Z" class="aw-theme-iconOutline" fill="#464646"/>
  </g>
</svg>
