<svg id="Livello_2" data-name="Livello 2" xmlns="http://www.w3.org/2000/svg" viewBox="0 0 24 24">
  <g id="g816">
    <path id="path2" d="M1.432,2A1.448,1.448,0,0,0,.014,3.471C.014,28.712,0,15.79,0,22H19V21H1V7.7H1l.041-4.158c0-.37.015-.545.4-.545H7a1.657,1.657,0,0,1,.8.516L9.527,6H20V8.9h1V5H10L8.416,2.777A1.979,1.979,0,0,0,7.045,2Z" class="aw-theme-iconOutline" fill="#464646"/>
    <path id="path2-2" d="M4.5,8.021A.549.549,0,0,0,4,8.4L1,18.113,0,21v1.072H19.5a.549.549,0,0,0,.5-.385L24,8.914a1.429,1.429,0,0,0-.1-.639.493.493,0,0,0-.4-.254ZM5,9H22.7L19,21H1.2Z" class="aw-theme-iconOutline" fill="#464646"/>
  </g>
</svg>
