<svg id="Layer_1" data-name="Layer 1" xmlns="http://www.w3.org/2000/svg" viewBox="0 0 24 24">
  <g id="g829">
    <path id="path4" d="M16.2,3a2.062,2.062,0,0,0-1.7-1V1.8A2.072,2.072,0,0,0,12.4,0h-.7c-1,0-2.2.8-2.2,1.8V2A1.936,1.936,0,0,0,7.8,3H3.5V24h17V3ZM9.5,3h1V1.8c0-.4.7-.8,1.2-.8h.7c.5,0,1.1.4,1.1.8V3h1a1.046,1.046,0,0,1,.97.656l.03.144V5h-7V3.8l.1-.2A1.013,1.013,0,0,1,9.5,3Zm10,20H4.5V4h3V6h9V4h3Z" class="aw-theme-iconOutline" fill="#464646"/>
    <path id="circle6" d="M12.5,2.5A.5.5,0,1,1,12,2,.5.5,0,0,1,12.5,2.5Z" class="aw-theme-iconOutline" fill="#464646"/>
    <path id="rect826" d="M6.5,9h11v1H6.5Z" class="aw-theme-iconOutline" fill="#464646"/>
    <path id="rect826-0" d="M6.5,12h11v1H6.5Z" class="aw-theme-iconOutline" fill="#464646"/>
    <path id="rect826-0-2" d="M6.5,15h11v1H6.5Z" class="aw-theme-iconOutline" fill="#464646"/>
    <path id="rect826-0-9" d="M6.5,18h11v1H6.5Z" class="aw-theme-iconOutline" fill="#464646"/>
  </g>
</svg>
