<svg id="Layer_1" data-name="Layer 1" xmlns="http://www.w3.org/2000/svg" viewBox="0 0 24 24">
  <g id="g845">
    <path id="path837" d="M6.681,18.893c-.073-.036-1.121-.66-2.328-1.386A19.174,19.174,0,0,1,2.088,16.09l-.069-.1-.007-2.545c0-1.4,0-2.577.007-2.616a.371.371,0,0,1,.081-.15c.045-.052.841-.541,2.375-1.462A16.833,16.833,0,0,1,6.9,7.827a.439.439,0,0,1,.2.025c.045.019,1.086.637,2.313,1.373,1.729,1.038,2.247,1.358,2.308,1.429a.45.45,0,0,1,.1.205c.016.078.022.9.018,2.61-.007,2.781.006,2.556-.159,2.7-.043.038-1.1.681-2.346,1.429l-2.269,1.36H6.938A.54.54,0,0,1,6.681,18.893ZM6.427,15.75V13.888l-1.639-.983L3.065,11.87l-.085-.051v3.726L4.7,16.577c.945.568,1.72,1.033,1.723,1.033S6.427,16.774,6.427,15.75Zm2.762.8,1.668-1,.006-1.833c0-1.008,0-1.845,0-1.86s-.649.356-1.734,1.006L7.4,13.888v3.724l.061-.032C7.493,17.562,8.271,17.1,9.189,16.545Zm1.155-5.618c-.136-.092-3.409-2.044-3.427-2.044s-.795.463-1.739,1.03c-1.113.668-1.709,1.037-1.695,1.051s.79.482,1.728,1.045l1.706,1.024,1.733-1.04A10.268,10.268,0,0,0,10.344,10.927Z" class="aw-theme-iconOutline" fill="#464646"/>
    <path id="path839" d="M14.978,13.429V11.822h2.74l-.012-.282c-.011-.254-.055-.774-.094-1.121l-.015-.133-1.917,0-1.917-.006V5.282l.987-.006.987-.006-.175-.134a5.37,5.37,0,0,0-1.777-.846,4.468,4.468,0,0,0-.676-.136h-.053V5.392H8.084V2.033h4.972V3.15l.311.05a6.279,6.279,0,0,1,1.866.6A6.372,6.372,0,0,1,16.927,5l.3.286h3.119v4.994h-.86a7.463,7.463,0,0,0-.874.022,1.838,1.838,0,0,0,.019.326c.018.167.04.394.048.5l.015.2-.2.232c-.112.127-.418.448-.682.712l-.48.48H15.907v1.382l-.26.254-.464.452-.205.2Zm4.464-5.651V6.209H14.669V9.347h4.773ZM12.128,3.723V2.961H8.99v.748c0,.411.007.754.015.762s.714.015,1.569.015h1.554Z" class="aw-theme-iconOutline" fill="#464646"/>
    <path id="path829" d="M10.507,23.966a.548.548,0,0,1-.271-.222c-.034-.065-.035-.094-.01-.209.037-.167.818-2.512,1.078-3.237l.194-.54.281-.284c.948-.957,7.234-7.051,8.227-7.976.876-.816.949-.859,1.432-.86a.972.972,0,0,1,.624.191,15.454,15.454,0,0,1,1.544,1.436,1.157,1.157,0,0,1,.408.78.916.916,0,0,1-.012.38,1.127,1.127,0,0,1-.371.673c-.506.513-3.573,3.5-6.761,6.582l-2.068,2-1.467.486c-2.421.8-2.631.863-2.828.8Zm1.593-1.3a9.1,9.1,0,0,0,1.387-.46A12.57,12.57,0,0,0,12.171,20.9a5.715,5.715,0,0,0-.413,1.126c-.253.754-.272.815-.252.815C11.511,22.838,11.778,22.759,12.1,22.662Zm2.349-.945c.005-.01.235-.234.511-.5.785-.747,1.652-1.582,3.225-3.1.8-.772,1.889-1.829,2.427-2.348s.976-.952.976-.961c0-.024-1.336-1.318-1.581-1.531l-.225-.2-.122.116c-2.076,1.981-5.021,4.831-6.457,6.249L12.644,20l.877.869c.483.478.888.869.9.869A.034.034,0,0,0,14.449,21.717Zm8.344-8.079a2.021,2.021,0,0,0,.251-.3c.04-.084.039-.089-.016-.192a10.1,10.1,0,0,0-1.427-1.42c-.165-.121-.215-.122-.379-.009a5.887,5.887,0,0,0-.731.685c0,.014.405.411.892.882l.884.855.158-.14c.087-.077.252-.238.368-.357Z" class="aw-theme-iconOutline" fill="#464646"/>
    <path id="path856-3" d="M6.061-.014,0,5.986v15H9.359l1.084-1.014H.951V6.986H7V1H23V8.948l1,.746V-.014H6.061ZM6,5.986l-4.6.025L6,1.486Z" class="aw-theme-iconOutline" fill="#464646"/>
  </g>
</svg>
