<svg id="Livello_1" data-name="Livello 1" xmlns="http://www.w3.org/2000/svg" width="24" height="24" viewBox="0 0 24 24">
  <g id="g946">
    <path id="rect2" d="M6.223,3.854h.559v.278H6.223Z" fill="#464646"/>
    <path id="rect4" d="M10.836,1.2h.279v.561h-.279Z" fill="#464646"/>
    <path id="rect6" d="M6.223,8.053h.559V8.33H6.223Z" fill="#464646"/>
    <path id="rect8" d="M7.34,8.053H7.9V8.33H7.34Z" fill="#464646"/>
    <path id="polygon10" d="M11.255,3.854h-.14V3.433h-.279v.421H10.7v.278h.56Z" fill="#464646"/>
    <path id="rect12" d="M10.836,2.314h.279v.56h-.279Z" fill="#464646"/>
    <path id="rect14" d="M10.836,4.552h.279v.561h-.279Z" fill="#464646"/>
    <path id="rect16" d="M7.34,3.854H7.9v.278H7.34Z" fill="#464646"/>
    <path id="rect18" d="M8.459,3.854h.559v.278H8.459Z" fill="#464646"/>
    <path id="rect20" d="M9.577,3.854h.559v.278H9.577Z" fill="#464646"/>
    <path id="rect22" d="M5.244,1.2h.278v.561H5.244Z" fill="#464646"/>
    <path id="rect24" d="M11.814,3.854h.559v.278h-.559Z" fill="#464646"/>
    <path id="rect26" d="M16.429,1.2h.278v.561h-.278Z" fill="#464646"/>
    <path id="rect28" d="M12.934,3.854h.559v.278h-.559Z" fill="#464646"/>
    <path id="rect30" d="M5.244,16.869h.278v.42H5.244Z" fill="#464646"/>
    <path id="rect32" d="M8.459,12.95h.559v.279H8.459Z" fill="#464646"/>
    <path id="rect34" d="M7.34,12.95H7.9v.279H7.34Z" fill="#464646"/>
    <path id="path36" d="M2.854,16.3a1.6,1.6,0,0,0,2.424-2.069l1.937-2.619,1.584.3a1.581,1.581,0,0,0,2.038,1.6v.558h.279v-.561h-.269a1.576,1.576,0,0,0,.7-.423,1.606,1.606,0,0,0,.117-2.059l1.868-2.671,1.652.376a1.584,1.584,0,1,0,.471-1.087A1.575,1.575,0,0,0,15.393,8L14,7.685,15.52,5.52a1.6,1.6,0,0,0,1.563-2.686A1.591,1.591,0,0,0,14.4,3.855H14.05v.278h.344a1.589,1.589,0,0,0,.452.988L13.182,7.5l-1.2-.271a1.6,1.6,0,1,0-3.013.688L6.857,10.775l-1.275-.244a1.593,1.593,0,1,0-.426.958,1.658,1.658,0,0,0,.18-.234v0l1.019.194L4.667,13.735A1.6,1.6,0,0,0,2.854,16.3ZM16.222,8.218v0a.8.8,0,1,1,1.116,1.136.8.8,0,0,1-1.116-1.139ZM15.4,3.447a.8.8,0,1,1,.029,1.126A.792.792,0,0,1,15.4,3.447Zm-4.439,9.087a.8.8,0,1,1-.029-1.126A.789.789,0,0,1,10.965,12.534ZM9.829,6.62v0a.8.8,0,0,1,1.358.574l-.07.311a.815.815,0,0,1-.172.251A.8.8,0,0,1,9.829,6.62ZM9.5,8.524a1.609,1.609,0,0,0,2.006-.19,1.574,1.574,0,0,0,.273-.373l.93.212-1.656,2.368a1.578,1.578,0,0,0-1.828.344,1.547,1.547,0,0,0-.22.3l-1.292-.247ZM4.573,10.936A.8.8,0,1,1,4.544,9.81.791.791,0,0,1,4.573,10.936ZM3.437,14.615h0a.8.8,0,1,1-.009,1.126A.794.794,0,0,1,3.437,14.615Z" fill="#464646"/>
    <path id="rect38" d="M2.867,12.95h.558v.279H2.867Z" fill="#464646"/>
    <path id="rect40" d="M16.429,5.672h.278v.559h-.278Z" fill="#464646"/>
    <path id="rect42" d="M1.887,12.95h.42v.279h-.42Z" fill="#464646"/>
    <path id="path44" d="M9.976,18.021h-9V.49A.489.489,0,0,0,.489,0H.483A.492.492,0,0,0,0,.49v18a.489.489,0,0,0,.488.49H9.975v-.957Z" fill="#464646"/>
    <path id="rect46" d="M1.887,3.854h.42v.278h-.42Z" fill="#464646"/>
    <path id="rect48" d="M1.887,8.053h.42V8.33h-.42Z" fill="#464646"/>
    <path id="rect50" d="M5.244,6.792h.278v.562H5.244Z" fill="#464646"/>
    <path id="rect52" d="M10.836,9.033h.279v.56h-.279Z" fill="#464646"/>
    <path id="rect54" d="M5.244,2.314h.278v.56H5.244Z" fill="#464646"/>
    <path id="rect56" d="M5.244,5.672h.278v.559H5.244Z" fill="#464646"/>
    <path id="rect58" d="M5.244,3.433h.278v.56H5.244Z" fill="#464646"/>
    <path id="rect60" d="M5.244,4.552h.278v.561H5.244Z" fill="#464646"/>
    <path id="rect62" d="M5.244,7.912h.278v.56H5.244Z" fill="#464646"/>
    <path id="rect64" d="M2.867,3.854h.558v.278H2.867Z" fill="#464646"/>
    <path id="rect66" d="M3.985,3.854h.56v.278h-.56Z" fill="#464646"/>
    <path id="rect68" d="M2.867,8.053h.558V8.33H2.867Z" fill="#464646"/>
    <path id="rect70" d="M3.985,8.053h.56V8.33h-.56Z" fill="#464646"/>
    <path id="path824" d="M17.6,16.943s-.034-.214-.074-.469c-.066-.413-.072-.465-.054-.473s.307-.052.656-.105c.73-.111.708-.107.7-.122s-.075-.066-.158-.133a3.668,3.668,0,0,0-1.785-.846,2.119,2.119,0,0,0-.821.076,2.453,2.453,0,0,0-.509.265,3.189,3.189,0,0,0-.9,1.115c-.04.077-.075.142-.077.145s-.827-.431-.853-.449c0,0,.044-.074.257-.4a3.481,3.481,0,0,1,1.58-1.539,3.548,3.548,0,0,1,.8-.184,2.709,2.709,0,0,1,.693.013,5.155,5.155,0,0,1,2.084,1.014.733.733,0,0,0,.169.107c0-.008-.04-.289-.092-.625s-.092-.612-.089-.615.216-.038.473-.077l.467-.072.226,1.461c.124.8.224,1.463.222,1.465s-.644.1-1.427.221-1.439.222-1.458.226a.093.093,0,0,1-.036,0Z" fill="#464646"/>
    <path id="path3-5" d="M17.5,24a6.487,6.487,0,1,1,.026,0H17.5m0-12A5.5,5.5,0,1,0,23,17.5,5.5,5.5,0,0,0,17.5,12" fill="#464646"/>
    <path id="circle5-7" d="M17,19.251A1.75,1.75,0,1,1,15.251,17.5h0A1.75,1.75,0,0,1,17,19.251Z" fill="#464646"/>
    <path id="circle5-4" d="M19.762,17.508a1.76,1.76,0,1,0,.024,0Zm.012,1h.01a.75.75,0,0,1,.75.75h0a.75.75,0,1,1-.76-.75Z" fill="#464646"/>
  </g>
</svg>
