<svg id="svg8" xmlns="http://www.w3.org/2000/svg" viewBox="0 0 24 24">
  <g id="g830">
    <path id="rect882" d="M2.5,11.5h7v1h-7Z" class="aw-theme-iconOutline" fill="#464646"/>
    <path id="path828" d="M14,4v7H24V4Zm1,1h8v5H15Z" class="aw-theme-iconOutline" fill="#464646"/>
    <path id="path828-0" d="M14,13v7H24V13Zm1,1h8v5H15Z" class="aw-theme-iconOutline" fill="#464646"/>
    <path id="path852" d="M6,6a6,6,0,1,0,6,6A6,6,0,0,0,6,6ZM6,7.2A4.8,4.8,0,0,1,10.8,12v0A4.8,4.8,0,0,1,6,16.8H6A4.8,4.8,0,0,1,1.2,12v0A4.8,4.8,0,0,1,6,7.2Z" class="aw-theme-iconOutline" fill="#464646"/>
    <path id="rect882-1" d="M6.5,8.5v7h-1v-7Z" class="aw-theme-iconOutline" fill="#464646"/>
    <path id="rect973" d="M5.5,0H24V1H5.5Z" class="aw-theme-iconOutline" fill="#464646"/>
    <path id="rect899-5" d="M5.5,1h1V6.305h-1Z" class="aw-theme-iconOutline" fill="#464646"/>
    <path id="rect973-7" d="M5.5,24H24V23H5.5Z" class="aw-theme-iconOutline" fill="#464646"/>
    <path id="rect899-5-1" d="M5.5,23.115h1v-5.5h-1Z" class="aw-theme-iconOutline" fill="#464646"/>
  </g>
</svg>
