<svg id="svg8" xmlns="http://www.w3.org/2000/svg" viewBox="0 0 24 24">
  <g id="g828">
    <path id="path881" d="M.48,17h.827l.019-.38a13.143,13.143,0,0,1,.588-3.093A9.634,9.634,0,0,1,4.119,9.8a1.115,1.115,0,0,0,.305-.444A1.216,1.216,0,0,0,4.309,8.4c-.039-.054-.216-.258-.394-.453A9.733,9.733,0,0,1,1.69,3.687,13.01,13.01,0,0,1,1.317,1.2V.987H.6C.163.987.021.765.014.515S.123.022.582,0L6.5.019c6.082.019,6.042-.054,6.132.005.224-.024.367.267.372.465S12.843,1,12.637,1c-.316.007-.622-.016-.938-.009l-.021.3A10.854,10.854,0,0,1,9.057,7.978c-.159.168-.327.356-.373.417a1.112,1.112,0,0,0-.167.685c.039.345.094.445.458.838a8.016,8.016,0,0,1,.917,1.147A10.119,10.119,0,0,1,11.04,13.43l.167.489-.129.261c-.07.143-.2.412-.277.6a2.872,2.872,0,0,1-.159.328c0-.005-.081-.269-.169-.587a9.888,9.888,0,0,0-1.058-2.542,8.078,8.078,0,0,0-1.033-1.359A1.972,1.972,0,0,1,7.7,8.894a1.649,1.649,0,0,1,.1-.672,2.244,2.244,0,0,1,.551-.813,8.441,8.441,0,0,0,1.91-3.2,10.988,10.988,0,0,0,.565-2.891l.009-.281H2.176l-.01.172a10.7,10.7,0,0,0,.511,2.847A8.568,8.568,0,0,0,4.62,7.386a2.012,2.012,0,0,1,.685,1.507,2.119,2.119,0,0,1-.143.941,2.206,2.206,0,0,1-.549.777,9.2,9.2,0,0,0-2.277,4.673,10.158,10.158,0,0,0-.176,1.477v.226H3.774C9,17,6.611,17,9.319,16.987h.958l0,.5v.5H5.3C1.079,17.986,1,18,.48,18a.45.45,0,0,1-.455-.485A.46.46,0,0,1,.48,17Z" class="aw-theme-iconOutline" fill="#464646"/>
    <path id="path2-8" d="M17.5,24a6.486,6.486,0,1,1,.028,0Zm0-12A5.5,5.5,0,1,0,23,17.5h0A5.549,5.549,0,0,0,17.5,12Z" class="aw-theme-iconOutline" fill="#464646"/>
    <path id="polygon4" d="M19.6,14.6l-2.1,2.2-2.1-2.2-.8.8,2.2,2.1-2.2,2.1.8.8,2.1-2.2,2.1,2.2.8-.8-2.2-2.1,2.2-2.1Z" class="aw-theme-iconOutline" fill="#464646"/>
  </g>
</svg>
