<svg id="Artwork" xmlns="http://www.w3.org/2000/svg" viewBox="0 0 24 24">
  <g id="g832">
    <path id="path819" d="M10.041,20.991A11.363,11.363,0,0,1,6.05,19.88a10.671,10.671,0,0,1-5.8-7.208,7.924,7.924,0,0,1-.2-2.121A7.888,7.888,0,0,1,.262,8.366,10.607,10.607,0,0,1,2.279,4.205,16.471,16.471,0,0,1,3.875,2.6,11.372,11.372,0,0,1,9.206.215a11.917,11.917,0,0,1,5.419.4c.267.079.49.148.495.152s-.381.846-.4.846-.1-.033-.2-.073a11.186,11.186,0,0,0-1.576-.391A11.668,11.668,0,0,0,8.8,1.241,10.443,10.443,0,0,0,4.516,3.279,9.566,9.566,0,0,0,1.29,8.267a9.223,9.223,0,0,0,.838,6.7A10.032,10.032,0,0,0,5.463,18.5a10.5,10.5,0,0,0,5.13,1.585l.545.024v.923l-.387,0c-.213,0-.532-.018-.71-.035Z" class="aw-theme-iconOutline" fill="#464646"/>
    <path id="path821" d="M21.077,10.344A8.525,8.525,0,0,0,21.03,9.4a9.4,9.4,0,0,0-1.868-4.476A13.638,13.638,0,0,0,17.618,3.31L17.5,3.229V6.218h-.971V1.8h4.638V2.73H18.4l.568.567a10.234,10.234,0,0,1,1.808,2.327,10.365,10.365,0,0,1,1.2,3.47,11.151,11.151,0,0,1,.075,1.775L22.029,11h-.95l0-.656Z" class="aw-theme-iconOutline" fill="#464646"/>
    <path id="path823" d="M13.984,23.908a1.458,1.458,0,0,1-.673-.527c-.239-.36-.232-.231-.232-4.082v-3.48l.764-.009.764-.01.023-.845a3.648,3.648,0,0,1,2.332-3.66,3.991,3.991,0,0,1,2.913,0A3.759,3.759,0,0,1,22.108,13.8a4.437,4.437,0,0,1,.1,1.151l.021.845.889.01.89.009v3.406c0,2.172-.014,3.489-.037,3.635a1.577,1.577,0,0,1-.112.375,1.561,1.561,0,0,1-.652.623l-.223.1-4.405.008c-4.268.007-4.41.005-4.6-.062Zm8.851-.939a.3.3,0,0,0,.128-.128c.028-.062.04-.96.04-3.07V16.789H14.085l.009,3.041.01,3.041.085.069c.082.067.2.069,4.322.069,3.028,0,4.262-.012,4.324-.04ZM21.2,15a2.707,2.707,0,0,0-.113-1.106,2.672,2.672,0,0,0-.688-1.078,2.8,2.8,0,0,0-3.957,0,2.668,2.668,0,0,0-.688,1.078A2.737,2.737,0,0,0,15.639,15l-.013.818H21.21Z" class="aw-theme-iconOutline" fill="#464646"/>
    <path id="path825" d="M18.113,21.058v-.44l-.155-.064a1.221,1.221,0,0,1-.31-.213,1.171,1.171,0,0,1,.384-1.9.929.929,0,0,1,.477-.085.946.946,0,0,1,.522.1,1.211,1.211,0,0,1,.643,1.474,1.253,1.253,0,0,1-.573.62l-.2.1V21.5h-.791Zm.642-1.192a.394.394,0,0,0,.185-.378.422.422,0,0,0-.823-.091.434.434,0,0,0,.128.446A.555.555,0,0,0,18.755,19.866Z" class="aw-theme-iconOutline" fill="#464646"/>
    <path id="polygon4" d="M6.038,12v-.95h4.933L11.038,4h1.05l-.05,8Z" class="aw-theme-iconOutline" fill="#464646"/>
  </g>
</svg>
