<svg id="Layer_1" data-name="Layer 1" xmlns="http://www.w3.org/2000/svg" viewBox="0 0 24 24">
  <g id="g880">
    <path id="path831" d="M0,8.92V7.852l.058-.078a.492.492,0,0,1,.156-.127c.1-.049.1-.05.432-.05.37,0,.425-.013.534-.122.127-.127.122-.087.134-1.163a9.766,9.766,0,0,1,.041-1.151,3.882,3.882,0,0,1,1.1-2.176,3.55,3.55,0,0,1,1.112-.764l.2-.088,0-.234.005-.234H7.065l0,.21,0,.211.162.059a3.814,3.814,0,0,1,1.038.6,4.733,4.733,0,0,1,.6.629,3.949,3.949,0,0,1,.675,1.415A5.092,5.092,0,0,1,9.671,6.3c.01.967.011.981.05,1.054a.5.5,0,0,0,.255.219,2.305,2.305,0,0,0,.391.022c.359,0,.413.013.526.126S11,7.8,11,8.945V9.988H0Zm10.157-.091V8.5h-.1A1.294,1.294,0,0,1,8.846,7.471,4.418,4.418,0,0,1,8.81,6.48c0-.461-.009-.922-.019-1.025a2.983,2.983,0,0,0-1.224-2.14,2.57,2.57,0,0,0-.482-.266c-.014,0-.019.733-.019,2.6v2.6H6.2V2.887H4.657V8.245H3.776V5.674c0-1.414,0-2.571-.009-2.571s-.085.045-.177.1A2.985,2.985,0,0,0,2.249,5.149,6.463,6.463,0,0,0,2.187,6.5a3.729,3.729,0,0,1-.045,1,1.582,1.582,0,0,1-.268.523A1.292,1.292,0,0,1,.94,8.5H.846v.665h9.312Z" class="aw-theme-iconOutline" fill="#464646"/>
    <path id="path833" d="M14.6,10.094a1.555,1.555,0,0,1-1.271-1.142,1.275,1.275,0,0,1-.041-.429,1.31,1.31,0,0,1,.116-.647C13.484,7.7,17.176.93,17.28.773a1.7,1.7,0,0,1,.969-.685A2.164,2.164,0,0,1,19.074.1a1.7,1.7,0,0,1,.952.682c.043.067.928,1.68,1.967,3.584C23.28,6.722,23.9,7.874,23.935,7.979a1.63,1.63,0,0,1-.376,1.683,1.526,1.526,0,0,1-.7.4l-.136.039-4.009,0C16.5,10.109,14.659,10.1,14.6,10.094Zm8.137-.973a.666.666,0,0,0,.3-.316.762.762,0,0,0,.031-.491c-.029-.086-3.655-6.75-3.787-6.958a.731.731,0,0,0-.318-.273.534.534,0,0,0-.317-.056.518.518,0,0,0-.32.059c-.239.118-.112-.1-2.173,3.681-1.036,1.9-1.892,3.475-1.9,3.5a.74.74,0,0,0-.034.354.633.633,0,0,0,.461.535c.039.009,1.751.015,4.014.013l3.946,0Z" class="aw-theme-iconOutline" fill="#464646"/>
    <path id="path835" d="M18.186,4.721V2.851h.934v3.74h-.934Z" class="aw-theme-iconOutline" fill="#464646"/>
    <path id="path839" d="M18.284,23.984a4.36,4.36,0,0,1-2.373-.912,5.932,5.932,0,0,1-.751-.739,5,5,0,0,1-1.073-2.715c-.01-.109-.018-.7-.018-1.308V17.2H13.4V15.007h.665V13.389h9.312v1.654h.7v2.193h-.7v1.038a10.244,10.244,0,0,1-.073,1.746,4.868,4.868,0,0,1-1.355,2.673,4.351,4.351,0,0,1-2.734,1.284c-.2.017-.76.021-.935.007Zm1.106-.914A3.27,3.27,0,0,0,22.1,21.04a5.14,5.14,0,0,0,.339-1.341c.026-.2.03-.523.036-2.775a20.985,20.985,0,0,0-.024-2.584,34.11,34.11,0,0,0-3.713-.034H15.058l-.01.04c-.021.083,0,5.086.025,5.245a5.1,5.1,0,0,0,.4,1.492A3.387,3.387,0,0,0,18.311,23.1,6.614,6.614,0,0,0,19.39,23.07Z" class="aw-theme-iconOutline" fill="#464646"/>
    <path id="path841" d="M16.487,18.2a.86.86,0,0,1-.538-.429c-.1-.2-.1-.241-.1-1.131,0-.531.007-.856.019-.918a.856.856,0,0,1,.642-.659c.134-.028,4.385-.028,4.52,0a.83.83,0,0,1,.609.546c.043.108.043.109.049.964.006.937,0,.99-.1,1.2a.851.851,0,0,1-.578.435c-.149.028-4.406.022-4.523-.007Zm4.449-1.539V16H16.729v1.33h4.207Z" class="aw-theme-iconOutline" fill="#464646"/>
    <path id="path2-3" d="M1.256,16.164a1.242,1.242,0,0,1,1.233-1.071,1.269,1.269,0,0,1,1.831-.835,1.269,1.269,0,0,1,1.327-.748,1.236,1.236,0,0,1,.792.416,1.293,1.293,0,0,1,.875-.217,1.2,1.2,0,0,1,1.084,1.3l0,.023L8,18.21c.187-1.444-.8.96-.293-.218.179-.477.185-1.269,1.505-1.11.679.239.9.48.753,1.794-.175,1.031-.187,1.037-.854,4.3h0a9.768,9.768,0,0,1-5.041,1c-1.85-.225-2.388-.625-2.52-.917l-.047-.1.1-.724a1.249,1.249,0,0,0-.063-.676,9.6,9.6,0,0,1-.378-4.613Zm1.13-.242a.406.406,0,0,0-.3.333l-.1.761A8.6,8.6,0,0,0,2.3,21.21a2.02,2.02,0,0,1,.13,1.105l-.054.429a5.965,5.965,0,0,0,1.792.419A14.578,14.578,0,0,0,8.152,22.5l.216-.786c.34-1.376.332-1.366.628-2.84.036-.215.22-.791-.181-.968-.293-.13-.484.618-1.016,1.6l-.787-.161.554-4.406a.375.375,0,0,0-.325-.422l-.027,0a.439.439,0,0,0-.479.361l-.251,2.006-.83-.1.245-2a.407.407,0,0,0-.351-.461h0a.427.427,0,0,0-.479.36L4.816,16.7l-.831-.1.153-1.223a.409.409,0,0,0-.373-.446.415.415,0,0,0-.457.347l-.2,1.614-.831-.1Z" class="aw-theme-iconOutline" fill="#464646"/>
    <path id="rect826" d="M11.5,0h1V24h-1Z" class="aw-theme-iconOutline" fill="#464646"/>
    <path id="rect826-7" d="M24,11.5v1H0v-1Z" class="aw-theme-iconOutline" fill="#464646"/>
    <path id="path837" d="M18.457,8.147a.7.7,0,0,1-.433-.461.678.678,0,0,1,.15-.587.842.842,0,0,1,.178-.133.431.431,0,0,1,.292-.061.492.492,0,0,1,.282.05.718.718,0,0,1,.319.346.743.743,0,0,1,0,.466.694.694,0,0,1-.316.342A.732.732,0,0,1,18.457,8.147Z" class="aw-theme-iconOutline" fill="#464646"/>
    <path id="path847-1" d="M2,18.944a1.376,1.376,0,0,0-.488.115,1.28,1.28,0,0,0-.26.166l.226,2.127a1.187,1.187,0,0,0,.159.071c.078.023.693.109,1.644.228l1.906.24a1.622,1.622,0,0,0,1.116-.074.951.951,0,0,0,.3-.219,1.144,1.144,0,0,0,.359-.779,1.2,1.2,0,0,0-.031-.562,1.211,1.211,0,0,0-.776-.778C6.041,19.443,2.17,18.944,2,18.944Zm0,.912c.173,0,3.805.473,3.857.5A.324.324,0,0,1,6,20.725a.308.308,0,0,1-.166.25.331.331,0,0,1-.164.035c-.052,0-.921-.107-1.93-.234-2.032-.256-1.954-.241-2.037-.385a.259.259,0,0,1-.031-.193.329.329,0,0,1,.09-.244A.3.3,0,0,1,2,19.856Z" class="aw-theme-iconOutline" fill="#464646"/>
  </g>
</svg>
