<svg id="Layer_1" data-name="Layer 1" xmlns="http://www.w3.org/2000/svg" viewBox="0 0 24 24">
  <g id="g848">
    <path id="path842" d="M9.139,21.941a10.469,10.469,0,0,1-2.267-1.108A14.025,14.025,0,0,1,4.507,18.94,15.015,15.015,0,0,1,.063,9.033C.042,8.756.026,7.4.026,6.018.026,3.222.015,3.34.27,3.2c.112-.062.224-.077.708-.1a14.553,14.553,0,0,0,7.5-2.47c.184-.124.43-.3.546-.387.3-.228.474-.244.723-.065.425.306,1.214.821,1.543,1.01a14.6,14.6,0,0,0,6.622,1.917c.675.03.745.052.881.27.071.113.072.166.056,3.027a25.942,25.942,0,0,1-.151,4.054c-.014.114-.041.207-.06.207s-.191-.047-.382-.105-.391-.114-.446-.126c-.117-.026-.117-.021-.045-.608A30.576,30.576,0,0,0,17.9,6.15V4.13l-.153-.019c-.084-.01-.371-.036-.638-.058A15.624,15.624,0,0,1,9.919,1.492l-.48-.319-.545.358a15.493,15.493,0,0,1-7.353,2.53L.99,4.105l.016,2.428a19.687,19.687,0,0,0,.226,4.018,13.9,13.9,0,0,0,2.593,6.131A14.1,14.1,0,0,0,7.2,19.855a8.944,8.944,0,0,0,2.042,1.064c.21.064.212.064.486-.026a6.528,6.528,0,0,0,1.129-.522l.113-.08.11.139c.061.077.205.251.322.388s.2.261.179.278a8.484,8.484,0,0,1-1.271.645C9.639,22.005,9.478,22.033,9.139,21.941Z" class="aw-theme-iconOutline" fill="#464646"/>
    <path id="path844" d="M17.221,23.931a6.1,6.1,0,1,1,6.744-6.44l.024.477h-.947l-.019-.225c-.011-.124-.03-.346-.042-.493a5.64,5.64,0,0,0-.357-1.385A5.081,5.081,0,0,0,18.812,12.8a6.3,6.3,0,0,0-1.87,0,5.1,5.1,0,0,0-4.105,4.049,7.3,7.3,0,0,0,0,2.014,5.1,5.1,0,0,0,4.446,4.1,5.161,5.161,0,0,0,3.92-1.2A3.889,3.889,0,0,0,21.886,21c0-.036-.2-.046-.935-.046h-.935v-.935h3.236v3.2h-.97v-.539a2.873,2.873,0,0,0-.026-.54,1.343,1.343,0,0,0-.225.195,6.363,6.363,0,0,1-2.144,1.291A6.143,6.143,0,0,1,17.221,23.931Z" class="aw-theme-iconOutline" fill="#464646"/>
  </g>
  <path id="path838" d="M7.288,12.859c-.959-1.158-1.747-2.117-1.751-2.131L6.328,10l1.25,1.511c.687.831,1.456,1.725,1.468,1.724s1.54-1.93,3.221-4.022l3.055-3.8.838.708c.011.027-7.057,8.822-7.1,8.837C9.044,14.959,8.247,14.016,7.288,12.859Z" class="aw-theme-iconOutline" fill="#464646"/>
  <path id="polygon4" d="M15,18h3V14h1v5H15Z" class="aw-theme-iconOutline" fill="#464646"/>
</svg>
