<svg id="Layer_1" data-name="Layer 1" xmlns="http://www.w3.org/2000/svg" viewBox="0 0 24 24">
  <g id="g858">
    <path id="path840" d="M17.785,17.45a3.489,3.489,0,0,1-2.059-3.06,2.138,2.138,0,0,1,.336-1.246,2.615,2.615,0,0,1,3.027-1.2,3.009,3.009,0,0,1,1.265.885,2.7,2.7,0,0,1,.108,3.074C19.81,17.155,18.732,17.777,17.785,17.45Zm1.09-.921a2.273,2.273,0,0,0,1-1.376,2.827,2.827,0,0,0-.012-1.53,1.477,1.477,0,0,0-1.249-.85c-1.27-.146-1.972.429-1.972,1.615a2.315,2.315,0,0,0,1.322,2.245A1.562,1.562,0,0,0,18.875,16.529Z" class="aw-theme-iconOutline" fill="#464646"/>
    <path id="path834" d="M6.582,7.989C5,6.369,5,6.365,5,6.147V5.928l1.6-1.6,1.6-1.6.332.329a1.988,1.988,0,0,1,.331.381c0,.028-.5.549-1.105,1.158L6.653,5.7h8.33v.966H11.432c-3.074,0-4.652.018-4.652.051a13.265,13.265,0,0,0,.9.98c.5.511.97,1,1.053,1.094l.15.165-.327.33a2.673,2.673,0,0,1-.36.329C8.179,9.611,7.452,8.881,6.582,7.989Z" class="aw-theme-iconOutline" fill="#464646"/>
    <path id="path844" d="M12.19,14.865l-.343-.343,1.131-1.131,1.131-1.132H6v-.966H9.331c2.573,0,4.652-.02,4.652-.044s-.48-.536-1.067-1.138L11.849,9.017l.392-.339.392-.338,1.59,1.592c1.44,1.443,1.591,1.609,1.591,1.76a.737.737,0,0,1-.057.278c-.054.108-3.146,3.238-3.2,3.238A3.75,3.75,0,0,1,12.19,14.865Z" class="aw-theme-iconOutline" fill="#464646"/>
    <path id="path846" d="M0,8.722V-.1H11V3.815H9.995V.917H1v15.61h8.99v-2.9H11v3.916H0Z" class="aw-theme-iconOutline" fill="#464646"/>
    <path id="path836" d="M14.815,21.992V19.983h.966V24h-.966Z" class="aw-theme-iconOutline" fill="#464646"/>
    <path id="path838" d="M12.945,21.623c.016-2.324.021-2.44.124-2.712a3.312,3.312,0,0,1,1.676-1.85,1.727,1.727,0,0,1,.468-.179,1.481,1.481,0,0,1,.457.2,5.547,5.547,0,0,0,2.149.823,5.11,5.11,0,0,0,3.008-.769,2.24,2.24,0,0,1,.562-.252,4.491,4.491,0,0,1,1.151.553,3.655,3.655,0,0,1,1.29,1.574c.105.277.11.379.126,2.64L23.972,24h-.916l-.015-2.377-.015-2.377-.157-.28a2.734,2.734,0,0,0-1.1-.942l-.351-.184-.469.231a7.352,7.352,0,0,1-1.727.6l-.344.063.026.156c.056.337.484,3.757.472,3.766L18.888,23l-.478.334-.337-.237c-.186-.131-.406-.288-.489-.348l-.15-.11.218-1.721c.12-.946.232-1.814.247-1.928l.028-.208-.367-.06a5.022,5.022,0,0,1-1.636-.6l-.645-.331-.268.144a2.433,2.433,0,0,0-.99.995l-.147.32-.016,2.4L13.843,24h-.915Z" class="aw-theme-iconOutline" fill="#464646"/>
    <path id="path848" d="M21.069,21.992V19.983h.966V24h-.966Z" class="aw-theme-iconOutline" fill="#464646"/>
    <path id="path842" d="M7.008,11.455c1.3-.008,3.4-.008,4.678,0s.217.013-2.355.013S5.713,11.462,7.008,11.455Z" class="aw-theme-iconOutline" fill="#464646"/>
  </g>
</svg>
