<svg id="Image" xmlns="http://www.w3.org/2000/svg" viewBox="0 0 24 24">
  <g id="g822">
    <path id="path870" d="M5.634,17.991l-.394-.037a5.782,5.782,0,0,1-4.123-2.067A5.741,5.741,0,0,1,.027,12.9a13.236,13.236,0,0,1,0-1.69A4.94,4.94,0,0,1,2.774,6.95a6.35,6.35,0,0,1,2.407-.589A6.716,6.716,0,0,1,9.993,7.787a11.591,11.591,0,0,1,2.033,2.3,1.945,1.945,0,0,0,.141.2,2.278,2.278,0,0,0,.171-.223l.161-.222.006,2.09.007,2.09-.22.313a8.4,8.4,0,0,1-3.251,3.058,6.087,6.087,0,0,1-1.792.56A13.411,13.411,0,0,1,5.634,17.991Zm.929-2.325c1.609-.2,2.709-1.072,4.245-3.366l.186-.278-.043-.075c-.077-.135-.57-.815-.8-1.1A7.494,7.494,0,0,0,8.61,9.393a4.952,4.952,0,0,0-1.681-.67,6.906,6.906,0,0,0-1.828,0,2.95,2.95,0,0,0-2.633,2.461,5.221,5.221,0,0,0,.115,2.462A3.04,3.04,0,0,0,5.164,15.64l.254.037A9.6,9.6,0,0,0,6.563,15.666Z" class="aw-theme-iconOutline" fill="#464646"/>
    <path id="path870-3" d="M18.357,17.991l.395-.037a5.782,5.782,0,0,0,4.123-2.067,5.741,5.741,0,0,0,1.09-2.991,13.236,13.236,0,0,0,0-1.69A4.94,4.94,0,0,0,21.218,6.95a6.35,6.35,0,0,0-2.407-.589A6.716,6.716,0,0,0,14,7.787a11.56,11.56,0,0,0-2.033,2.3,1.71,1.71,0,0,1-.142.2,2.583,2.583,0,0,1-.17-.223l-.161-.222-.007,2.09-.006,2.09.219.312a8.4,8.4,0,0,0,3.252,3.059,6.087,6.087,0,0,0,1.792.56A13.394,13.394,0,0,0,18.357,17.991Zm-.928-2.325c-1.609-.2-2.709-1.072-4.245-3.366L13,12.022l.043-.075c.077-.135.57-.815.8-1.1a7.494,7.494,0,0,1,1.545-1.455,4.952,4.952,0,0,1,1.681-.67,6.906,6.906,0,0,1,1.828,0,2.95,2.95,0,0,1,2.633,2.461,5.221,5.221,0,0,1-.115,2.462,3.04,3.04,0,0,1-2.581,1.994l-.254.037A9.6,9.6,0,0,1,17.429,15.666Z" class="aw-theme-iconOutline" fill="#464646"/>
  </g>
</svg>
