<svg version="1.1" id="Livello_1" xmlns="http://www.w3.org/2000/svg" xmlns:xlink="http://www.w3.org/1999/xlink" x="0px" y="0px"
	  viewBox="0 0 24 24" enable-background="new 0 0 24 24" xml:space="preserve">
<path class="aw-theme-iconOutline" fill="#464646" d="M3,17.133V24h17.988v-3.699h-0.976v2.721H3.977v-5.889H3z M3,0v8.551h0.977V0.977h10.179l5.867,6.076
	L20,16.4h0.977L21,6.661L14.569,0H3z"/>
<rect x="14" y="0.641" class="aw-theme-iconOutline" fill="#464646" width="1" height="6.359"/>
<rect x="14.041" y="6" class="aw-theme-iconOutline" fill="#464646" width="6.224" height="1"/>
<polygon class="aw-theme-iconOutline" fill="#464646" points="20.011,20.345 20.986,20.36 20.974,16.328 20,16.305 "/>
<path class="aw-theme-iconOutline" fill="#464646" d="M1.118,9h16.765v8H1.118V9z M0,18h19V8H0V18z"/>
<path class="aw-theme-iconOutline" fill="#464646" d="M4.019,13.504c0,0.656-0.152,1.158-0.456,1.508c-0.305,0.348-0.745,0.522-1.321,0.522
	c-0.257,0-0.496-0.044-0.714-0.134v-1.035c0.189,0.144,0.401,0.215,0.636,0.215c0.503,0,0.755-0.373,0.755-1.121v-2.911h1.101
	V13.504z"/>
<path class="aw-theme-iconOutline" fill="#464646" d="M4.446,15.261v-1.094c0.198,0.167,0.414,0.291,0.646,0.374c0.232,0.084,0.467,0.125,0.704,0.125
	c0.139,0,0.26-0.013,0.364-0.037c0.104-0.025,0.19-0.061,0.26-0.105c0.07-0.043,0.122-0.096,0.156-0.156s0.051-0.126,0.051-0.197
	c0-0.096-0.027-0.181-0.082-0.256s-0.129-0.145-0.224-0.209c-0.095-0.063-0.207-0.125-0.337-0.184c-0.13-0.06-0.27-0.12-0.42-0.182
	c-0.383-0.16-0.668-0.354-0.856-0.584c-0.188-0.23-0.282-0.509-0.282-0.834c0-0.256,0.051-0.475,0.154-0.658
	s0.242-0.334,0.418-0.453c0.177-0.118,0.381-0.205,0.614-0.261c0.232-0.057,0.479-0.084,0.738-0.084
	c0.255,0,0.481,0.016,0.678,0.046c0.197,0.031,0.379,0.078,0.545,0.142v1.022c-0.082-0.058-0.171-0.107-0.268-0.15
	c-0.097-0.044-0.197-0.079-0.299-0.107c-0.103-0.029-0.205-0.05-0.306-0.063c-0.101-0.014-0.197-0.021-0.289-0.021
	c-0.125,0-0.239,0.012-0.342,0.036c-0.103,0.023-0.189,0.057-0.26,0.101c-0.071,0.043-0.125,0.095-0.164,0.155
	s-0.058,0.128-0.058,0.203c0,0.082,0.021,0.156,0.065,0.221c0.043,0.065,0.105,0.127,0.185,0.185
	c0.08,0.059,0.177,0.115,0.291,0.171s0.243,0.113,0.386,0.173c0.196,0.082,0.372,0.169,0.528,0.262
	c0.156,0.092,0.29,0.196,0.402,0.313C7.556,13.268,7.641,13.4,7.7,13.551c0.059,0.148,0.089,0.322,0.089,0.521
	c0,0.273-0.052,0.503-0.155,0.688c-0.104,0.186-0.245,0.336-0.422,0.451s-0.384,0.197-0.621,0.248
	c-0.235,0.051-0.484,0.075-0.747,0.075c-0.269,0-0.525-0.022-0.767-0.068C4.834,15.42,4.624,15.352,4.446,15.261z"/>
<path class="aw-theme-iconOutline" fill="#464646" d="M10.247,15.534c-0.702,0-1.274-0.229-1.716-0.685c-0.442-0.457-0.663-1.053-0.663-1.786
	c0-0.775,0.225-1.401,0.673-1.88s1.043-0.718,1.784-0.718c0.7,0,1.265,0.229,1.696,0.687c0.434,0.458,0.648,1.063,0.648,1.812
	c0,0.771-0.225,1.392-0.671,1.862C11.551,15.299,10.967,15.534,10.247,15.534z M10.295,11.416c-0.387,0-0.695,0.146-0.923,0.436
	c-0.228,0.291-0.342,0.675-0.342,1.153c0,0.485,0.114,0.869,0.342,1.151c0.228,0.283,0.526,0.424,0.896,0.424
	c0.38,0,0.683-0.137,0.906-0.412c0.223-0.273,0.335-0.654,0.335-1.143c0-0.508-0.108-0.903-0.325-1.186
	C10.967,11.557,10.671,11.416,10.295,11.416z"/>
<path class="aw-theme-iconOutline" fill="#464646" d="M17.473,15.449h-1.113l-2.021-3.08c-0.117-0.18-0.199-0.315-0.246-0.406h-0.014
	c0.02,0.173,0.027,0.438,0.027,0.793v2.693h-1.041v-4.901h1.189l1.943,2.983c0.09,0.135,0.172,0.268,0.246,0.4h0.014
	c-0.018-0.114-0.027-0.339-0.027-0.674v-2.71h1.043V15.449z"/>
</svg>
