<svg id="Livello_2" data-name="Livello 2" xmlns="http://www.w3.org/2000/svg" viewBox="0 0 24 24">
  <g id="g1005">
    <path id="path914" d="M15.776,4.275V.563H17V7.987h-1.22Z" class="aw-theme-iconOutline" fill="#464646"/>
    <path id="path912" d="M9.522,4.271V.555l1.538.02a5.924,5.924,0,0,1,1.876.131,2.086,2.086,0,0,1,1.518,2.088,2.258,2.258,0,0,1-.71,1.755,2.878,2.878,0,0,1-2.226.726l-.776.033V7.987H9.522Zm2.4,0a1.293,1.293,0,0,0,1.266-1.366A1.139,1.139,0,0,0,12.535,1.7c-.273-.134-.342-.145-1.043-.162l-.75-.019V4.326h.42A6.828,6.828,0,0,0,11.926,4.274Z" class="aw-theme-iconOutline" fill="#464646"/>
    <path id="path910" d="M3.013,4.275V.563H4.232l.014,1.751.013,1.75L5.6,2.314,6.945.563h.712c.672,0,.707.005.635.089-.528.618-2.787,3.424-2.787,3.462s.7.921,2.579,3.225l.529.648H7.056l-1.4-1.839-1.4-1.839-.013,1.84L4.232,7.987H3.013Z" class="aw-theme-iconOutline" fill="#464646"/>
    <path id="path916" d="M3.547,21.871a.584.584,0,0,1-.3-.342.539.539,0,0,1,.23-.511c.067-.034,1.632-.533,3.478-1.108s3.5-1.093,3.669-1.148l.313-.1,1.8-2.774,1.8-2.773,3.356-2.732c1.846-1.5,3.546-2.885,3.777-3.072.353-.284.451-.339.61-.337a.44.44,0,0,1,.329.761c-.077.084-1.763,1.475-3.748,3.089l-3.608,2.936L13.4,16.606c-1.015,1.566-1.885,2.864-1.934,2.885-.147.062-7.737,2.428-7.779,2.425A.728.728,0,0,1,3.547,21.871Z" class="aw-theme-iconOutline" fill="#464646"/>
    <path id="path921" d="M20.561,1.5v.7h.348V1.5Z" class="aw-theme-iconOutline" fill="#464646"/>
    <path id="path877" d="M6.563,9.9v.7H6.91V9.9Z" class="aw-theme-iconOutline" fill="#464646"/>
    <path id="path871" d="M2.361,10.078v.348h.525v-.348Z" class="aw-theme-iconOutline" fill="#464646"/>
    <path id="path869" d="M3.588,10.078v.348h.7v-.348Z" class="aw-theme-iconOutline" fill="#464646"/>
    <path id="path867" d="M4.986,10.078v.348h.7v-.348Z" class="aw-theme-iconOutline" fill="#464646"/>
    <path id="path865" d="M7.787,10.078v.348h.7v-.348Z" class="aw-theme-iconOutline" fill="#464646"/>
    <path id="path863" d="M9.186,10.078v.348h.7v-.348Z" class="aw-theme-iconOutline" fill="#464646"/>
    <path id="path861" d="M13.561,11.305v.7h.35v-.7Z" class="aw-theme-iconOutline" fill="#464646"/>
    <path id="path855" d="M20.561,14.105v.7h.348v-.7Z" class="aw-theme-iconOutline" fill="#464646"/>
    <path id="path853" d="M20.561,15.506v.7h.348v-.7Z" class="aw-theme-iconOutline" fill="#464646"/>
    <path id="path851" d="M2.361,16.207v.35h.525v-.35Z" class="aw-theme-iconOutline" fill="#464646"/>
    <path id="path849" d="M3.588,16.207v.35h.7v-.35Z" class="aw-theme-iconOutline" fill="#464646"/>
    <path id="path847" d="M9.186,16.207v.35h.7v-.35Z" class="aw-theme-iconOutline" fill="#464646"/>
    <path id="path845" d="M10.586,16.207v.35h.7v-.35Z" class="aw-theme-iconOutline" fill="#464646"/>
    <path id="path843" d="M16.186,16.207v.35h.7v-.35Z" class="aw-theme-iconOutline" fill="#464646"/>
    <path id="path841" d="M17.584,16.207v.35h.7v-.35Z" class="aw-theme-iconOutline" fill="#464646"/>
    <path id="path839" d="M18.984,16.207v.35h.7v-.35Z" class="aw-theme-iconOutline" fill="#464646"/>
    <path id="path837" d="M20.385,16.207v.35h.7v-.35Z" class="aw-theme-iconOutline" fill="#464646"/>
    <path id="path835" d="M21.783,16.207v.35h.7v-.35Z" class="aw-theme-iconOutline" fill="#464646"/>
    <path id="path833" d="M20.561,16.908v.7h.348v-.7Z" class="aw-theme-iconOutline" fill="#464646"/>
    <path id="path829" d="M13.561,18.307v.7h.35v-.7Z" class="aw-theme-iconOutline" fill="#464646"/>
    <path id="path827" d="M20.561,18.307v.7h.348v-.7Z" class="aw-theme-iconOutline" fill="#464646"/>
    <path id="path825" d="M13.561,19.711v.7h.35v-.7Z" class="aw-theme-iconOutline" fill="#464646"/>
    <path id="path823" d="M20.561,19.711v.7h.348v-.7Z" class="aw-theme-iconOutline" fill="#464646"/>
    <path id="path819" d="M13.561,21.111v.525h.35v-.525Z" class="aw-theme-iconOutline" fill="#464646"/>
    <path id="path954" d="M20.561,21.111v.525h.348v-.525Z" class="aw-theme-iconOutline" fill="#464646"/>
    <path id="path893-4" d="M20.385,4.824v.348h.7V4.824Z" class="aw-theme-iconOutline" fill="#464646"/>
    <path id="path891-3" d="M21.786,4.824v.348h.7V4.824Z" class="aw-theme-iconOutline" fill="#464646"/>
    <path id="path925-9" d="M6.563,9.9v.7H6.91V9.9Z" class="aw-theme-iconOutline" fill="#464646"/>
    <path id="path919-0" d="M6.563,11.3V12H6.91v-.7Z" class="aw-theme-iconOutline" fill="#464646"/>
    <path id="path911-5" d="M6.563,12.7v.7H6.91v-.7Z" class="aw-theme-iconOutline" fill="#464646"/>
    <path id="path889-6" d="M6.563,14.1v.7H6.91v-.7Z" class="aw-theme-iconOutline" fill="#464646"/>
    <path id="path885-0" d="M6.563,15.506v.7H6.91v-.7Z" class="aw-theme-iconOutline" fill="#464646"/>
    <path id="path879-4" d="M6.563,16.906v.7H6.91v-.7Z" class="aw-theme-iconOutline" fill="#464646"/>
    <path id="path877-0" d="M6.563,18.308v.7H6.91v-.7Z" class="aw-theme-iconOutline" fill="#464646"/>
    <path id="path919-0-7" d="M16.858,10.081h-.7v.347h.7Z" class="aw-theme-iconOutline" fill="#464646"/>
    <path id="path911-5-7" d="M15.457,10.081h-.7v.347h.7Z" class="aw-theme-iconOutline" fill="#464646"/>
    <path id="path889-6-9" d="M14.057,10.081h-.7v.347h.7Z" class="aw-theme-iconOutline" fill="#464646"/>
    <path id="path885-0-2" d="M12.654,10.081h-.7v.347h.7Z" class="aw-theme-iconOutline" fill="#464646"/>
    <path id="path879-4-0" d="M11.254,10.081h-.7v.347h.7Z" class="aw-theme-iconOutline" fill="#464646"/>
    <path id="path877-0-0" d="M9.852,10.081h-.7v.347h.7Z" class="aw-theme-iconOutline" fill="#464646"/>
    <path id="path925-9-4-4" d="M13.89,20.406v-.7h-.347v.7Z" class="aw-theme-iconOutline" fill="#464646"/>
    <path id="path919-0-7-0" d="M13.89,19.006v-.7h-.347v.7Z" class="aw-theme-iconOutline" fill="#464646"/>
    <path id="path879-4-0-9" d="M13.89,13.4v-.7h-.347v.7Z" class="aw-theme-iconOutline" fill="#464646"/>
    <path id="path877-0-0-0" d="M13.89,12v-.7h-.347V12Z" class="aw-theme-iconOutline" fill="#464646"/>
    <path id="path919-0-7-7" d="M13.89,13.4v-.7h-.347v.7Z" class="aw-theme-iconOutline" fill="#464646"/>
    <path id="path911-5-7-4" d="M13.89,12v-.7h-.347V12Z" class="aw-theme-iconOutline" fill="#464646"/>
    <path id="path889-6-9-0" d="M13.89,10.6V9.9h-.347v.7Z" class="aw-theme-iconOutline" fill="#464646"/>
    <path id="path925-9-4-57" d="M20.883,4.293v.7h-.347v-.7Z" class="aw-theme-iconOutline" fill="#464646"/>
    <path id="path919-0-7-9" d="M20.883,5.693v.7h-.347v-.7Z" class="aw-theme-iconOutline" fill="#464646"/>
    <path id="path879-4-0-8" d="M20.883,11.3V12h-.347v-.7Z" class="aw-theme-iconOutline" fill="#464646"/>
    <path id="path877-0-0-18" d="M20.883,12.7v.7h-.347v-.7Z" class="aw-theme-iconOutline" fill="#464646"/>
    <path id="path911-5-7-5" d="M11.334,16.2h-.7v.347h.7Z" class="aw-theme-iconOutline" fill="#464646"/>
    <path id="path889-6-9-9" d="M9.934,16.2h-.7v.347h.7Z" class="aw-theme-iconOutline" fill="#464646"/>
    <path id="path885-0-2-6" d="M8.531,16.2h-.7v.347h.7Z" class="aw-theme-iconOutline" fill="#464646"/>
    <path id="path879-4-0-5" d="M7.131,16.2h-.7v.347h.7Z" class="aw-theme-iconOutline" fill="#464646"/>
    <path id="path877-0-0-9" d="M5.729,16.2h-.7v.347h.7Z" class="aw-theme-iconOutline" fill="#464646"/>
    <path id="path925-9-4-578" d="M23.9,16.186h-.7v.347h.7Z" class="aw-theme-iconOutline" fill="#464646"/>
    <path id="path919-0-7-2" d="M22.5,16.186h-.7v.347h.7Z" class="aw-theme-iconOutline" fill="#464646"/>
    <path id="path911-5-7-2" d="M21.1,16.186h-.7v.347h.7Z" class="aw-theme-iconOutline" fill="#464646"/>
    <path id="path889-6-9-5" d="M19.7,16.186H19v.347h.7Z" class="aw-theme-iconOutline" fill="#464646"/>
    <path id="path885-0-2-74" d="M18.3,16.186h-.7v.347h.7Z" class="aw-theme-iconOutline" fill="#464646"/>
    <path id="path879-4-0-6" d="M16.9,16.186h-.7v.347h.7Z" class="aw-theme-iconOutline" fill="#464646"/>
    <path id="path877-0-0-16" d="M15.5,16.186h-.7v.347h.7Z" class="aw-theme-iconOutline" fill="#464646"/>
    <path id="path925-9-4-8" d="M23.825,10.076h-.7v.347h.7Z" class="aw-theme-iconOutline" fill="#464646"/>
    <path id="path919-0-7-21" d="M22.425,10.076h-.7v.347h.7Z" class="aw-theme-iconOutline" fill="#464646"/>
    <path id="path879-4-0-54" d="M16.821,10.076h-.7v.347h.7Z" class="aw-theme-iconOutline" fill="#464646"/>
    <path id="path877-0-0-6" d="M15.419,10.076h-.7v.347h.7Z" class="aw-theme-iconOutline" fill="#464646"/>
    <path id="path925-9-4-56" d="M23.889,4.825h-.7v.347h.7Z" class="aw-theme-iconOutline" fill="#464646"/>
    <path id="path919-0-7-79" d="M22.489,4.825h-.7v.347h.7Z" class="aw-theme-iconOutline" fill="#464646"/>
    <path id="path911-5-7-22" d="M21.088,4.825h-.7v.347h.7Z" class="aw-theme-iconOutline" fill="#464646"/>
    <path id="path889-6-9-3" d="M19.688,4.825h-.7v.347h.7Z" class="aw-theme-iconOutline" fill="#464646"/>
    <path id="path911-5-7-1" d="M6.9,19v-.7H6.55V19Z" class="aw-theme-iconOutline" fill="#464646"/>
    <path id="path889-6-9-1" d="M6.9,17.6v-.7H6.55v.7Z" class="aw-theme-iconOutline" fill="#464646"/>
    <path id="path885-0-2-30" d="M6.9,16.2v-.7H6.55v.7Z" class="aw-theme-iconOutline" fill="#464646"/>
    <path id="path879-4-0-57" d="M6.9,14.8v-.7H6.55v.7Z" class="aw-theme-iconOutline" fill="#464646"/>
    <path id="path877-0-0-4" d="M6.9,13.4v-.7H6.55v.7Z" class="aw-theme-iconOutline" fill="#464646"/>
    <path id="path889-6-9-4" d="M20.909,6.4V5.7h-.347v.7Z" class="aw-theme-iconOutline" fill="#464646"/>
    <path id="path885-0-2-63" d="M20.909,5V4.3h-.347V5Z" class="aw-theme-iconOutline" fill="#464646"/>
    <path id="path879-4-0-04" d="M20.909,3.6V2.9h-.347v.7Z" class="aw-theme-iconOutline" fill="#464646"/>
    <path id="path877-0-0-63" d="M20.909,2.2V1.5h-.347v.7Z" class="aw-theme-iconOutline" fill="#464646"/>
    <path id="rect1224" d="M.5,1a.5.5,0,0,1,.5.5v22a.5.5,0,1,1-1,0V1.5A.5.5,0,0,1,.5,1Z" class="aw-theme-iconOutline" fill="#464646"/>
    <path id="rect1224-6" d="M23,23.5a.5.5,0,0,1-.5.5H.5a.5.5,0,1,1,0-1h22A.5.5,0,0,1,23,23.5Z" class="aw-theme-iconOutline" fill="#464646"/>
  </g>
</svg>
