<svg id="Image" xmlns="http://www.w3.org/2000/svg" viewBox="0 0 24 24">
  <g id="g829">
    <path id="path849" d="M2.043,11.986a2,2,0,0,0-.53,3.94v2.135a2,2,0,1,0,2.43,2.429H6.078a2,2,0,1,0,2.435-2.427V15.924A2,2,0,1,0,6.08,13.49H3.941A2,2,0,0,0,2.043,11.986ZM2.013,13a.985.985,0,0,1,.842.494.888.888,0,0,1,.008,1,.984.984,0,0,1-.35.352.964.964,0,0,1-.5.154.97.97,0,0,1-.5-.154.988.988,0,0,1-.5-.846A1,1,0,0,1,2.013,13Zm6,0a1,1,0,0,1,1,1,.987.987,0,0,1-.494.844.892.892,0,0,1-1,.006.983.983,0,0,1-.357-.356.892.892,0,0,1,.008-1h0A.988.988,0,0,1,8.013,13ZM3.945,14.49H6.076a2,2,0,0,0,1.437,1.438v2.131A2,2,0,0,0,6.078,19.49H3.943a1.99,1.99,0,0,0-1.43-1.429V15.926A2,2,0,0,0,3.945,14.49Zm-1.932,4.5a.965.965,0,0,1,.5.155.977.977,0,0,1,.346.345.89.89,0,0,1,0,1,.986.986,0,0,1-.846.5,1,1,0,0,1-1-1,.988.988,0,0,1,.5-.845A.971.971,0,0,1,2.013,18.99Zm6.01,0a.889.889,0,0,1,.5.157.99.99,0,0,1,.489.843,1,1,0,0,1-.995,1,.986.986,0,0,1-.847-.5.893.893,0,0,1,0-1,.992.992,0,0,1,.353-.349A.9.9,0,0,1,8.023,18.99Z" class="aw-theme-iconOutline" fill="#464646"/>
    <path id="path837" d="M2.051.065a2,2,0,0,0-.537,3.94V6.161A2,2,0,1,0,3.948,8.575H5.02A2,2,0,1,0,8.067,6.431l.8-2.364c.027,0,.046.008.078.008a2,2,0,1,0-1.932-2.5H3.944A2,2,0,0,0,2.051.065Zm-.037,1.01a.988.988,0,0,1,.846.5.97.97,0,0,1,.154.5.964.964,0,0,1-.154.5.972.972,0,0,1-.346.346.964.964,0,0,1-.5.154.97.97,0,0,1-.5-.154.988.988,0,0,1-.5-.846A1,1,0,0,1,2.014,1.075Zm6.932,0a1,1,0,0,1,1,1,.989.989,0,0,1-.725.944.955.955,0,0,1-.275.056,1,1,0,0,1-.7-.289A1,1,0,0,1,8.1,2.575a.964.964,0,0,1-.154-.5.97.97,0,0,1,.154-.5A.988.988,0,0,1,8.946,1.075Zm-5,1.5h3.07a1.993,1.993,0,0,0,.9,1.2L7.122,6.106c-.056,0-.11-.015-.168-.015A2,2,0,0,0,5.03,7.575H3.938A1.991,1.991,0,0,0,2.514,6.161V4.005A1.992,1.992,0,0,0,3.944,2.575ZM2.014,7.091a.964.964,0,0,1,.5.154.982.982,0,0,1,.336.33.892.892,0,0,1,.022,1,.99.99,0,0,1-.858.516,1,1,0,0,1-1-1,.988.988,0,0,1,.5-.846A.97.97,0,0,1,2.014,7.091Zm4.94,0a1.039,1.039,0,0,1,1,1,1,1,0,0,1-1,1,.994.994,0,0,1-.486-1.854,1,1,0,0,1,.308-.111A.967.967,0,0,1,6.954,7.091Z" class="aw-theme-iconOutline" fill="#464646"/>
    <path id="path825" d="M21.906.054a2.012,2.012,0,0,0-.974,3.707l-.8,2.342c-.042,0-.08-.012-.123-.012a1.994,1.994,0,0,0-1.916,1.453H15.764a1.99,1.99,0,1,0,.029,1h2.27a2,2,0,1,0,3.021-2.133l.8-2.347c.04,0,.076.011.115.011A2.012,2.012,0,1,0,22.013.051Zm.123,1.021a1,1,0,0,1,.971,1,.987.987,0,0,1-.762.951A.925.925,0,0,1,22,3.075a1.015,1.015,0,0,1-1-1,1,1,0,0,1,1-1ZM13.807,7.091h.043a.984.984,0,0,1,.814.453.9.9,0,0,1,.063,1,1,1,0,1,1-.92-1.453Zm6.2,0a1.019,1.019,0,0,1,1,1,1,1,0,0,1-2,0,1.029,1.029,0,0,1,.769-.953A.912.912,0,0,1,20.008,7.091Z" class="aw-theme-iconOutline" fill="#464646"/>
    <path id="path888" d="M11,21.92h5.04v1.04H11Z" class="aw-theme-iconOutline" fill="#464646"/>
    <path id="path890" d="M22.04,21.92h2v1.04h-2Z" class="aw-theme-iconOutline" fill="#464646"/>
    <path id="path892" d="M20.04,24h-2A1.059,1.059,0,0,1,17,22.96V22a1.059,1.059,0,0,1,1.04-1.04h2A1.047,1.047,0,0,1,21,22v.96A1.047,1.047,0,0,1,20.04,24Zm-2-2v.96h2V22Z" class="aw-theme-iconOutline" fill="#464646"/>
    <path id="path894" d="M18.68,12.96l.8,2,2-.8,1.36,1.28-.8,2,2,.8V20H23V18.88L20.68,18l.96-2.32-.4-.32-2.32.88L18.04,14H17l-.96,2.24-2.24-.88-.4.32L14.28,18l-2.24.88V20H11V18.24l2-.8-.8-2,1.36-1.28,1.92.8.8-2Z" class="aw-theme-iconOutline" fill="#464646"/>
  </g>
</svg>
