<svg id="Layer_1" data-name="Layer 1" xmlns="http://www.w3.org/2000/svg" viewBox="0 0 24 24">
  <g id="g851">
    <path id="path840" d="M15.176,5l-1.27,2.469L12.631,9.943l-.039,0a2.633,2.633,0,0,0-1.274.081,2.525,2.525,0,0,0-1.683,3.151h0a2.482,2.482,0,0,0,2.1,1.691l.02,0a.087.087,0,0,0,.045,0,2.265,2.265,0,0,0,.273.01,1.838,1.838,0,0,0,.2-.01,2.585,2.585,0,0,0,.57-.115,2.76,2.76,0,0,0,.326-.129,1.563,1.563,0,0,0,.209-.113,2.5,2.5,0,0,0,1.154-2.91,2.419,2.419,0,0,0-.763-1.12l1.255-2.443L16.285,5.57l-.553-.287Zm-3.108,6.143a1.25,1.25,0,1,1-1.25,1.25A1.249,1.249,0,0,1,12.068,11.143Z" class="aw-theme-iconOutline" fill="#464646"/>
    <path id="rect821" d="M5.375,21.988H18.641v1H5.375Z" class="aw-theme-iconOutline" fill="#464646"/>
    <path id="path837" d="M12,.988a12,12,0,0,0-12,12H0A12,12,0,0,0,5.4,23H7.469a11,11,0,1,1,9.054,0H18.6A11.994,11.994,0,0,0,12,.988Z" class="aw-theme-iconOutline" fill="#464646"/>
    <path id="rect859" d="M7,16.93V21H17V16.93ZM8,18h8v2H8Z" class="aw-theme-iconOutline" fill="#464646"/>
    <path id="rect876-0" d="M1,10.95H5V12H1Z" class="aw-theme-iconOutline" fill="#464646"/>
    <path id="rect876-4" d="M19,11h4v1.05H19Z" class="aw-theme-iconOutline" fill="#464646"/>
    <path id="rect876-2" d="M11.505,5.955v-4h1.05v4Z" class="aw-theme-iconOutline" fill="#464646"/>
    <path id="rect876-29" d="M4.972,4.427,7.754,7.3,7,8.031,4.217,5.158Z" class="aw-theme-iconOutline" fill="#464646"/>
    <path id="rect876-29-2" d="M19.074,4.542,16.291,7.416l.754.73,2.783-2.873Z" class="aw-theme-iconOutline" fill="#464646"/>
    <path id="rect957" d="M10,17.826h1v2.395H10Z" class="aw-theme-iconOutline" fill="#464646"/>
    <path id="rect957-7" d="M13.058,17.748h1v2.394h-1Z" class="aw-theme-iconOutline" fill="#464646"/>
    <path id="rect974" d="M8.655,19.326H9.52v1.039H8.655Z" class="aw-theme-iconOutline" fill="#464646"/>
    <path id="rect976" d="M11.684,17.826h.808v1.125h-.808Z" class="aw-theme-iconOutline" fill="#464646"/>
    <path id="rect978" d="M14.684,18.288h.866v1.3h-.866Z" class="aw-theme-iconOutline" fill="#464646"/>
  </g>
</svg>
