<svg version="1.1" id="Livello_1" xmlns="http://www.w3.org/2000/svg" xmlns:xlink="http://www.w3.org/1999/xlink" x="0px" y="0px"
	  viewBox="0 0 24 24" enable-background="new 0 0 24 24" xml:space="preserve">
<polygon class="aw-theme-iconOutline" fill="#464646" points="16.854,4.854 12,0 7.146,4.854 7.854,5.561 11.5,1.914 11.5,10 12.5,10 12.5,1.914 16.146,5.561 "/>
<polygon class="aw-theme-iconOutline" fill="#464646" points="9.5,14.042 2.565,14.042 2.565,9.05 9.5,9.05 9.563,9.05 9.563,8.042 1.559,8.042 1.559,15.05 
	9.5,15.05 "/>
<polygon class="aw-theme-iconOutline" fill="#464646" points="14.563,8.042 14.563,9.05 21.559,9.05 21.559,14.042 14.5,14.042 14.5,15.05 22.566,15.05 
	22.566,8.042 "/>
<polygon class="aw-theme-iconOutline" fill="#464646" points="7.146,19.146 12,24 16.854,19.146 16.146,18.439 12.5,22.086 12.5,13 11.5,13 11.5,22.086 
	7.854,18.439 "/>
</svg>
