<svg version="1.1" id="Livello_1" xmlns="http://www.w3.org/2000/svg" xmlns:xlink="http://www.w3.org/1999/xlink" x="0px" y="0px"
	  viewBox="0 0 24 24" enable-background="new 0 0 24 24" xml:space="preserve">
<path class="aw-theme-iconOutline" fill="#464646" d="M10.609,13.795h-0.257c-1.237,0.017-2.73,0-3.32,0h-1.07L5.117,14.89c-0.465,0.57-0.874,1.037-0.909,1.037
	c-0.136,0-1.273-1.146-1.617-1.634c-1.796-2.521-2.079-6.047-0.706-8.761c0.728-1.439,1.997-2.74,3.44-3.526
	c1.321-0.72,3.074-1.084,4.541-0.943c1.185,0.116,2.038,0.353,3.007,0.835c1.501,0.748,2.632,1.816,3.476,3.278
	c0.839,1.459,1.154,3.15,0.99,4.825h1.046c0.243-2.629-0.664-5.224-2.521-7.15c-1.324-1.375-2.912-2.241-4.826-2.663
	C10.447,0.056,9.827,0.001,9.219,0C8.604,0,7.886,0.053,7.383,0.184C3.313,1.251,0.319,4.413,0.026,8.51
	c-0.131,1.849,0.225,3.651,1.036,5.232c0.649,1.269,1.557,2.313,2.74,3.157l0.628,0.45l0.104-0.126
	c0.057-0.071,0.505-0.617,0.997-1.22l0.892-1.096h0.622c0.341-0.019,1.622,0,2.842,0h0.128L10.609,13.795z"/>
<path class="aw-theme-iconOutline" fill="#464646" d="M18.581,24h-2.164l-0.745-2.111l-1.998,0.948l-1.528-1.529l0.95-2.002L11,18.561v-2.162l2.096-0.744l-0.95-2
	l1.527-1.529l2.006,0.953L16.418,11h2.162l0.742,2.079l2.003-0.953l1.529,1.529l-0.951,1.999L24,16.398v2.164l-2.096,0.743l0.951,2
	l-1.53,1.53l-1.997-0.949L18.581,24z M17.073,23.071h0.852l0.606-1.717c0.142-0.396,0.599-0.589,0.967-0.416l1.635,0.777
	l0.603-0.604l-0.776-1.633c-0.085-0.178-0.091-0.386-0.015-0.569c0.075-0.185,0.229-0.33,0.419-0.398l1.709-0.605v-0.852
	l-1.709-0.605c-0.191-0.067-0.345-0.212-0.421-0.396c-0.075-0.185-0.07-0.393,0.016-0.573l0.776-1.631l-0.602-0.603L19.5,14.022
	c-0.364,0.176-0.833-0.018-0.968-0.393l-0.606-1.701h-0.853l-0.605,1.699c-0.14,0.379-0.61,0.567-0.972,0.391l-1.63-0.773
	l-0.602,0.602l0.776,1.634c0.084,0.18,0.09,0.387,0.014,0.572c-0.076,0.184-0.229,0.327-0.417,0.396l-1.709,0.605v0.852l1.708,0.607
	c0.189,0.066,0.344,0.21,0.421,0.395c0.075,0.186,0.068,0.394-0.018,0.573l-0.775,1.633l0.603,0.604l1.634-0.775
	c0.358-0.17,0.826,0.021,0.966,0.409L17.073,23.071z"/>
<path class="aw-theme-iconOutline" fill="#464646" d="M17.499,19.358c-1.023,0-1.856-0.834-1.856-1.857c0-1.025,0.833-1.857,1.856-1.857
	c1.024,0,1.857,0.832,1.857,1.857C19.356,18.524,18.523,19.358,17.499,19.358z M17.499,16.572c-0.513,0-0.928,0.415-0.928,0.929
	c0,0.512,0.415,0.929,0.928,0.929s0.929-0.417,0.929-0.929C18.428,16.987,18.012,16.572,17.499,16.572z"/>
<path class="aw-theme-iconOutline" fill="#464646" d="M9.208,7.203H9.206c-0.363,0.001-0.719,0.09-1.035,0.261L8.14,7.477L6.493,5.832L4.85,4.188L4.478,4.557
	L4.109,4.929L5.75,6.571L7.376,8.2c-0.21,0.326-0.32,0.702-0.321,1.088c0.001,0.964,0.691,1.805,1.663,2.024
	c0.056,0.013,0.133,0.029,0.196,0.037c0.096,0.012,0.195,0.019,0.293,0.019c0.163,0,0.325-0.017,0.485-0.053
	c0.049-0.01,0.11-0.029,0.158-0.042c0.073-0.024,0.144-0.048,0.213-0.077c0.014-0.007,0.024-0.007,0.037-0.015
	c0.004-0.002,0.009-0.004,0.016-0.007c0.757-0.34,1.242-1.079,1.244-1.885C11.359,8.136,10.396,7.203,9.208,7.203z M9.211,10.234
	c-0.552,0-1-0.448-1-1c0-0.553,0.448-1,1-1c0.553,0,1,0.448,1,1C10.211,9.786,9.764,10.234,9.211,10.234z"/>
</svg>
