<svg id="Livello_1" data-name="Livello 1" xmlns="http://www.w3.org/2000/svg" viewBox="0 0 24 24">
  <g id="g834">
    <path id="path9" d="M10.609,13.8h-.258c-1.236.017-2.729,0-3.319,0H5.963l-.846,1.1a10.3,10.3,0,0,1-.909,1.037,8.82,8.82,0,0,1-1.617-1.634,8.707,8.707,0,0,1-.706-8.761A8.543,8.543,0,0,1,5.324,2.006a8.381,8.381,0,0,1,4.541-.943,7.976,7.976,0,0,1,3.007.835A8.049,8.049,0,0,1,17.338,10h1.046a9.068,9.068,0,0,0-2.521-7.15A9.257,9.257,0,0,0,11.038.188,8.466,8.466,0,0,0,9.219,0,8.034,8.034,0,0,0,7.383.184,9.413,9.413,0,0,0,.026,8.51a9.906,9.906,0,0,0,1.036,5.232A8.661,8.661,0,0,0,3.8,16.9l.627.45.1-.126c.057-.071.5-.617,1-1.22l.893-1.1h.621c.341-.019,1.622,0,2.842,0h.129Z" class="aw-theme-iconOutline" fill="#464646"/>
    <path id="path11" d="M9.207,7.2h0a2.184,2.184,0,0,0-1.035.261l-.032.013L6.492,5.832,4.85,4.188l-.371.369-.37.372L5.75,6.571,7.376,8.2a2.022,2.022,0,0,0-.321,1.088,2.1,2.1,0,0,0,1.662,2.024c.057.013.133.029.2.037a2.364,2.364,0,0,0,.293.019,2.2,2.2,0,0,0,.485-.053c.049-.01.109-.029.158-.042.072-.024.143-.048.213-.077.014-.007.023-.007.037-.015l.016-.007a2.085,2.085,0,0,0,1.244-1.885A2.119,2.119,0,0,0,9.207,7.2Zm0,3.031a1,1,0,1,1,1-1A1,1,0,0,1,9.211,10.234Z" class="aw-theme-iconOutline" fill="#464646"/>
    <path id="path824" d="M17.6,16.943s-.034-.214-.074-.469c-.066-.413-.072-.465-.054-.473s.307-.052.656-.105c.73-.111.708-.107.7-.122s-.075-.066-.158-.133a3.668,3.668,0,0,0-1.785-.846,2.119,2.119,0,0,0-.821.076,2.453,2.453,0,0,0-.509.265,3.189,3.189,0,0,0-.9,1.115c-.04.077-.075.142-.077.145s-.827-.431-.853-.449c0,0,.044-.074.257-.4a3.481,3.481,0,0,1,1.58-1.539,3.548,3.548,0,0,1,.8-.184,2.709,2.709,0,0,1,.693.013,5.155,5.155,0,0,1,2.084,1.014.733.733,0,0,0,.169.107c0-.008-.04-.289-.092-.625s-.092-.612-.089-.615.216-.038.473-.077l.467-.072.226,1.461c.124.8.224,1.463.222,1.465s-.644.1-1.427.221-1.439.222-1.458.226a.093.093,0,0,1-.036,0Z" class="aw-theme-iconOutline" fill="#464646"/>
    <path id="path3-5" d="M17.5,24a6.487,6.487,0,1,1,.026,0H17.5m0-12A5.5,5.5,0,1,0,23,17.5,5.5,5.5,0,0,0,17.5,12" class="aw-theme-iconOutline" fill="#464646"/>
    <path id="circle5-7" d="M17,19.251A1.75,1.75,0,1,1,15.251,17.5h0A1.75,1.75,0,0,1,17,19.251Z" class="aw-theme-iconOutline" fill="#464646"/>
    <path id="circle5-4" d="M19.762,17.508a1.76,1.76,0,1,0,.024,0Zm.012,1h.01a.75.75,0,0,1,.75.75h0a.75.75,0,1,1-.76-.75Z" class="aw-theme-iconOutline" fill="#464646"/>
  </g>
</svg>
