<svg id="Livello_1" data-name="Livello 1" xmlns="http://www.w3.org/2000/svg" viewBox="0 0 16 16">
  <g id="g839">
    <path id="path827" d="M1,7.709V5.3H6.461v.915H1.884l.009,1.505L1.9,9.223l2.262.009,2.262.009v.88H1Z" class="aw-theme-iconOutline" fill="#464646"/>
    <path id="path829" d="M9.454,9.681v-.44h4.611V6.213H9.489V5.3h5.457v4.823H9.454Z" class="aw-theme-iconOutline" fill="#464646"/>
    <path id="path831" d="M7.482,4.268V1.725L6.356,2.851,5.23,3.977l-.3-.3a2.232,2.232,0,0,1-.3-.334c0-.02.744-.781,1.654-1.691L7.94,0,9.6,1.654c.91.91,1.654,1.671,1.654,1.691a2.232,2.232,0,0,1-.3.334l-.3.3L9.524,2.851,8.4,1.725V6.812H7.482Z" class="aw-theme-iconOutline" fill="#464646"/>
    <path id="path833" d="M6.276,14.354c-.9-.9-1.645-1.662-1.645-1.682a2.288,2.288,0,0,1,.3-.334l.3-.3,1.126,1.125,1.126,1.126V8.537H8.4v5.755l1.126-1.126,1.126-1.125.3.3a2.213,2.213,0,0,1,.3.335C11.249,12.708,7.975,16,7.94,16,7.93,16,7.181,15.259,6.276,14.354Z" class="aw-theme-iconOutline" fill="#464646"/>
  </g>
</svg>
