<svg version="1.1" id="Livello_1" xmlns="http://www.w3.org/2000/svg" xmlns:xlink="http://www.w3.org/1999/xlink" x="0px" y="0px"
	  viewBox="0 0 24 24" enable-background="new 0 0 24 24" xml:space="preserve">
<path class="aw-theme-iconOutline" fill="#464646" d="M10.609,13.795h-0.257c-1.237,0.017-2.73,0-3.32,0h-1.07L5.117,14.89c-0.465,0.57-0.874,1.037-0.909,1.037
	c-0.136,0-1.273-1.146-1.617-1.634c-1.796-2.521-2.079-6.047-0.706-8.761c0.728-1.439,1.997-2.74,3.44-3.526
	c1.321-0.72,3.074-1.084,4.541-0.943c1.185,0.116,2.038,0.353,3.007,0.835c1.501,0.748,2.632,1.816,3.476,3.278
	c0.839,1.459,1.154,3.15,0.99,4.825h1.046c0.243-2.629-0.664-5.224-2.521-7.15c-1.324-1.375-2.912-2.241-4.826-2.663
	C10.447,0.056,9.827,0.001,9.219,0C8.604,0,7.886,0.053,7.383,0.184C3.313,1.251,0.319,4.413,0.026,8.51
	c-0.131,1.849,0.225,3.651,1.036,5.232c0.649,1.269,1.557,2.313,2.74,3.157l0.628,0.45l0.104-0.126
	c0.057-0.071,0.505-0.617,0.997-1.22l0.892-1.096h0.622c0.341-0.019,1.622,0,2.842,0h0.128L10.609,13.795z"/>
<path class="aw-theme-iconOutline" fill="#464646" d="M17.5,24c-3.59,0-6.5-2.91-6.5-6.5s2.91-6.5,6.5-6.5S24,13.91,24,17.5C23.996,21.088,21.088,23.996,17.5,24
	 M17.5,12c-3.037,0-5.5,2.463-5.5,5.5s2.463,5.5,5.5,5.5s5.5-2.463,5.5-5.5C22.997,14.463,20.536,12.002,17.5,12"/>
<polygon class="aw-theme-iconOutline" fill="#464646" points="21,18 21,17 18,17.002 18,14 17,14 17,17.002 14,17.004 14,18.004 17,18.002 17,21 18,21 18,18.002 
	"/>
<path class="aw-theme-iconOutline" fill="#464646" d="M9.208,7.203H9.206c-0.363,0.001-0.719,0.09-1.035,0.261L8.14,7.477L6.493,5.832L4.85,4.188L4.478,4.557
	L4.109,4.929L5.75,6.571L7.376,8.2c-0.21,0.326-0.32,0.702-0.321,1.088c0.001,0.964,0.691,1.805,1.663,2.024
	c0.056,0.013,0.133,0.029,0.196,0.037c0.096,0.012,0.195,0.019,0.293,0.019c0.163,0,0.325-0.017,0.485-0.053
	c0.049-0.01,0.11-0.029,0.158-0.042c0.073-0.024,0.144-0.048,0.213-0.077c0.014-0.007,0.024-0.007,0.037-0.015
	c0.004-0.002,0.009-0.004,0.016-0.007c0.757-0.34,1.242-1.079,1.244-1.885C11.359,8.136,10.396,7.203,9.208,7.203z M9.211,10.234
	c-0.552,0-1-0.448-1-1s0.448-1,1-1s1,0.448,1,1S9.764,10.234,9.211,10.234z"/>
</svg>
