<svg id="Layer_1" data-name="Layer 1" xmlns="http://www.w3.org/2000/svg" viewBox="0 0 24 24">
  <g id="g825">
    <path id="path820" d="M17.085,20.7,15.8,19.164l-1.668-1.123c-.918-.617-1.669-1.125-1.669-1.128s8.276-3.246,8.283-3.239-2.362,8.565-2.373,8.565S17.79,21.547,17.085,20.7Zm1.634-2.48c.372-1.343.675-2.446.673-2.451s-2.826,3.1-2.826,3.123,1.456,1.77,1.469,1.77S18.347,19.564,18.719,18.221Zm-1.252-1.454c.772-.853,1.4-1.553,1.4-1.555s-1.082.419-2.4.935c-1.836.718-2.394.941-2.382.952s.441.3.961.652l.947.636.035-.035C16.047,18.333,16.694,17.62,17.467,16.767Z" class="aw-theme-iconOutline" fill="#464646"/>
    <path id="path2" d="M.367,1.5A.4.4,0,0,0,0,1.867V17.633A.4.4,0,0,0,.367,18h9.651c-.012-.166-.018-.333-.018-.5,0-.139.01-.278.021-.416H1.467l5.5-5.592-.551-.551-5.5,5.592V2.967l8.525,8.709a2.219,2.219,0,0,0,3.118,0l8.525-8.709v7.945a7.4,7.4,0,0,1,.916.6V1.867a.4.4,0,0,0-.367-.367Zm1.18.916,18.832.1-8.543,8.478a1.2,1.2,0,0,1-1.811-.066Z" class="aw-theme-iconOutline" fill="#464646"/>
    <path id="path2-2" d="M17.5,24A6.5,6.5,0,1,1,24,17.5h0A6.487,6.487,0,0,1,17.526,24H17.5Zm0-12A5.5,5.5,0,1,0,23,17.5h0A5.55,5.55,0,0,0,17.5,12Z" class="aw-theme-iconOutline" fill="#464646"/>
  </g>
</svg>
