<svg id="Verb_Zone" xmlns="http://www.w3.org/2000/svg" viewBox="0 0 24 24">
  <g id="g894">
    <path id="path2" d="M.981,17.016l-.03-16,17.084.016-.021,5.985h.973V0H0V18.016H9.813c0-.308,0-.711,0-1.031Z" class="aw-theme-iconOutline" fill="#464646"/>
    <path id="rect4" d="M1.971,2.043V6.059H12V2.043ZM3.041,3h7.918A.041.041,0,0,1,11,3.041V4.959A.041.041,0,0,1,10.959,5H3.041A.041.041,0,0,1,3,4.959V3.041A.041.041,0,0,1,3.041,3Z" class="aw-theme-iconOutline" fill="#464646"/>
    <path id="rect6" d="M1.971,12v4.016H6.059V12Zm1.066,1H4.963A.038.038,0,0,1,5,13.037v1.926A.038.038,0,0,1,4.963,15H3.037A.038.038,0,0,1,3,14.963V13.037A.038.038,0,0,1,3.037,13Z" class="aw-theme-iconOutline" fill="#464646"/>
    <path id="rect8" d="M1.971,7.018v4.013H6.059V7.018ZM3.037,8H4.963A.038.038,0,0,1,5,8.037V9.963A.038.038,0,0,1,4.963,10H3.037A.038.038,0,0,1,3,9.963V8.037A.038.038,0,0,1,3.037,8Z" class="aw-theme-iconOutline" fill="#464646"/>
    <path id="rect10" d="M12.973,1.965V5.98h4.088V1.965ZM14.035,3h1.93A.035.035,0,0,1,16,3.035v1.93A.035.035,0,0,1,15.965,5h-1.93A.035.035,0,0,1,14,4.965V3.035A.035.035,0,0,1,14.035,3Z" class="aw-theme-iconOutline" fill="#464646"/>
    <path id="path12" d="M23.01,17.974a5.223,5.223,0,1,1-5.222-5.222H20.44L18.4,14.8l.671.671,3.19-3.191L19.072,9.092l-.672.671L20.438,11.8H17.786a6.172,6.172,0,1,0,6.172,6.172Z" class="aw-theme-iconOutline" fill="#464646"/>
    <path id="rect858" d="M7.037,7A.038.038,0,0,0,7,7.037v8.926A.038.038,0,0,0,7.037,16h3.916a.038.038,0,0,0,.037-.037V11h5.961A.049.049,0,0,0,17,10.951v-3.9A.049.049,0,0,0,16.951,7H7.037Zm1,1h7.93A.035.035,0,0,1,16,8.035v1.93a.035.035,0,0,1-.035.035H10v4.965A.035.035,0,0,1,9.965,15H8.035A.035.035,0,0,1,8,14.965V8.035A.035.035,0,0,1,8.035,8Z" class="aw-theme-iconOutline" fill="#464646"/>
  </g>
</svg>
