<svg id="Layer_1" data-name="Layer 1" xmlns="http://www.w3.org/2000/svg" viewBox="0 0 24 24">
  <g id="g821">
    <path id="path2" d="M.367,1.5A.4.4,0,0,0,0,1.867V17.633A.4.4,0,0,0,.367,18h9.651c-.012-.166-.018-.333-.018-.5,0-.139.01-.278.021-.416H1.467l5.5-5.592-.551-.551-5.5,5.592V2.967l8.525,8.709a2.219,2.219,0,0,0,3.118,0l8.525-8.709v7.945a7.4,7.4,0,0,1,.916.6V1.867a.4.4,0,0,0-.367-.367Zm1.18.916,18.832.1-8.543,8.478a1.2,1.2,0,0,1-1.811-.066Z" class="aw-theme-iconOutline" fill="#464646"/>
    <path id="path825" d="M17.227,11.006A6.494,6.494,0,1,0,17.5,11Q17.362,11,17.227,11.006ZM17.5,12a5.5,5.5,0,1,1-5.5,5.5A5.508,5.508,0,0,1,17.5,12Z" class="aw-theme-iconOutline" fill="#464646"/>
    <path id="path821" d="M19.5,20.418v.006h-.112l-4.183.023,1.04.966-.707.707L13.642,20.3a.5.5,0,0,1,0-.707l1.912-1.884.707.707L15.2,19.447l4.2-.023a1.107,1.107,0,0,0,1.083-1.1h1A2.1,2.1,0,0,1,19.5,20.418Z" class="aw-theme-iconOutline" fill="#464646"/>
    <path id="path2-9" d="M15.5,15h.063c.017,0,.032-.005.049-.005V15l4.183-.023-1.041-.966.708-.707,1.894,1.82a.5.5,0,0,1,0,.707L19.441,17.71,18.733,17l1.058-1.03-4.2.023a1.107,1.107,0,0,0-1.084,1.1h-1A2.106,2.106,0,0,1,15.5,15Z" class="aw-theme-iconOutline" fill="#464646"/>
  </g>
</svg>
