<svg id="Layer_1" data-name="Layer 1" xmlns="http://www.w3.org/2000/svg" viewBox="0 0 24 24">
  <g id="g822">
    <path id="path2" d="M.367,1.5A.4.4,0,0,0,0,1.867V17.633A.4.4,0,0,0,.367,18h9.651c-.012-.166-.018-.333-.018-.5,0-.139.01-.278.021-.416H1.467l5.5-5.592-.551-.551-5.5,5.592V2.967l8.525,8.709a2.219,2.219,0,0,0,3.118,0l8.525-8.709v7.945a7.4,7.4,0,0,1,.916.6V1.867a.4.4,0,0,0-.367-.367Zm1.18.916,18.832.1-8.543,8.478a1.2,1.2,0,0,1-1.811-.066Z" class="aw-theme-iconOutline" fill="#464646"/>
    <path id="path2-2" d="M17.5,24A6.5,6.5,0,1,1,24,17.5h0A6.487,6.487,0,0,1,17.526,24H17.5Zm0-12A5.5,5.5,0,1,0,23,17.5h0A5.55,5.55,0,0,0,17.5,12Z" class="aw-theme-iconOutline" fill="#464646"/>
    <path id="path4-8" d="M18.546,13l-.708.708,1.647,1.646H17.461A3.269,3.269,0,0,0,16.2,21.641l.384-.923a2.269,2.269,0,0,1,.873-4.364h2.024L17.838,18l.708.708,2.5-2.5a.5.5,0,0,0,0-.707h0Z" class="aw-theme-iconOutline" fill="#464646"/>
  </g>
</svg>
