<svg id="Layer_1" data-name="Layer 1" xmlns="http://www.w3.org/2000/svg" viewBox="0 0 24 24">
  <g id="g889">
    <path id="path852" d="M12.338,22.057a2.651,2.651,0,0,1-.973-.471,2.53,2.53,0,0,1-1.036-2.108,2.406,2.406,0,0,1,.4-1.4,24.322,24.322,0,0,1,2.57-2.557,2.379,2.379,0,0,1,1.081-.355l.338-.034-.27-.3-.271-.3.885-.888a13.278,13.278,0,0,1,1.126-1.043,2.656,2.656,0,0,1,2.623-.141A2.569,2.569,0,0,1,20.029,15.9c-.145.323-.271.468-1.352,1.56-1.249,1.262-1.442,1.412-2.039,1.587a2.142,2.142,0,0,1-.5.082c-.121,0-.219.016-.219.036a1.777,1.777,0,0,0,.263.3l.264.266-.958.93c-.527.511-1.04.986-1.141,1.055A2.886,2.886,0,0,1,12.338,22.057Zm1.331-1.073A4.977,4.977,0,0,0,14.813,20l.86-.85-.322-.079a2.69,2.69,0,0,1-1.98-1.989.811.811,0,0,0-.1-.3c-.019,0-.41.384-.871.853-1.009,1.029-1.123,1.216-1.123,1.844a1.267,1.267,0,0,0,.161.733,1.685,1.685,0,0,0,1.1.9A2.1,2.1,0,0,0,13.669,20.984ZM16.2,18.155a1.568,1.568,0,0,0,.8-.363c.2-.158.251-.267.1-.224a4.169,4.169,0,0,1-.429.06l-.34.034-.035-.2a1.986,1.986,0,0,0-.563-.967,1.639,1.639,0,0,0-1.081-.373,1.522,1.522,0,0,0-1.03.341c-.266.2-.315.3-.132.252.062-.015.256-.044.429-.063l.315-.034.032.146a1.88,1.88,0,0,0,.91,1.237,2.421,2.421,0,0,0,.694.2A3.225,3.225,0,0,0,16.2,18.155Zm2.959-2.675a1.813,1.813,0,0,0,.028-1.346,1.885,1.885,0,0,0-.822-.842,1.276,1.276,0,0,0-.719-.141c-.662,0-.855.115-1.868,1.111-.455.447-.827.83-.827.851a.623.623,0,0,0,.279.1A2.731,2.731,0,0,1,17.2,17.124c.033.136.069.282.081.324s.314-.22.885-.8A5.039,5.039,0,0,0,19.164,15.48Z" class="aw-theme-iconOutline" fill="#464646"/>
    <path id="path848" d="M6.592,18.488c-1.286-.77-2.39-1.458-2.453-1.528l-.115-.128V14.193a22.621,22.621,0,0,1,.061-2.772c.112-.247,9.315-5.668,9.622-5.668.159,0,4.758,2.725,4.949,2.932.113.124.114.134.114,1.779,0,1.436-.01,1.652-.075,1.627A4.626,4.626,0,0,0,18.213,12l-.407-.064-.014-1.075-.014-1.075-1.79,1.048L14.2,11.88l0,.673c0,.586-.014.68-.091.726l-.471.278-.381.226-.025-.655-.026-.654-1.818,1.068L9.567,14.611v1.978c0,1.087.017,1.977.038,1.976a.431.431,0,0,0,.137-.077.391.391,0,0,1,.134-.074,2.071,2.071,0,0,1,.026.546l-.01.547-.327.191a1.407,1.407,0,0,1-.481.19A19.367,19.367,0,0,1,6.592,18.488ZM8.6,16.616v-1.95L6.834,13.608,5.028,12.53c-.021-.011-.038.86-.038,1.937v1.958l1.767,1.066c.972.587,1.784,1.069,1.8,1.071S8.6,17.689,8.6,16.616Zm2.532-4.023c.9-.532,1.647-.99,1.653-1.017s-.8-.538-1.789-1.135L9.2,9.356,7.323,10.481c-1.031.618-1.874,1.14-1.873,1.16s.807.518,1.792,1.108l1.791,1.073.229-.131C9.387,13.619,10.229,13.125,11.132,12.593Zm4.442-2.607c.945-.553,1.719-1.018,1.72-1.036s-.807-.515-1.795-1.107L13.7,6.767,12,7.74c-.935.536-1.731,1-1.769,1.038-.056.053.25.257,1.7,1.134.974.588,1.8,1.072,1.844,1.074S14.629,10.538,15.574,9.986Z" class="aw-theme-iconOutline" fill="#464646"/>
    <path id="rect816" d="M0,0H24V1H0V0Z" class="aw-theme-iconOutline" fill="#464646"/>
    <path id="rect816-9" d="M0,4.043H24v1H0v-1Z" class="aw-theme-iconOutline" fill="#464646"/>
    <path id="rect816-9-0" d="M1,0V24H0V0H1Z" class="aw-theme-iconOutline" fill="#464646"/>
    <path id="rect816-9-0-7" d="M24,0V24H23V0h1Z" class="aw-theme-iconOutline" fill="#464646"/>
    <path id="rect816-9-0-7-3" d="M24,24H0V23H24v1Z" class="aw-theme-iconOutline" fill="#464646"/>
    <path id="rect1037" d="M2,2H6V3H2V2Z" class="aw-theme-iconOutline" fill="#464646"/>
    <path id="rect1037-1" d="M8,2h4V3H8V2Z" class="aw-theme-iconOutline" fill="#464646"/>
    <path id="rect1037-7" d="M14,2h4V3H14V2Z" class="aw-theme-iconOutline" fill="#464646"/>
    <path id="rect1037-7-3" d="M21,2h1V3H21V2Z" class="aw-theme-iconOutline" fill="#464646"/>
  </g>
</svg>
