<svg id="Livello_1" data-name="Livello 1" xmlns="http://www.w3.org/2000/svg" viewBox="0 0 16 16">
  <g id="g824">
    <path id="path821" d="M4.859,15.952a.568.568,0,0,1-.178-.143l-.073-.1L4.6,13.89l-.013-1.822-1.3-.014-1.3-.013-.224-.07a2.474,2.474,0,0,1-1.7-1.793L0,9.955V2.088l.07-.255A2.477,2.477,0,0,1,1.833.07L2.087,0H7.968c6.522,0,6.012-.013,6.471.164A2.448,2.448,0,0,1,15.973,2.13c.036.294.036,7.518,0,7.813a2.447,2.447,0,0,1-1.5,1.942c-.417.166-.231.156-2.874.164l-2.405.007L7.268,13.977C5.278,15.965,5.239,16,5.04,16a.531.531,0,0,1-.181-.048ZM8.8,11.178a19.663,19.663,0,0,1,2.509-.04,15.881,15.881,0,0,0,2.612-.05,1.969,1.969,0,0,0,.354-.132,1.768,1.768,0,0,0,.621-.633c.17-.348.16-.076.16-4.289s.01-3.944-.157-4.29a1.758,1.758,0,0,0-.659-.656C13.892.919,14.333.93,7.993.93S2.1.919,1.747,1.089a1.756,1.756,0,0,0-.658.656C.921,2.089.93,1.855.93,6.034c0,4.211-.01,3.952.171,4.3a1.724,1.724,0,0,0,.605.618c.336.176.273.17,1.962.185l1.529.014.1.069a.483.483,0,0,1,.157.179c.053.11.054.136.054,1.561v1.449l1.6-1.6C8.218,11.7,8.735,11.205,8.8,11.178Z" class="aw-theme-iconOutline" fill="#464646"/>
  </g>
</svg>
