<svg id="Layer_1" data-name="Layer 1" xmlns="http://www.w3.org/2000/svg" viewBox="0 0 24 24">
  <g id="g820">
    <path id="path2" d="M8.735,1a6.009,6.009,0,0,0-1.757.325A7.383,7.383,0,0,0,2.31,7.245,5.445,5.445,0,0,0,4.254,17V15.987a4.361,4.361,0,0,1-3.028-2.929,4.447,4.447,0,0,1,1.83-5.124l.177-.124L3.265,7.6A6.435,6.435,0,0,1,7.308,2.267a5.073,5.073,0,0,1,5.238,1.245l.174.161.238-.033A4.246,4.246,0,0,1,17.78,6.906l.017.066.795-.789a5.2,5.2,0,0,0-5.533-3.552A6,6,0,0,0,8.735,1Zm12.981,6.22L21,7.934a3.989,3.989,0,0,1,.5.363A4.462,4.462,0,0,1,23,11.625a4.351,4.351,0,0,1-4,4.366v1a5.358,5.358,0,0,0,5-5.363,5.455,5.455,0,0,0-1.837-4.068A4.8,4.8,0,0,0,21.716,7.224Z" class="aw-theme-iconOutline" fill="#464646"/>
    <path id="path827" d="M11.66,8.5a.48.48,0,0,0-.439.27L9.162,12.945H4.483A.485.485,0,0,0,4,13.429a.49.49,0,0,0,.119.321l3.136,3.615.682-.687L5.544,13.916H9.462a.479.479,0,0,0,.431-.27l1.758-3.566L12.586,12l.717-.722-1.219-2.5A.481.481,0,0,0,11.66,8.5Zm4.116,4.465-.959.965,2.693.014-2.72,3.372a.488.488,0,0,0-.1.386l.659,3.927-3.5-1.862a.482.482,0,0,0-.449,0L7.9,21.611l.15-.871L6.868,21.934l-.083.48a.484.484,0,0,0,.392.56.468.468,0,0,0,.305-.048l4.145-2.182,4.133,2.2a.483.483,0,0,0,.7-.509l-.785-4.678,3.217-3.988a.487.487,0,0,0-.07-.682.48.48,0,0,0-.3-.108Z" class="aw-theme-iconOutline" fill="#464646"/>
    <path id="path814" d="M22.08,4.09,3.121,22.9l.705.709L22.783,4.8Z" class="aw-theme-iconOutline" fill="#464646"/>
  </g>
</svg>
