<svg id="Layer_1" data-name="Layer 1" xmlns="http://www.w3.org/2000/svg" viewBox="0 0 24 24">
  <g id="g818">
    <path id="path2" d="M8.733,1.057a6.035,6.035,0,0,0-1.756.324A7.386,7.386,0,0,0,2.31,7.3a5.445,5.445,0,0,0,1.943,9.756v-.006c.006,0,.01.006.016.006h5.747C10,16.887,10,16.72,10,16.553s.011-.34.026-.51H4.269c-.006,0-.01,0-.016.006V16.04a4.36,4.36,0,0,1-3.027-2.928,4.449,4.449,0,0,1,1.83-5.125l.176-.123.031-.211A6.44,6.44,0,0,1,7.307,2.319a5.071,5.071,0,0,1,5.236,1.246l.173.162.239-.033a4.244,4.244,0,0,1,4.821,3.265l.111.409.426-.047A4.064,4.064,0,0,1,21.49,8.35a4.462,4.462,0,0,1,1.492,3.1l.975.794A1.741,1.741,0,0,0,24,11.678,5.461,5.461,0,0,0,22.158,7.61a5.06,5.06,0,0,0-3.54-1.3,5.206,5.206,0,0,0-5.562-3.623A6,6,0,0,0,8.733,1.057Z" class="aw-theme-iconOutline" fill="#464646"/>
    <path id="path849" d="M17.113,21.637A4.152,4.152,0,0,1,14.9,18.754a4.82,4.82,0,0,1,0-1.535,4.14,4.14,0,0,1,2.888-3.108,8.263,8.263,0,0,1,2.624-.151l2.012-.014-.75-.776-1.247-1.292-.5-.516.323-.323.322-.322,1.69,1.691L23.956,14.1l.028.154a1.043,1.043,0,0,1,.011.279l-.019.125-1.694,1.7-1.7,1.7-.325-.323-.325-.324,1.252-1.253,1.252-1.252H20.512c-2.12,0-2.194.005-2.636.153a3.127,3.127,0,0,0-2.07,2.389,4.075,4.075,0,0,0,0,1.114,3.049,3.049,0,0,0,1.665,2.246l.274.136a8.774,8.774,0,0,1-.375.826,2.551,2.551,0,0,1-.259-.123Z" class="aw-theme-iconOutline" fill="#464646"/>
    <path id="path851" d="M11.1,19.017V14.034H14.6V15.1H12.166v7.83h7.878V18.915h1.068V24H11.1Z" class="aw-theme-iconOutline" fill="#464646"/>
  </g>
</svg>
