<svg id="Layer_1" data-name="Layer 1" xmlns="http://www.w3.org/2000/svg" viewBox="0 0 24 24">
  <g id="g818">
    <path id="path2" d="M8.735,1a6.009,6.009,0,0,0-1.757.325A7.383,7.383,0,0,0,2.31,7.245,5.445,5.445,0,0,0,4.255,17V15.987a4.362,4.362,0,0,1-3.029-2.929,4.447,4.447,0,0,1,1.83-5.124l.177-.124L3.265,7.6A6.435,6.435,0,0,1,7.308,2.267a5.073,5.073,0,0,1,5.238,1.245l.174.161.238-.033A4.246,4.246,0,0,1,17.78,6.906l.111.409.426-.047A4.071,4.071,0,0,1,21.5,8.3,4.462,4.462,0,0,1,23,11.625a4.351,4.351,0,0,1-4,4.366v1a5.358,5.358,0,0,0,5-5.363,5.455,5.455,0,0,0-1.837-4.068,5.066,5.066,0,0,0-3.542-1.3,5.206,5.206,0,0,0-5.562-3.622A6,6,0,0,0,8.735,1Z" class="aw-theme-iconOutline" fill="#464646"/>
    <path id="path827" d="M11.66,8.5a.482.482,0,0,0-.441.27L9.16,12.947H4.482a.484.484,0,0,0-.365.8l3.471,4-.8,4.664a.484.484,0,0,0,.392.56.479.479,0,0,0,.309-.048l4.143-2.182,4.131,2.2a.483.483,0,0,0,.654-.2.475.475,0,0,0,.051-.307l-.787-4.682,3.217-3.99a.484.484,0,0,0-.073-.68.477.477,0,0,0-.3-.107l-4.393-.022L12.086,8.771A.483.483,0,0,0,11.66,8.5Zm-.01,1.582,1.739,3.57a.485.485,0,0,0,.433.272l3.69.017-2.725,3.377a.482.482,0,0,0-.1.383l.66,3.926L11.855,19.77a.479.479,0,0,0-.453,0L7.9,21.613l.678-3.925a.482.482,0,0,0-.111-.4L5.543,13.914H9.461a.484.484,0,0,0,.434-.269Z" class="aw-theme-iconOutline" fill="#464646"/>
  </g>
</svg>
