<svg id="Layer_1" data-name="Layer 1" xmlns="http://www.w3.org/2000/svg" viewBox="0 0 24 24">
  <g id="g817">
    <path id="path6" d="M12.121.184a.355.355,0,0,0-.185.056L4.025,4.775a.318.318,0,0,0-.234.3v6.992L.266,14.061a.508.508,0,0,0,0,.894l10.621,6.008a7.688,7.688,0,0,1-.619-1.57L1.625,14.506l2.166-1.235v.1a.383.383,0,0,0,.156.3l6.063,3.515A7.63,7.63,0,0,1,10.131,16L4.912,13V5.893l6.776,3.931v2.754a7.515,7.515,0,0,1,1.044-1.066V9.65l6.516-3.767v4.1a7.5,7.5,0,0,1,.961.3V5.074a.367.367,0,0,0-.063-.3L12.328.24A.361.361,0,0,0,12.121.184Zm.01,1.15L18.648,5.1,12.131,8.869,5.615,5.1Z" class="aw-theme-iconOutline" fill="#464646"/>
    <path id="path814" d="M24,17.5a7.1,7.1,0,0,1-.431,2.375l-.09.253-.931-.413.085-.22a5.406,5.406,0,0,0,.349-1.993,5.48,5.48,0,1,0-1.624,3.9h-1.5V20.376h3.1v3.1H21.94V22.231A6.414,6.414,0,0,1,17.5,24,6.5,6.5,0,1,1,24,17.5Z" class="aw-theme-iconOutline" fill="#464646"/>
    <path id="path2-8" d="M17.251,17.251H14.125V18.27H18.27V13.083H17.251Z" class="aw-theme-iconOutline" fill="#464646"/>
  </g>
</svg>
