<svg id="Layer_1" data-name="Layer 1" xmlns="http://www.w3.org/2000/svg" viewBox="0 0 24 24">
  <g id="g923">
    <path id="rect876" d="M9.843,9.311h9.6a.4.4,0,0,1,0,.808h-9.6a.4.4,0,0,1,0-.808Z" class="aw-theme-iconOutline" fill="#464646"/>
    <path id="rect876-3" d="M9.8,11.332h9.6a.4.4,0,0,1,0,.809H9.8a.4.4,0,0,1,0-.809Z" class="aw-theme-iconOutline" fill="#464646"/>
    <path id="rect876-2" d="M9.867,13.36h9.6a.4.4,0,0,1,0,.809h-9.6a.4.4,0,0,1,0-.809Z" class="aw-theme-iconOutline" fill="#464646"/>
    <path id="rect876-0" d="M10.881,3.6h8.848a.4.4,0,0,1,0,.809H10.881a.4.4,0,0,1,0-.809Z" class="aw-theme-iconOutline" fill="#464646"/>
    <path id="rect876-29" d="M17.4,5.527h3.03a.4.4,0,1,1,0,.808H17.4a.4.4,0,1,1,0-.808Z" class="aw-theme-iconOutline" fill="#464646"/>
    <path id="path864" d="M20.558,15.618a.568.568,0,0,1-.179-.142l-.074-.094V8.133H17.634a28.379,28.379,0,0,1-4.053-.121,6.225,6.225,0,0,1-1.9-.759,7.459,7.459,0,0,1-1.144-.9A7.587,7.587,0,0,1,9.376,4.665l-.49-.842L8.868,9.372l-.017,5.55-.071.1a.449.449,0,0,1-.665.026l-.083-.089L8.023,8.4C8.014,1.147,8,1.754,8.23,1.611c.107-.065.224-.067,6.3-.067,6.787,0,6.356-.013,6.488.2.055.09.067.207.085.847a10.057,10.057,0,0,0,.073,1.033,5.5,5.5,0,0,0,.351,1.143,16.693,16.693,0,0,0,1.527,2.117c.228.282.456.573.507.648a.384.384,0,0,1,.013.481l-.079.092-1.167.017-1.167.018v3.486c0,2.7-.01,3.73-.043,3.793a.449.449,0,0,1-.557.2Zm1.761-8.3a6.993,6.993,0,0,0-.427-.588c-1.23-1.594-1.548-2.338-1.613-3.766l-.025-.544-5.59-.009c-3.075-.005-5.591,0-5.591.01,0,.042.738,1.378,1.093,1.979A9.476,9.476,0,0,0,11,5.656l.115.136.526-.078c.289-.042.725-.113.969-.158a23.383,23.383,0,0,1,2.6-.325c.21,0,.4.131.983.663.553.507.768.692,1.279,1.1l.4.319,1.69.009c.93,0,1.932.013,2.228.018a1.7,1.7,0,0,0,.537-.027ZM16.6,7.285c-.727-.636-1.156-1.02-1.277-1.145s-.179-.158-.246-.158c-.1,0-2.81.393-3.025.438l-.127.027.154.1a6.564,6.564,0,0,0,1.143.524,7.1,7.1,0,0,0,1.3.222C14.823,7.316,16.629,7.312,16.6,7.285Z" class="aw-theme-iconOutline" fill="#464646"/>
    <path id="path844" d="M13.041,21.231a16.188,16.188,0,0,1-5.309-1.379,1.475,1.475,0,0,0-.907-.181,10.911,10.911,0,0,0-2.458.546,5.058,5.058,0,0,1-1.5.349,1.365,1.365,0,0,1-.711-.16,1.186,1.186,0,0,1-.4-.293c-.32-.322-.379-.465-.6-1.428A4.647,4.647,0,0,1,1,17.744a1.73,1.73,0,0,1,.518-1.38c.286-.287.441-.349,1.515-.612a16.66,16.66,0,0,0,2.346-.7,9.418,9.418,0,0,1,2.14-.6,6.993,6.993,0,0,1,3.1.389,11.185,11.185,0,0,1,1.57.722c.657.329,1.222.605,1.255.613s.723.106,1.533.219,1.533.222,1.606.243a1.365,1.365,0,0,1,.573.339l.151.148.585-.274c.322-.15.64-.3.706-.338s.643-.418,1.28-.85,1.224-.815,1.3-.852a2.1,2.1,0,0,1,.293-.1,1.71,1.71,0,0,1,.709,0,1.458,1.458,0,0,1,.957.987,1.332,1.332,0,0,1,.066.531,1.4,1.4,0,0,1-.055.518,2.056,2.056,0,0,1-.577.909c-.182.153-.783.606-1.161.876A11.069,11.069,0,0,1,19.2,19.8,12.528,12.528,0,0,1,15.552,21.2C15.253,21.244,13.494,21.265,13.041,21.231Zm2.052-.771c.916-.068,1.373-.234,3.783-1.372a10.984,10.984,0,0,0,1.854-1.025c.523-.363,1.325-.974,1.434-1.092a1.122,1.122,0,0,0,.272-.906c-.087-.508-.453-.746-.873-.57-.073.031-.665.417-1.316.859A10.7,10.7,0,0,1,18,17.66l-.437.2-.014.193a1.769,1.769,0,0,1-.523,1.125,1.625,1.625,0,0,1-.717.447c-.353.113-.447.107-1.987-.11a9.827,9.827,0,0,1-2.02-.365c-.094-.038-.687-.323-1.317-.634-1.3-.641-1.262-.615-1.262-.878a.32.32,0,0,1,.206-.341.292.292,0,0,1,.2-.042,5.355,5.355,0,0,1,.64.288,16.712,16.712,0,0,0,2.057.955c.113.027.83.137,1.593.244,1.53.215,1.519.214,1.8.086a1.063,1.063,0,0,0,.546-.754.58.58,0,0,0-.31-.665c-.07-.031-.566-.11-1.582-.251-.814-.113-1.545-.222-1.625-.242s-.623-.276-1.34-.636a11.637,11.637,0,0,0-1.532-.709,6.407,6.407,0,0,0-2.149-.385,6.552,6.552,0,0,0-2.595.6,15.959,15.959,0,0,1-2.385.715c-.484.119-.928.242-.991.274a1.006,1.006,0,0,0-.486.887,9.989,9.989,0,0,0,.377,1.692.788.788,0,0,0,.83.428c.146-.028.126-.023,1.291-.348a16.809,16.809,0,0,1,2.2-.523,3.877,3.877,0,0,1,.991.009,5.743,5.743,0,0,1,.676.254,16.372,16.372,0,0,0,2.533.874,13.406,13.406,0,0,0,2.692.418C13.633,20.487,14.8,20.481,15.093,20.46Z" class="aw-theme-iconOutline" fill="#464646"/>
  </g>
</svg>
