<svg id="Layer_1" data-name="Layer 1" xmlns="http://www.w3.org/2000/svg" viewBox="0 0 24 24">
  <g id="g817">
    <path id="path6" d="M12.121,1.184a.361.361,0,0,0-.183.056L4.025,5.775a.318.318,0,0,0-.234.3v6.994L.268,15.061a.508.508,0,0,0,0,.894l11.416,6.457a.65.65,0,0,0,.23.08A7.5,7.5,0,0,1,10.7,20.635l-9.07-5.129,2.164-1.233v.1a.383.383,0,0,0,.156.3l6.094,3.533Q10,17.855,10,17.5c0-.186.011-.371.027-.557L4.912,14V6.893l6.777,3.931v1.942a7.548,7.548,0,0,1,1.043-1.049V10.65l6.516-3.767v3.334a7.475,7.475,0,0,1,.961.3V6.074a.367.367,0,0,0-.063-.3L12.328,1.24A.361.361,0,0,0,12.121,1.184Zm.01,1.15L18.648,6.1,12.131,9.869,5.615,6.1Z" class="aw-theme-iconOutline" fill="#464646"/>
    <path id="path2-8" d="M17.5,24A6.5,6.5,0,1,1,24,17.5h0A6.487,6.487,0,0,1,17.526,24Zm0-12A5.5,5.5,0,1,0,23,17.5h0A5.55,5.55,0,0,0,17.5,12Z" class="aw-theme-iconOutline" fill="#464646"/>
    <path id="polygon4" d="M15.4,20.4l2.1-2.2,2.1,2.2.8-.8-2.2-2.1,2.2-2.1-.8-.8-2.1,2.2-2.1-2.2-.8.8,2.2,2.1-2.2,2.1Z" class="aw-theme-iconOutline" fill="#464646"/>
  </g>
</svg>
