<svg id="Artwork" xmlns="http://www.w3.org/2000/svg" viewBox="0 0 24 24">
  <g id="g833">
    <path id="path820" d="M0,10.778C0,8.39.015,6.3.033,6.129A2.118,2.118,0,0,1,1.442,4.305,2.638,2.638,0,0,1,2.525,4.2l.818-.013V.019H16.79V4.183l.836.014a2.665,2.665,0,0,1,1.074.1,2.037,2.037,0,0,1,.823.531,2.14,2.14,0,0,1,.557,1.028c.044.211.053.839.053,3.908v3.656l-.3-.137c-.163-.076-.373-.171-.466-.211L19.2,13l-.011-3.445-.01-3.445L19.1,5.908a1.346,1.346,0,0,0-.637-.665l-.216-.1-8.089-.009c-8.031-.01-8.092-.01-8.33.063a1.272,1.272,0,0,0-.738.64l-.1.205L.979,10.113l-.01,4.072H2.624v.934H0ZM15.855,2.571V.953H4.314V4.189H15.855Z" class="aw-theme-iconOutline" fill="#464646"/>
    <path id="path822" d="M3.343,15.066V10.014H16.79v2.344l-.3-.022c-.164-.013-.374-.032-.468-.044l-.171-.02V10.985H4.314v8.2H6.356l.2.351c.111.193.235.4.277.467l.077.117H3.343Z" class="aw-theme-iconOutline" fill="#464646"/>
    <path id="path826" d="M14.165,7.929v-.4h2.481v.791H14.165Z" class="aw-theme-iconOutline" fill="#464646"/>
    <path id="path2-4-2" d="M15.5,22A3.5,3.5,0,1,1,19,18.5h0A3.5,3.5,0,0,1,15.5,22Zm0-6A2.5,2.5,0,1,0,18,18.5h0A2.5,2.5,0,0,0,15.5,16Z" class="aw-theme-iconOutline" fill="#464646"/>
    <path id="path4-9-5" d="M15.5,24a9.643,9.643,0,0,1-8.436-5.269.5.5,0,0,1,0-.481A9.654,9.654,0,0,1,15.5,13a9.656,9.656,0,0,1,8.44,5.259.5.5,0,0,1,0,.482A9.659,9.659,0,0,1,15.5,24ZM8.073,18.491A8.615,8.615,0,0,0,15.5,23a8.636,8.636,0,0,0,7.427-4.5A8.63,8.63,0,0,0,15.5,14,8.628,8.628,0,0,0,8.073,18.491Z" class="aw-theme-iconOutline" fill="#464646"/>
  </g>
</svg>
