<svg version="1.1" id="Livello_1" xmlns="http://www.w3.org/2000/svg" xmlns:xlink="http://www.w3.org/1999/xlink" x="0px" y="0px"
	  viewBox="0 0 24 24" enable-background="new 0 0 24 24" xml:space="preserve">
<path class="aw-theme-iconOutline" fill="#464646" d="M17.083,9.944c0.421,0,0.772,0.001,1.063,0.003v-4.54c0.026-0.114,0.001-0.236-0.068-0.333L9.435,0.063
	c-0.13-0.085-0.301-0.085-0.432,0L0.26,5.075C0.105,5.118,0,5.255,0,5.407v9.176c0.002,0.132,0.066,0.255,0.174,0.332l8.641,5.012
	c0.128,0.061,0.172,0.084,0.258,0.084c0.095,0.013,0.087,0.007,0.258-0.084l0.538-0.312c-0.002-0.968,0.002-2.02,0.012-2.567v-6.585
	l7.203-4.165V9.944z M8.729,18.471l-7.491-4.307V6.31l7.491,4.346V18.471z M9.218,9.602L2.015,5.437l7.203-4.166l7.203,4.166
	L9.218,9.602z"/>
<circle class="aw-theme-iconOutline" fill="#464646" cx="15.058" cy="17.097" r="0.877"/>
<path class="aw-theme-iconOutline" fill="#464646" d="M16.671,18.985c-0.482,0-0.875-0.396-0.875-0.883c0-0.482,0.393-0.873,0.875-0.873
	c0.483,0,0.877,0.391,0.877,0.873C17.548,18.589,17.154,18.985,16.671,18.985z"/>
<path class="aw-theme-iconOutline" fill="#464646" d="M22.988,23.999H12.569V10.753h6.775l3.644,3.646V23.999z M13.313,23.255h8.931v-8.547l-3.208-3.21h-5.723
	V23.255z"/>
<rect x="17.346" y="16.313" transform="matrix(0.6694 0.7429 -0.7429 0.6694 18.6067 -7.4895)" class="aw-theme-iconOutline" fill="#464646" width="0.744" height="1.696"/>
<rect x="15.524" y="17.255" transform="matrix(0.8485 0.5292 -0.5292 0.8485 11.7382 -5.7478)" class="aw-theme-iconOutline" fill="#464646" width="0.768" height="0.744"/>
<path class="aw-theme-iconOutline" fill="#464646" d="M18.688,17.169c-0.484,0-0.879-0.395-0.879-0.879c0-0.482,0.395-0.875,0.879-0.875
	c0.48,0,0.872,0.393,0.872,0.875C19.561,16.774,19.169,17.169,18.688,17.169z"/>
<path class="aw-theme-iconOutline" fill="#464646" d="M16.536,22.185h-2.354v-1.953h2.354V22.185z M14.927,21.44h0.865v-0.465h-0.865V21.44z"/>
<path class="aw-theme-iconOutline" fill="#464646" d="M18.958,22.185h-2.357v-2.768h2.357V22.185z M17.345,21.44h0.869v-1.279h-0.869V21.44z"/>
<path class="aw-theme-iconOutline" fill="#464646" d="M21.378,22.185h-2.361v-3.977h2.361V22.185z M19.761,21.44h0.873v-2.488h-0.873V21.44z"/>
<polygon class="aw-theme-iconOutline" fill="#464646" points="22.616,14.925 18.819,14.925 18.819,11.125 19.563,11.125 19.563,14.181 22.616,14.181 "/>
</svg>
