<svg version="1.1" id="Livello_1" xmlns="http://www.w3.org/2000/svg" xmlns:xlink="http://www.w3.org/1999/xlink" x="0px" y="0px"
	  viewBox="0 0 24 24" enable-background="new 0 0 24 24" xml:space="preserve">
<path class="aw-theme-iconOutline" fill="#464646" d="M17.083,9.937c0.085,0,0.165,0,0.257,0c0.304,0,0.567,0,0.806,0.001v-4.53
	c0.026-0.114,0.001-0.236-0.068-0.333L9.435,0.063c-0.13-0.085-0.301-0.085-0.432,0L0.26,5.075C0.105,5.118,0,5.255,0,5.407v9.176
	c0.002,0.132,0.066,0.255,0.174,0.332l8.641,5.012c0.128,0.061,0.172,0.084,0.258,0.084c0.095,0.013,0.087,0.007,0.258-0.084
	l0.538-0.312c-0.002-0.968,0.002-2.02,0.012-2.567v-6.585l7.203-4.165V9.937z M8.729,18.471l-7.491-4.307V6.31l7.491,4.346V18.471z
	 M9.218,9.602L2.015,5.437l7.203-4.166l7.203,4.166L9.218,9.602z"/>
<path class="aw-theme-iconOutline" fill="#464646" d="M18.581,24h-2.164l-0.745-2.111l-1.998,0.947l-1.528-1.529l0.95-2.002L11,18.561v-2.162l2.096-0.744l-0.95-2
	l1.527-1.529l2.006,0.953L16.418,11h2.162l0.742,2.078l2.003-0.953l1.529,1.529l-0.951,2L24,16.398v2.164l-2.096,0.742l0.951,2
	l-1.53,1.531l-1.997-0.949L18.581,24z M17.073,23.07h0.852l0.606-1.717c0.142-0.396,0.599-0.588,0.967-0.416l1.635,0.777
	l0.603-0.604l-0.776-1.633c-0.085-0.178-0.091-0.385-0.015-0.568c0.075-0.186,0.229-0.33,0.419-0.398l1.709-0.605v-0.852
	l-1.709-0.605c-0.191-0.068-0.345-0.213-0.421-0.396c-0.075-0.186-0.07-0.393,0.016-0.574l0.776-1.631l-0.602-0.602L19.5,14.021
	c-0.364,0.176-0.833-0.018-0.968-0.393l-0.606-1.701h-0.853l-0.605,1.699c-0.14,0.379-0.61,0.568-0.972,0.391l-1.63-0.773
	l-0.602,0.602l0.776,1.635c0.084,0.18,0.09,0.387,0.014,0.572c-0.076,0.184-0.229,0.326-0.417,0.396l-1.709,0.605v0.852l1.708,0.607
	c0.189,0.066,0.344,0.209,0.421,0.395c0.075,0.186,0.068,0.393-0.018,0.572l-0.775,1.633l0.603,0.604l1.634-0.775
	c0.358-0.17,0.826,0.021,0.966,0.41L17.073,23.07z"/>
<path class="aw-theme-iconOutline" fill="#464646" d="M17.499,19.357c-1.023,0-1.856-0.834-1.856-1.857c0-1.025,0.833-1.857,1.856-1.857
	c1.024,0,1.857,0.832,1.857,1.857C19.356,18.523,18.523,19.357,17.499,19.357z M17.499,16.572c-0.513,0-0.928,0.414-0.928,0.928
	c0,0.512,0.415,0.93,0.928,0.93s0.929-0.418,0.929-0.93C18.428,16.986,18.012,16.572,17.499,16.572z"/>
</svg>
