<svg id="Layer_1" data-name="Layer 1" xmlns="http://www.w3.org/2000/svg" viewBox="0 0 24 24">
  <g id="g838">
    <path id="path832" d="M3.177,19.413A25.34,25.34,0,0,1,.138,17.639l-.1-.143v-4.65c0-4.641,0-4.651.092-4.767.183-.233.11-.227,2.758-.227H5.364l.022-2.187c.012-1.2.038-2.212.057-2.242.07-.107,5.886-3.393,6-3.388.09,0,5.079,2.843,5.668,3.225l.165.108V10.04h-.8V7.164A18.384,18.384,0,0,0,16.422,4.3c-.032.008-1.056.59-2.276,1.294l-2.219,1.28v4.269h1.741l-.351.241c-.193.133-.477.352-.63.486l-.279.245H7.11v7.954l1.727.011,1.728.012.212.475.212.475H6.115Zm2.871-3.506V12.1L3.581,10.758c-1.357-.735-2.481-1.337-2.5-1.337s-.028,1.7-.028,3.768v3.767l2.485,1.38c1.367.759,2.49,1.381,2.5,1.381S6.049,18,6.048,15.907Zm1.749-4.8c-.013-.022-.531-.332-1.151-.689a11.718,11.718,0,0,1-1.194-.744.941.941,0,0,1-.066-.46V8.847H3.941a7.617,7.617,0,0,0-1.4.044c.024.025.958.541,2.074,1.147l2.031,1.1.588,0a1.745,1.745,0,0,0,.563-.038Zm3.236-2.04-.012-2.079-2.3-1.329C7.459,4.927,6.4,4.319,6.369,4.307a14.187,14.187,0,0,0-.044,2.446l.011,2.468,1.679.962,1.678.962h1.351ZM13.7,4.912c1.224-.706,2.23-1.3,2.235-1.315.012-.042-4.445-2.6-4.518-2.589-.056,0-4.3,2.434-4.452,2.546C6.9,3.6,7.192,3.783,9.133,4.9c1.233.711,2.264,1.292,2.292,1.293S12.477,5.618,13.7,4.912Z" class="aw-theme-iconOutline" fill="#464646"/>
    <path id="path834" d="M8.227,19.29A.421.421,0,0,1,8,19.176L7.905,19V14.452s0-.157.051-.207.208-.051.208-.051H9.52a7.836,7.836,0,0,1,1.37.011c-.013.03-.142.3-.239.541l-.194.464-.754.007-.781-.005V18.3h1.233l.024.144c.064.4.109.643.136.752l.031.121-1.011-.006c-.555,0-1.054-.015-1.108-.025Z" class="aw-theme-iconOutline" fill="#464646"/>
    <path id="path836" d="M9.926,16.58a.594.594,0,0,1,.025-.817.509.509,0,0,1,.243-.066c.12,0,.144.014.124.077s-.159.833-.159.879S10.025,16.658,9.926,16.58Z" class="aw-theme-iconOutline" fill="#464646"/>
    <path id="path840" d="M9.971,17.853a.378.378,0,0,1-.165-.367.41.41,0,0,1,.165-.366l.173-.12.011,1Z" class="aw-theme-iconOutline" fill="#464646"/>
    <path id="path825" d="M17.1,16h1v5h-1Z" class="aw-theme-iconOutline" fill="#464646"/>
    <path id="path823" d="M17.1,14h1v1h-1Z" class="aw-theme-iconOutline" fill="#464646"/>
    <path id="path821" d="M17.249,11.007a6.472,6.472,0,1,0,.27-.006Q17.384,11,17.249,11.007Zm.27.994a5.5,5.5,0,1,1-5.483,5.5A5.5,5.5,0,0,1,17.519,12Z" class="aw-theme-iconOutline" fill="#464646"/>
  </g>
</svg>
