<svg id="Layer_1" data-name="Layer 1" xmlns="http://www.w3.org/2000/svg" viewBox="0 0 24 24">
  <g id="g816">
    <path id="path6" d="M12.121,1.083a.362.362,0,0,0-.183.057L4.025,5.675a.317.317,0,0,0-.234.3v6.994L.268,14.96a.509.509,0,0,0,0,.895c3,1.763,5.219,3.045,8.013,4.739l.581-.923L1.627,15.405l2.164-1.232v.1a.379.379,0,0,0,.156.3L9.915,18l.6-.942L4.912,13.9V6.792l6.777,3.932-.053,3.236,1.042-1.3.054-2.109,6.516-3.768.1,6.534.96,1.5-.1-8.841a.367.367,0,0,0-.063-.3L12.328,1.14A.37.37,0,0,0,12.121,1.083Zm.01,1.151L18.648,6l-6.517,3.77L5.615,6Z" class="aw-theme-iconOutline" fill="#464646"/>
    <path id="path825" d="M15.979,10.117l-.348.6L14.3,13.008l2.239,3.908.572,1,1.826,3.189H13.016l1.824-3.189.014-.023-.566-.977-1.11-1.91-1.109,1.91-.58,1L7.956,24H24l-4.2-7.266Zm0,2,2.7,4.67.5.867L22.268,23H9.692l2.951-5.082L13.179,17l.522.9-.012.02L11.3,22.109h9.375l-2.4-4.189-.572-1-2.237-3.9Z" class="aw-theme-iconOutline" fill="#464646"/>
  </g>
</svg>
