<svg id="Layer_1" data-name="Layer 1" xmlns="http://www.w3.org/2000/svg" viewBox="0 0 24 24">
  <g id="g861">
    <path id="path835" d="M3.781,22.113A34.735,34.735,0,0,1,.423,20.119a51.708,51.708,0,0,1-.069-5.357C.345,9.583.346,9.51.417,9.364c.145-.3-.057-.283,3.056-.276l2.758.006v-5.1l.117-.109C6.518,3.725,12.8.053,12.928.037c.086-.011.249.07.8.4,3.812,2.255,5.683,3.378,5.707,3.423.016.03.037,1.554.047,3.387l.018,3.333,1.607.956c.883.526,1.774,1.055,1.98,1.175.321.188.383.24.441.369.066.144.068.332.069,5.269,0,3.591-.011,5.167-.039,5.277a.618.618,0,0,1-.146.26l-.108.1-8.112.008L7.079,24Zm18.841-3.69v-4.6H8.036v9.207H22.622ZM7.061,18.25V13.8L4.222,12.211c-1.562-.872-2.854-1.592-2.871-1.6s-.03,1.975-.03,4.405v4.416l2.861,1.634c1.574.9,2.865,1.634,2.87,1.634S7.061,20.7,7.061,18.25ZM9.1,12.812c-.019-.019-.627-.386-1.352-.816s-1.358-.822-1.408-.87c-.086-.084-.091-.109-.1-.592l-.012-.505H4.435c-.985,0-1.779.012-1.764.027s1.134.648,2.488,1.406l2.462,1.379.756,0a3.1,3.1,0,0,0,.722-.031Zm3.414-2.382V8.015L9.977,6.507C8.582,5.678,7.4,4.975,7.359,4.946l-.082-.052.01,2.828L7.3,10.55,9.243,11.7l1.947,1.148h1.323Zm4.08,1.268,1.931-1.147.009-2.828.01-2.828-.118.069L15.916,6.452,13.524,7.87v4.975h1.137L16.593,11.7Zm4.565,1.114c-.059-.057-2.235-1.348-2.274-1.349s-2.07,1.2-2.272,1.334a11.069,11.069,0,0,0,2.254.048C20.275,12.845,21.179,12.832,21.158,12.812Zm-5.7-7.179c1.366-.81,2.489-1.488,2.5-1.508.013-.045-4.919-2.96-5-2.957C12.889,1.17,8.073,4,7.97,4.091a18.18,18.18,0,0,0,2.455,1.528C11.8,6.435,12.938,7.1,12.951,7.1S14.091,6.442,15.457,5.633Z" class="aw-theme-iconOutline" fill="#464646"/>
    <path id="rect1043" d="M9.757,16.287h.238a.382.382,0,0,1,.383.383v4.756a.382.382,0,0,1-.383.383H9.757a.382.382,0,0,1-.383-.383V16.67A.382.382,0,0,1,9.757,16.287Z" class="aw-theme-iconOutline" fill="#464646"/>
    <path id="rect1045" d="M9.965,16.3h7.056a.425.425,0,0,1,.425.425v.154a.424.424,0,0,1-.425.425H9.965a.423.423,0,0,1-.425-.425v-.154A.424.424,0,0,1,9.965,16.3Z" class="aw-theme-iconOutline" fill="#464646"/>
    <path id="rect1043-5" d="M17.074,21.992H16.83a.38.38,0,0,1-.38-.381V16.889a.38.38,0,0,1,.38-.381h.244a.379.379,0,0,1,.38.381v4.722A.379.379,0,0,1,17.074,21.992Z" class="aw-theme-iconOutline" fill="#464646"/>
    <path id="rect1045-2" d="M17.029,21.992H9.8a.425.425,0,0,1-.425-.426v-.153a.425.425,0,0,1,.425-.426h7.23a.424.424,0,0,1,.425.426v.153A.424.424,0,0,1,17.029,21.992Z" class="aw-theme-iconOutline" fill="#464646"/>
    <path id="rect1065" d="M11.843,18h3.328a.38.38,0,0,1,.381.381v.243a.379.379,0,0,1-.381.38H11.843a.379.379,0,0,1-.38-.38v-.243A.379.379,0,0,1,11.843,18Z" class="aw-theme-iconOutline" fill="#464646"/>
    <path id="rect1067" d="M11.925,19.48h2.409a.405.405,0,0,1,.406.406v.191a.406.406,0,0,1-.406.407H11.925a.406.406,0,0,1-.407-.407v-.191A.405.405,0,0,1,11.925,19.48Z" class="aw-theme-iconOutline" fill="#464646"/>
  </g>
</svg>
