<svg id="Image" xmlns="http://www.w3.org/2000/svg" viewBox="0 0 24 24">
  <g id="g829">
    <path id="path824" d="M2.332,20.767C1.2,20.088.229,19.482.166,19.419l-.113-.113L.041,16.963A11.647,11.647,0,0,1,.1,14.473a11.431,11.431,0,0,1,2.313-1.494l2.244-1.348,2.218,1.331,2.218,1.33L9.08,16.874l-.011,2.583L6.9,20.728A11.18,11.18,0,0,1,4.561,22,9.821,9.821,0,0,1,2.332,20.767Zm1.755-1.755-.012-1.621-1.495-.9c-.822-.493-1.513-.9-1.535-.9A13.968,13.968,0,0,0,1,17.215v1.628l1.491.893c.819.492,1.515.894,1.545.895A6.36,6.36,0,0,0,4.087,19.012Zm2.534.749,1.5-.873V17.216c0-.919-.015-1.665-.035-1.657s-.706.409-1.525.892l-1.488.877v1.653c0,.909.013,1.653.028,1.653s.7-.391,1.52-.873Zm-.365-4.253c.806-.474,1.465-.872,1.465-.884s-2.956-1.81-3.048-1.847c-.031-.012-3.076,1.81-3.152,1.886A12.875,12.875,0,0,0,3,15.611l1.514.908.141-.075C4.727,16.4,5.45,15.982,6.256,15.508Z" class="aw-theme-iconOutline" fill="#464646"/>
    <path id="path827" d="M2.827,9.325a23.313,23.313,0,0,1-2.2-1.1C.513,8.088.531,8.215.264,5.5.144,4.274.035,3.185.023,3.082L0,2.9,2.153,1.457,4.306.019l.88.418,2.3,1.088c.778.368,1.428.682,1.445.7.047.047.485,5,.452,5.108a.626.626,0,0,1-.115.188c-.151.166-4.074,2.754-4.212,2.779A11.074,11.074,0,0,1,2.827,9.325Zm3.6-1.043c.8-.536,1.459-.988,1.464-1.006S5.128,5.925,5,5.909C4.917,5.9,2.048,7.8,2.062,7.86c.007.031,2.809,1.384,2.89,1.394.014,0,.68-.429,1.48-.969ZM2.92,6.073,4.386,5.1,4.36,4.912c-.013-.1-.086-.9-.162-1.775s-.151-1.626-.167-1.669c-.025-.065-.271.083-1.525.92-1.429.953-1.493,1-1.47,1.116.013.065.095.865.183,1.776.161,1.664.173,1.768.218,1.768C1.447,7.048,2.116,6.609,2.92,6.073Zm5.414.08c-.015-.128-.089-.928-.164-1.779s-.14-1.549-.144-1.549c-.152-.1-2.965-1.385-2.981-1.368s.251,3.271.3,3.423c.027.09.276.224,1.488.8.8.382,1.473.7,1.494.7S8.349,6.281,8.334,6.153Z" class="aw-theme-iconOutline" fill="#464646"/>
    <path id="path829" d="M16.082,8.945c-.034-.054-.612-1.037-1.282-2.182a14.352,14.352,0,0,1-1.22-2.23,42.522,42.522,0,0,1,2.659-4.5h4.853l.131.122c.073.067.718,1.1,1.434,2.3l1.3,2.177-.387.651c-.214.358-.81,1.352-1.326,2.209L21.307,9.05H16.145Zm3.93-.905C20,8,19.594,7.3,19.119,6.493l-.864-1.47H16.6c-.909,0-1.652.013-1.652.029s.4.713.889,1.547l.89,1.518h1.656C19.945,8.117,20.04,8.112,20.012,8.04Zm1.875-4.985c-.517-.864-.953-1.579-.969-1.588s-.439.667-.941,1.5l-.913,1.521.644,1.094L20.66,7.2l.309.524.93-1.551.93-1.551Zm-2.774-.529L20.028,1H16.739l-.9,1.492c-.492.821-.894,1.507-.894,1.525s.731.032,1.624.032H18.2Z" class="aw-theme-iconOutline" fill="#464646"/>
    <path id="path842" d="M11,21.92h5.04v1.04H11Z" class="aw-theme-iconOutline" fill="#464646"/>
    <path id="path844" d="M22.04,21.92h2v1.04h-2Z" class="aw-theme-iconOutline" fill="#464646"/>
    <path id="path846" d="M20.04,24h-2A1.059,1.059,0,0,1,17,22.96V22a1.059,1.059,0,0,1,1.04-1.04h2A1.047,1.047,0,0,1,21,22v.96A1.047,1.047,0,0,1,20.04,24Zm-2-2v.96h2V22Z" class="aw-theme-iconOutline" fill="#464646"/>
    <path id="path848" d="M18.68,12.96l.8,2,2-.8,1.36,1.28-.8,2,2,.8V20H23V18.88L20.68,18l.96-2.32-.4-.32-2.32.88L18.04,14H17l-.96,2.24-2.24-.88-.4.32L14.28,18l-2.24.88V20H11V18.24l2-.8-.8-2,1.36-1.28,1.92.8.8-2Z" class="aw-theme-iconOutline" fill="#464646"/>
  </g>
</svg>
