<svg id="Layer_1" data-name="Layer 1" xmlns="http://www.w3.org/2000/svg" viewBox="0 0 24 24">
  <g id="g920">
    <path id="path911" d="M3.082,19.36A18.989,18.989,0,0,1,.143,17.591c-.06-.115-.063-.4-.054-4.755L.1,8.2l.134-.123.135-.123H5.221V3.5L5.3,3.422C5.457,3.276,11.008.048,11.1.048c.058,0,1.136.621,2.85,1.639,1.516.9,2.773,1.654,2.793,1.674s.042,1.084.054,2.968l.018,2.933,1.654.98c.909.538,1.71,1.029,1.779,1.089l.126.109.011.758.011.758h-.831v-.863H6.8v8.054h4.459v.863l-2.652,0-2.651,0L3.082,19.36Zm2.886-3.387-.01-3.886-2.5-1.395L.961,9.3.952,13.147c-.005,2.166,0,3.864.022,3.881.056.057,4.911,2.827,4.958,2.829S5.975,19.071,5.968,15.973ZM7.7,11.2c-.029-.019-.579-.347-1.222-.73a8.517,8.517,0,0,1-1.213-.783,1.678,1.678,0,0,1-.045-.492v-.4H3.651c-.863,0-1.558.012-1.543.027s.984.564,2.154,1.22L6.39,11.225h.683A2.029,2.029,0,0,0,7.7,11.2Zm3.012-2.072-.009-2.107L8.444,5.671C7.2,4.932,6.169,4.327,6.152,4.327s-.031,1.085-.03,2.454V9.235l1.7,1,1.7,1h1.205l-.009-2.107Zm3.576,1.122a14.286,14.286,0,0,0,1.689-1.064C16,9.137,16,8.02,16,6.7l-.009-2.4-2.2,1.3-2.2,1.3V11.23H12.63Zm3.974.964c-.049-.049-1.945-1.165-1.98-1.165s-1.754,1-1.947,1.138a8.031,8.031,0,0,0,1.938.048C17.381,11.23,18.276,11.221,18.264,11.209ZM13.311,4.932c1.207-.716,2.183-1.313,2.167-1.328-.052-.051-4.3-2.559-4.357-2.572S6.714,3.576,6.714,3.62c0,.022,4.331,2.6,4.376,2.61C11.1,6.231,12.1,5.647,13.311,4.932Z" class="aw-theme-iconOutline" fill="#464646"/>
    <path id="path2" d="M22.981,19.985h1v3h-3v-3h1V19H18.989v.969h1v3h-3v-3h1V19H14.973v.985h1v3h-3v-3h1V18h4.016V16.969h-1v-3h3v3h-1V18h3.992Z" class="aw-theme-iconOutline" fill="#464646"/>
    <path id="rect1043" d="M8.063,14.28h.208a.334.334,0,0,1,.335.335v4.16a.334.334,0,0,1-.335.335H8.063a.334.334,0,0,1-.335-.335v-4.16A.334.334,0,0,1,8.063,14.28Z" class="aw-theme-iconOutline" fill="#464646"/>
    <path id="rect1045" d="M8.245,14.288h6.171v.878H8.245a.371.371,0,0,1-.372-.372V14.66A.371.371,0,0,1,8.245,14.288Z" class="aw-theme-iconOutline" fill="#464646"/>
    <path id="rect1045-2" d="M12.223,19.27H8.1a.371.371,0,0,1-.372-.372v-.135a.371.371,0,0,1,.372-.372h4.123Z" class="aw-theme-iconOutline" fill="#464646"/>
    <path id="rect1065" d="M9.887,15.776H12.8a.331.331,0,0,1,.332.333v.213a.331.331,0,0,1-.332.332H9.887a.331.331,0,0,1-.332-.332v-.213A.331.331,0,0,1,9.887,15.776Z" class="aw-theme-iconOutline" fill="#464646"/>
    <path id="rect1067" d="M9.959,17.072h2.107a.355.355,0,0,1,.355.356V17.6a.355.355,0,0,1-.355.356H9.959A.356.356,0,0,1,9.6,17.6v-.167A.356.356,0,0,1,9.959,17.072Z" class="aw-theme-iconOutline" fill="#464646"/>
  </g>
</svg>
