<svg id="Livello_3" data-name="Livello 3" xmlns="http://www.w3.org/2000/svg" viewBox="0 0 24 24">
  <g id="g843">
    <path id="path824" d="M12.691,22.975A10.02,10.02,0,0,1,7.963,21.55a9.429,9.429,0,0,1-2.04-1.639A9.915,9.915,0,0,1,3.23,14.438a7.7,7.7,0,0,1-.08-1.417c0-.494.018-1,.039-1.132a1.023,1.023,0,0,0,.023-.25,4.967,4.967,0,0,0-.508-.046c-1-.062-1.383-.242-1.664-.783a2.182,2.182,0,0,1-.021-1.3A10.62,10.62,0,0,1,2.388,6,11.018,11.018,0,0,1,7.172,1.83,9.83,9.83,0,0,1,11.444.885a1.165,1.165,0,0,1,.759.554c.1.2.106.217.122.909l.016.7.436-.025a9.147,9.147,0,0,1,.993.016,9.891,9.891,0,0,1,5.886,2.425,10.093,10.093,0,0,1,3.011,4.645A9.782,9.782,0,0,1,23.082,13a9.559,9.559,0,0,1-1.04,4.441,9.979,9.979,0,0,1-7.342,5.41,14.871,14.871,0,0,1-1.7.137C12.957,22.988,12.82,22.98,12.691,22.975Zm1.043-.984a8.781,8.781,0,0,0,3.362-.913,9.024,9.024,0,0,0,4.912-6.619,11.427,11.427,0,0,0,.052-2.534A8.847,8.847,0,0,0,21.139,8.9a9.067,9.067,0,0,0-5.161-4.451A9.218,9.218,0,0,0,12.682,4l-.418.026-.022.114c-.012.062-.089.385-.17.718-.223.912-.386,1.129-.968,1.279a6.888,6.888,0,0,0-2.242.98,10.343,10.343,0,0,0-1.611,1.6A4.931,4.931,0,0,0,6.434,10.4c-.185.7-.375.878-1.132,1.054a6.128,6.128,0,0,1-.695.11,3.313,3.313,0,0,0-.386.049,5.8,5.8,0,0,0-.1,1.411,7.413,7.413,0,0,0,.2,1.96,9.01,9.01,0,0,0,9.418,7.01ZM4.545,10.6a2.143,2.143,0,0,0,.882-.215,2.99,2.99,0,0,0,.1-.346A7.46,7.46,0,0,1,8.5,6.2a7.568,7.568,0,0,1,2.074-.922c.222-.059.41-.113.418-.12a11.218,11.218,0,0,0,.317-1.361,7.75,7.75,0,0,0,0-1.938,3.9,3.9,0,0,0-1.344.094A10.34,10.34,0,0,0,4.565,4.8,9.474,9.474,0,0,0,2.424,8.1a5.5,5.5,0,0,0-.489,2.336.353.353,0,0,0,.193.116A9.892,9.892,0,0,0,4.545,10.6Z" class="aw-theme-iconOutline" fill="#464646"/>
    <path id="path828-1-1-9-9" d="M13.111,7a6,6,0,1,0,6,6A6,6,0,0,0,13.111,7Zm0,1a5,5,0,1,1-5,5A5,5,0,0,1,13.111,8Z" class="aw-theme-iconOutline" fill="#464646"/>
    <path id="path905-8" d="M10.034,13.017a.5.5,0,1,1-.5-.5A.5.5,0,0,1,10.034,13.017Z" class="aw-theme-iconOutline" fill="#464646"/>
    <path id="path905-7" d="M13.568,16.576a.5.5,0,1,1-.5-.5A.5.5,0,0,1,13.568,16.576Z" class="aw-theme-iconOutline" fill="#464646"/>
    <path id="path905-9" d="M17.2,12.966a.5.5,0,1,1-.5-.5A.5.5,0,0,1,17.2,12.966Z" class="aw-theme-iconOutline" fill="#464646"/>
    <path id="path905-3" d="M13.594,9.508a.5.5,0,1,1-.5-.5A.5.5,0,0,1,13.594,9.508Z" class="aw-theme-iconOutline" fill="#464646"/>
    <path id="path828-1-1-9-3" d="M13.111,11a2,2,0,1,0,2,2A2,2,0,0,0,13.111,11Zm0,1a1,1,0,1,1-1,1A1,1,0,0,1,13.111,12Z" class="aw-theme-iconOutline" fill="#464646"/>
    <path id="path905-7-3" d="M4.048,9.225a.5.5,0,1,1-.5-.5A.5.5,0,0,1,4.048,9.225Z" class="aw-theme-iconOutline" fill="#464646"/>
    <path id="path905-3-1" d="M10.779,3.255a.5.5,0,1,1-.5-.5A.5.5,0,0,1,10.779,3.255Z" class="aw-theme-iconOutline" fill="#464646"/>
    <path id="path905-3-8" d="M6.245,4.977a.5.5,0,1,1-.5-.5A.5.5,0,0,1,6.245,4.977Z" class="aw-theme-iconOutline" fill="#464646"/>
  </g>
</svg>
