<svg id="Livello_1" data-name="Livello 1" xmlns="http://www.w3.org/2000/svg" viewBox="0 0 24 24">
  <rect id="rect9" width="24" height="24" fill="none"/>
  <rect id="rect11" width="24" height="24" fill="none"/>
  <g id="g876">
    <path id="rect13" d="M1,4.061H22.251v1H1Z" fill="#464646"/>
    <path id="rect15" d="M2,4.7H3V20.6H2Z" fill="#464646"/>
    <path id="rect17" d="M6,4.845H7V20.8H6Z" fill="#464646"/>
    <path id="polygon19" d="M10,15.029l1-1V4.736H10Z" fill="#464646"/>
    <path id="polygon21" d="M14,10.567l1-.594v-5.2H14Z" fill="#464646"/>
    <path id="rect23" d="M1,8.06H22v1H1Z" fill="#464646"/>
    <path id="rect25" d="M1,12.062h9.5v1H1Z" fill="#464646"/>
    <path id="polygon27" d="M22,9.973l1,.594V3.061H22Z" fill="#464646"/>
    <path id="rect29" d="M18,4.666h1V9.973H18Z" fill="#464646"/>
    <path id="rect31" d="M1,16.061h9v1H1Z" fill="#464646"/>
    <path id="polygon33" d="M1.9,20.938h8.6l-.5-1H1.9Z" fill="#464646"/>
    <path id="rect35" d="M1,3.061H22.251V4.153H1Z" fill="#464646"/>
    <path id="rect37" d="M1,5.038H2.179v15.9H1Z" fill="#464646"/>
    <path id="path824" d="M17.6,16.943s-.034-.214-.074-.469c-.066-.413-.072-.465-.054-.473s.307-.052.656-.105c.73-.111.708-.107.7-.122s-.075-.066-.158-.133a3.668,3.668,0,0,0-1.785-.846,2.119,2.119,0,0,0-.821.076,2.453,2.453,0,0,0-.509.265,3.189,3.189,0,0,0-.9,1.115c-.04.077-.075.142-.077.145s-.827-.431-.853-.449c0,0,.044-.074.257-.4a3.481,3.481,0,0,1,1.58-1.539,3.548,3.548,0,0,1,.8-.184,2.709,2.709,0,0,1,.693.013,5.155,5.155,0,0,1,2.084,1.014.733.733,0,0,0,.169.107c0-.008-.04-.289-.092-.625s-.092-.612-.089-.615.216-.038.473-.077l.467-.072.226,1.461c.124.8.224,1.463.222,1.465s-.644.1-1.427.221-1.439.222-1.458.226a.093.093,0,0,1-.036,0Z" fill="#464646"/>
    <path id="path3-5" d="M17.5,24a6.487,6.487,0,1,1,.026,0H17.5m0-12A5.5,5.5,0,1,0,23,17.5,5.5,5.5,0,0,0,17.5,12" fill="#464646"/>
    <path id="circle5-7" d="M17,19.251A1.75,1.75,0,1,1,15.251,17.5h0A1.75,1.75,0,0,1,17,19.251Z" fill="#464646"/>
    <path id="circle5-4" d="M19.762,17.508a1.76,1.76,0,1,0,.024,0Zm.012,1h.01a.75.75,0,0,1,.75.75h0a.75.75,0,1,1-.76-.75Z" fill="#464646"/>
  </g>
</svg>
