<svg id="Layer_1" data-name="Layer 1" xmlns="http://www.w3.org/2000/svg" viewBox="0 0 24 24">
  <g id="g822">
    <path id="path6" d="M12.121,1.184a.361.361,0,0,0-.183.056L4.025,5.775a.318.318,0,0,0-.234.3v6.994L.268,15.061a.508.508,0,0,0,0,.894l9.727,5.567L10,20.228,1.627,15.506l2.164-1.233v.1a.383.383,0,0,0,.156.3L10,18.209l-.014-1.266L4.912,14V6.893l6.777,3.931v3.141a7.541,7.541,0,0,1,1.043-1.048V10.65l6.516-3.767v4.934a7.471,7.471,0,0,1,.961.3V6.074a.367.367,0,0,0-.063-.3L12.328,1.24A.361.361,0,0,0,12.121,1.184Zm.01,1.15L18.648,6.1,12.131,9.869,5.615,6.1Z" class="aw-theme-iconOutline" fill="#464646"/>
    <path id="path847" d="M11,21.92h5.04v1.04H11Z" class="aw-theme-iconOutline" fill="#464646"/>
    <path id="path849" d="M22.04,21.92h2v1.04h-2Z" class="aw-theme-iconOutline" fill="#464646"/>
    <path id="path851" d="M20.04,24h-2A1.059,1.059,0,0,1,17,22.96V22a1.059,1.059,0,0,1,1.04-1.04h2A1.048,1.048,0,0,1,21,22v.96A1.048,1.048,0,0,1,20.04,24Zm-2-2v.96h2V22Z" class="aw-theme-iconOutline" fill="#464646"/>
    <path id="path853" d="M18.68,12.96l.8,2,2-.8,1.36,1.28-.8,2,2,.8V20H23V18.88L20.68,18l.96-2.32-.4-.32-2.32.88L18.04,14H17l-.96,2.24-2.24-.88-.4.32L14.28,18l-2.24.88V20H11V18.24l2-.8-.8-2,1.36-1.28,1.92.8.8-2Z" class="aw-theme-iconOutline" fill="#464646"/>
  </g>
</svg>
