<svg id="Livello_3" data-name="Livello 3" xmlns="http://www.w3.org/2000/svg" viewBox="0 0 24 24">
  <g id="g834">
    <path id="path885" d="M9.489,18a4.494,4.494,0,0,1-.3-.915L9.171,17H8.014c-.637,0-1.188.008-1.225.018-.089.024-.084.071.035.367.1.249.1.25.037.275-.035.014-.2.087-.36.164a2.7,2.7,0,0,1-.3.13,5.084,5.084,0,0,1-.252-.7l-.055-.214-1.26-.008-1.261-.008.021.1a3.5,3.5,0,0,0,.184.5c.01.025-.087.086-.279.176-.459.216-.418.211-.487.054a4.866,4.866,0,0,1-.241-.762c0-.051-.025-.06-.185-.068L2.2,17.019,1.7,16.3A16.673,16.673,0,0,1,.131,13.726a1.467,1.467,0,0,1,.2-1.339,1.931,1.931,0,0,1,.685-.53A10.516,10.516,0,0,1,3.1,11.245a.718.718,0,0,0,.157-.029c0-.014-.163-.37-.325-.712A1.684,1.684,0,0,1,2.76,9.166c.022-.066.021-.066-.41-.075l-.431-.008L2.541,8c.341-.6.63-1.08.642-1.077s.3.49.638,1.082L4.44,9.083,4.05,9.1l-.39.015-.088.165a.6.6,0,0,0-.086.351c0,.166.024.235.21.632.114.245.247.545.295.667l.087.221.49-.018c.27-.01.825-.019,1.235-.019h.744l-.021-.066c-.011-.036-.106-.245-.21-.464A1.781,1.781,0,0,1,6.08,9.151L6.1,9.068H5.677a1.388,1.388,0,0,1-.414-.028c.023-.064,1.236-2.166,1.25-2.165s1.224,2.1,1.25,2.167a1.393,1.393,0,0,1-.383.026H6.988l-.092.2c-.142.306-.123.416.19,1.1.14.306.273.606.295.666l.039.111.211.017c.117.009.433.032.705.05s.735.065,1.03.1.543.063.55.057a2.784,2.784,0,0,0-.283-.674,5.684,5.684,0,0,1-.264-.65,1.7,1.7,0,0,1,0-.754L9.4,9.13l-.427-.009-.427-.008.591-1.029c.325-.566.609-1.058.632-1.093.039-.058.082.009.661,1.018.341.594.62,1.089.62,1.1a2.006,2.006,0,0,1-.383.019h-.383L10.21,9.3c-.153.335-.138.461.117,1,.091.191.232.511.313.709.217.532.2.507.37.532a1.059,1.059,0,0,0,.151.015s.093-.364.2-.8A42.636,42.636,0,0,1,13.6,3.9a3.3,3.3,0,0,1,1.364-1.608,2.4,2.4,0,0,1,1.519-.312c.381.028,1.5.163,1.523.183,0,.006-.83,3.034-1.856,6.73-1.212,4.364-1.9,6.785-1.957,6.908a2.9,2.9,0,0,1-1.1,1.029c-.318.162-.5.179-1.864.179H9.978l.02.083a4.271,4.271,0,0,0,.173.5l.049.115-.292.137c-.375.175-.422.193-.439.166ZM5.325,16.013a2.822,2.822,0,0,0,.68-.032,2.216,2.216,0,0,1,.381-.555,3.018,3.018,0,0,0,.665-1.163,3.679,3.679,0,0,0-.024-1.77l-.083-.344-.178-.024c-.148-.021-2.311,0-2.333.018a1.993,1.993,0,0,0,.048.247,4.712,4.712,0,0,1,.078,1.8,4.275,4.275,0,0,1-.309.939,5.972,5.972,0,0,1-.539.794l-.111.132.523-.02C4.41,16.022,4.951,16.013,5.325,16.013Zm4.054-.123a3.826,3.826,0,0,1,.312-.408,2.734,2.734,0,0,0,.755-1.769,4.125,4.125,0,0,0-.1-1.07l-.045-.2-.6-.081c-.84-.112-1.9-.217-1.922-.19,0,0,.029.16.068.35A3.717,3.717,0,0,1,7.1,15.812l-.169.2H9.311Zm3.166.074a2.2,2.2,0,0,0,.568-.386.9.9,0,0,0,.185-.242C13.378,15.153,16.74,3.024,16.717,3a2.827,2.827,0,0,0-.46-.021h-.441l-.257.129c-.7.347-1.069.989-1.853,3.208-.479,1.356-.942,2.952-1.474,5.081-.173.694-.321,1.268-.328,1.275a2.588,2.588,0,0,1-.373-.04,2.92,2.92,0,0,0-.37-.043,1.612,1.612,0,0,0,.032.266,5.373,5.373,0,0,1,0,1.359,3.5,3.5,0,0,1-.652,1.479c-.086.114-.175.234-.2.266-.043.057-.028.058,1.045.039C11.984,15.988,12.506,15.972,12.545,15.964Zm-9.773-.139a3.007,3.007,0,0,1,.3-.392,2.979,2.979,0,0,0,.618-2.926,2.307,2.307,0,0,0-.085-.3,4.9,4.9,0,0,0-.908.14,9.938,9.938,0,0,0-1.285.438.984.984,0,0,0-.275.18.5.5,0,0,0-.081.383,14.159,14.159,0,0,0,1.254,2.087c.2.285.367.518.376.518A.459.459,0,0,0,2.772,15.825Z" class="aw-theme-iconOutline" fill="#464646"/>
    <path id="rect1257" d="M21,4h3V5H21Z" class="aw-theme-iconOutline" fill="#464646"/>
    <path id="rect1257-1" d="M21,1h3V2H21Z" class="aw-theme-iconOutline" fill="#464646"/>
    <path id="rect1257-9" d="M21,7h3V8H21Z" class="aw-theme-iconOutline" fill="#464646"/>
    <path id="rect1257-97" d="M19,1h1V2H19Z" class="aw-theme-iconOutline" fill="#464646"/>
    <path id="rect1257-97-0" d="M19,7h1V8H19Z" class="aw-theme-iconOutline" fill="#464646"/>
    <path id="rect1257-97-1" d="M19,4h1V5H19Z" class="aw-theme-iconOutline" fill="#464646"/>
  </g>
</svg>
