<svg id="Image" xmlns="http://www.w3.org/2000/svg" viewBox="0 0 24 24">
  <g id="g901">
    <path id="rect958" d="M11,9h1v1H11Z" class="aw-theme-iconOutline" fill="#464646"/>
    <path id="rect960" d="M14,9h2v1H14Z" class="aw-theme-iconOutline" fill="#464646"/>
    <path id="rect964" d="M2,9H8v1H2Z" class="aw-theme-iconOutline" fill="#464646"/>
    <path id="path1010" d="M0,1.153H2.249V.54c0-.6,0-.313.1-.4a.345.345,0,0,1,.47,0c.095.09.1-.187.113.4l.013.609H4.52V.575c0-.581.021-.385.158-.478A.433.433,0,0,1,5.05.1c.137.093.157-.1.157.478v.578H6.782V.544C6.8-.043,6.8.234,6.9.145a.344.344,0,0,1,.469,0c.1.087.1-.2.1.4v.609H9.081V.54c0-.6,0-.313.1-.4a.345.345,0,0,1,.432-.02c.092.066.1-.21.113.391l.02.624.8.01.8.009V.541c0-.6,0-.314.1-.4a.348.348,0,0,1,.45,0l.112.087.022.31.011.615h1.567L13.618.52c.012-.614.015-.334.112-.4A.43.43,0,0,1,14.143.1c.137.093.159-.1.159.478v.577h1.575V.562c0-.583,0-.292.1-.4A.336.336,0,0,1,16.465.14c.1.087.1-.2.1.4v.613H19v9l-.986-.1V2.1H16.567V2.31c0,.177.015.223.1.294.361.3-.076.768-.6.643-.36-.086-.509-.408-.287-.622.084-.081.176-.149.1-.311V2.1H14.3v.209c0,.176.016.224.1.293.364.3-.071.77-.6.645-.36-.086-.51-.408-.287-.622.085-.081.177-.149.1-.311V2.1H12.038v.214c0,.178.017.23.1.311.225.213.074.536-.287.621-.526.125-.963-.342-.6-.643.085-.071.176-.134.1-.294V2.1l-.8.01-.8.009L9.74,2.3a.3.3,0,0,0,.113.3c.408.4-.275.877-.816.562a.34.34,0,0,1-.047-.572.3.3,0,0,0,.089-.29l-.013-.184-.8-.01-.8-.01v.2a.353.353,0,0,0,.121.326c.43.435-.43.9-.9.48a.32.32,0,0,1,.033-.514.2.2,0,0,0,.054-.261V2.1H5.2v.214c0,.178.017.23.1.311.225.213.073.536-.287.621-.526.125-.963-.342-.6-.643.085-.071.1-.117.1-.294V2.1H2.934v.211c0,.148.019.226.063.257a.4.4,0,0,1,.16.356.557.557,0,0,1-.413.328.627.627,0,0,1-.72-.322.419.419,0,0,1,.147-.359c.049-.036.068-.108.068-.26V2.1H1V12.553L0,13.2Z" class="aw-theme-iconOutline" fill="#464646"/>
    <path id="path928-0-4" d="M4.189,22.944c-.185,0-.443,0-.641-.006a4.85,4.85,0,0,1-3.311-1.37,1.63,1.63,0,0,1-.2-.432,5.871,5.871,0,0,1-.025-1.077v-.934a1.34,1.34,0,0,0,.207.477,2.049,2.049,0,0,0,.52.494l.058.037v.78l.032.069A2.413,2.413,0,0,0,2,21.762a5.156,5.156,0,0,0,1.915.338c.247.018.928-.02,1.159-.038a6.712,6.712,0,0,0,2.407-.534,1.456,1.456,0,0,0,.691-.543l.028-.059v-.783l.1-.07a1.949,1.949,0,0,0,.242-.2.525.525,0,0,1,.166-.1l.2-.089.1-.044v.706a3.535,3.535,0,0,1-.011.8,1.7,1.7,0,0,1-.762.944,6.489,6.489,0,0,1-2.918.817c-.185,0-.691.032-.838.03h-.28Z" class="aw-theme-iconOutline" fill="#464646"/>
    <path id="path930-9-1" d="M4.2,21.091A6.228,6.228,0,0,1,.543,20.054,1.28,1.28,0,0,1,.062,18.7a1.3,1.3,0,0,1,.332-.541,1.934,1.934,0,0,1,.4-.334l.1-.069.046.027.044.025v.361A1.937,1.937,0,0,0,1,18.6l.018.074-.08.092a.326.326,0,0,0,0,.531,3.7,3.7,0,0,0,1.841.783c.088.013.23.049.327.071a9.253,9.253,0,0,0,2.415.292,9.628,9.628,0,0,0,2.106-.215,7.218,7.218,0,0,0,.873-.247.177.177,0,0,1,.059-.019,2.116,2.116,0,0,1-.3.247,6.432,6.432,0,0,1-3.142.875C4.935,21.1,4.161,21.1,4,21.1Z" class="aw-theme-iconOutline" fill="#464646"/>
    <path id="path932-3-6" d="M5.168,20.565a7.452,7.452,0,0,1-3.223-.721,1.965,1.965,0,0,1-.921-.875A1.29,1.29,0,0,1,.93,18.31v-.368l.138.071a4.757,4.757,0,0,0,.52.223l.141.051v.126a.329.329,0,0,0,.032.193,1.646,1.646,0,0,0,.808.6,8.566,8.566,0,0,0,5.958-.054,1.592,1.592,0,0,0,.69-.529l.037-.064v-.83l.1-.076a1.569,1.569,0,0,0,.674-.927c.023-.109.023,1.806,0,1.939a1.725,1.725,0,0,1-1,1.174,7.168,7.168,0,0,1-2.892.711c-.188,0-.819.023-.973.013Z" class="aw-theme-iconOutline" fill="#464646"/>
    <path id="path934-6-5" d="M6.307,18.537c1.582-.294,2.574-.894,2.763-1.667a.32.32,0,0,1,.078-.121.459.459,0,0,0,.129-.247.446.446,0,0,0-.117-.247L9.1,16.188V15.163l.138.088a2.193,2.193,0,0,1,.461.373,1.335,1.335,0,0,1,.313.494,1.415,1.415,0,0,1-.838,1.668,6.62,6.62,0,0,1-2.694.741c-.2.018-.257.02-.17,0Z" class="aw-theme-iconOutline" fill="#464646"/>
    <path id="path936-8-4" d="M4.35,18.81a8.321,8.321,0,0,1-3.036-.6A2,2,0,0,1,.042,16.978a5.69,5.69,0,0,1-.026-1.084c0-1,0-1,.016-.914a1.478,1.478,0,0,0,.422.7,3,3,0,0,0,.306.247l.048.032v.82l.03.062a1.1,1.1,0,0,0,.311.321A5.5,5.5,0,0,0,3.7,17.9a11.4,11.4,0,0,0,1.432.025,5.881,5.881,0,0,0,2.866-.775,1.2,1.2,0,0,0,.3-.324l.028-.062v-.8l.108-.077a1.587,1.587,0,0,0,.691-.956,4.127,4.127,0,0,1,.012.838V16.8a1.256,1.256,0,0,1-.2.573,2.169,2.169,0,0,1-.391.425A7.273,7.273,0,0,1,4.418,18.81Z" class="aw-theme-iconOutline" fill="#464646"/>
    <path id="path940-7-9" d="M4.024,16.922a11.994,11.994,0,0,1-1.395-.173C1.1,16.44.154,15.815.025,15.019S.557,13.557,1.8,13.152a8.538,8.538,0,0,1,2.092-.38c.244-.019,1.1-.019,1.351,0a8.069,8.069,0,0,1,2.381.494c.92.355,1.447.884,1.5,1.482.069.849-.778,1.558-2.3,1.929a9.538,9.538,0,0,1-1.464.225c-.258.02-1.014.04-1.27.024Zm1.206-.865a7.67,7.67,0,0,0,1.883-.346c.691-.225,1.216-.593,1.216-.864,0-.213-.332-.494-.838-.722a8.6,8.6,0,0,0-4.144-.432,6.273,6.273,0,0,0-1.791.472c-.442.2-.771.494-.75.7a.448.448,0,0,0,.147.26,2.44,2.44,0,0,0,.976.558,9.31,9.31,0,0,0,2.162.388H5Z" class="aw-theme-iconOutline" fill="#464646"/>
    <path id="rect964-2" d="M2,6H8V7H2Z" class="aw-theme-iconOutline" fill="#464646"/>
    <path id="rect958-7" d="M11,6h1V7H11Z" class="aw-theme-iconOutline" fill="#464646"/>
    <path id="rect960-3" d="M14,6h2V7H14Z" class="aw-theme-iconOutline" fill="#464646"/>
    <path id="path824" d="M17.6,16.943s-.034-.214-.074-.469c-.066-.413-.072-.465-.054-.473s.307-.052.656-.105c.73-.111.708-.107.7-.122s-.075-.066-.158-.133a3.668,3.668,0,0,0-1.785-.846,2.119,2.119,0,0,0-.821.076,2.453,2.453,0,0,0-.509.265,3.189,3.189,0,0,0-.9,1.115c-.04.077-.075.142-.077.145s-.827-.431-.853-.449c0,0,.044-.074.257-.4a3.481,3.481,0,0,1,1.58-1.539,3.548,3.548,0,0,1,.8-.184,2.709,2.709,0,0,1,.693.013,5.155,5.155,0,0,1,2.084,1.014.733.733,0,0,0,.169.107c0-.008-.04-.289-.092-.625s-.092-.612-.089-.615.216-.038.473-.077l.467-.072.226,1.461c.124.8.224,1.463.222,1.465s-.644.1-1.427.221-1.439.222-1.458.226a.093.093,0,0,1-.036,0Z" class="aw-theme-iconOutline" fill="#464646"/>
    <path id="path3-5" d="M17.5,24a6.487,6.487,0,1,1,.026,0H17.5m0-12A5.5,5.5,0,1,0,23,17.5,5.5,5.5,0,0,0,17.5,12" class="aw-theme-iconOutline" fill="#464646"/>
    <path id="circle5-7" d="M17,19.251A1.75,1.75,0,1,1,15.251,17.5h0A1.75,1.75,0,0,1,17,19.251Z" class="aw-theme-iconOutline" fill="#464646"/>
    <path id="circle5-4" d="M19.762,17.508a1.76,1.76,0,1,0,.024,0Zm.012,1h.01a.75.75,0,0,1,.75.75h0a.75.75,0,1,1-.76-.75Z" class="aw-theme-iconOutline" fill="#464646"/>
  </g>
</svg>
