<svg id="Image" xmlns="http://www.w3.org/2000/svg" viewBox="0 0 24 24">
  <g id="g866">
    <path id="path827" d="M19.15,1.4,8.518,4,7.783,2.6a1.272,1.272,0,0,0-1.1-.6h-4.4A1.315,1.315,0,0,0,1,3.342L1,3.4V23H23V5H19.883Zm-.732,1.2,1.1,5.4H4.482L4.117,6.1ZM2.283,3H6.775a.855.855,0,0,1,.276.1L7.6,4.2,3.018,5.3,3.566,8H1.918V3.4A.414.414,0,0,1,2.283,3ZM20.066,6h2.016V8H20.434ZM1.918,9H22.082V22H1.918Z" class="aw-theme-iconOutline" fill="#464646"/>
    <path id="path2" d="M14.842,18.646a.454.454,0,0,0-.066-.415l-2.42-3.037a.262.262,0,0,0-.428,0L9.507,18.235c-.19.239-.056.648.213.649l.909,0v2.173a.348.348,0,0,0,.3.38h2.421a.348.348,0,0,0,.3-.38V18.88h.908a.312.312,0,0,0,.28-.235Zm-1.49-.526a.349.349,0,0,0-.3.38v2.182H11.234V18.511a.349.349,0,0,0-.3-.381l-.484,0L12.142,16l1.689,2.12Z" class="aw-theme-iconOutline" fill="#464646"/>
    <path id="path4" d="M12,9.8A6,6,0,0,0,8.963,20.971l.406-.689A5.216,5.216,0,0,1,7.636,18.6H8v-.8H7.206a5.165,5.165,0,0,1-.379-1.6H8.415c.005.113,0,.229.012.341l.8-.058c-.006-.093-.006-.189-.011-.283H10v-.8H9.211a8.792,8.792,0,0,1,.213-1.6H11.6v.4h.8v-.4h2.176a8.7,8.7,0,0,1,.212,1.6H14v.8h.784c-.006.124-.006.252-.015.374l.8.066c.012-.144.013-.293.019-.44h1.589a5.189,5.189,0,0,1-.376,1.6H16v.8h.365a5.2,5.2,0,0,1-1.778,1.709l.4.693A6,6,0,0,0,12,9.8ZM16.374,13H15.2a6.277,6.277,0,0,0-.905-1.861A5.213,5.213,0,0,1,16.374,13ZM9.709,11.137A6.274,6.274,0,0,0,8.805,13H7.625A5.226,5.226,0,0,1,9.709,11.137ZM8.412,15.4H6.82A5.182,5.182,0,0,1,7.2,13.8H8.6A9.667,9.667,0,0,0,8.412,15.4ZM9.658,13A3.444,3.444,0,0,1,11.6,10.66V13ZM12.4,13V10.66A3.444,3.444,0,0,1,14.342,13Zm3,.8h1.4a5.153,5.153,0,0,1,.38,1.6H15.588A9.775,9.775,0,0,0,15.4,13.8Z" class="aw-theme-iconOutline" fill="#464646"/>
  </g>
</svg>
