<svg id="Image" xmlns="http://www.w3.org/2000/svg" viewBox="0 0 24 24">
  <g id="g836">
    <path id="path2" d="M17.49,24a6.5,6.5,0,1,1,6.5-6.5A6.5,6.5,0,0,1,17.49,24Zm0-12a5.5,5.5,0,1,0,5.5,5.5A5.5,5.5,0,0,0,17.49,12Z" class="aw-theme-iconOutline" fill="#464646"/>
    <path id="path827" d="M1,.029v22H11.259A2.445,2.445,0,0,1,10.4,21H2.158L2.1,1.037H13.213V7.029H20V10.4l.982.5V6.029h-.007L21,6.016,14.324.039H13.209ZM14.322,1.5l5.063,4.533H14.322Z" class="aw-theme-iconOutline" fill="#464646"/>
    <path id="path825" d="M13.7,12.713v.037a.061.061,0,0,1,0-.019v-.008h0Z" class="aw-theme-iconOutline" fill="#464646" fill-rule="evenodd"/>
    <path id="path821" d="M19.383,13.863a1.8,1.8,0,0,0-1.282.508l-1.007.979.759.656.946-.918a.8.8,0,0,1,1.177,1.084.747.747,0,0,1-.064.062h0l-1.363,1.323a.787.787,0,0,1-1,.076c-.019,0-.031.016-.049.019l-1.088.2a1.792,1.792,0,0,0,1.551.935h0a1.788,1.788,0,0,0,1.279-.508L20.6,16.955a1.8,1.8,0,0,0-1.226-3.092Z" class="aw-theme-iconOutline" fill="#464646" fill-rule="evenodd"/>
    <path id="path835" d="M17.123,16.065a1.789,1.789,0,0,0-1.279.507L14.482,17.9a1.8,1.8,0,0,0,2.508,2.584L18,19.5l-.76-.656-.945.918a.8.8,0,0,1-1.14-1.123l.025-.024h0l1.363-1.322a.787.787,0,0,1,1-.076c.017,0,.031-.016.049-.02L18.68,17a1.79,1.79,0,0,0-1.551-.936Z" class="aw-theme-iconOutline" fill="#464646" fill-rule="evenodd"/>
    <path id="rect893" d="M3,2V6H7V2ZM4,3H6V5H4Z" class="aw-theme-iconOutline" fill="#464646"/>
    <path id="rect901" d="M4,6H5V20H4Z" class="aw-theme-iconOutline" fill="#464646"/>
    <path id="rect903" d="M5,8.5H7v1H5Z" class="aw-theme-iconOutline" fill="#464646"/>
    <path id="rect893-2" d="M7,7v4h4V7ZM8,8h2v2H8Z" class="aw-theme-iconOutline" fill="#464646"/>
    <path id="path972" d="M11.064,13H7v4H9.885c.007-.156.021-.312.037-.467.017-.2-.02-.549.1-.533H8V14h2.437c.048-.1.1-.192.149-.287a7.179,7.179,0,0,1,.41-.627C11.018,13.057,11.041,13.028,11.064,13Z" class="aw-theme-iconOutline" fill="#464646"/>
    <path id="rect903-2" d="M5,14.5H7v1H5Z" class="aw-theme-iconOutline" fill="#464646"/>
    <path id="rect903-2-9" d="M5,19v1h5a6.7,6.7,0,0,1-.324-1Z" class="aw-theme-iconOutline" fill="#464646"/>
  </g>
</svg>
