<svg id="Livello_3" data-name="Livello 3" xmlns="http://www.w3.org/2000/svg" viewBox="0 0 24 24">
  <g id="g829">
    <path id="path823" d="M12.376,21.816a6.278,6.278,0,0,1-.212-.684l-.076-.336-1.441.045c-.792.025-1.451.055-1.463.067a2.852,2.852,0,0,0,.209.665c.034.086-.041.145-.383.3-.4.182-.431.187-.508.082a4.038,4.038,0,0,1-.327-.994c0-.073-.263-.088-1.527-.088H5.121l.05.172c.028.095.1.282.153.416a.891.891,0,0,1,.085.262c-.01.01-.209.1-.442.208l-.424.19-.121-.264a3.734,3.734,0,0,1-.2-.624c-.069-.328-.09-.36-.242-.36s-.259-.134-.853-.984a25.815,25.815,0,0,1-1.739-2.8,1.658,1.658,0,0,1,.569-1.959,9.232,9.232,0,0,1,2.464-.886c.682-.124.659-.064.31-.809A2.6,2.6,0,0,1,4.347,11.8l.06-.3H3.916a1.5,1.5,0,0,1-.491-.041c0-.064,1.461-2.584,1.5-2.583s1.5,2.524,1.5,2.586a1.443,1.443,0,0,1-.462.038H5.5l-.1.213c-.163.343-.123.574.234,1.345.185.4.354.782.376.854.04.129.063.13,1.493.1.8-.016,1.462-.038,1.475-.049a4.253,4.253,0,0,0-.263-.633A2.25,2.25,0,0,1,8.4,11.545c.027-.1-.024-.109-.479-.109a1.149,1.149,0,0,1-.489-.05c.056-.133,1.448-2.518,1.482-2.539s1.431,2.342,1.5,2.53c.011.033-.173.059-.421.059-.4,0-.451.014-.542.154-.22.335-.191.6.147,1.325.172.372.355.779.407.9l.093.226.647.043c.356.024,1.009.086,1.45.138a4.634,4.634,0,0,0,.84.058,2.4,2.4,0,0,0-.233-.614c-.451-.962-.521-1.208-.483-1.684l.035-.419-.5-.018-.5-.018.756-1.313c.416-.722.763-1.32.772-1.329s1.535,2.588,1.535,2.64a1.682,1.682,0,0,1-.465.033c-.41,0-.477.016-.563.139-.183.262-.123.663.207,1.368.167.357.366.822.443,1.033.122.335.164.389.331.423a.486.486,0,0,0,.217.013c.013-.014.176-.611.36-1.328C16.1,8.764,17.2,5.68,18.111,4.387a3.1,3.1,0,0,1,2.377-1.326c.223,0,.794.046,1.269.1l.864.1-.04.161c-.139.563-2.939,10.665-4.449,15.88a2.567,2.567,0,0,1-1.169,1.348,1.49,1.49,0,0,1-.444.121l-1.7.019c-1.914.022-1.787-.021-1.579.527a2.356,2.356,0,0,1,.125.395,1.154,1.154,0,0,1-.426.255l-.426.19ZM8.358,19.632a3.911,3.911,0,0,1,.413-.578,3.718,3.718,0,0,0,.788-1.389,2.685,2.685,0,0,0,.1-1.125,6.173,6.173,0,0,0-.145-1.12L9.4,15H6.41l.038.172a13.07,13.07,0,0,1,.227,1.651,5.333,5.333,0,0,1-.308,1.541,4.536,4.536,0,0,1-.8,1.277l-.225.234h2.9Zm3.965.07a5.315,5.315,0,0,1,.441-.6,7.214,7.214,0,0,0,.506-.693,4.07,4.07,0,0,0,.4-1.591,4.722,4.722,0,0,0-.24-1.4,15.482,15.482,0,0,0-2.408-.328c-.576-.043-.617-.039-.578.063a7.642,7.642,0,0,1,.228,1.566,4.478,4.478,0,0,1-1,2.763l-.316.39h2.871Zm4.045.081c.239.035.677-.456.775-.682.117-.179,4.231-14.908,4.186-14.982a2.04,2.04,0,0,0-.645-.058,1.649,1.649,0,0,0-.936.162c-.877.438-1.4,1.389-2.437,4.412-.478,1.4-1.272,4.171-1.7,5.932l-.266,1.1-.258-.05a3.032,3.032,0,0,0-.42-.052c-.159,0-.162,0-.112.263a7.534,7.534,0,0,1-.038,2.035,4.8,4.8,0,0,1-.976,1.845l-.135.177,1.4-.021A6.763,6.763,0,0,0,16.368,19.783ZM4.812,19.03a3.275,3.275,0,0,0,.863-2.279,5.747,5.747,0,0,0-.24-1.51l-.063-.164-.532.085a10.5,10.5,0,0,0-2.258.711.676.676,0,0,0-.32.707A17.893,17.893,0,0,0,3.834,19.2l.43.611.089-.174A5.2,5.2,0,0,1,4.812,19.03Z" class="aw-theme-iconOutline" fill="#464646"/>
  </g>
</svg>
