<svg id="Layer_1" data-name="Layer 1" xmlns="http://www.w3.org/2000/svg" viewBox="0 0 24 24">
  <g id="g839">
    <path id="path833" d="M15.083,6.03a1.35,1.35,0,1,1-2.7,0h0a1.35,1.35,0,0,1,1.35-1.35h0A1.349,1.349,0,0,1,15.083,6.03Z" class="aw-theme-iconOutline" fill="#464646"/>
    <path id="path923" d="M10.43,10.444A7.224,7.224,0,0,1,9.059,9.081a5.725,5.725,0,0,1-.872-2.224,6.562,6.562,0,0,1,.087-2.3A5.931,5.931,0,0,1,9.14,2.768a6.373,6.373,0,0,1,1.144-1.124.8.8,0,0,1,.209-.135,2.38,2.38,0,0,1,.911.236,5.5,5.5,0,0,0-1.159.911A4.256,4.256,0,0,0,8.91,5.917,4.451,4.451,0,0,0,10.18,9.19l.41.43.169-.2c.093-.107.313-.379.489-.606l.244-.324,3.113.008-.438.751H11.914l-.259.323c-.142.177-.4.5-.578.709l-.319.387Z" class="aw-theme-iconOutline" fill="#464646"/>
    <path id="path925" d="M13.376,7.283a1.418,1.418,0,0,1-.907-.89,1.2,1.2,0,0,1,0-.768l.065-.219L10.685,3.559l.616-.577,1.9,1.811a4.793,4.793,0,0,1,.565-.048,1.271,1.271,0,0,1,.909.345A1.345,1.345,0,0,1,15,6.506,1.4,1.4,0,0,1,13.376,7.283Z" class="aw-theme-iconOutline" fill="#464646"/>
    <path id="path927" d="M16.708,9.948l-.254-.328.2-.348a2.834,2.834,0,0,0,.2-.392c0-.026.062.024.137.11l.135.155.315-.333A4.992,4.992,0,0,0,18.62,6.686,3.717,3.717,0,0,0,18.739,5.5a3.768,3.768,0,0,0-.1-1.154,5.288,5.288,0,0,0-.667-1.465,4.606,4.606,0,0,0-2.391-1.74,1.659,1.659,0,0,1-.636-.308c-.139-.109-.431-.31-.648-.446L13.9.137h.446A5.357,5.357,0,0,1,19.133,7.6a5.856,5.856,0,0,1-1.3,1.922c-.337.313-.847.757-.865.755A3.19,3.19,0,0,1,16.708,9.948Z" class="aw-theme-iconOutline" fill="#464646"/>
    <path id="path2-6" d="M17.5,24A6.5,6.5,0,1,1,24,17.5,6.5,6.5,0,0,1,17.5,24Zm0-12A5.5,5.5,0,1,0,23,17.5,5.5,5.5,0,0,0,17.5,12Z" class="aw-theme-iconOutline" fill="#464646"/>
    <path id="polygon4" d="M14,17.005v1h3v3h1V18h3V17H18V14H17v3Z" class="aw-theme-iconOutline" fill="#464646"/>
    <path id="path829" d="M1.4,16.145A1.665,1.665,0,0,1,.208,15.3a1.469,1.469,0,0,1,.01-1.431,23.74,23.74,0,0,1,2.447-2.433c1.293-1.236,2.35-2.257,2.35-2.269s-.083-.186-.184-.386a5.557,5.557,0,0,1-.625-2.671A5.826,5.826,0,0,1,5.477,2.486,8,8,0,0,1,6.692,1.319a6.6,6.6,0,0,1,7.681,0,6.077,6.077,0,0,1,2.414,3.811,8.562,8.562,0,0,1,0,2.011A6.109,6.109,0,0,1,13.256,11.6a6.645,6.645,0,0,1-5.5-.028l-.383-.184L5,13.636c-2.565,2.438-2.5,2.383-2.948,2.483A2.027,2.027,0,0,1,1.4,16.145Zm.549-1.036a4.265,4.265,0,0,0,.744-.647C3.017,14.147,4,13.2,4.884,12.353l1.6-1.535-.428-.409L5.629,10l-.595.561C3.04,12.439,1.2,14.2,1.148,14.281a.562.562,0,0,0-.036.521.6.6,0,0,0,.335.325A.548.548,0,0,0,1.949,15.109Zm9.44-3.957a5.463,5.463,0,0,0,2.67-1.217A5.121,5.121,0,0,0,15.7,7.282a5.052,5.052,0,0,0-.12-2.7,6.441,6.441,0,0,0-.739-1.389,6.338,6.338,0,0,0-1.223-1.169,5.8,5.8,0,0,0-2.091-.861A4.379,4.379,0,0,0,10.5,1.094a4.241,4.241,0,0,0-1,.069A5.242,5.242,0,0,0,5.422,4.708a4.149,4.149,0,0,0-.2,1.414,3.844,3.844,0,0,0,.17,1.309,5.285,5.285,0,0,0,4.581,3.763A7.13,7.13,0,0,0,11.389,11.152Z" class="aw-theme-iconOutline" fill="#464646"/>
  </g>
</svg>
