<svg id="Livello_3" data-name="Livello 3" xmlns="http://www.w3.org/2000/svg" viewBox="0 0 24 24">
  <g id="g818">
    <path id="path823" d="M7.979,19.727c-.188-.134-.426-.311-.529-.392a7.159,7.159,0,0,1-2.642-4.913A10.232,10.232,0,0,1,4.8,12.8a6.919,6.919,0,0,1,1.778-4,8.172,8.172,0,0,1,3.915-2.344,7.03,7.03,0,0,1,2.95-.018,7.575,7.575,0,0,1,3.105,1.469,9.573,9.573,0,0,1,1.021,1,7.253,7.253,0,0,1,1.6,3.579,10,10,0,0,1,.01,1.934,7.749,7.749,0,0,1-1.641,3.858,9.151,9.151,0,0,1-1.126,1.137c-.146.119-.352.3-.459.393a1.466,1.466,0,0,1-.2.167c-.005,0-.184-.237-.4-.517s-.567-.714-.781-.966l-.391-.457H9.906l-.734.9c-.4.5-.761.931-.793.968l-.058.068Zm.338-1.377c.29-.335.49-.582.813-1.006l.3-.391h5.24l.33.414c.392.492.851,1.044.9,1.085s.142-.032.476-.394a5.976,5.976,0,0,0,.724-.906,6.711,6.711,0,0,0,1.013-2.585,6.171,6.171,0,0,0-1.518-5.234,6.3,6.3,0,0,0-3.279-1.87,6.212,6.212,0,0,0-5.178,1.2A7.936,7.936,0,0,0,7.119,9.682a6,6,0,0,0-1.191,2.5,6.73,6.73,0,0,0,.507,4.279,5.513,5.513,0,0,0,.693,1.12,8.3,8.3,0,0,0,.983.983A1.6,1.6,0,0,0,8.317,18.35Z" class="aw-theme-iconOutline" fill="#464646"/>
    <path id="path825" d="M11.591,14.833A1.424,1.424,0,0,1,10.553,13l.057-.164-.48-.486-1.149-1.16-.669-.674.343-.343L9,9.826l1.154,1.155,1.155,1.156.176-.059a1.56,1.56,0,0,1,1.161.084,1.126,1.126,0,0,1,.376.28,1.3,1.3,0,0,1,.426,1,1.433,1.433,0,0,1-1.023,1.37A1.813,1.813,0,0,1,11.591,14.833Z" class="aw-theme-iconOutline" fill="#464646"/>
    <path id="path2" d="M10,3.927,8.416,1.7A1.979,1.979,0,0,0,7.045.927H1.432A1.447,1.447,0,0,0,.014,2.4C.014,27.638,0,15.79,0,22H24V3.89ZM23,17.886V21H1V17.264C.945,14.981.952,5.594,1.021,4.833l.023-2.365c0-.37.015-.544.4-.544H7a1.647,1.647,0,0,1,.8.516L9.526,4.927H23v.146C23.07,6.28,23.07,16.678,23,17.886Z" class="aw-theme-iconOutline" fill="#464646"/>
  </g>
</svg>
