<svg version="1.1" id="Livello_1" xmlns="http://www.w3.org/2000/svg" xmlns:xlink="http://www.w3.org/1999/xlink" x="0px" y="0px"
	  viewBox="0 0 24 24" enable-background="new 0 0 24 24" xml:space="preserve">
<rect x="1" y="4.072" class="aw-theme-iconOutline" fill="#464646" width="21.252" height="1"/>
<rect x="2" y="4.713" class="aw-theme-iconOutline" fill="#464646" width="1" height="15.9"/>
<rect x="6" y="4.856" class="aw-theme-iconOutline" fill="#464646" width="1" height="15.956"/>
<polygon class="aw-theme-iconOutline" fill="#464646" points="10,15.041 11,14.042 11,4.748 10,4.748 "/>
<polygon class="aw-theme-iconOutline" fill="#464646" points="14,10.579 15,9.984 15,4.785 14,4.785 "/>
<rect x="1" y="8.071" class="aw-theme-iconOutline" fill="#464646" width="21" height="1.001"/>
<rect x="1" y="12.073" class="aw-theme-iconOutline" fill="#464646" width="9.5" height="0.999"/>
<polygon class="aw-theme-iconOutline" fill="#464646" points="22,9.984 23,10.579 23,3.072 22,3.072 "/>
<rect x="18" y="4.677" class="aw-theme-iconOutline" fill="#464646" width="1" height="5.307"/>
<rect x="1" y="16.072" class="aw-theme-iconOutline" fill="#464646" width="9" height="1"/>
<polygon class="aw-theme-iconOutline" fill="#464646" points="1.9,20.949 10.499,20.951 10,19.949 1.9,19.949 "/>
<rect x="1" y="3.072" class="aw-theme-iconOutline" fill="#464646" width="21.252" height="1.092"/>
<rect x="1" y="5.049" class="aw-theme-iconOutline" fill="#464646" width="1.179" height="15.9"/>
<path class="aw-theme-iconOutline" fill="#464646" d="M17.498,24c-3.59,0-6.5-2.91-6.5-6.5s2.91-6.5,6.5-6.5s6.5,2.91,6.5,6.5
	C23.994,21.088,21.086,23.996,17.498,24 M17.498,12c-3.037,0-5.5,2.463-5.5,5.5s2.463,5.5,5.5,5.5s5.5-2.463,5.5-5.5
	C22.995,14.464,20.534,12.003,17.498,12"/>
<polygon class="aw-theme-iconOutline" fill="#464646" points="20.998,18 20.998,17 17.998,17.003 17.998,14 16.998,14 16.998,17.003 13.998,17.005 13.998,18.005 
	16.998,18.003 16.998,21 17.998,21 17.998,18.003 "/>
</svg>
