<svg id="Livello_1" data-name="Livello 1" xmlns="http://www.w3.org/2000/svg" viewBox="0 0 24 24">
  <g id="g828">
    <path id="path823" d="M17.59,16.866c-.063-.381-.13-.853-.121-.861s.3-.054.659-.108.662-.1.678-.106c.038-.008.028-.019-.125-.143a3.856,3.856,0,0,0-1.6-.821,2.387,2.387,0,0,0-.712-.026,2.367,2.367,0,0,0-1.7,1.429,1.6,1.6,0,0,1-.094.168c-.008,0-.822-.435-.836-.446a3.237,3.237,0,0,1,.328-.533,5.334,5.334,0,0,1,.721-.9,2.386,2.386,0,0,1,1.535-.693,2.867,2.867,0,0,1,1.737.351,7.162,7.162,0,0,1,1.09.675c.155.113.162.117.162.084s-.043-.3-.094-.629-.092-.6-.091-.6l.944-.147s.452,2.92.447,2.924-.643.1-1.422.223l-1.457.225-.04.007Z" class="aw-theme-iconOutline" fill="#464646"/>
    <path id="path827" d="M7.055,17.139c-.2-.146-.487-.366-.632-.488A6.747,6.747,0,0,1,4.134,11.83a6.525,6.525,0,0,1,.658-3.335A6.828,6.828,0,0,1,7.983,5.38,7.012,7.012,0,0,1,9.8,4.742a8.535,8.535,0,0,1,1.691-.05,6.982,6.982,0,0,1,3.6,1.471,8.412,8.412,0,0,1,1.027,1.023A7.3,7.3,0,0,1,16.87,8.36a6.874,6.874,0,0,1,.575,1.552c.006.025.008.045,0,.045l-.49.064a3.051,3.051,0,0,1-.5.044,1.816,1.816,0,0,1-.085-.266,5.011,5.011,0,0,0-.7-1.584,5.494,5.494,0,0,0-2.332-2.01,5.4,5.4,0,0,0-1.9-.533A5.947,5.947,0,0,0,8.818,6,5.874,5.874,0,0,0,5.429,9.416a6.19,6.19,0,0,0,.054,4.24,6.82,6.82,0,0,0,.579,1.152,6.912,6.912,0,0,0,1.025,1.155c.174.15.138.166.459-.209.125-.147.384-.447.574-.666l.355-.425,2.019.011-.224.883-1.336,0-.76.962c-.391.5-.73.89-.737.889s-.179-.12-.382-.266Z" class="aw-theme-iconOutline" fill="#464646"/>
    <path id="path829" d="M10.526,12.757a1.53,1.53,0,0,1-1.033-1.033,1.58,1.58,0,0,1,.026-.771l.061-.187L9.125,10.3,7.977,9.143l-.693-.7L7.629,8.1l.346-.343,1.15,1.164,1.15,1.165.125-.049a1.486,1.486,0,0,1,2.019,1.334,1.335,1.335,0,0,1-.431,1,1.356,1.356,0,0,1-.673.392,1.94,1.94,0,0,1-.789-.009Z" class="aw-theme-iconOutline" fill="#464646"/>
    <path id="path9" d="M9.724,18.267a8.285,8.285,0,0,0,.226.971H0V1.391A1.424,1.424,0,0,1,1.45,0H6.609A1.469,1.469,0,0,1,7.816.62l1.458,2.1H22.256v8.66a9.261,9.261,0,0,0-1.012-.592V3.69H8.733L6.98,1.158A.446.446,0,0,0,6.616.971H1.456a.428.428,0,0,0-.443.415V18.267Z" class="aw-theme-iconOutline" fill="#464646"/>
    <path id="path3-5" d="M17.5,24A6.5,6.5,0,1,1,24,17.5h0A6.487,6.487,0,0,1,17.526,24H17.5m0-12A5.5,5.5,0,1,0,23,17.5h0A5.55,5.55,0,0,0,17.5,12" class="aw-theme-iconOutline" fill="#464646"/>
    <path id="circle5-7" d="M17,19.251A1.75,1.75,0,1,1,15.251,17.5h0A1.75,1.75,0,0,1,17,19.251Z" class="aw-theme-iconOutline" fill="#464646"/>
    <path id="circle5-4" d="M19.762,17.508a1.76,1.76,0,1,0,.024,0Zm.012,1h.01a.745.745,0,1,1-.01,0Z" class="aw-theme-iconOutline" fill="#464646"/>
  </g>
</svg>
