<svg version="1.1" id="Livello_1" xmlns="http://www.w3.org/2000/svg" xmlns:xlink="http://www.w3.org/1999/xlink" x="0px" y="0px"
	  viewBox="0 0 24 24" enable-background="new 0 0 24 24" xml:space="preserve">
<path class="aw-theme-iconOutline" fill="#464646" d="M14.355,24c-1.854-0.001-3.357-1.506-3.355-3.36c0-0.889,0.353-1.74,0.98-2.368
	c0.4-0.4,0.743-0.744,1.042-1.056c1.515-1.545,1.971-2.011,3.14-2.18c1.83-0.271,3.534,0.991,3.808,2.821v0.031l-0.92,0.128
	c-0.183-1.323-1.402-2.249-2.727-2.066l-0.03,0.005c-0.837,0.12-1.136,0.406-2.601,1.903c-0.31,0.315-0.649,0.667-1.055,1.067
	c-0.948,0.949-0.948,2.487,0,3.437c0.961,0.918,2.475,0.918,3.436,0l2.058-2.054l0.658,0.655l-2.061,2.052
	C16.101,23.646,15.246,24.001,14.355,24"/>
<path class="aw-theme-iconOutline" fill="#464646" d="M18.376,20.007c-1.682,0.001-3.108-1.233-3.349-2.896l0.92-0.125c0.177,1.204,1.211,2.097,2.429,2.093
	c0.638,0.001,1.249-0.258,1.692-0.715l2.293-2.291c0.948-0.949,0.948-2.487,0-3.437c-0.961-0.918-2.475-0.918-3.436,0l-2.058,2.054
	l-0.658-0.65l2.062-2.054c1.326-1.27,3.418-1.27,4.746,0c1.31,1.31,1.31,3.434,0,4.746l-2.292,2.291
	C20.108,19.655,19.26,20.011,18.376,20.007"/>
<path class="aw-theme-iconOutline" fill="#464646" d="M17.083,9.944c0.421,0,0.772,0.001,1.063,0.003v-4.54c0.026-0.114,0.001-0.236-0.068-0.333L9.435,0.063
	c-0.13-0.085-0.301-0.085-0.432,0L0.26,5.075C0.105,5.118,0,5.255,0,5.407v9.176c0.002,0.132,0.066,0.255,0.174,0.332l8.641,5.012
	c0.128,0.061,0.172,0.084,0.258,0.084c0.095,0.013,0.087,0.007,0.258-0.084l0.538-0.312c-0.002-0.968,0.002-2.02,0.012-2.567v-6.585
	l7.203-4.165V9.944z M8.729,18.471l-7.491-4.307V6.31l7.491,4.346V18.471z M9.218,9.602L2.015,5.437l7.203-4.166l7.203,4.166
	L9.218,9.602z"/>
</svg>
