<svg id="Image" xmlns="http://www.w3.org/2000/svg" viewBox="0 0 24 24">
  <g id="g1081">
    <path id="path928-2" d="M20.713,23.994c-1.034-.072-1.752-.378-1.886-.8l-.026-.082,0-.464,0-.416.027.039a.818.818,0,0,0,.3.357l.071.048,0,.2c0,.212,0,.226.089.3a3.879,3.879,0,0,0,2.631.354,1.732,1.732,0,0,0,.982-.416l.034-.046,0-.191,0-.19.033-.023c.018-.012.063-.047.1-.076a.924.924,0,0,1,.248-.128c.012,0,.014.051.01.327,0,.325,0,.334-.03.406-.106.292-.466.525-1.031.666A4.549,4.549,0,0,1,21.141,24c-.16,0-.353,0-.427,0Z" class="aw-theme-iconOutline" fill="#464646"/>
    <path id="path930-9" d="M20.708,23.088l-.172-.015a3.161,3.161,0,0,1-1.418-.423.975.975,0,0,1-.234-.239.523.523,0,0,1,.1-.683c.095-.1.247-.2.273-.186s.017.037.022.184a1.918,1.918,0,0,0,.016.208c.01.03.007.036-.031.073-.08.077-.09.128-.039.2a1.069,1.069,0,0,0,.473.288,3.864,3.864,0,0,0,.506.13c.077.014.192.038.255.052a5.337,5.337,0,0,0,2.574-.087.262.262,0,0,1,.065-.018,1.263,1.263,0,0,1-.3.194,3.439,3.439,0,0,1-1.107.293,4.7,4.7,0,0,1-.563.025c-.212,0-.4,0-.422,0Z" class="aw-theme-iconOutline" fill="#464646"/>
    <path id="path932-0" d="M21.273,22.8c-.166-.009-.434-.038-.594-.065-.763-.131-1.25-.4-1.374-.749a.753.753,0,0,1-.025-.233l-.009-.2.122.055c.062.027.147.085.194.1l.086.029v.053c0,.1.069.188.222.279a4.245,4.245,0,0,0,2.41.289,1.921,1.921,0,0,0,1.132-.445l.03-.047v-.387l.061-.039a.777.777,0,0,0,.335-.425c.013-.055.013.76,0,.865a.581.581,0,0,1-.19.364,2.135,2.135,0,0,1-1.107.474,5.839,5.839,0,0,1-1.293.082Z" class="aw-theme-iconOutline" fill="#464646"/>
    <path id="path934-6" d="M22.072,21.856l.141-.032c.616-.136,1.028-.384,1.142-.687a.384.384,0,0,1,.055-.1c.075-.081.084-.141.033-.211a.251.251,0,0,0-.041-.049,1.108,1.108,0,0,1-.012-.247v-.239l.034.017a1.038,1.038,0,0,1,.352.3.535.535,0,0,1-.1.719,2.444,2.444,0,0,1-1.278.5,1.626,1.626,0,0,1-.326.03Z" class="aw-theme-iconOutline" fill="#464646"/>
    <path id="path936-1" d="M20.817,21.955a2.615,2.615,0,0,1-1.858-.652.83.83,0,0,1-.075-.137l-.028-.071,0-.464,0-.464.028.068a.822.822,0,0,0,.295.349l.068.049,0,.2.005.2.032.04a3.077,3.077,0,0,0,2.1.483,2.842,2.842,0,0,0,1.565-.424c.091-.083.095-.094.095-.313v-.187l.065-.046a.842.842,0,0,0,.307-.359l.023-.063,0,.469,0,.469-.028.066c-.174.407-.815.683-1.79.773-.168.015-.623.021-.8.01Z" class="aw-theme-iconOutline" fill="#464646"/>
    <path id="path937" d="M13,19.009c-1.6-1.3-1.842-1.507-1.842-1.614,0-.154.105-.249.355-.323.107-.032.2-.073.2-.091a1.238,1.238,0,0,0-.248-.223c-.429-.33-.412-.554.053-.691.107-.032.2-.072.2-.09a1.227,1.227,0,0,0-.248-.224c-.429-.33-.412-.554.053-.691.107-.031.2-.072.2-.09a1.227,1.227,0,0,0-.248-.224c-.429-.33-.412-.553.053-.69.107-.032.2-.073.2-.091a1.238,1.238,0,0,0-.248-.223c-.322-.248-.388-.416-.222-.561.045-.038,1.425-.516,3.068-1.061,1.787-.593,3.149-1.071,3.39-1.188a5.468,5.468,0,0,0,1.534-1.127,5.393,5.393,0,0,1,.542-.5c.2-.106.322.013.95.909a10.32,10.32,0,0,0,.842,1.082c.134.125.7.607,1.264,1.071a7.408,7.408,0,0,1,1.048.949c.035.141-.116.3-.353.37-.1.03-.181.069-.181.087a1.272,1.272,0,0,0,.25.233,1.1,1.1,0,0,1,.28.29c.042.133-.12.323-.326.38a.389.389,0,0,0-.19.092c-.009.024.1.133.236.242a1.117,1.117,0,0,1,.28.291c.042.134-.115.315-.339.389-.105.035-.191.078-.191.095a1.342,1.342,0,0,0,.25.23,1.117,1.117,0,0,1,.28.291c.042.133-.115.315-.339.389-.105.035-.191.077-.191.095a1.351,1.351,0,0,0,.253.232c.3.241.355.379.2.525-.076.072-1.4.527-4.448,1.526-2.386.782-4.376,1.423-4.422,1.423s-.911-.671-1.924-1.491Zm3.551.408,1.523-.493V18.73c0-.107-.012-.194-.028-.194s-.718.226-1.562.5-1.549.5-1.567.5-.626-.481-1.351-1.068c-1.283-1.037-1.426-1.13-1.517-.985-.021.035,2.88,2.415,2.949,2.42.017,0,.716-.22,1.553-.491Zm.033-1.042,1.49-.484v-.18c0-.1-.012-.18-.028-.18s-.718.226-1.562.5-1.549.5-1.567.5-.625-.481-1.351-1.068c-1.28-1.034-1.426-1.13-1.516-.986a7.812,7.812,0,0,0,.86.744c.485.389,1.15.925,1.477,1.191a3.428,3.428,0,0,0,.651.464c.031-.012.727-.239,1.546-.506ZM20,18.091c0-.107-.015-.193-.034-.192s-.334.1-.7.218l-.664.216-.014.213-.014.212.713-.236L20,18.286Zm1.844-.408c.648-.211,1.178-.4,1.177-.416a.615.615,0,0,0-.162-.154l-.16-.121-1.12.372-1.121.371v.2c0,.184.008.2.1.167C20.618,18.082,21.2,17.9,21.844,17.683Zm-5.258-.312,1.49-.484v-.181c0-.1-.012-.18-.027-.18s-.726.228-1.581.507l-1.555.507-.147-.112c-.081-.062-.681-.544-1.332-1.072-1.149-.93-1.293-1.022-1.382-.878a7.871,7.871,0,0,0,.86.743c.485.389,1.15.925,1.477,1.192a3.45,3.45,0,0,0,.651.463c.031-.012.727-.239,1.546-.505Zm2.761.1L20,17.25v-.179c0-.1-.015-.178-.034-.177s-.334.1-.7.219l-.664.216-.014.2c-.011.149,0,.193.046.177s.353-.12.712-.238Zm2.251-.728c.569-.185,1.123-.361,1.23-.39s.194-.068.193-.086a.615.615,0,0,0-.162-.154l-.16-.121-1.12.372-1.121.372V16.9c0,.1.023.171.052.171s.518-.151,1.088-.336Zm-5.012-.372,1.49-.484V15.7c0-.1-.012-.18-.027-.18s-.726.228-1.581.506l-1.555.507-.147-.112c-.081-.062-.681-.544-1.333-1.072-1.148-.93-1.292-1.022-1.381-.878a7.871,7.871,0,0,0,.86.743c.485.39,1.15.926,1.477,1.192a3.4,3.4,0,0,0,.651.463c.031-.011.727-.239,1.546-.5Zm2.761.095L20,16.245v-.179c0-.1-.015-.178-.034-.176s-.334.1-.7.218l-.664.216-.014.2c-.011.149,0,.193.046.176s.353-.119.712-.238Zm2.241-.727c.575-.185,1.133-.361,1.24-.39s.194-.069.193-.087a.637.637,0,0,0-.162-.153l-.16-.121-1.12.371-1.121.372V15.9c0,.094.019.172.042.172s.513-.151,1.088-.336Zm-5.2-.307a10.681,10.681,0,0,0,1.269-.457c-.029-.083-2.888-2.422-2.938-2.4-.029.011-.64.212-1.358.447s-1.316.435-1.329.445-.051,0,1.626,1.356a14.441,14.441,0,0,0,1.388,1.05C15.077,15.853,15.681,15.655,16.386,15.427Zm2.961.029L20,15.24v-.18c0-.213.05-.217-.824.073l-.573.191-.014.2c-.011.147,0,.191.046.174s.353-.119.712-.238Zm2.241-.727c.575-.185,1.133-.361,1.24-.39s.194-.069.193-.086a.615.615,0,0,0-.162-.154l-.16-.121-1.12.372-1.121.371v.172c0,.095.019.172.042.172s.513-.151,1.088-.336Zm-2.031-.4c-.021-.02-.682-.571-1.47-1.224L16.656,11.92l-.6.2c-.331.11-.61.209-.619.219a20.337,20.337,0,0,0,1.826,1.549l1.086.895.624-.208A2.037,2.037,0,0,0,19.557,14.333Zm1.888-.563c.654-.21,1.276-.406,1.383-.436s.194-.068.192-.086-.426-.382-.944-.809a6.583,6.583,0,0,1-1.754-1.85c-.234-.339-.431-.621-.436-.628a3.451,3.451,0,0,0-.341.309A6.461,6.461,0,0,1,17.57,11.6c-.269.1-.276.107-.2.185.152.147,2.832,2.371,2.858,2.371s.56-.171,1.213-.381Z" class="aw-theme-iconOutline" fill="#464646" opacity="0.98" style="isolation: isolate"/>
    <path id="rect928" d="M2,4.964h8v1H2Z" class="aw-theme-iconOutline" fill="#464646"/>
    <path id="rect928-7" d="M2,10H9v1H2Z" class="aw-theme-iconOutline" fill="#464646"/>
    <path id="rect928-7-2" d="M2,12H6v1H2Z" class="aw-theme-iconOutline" fill="#464646"/>
    <path id="rect928-74" d="M2,7H8V8H2Z" class="aw-theme-iconOutline" fill="#464646"/>
    <path id="rect928-7-3" d="M2,15H8v1H2Z" class="aw-theme-iconOutline" fill="#464646"/>
    <path id="rect928-7-2-7" d="M2,17H7v1H2Z" class="aw-theme-iconOutline" fill="#464646"/>
    <path id="rect993" d="M12.028,5h.944A.027.027,0,0,1,13,5.028v.944A.027.027,0,0,1,12.972,6h-.944A.027.027,0,0,1,12,5.972V5.028A.027.027,0,0,1,12.028,5Z" class="aw-theme-iconOutline" fill="#464646"/>
    <path id="rect995" d="M14.03,5h1.94a.031.031,0,0,1,.03.03v.94a.031.031,0,0,1-.03.03H14.03A.031.031,0,0,1,14,5.97V5.03A.031.031,0,0,1,14.03,5Z" class="aw-theme-iconOutline" fill="#464646"/>
    <path id="rect993-0" d="M12.028,10h.944a.027.027,0,0,1,.028.028v.944a.027.027,0,0,1-.028.028h-.944A.027.027,0,0,1,12,10.972v-.944A.027.027,0,0,1,12.028,10Z" class="aw-theme-iconOutline" fill="#464646"/>
    <path id="rect995-5" d="M14.03,10h1.94a.031.031,0,0,1,.03.03v.94a.031.031,0,0,1-.03.03H14.03a.031.031,0,0,1-.03-.03v-.94A.031.031,0,0,1,14.03,10Z" class="aw-theme-iconOutline" fill="#464646"/>
    <path id="path1015" d="M20.407,21.016c-.977-.139-1.559-.491-1.559-.943a.843.843,0,0,1,.514-.611,4.655,4.655,0,0,1,2.177-.322c.981.075,1.652.337,1.844.721a.476.476,0,0,1-.106.606,1.477,1.477,0,0,1-.273.218,3.489,3.489,0,0,1-.934.3A8.543,8.543,0,0,1,20.407,21.016Zm1.612-.406c.605-.12,1.048-.34,1.048-.523,0-.114-.274-.293-.614-.4a4.135,4.135,0,0,0-3.142.276c-.1.1-.1.149-.017.248a2.416,2.416,0,0,0,1.292.447A10.023,10.023,0,0,0,22.019,20.61Z" class="aw-theme-iconOutline" fill="#464646"/>
    <path id="path1061" d="M0,11.769V1.538H1.585L1.6.871C1.612.232,1.617.2,1.717.12A.367.367,0,0,1,2.2.136c.086.093.1.157.107.741l.012.639H4L4.022.86c.021-.623.027-.66.126-.74A.359.359,0,0,1,4.6.12c.1.081.1.112.119.751l.014.667H6.408v-.6c0-.769.059-.9.394-.9a.337.337,0,0,1,.216.1c.086.093.1.157.107.741l.012.639h1.68L8.829.877C8.84.293,8.85.229,8.936.136a.351.351,0,0,1,.5.008c.106.105.109.128.109.751v.643h1.679v-.6c0-.769.059-.9.394-.9a.337.337,0,0,1,.216.1c.087.093.1.157.107.741l.013.639h1.679l.012-.639c.011-.584.021-.648.107-.741A.367.367,0,0,1,14.237.12c.1.081.105.112.118.751l.014.667h1.673V.9c0-.623,0-.646.109-.751a.351.351,0,0,1,.5-.008c.087.093.1.157.107.741l.013.639.7.012.7.012V9.051h-.707L17.446,5.7l-.011-3.347h-.663l-.014.229c-.011.193,0,.237.077.277a.5.5,0,0,1,.208.478.568.568,0,0,1-.6.452.6.6,0,0,1-.532-.278.432.432,0,0,1,.024-.535.621.621,0,0,0,.11-.4V2.334H14.363V2.56a.448.448,0,0,0,.133.377.428.428,0,0,1,.131.337.524.524,0,0,1-.6.517.525.525,0,0,1-.6-.515.43.43,0,0,1,.112-.318.407.407,0,0,0,.1-.368l-.013-.234H11.955l-.014.212a.384.384,0,0,0,.121.366.513.513,0,0,1-.432.858c-.518,0-.814-.477-.515-.832a.479.479,0,0,0,.11-.379V2.334H9.546V2.6c0,.146.018.265.041.265.064,0,.224.287.224.4a.631.631,0,0,1-.3.457.647.647,0,0,1-.914-.355.483.483,0,0,1,.142-.459.387.387,0,0,0,.1-.343l-.013-.211H7.137l-.013.215c-.011.164.006.238.071.309a.471.471,0,0,1,.1.634c-.293.48-1.148.293-1.15-.252,0-.124.15-.4.219-.4.026,0,.045-.115.045-.265V2.334H4.729v.259a.547.547,0,0,0,.089.372.518.518,0,0,1-.478.827c-.469,0-.753-.381-.561-.752a.488.488,0,0,1,.157-.178c.076-.04.088-.084.077-.277L4,2.356H2.32l-.013.234a.407.407,0,0,0,.1.368.43.43,0,0,1,.112.318.525.525,0,0,1-.6.515.524.524,0,0,1-.595-.517.428.428,0,0,1,.131-.337.45.45,0,0,0,.133-.379V2.33L1.2,2.343l-.386.013V21.138l6.087.011,6.088.012V22H0Z" class="aw-theme-iconOutline" fill="#464646"/>
  </g>
</svg>
