<svg id="Layer_1" data-name="Layer 1" xmlns="http://www.w3.org/2000/svg" viewBox="0 0 24 24">
  <g id="g816">
    <path id="path6" d="M12.121,1.184a.361.361,0,0,0-.183.056L4.025,5.775a.318.318,0,0,0-.234.3v6.994L.268,15.061a.508.508,0,0,0,0,.894L8.484,20.6V19.385L1.627,15.506l2.164-1.233v.1a.383.383,0,0,0,.156.3L9.68,18h4.64l5.733-3.324a.3.3,0,0,0,.156-.3v-.152l2.17,1.283L17.973,18h2.144l3.612-2.045a.509.509,0,0,0,.21-.688.5.5,0,0,0-.2-.206L20.209,12.99V6.074a.367.367,0,0,0-.063-.3L12.328,1.24A.361.361,0,0,0,12.121,1.184Zm.01,1.15L18.648,6.1,12.131,9.869,5.615,6.1Zm7.117,4.549V14l-6.516,3.771V10.65Zm-14.336.01,6.777,3.931V17.9L4.912,14Z" class="aw-theme-iconOutline" fill="#464646"/>
    <path id="rect814" d="M10,19v4h4V19Zm5,0v4h4V19Zm5,0v4h4V19Zm-9,1h2v2H11Zm5,0h2v2H16Zm5,0h2v2H21Z" class="aw-theme-iconOutline" fill="#464646" fill-rule="evenodd"/>
  </g>
</svg>
