<svg id="Livello_3" data-name="Livello 3" xmlns="http://www.w3.org/2000/svg" viewBox="0 0 24 24">
  <g id="g846">
    <path id="path851" d="M9.357,17.63c-.052-.132-.119-.332-.149-.445l-.056-.206H6.7l.066.184c.036.1.082.216.1.255l.036.071-.135.06-.361.165c-.173.08-.232.1-.248.072a4.756,4.756,0,0,1-.229-.615l-.059-.2-1.244.017c-.685.01-1.249.022-1.254.027a1.752,1.752,0,0,0,.09.259l.1.25-.355.162c-.278.126-.361.154-.377.127a5,5,0,0,1-.251-.675L2.545,17H2.182l-.537-.768A24.762,24.762,0,0,1,.192,13.94a1.463,1.463,0,0,1,.189-1.665,2.116,2.116,0,0,1,.627-.444c.181-.08.891-.318,1.25-.42.154-.043.438-.106.631-.139s.356-.064.362-.07-.244-.585-.376-.846A1.7,1.7,0,0,1,2.716,9.09l.018-.069H2.312a2.878,2.878,0,0,1-.423-.015c0-.01,1.234-2.16,1.257-2.189.006-.008,1.26,2.169,1.26,2.188a2.4,2.4,0,0,1-.392.016H3.621l-.076.159c-.152.317-.132.456.144,1.036.1.2.226.493.287.645l.113.276.622-.016c.343-.008.9-.015,1.238-.015h.616L6.5,10.964c-.035-.078-.143-.312-.241-.52A1.763,1.763,0,0,1,6.02,9.186c.02-.084.037-.166.038-.183S5.95,8.97,5.64,8.965l-.42-.007.627-1.087c.345-.6.631-1.083.635-1.079s.289.493.631,1.087l.624,1.079-.381.007-.382.007L6.9,9.1a.725.725,0,0,0-.1.529,3.566,3.566,0,0,0,.2.507c.1.2.227.494.292.648s.126.3.138.318.128.044.528.069c.5.03,1.282.107,1.738.171.133.019.244.032.247.03s-.233-.554-.407-.921a3.72,3.72,0,0,1-.207-.521,1.855,1.855,0,0,1,0-.735l.038-.146s-.192-.008-.427-.012L8.51,9.034l.624-1.086c.343-.6.63-1.086.638-1.087s.3.488.641,1.086l.627,1.087-.39.007-.39.007-.086.158a.561.561,0,0,0-.085.362v.2l.244.521c.212.453.436.983.49,1.162.013.043.044.06.129.073a.487.487,0,0,0,.142.006,5.487,5.487,0,0,0,.219-.746,39.932,39.932,0,0,1,2.28-6.915,3.123,3.123,0,0,1,1.481-1.61,3.255,3.255,0,0,1,2.167-.148c.4.05.724.094.727.1s-3.427,12.3-3.513,12.583l-.02.068-.458-.179c-.251-.1-.461-.183-.466-.187s.709-2.576,1.587-5.717,1.59-5.715,1.582-5.722a3.758,3.758,0,0,0-.861-.013,2.1,2.1,0,0,0-.614.3c-.479.352-.9,1.187-1.6,3.17-.4,1.151-.923,2.929-1.348,4.623a4.529,4.529,0,0,0-.254,1.292c0,.257,0,.282-.044.27a7.319,7.319,0,0,0-.811-.11.649.649,0,0,0,.013.187,3.6,3.6,0,0,1-.863,3.041l-.128.146h.981l.191.472c.105.259.2.483.2.5a5.466,5.466,0,0,1-.767.023,5.773,5.773,0,0,0-.792.025.962.962,0,0,0,.077.26,2.42,2.42,0,0,1,.1.282c0,.034-.075.081-.327.2a3.862,3.862,0,0,1-.357.152.817.817,0,0,1-.12-.238Zm-3.385-1.8a2.512,2.512,0,0,1,.44-.611,2.753,2.753,0,0,0,.693-2.168,4.315,4.315,0,0,0-.185-.92c-.026-.026-2.454-.029-2.481,0a1.234,1.234,0,0,0,.04.276,4.17,4.17,0,0,1-.034,2.016,3.937,3.937,0,0,1-.817,1.416,1.012,1.012,0,0,0-.112.133c0,.008.538.014,1.194.014H5.9Zm3.278.087c.014-.019.063-.1.108-.181a2.77,2.77,0,0,1,.276-.363,2.728,2.728,0,0,0,.767-1.691,4.419,4.419,0,0,0-.065-1.042l-.044-.2L9.7,12.36c-.67-.092-1.226-.151-1.653-.177-.276-.016-.288-.015-.274.031a4.763,4.763,0,0,1,.082,1.86,3.621,3.621,0,0,1-.874,1.709,1.583,1.583,0,0,0-.157.19c0,.008.54.008,1.2,0A6.2,6.2,0,0,0,9.25,15.921Zm-6.526-.207a3.258,3.258,0,0,1,.3-.388A2.915,2.915,0,0,0,3.683,12.5c-.034-.15-.068-.283-.075-.294a3.442,3.442,0,0,0-.791.1,11.087,11.087,0,0,0-1.451.475,1.06,1.06,0,0,0-.239.169c-.085.089-.089.1-.089.277s0,.191.16.463c.3.523.733,1.211,1.075,1.7.188.27.343.492.344.492S2.667,15.808,2.724,15.714Z" class="aw-theme-iconOutline" fill="#464646"/>
    <path id="rect1257" d="M21,4h3V5H21Z" class="aw-theme-iconOutline" fill="#464646"/>
    <path id="rect1257-1" d="M21,1h3V2H21Z" class="aw-theme-iconOutline" fill="#464646"/>
    <path id="rect1257-9" d="M21,7h3V8H21Z" class="aw-theme-iconOutline" fill="#464646"/>
    <path id="rect1257-97" d="M19,1h1V2H19Z" class="aw-theme-iconOutline" fill="#464646"/>
    <path id="rect1257-97-0" d="M19,7h1V8H19Z" class="aw-theme-iconOutline" fill="#464646"/>
    <path id="rect1257-97-1" d="M19,4h1V5H19Z" class="aw-theme-iconOutline" fill="#464646"/>
    <path id="path818" d="M10.8,23.343c.042-.056,2.738-2.465,6.177-5.542l6.248-5.6.676.632-6.182,5.544c-3.437,3.083-6.267,5.6-6.275,5.6Z" class="aw-theme-iconOutline" fill="#464646"/>
    <path id="rect2-6" d="M15.074,22.218l-.995.891h1.964v-.891Z" class="aw-theme-iconOutline" fill="#464646"/>
    <path id="rect4-4" d="M22.012,22.218H24v.891H22.012Z" class="aw-theme-iconOutline" fill="#464646"/>
    <path id="path6-8" d="M20.022,24H18.033a.948.948,0,0,1-1-.891h0v-.891a.947.947,0,0,1,1-.89h1.989a.946.946,0,0,1,1,.89h0v.891a.947.947,0,0,1-1,.891Zm-1.989-1.782v.891h1.989v-.891Z" class="aw-theme-iconOutline" fill="#464646"/>
    <path id="polygon8-7" d="M16.347,14.2l-.8,1.763-1.976-.7-1.317,1.173.788,1.754-1.979.7v1.547h.995V19.5l2.287-.812-.917-2.034.389-.345,2.288.815.909-2.027h1.035l.188.418.766-.683-.283-.623ZM22.01,15.72l-.7.633.334.3-.917,2.034,2.287.812v.942h1V18.89l-1.979-.7.789-1.754Z" class="aw-theme-iconOutline" fill="#464646"/>
  </g>
</svg>
