<svg version="1.1" id="Livello_1" xmlns="http://www.w3.org/2000/svg" xmlns:xlink="http://www.w3.org/1999/xlink" x="0px" y="0px"
	  viewBox="0 0 24 24" enable-background="new 0 0 24 24" xml:space="preserve">
<polygon class="aw-theme-iconOutline" fill="#464646" points="10.537,17.531 0,17.531 0,0 17.531,0 17.531,10.537 16.531,11.533 16.531,1 1,1 1,16.531 
	11.531,16.531 "/>
<rect x="8.266" y="0.5" class="aw-theme-iconOutline" fill="#464646" width="1" height="16.531"/>
<rect x="0.5" y="8.266" class="aw-theme-iconOutline" fill="#464646" width="16.531" height="1"/>
<path class="aw-theme-iconOutline" fill="#464646" d="M9.264,23.989c-0.154-0.031-0.309-0.177-0.309-0.293c0-0.117,1.336-4.089,1.434-4.235
	c0.041-0.064,2.315-2.283,5.043-4.933c3.724-3.619,5.03-4.849,5.229-4.942c0.161-0.073,0.334-0.116,0.511-0.126
	c0.508,0,0.646,0.083,1.615,1c0.36,0.327,0.702,0.675,1.023,1.041c0.26,0.439,0.254,0.985-0.015,1.417
	c-0.067,0.09-2.326,2.298-5.019,4.909l-4.896,4.741l-2.111,0.698C9.613,23.983,9.459,24.03,9.264,23.989 M11.414,22.596
	c0.668-0.206,1.234-0.392,1.258-0.412c-0.523-0.6-1.088-1.161-1.69-1.682c-0.162,0.38-0.304,0.768-0.423,1.163
	c-0.213,0.64-0.397,1.195-0.411,1.233c-0.015,0.039-0.009,0.068,0.013,0.068S10.748,22.802,11.414,22.596L11.414,22.596z
	 M17.558,17.854l4.013-3.882l-1.051-1.021c-0.348-0.356-0.716-0.692-1.103-1.006c-0.075,0.021-7.987,7.682-7.991,7.738
	c-0.006,0.057,2.016,2.046,2.079,2.051C13.529,21.734,15.352,19.989,17.558,17.854L17.558,17.854z M23.07,12.466
	c0.163-0.287,0.11-0.373-0.759-1.225c-0.296-0.31-0.616-0.595-0.957-0.855c-0.214-0.068-0.353,0.011-0.847,0.475l-0.478,0.447
	l1.065,1.031l1.065,1.03l0.421-0.391c0.177-0.158,0.338-0.329,0.485-0.513H23.07z"/>
</svg>
