<svg id="Layer_1" data-name="Layer 1" xmlns="http://www.w3.org/2000/svg" viewBox="0 0 24 24">
  <g id="g821">
    <path id="path815-6" d="M7.256,2.959C7.245,2.948.477,6.939.2,7.123a.357.357,0,0,0-.117.133c-.053,3.163-.021,5.244,0,8.808,0,.022.005.062.084.11.1.1,7.748,4.622,7.961,4.711a.442.442,0,0,0,.42-.037c.021-.015,1.186-.7,1.818-1.078a7.514,7.514,0,0,1-.23-.9l-1.373.813c-.015,0-.024-1.66-.02-3.7l.008-3.713,3.418-2.023c1.879-1.113,3.428-2.023,3.443-2.023s.011,1.245.016,2.019a7.706,7.706,0,0,1,.877-.168l-.006-2.849a.158.158,0,0,0-.094-.094c-.086-.085-6.358-3.813-6.416-3.813-.082,0-.354.463-.4.674l-.018.092,2.8,1.652c1.539.91,2.8,1.662,2.8,1.672s-6.834,4.071-6.883,4.076S1.387,7.435,1.4,7.406C1.4,7.393,2.663,6.636,4.2,5.725L7,4.068l.057-.316A4.275,4.275,0,0,1,7.189,3.2,1.051,1.051,0,0,0,7.256,2.959ZM.947,8.225c.015,0,1.566.91,3.446,2.023l3.418,2.023.007,3.709c.005,2.041,0,3.709-.015,3.708S6.235,18.769,4.35,17.65L.922,15.617v-3.7C.922,9.887.933,8.225.947,8.225Z" class="aw-theme-iconOutline" fill="#464646"/>
    <path id="path6-2-7" d="M14.035.221a.429.429,0,0,0,0,.615l1.01,1H9.932A2.165,2.165,0,0,0,7.728,4V8.782H8.61V4A1.312,1.312,0,0,1,9.932,2.7h5.113l-1.01,1a.438.438,0,1,0,.624.615l1.762-1.737a.43.43,0,0,0,0-.616L14.659.221A.444.444,0,0,0,14.035.221Z" class="aw-theme-iconOutline" fill="#464646"/>
    <path id="path2-2" d="M10.972,17.5a6.5,6.5,0,1,1,6.5,6.5A6.5,6.5,0,0,1,10.972,17.5Zm12,0a5.5,5.5,0,1,0-5.5,5.5A5.5,5.5,0,0,0,22.972,17.5Z" class="aw-theme-iconOutline" fill="#464646"/>
    <path id="path4" d="M16.972,21h1V15.7l2.15,2.15.707-.707-3-3a.5.5,0,0,0-.707,0l-3,3,.707.707,2.143-2.141Z" class="aw-theme-iconOutline" fill="#464646"/>
  </g>
</svg>
