<svg version="1.1" id="Verb_x5F_Zone" xmlns="http://www.w3.org/2000/svg" xmlns:xlink="http://www.w3.org/1999/xlink" x="0px"
	 y="0px"  viewBox="0 0 24 24" enable-background="new 0 0 24 24" xml:space="preserve">
<path class="aw-theme-iconOutline" fill="#464646" d="M24,24H0V0h24V24z M1,23h22V1H1V23z"/>
<path class="aw-theme-iconOutline" fill="#464646" d="M21.658,10.015l-2.793-2.802c-0.184-0.183-0.477-0.183-0.659,0l-2.795,2.802
	c-0.438,0.44,0.222,1.102,0.66,0.661l1.998-2.005v9.39H8.671l2.005-1.998c0.44-0.439-0.221-1.098-0.661-0.659l-2.802,2.794
	c-0.183,0.184-0.183,0.477,0,0.659l2.802,2.795c0.44,0.439,1.102-0.221,0.661-0.66l-2.005-1.998h9.398V19h0.933V8.671L21,10.676
	C21.439,11.117,22.098,10.456,21.658,10.015z"/>
<rect class="aw-theme-iconOutline" x="2.006" y="8.006" fill="#464646" width="3.995" height="12.95"/>
<rect class="aw-theme-iconOutline" x="7.994" y="2.039" fill="#464646" width="12.95" height="3.995"/>
<rect class="aw-theme-iconOutline" x="2.003" y="2.037" fill="#464646" width="4" height="4"/>
</svg>
