<svg id="Livello_3" data-name="Livello 3" xmlns="http://www.w3.org/2000/svg" viewBox="0 0 24 24">
  <g id="g851">
    <path id="path844" d="M9.97,13.486a1.727,1.727,0,0,1-1-.514,1.659,1.659,0,0,1-.511-1.027,1.783,1.783,0,0,1,1.778-1.991,1.807,1.807,0,0,1,1.7,1.376A1.775,1.775,0,0,1,10.332,13.5a2.015,2.015,0,0,1-.362-.01Zm.459-1.131A.67.67,0,0,0,10.7,11.27a.6.6,0,0,0-.521-.187.579.579,0,0,0-.545.348A.657.657,0,0,0,10.429,12.355Z" class="aw-theme-iconOutline" fill="#464646"/>
    <path id="path830" d="M9.605,19.985A8.3,8.3,0,0,1,2,12.75,11.276,11.276,0,0,1,1.969,11c.021-.065.011-.067-.347-.088C.88,10.866.534,10.754.284,10.476a1.167,1.167,0,0,1-.2-.314c-.136-.365-.12-.633.091-1.49A8.749,8.749,0,0,1,4.723,2.981a9.292,9.292,0,0,1,3.125-.917c.766-.09,1.021-.054,1.311.183.209.172.266.322.3.807l.034.415h.722a6.672,6.672,0,0,1,1.689.161,8.262,8.262,0,0,1,3.32,1.514A11.614,11.614,0,0,1,16.79,6.7,8.277,8.277,0,0,1,18.4,10.5a11.025,11.025,0,0,1,.016,2.374,8.354,8.354,0,0,1-1.735,4.022,10.543,10.543,0,0,1-1.4,1.384,8.251,8.251,0,0,1-4.008,1.66A10.075,10.075,0,0,1,9.605,19.985Zm1.665-1.143a7.208,7.208,0,0,0,5.39-3.935,6.926,6.926,0,0,0,.645-1.985,9.038,9.038,0,0,0,.061-1.91,7.2,7.2,0,0,0-4.05-5.765,7.282,7.282,0,0,0-2.4-.672,9.636,9.636,0,0,0-1.471.009,3,3,0,0,0-.094.389c-.23,1.114-.4,1.364-1.015,1.5a5.238,5.238,0,0,0-1.725.77A5.116,5.116,0,0,0,4.678,9.818c-.166.657-.357.83-1.08.982a2.916,2.916,0,0,1-.384.059c-.137,0-.155.055-.181.568a7.325,7.325,0,0,0,1.034,4.026,6.615,6.615,0,0,0,1.041,1.323A7.2,7.2,0,0,0,9.676,18.9,11.533,11.533,0,0,0,11.27,18.842ZM3.129,9.893a1.336,1.336,0,0,0,.562-.138c.006-.02.048-.169.093-.332A6.065,6.065,0,0,1,7.952,5.566l.271-.072.082-.325A5.237,5.237,0,0,0,8.5,3.62,4.465,4.465,0,0,0,8.481,3a7.2,7.2,0,0,0-1.446.192,7.269,7.269,0,0,0-1.792.621A7.773,7.773,0,0,0,1,9.43c-.055.3-.045.38.05.431A8.577,8.577,0,0,0,3.129,9.893Z" class="aw-theme-iconOutline" fill="#464646"/>
    <path id="path832" d="M4.156,5.981A.5.5,0,0,1,3.827,5.4a.555.555,0,0,1,.281-.321.722.722,0,0,1,.2-.027.471.471,0,0,1,.263.854A.488.488,0,0,1,4.156,5.981Z" class="aw-theme-iconOutline" fill="#464646"/>
    <path id="path834" d="M2.112,9.133a.473.473,0,0,1,.032-.828A.39.39,0,0,1,2.571,8.3a.437.437,0,0,1,.261.427A.472.472,0,0,1,2.112,9.133Z" class="aw-theme-iconOutline" fill="#464646"/>
    <path id="path836" d="M7.7,4.327a.492.492,0,0,1-.277-.686.482.482,0,0,1,.852.015.391.391,0,0,1-.008.423.425.425,0,0,1-.21.21A.389.389,0,0,1,7.7,4.327Z" class="aw-theme-iconOutline" fill="#464646"/>
    <path id="path838" d="M9.442,16.689a5.046,5.046,0,0,1-4.206-4.317A6.807,6.807,0,0,1,5.3,10.71a5.02,5.02,0,0,1,8.749-2.215,5.014,5.014,0,0,1-2.979,8.177A6.469,6.469,0,0,1,9.442,16.689Zm1.514-1.1a4.043,4.043,0,0,0,1.064-.373,3.925,3.925,0,0,0,.97-6.264,3.856,3.856,0,0,0-2.924-1.145,3.923,3.923,0,0,0-3.774,3.912,3.826,3.826,0,0,0,1.057,2.7,3.934,3.934,0,0,0,2.426,1.222A4.741,4.741,0,0,0,10.956,15.589Z" class="aw-theme-iconOutline" fill="#464646"/>
    <path id="path840" d="M9.978,9.408a.435.435,0,0,1-.284-.252.439.439,0,0,1,.01-.409.483.483,0,0,1,.856-.012.541.541,0,0,1-.031.494A.494.494,0,0,1,9.978,9.408Z" class="aw-theme-iconOutline" fill="#464646"/>
    <path id="path842" d="M7.028,12.2a.475.475,0,0,1-.27-.442.478.478,0,1,1,.27.442Z" class="aw-theme-iconOutline" fill="#464646"/>
    <path id="path846" d="M12.876,12.207a.459.459,0,0,1-.235-.635.425.425,0,0,1,.408-.269.359.359,0,0,1,.283.062.589.589,0,0,1,.164.182A.481.481,0,0,1,12.876,12.207Z" class="aw-theme-iconOutline" fill="#464646"/>
    <path id="path848" d="M9.938,15.145A.459.459,0,0,1,9.7,14.51a.426.426,0,0,1,.378-.269.482.482,0,0,1,.446.192.551.551,0,0,1,0,.539.464.464,0,0,1-.595.173Z" class="aw-theme-iconOutline" fill="#464646"/>
    <path id="rect1257" d="M21,4h3V5H21Z" class="aw-theme-iconOutline" fill="#464646"/>
    <path id="rect1257-1" d="M21,1h3V2H21Z" class="aw-theme-iconOutline" fill="#464646"/>
    <path id="rect1257-9" d="M21,7h3V8H21Z" class="aw-theme-iconOutline" fill="#464646"/>
    <path id="rect1257-97" d="M19,1h1V2H19Z" class="aw-theme-iconOutline" fill="#464646"/>
    <path id="rect1257-97-0" d="M19,7h1V8H19Z" class="aw-theme-iconOutline" fill="#464646"/>
    <path id="rect1257-97-1" d="M19,4h1V5H19Z" class="aw-theme-iconOutline" fill="#464646"/>
  </g>
</svg>
