<svg id="Layer_1" data-name="Layer 1" xmlns="http://www.w3.org/2000/svg" viewBox="0 0 24 24">
  <g id="g864">
    <path id="path859" d="M10.479,23.958a.421.421,0,0,1-.267-.327c0-.141,1.156-3.6,1.284-3.843.094-.179,7.621-7.492,8.915-8.662.471-.426.66-.511,1.094-.49.371.018.55.136,1.383.913a8.781,8.781,0,0,1,.994,1.039,1.38,1.38,0,0,1-.062,1.306c-.119.156-2.336,2.322-6.881,6.721L14.81,22.676l-1.682.558c-.925.307-1.811.6-1.969.644A1.394,1.394,0,0,1,10.479,23.958Zm1.541-1.271A13.933,13.933,0,0,0,13.5,22.2c0-.031-1.283-1.31-1.315-1.31a.758.758,0,0,0-.109.222c-.078.2-.566,1.672-.566,1.706S11.52,22.838,12.02,22.687Zm3.346-1.855c1.491-1.424,6.219-6,6.223-6.024s-1.358-1.343-1.6-1.551a1.373,1.373,0,0,0-.205-.157c-.026,0-.379.335-2.033,1.928-2.655,2.559-5.086,4.927-5.091,4.961s.661.7,1.263,1.277l.486.467.1-.09C14.565,21.594,14.95,21.229,15.366,20.832Zm7.192-6.963c.147-.137.32-.313.385-.391.154-.185.155-.25.011-.441A16.491,16.491,0,0,0,21.7,11.8c-.232-.187-.266-.2-.41-.126a5.544,5.544,0,0,0-.806.718c0,.031,1.763,1.738,1.786,1.731S22.411,14.007,22.558,13.869Z" class="aw-theme-iconOutline" fill="#464646"/>
    <path id="path873" d="M14.73,2.025a.581.581,0,0,0-.222.039c-.12.064-6.184,3.855-6.237,3.9a1.779,1.779,0,0,0-.127.272c0,1.3-.034,1.939-.015,3.509-.017,3.2-.01,3.638.156,3.791.048.042,1.181.763,2.52,1.6,1.039.649,1.7,1.068,2.209,1.384l.718-.671c-.29-.185-1.072-.674-2.234-1.4L9.082,12.943l-.006-2.877c0-1.577,0-2.877.006-2.877s1.168.724,2.58,1.606L14.23,10.4v2.873c0,1.169-.006,1.678-.013,2.123l.986-.921c0-.487-.006-.542-.006-1.2V10.4l2.574-1.609,2.575-1.609.006,2.478.939-.881-.006-2.654-.068-.09c-.052-.068-.87-.592-3.141-2.012-1.689-1.059-3.107-1.936-3.152-1.959a.583.583,0,0,0-.194-.039Zm0,1.036,2.554,1.6c1.406.877,2.576,1.608,2.6,1.625A19.658,19.658,0,0,1,17.32,7.941L14.713,9.57,12.121,7.951c-1.426-.89-2.592-1.617-2.586-1.64S14.511,3.168,14.65,3.1Z" class="aw-theme-iconOutline" fill="#464646"/>
    <path id="path856-3" d="M6.061.05,0,6.05v15H9.359l1.084-1.014H.951V7.05H7V1.064H23V9.012l1,.746V.05H6.061ZM6,6.05l-4.6.025L6,1.55Z" class="aw-theme-iconOutline" fill="#464646"/>
  </g>
</svg>
