<svg id="Livello_3" data-name="Livello 3" xmlns="http://www.w3.org/2000/svg" viewBox="0 0 24 24">
  <g id="g856">
    <path id="path844" d="M9.97,13.486a1.727,1.727,0,0,1-1-.514,1.659,1.659,0,0,1-.511-1.027,1.783,1.783,0,0,1,1.778-1.991,1.807,1.807,0,0,1,1.7,1.376A1.775,1.775,0,0,1,10.332,13.5a2.015,2.015,0,0,1-.362-.01Zm.459-1.131A.67.67,0,0,0,10.7,11.27a.6.6,0,0,0-.521-.187.579.579,0,0,0-.545.348A.657.657,0,0,0,10.429,12.355Z" class="aw-theme-iconOutline" fill="#464646"/>
    <path id="path830" d="M8.336,2.021c-.136.006-.3.021-.488.043a9.314,9.314,0,0,0-3.125.916A8.747,8.747,0,0,0,.18,8.672c-.211.857-.228,1.125-.092,1.49a1.183,1.183,0,0,0,.195.315c.25.278.6.39,1.34.431.358.02.366.021.346.086A11.185,11.185,0,0,0,2,12.75a8.3,8.3,0,0,0,7.6,7.234c.11.009.276,0,.42.006a7.427,7.427,0,0,1,.153-1.09c-.191,0-.411.011-.5,0a7.188,7.188,0,0,1-4.569-2.127,6.653,6.653,0,0,1-1.041-1.322,7.321,7.321,0,0,1-1.033-4.025c.026-.513.045-.568.182-.569A2.957,2.957,0,0,0,3.6,10.8c.723-.151.913-.323,1.08-.981A5.116,5.116,0,0,1,6.607,7.242a5.215,5.215,0,0,1,1.725-.769c.616-.136.784-.386,1.014-1.5a3.313,3.313,0,0,1,.1-.389,9.532,9.532,0,0,1,1.471-.008,7.292,7.292,0,0,1,2.4.67,7.2,7.2,0,0,1,4.051,5.766,9.172,9.172,0,0,1-.062,1.91c-.006.032-.016.055-.022.086.072,0,.145-.006.217-.008a7.517,7.517,0,0,1,.875.057c.011-.064.031-.123.041-.188a11.034,11.034,0,0,0-.014-2.375A8.287,8.287,0,0,0,16.789,6.7a11.658,11.658,0,0,0-1.56-1.558,8.252,8.252,0,0,0-3.321-1.514,6.669,6.669,0,0,0-1.689-.162H9.5l-.033-.414c-.039-.485-.1-.635-.307-.807A1.05,1.05,0,0,0,8.336,2.021ZM8.48,3a4.378,4.378,0,0,1,.022.621,5.271,5.271,0,0,1-.2,1.549l-.082.326-.272.072a6.26,6.26,0,0,0-1.713.754,6.177,6.177,0,0,0-2.453,3.1c-.045.163-.088.312-.094.332a1.328,1.328,0,0,1-.562.139,8.516,8.516,0,0,1-2.074-.032C.959,9.81.949,9.726,1,9.43A7.771,7.771,0,0,1,5.242,3.811a7.291,7.291,0,0,1,1.793-.622A7.246,7.246,0,0,1,8.48,3Z" class="aw-theme-iconOutline" fill="#464646"/>
    <path id="path832" d="M4.156,5.981A.5.5,0,0,1,3.827,5.4a.555.555,0,0,1,.281-.321.722.722,0,0,1,.2-.027.471.471,0,0,1,.263.854A.488.488,0,0,1,4.156,5.981Z" class="aw-theme-iconOutline" fill="#464646"/>
    <path id="path834" d="M2.112,9.133a.473.473,0,0,1,.032-.828A.39.39,0,0,1,2.571,8.3a.437.437,0,0,1,.261.427A.472.472,0,0,1,2.112,9.133Z" class="aw-theme-iconOutline" fill="#464646"/>
    <path id="path836" d="M7.7,4.327a.492.492,0,0,1-.277-.686.482.482,0,0,1,.852.015.391.391,0,0,1-.008.423.425.425,0,0,1-.21.21A.389.389,0,0,1,7.7,4.327Z" class="aw-theme-iconOutline" fill="#464646"/>
    <path id="path838" d="M10.416,6.717a4.956,4.956,0,0,0-2.43.517A5.059,5.059,0,0,0,5.3,10.711a6.807,6.807,0,0,0-.061,1.662,5.045,5.045,0,0,0,4.205,4.316,6.469,6.469,0,0,0,1.62-.017,7.472,7.472,0,0,1,1.457-1.766,3.852,3.852,0,0,1-.5.309,4.04,4.04,0,0,1-1.063.375,4.8,4.8,0,0,1-1.182.049A3.936,3.936,0,0,1,7.35,14.418a3.933,3.933,0,0,1,.164-5.535,3.771,3.771,0,0,1,2.552-1.076A3.857,3.857,0,0,1,12.99,8.953a3.925,3.925,0,0,1-.045,5.594,7.473,7.473,0,0,1,1.965-1.08c.019-.051.045-.1.063-.151a5.017,5.017,0,0,0-4.557-6.6Z" class="aw-theme-iconOutline" fill="#464646"/>
    <path id="path840" d="M9.978,9.408a.435.435,0,0,1-.284-.252.439.439,0,0,1,.01-.409.483.483,0,0,1,.856-.012.541.541,0,0,1-.031.494A.494.494,0,0,1,9.978,9.408Z" class="aw-theme-iconOutline" fill="#464646"/>
    <path id="path842" d="M7.028,12.2a.475.475,0,0,1-.27-.442.478.478,0,1,1,.27.442Z" class="aw-theme-iconOutline" fill="#464646"/>
    <path id="path846" d="M12.876,12.207a.459.459,0,0,1-.235-.635.425.425,0,0,1,.408-.269.359.359,0,0,1,.283.062.589.589,0,0,1,.164.182A.481.481,0,0,1,12.876,12.207Z" class="aw-theme-iconOutline" fill="#464646"/>
    <path id="path848" d="M9.938,15.145A.459.459,0,0,1,9.7,14.51a.426.426,0,0,1,.378-.269.482.482,0,0,1,.446.192.551.551,0,0,1,0,.539.464.464,0,0,1-.595.173Z" class="aw-theme-iconOutline" fill="#464646"/>
    <rect id="rect1257" x="21" y="4" width="3" height="1" class="aw-theme-iconOutline" fill="#464646"/>
    <rect id="rect1257-1" x="21" y="1" width="3" height="1" class="aw-theme-iconOutline" fill="#464646"/>
    <rect id="rect1257-9" x="21" y="7" width="3" height="1" class="aw-theme-iconOutline" fill="#464646"/>
    <rect id="rect1257-97" x="19" y="1" width="1" height="1" class="aw-theme-iconOutline" fill="#464646"/>
    <rect id="rect1257-97-0" x="19" y="7" width="1" height="1" class="aw-theme-iconOutline" fill="#464646"/>
    <rect id="rect1257-97-1" x="19" y="4" width="1" height="1" class="aw-theme-iconOutline" fill="#464646"/>
    <path id="path818" d="M10.8,23.343c.042-.056,2.738-2.465,6.177-5.542l6.248-5.6.676.632-6.182,5.544c-3.437,3.083-6.267,5.6-6.275,5.6Z" class="aw-theme-iconOutline" fill="#464646"/>
    <path id="rect2-6" d="M15.074,22.218l-.995.891h1.964v-.891Z" class="aw-theme-iconOutline" fill="#464646"/>
    <path id="rect4-4" d="M22.012,22.218H24v.891H22.012Z" class="aw-theme-iconOutline" fill="#464646"/>
    <path id="path6-8" d="M20.022,24H18.033a.948.948,0,0,1-1-.891h0v-.891a.947.947,0,0,1,1-.89h1.989a.946.946,0,0,1,1,.89h0v.891a.947.947,0,0,1-1,.891Zm-1.989-1.782v.891h1.989v-.891Z" class="aw-theme-iconOutline" fill="#464646"/>
    <path id="polygon8-7" d="M16.347,14.2l-.8,1.763-1.976-.7-1.317,1.173.788,1.754-1.979.7v1.547h.995V19.5l2.287-.812-.917-2.034.389-.345,2.288.815.909-2.027h1.035l.188.418.766-.683-.283-.623ZM22.01,15.72l-.7.633.334.3-.917,2.034,2.287.812v.942h1V18.89l-1.979-.7.789-1.754Z" class="aw-theme-iconOutline" fill="#464646"/>
  </g>
</svg>
