<svg id="Layer_1" data-name="Layer 1" xmlns="http://www.w3.org/2000/svg" viewBox="0 0 24 24">
  <g id="g816">
    <path id="path815" d="M11.321,23.932c-.245-.1-9.046-5.309-9.16-5.421-.091-.055-.1-.1-.1-.125l-.028-5.024c-.006-3.4,0-5.053.028-5.114A.418.418,0,0,1,2.2,8.094c.325-.212,8.113-4.806,8.125-4.793a1.147,1.147,0,0,1-.076.282,4.975,4.975,0,0,0-.156.631l-.065.364L6.809,6.486C5.039,7.535,3.587,8.4,3.582,8.42c-.012.034,7.868,4.7,7.925,4.7s7.922-4.663,7.922-4.69S17.98,7.549,16.208,6.5l-3.22-1.9.021-.106c.049-.243.362-.775.457-.775.066,0,7.284,4.291,7.383,4.389a.183.183,0,0,1,.108.107l.01,5.042c.007,3.659.019,5.068-.01,5.139-.022.054-.055.1-.228.2-.092.058-2.117,1.258-4.5,2.667s-4.373,2.591-4.424,2.626a.507.507,0,0,1-.484.041Zm-.35-5.643-.009-4.269L7.028,11.691c-2.163-1.28-3.947-2.328-3.964-2.328s-.03,1.914-.03,4.253v4.253L6.98,20.21c2.17,1.288,3.958,2.343,3.973,2.345S10.976,20.637,10.971,18.289ZM16.025,20.2l3.943-2.336V13.615c0-2.423-.013-4.252-.031-4.252s-1.8,1.048-3.964,2.328L12.04,14.02l-.009,4.272c-.005,2.35,0,4.267.021,4.26s1.8-1.063,3.973-2.348Z" class="aw-theme-iconOutline" fill="#464646"/>
    <path id="path6-2" d="M18.127.152a.494.494,0,0,0,0,.708L19.29,2.005H13.406a2.492,2.492,0,0,0-2.537,2.5v5.5h1.015v-5.5a1.509,1.509,0,0,1,1.522-1.5H19.29L18.127,4.152a.5.5,0,1,0,.718.708l2.028-2a.494.494,0,0,0,0-.708l-2.028-2A.512.512,0,0,0,18.127.152Z" class="aw-theme-iconOutline" fill="#464646"/>
  </g>
</svg>
