<svg id="Livello_1" data-name="Livello 1" xmlns="http://www.w3.org/2000/svg" viewBox="0 0 24 24">
  <g id="g840">
    <path id="path2" d="M17.5,24a6.487,6.487,0,1,1,.026,0Zm0-12A5.5,5.5,0,1,0,23,17.5,5.5,5.5,0,0,0,17.5,12" class="aw-theme-iconOutline" fill="#464646"/>
    <path id="path4" d="M18.546,13l-.708.708,1.647,1.646H17.461a3.269,3.269,0,0,0-1.26,6.287l.384-.923a2.269,2.269,0,0,1,.873-4.364h2.024L17.838,18l.708.708,2.5-2.5a.5.5,0,0,0,0-.707Z" class="aw-theme-iconOutline" fill="#464646"/>
    <path id="path827" d="M7.055,17.2c-.2-.146-.487-.366-.632-.489a6.743,6.743,0,0,1-2.289-4.82,6.525,6.525,0,0,1,.658-3.335A6.828,6.828,0,0,1,7.983,5.443,7.018,7.018,0,0,1,9.8,4.8a8.611,8.611,0,0,1,1.691-.05,6.99,6.99,0,0,1,3.6,1.471,8.557,8.557,0,0,1,1.027,1.023,7.389,7.389,0,0,1,.755,1.174,6.883,6.883,0,0,1,.575,1.553c.006.024.008.044,0,.044l-.49.064a3.263,3.263,0,0,1-.5.045,1.9,1.9,0,0,1-.085-.267,5.015,5.015,0,0,0-.7-1.583,5.5,5.5,0,0,0-2.332-2.011,5.424,5.424,0,0,0-1.9-.533,5.948,5.948,0,0,0-2.635.333A5.871,5.871,0,0,0,5.429,9.479a6.19,6.19,0,0,0,.054,4.24,6.82,6.82,0,0,0,.579,1.152,6.867,6.867,0,0,0,1.025,1.154c.174.151.138.167.459-.209.125-.147.384-.446.574-.665l.355-.426,2.019.012-.224.882-1.336,0-.76.962c-.391.5-.73.889-.737.889s-.179-.12-.382-.266Z" class="aw-theme-iconOutline" fill="#464646"/>
    <path id="path829" d="M10.526,12.819a1.53,1.53,0,0,1-1.033-1.033,1.58,1.58,0,0,1,.026-.771l.061-.186-.455-.462c-.251-.254-.767-.777-1.148-1.161l-.693-.7.345-.343.346-.343,1.15,1.165,1.15,1.164L10.4,10.1a1.487,1.487,0,0,1,2.019,1.334,1.492,1.492,0,0,1-1.1,1.394,1.923,1.923,0,0,1-.789-.009Z" class="aw-theme-iconOutline" fill="#464646"/>
    <path id="path9" d="M9.724,18.329a8.238,8.238,0,0,0,.226.971H0V1.454A1.424,1.424,0,0,1,1.45.063H6.609a1.466,1.466,0,0,1,1.207.62l1.458,2.1H22.256v8.66a9.261,9.261,0,0,0-1.012-.592v-7.1H8.733L6.98,1.22a.449.449,0,0,0-.364-.187H1.456a.429.429,0,0,0-.443.416v16.88Z" class="aw-theme-iconOutline" fill="#464646"/>
  </g>
</svg>
