<svg id="Layer_1" data-name="Layer 1" xmlns="http://www.w3.org/2000/svg" viewBox="0 0 24 24">
  <g id="g831">
    <path id="path829" d="M10.507,23.966a.548.548,0,0,1-.271-.222c-.034-.065-.035-.094-.01-.209.037-.167.818-2.512,1.078-3.237l.194-.54.281-.284c.948-.957,7.234-7.051,8.227-7.976.876-.816.949-.859,1.432-.86a.972.972,0,0,1,.624.191,15.454,15.454,0,0,1,1.544,1.436,1.157,1.157,0,0,1,.408.78.916.916,0,0,1-.012.38,1.127,1.127,0,0,1-.371.673c-.506.513-3.573,3.5-6.761,6.582l-2.068,2-1.467.486c-2.421.8-2.631.863-2.828.8Zm1.593-1.3a9.1,9.1,0,0,0,1.387-.46A12.57,12.57,0,0,0,12.171,20.9a5.715,5.715,0,0,0-.413,1.126c-.253.754-.272.815-.252.815C11.511,22.838,11.778,22.759,12.1,22.662Zm2.349-.945c.005-.01.235-.234.511-.5.785-.747,1.652-1.582,3.225-3.1.8-.772,1.889-1.829,2.427-2.348s.976-.952.976-.961c0-.024-1.336-1.318-1.581-1.531l-.225-.2-.122.116c-2.076,1.981-5.021,4.831-6.457,6.249L12.644,20l.877.869c.483.478.888.869.9.869A.034.034,0,0,0,14.449,21.717Zm8.344-8.079a2.021,2.021,0,0,0,.251-.3c.04-.084.039-.089-.016-.192a10.1,10.1,0,0,0-1.427-1.42c-.165-.121-.215-.122-.379-.009a5.887,5.887,0,0,0-.731.685c0,.014.405.411.892.882l.884.855.158-.14c.087-.077.252-.238.368-.357Z" class="aw-theme-iconOutline" fill="#464646"/>
    <path id="path856-3" d="M6.061-.014,0,5.986v15H9.359l1.084-1.014H.951V6.986H7V1H23V8.948l1,.746V-.014H6.061ZM6,5.986l-4.6.025L6,1.486Z" class="aw-theme-iconOutline" fill="#464646"/>
  </g>
</svg>
