<svg id="Layer_1" data-name="Layer 1" xmlns="http://www.w3.org/2000/svg" viewBox="0 0 24 24">
  <g id="g818">
    <path id="path2" d="M22.86,17.147a.5.5,0,0,0-.707,0l-4.147,4.135V2h-1V21.308l-4.147-4.136a.5.5,0,0,0-.718.7l.012.012,4.987,4.974a.5.5,0,0,0,.706,0l5.013-5A.5.5,0,0,0,22.86,17.147Z" class="aw-theme-iconOutline" fill="#464646"/>
    <path id="path828" d="M3.019,10.416a3.271,3.271,0,0,1,.1-.848c.25-.863.747-1.417,2.342-2.606,1.117-.832,1.57-1.37,1.763-2.095a2.965,2.965,0,0,0,.015-1.3A1.525,1.525,0,0,0,6.119,2.492a3.051,3.051,0,0,0-1.09.006,3.285,3.285,0,0,0-1.417.8l-.243.229V2.414l.261-.2a2.629,2.629,0,0,1,.907-.489A3.813,3.813,0,0,1,6.659,1.69,2.326,2.326,0,0,1,8.277,3.324a3.706,3.706,0,0,1,.056,1.222,3.24,3.24,0,0,1-.974,1.937A12.379,12.379,0,0,1,5.58,7.919c-1.122.833-1.492,1.335-1.492,2.022v.16H8.726V11H3Z" class="aw-theme-iconOutline" fill="#464646"/>
    <path id="path826" d="M6,18.973c0-2.215-.007-4.027-.016-4.027s-.138.088-.288.2a7.813,7.813,0,0,1-1.506.772c-.174.062-.324.112-.333.112a4.138,4.138,0,0,1-.006-.523l.01-.523.295-.1A8.933,8.933,0,0,0,6.339,13.72c.313-.23.35-.248.52-.248h.184V23H6Z" class="aw-theme-iconOutline" fill="#464646"/>
  </g>
</svg>
