<svg version="1.1" id="Livello_1" xmlns="http://www.w3.org/2000/svg" xmlns:xlink="http://www.w3.org/1999/xlink" x="0px" y="0px"
	  viewBox="0 0 24 24" enable-background="new 0 0 24 24" xml:space="preserve">
<rect x="11.5" y="4.565" class="aw-theme-iconOutline" fill="#464646" width="1" height="4.061"/>
<polygon class="aw-theme-iconOutline" fill="#464646" points="12,5.18 8.251,3.022 8.75,2.156 12,4.026 15.251,2.156 15.749,3.023 "/>
<path class="aw-theme-iconOutline" fill="#464646" d="M12,9.186L8,6.884V2.3L11.998,0L16,2.3v4.584L12,9.186z M9,6.306l3,1.726l3-1.726V2.879l-3.002-1.726
	L9,2.878V6.306z"/>
<rect x="3.5" y="19.379" class="aw-theme-iconOutline" fill="#464646" width="1" height="4.061"/>
<polygon class="aw-theme-iconOutline" fill="#464646" points="4,19.994 0.251,17.836 0.75,16.969 4,18.84 7.25,16.969 7.75,17.836 "/>
<path class="aw-theme-iconOutline" fill="#464646" d="M4,24l-4-2.303v-4.584l3.998-2.301L8,17.113v4.584L4,24z M1,21.119l3,1.727l3-1.727v-3.428l-3.002-1.725
	L1,17.691V21.119z"/>
<rect x="19.5" y="19.379" class="aw-theme-iconOutline" fill="#464646" width="1" height="4.061"/>
<polygon class="aw-theme-iconOutline" fill="#464646" points="20,19.994 16.252,17.836 16.75,16.969 20,18.84 23.251,16.969 23.749,17.836 "/>
<path class="aw-theme-iconOutline" fill="#464646" d="M20,24l-4-2.303v-4.584l3.998-2.301L24,17.113v4.584L20,24z M17,21.119l3,1.727l3-1.727v-3.428l-3.002-1.725
	L17,17.691V21.119z"/>
<polygon class="aw-theme-iconOutline" fill="#464646" points="20.547,12.083 12.5,12.083 12.5,8.488 11.5,8.488 11.5,12.083 3.547,12.083 3.547,12.771 
	3.542,12.771 3.542,15.313 4.542,15.313 4.542,13.084 19.542,13.084 19.542,15.41 20.542,15.41 20.542,13.084 20.547,13.084 "/>
</svg>
