<svg id="Artwork" xmlns="http://www.w3.org/2000/svg" viewBox="0 0 24 24">
  <g id="g909">
    <path id="path839-1-2-8-6" d="M5.777,2.95a.5.5,0,1,1-.5.5A.5.5,0,0,1,5.777,2.95Z" class="aw-theme-iconOutline" fill="#464646"/>
    <path id="path837-1-2-26-4" d="M3.939,2.95a.5.5,0,1,1-.5.5A.5.5,0,0,1,3.939,2.95Z" class="aw-theme-iconOutline" fill="#464646"/>
    <path id="path839-2-4-1-9-1" d="M7.616,2.95a.5.5,0,1,1-.5.5A.5.5,0,0,1,7.616,2.95Z" class="aw-theme-iconOutline" fill="#464646"/>
    <path id="path837-1-2-2-5-1" d="M2.1,2.95a.5.5,0,1,1-.5.5A.5.5,0,0,1,2.1,2.95Z" class="aw-theme-iconOutline" fill="#464646"/>
    <path id="path837-1-2-26-1-0" d="M11.293,2.95a.5.5,0,1,1-.5.5A.5.5,0,0,1,11.293,2.95Z" class="aw-theme-iconOutline" fill="#464646"/>
    <path id="path837-1-2-2-5-5-5" d="M9.454,2.95a.5.5,0,1,1-.5.5A.5.5,0,0,1,9.454,2.95Z" class="aw-theme-iconOutline" fill="#464646"/>
    <path id="path839-1-2-8-7-3" d="M6.677,1.75a.5.5,0,1,1-.5.5A.5.5,0,0,1,6.677,1.75Z" class="aw-theme-iconOutline" fill="#464646"/>
    <path id="path837-1-2-26-7-7" d="M4.839,1.75a.5.5,0,1,1-.5.5A.5.5,0,0,1,4.839,1.75Z" class="aw-theme-iconOutline" fill="#464646"/>
    <path id="path839-2-4-1-9-3-3" d="M8.516,1.75a.5.5,0,1,1-.5.5A.5.5,0,0,1,8.516,1.75Z" class="aw-theme-iconOutline" fill="#464646"/>
    <path id="path837-1-2-2-5-6-3" d="M3,1.75a.5.5,0,1,1-.5.5A.5.5,0,0,1,3,1.75Z" class="aw-theme-iconOutline" fill="#464646"/>
    <path id="path837-1-2-26-1-5-44" d="M12.193,1.75a.5.5,0,1,1-.5.5A.5.5,0,0,1,12.193,1.75Z" class="aw-theme-iconOutline" fill="#464646"/>
    <path id="path837-1-2-2-5-5-8-4" d="M10.354,1.75a.5.5,0,1,1-.5.5h0A.5.5,0,0,1,10.354,1.75Z" class="aw-theme-iconOutline" fill="#464646"/>
    <path id="path839-1-2-8-7-8-0" d="M6.677,4.15a.5.5,0,1,1-.5.5A.5.5,0,0,1,6.677,4.15Z" class="aw-theme-iconOutline" fill="#464646"/>
    <path id="path837-1-2-26-7-3-0" d="M4.839,4.15a.5.5,0,1,1-.5.5A.5.5,0,0,1,4.839,4.15Z" class="aw-theme-iconOutline" fill="#464646"/>
    <path id="path839-2-4-1-9-3-9-4" d="M8.516,4.15a.5.5,0,1,1-.5.5A.5.5,0,0,1,8.516,4.15Z" class="aw-theme-iconOutline" fill="#464646"/>
    <path id="path837-1-2-2-5-6-7-5" d="M3,4.15a.5.5,0,1,1-.5.5A.5.5,0,0,1,3,4.15Z" class="aw-theme-iconOutline" fill="#464646"/>
    <path id="path839-1-2-8-6-8" d="M5.777,5.35a.5.5,0,1,1-.5.5A.5.5,0,0,1,5.777,5.35Z" class="aw-theme-iconOutline" fill="#464646"/>
    <path id="path837-1-2-26-4-1" d="M3.939,5.35a.5.5,0,1,1-.5.5A.5.5,0,0,1,3.939,5.35Z" class="aw-theme-iconOutline" fill="#464646"/>
    <path id="path837-1-2-2-5-1-4" d="M2.1,5.35a.5.5,0,1,1-.5.5A.5.5,0,0,1,2.1,5.35Z" class="aw-theme-iconOutline" fill="#464646"/>
    <path id="path837-1-2-26-7-7-8" d="M14.031,1.75a.5.5,0,1,1-.5.5A.5.5,0,0,1,14.031,1.75Z" class="aw-theme-iconOutline" fill="#464646"/>
    <path id="path823" d="M16.26,13.878a1.135,1.135,0,0,1-.52-.407c-.184-.278-.179-.179-.179-3.152V7.633l.59-.008.59-.007.017-.653A2.933,2.933,0,0,1,16.924,5.8,2.958,2.958,0,0,1,18.559,4.14a3.085,3.085,0,0,1,2.249,0,2.9,2.9,0,0,1,1.724,1.937,3.427,3.427,0,0,1,.078.888l.016.653.687.007L24,7.632v2.63c0,1.677-.011,2.694-.029,2.807a1.242,1.242,0,0,1-.086.289,1.209,1.209,0,0,1-.5.481l-.173.08-3.4.006a23.7,23.7,0,0,1-3.548-.047Zm6.833-.726a.229.229,0,0,0,.1-.1c.022-.048.031-.742.031-2.37v-2.3H16.338l.007,2.348.007,2.348.066.053a18.717,18.717,0,0,0,3.337.053c2.338,0,3.29-.008,3.338-.031ZM21.829,7a1.988,1.988,0,0,0-.618-1.686,2.165,2.165,0,0,0-3.055,0,2.055,2.055,0,0,0-.531.832A2.113,2.113,0,0,0,17.538,7l-.01.632h4.311Z" class="aw-theme-iconOutline" fill="#464646"/>
    <path id="path825" d="M19.447,11.677v-.34l-.12-.049a.946.946,0,0,1-.239-.164.9.9,0,0,1,.3-1.469.72.72,0,0,1,.369-.066.743.743,0,0,1,.4.077.938.938,0,0,1,.5,1.139.98.98,0,0,1-.443.479l-.152.074v.659h-.61Zm.5-.921a.3.3,0,0,0,.143-.291.326.326,0,0,0-.635-.07.336.336,0,0,0,.1.344A.428.428,0,0,0,19.943,10.756Z" class="aw-theme-iconOutline" fill="#464646"/>
    <path id="rect828-1" d="M0,.05v8H5.5v-1H1v-6H16V4h1V.05Z" class="aw-theme-iconOutline" fill="#464646"/>
    <path id="rect819" d="M13.556,3.95h.833v5h-.833Z" class="aw-theme-iconOutline" fill="#464646"/>
    <path id="rect819-8" d="M4.091,14.417v-.834h5v.834Z" class="aw-theme-iconOutline" fill="#464646"/>
    <path id="rect819-8-8" d="M14.507,24h-.833V19h.833Z" class="aw-theme-iconOutline" fill="#464646"/>
    <path id="rect819-8-8-2" d="M7.33,21.37l-.593-.583,3.52-3.558.593.584Z" class="aw-theme-iconOutline" fill="#464646"/>
    <path id="rect819-8-8-2-7" d="M20.827,21.388l.592-.583L17.9,17.25l-.592.583Z" class="aw-theme-iconOutline" fill="#464646"/>
    <path id="rect819-8-8-2-7-6" d="M10.233,10.8l.593-.584L7.31,6.656l-.593.583Z" class="aw-theme-iconOutline" fill="#464646"/>
    <path id="rect819-8-8-2-3" d="M10.5,23.345l-.762-.333,2.022-4.578.762.333Z" class="aw-theme-iconOutline" fill="#464646"/>
    <path id="rect819-8-8-2-7-8" d="M17.424,23.43l.775-.307-1.842-4.648-.775.307Z" class="aw-theme-iconOutline" fill="#464646"/>
    <path id="rect819-8-8-2-7-8-5" d="M11.849,9.518l.774-.308L10.774,4.564,10,4.872Z" class="aw-theme-iconOutline" fill="#464646"/>
    <path id="rect819-8-8-2-7-6-9" d="M4.962,18.106l-.312-.773,4.636-1.871.312.772Z" class="aw-theme-iconOutline" fill="#464646"/>
    <path id="rect819-8-8-2-7-6-9-6" d="M4.946,9.968l-.3.776L9.3,12.568l.3-.776Z" class="aw-theme-iconOutline" fill="#464646"/>
    <path id="rect819-8-8-2-7-6-9-6-1" d="M18.917,15.438l-.315.771,4.63,1.891.315-.772Z" class="aw-theme-iconOutline" fill="#464646"/>
  </g>
</svg>
