<svg id="Artwork" xmlns="http://www.w3.org/2000/svg" viewBox="0 0 24 24">
  <g id="g900">
    <path id="path839-1-2-8-6" d="M7.777,8.927a.5.5,0,1,1-.5.5A.5.5,0,0,1,7.777,8.927Z" class="aw-theme-iconOutline" fill="#464646"/>
    <path id="path837-1-2-26-4" d="M5.939,8.927a.5.5,0,1,1-.5.5A.5.5,0,0,1,5.939,8.927Z" class="aw-theme-iconOutline" fill="#464646"/>
    <path id="path839-2-4-1-9-1" d="M9.616,8.927a.5.5,0,1,1-.5.5A.5.5,0,0,1,9.616,8.927Z" class="aw-theme-iconOutline" fill="#464646"/>
    <path id="path837-1-2-2-5-1" d="M4.1,8.927a.5.5,0,1,1-.5.5A.5.5,0,0,1,4.1,8.927Z" class="aw-theme-iconOutline" fill="#464646"/>
    <path id="path837-1-2-26-1-0" d="M13.293,8.927a.5.5,0,1,1-.5.5A.5.5,0,0,1,13.293,8.927Z" class="aw-theme-iconOutline" fill="#464646"/>
    <path id="path837-1-2-2-5-5-5" d="M11.454,8.927a.5.5,0,1,1-.5.5A.5.5,0,0,1,11.454,8.927Z" class="aw-theme-iconOutline" fill="#464646"/>
    <path id="path839-1-2-8-7-3" d="M8.677,7.727a.5.5,0,1,1-.5.5h0A.5.5,0,0,1,8.677,7.727Z" class="aw-theme-iconOutline" fill="#464646"/>
    <path id="path837-1-2-26-7-7" d="M6.839,7.727a.5.5,0,1,1-.5.5h0A.5.5,0,0,1,6.839,7.727Z" class="aw-theme-iconOutline" fill="#464646"/>
    <path id="path839-2-4-1-9-3-3" d="M10.516,7.727a.5.5,0,1,1-.5.5h0A.5.5,0,0,1,10.516,7.727Z" class="aw-theme-iconOutline" fill="#464646"/>
    <path id="path837-1-2-2-5-6-3" d="M5,7.727a.5.5,0,1,1-.5.5h0A.5.5,0,0,1,5,7.727Z" class="aw-theme-iconOutline" fill="#464646"/>
    <path id="path837-1-2-26-1-5-44" d="M14.193,7.727a.5.5,0,1,1-.5.5h0A.5.5,0,0,1,14.193,7.727Z" class="aw-theme-iconOutline" fill="#464646"/>
    <path id="path837-1-2-2-5-5-8-4" d="M12.354,7.727a.5.5,0,1,1-.5.5h0A.5.5,0,0,1,12.354,7.727Z" class="aw-theme-iconOutline" fill="#464646"/>
    <path id="path839-1-2-8-7-8-0" d="M8.677,10.127a.5.5,0,1,1-.5.5A.5.5,0,0,1,8.677,10.127Z" class="aw-theme-iconOutline" fill="#464646"/>
    <path id="path837-1-2-26-7-3-0" d="M6.839,10.127a.5.5,0,1,1-.5.5A.5.5,0,0,1,6.839,10.127Z" class="aw-theme-iconOutline" fill="#464646"/>
    <path id="path839-2-4-1-9-3-9-4" d="M10.516,10.127a.5.5,0,1,1-.5.5A.5.5,0,0,1,10.516,10.127Z" class="aw-theme-iconOutline" fill="#464646"/>
    <path id="path837-1-2-2-5-6-7-5" d="M5,10.127a.5.5,0,1,1-.5.5A.5.5,0,0,1,5,10.127Z" class="aw-theme-iconOutline" fill="#464646"/>
    <path id="path837-1-2-26-1-5-4-9" d="M14.193,10.127a.5.5,0,1,1-.5.5A.5.5,0,0,1,14.193,10.127Z" class="aw-theme-iconOutline" fill="#464646"/>
    <path id="path837-1-2-2-5-5-8-6-5" d="M12.354,10.127a.5.5,0,1,1-.5.5A.5.5,0,0,1,12.354,10.127Z" class="aw-theme-iconOutline" fill="#464646"/>
    <path id="path839-1-2-8-6-8" d="M7.777,11.327a.5.5,0,1,1-.5.5A.5.5,0,0,1,7.777,11.327Z" class="aw-theme-iconOutline" fill="#464646"/>
    <path id="path837-1-2-26-4-1" d="M5.939,11.327a.5.5,0,1,1-.5.5A.5.5,0,0,1,5.939,11.327Z" class="aw-theme-iconOutline" fill="#464646"/>
    <path id="path839-2-4-1-9-1-3" d="M9.616,11.327a.5.5,0,1,1-.5.5A.5.5,0,0,1,9.616,11.327Z" class="aw-theme-iconOutline" fill="#464646"/>
    <path id="path837-1-2-2-5-1-4" d="M4.1,11.327a.5.5,0,1,1-.5.5A.5.5,0,0,1,4.1,11.327Z" class="aw-theme-iconOutline" fill="#464646"/>
    <path id="path837-1-2-26-1-0-7" d="M13.293,11.327a.5.5,0,1,1-.5.5A.5.5,0,0,1,13.293,11.327Z" class="aw-theme-iconOutline" fill="#464646"/>
    <path id="path837-1-2-2-5-5-5-2" d="M11.454,11.327a.5.5,0,1,1-.5.5A.5.5,0,0,1,11.454,11.327Z" class="aw-theme-iconOutline" fill="#464646"/>
    <path id="path839-1-2-8-6-1" d="M16.97,8.927a.5.5,0,1,1-.5.5A.5.5,0,0,1,16.97,8.927Z" class="aw-theme-iconOutline" fill="#464646"/>
    <path id="path837-1-2-26-4-11" d="M15.131,8.927a.5.5,0,1,1-.5.5A.5.5,0,0,1,15.131,8.927Z" class="aw-theme-iconOutline" fill="#464646"/>
    <path id="path837-1-2-26-7-7-8" d="M16.031,7.727a.5.5,0,1,1-.5.5A.5.5,0,0,1,16.031,7.727Z" class="aw-theme-iconOutline" fill="#464646"/>
    <path id="path823" d="M13.984,23.936a1.466,1.466,0,0,1-.673-.528c-.239-.36-.232-.231-.232-4.082V15.847l.764-.01.764-.01.023-.845a3.646,3.646,0,0,1,2.332-3.659,3.991,3.991,0,0,1,2.913,0,3.755,3.755,0,0,1,2.233,2.509,4.427,4.427,0,0,1,.1,1.15l.021.845.889.01.89.009v3.406c0,2.172-.014,3.49-.037,3.636a1.591,1.591,0,0,1-.112.375,1.573,1.573,0,0,1-.652.623l-.223.1L18.58,24C14.312,24.005,14.17,24,13.984,23.936ZM22.835,23a.3.3,0,0,0,.128-.127c.028-.062.04-.961.04-3.07V16.816H14.085l.009,3.041L14.1,22.9l.085.068c.082.067.2.069,4.322.069,3.028,0,4.262-.011,4.324-.04ZM21.2,15.027a2.7,2.7,0,0,0-.113-1.1,2.676,2.676,0,0,0-.688-1.079,2.8,2.8,0,0,0-3.957,0,2.679,2.679,0,0,0-.688,1.079,2.727,2.727,0,0,0-.113,1.1l-.013.818H21.21Z" class="aw-theme-iconOutline" fill="#464646"/>
    <path id="path825" d="M18.113,21.086v-.441l-.155-.064a1.242,1.242,0,0,1-.31-.212,1.171,1.171,0,0,1,.384-1.9.917.917,0,0,1,.477-.086.955.955,0,0,1,.522.1,1.211,1.211,0,0,1,.643,1.474,1.259,1.259,0,0,1-.573.621l-.2.1v.854h-.791Zm.642-1.193a.393.393,0,0,0,.185-.377.422.422,0,0,0-.823-.092.434.434,0,0,0,.128.446A.555.555,0,0,0,18.755,19.893Z" class="aw-theme-iconOutline" fill="#464646"/>
    <path id="rect828-1" d="M2,6.027v8H13.658a5.04,5.04,0,0,1,.319-1H3v-6H18v3.018a4.779,4.779,0,0,1,.586-.039c.138,0,.276.007.414.019v-4Z" class="aw-theme-iconOutline" fill="#464646"/>
  </g>
</svg>
