<svg id="Layer_1" data-name="Layer 1" xmlns="http://www.w3.org/2000/svg" viewBox="0 0 24 24">
  <g id="g832">
    <path id="path821" d="M12,0A12,12,0,0,0,2.186,5.119H3.43A11.094,11.094,0,1,1,2.215,7H1.107A11.99,11.99,0,1,0,12,0Z" class="aw-theme-iconOutline" fill="#464646"/>
    <path id="rect839" d="M1.9,1.774l1-.06L3.14,5.707l-1,.06Z" class="aw-theme-iconOutline" fill="#464646"/>
    <path id="rect841" d="M2.109,4.792,6.1,4.553l.059,1-3.992.239Z" class="aw-theme-iconOutline" fill="#464646"/>
    <path id="path843" d="M12,4.5A7.514,7.514,0,1,0,18.869,9H17.764a6.509,6.509,0,1,1-1.545-1.941h1.416A7.5,7.5,0,0,0,12,4.5Z" class="aw-theme-iconOutline" fill="#464646"/>
    <path id="rect839-4" d="M17.774,4l-1-.012-.049,4,1,.012Z" class="aw-theme-iconOutline" fill="#464646"/>
    <path id="rect841-5" d="M17.706,7h-4V8h4Z" class="aw-theme-iconOutline" fill="#464646"/>
  </g>
</svg>
