<svg id="Artwork" xmlns="http://www.w3.org/2000/svg" viewBox="0 0 24 24">
  <g id="g893">
    <path id="rect828-1-9" d="M0,0V6H14V0ZM1,1H13V5H1Z" class="aw-theme-iconOutline" fill="#464646"/>
    <path id="path839-1-2-8-4" d="M5.627,2.5a.5.5,0,1,1-.5.5A.5.5,0,0,1,5.627,2.5Z" class="aw-theme-iconOutline" fill="#464646"/>
    <path id="path837-1-2-26-72" d="M3.789,2.5a.5.5,0,1,1-.5.5A.5.5,0,0,1,3.789,2.5Z" class="aw-theme-iconOutline" fill="#464646"/>
    <path id="path839-2-4-1-9-4" d="M7.466,2.5a.5.5,0,1,1-.5.5A.5.5,0,0,1,7.466,2.5Z" class="aw-theme-iconOutline" fill="#464646"/>
    <path id="path837-1-2-2-5-9" d="M1.95,2.5a.5.5,0,1,1-.5.5A.5.5,0,0,1,1.95,2.5Z" class="aw-theme-iconOutline" fill="#464646"/>
    <path id="path837-1-2-26-1-7" d="M11.143,2.5a.5.5,0,1,1-.5.5A.5.5,0,0,1,11.143,2.5Z" class="aw-theme-iconOutline" fill="#464646"/>
    <path id="path837-1-2-2-5-5-5" d="M9.3,2.5a.5.5,0,1,1-.5.5A.5.5,0,0,1,9.3,2.5Z" class="aw-theme-iconOutline" fill="#464646"/>
    <path id="path839-1-2-8-7-9" d="M6.527,1.4a.5.5,0,1,1-.5.5A.5.5,0,0,1,6.527,1.4Z" class="aw-theme-iconOutline" fill="#464646"/>
    <path id="path837-1-2-26-7-2" d="M4.689,1.4a.5.5,0,1,1-.5.5A.5.5,0,0,1,4.689,1.4Z" class="aw-theme-iconOutline" fill="#464646"/>
    <path id="path839-2-4-1-9-3-97" d="M8.366,1.4a.5.5,0,1,1-.5.5A.5.5,0,0,1,8.366,1.4Z" class="aw-theme-iconOutline" fill="#464646"/>
    <path id="path837-1-2-2-5-6-5" d="M2.85,1.4a.5.5,0,1,1-.5.5A.5.5,0,0,1,2.85,1.4Z" class="aw-theme-iconOutline" fill="#464646"/>
    <path id="path837-1-2-26-1-5-7" d="M12.043,1.4a.5.5,0,1,1-.5.5A.5.5,0,0,1,12.043,1.4Z" class="aw-theme-iconOutline" fill="#464646"/>
    <path id="path837-1-2-2-5-5-8-4" d="M10.2,1.4a.5.5,0,1,1-.5.5A.5.5,0,0,1,10.2,1.4Z" class="aw-theme-iconOutline" fill="#464646"/>
    <path id="path839-1-2-8-7-8-2" d="M6.527,3.6a.5.5,0,1,1-.5.5A.5.5,0,0,1,6.527,3.6Z" class="aw-theme-iconOutline" fill="#464646"/>
    <path id="path837-1-2-26-7-3-7" d="M4.689,3.6a.5.5,0,1,1-.5.5A.5.5,0,0,1,4.689,3.6Z" class="aw-theme-iconOutline" fill="#464646"/>
    <path id="path839-2-4-1-9-3-9-9" d="M8.366,3.6a.5.5,0,1,1-.5.5A.5.5,0,0,1,8.366,3.6Z" class="aw-theme-iconOutline" fill="#464646"/>
    <path id="path837-1-2-2-5-6-7-7" d="M2.85,3.6a.5.5,0,1,1-.5.5A.5.5,0,0,1,2.85,3.6Z" class="aw-theme-iconOutline" fill="#464646"/>
    <path id="path837-1-2-26-1-5-4-5" d="M12.043,3.6a.5.5,0,1,1-.5.5A.5.5,0,0,1,12.043,3.6Z" class="aw-theme-iconOutline" fill="#464646"/>
    <path id="path837-1-2-2-5-5-8-6-4" d="M10.2,3.6a.5.5,0,1,1-.5.5A.5.5,0,0,1,10.2,3.6Z" class="aw-theme-iconOutline" fill="#464646"/>
    <path id="path2-4-2" d="M17.459,22.471a2.677,2.677,0,1,1,2.677-2.677h0A2.677,2.677,0,0,1,17.459,22.471Zm0-4.589a1.912,1.912,0,1,0,1.912,1.912h0A1.912,1.912,0,0,0,17.459,17.882Z" class="aw-theme-iconOutline" fill="#464646"/>
    <path id="path4-9-5" d="M17.459,24a7.375,7.375,0,0,1-6.451-4.029.382.382,0,0,1,0-.368,7.384,7.384,0,0,1,6.451-4.015,7.385,7.385,0,0,1,6.455,4.022.382.382,0,0,1,0,.368A7.385,7.385,0,0,1,17.459,24Zm-5.678-4.213a6.589,6.589,0,0,0,5.678,3.448,6.6,6.6,0,0,0,5.68-3.441,6.6,6.6,0,0,0-5.68-3.441A6.6,6.6,0,0,0,11.781,19.787Z" class="aw-theme-iconOutline" fill="#464646"/>
    <path id="rect1051" d="M1,6.915h.986V20H1Z" class="aw-theme-iconOutline" fill="#464646"/>
    <path id="path4-4-4-6-7-6-7" d="M3.258,22.019l1.977-2L1.986,20l-.019-1.043H5.192L3.258,17.036l.627-.677L6.623,19c.1.1.311.319.311.519A.78.78,0,0,1,6.676,20L3.885,22.718Z" class="aw-theme-iconOutline" fill="#464646"/>
    <path id="rect828-1-6" d="M8,16v6h3.51a8.7,8.7,0,0,1-.766-1H9V17h2.939a8.5,8.5,0,0,1,1.26-1Z" class="aw-theme-iconOutline" fill="#464646"/>
    <path id="path837-1-2-2-5-67" d="M9.95,18.5a.5.5,0,1,1-.5.5A.5.5,0,0,1,9.95,18.5Z" class="aw-theme-iconOutline" fill="#464646"/>
    <path id="path837-1-2-2-5-6-6" d="M10.85,17.4a.5.5,0,1,1-.5.5A.5.5,0,0,1,10.85,17.4Z" class="aw-theme-iconOutline" fill="#464646"/>
    <path id="rect828-1-2" d="M8,8v6H18.5V8ZM9,9h8.5v4H9Z" class="aw-theme-iconOutline" fill="#464646"/>
    <path id="path839-1-2-8-9" d="M13.627,10.5a.5.5,0,1,1-.5.5A.5.5,0,0,1,13.627,10.5Z" class="aw-theme-iconOutline" fill="#464646"/>
    <path id="path837-1-2-26-0" d="M11.789,10.5a.5.5,0,1,1-.5.5A.5.5,0,0,1,11.789,10.5Z" class="aw-theme-iconOutline" fill="#464646"/>
    <path id="path839-2-4-1-9-31" d="M15.466,10.5a.5.5,0,1,1-.5.5A.5.5,0,0,1,15.466,10.5Z" class="aw-theme-iconOutline" fill="#464646"/>
    <path id="path837-1-2-2-5-674" d="M9.95,10.5a.5.5,0,1,1-.5.5A.5.5,0,0,1,9.95,10.5Z" class="aw-theme-iconOutline" fill="#464646"/>
    <path id="path839-1-2-8-7-6" d="M14.527,9.4a.5.5,0,1,1-.5.5A.5.5,0,0,1,14.527,9.4Z" class="aw-theme-iconOutline" fill="#464646"/>
    <path id="path837-1-2-26-7-1" d="M12.689,9.4a.5.5,0,1,1-.5.5A.5.5,0,0,1,12.689,9.4Z" class="aw-theme-iconOutline" fill="#464646"/>
    <path id="path839-2-4-1-9-3-8" d="M16.366,9.4a.5.5,0,1,1-.5.5A.5.5,0,0,1,16.366,9.4Z" class="aw-theme-iconOutline" fill="#464646"/>
    <path id="path837-1-2-2-5-6-73" d="M10.85,9.4a.5.5,0,1,1-.5.5A.5.5,0,0,1,10.85,9.4Z" class="aw-theme-iconOutline" fill="#464646"/>
    <path id="path839-1-2-8-7-8-4" d="M14.527,11.6a.5.5,0,1,1-.5.5A.5.5,0,0,1,14.527,11.6Z" class="aw-theme-iconOutline" fill="#464646"/>
    <path id="path837-1-2-26-7-3-0" d="M12.689,11.6a.5.5,0,1,1-.5.5A.5.5,0,0,1,12.689,11.6Z" class="aw-theme-iconOutline" fill="#464646"/>
    <path id="path839-2-4-1-9-3-9-3" d="M16.366,11.6a.5.5,0,1,1-.5.5A.5.5,0,0,1,16.366,11.6Z" class="aw-theme-iconOutline" fill="#464646"/>
    <path id="path837-1-2-2-5-6-7-98" d="M10.85,11.6a.5.5,0,1,1-.5.5A.5.5,0,0,1,10.85,11.6Z" class="aw-theme-iconOutline" fill="#464646"/>
    <path id="path4-4-4-6-7-6-7-84" d="M3.234,13.5l1.977-2-3.249-.02-.019-1.043H5.168L3.234,8.516l.627-.678L6.6,10.481c.1.1.312.319.312.519a.785.785,0,0,1-.258.481L3.861,14.2Z" class="aw-theme-iconOutline" fill="#464646"/>
  </g>
</svg>
