<svg id="Artwork" xmlns="http://www.w3.org/2000/svg" viewBox="0 0 24 24">
  <g id="g903">
    <path id="path870" d="M14.187,23.917a1.845,1.845,0,0,1-.328-.142,1.624,1.624,0,0,1-.523-.61l-.1-.2-.009-3.586-.01-3.587H23.973v3.559c0,3.518,0,3.56-.075,3.758a1.546,1.546,0,0,1-.71.746l-.238.117-4.28.007a32.916,32.916,0,0,1-4.483-.058Zm8.635-1.081c.071-.071.072-.12.072-3.021V16.867H14.3v5.864l.088.088.088.088h4.137C22.7,22.907,22.751,22.907,22.822,22.836Z" class="aw-theme-iconOutline" fill="#464646"/>
    <path id="path872" d="M8.342,14.928a3.819,3.819,0,0,1,.111-1.206,3.708,3.708,0,0,1,2.979-2.7,4.709,4.709,0,0,1,1.521.072,3.8,3.8,0,0,1,2.632,2.69,4,4,0,0,1,.109,1.185l.017.836h-.943v-.7a3.285,3.285,0,0,0-.194-1.422,2.8,2.8,0,0,0-2.548-1.762,2.572,2.572,0,0,0-1.955.845,1.975,1.975,0,0,0-.51.7,2.952,2.952,0,0,0-.319,1.588l-.021.746h-.9Z" class="aw-theme-iconOutline" fill="#464646"/>
    <path id="path874" d="M18.22,21.027v-.443l-.137-.06a1.119,1.119,0,0,1-.584-1.4,1.363,1.363,0,0,1,.583-.659.811.811,0,0,1,.533-.106.967.967,0,0,1,.818.316,1.157,1.157,0,0,1,.277,1.309,1.357,1.357,0,0,1-.573.557l-.162.079v.848H18.22Zm.59-1.154a.365.365,0,0,0,.237-.384.428.428,0,0,0-.852-.043A.418.418,0,0,0,18.81,19.873Z" class="aw-theme-iconOutline" fill="#464646"/>
    <path id="rect828-1" d="M2.1,5.981v8H7.446a4.432,4.432,0,0,1,.259-1H3.1v-6h15v6H16.409a4.372,4.372,0,0,1,.255,1H19.1v-8Z" class="aw-theme-iconOutline" fill="#464646"/>
    <path id="path843-8-9-53" d="M6.605,10.543a.5.5,0,1,0,.5-.5A.5.5,0,0,0,6.605,10.543Z" class="aw-theme-iconOutline" fill="#464646"/>
    <path id="path841-5-6-1" d="M5.105,10.043a.5.5,0,1,1-.5.5A.5.5,0,0,1,5.105,10.043Z" class="aw-theme-iconOutline" fill="#464646"/>
    <path id="path839-1-2-8" d="M8.105,8.932a.5.5,0,1,1-.5.5A.5.5,0,0,1,8.105,8.932Z" class="aw-theme-iconOutline" fill="#464646"/>
    <path id="path837-1-2-26" d="M6.105,8.932a.5.5,0,1,1-.5.5A.5.5,0,0,1,6.105,8.932Z" class="aw-theme-iconOutline" fill="#464646"/>
    <path id="path839-2-4-1-9" d="M10.105,8.932a.5.5,0,1,1-.5.5A.5.5,0,0,1,10.105,8.932Z" class="aw-theme-iconOutline" fill="#464646"/>
    <path id="path843-3-3-5-7" d="M8.58,10.543a.5.5,0,1,0,.5-.5A.5.5,0,0,0,8.58,10.543Z" class="aw-theme-iconOutline" fill="#464646"/>
    <path id="path837-1-2-2-5" d="M4.412,8.932a.5.5,0,1,1-.5.5A.5.5,0,0,1,4.412,8.932Z" class="aw-theme-iconOutline" fill="#464646"/>
    <path id="path843-8-9-53-0" d="M14.043,10.543a.5.5,0,1,0,.5-.5A.5.5,0,0,0,14.043,10.543Z" class="aw-theme-iconOutline" fill="#464646"/>
    <path id="path837-1-2-26-1" d="M13.605,8.932a.5.5,0,1,1-.5.5A.5.5,0,0,1,13.605,8.932Z" class="aw-theme-iconOutline" fill="#464646"/>
    <path id="path837-1-2-2-5-5" d="M11.913,8.932a.5.5,0,1,1-.5.5A.5.5,0,0,1,11.913,8.932Z" class="aw-theme-iconOutline" fill="#464646"/>
    <path id="path843-8-9-53-2" d="M6.6,8.324a.5.5,0,1,0,.5-.5A.5.5,0,0,0,6.6,8.324Z" class="aw-theme-iconOutline" fill="#464646"/>
    <path id="path841-5-6-1-0" d="M5.1,7.824a.5.5,0,1,1-.5.5A.5.5,0,0,1,5.1,7.824Z" class="aw-theme-iconOutline" fill="#464646"/>
    <path id="path843-3-3-5-7-9" d="M8.575,8.324a.5.5,0,1,0,.5-.5A.5.5,0,0,0,8.575,8.324Z" class="aw-theme-iconOutline" fill="#464646"/>
    <path id="path839-2-4-2-6-9-2" d="M10.851,7.824a.5.5,0,1,1-.5.5A.5.5,0,0,1,10.851,7.824Z" class="aw-theme-iconOutline" fill="#464646"/>
    <path id="path843-8-9-53-0-4" d="M14.1,8.324a.5.5,0,1,0,.5-.5A.5.5,0,0,0,14.1,8.324Z" class="aw-theme-iconOutline" fill="#464646"/>
    <path id="path841-5-6-1-6-5" d="M12.6,7.824a.5.5,0,1,1-.5.5A.5.5,0,0,1,12.6,7.824Z" class="aw-theme-iconOutline" fill="#464646"/>
    <path id="path843-8-9-53-2-1" d="M6.012,11.793a.5.5,0,1,0,.5-.5A.5.5,0,0,0,6.012,11.793Z" class="aw-theme-iconOutline" fill="#464646"/>
    <path id="path841-5-6-1-0-0" d="M4.512,11.293a.5.5,0,1,1-.5.5A.5.5,0,0,1,4.512,11.293Z" class="aw-theme-iconOutline" fill="#464646"/>
    <path id="path841-5-6-1-6-9" d="M16.043,10.027a.5.5,0,1,1-.5.5.5.5,0,0,1,.5-.5Z" class="aw-theme-iconOutline" fill="#464646"/>
    <path id="path837-1-2-26-1-9" d="M17.105,8.916a.5.5,0,1,1-.5.5A.5.5,0,0,1,17.105,8.916Z" class="aw-theme-iconOutline" fill="#464646"/>
    <path id="path837-1-2-2-5-5-9" d="M15.413,8.916a.5.5,0,1,1-.5.5A.5.5,0,0,1,15.413,8.916Z" class="aw-theme-iconOutline" fill="#464646"/>
    <path id="path841-5-6-1-6-5-0" d="M16.256,7.84a.5.5,0,1,1-.5.5A.5.5,0,0,1,16.256,7.84Z" class="aw-theme-iconOutline" fill="#464646"/>
    <path id="path843-8-9-53-0-4-2-3" d="M16.387,11.715a.5.5,0,1,0,.5-.5A.5.5,0,0,0,16.387,11.715Z" class="aw-theme-iconOutline" fill="#464646"/>
  </g>
</svg>
