<svg id="Image" xmlns="http://www.w3.org/2000/svg" viewBox="0 0 24 24">
  <g id="g902">
    <path id="path857" d="M.9,9.765c0-.2.007-.223.087-.29s.085-.091.075-.214a6.788,6.788,0,0,1,.17-1.277,5.568,5.568,0,0,1,1.274-2.53c.351-.387.357-.536.036-.878A5.671,5.671,0,0,1,1.132,1.5,5.472,5.472,0,0,1,1.075.84.748.748,0,0,1,1.156.368a1.08,1.08,0,0,1,.2-.259l.114-.1L3.973.018a25.379,25.379,0,0,1,2.6.05A.608.608,0,0,1,6.888.4a1.832,1.832,0,0,1,.026.991,5.814,5.814,0,0,1-1.37,3.128c-.267.3-.269.308-.269.476s0,.172.269.475A5.278,5.278,0,0,1,6.632,7.387a6.261,6.261,0,0,1,.331,1.786c0,.191.008.217.093.3a.27.27,0,0,1,0,.413l-.092.091H.9Zm5.3-.792A5.013,5.013,0,0,0,4.958,6.011a1.439,1.439,0,0,1-.438-.793,1.281,1.281,0,0,1,.374-1.16A5.014,5.014,0,0,0,6.2,1.02l.02-.165H1.837V.992a5.384,5.384,0,0,0,.172.989A4.542,4.542,0,0,0,3.05,3.954a1.424,1.424,0,0,1,.41.613,1.446,1.446,0,0,1,0,.859,1.434,1.434,0,0,1-.414.617,5.057,5.057,0,0,0-1.2,2.845l-.02.249H6.215Z" class="aw-theme-iconOutline" fill="#464646"/>
    <path id="path1012" d="M12.229,23.744a5.337,5.337,0,0,1-.836-.334.4.4,0,0,1-.073-.241c0-.129.151-.321.656-.833l.656-.665.383-1.389c.21-.764.383-1.4.383-1.418,0-.048,7.913-6.9,8.057-6.972a.241.241,0,0,1,.24-.009c.06.033.594.549,1.187,1.147.837.843,1.078,1.123,1.078,1.248A40.738,40.738,0,0,1,20.613,18.3c-1.841,2.124-3.395,3.925-3.453,4-.084.111-.4.222-1.512.527l-1.406.388-.416.4c-.508.487-.54.489-1.6.128Zm1.087-.615a.468.468,0,0,0,.144-.206,1.012,1.012,0,0,0-.25-.315l-.25-.244-.311.306c-.171.168-.295.322-.277.341a3.119,3.119,0,0,0,.709.249A.462.462,0,0,0,13.316,23.129Zm1.91-.878.985-.265-1.138-1.14c-.626-.627-1.145-1.133-1.153-1.125s-.142.479-.3,1.045L13.338,21.8l.356.36a1.579,1.579,0,0,0,.452.361C14.2,22.516,14.685,22.4,15.226,22.251Zm4.825-4.324,3.108-3.619-.809-.81-.81-.809L17.9,15.865,14.268,19.04l1.3,1.3A13.684,13.684,0,0,0,16.9,21.591Z" class="aw-theme-iconOutline" fill="#464646"/>
    <path id="path839-1-2-8-5" d="M10.627,13.554a.5.5,0,1,1-.5.5A.5.5,0,0,1,10.627,13.554Z" class="aw-theme-iconOutline" fill="#464646"/>
    <path id="path837-1-2-26-9" d="M8.789,13.554a.5.5,0,1,1-.5.5A.5.5,0,0,1,8.789,13.554Z" class="aw-theme-iconOutline" fill="#464646"/>
    <path id="path839-2-4-1-9-8" d="M12.466,13.554a.5.5,0,1,1-.5.5A.5.5,0,0,1,12.466,13.554Z" class="aw-theme-iconOutline" fill="#464646"/>
    <path id="path837-1-2-2-5-62" d="M6.95,13.554a.5.5,0,1,1-.5.5A.5.5,0,0,1,6.95,13.554Z" class="aw-theme-iconOutline" fill="#464646"/>
    <path id="path837-1-2-26-1-0" d="M16.143,13.554a.5.5,0,1,1-.5.5A.5.5,0,0,1,16.143,13.554Z" class="aw-theme-iconOutline" fill="#464646"/>
    <path id="path837-1-2-2-5-5-5" d="M14.3,13.554a.5.5,0,1,1-.5.5A.5.5,0,0,1,14.3,13.554Z" class="aw-theme-iconOutline" fill="#464646"/>
    <path id="path839-1-2-8-7" d="M11.527,12.454a.5.5,0,1,1-.5.5A.5.5,0,0,1,11.527,12.454Z" class="aw-theme-iconOutline" fill="#464646"/>
    <path id="path837-1-2-26-7" d="M9.689,12.454a.5.5,0,1,1-.5.5A.5.5,0,0,1,9.689,12.454Z" class="aw-theme-iconOutline" fill="#464646"/>
    <path id="path839-2-4-1-9-3" d="M13.366,12.454a.5.5,0,1,1-.5.5A.5.5,0,0,1,13.366,12.454Z" class="aw-theme-iconOutline" fill="#464646"/>
    <path id="path837-1-2-2-5-6" d="M7.85,12.454a.5.5,0,1,1-.5.5A.5.5,0,0,1,7.85,12.454Z" class="aw-theme-iconOutline" fill="#464646"/>
    <path id="path837-1-2-26-1-5" d="M17.043,12.454a.5.5,0,1,1-.5.5A.5.5,0,0,1,17.043,12.454Z" class="aw-theme-iconOutline" fill="#464646"/>
    <path id="path837-1-2-2-5-5-8" d="M15.2,12.454a.5.5,0,1,1-.5.5A.5.5,0,0,1,15.2,12.454Z" class="aw-theme-iconOutline" fill="#464646"/>
    <path id="path839-1-2-8-7-8" d="M11.527,14.654a.5.5,0,1,1-.5.5A.5.5,0,0,1,11.527,14.654Z" class="aw-theme-iconOutline" fill="#464646"/>
    <path id="path837-1-2-26-7-3" d="M9.689,14.654a.5.5,0,1,1-.5.5A.5.5,0,0,1,9.689,14.654Z" class="aw-theme-iconOutline" fill="#464646"/>
    <path id="path839-2-4-1-9-3-9" d="M13.366,14.654a.5.5,0,1,1-.5.5A.5.5,0,0,1,13.366,14.654Z" class="aw-theme-iconOutline" fill="#464646"/>
    <path id="path837-1-2-2-5-6-7" d="M7.85,14.654a.5.5,0,1,1-.5.5A.5.5,0,0,1,7.85,14.654Z" class="aw-theme-iconOutline" fill="#464646"/>
    <path id="path837-1-2-2-5-5-8-6" d="M15.2,14.654a.5.5,0,1,1-.5.5A.5.5,0,0,1,15.2,14.654Z" class="aw-theme-iconOutline" fill="#464646"/>
    <path id="rect1341-1" d="M.407,0H7.593A.405.405,0,0,1,8,.408V.6A.406.406,0,0,1,7.593,1H.407A.406.406,0,0,1,0,.6V.408A.405.405,0,0,1,.407,0Z" class="aw-theme-iconOutline" fill="#464646"/>
    <path id="rect1341-1-5" d="M.407,9H7.593A.406.406,0,0,1,8,9.407v.186A.405.405,0,0,1,7.593,10H.407A.405.405,0,0,1,0,9.593V9.407A.406.406,0,0,1,.407,9Z" class="aw-theme-iconOutline" fill="#464646"/>
    <path id="path1394" d="M3.919,4.525c.225,0-.008-.009-.015-.084-.023-.24-.364-.479-.561-.688A3.726,3.726,0,0,1,2.365,1.9a5.4,5.4,0,0,1-.1-.586v-.04H4.047c.979,0,1.78.005,1.78.011s-.013.1-.029.209A4.26,4.26,0,0,1,5.229,3.14a3.311,3.311,0,0,1-.448.576,3.975,3.975,0,0,1-.313.327.942.942,0,0,0-.3.393v.077l-.095,0c-.2,0-.159,0-.172,0Z" class="aw-theme-iconOutline" fill="#464646"/>
    <path id="path1413" d="M4.157,4.036c0,.1,0,.2,0,.3v.293c0,.1,0,.2,0,.293s-.023.195-.028.294a2.208,2.208,0,0,0,0,.244,1.383,1.383,0,0,0,.031.209,1.131,1.131,0,0,1,.048.241c.006.078.007.157.008.236s0,.165,0,.247,0,.17,0,.255a1.274,1.274,0,0,1-.1.4.544.544,0,0,0-.025.183.755.755,0,0,0,.044.2c.015.063.032.125.048.188a1.065,1.065,0,0,1,.029.207c0,.076,0,.152,0,.229v.924L3.973,9.2h0V8.8c0-.089,0-.177,0-.266s0-.17,0-.255,0-.149,0-.224a.917.917,0,0,0-.025-.192c-.015-.062-.032-.123-.047-.185a.992.992,0,0,1-.05-.218.735.735,0,0,1,.018-.211,1.1,1.1,0,0,0,.06-.17.922.922,0,0,0,.043-.209c0-.083,0-.167,0-.251V6.374c0-.077,0-.153-.006-.229a.92.92,0,0,0-.045-.23,1.568,1.568,0,0,1-.034-.221,1.987,1.987,0,0,1,0-.256c0-.1.014-.2.028-.3s0-.191,0-.286V4.563c0-.1,0-.2,0-.3l.238-.226Z" class="aw-theme-iconOutline" fill="#464646"/>
    <path id="rect828-1-9-0" d="M5,11.054v6h8.961l1.164-1H6v-4H18v1.531l.973-.836.006-.82c0-.185,0,.618,0,.813L19,12.728V11.054Z" class="aw-theme-iconOutline" fill="#464646"/>
  </g>
</svg>
