<svg id="Image" xmlns="http://www.w3.org/2000/svg" viewBox="0 0 24 24">
  <g id="g860">
    <path id="path835" d="M11.324,9.827A4.027,4.027,0,0,1,8.138,6.585a5.231,5.231,0,0,1,0-1.4,4.034,4.034,0,0,1,2.451-3.015l.3-.12.009-.314L10.9,1.42h-.176a.29.29,0,0,1-.282-.107.3.3,0,0,1-.058-.4c.094-.181.121-.184,1.7-.184,1.549,0,1.556,0,1.669.163a.432.432,0,0,1,.049.207.247.247,0,0,1-.1.227.3.3,0,0,1-.266.091h-.168v.646l.133.039a4.9,4.9,0,0,1,1.2.674c.032.023.15-.076.488-.411a6.012,6.012,0,0,1,.519-.479.359.359,0,0,1,.451.242c.038.16-.034.268-.477.71-.241.24-.438.447-.438.459a1.974,1.974,0,0,0,.165.253,4.209,4.209,0,0,1,.693,1.66,4.93,4.93,0,0,1,0,1.351A4.018,4.018,0,0,1,12.8,9.829,4.654,4.654,0,0,1,11.324,9.827Zm1.484-1a3.041,3.041,0,0,0,2.221-2.392,4.032,4.032,0,0,0,0-1.064,3.046,3.046,0,0,0-2.2-2.39,3.637,3.637,0,0,0-1.2-.065A3.059,3.059,0,0,0,9.145,5.165,4.02,4.02,0,0,0,9.13,6.587a3.045,3.045,0,0,0,2.408,2.288A3.675,3.675,0,0,0,12.808,8.828ZM12.589,1.65V1.42h-1v.459h1Z" class="aw-theme-iconOutline" fill="#464646"/>
    <path id="path833" d="M11.87,6.378a.337.337,0,0,1-.091-.07c-.025-.029-.292-.485-.593-1.014a7.917,7.917,0,0,1-.558-1.051.3.3,0,0,1,.166-.3.275.275,0,0,1,.22-.057.252.252,0,0,1,.173.062c.031.03.31.5.619,1.04.614,1.08.615,1.082.511,1.236A.4.4,0,0,1,11.87,6.378Z" class="aw-theme-iconOutline" fill="#464646"/>
    <path id="path1012" d="M12.229,23.69a5.447,5.447,0,0,1-.836-.334.4.4,0,0,1-.073-.241c0-.129.151-.321.656-.833l.656-.665.383-1.389c.21-.764.383-1.4.383-1.419,0-.047,7.913-6.894,8.057-6.971a.241.241,0,0,1,.24-.009c.06.033.594.549,1.187,1.146.837.844,1.078,1.123,1.078,1.249a40.738,40.738,0,0,1-3.347,4.023c-1.841,2.124-3.395,3.925-3.453,4-.084.11-.4.222-1.512.527l-1.406.387-.416.4c-.508.487-.54.489-1.6.128Zm1.087-.615a.464.464,0,0,0,.144-.207,1.025,1.025,0,0,0-.25-.314l-.25-.245-.311.307c-.171.168-.295.321-.277.341a3.119,3.119,0,0,0,.709.249A.462.462,0,0,0,13.316,23.075Zm1.91-.878.985-.266-1.138-1.139c-.626-.627-1.145-1.133-1.153-1.125s-.142.478-.3,1.045l-.284,1.029.356.36a1.579,1.579,0,0,0,.452.361C14.2,22.462,14.685,22.343,15.226,22.2Zm4.825-4.324,3.108-3.619-.809-.81-.81-.81L17.9,15.81l-3.636,3.176,1.3,1.3A13.837,13.837,0,0,0,16.9,21.537Z" class="aw-theme-iconOutline" fill="#464646"/>
    <path id="path839-1-2-8-5" d="M10.627,13.5a.5.5,0,1,1-.5.5A.5.5,0,0,1,10.627,13.5Z" class="aw-theme-iconOutline" fill="#464646"/>
    <path id="path837-1-2-26-9" d="M8.789,13.5a.5.5,0,1,1-.5.5A.5.5,0,0,1,8.789,13.5Z" class="aw-theme-iconOutline" fill="#464646"/>
    <path id="path839-2-4-1-9-8" d="M12.466,13.5a.5.5,0,1,1-.5.5A.5.5,0,0,1,12.466,13.5Z" class="aw-theme-iconOutline" fill="#464646"/>
    <path id="path837-1-2-2-5-62" d="M6.95,13.5a.5.5,0,1,1-.5.5A.5.5,0,0,1,6.95,13.5Z" class="aw-theme-iconOutline" fill="#464646"/>
    <path id="path837-1-2-26-1-0" d="M16.143,13.5a.5.5,0,1,1-.5.5A.5.5,0,0,1,16.143,13.5Z" class="aw-theme-iconOutline" fill="#464646"/>
    <path id="path837-1-2-2-5-5-5" d="M14.3,13.5a.5.5,0,1,1-.5.5A.5.5,0,0,1,14.3,13.5Z" class="aw-theme-iconOutline" fill="#464646"/>
    <path id="path839-1-2-8-7" d="M11.527,12.4a.5.5,0,1,1-.5.5A.5.5,0,0,1,11.527,12.4Z" class="aw-theme-iconOutline" fill="#464646"/>
    <path id="path837-1-2-26-7" d="M9.689,12.4a.5.5,0,1,1-.5.5A.5.5,0,0,1,9.689,12.4Z" class="aw-theme-iconOutline" fill="#464646"/>
    <path id="path839-2-4-1-9-3" d="M13.366,12.4a.5.5,0,1,1-.5.5A.5.5,0,0,1,13.366,12.4Z" class="aw-theme-iconOutline" fill="#464646"/>
    <path id="path837-1-2-2-5-6" d="M7.85,12.4a.5.5,0,1,1-.5.5A.5.5,0,0,1,7.85,12.4Z" class="aw-theme-iconOutline" fill="#464646"/>
    <path id="path837-1-2-26-1-5" d="M17.043,12.4a.5.5,0,1,1-.5.5A.5.5,0,0,1,17.043,12.4Z" class="aw-theme-iconOutline" fill="#464646"/>
    <path id="path837-1-2-2-5-5-8" d="M15.2,12.4a.5.5,0,1,1-.5.5A.5.5,0,0,1,15.2,12.4Z" class="aw-theme-iconOutline" fill="#464646"/>
    <path id="path839-1-2-8-7-8" d="M11.527,14.6a.5.5,0,1,1-.5.5A.5.5,0,0,1,11.527,14.6Z" class="aw-theme-iconOutline" fill="#464646"/>
    <path id="path837-1-2-26-7-3" d="M9.689,14.6a.5.5,0,1,1-.5.5A.5.5,0,0,1,9.689,14.6Z" class="aw-theme-iconOutline" fill="#464646"/>
    <path id="path839-2-4-1-9-3-9" d="M13.366,14.6a.5.5,0,1,1-.5.5A.5.5,0,0,1,13.366,14.6Z" class="aw-theme-iconOutline" fill="#464646"/>
    <path id="path837-1-2-2-5-6-7" d="M7.85,14.6a.5.5,0,1,1-.5.5A.5.5,0,0,1,7.85,14.6Z" class="aw-theme-iconOutline" fill="#464646"/>
    <path id="path837-1-2-2-5-5-8-6" d="M15.2,14.6a.5.5,0,1,1-.5.5A.5.5,0,0,1,15.2,14.6Z" class="aw-theme-iconOutline" fill="#464646"/>
    <path id="rect828-1-9-0" d="M5,11v6h8.961l1.164-1H6V12H18v1.531l.973-.836.006-.82c0-.185,0,.618,0,.813L19,12.674V11Z" class="aw-theme-iconOutline" fill="#464646"/>
  </g>
</svg>
