<svg id="Layer_1" data-name="Layer 1" xmlns="http://www.w3.org/2000/svg" viewBox="0 0 24 24">
  <g id="g1009">
    <path id="path988" d="M13.3,18.964A16.042,16.042,0,0,1,7.9,17.6l-.461-.2-.41,0a11.619,11.619,0,0,0-3.106.705,2.82,2.82,0,0,1-.956.174,1.23,1.23,0,0,1-.537-.076,1.813,1.813,0,0,1-.99-.926c-.037-.085-.145-.492-.24-.9a4.3,4.3,0,0,1-.172-1.092,1.845,1.845,0,0,1,.6-1.41,1.767,1.767,0,0,1,.383-.269c.1-.048.616-.193,1.136-.324a16.428,16.428,0,0,0,2.156-.635,7.9,7.9,0,0,1,2.979-.7l.469,0V7.1H22.718v5.278l.158.131a1.879,1.879,0,0,1,.392,2.179,2.756,2.756,0,0,1-1,1.05A12.976,12.976,0,0,1,19.382,17.5a21.272,21.272,0,0,1-2.843,1.222,5.677,5.677,0,0,1-2.065.242c-.564.006-1.094,0-1.178,0Zm2.313-1.022a10.219,10.219,0,0,0,2.774-1.048,14.635,14.635,0,0,0,2.15-1.11,16.21,16.21,0,0,0,1.631-1.215.906.906,0,0,0,.11-1.264c-.12-.129-.145-.141-.3-.138a.741.741,0,0,0-.3.072c-.073.039-.656.424-1.294.856A10.5,10.5,0,0,1,18.5,15.218l-.717.338-.022.221a1.917,1.917,0,0,1-1.289,1.571,1.717,1.717,0,0,1-.515.069c-.39,0-3.082-.385-3.4-.486-.132-.042-.788-.35-1.46-.683-1.344-.669-1.356-.678-1.356-.98a.472.472,0,0,1,.489-.482,6.936,6.936,0,0,1,1.258.567c.626.313,1.221.6,1.322.632s.853.159,1.668.275a6.182,6.182,0,0,0,1.641.17.886.886,0,0,0,.541-.412c.208-.346.175-.719-.075-.863a13.2,13.2,0,0,0-1.69-.281l-1.587-.222L12,14a8.874,8.874,0,0,0-2.21-.9,4.748,4.748,0,0,0-1.426-.174,5.935,5.935,0,0,0-2.475.546,16.729,16.729,0,0,1-2.369.72c-.56.14-1.062.277-1.114.3A.945.945,0,0,0,2,15.287a13.273,13.273,0,0,0,.327,1.554.835.835,0,0,0,.411.438c.167.064.384.031,1.124-.174a16.693,16.693,0,0,1,2.892-.682,2.45,2.45,0,0,1,1.484.261,15.706,15.706,0,0,0,4.584,1.257A19.226,19.226,0,0,0,15.609,17.942Zm2.471-3.6a8.179,8.179,0,0,0,1.316-.759l.723-.485L18.2,13.087c-1.058,0-2.8,0-3.872,0l-1.948.009.6.3.6.3,1.539.215c.846.119,1.607.24,1.691.27a1.423,1.423,0,0,1,.528.323.447.447,0,0,0,.125.105C17.477,14.615,17.755,14.491,18.08,14.34Zm3.682-4.265V8.06H9.745v4.029H21.762Z" class="aw-theme-iconOutline" fill="#464646"/>
    <path id="path839-1-2-8-4" d="M14.373,9.589a.5.5,0,1,1-.5.5A.5.5,0,0,1,14.373,9.589Z" class="aw-theme-iconOutline" fill="#464646"/>
    <path id="path837-1-2-26-72" d="M12.535,9.589a.5.5,0,1,1-.5.5A.5.5,0,0,1,12.535,9.589Z" class="aw-theme-iconOutline" fill="#464646"/>
    <path id="path839-2-4-1-9-4" d="M16.212,9.589a.5.5,0,1,1-.5.5A.5.5,0,0,1,16.212,9.589Z" class="aw-theme-iconOutline" fill="#464646"/>
    <path id="path837-1-2-2-5-9" d="M10.7,9.589a.5.5,0,1,1-.5.5A.5.5,0,0,1,10.7,9.589Z" class="aw-theme-iconOutline" fill="#464646"/>
    <path id="path837-1-2-26-1-7" d="M19.889,9.589a.5.5,0,1,1-.5.5A.5.5,0,0,1,19.889,9.589Z" class="aw-theme-iconOutline" fill="#464646"/>
    <path id="path837-1-2-2-5-5-5-5" d="M18.05,9.589a.5.5,0,1,1-.5.5A.5.5,0,0,1,18.05,9.589Z" class="aw-theme-iconOutline" fill="#464646"/>
    <path id="path839-1-2-8-7-9" d="M15.273,8.489a.5.5,0,1,1-.5.5A.5.5,0,0,1,15.273,8.489Z" class="aw-theme-iconOutline" fill="#464646"/>
    <path id="path837-1-2-26-7-2" d="M13.435,8.489a.5.5,0,1,1-.5.5A.5.5,0,0,1,13.435,8.489Z" class="aw-theme-iconOutline" fill="#464646"/>
    <path id="path839-2-4-1-9-3-97" d="M17.112,8.489a.5.5,0,1,1-.5.5A.5.5,0,0,1,17.112,8.489Z" class="aw-theme-iconOutline" fill="#464646"/>
    <path id="path837-1-2-2-5-6-5" d="M11.6,8.489a.5.5,0,1,1-.5.5A.5.5,0,0,1,11.6,8.489Z" class="aw-theme-iconOutline" fill="#464646"/>
    <path id="path837-1-2-26-1-5-7" d="M20.789,8.489a.5.5,0,1,1-.5.5A.5.5,0,0,1,20.789,8.489Z" class="aw-theme-iconOutline" fill="#464646"/>
    <path id="path837-1-2-2-5-5-8-4-4" d="M18.95,8.489a.5.5,0,1,1-.5.5A.5.5,0,0,1,18.95,8.489Z" class="aw-theme-iconOutline" fill="#464646"/>
    <path id="path839-1-2-8-7-8-2" d="M15.273,10.689a.5.5,0,1,1-.5.5A.5.5,0,0,1,15.273,10.689Z" class="aw-theme-iconOutline" fill="#464646"/>
    <path id="path837-1-2-26-7-3-7" d="M13.435,10.689a.5.5,0,1,1-.5.5A.5.5,0,0,1,13.435,10.689Z" class="aw-theme-iconOutline" fill="#464646"/>
    <path id="path839-2-4-1-9-3-9-9" d="M17.112,10.689a.5.5,0,1,1-.5.5A.5.5,0,0,1,17.112,10.689Z" class="aw-theme-iconOutline" fill="#464646"/>
    <path id="path837-1-2-2-5-6-7-7" d="M11.6,10.689a.5.5,0,1,1-.5.5A.5.5,0,0,1,11.6,10.689Z" class="aw-theme-iconOutline" fill="#464646"/>
    <path id="path837-1-2-26-1-5-4-5" d="M20.789,10.689a.5.5,0,1,1-.5.5A.5.5,0,0,1,20.789,10.689Z" class="aw-theme-iconOutline" fill="#464646"/>
    <path id="path837-1-2-2-5-5-8-6-4" d="M18.95,10.689a.5.5,0,1,1-.5.5A.5.5,0,0,1,18.95,10.689Z" class="aw-theme-iconOutline" fill="#464646"/>
  </g>
</svg>
