<svg id="Layer_1" data-name="Layer 1" xmlns="http://www.w3.org/2000/svg" viewBox="0 0 24 24">
  <g id="g841">
    <path id="path2" d="M11.7,0H0V21H11V20H1V1H11V6h5v5.2h1V5.3ZM12,1.7,15.3,5H12Z" class="aw-theme-iconOutline" fill="#464646"/>
    <path id="polygon4" d="M3.4,11.8,2.6,11,6.5,7.2l3,2.5,3.265-2.675.6.8L9.5,11.1l-3-2.5Z" class="aw-theme-iconOutline" fill="#464646"/>
    <path id="path6" d="M6,19H2V15H6ZM3,18H5V16H3Z" class="aw-theme-iconOutline" fill="#464646"/>
    <path id="polygon8" d="M10,19H7V12h3v1H8v5h2Z" class="aw-theme-iconOutline" fill="#464646"/>
    <path id="rect4" d="M16.286,18.857h3.428v.857H16.286Z" class="aw-theme-iconOutline" fill="#464646"/>
    <path id="rect6" d="M16.286,20.571h3.428v.858H16.286Z" class="aw-theme-iconOutline" fill="#464646"/>
    <path id="path8-3" d="M21.171,12H12V24H24V14.829Zm-4.885.857H18v1.714h.857V12.857h.857v2.572H16.286Zm5.143,10.286H14.571V18.429A.4.4,0,0,1,14.95,18,.417.417,0,0,1,15,18h6a.4.4,0,0,1,.429.379.417.417,0,0,1,0,.05Zm1.714,0h-.857V18.429A1.318,1.318,0,0,0,21,17.143H15a1.318,1.318,0,0,0-1.286,1.286v4.714h-.857V12.857h2.572v3.429h5.142V12.857h.258l2.314,2.314Z" class="aw-theme-iconOutline" fill="#464646"/>
    <path id="rect823" d="M10,12h1v7H10Z" class="aw-theme-iconOutline" fill="#464646"/>
  </g>
</svg>
