<svg id="Artwork" xmlns="http://www.w3.org/2000/svg" viewBox="0 0 24 24">
  <g id="g902">
    <path id="path839-1-2-8-6" d="M4.462,2.355a.387.387,0,1,1-.386.386.386.386,0,0,1,.386-.386Z" fill="#464646"/>
    <path id="path837-1-2-26-4" d="M3.042,2.355a.387.387,0,1,1-.386.386h0A.386.386,0,0,1,3.042,2.355Z" fill="#464646"/>
    <path id="path839-2-4-1-9-1" d="M5.882,2.355a.387.387,0,1,1-.386.386h0A.386.386,0,0,1,5.882,2.355Z" fill="#464646"/>
    <path id="path837-1-2-2-5-1" d="M1.622,2.355a.387.387,0,1,1-.386.386h0A.386.386,0,0,1,1.622,2.355Z" fill="#464646"/>
    <path id="path837-1-2-26-1-0" d="M8.722,2.355a.387.387,0,1,1-.386.386h0A.386.386,0,0,1,8.722,2.355Z" fill="#464646"/>
    <path id="path837-1-2-2-5-5-5" d="M7.3,2.355a.387.387,0,1,1-.386.386h0A.386.386,0,0,1,7.3,2.355Z" fill="#464646"/>
    <path id="path839-1-2-8-7-3" d="M5.157,1.428a.387.387,0,1,1-.386.386.386.386,0,0,1,.386-.386Z" fill="#464646"/>
    <path id="path837-1-2-26-7-7" d="M3.737,1.428a.387.387,0,1,1-.386.386.386.386,0,0,1,.386-.386Z" fill="#464646"/>
    <path id="path839-2-4-1-9-3-3" d="M6.577,1.428a.387.387,0,1,1-.386.386h0A.386.386,0,0,1,6.577,1.428Z" fill="#464646"/>
    <path id="path837-1-2-2-5-6-3" d="M2.317,1.428a.387.387,0,1,1-.386.386h0A.386.386,0,0,1,2.317,1.428Z" fill="#464646"/>
    <path id="path837-1-2-26-1-5-44" d="M9.418,1.428a.387.387,0,1,1-.387.386h0A.386.386,0,0,1,9.418,1.428Z" fill="#464646"/>
    <path id="path837-1-2-2-5-5-8-4" d="M8,1.428a.387.387,0,1,1-.387.386h0A.386.386,0,0,1,8,1.428Z" fill="#464646"/>
    <path id="path839-1-2-8-7-8-0" d="M5.157,3.282a.386.386,0,1,1-.386.386.386.386,0,0,1,.386-.386Z" fill="#464646"/>
    <path id="path837-1-2-26-7-3-0" d="M3.737,3.282a.386.386,0,1,1-.386.386h0A.386.386,0,0,1,3.737,3.282Z" fill="#464646"/>
    <path id="path839-2-4-1-9-3-9-4" d="M6.577,3.282a.386.386,0,1,1-.386.386h0A.386.386,0,0,1,6.577,3.282Z" fill="#464646"/>
    <path id="path837-1-2-2-5-6-7-5" d="M2.317,3.282a.386.386,0,1,1-.386.386h0A.386.386,0,0,1,2.317,3.282Z" fill="#464646"/>
    <path id="path837-1-2-26-1-5-4-9" d="M9.418,3.282a.386.386,0,1,1-.387.386h0A.386.386,0,0,1,9.418,3.282Z" fill="#464646"/>
    <path id="path837-1-2-2-5-5-8-6-5" d="M8,3.282a.386.386,0,1,1-.387.386h0A.386.386,0,0,1,8,3.282Z" fill="#464646"/>
    <path id="path839-1-2-8-6-8" d="M4.462,4.209a.386.386,0,1,1-.386.386.386.386,0,0,1,.386-.386Z" fill="#464646"/>
    <path id="path837-1-2-26-4-1" d="M3.042,4.209a.386.386,0,1,1-.386.386.386.386,0,0,1,.386-.386Z" fill="#464646"/>
    <path id="path839-2-4-1-9-1-3" d="M5.882,4.209A.386.386,0,1,1,5.5,4.6a.386.386,0,0,1,.386-.386Z" fill="#464646"/>
    <path id="path837-1-2-2-5-1-4" d="M1.622,4.209a.386.386,0,1,1-.386.386.386.386,0,0,1,.386-.386Z" fill="#464646"/>
    <path id="path837-1-2-26-1-0-7" d="M8.722,4.209a.386.386,0,1,1-.386.386.386.386,0,0,1,.386-.386Z" fill="#464646"/>
    <path id="path837-1-2-2-5-5-5-2" d="M7.3,4.209a.386.386,0,1,1-.386.386A.386.386,0,0,1,7.3,4.209Z" fill="#464646"/>
    <path id="path839-1-2-8-6-1" d="M11.563,2.355a.387.387,0,1,1-.387.386.386.386,0,0,1,.387-.386Z" fill="#464646"/>
    <path id="path837-1-2-26-4-11" d="M10.143,2.355a.387.387,0,1,1-.387.386h0A.386.386,0,0,1,10.143,2.355Z" fill="#464646"/>
    <path id="path837-1-2-26-7-7-8" d="M10.838,1.428a.387.387,0,1,1-.387.386.386.386,0,0,1,.387-.386Z" fill="#464646"/>
    <path id="path823" d="M12.682,3.99a3.062,3.062,0,0,0-1.125.213,2.956,2.956,0,0,0-1.635,1.66,2.914,2.914,0,0,0-.166,1.166l-.018.655-.59.007L8.557,7.7v2.688c0,2.975-.005,2.876.179,3.154a1.127,1.127,0,0,0,.52.406v0A20.623,20.623,0,0,0,12,14V13.25A17.224,17.224,0,0,1,9.416,13.2l-.064-.053L9.342,10.8,9.334,8.449h6.889v2.3c0,.17,0,.1,0,.248h.773c0-.322.008-.27.008-.67V7.7l-.687-.008-.688-.007-.016-.655a3.374,3.374,0,0,0-.078-.888A2.9,2.9,0,0,0,13.807,4.2,3.07,3.07,0,0,0,12.682,3.99Zm-.227.77a2.135,2.135,0,0,1,1.754.619,2.064,2.064,0,0,1,.533.834,2.089,2.089,0,0,1,.086.853l.01.633H10.525l.01-.633a2.135,2.135,0,0,1,.086-.853,2.066,2.066,0,0,1,.531-.834A2.128,2.128,0,0,1,12.455,4.76Z" fill="#464646"/>
    <path id="path825" d="M12.445,11.746v-.34l-.12-.05a.951.951,0,0,1-.24-.164.905.905,0,0,1,.3-1.469.72.72,0,0,1,.369-.066.725.725,0,0,1,.4.078.935.935,0,0,1,.5,1.138.976.976,0,0,1-.443.479l-.152.074v.66h-.611Zm.5-.921a.3.3,0,0,0,.143-.291.326.326,0,0,0-.636-.071.345.345,0,0,0,.1.345.431.431,0,0,0,.394.017Z" fill="#464646"/>
    <path id="rect828-1" d="M0,.115V6.294H9.005a3.876,3.876,0,0,1,.246-.772H.772V.888H12.358v2.33a3.8,3.8,0,0,1,.453-.03c.107,0,.213.006.32.015V.115Z" fill="#464646"/>
    <path id="path835" d="M11,22.309V20.618l.8-1.292.8-1.292V13.828h1.064V12.246h2.88V14.84H18.5V12.246h2.828v1.582h1.064v4.181l.805,1.263.8,1.263V24H18.5l-.006-2.368-.007-2.368h-1.92l-.006,2.368L16.553,24H11Zm4.8-.009v-.947H11.752v1.894H15.8Zm7.473,0v-.947H19.2v1.894h4.073ZM15.8,17.591V14.529H13.335V18.2l-.739,1.19c-.407.655-.74,1.2-.74,1.215a15.436,15.436,0,0,0,2.29.047l1.654.005Zm7.329,2.938c-.039-.067-.379-.618-.755-1.223l-.683-1.1V14.529H19.2v6.124h4Zm-4.675-2c.007-.008.019-.67.028-1.473l.016-1.459H16.553v2.963l.945-.009c.52,0,.95-.015.956-.022ZM15.8,13.387v-.441H14.4v.882h1.4Zm4.827,0v-.441H19.2v.882h1.427Z" fill="#464646"/>
  </g>
</svg>
