<svg id="Artwork" xmlns="http://www.w3.org/2000/svg" viewBox="0 0 24 24">
  <g id="g888">
    <path id="path814" d="M10.342,23.684c-.858-.288-.907-.308-1.01-.409a.359.359,0,0,1-.124-.373c.017-.115.043-.144.775-.882l.757-.762.46-1.664.461-1.665.109-.107c.059-.059,2.156-1.882,4.659-4.051,3.293-2.853,4.577-3.951,4.644-3.971.222-.066.174-.105,1.56,1.271.7.7,1.286,1.3,1.3,1.339a.785.785,0,0,1,.008.422c-.014.037-1.789,2.1-3.946,4.589s-3.946,4.564-3.978,4.615a.338.338,0,0,1-.131.119c-.039.016-.8.23-1.686.475l-1.615.447-.432.428C11.536,24.12,11.615,24.112,10.342,23.684Zm1.225-.806.2-.2-.313-.313-.314-.313-.19.2c-.475.5-.513.541-.475.555.149.057.806.262.848.264S11.444,23,11.567,22.878Zm2.134-.962c.647-.176,1.186-.328,1.2-.337s-.57-.606-1.289-1.325-1.313-1.3-1.319-1.3-.652,2.359-.652,2.4a11.665,11.665,0,0,0,.869.882C12.515,22.237,13.053,22.092,13.7,21.916Zm5.866-5.26L23,12.665l-.925-.926-.925-.925-.076.061c-.042.033-1.942,1.691-4.223,3.683L12.7,18.181,14.2,19.673l1.491,1.491.223-.258Z" class="aw-theme-iconOutline" fill="#464646"/>
    <path id="rect828-1-12" d="M14.985,10.081l-4.321,4.163L.952,4.161,5.273,0Zm-1.414-.026L5.247,1.412,2.366,4.187l8.325,8.643Z" class="aw-theme-iconOutline" fill="#464646"/>
    <path id="path839-1-2-8-62" d="M9.281,7.763a.5.5,0,1,0-.013.707h0A.5.5,0,0,0,9.281,7.763Z" class="aw-theme-iconOutline" fill="#464646"/>
    <path id="path837-1-2-26-78" d="M10.557,9.087a.5.5,0,1,0-.014.707.5.5,0,0,0,.014-.707Z" class="aw-theme-iconOutline" fill="#464646"/>
    <path id="path839-2-4-1-9-2" d="M8.006,6.439a.5.5,0,1,0-.014.707.5.5,0,0,0,.014-.707Z" class="aw-theme-iconOutline" fill="#464646"/>
    <path id="path837-1-2-2-5-0" d="M11.832,10.411a.5.5,0,1,0-.013.707h0A.5.5,0,0,0,11.832,10.411Z" class="aw-theme-iconOutline" fill="#464646"/>
    <path id="path837-1-2-26-1-1" d="M5.455,3.79a.5.5,0,1,0-.013.707.5.5,0,0,0,.013-.707Z" class="aw-theme-iconOutline" fill="#464646"/>
    <path id="path837-1-2-2-5-5-0" d="M6.73,5.115a.5.5,0,1,0-.013.706.5.5,0,0,0,.013-.706Z" class="aw-theme-iconOutline" fill="#464646"/>
    <path id="path839-1-2-8-7-7" d="M9.449,6.352a.5.5,0,1,0-.013.707.5.5,0,0,0,.013-.707Z" class="aw-theme-iconOutline" fill="#464646"/>
    <path id="path837-1-2-26-7-9" d="M10.725,7.676a.5.5,0,1,0-.014.707h0A.5.5,0,0,0,10.725,7.676Z" class="aw-theme-iconOutline" fill="#464646"/>
    <path id="path839-2-4-1-9-3-4" d="M8.174,5.027a.5.5,0,1,0-.014.707.5.5,0,0,0,.014-.707Z" class="aw-theme-iconOutline" fill="#464646"/>
    <path id="path837-1-2-2-5-6-2" d="M12,9a.5.5,0,1,0-.013.707A.5.5,0,0,0,12,9Z" class="aw-theme-iconOutline" fill="#464646"/>
    <path id="path837-1-2-26-1-5-442" d="M5.623,2.379a.5.5,0,1,0-.014.707h0A.5.5,0,0,0,5.623,2.379Z" class="aw-theme-iconOutline" fill="#464646"/>
    <path id="path837-1-2-2-5-5-8-66" d="M6.9,3.7a.5.5,0,1,0-.013.707A.5.5,0,0,0,6.9,3.7Z" class="aw-theme-iconOutline" fill="#464646"/>
    <path id="path839-1-2-8-7-8-8" d="M7.865,7.878a.5.5,0,1,0-.014.707.5.5,0,0,0,.014-.707Z" class="aw-theme-iconOutline" fill="#464646"/>
    <path id="path837-1-2-26-7-3-3" d="M9.14,9.2a.5.5,0,1,0-.013.707h0A.5.5,0,0,0,9.14,9.2Z" class="aw-theme-iconOutline" fill="#464646"/>
    <path id="path839-2-4-1-9-3-9-3" d="M6.589,6.554a.5.5,0,1,0-.013.707.5.5,0,0,0,.013-.707Z" class="aw-theme-iconOutline" fill="#464646"/>
    <path id="path837-1-2-2-5-6-7-9" d="M10.415,10.526a.5.5,0,1,0-.013.707h0A.5.5,0,0,0,10.415,10.526Z" class="aw-theme-iconOutline" fill="#464646"/>
    <path id="path837-1-2-26-1-5-4-0" d="M4.038,3.905a.5.5,0,1,0-.013.707h0A.5.5,0,0,0,4.038,3.905Z" class="aw-theme-iconOutline" fill="#464646"/>
    <path id="path837-1-2-2-5-5-8-6-56" d="M5.314,5.229a.5.5,0,1,0-.014.707.5.5,0,0,0,.014-.707Z" class="aw-theme-iconOutline" fill="#464646"/>
    <path id="path974" d="M2.727,23.647a3.733,3.733,0,0,1-.324-.362c0-.012.623-.614,1.385-1.337l1.386-1.315v-.972c0-.534.011-2.5.023-4.376l.022-3.4-2.2-2.43L.414,6.576l-.4-.443V5.022l.161.007.161.008,1.449,1.6c.8.881,2.115,2.334,2.929,3.229l1.479,1.627-.013,3.242c-.008,1.783-.021,3.937-.03,4.786l-.016,1.545-1.4,1.327-1.541,1.46-.14.132Z" class="aw-theme-iconOutline" fill="#464646"/>
    <path id="path976" d="M14.963,12.238v-.744l1.211-1.334c.666-.734,1.983-2.187,2.926-3.229,1.571-1.736,1.721-1.9,1.8-1.9l.086-.008V6.3l-1.3,1.442-2.529,2.788L15.93,11.876v1.106h-.966Z" class="aw-theme-iconOutline" fill="#464646"/>
    <rect id="rect978" x="2.714" y="23" width="5.299" height="1" class="aw-theme-iconOutline" fill="#464646"/>
    <rect id="rect978-7" x="11.885" y="5.037" width="9.115" height="0.892" class="aw-theme-iconOutline" fill="#464646"/>
    <rect id="rect839" x="2.403" y="23.275" width="0.852" height="0.725" class="aw-theme-iconOutline" fill="#464646"/>
  </g>
</svg>
