<svg id="Image" xmlns="http://www.w3.org/2000/svg" viewBox="0 0 24 24">
  <g id="g901">
    <path id="path866" d="M16.893,17.421V14.438h.972V20.4h-.972Z" class="aw-theme-iconOutline" fill="#464646"/>
    <path id="path868" d="M16.937,22.017v-.508h.972v1.016h-.972Z" class="aw-theme-iconOutline" fill="#464646"/>
    <path id="path860" d="M8.429,15.814c-.825-.285-.93-.333-1.018-.466-.148-.226-.072-.36.627-1.107l.644-.689L9.055,12.2c.205-.744.4-1.389.428-1.432.083-.119,1.932-1.738,5.377-4.708,2.579-2.224,2.692-2.316,2.845-2.316.121,0,.268.131,1.226,1.094.6.6,1.121,1.158,1.161,1.237.134.264.229.145-4.1,5.161-1.24,1.434-2.352,2.724-2.472,2.865a1.664,1.664,0,0,1-.376.336,18.2,18.2,0,0,1-1.97.6l-.751.207-.353.318c-.2.175-.4.351-.463.392C9.412,16.084,9.107,16.047,8.429,15.814Zm.923-.761a.292.292,0,0,0,.116-.157.824.824,0,0,0-.2-.273l-.2-.207-.221.229a1.213,1.213,0,0,0-.221.272,1.628,1.628,0,0,0,.558.225A.4.4,0,0,0,9.352,15.053Zm1.836-.886A8.767,8.767,0,0,0,12.1,13.9a21.4,21.4,0,0,0-1.878-1.937l-.156-.126-.262.953-.261.952.339.325a2.091,2.091,0,0,0,.392.326C10.3,14.394,10.711,14.292,11.188,14.167Zm4.906-4.32c1.679-1.954,3.053-3.565,3.053-3.58S18.811,5.9,18.4,5.5l-.745-.745L14.3,7.679c-3.942,3.442-3.773,3.293-3.773,3.341,0,.079,2.412,2.415,2.472,2.394C13.024,13.406,14.416,11.8,16.094,9.847Z" class="aw-theme-iconOutline" fill="#464646"/>
    <path id="path862" d="M11.975,23.936a1.647,1.647,0,0,1-1.223-1.975c.07-.33,5.165-9.145,5.459-9.448a1.553,1.553,0,0,1,1.5-.447,1.785,1.785,0,0,1,.905.56c.246.313,5.225,8.994,5.306,9.252A1.621,1.621,0,0,1,22.853,23.9c-.256.079-.5.083-5.489.078C14.492,23.977,12.067,23.957,11.975,23.936ZM22.711,23a.726.726,0,0,0,.359-.846c-.07-.21-5.037-8.836-5.178-8.992a.743.743,0,0,0-1.071,0c-.131.145-5.1,8.772-5.175,8.98a.709.709,0,0,0,.555.916c.089.017,2.459.029,5.266.025C22.215,23.078,22.581,23.073,22.711,23Z" class="aw-theme-iconOutline" fill="#464646"/>
    <path id="rect828-1-6" d="M4,8v6H7V13H5V9H9.739L11,8Z" class="aw-theme-iconOutline" fill="#464646"/>
    <path id="path837-1-2-2-5-67" d="M5.95,10.5a.5.5,0,1,1-.5.5h0A.5.5,0,0,1,5.95,10.5Z" class="aw-theme-iconOutline" fill="#464646"/>
    <path id="path837-1-2-2-5-6-6" d="M6.85,9.4a.5.5,0,1,1-.5.5.5.5,0,0,1,.5-.5Z" class="aw-theme-iconOutline" fill="#464646"/>
    <path id="path837-1-2-26-0-9" d="M7.789,10.5a.5.5,0,1,1-.5.5.5.5,0,0,1,.5-.5Z" class="aw-theme-iconOutline" fill="#464646"/>
    <path id="path837-1-2-2-5-674-2" d="M5.95,10.5a.5.5,0,1,1-.5.5h0A.5.5,0,0,1,5.95,10.5Z" class="aw-theme-iconOutline" fill="#464646"/>
    <path id="path837-1-2-26-7-1-1" d="M8.689,9.4a.5.5,0,1,1-.5.5.5.5,0,0,1,.5-.5Z" class="aw-theme-iconOutline" fill="#464646"/>
    <path id="path837-1-2-2-5-6-73-2" d="M6.85,9.4a.5.5,0,1,1-.5.5.5.5,0,0,1,.5-.5Z" class="aw-theme-iconOutline" fill="#464646"/>
    <path id="path837-1-2-2-5-6-7-98-5" d="M6.85,11.6a.5.5,0,1,1-.5.5.5.5,0,0,1,.5-.5Z" class="aw-theme-iconOutline" fill="#464646"/>
    <path id="rect828-1-9" d="M0,0V6H14V0ZM1,1H13V5H1Z" class="aw-theme-iconOutline" fill="#464646"/>
    <path id="path839-1-2-8-4" d="M5.627,2.5a.5.5,0,1,1-.5.5A.5.5,0,0,1,5.627,2.5Z" class="aw-theme-iconOutline" fill="#464646"/>
    <path id="path837-1-2-26-72" d="M3.789,2.5a.5.5,0,1,1-.5.5A.5.5,0,0,1,3.789,2.5Z" class="aw-theme-iconOutline" fill="#464646"/>
    <path id="path839-2-4-1-9-4" d="M7.466,2.5a.5.5,0,1,1-.5.5A.5.5,0,0,1,7.466,2.5Z" class="aw-theme-iconOutline" fill="#464646"/>
    <path id="path837-1-2-2-5-9" d="M1.95,2.5a.5.5,0,1,1-.5.5A.5.5,0,0,1,1.95,2.5Z" class="aw-theme-iconOutline" fill="#464646"/>
    <path id="path837-1-2-26-1-7" d="M11.143,2.5a.5.5,0,1,1-.5.5A.5.5,0,0,1,11.143,2.5Z" class="aw-theme-iconOutline" fill="#464646"/>
    <path id="path837-1-2-2-5-5-5" d="M9.3,2.5a.5.5,0,1,1-.5.5A.5.5,0,0,1,9.3,2.5Z" class="aw-theme-iconOutline" fill="#464646"/>
    <path id="path839-1-2-8-7-9" d="M6.527,1.4a.5.5,0,1,1-.5.5A.5.5,0,0,1,6.527,1.4Z" class="aw-theme-iconOutline" fill="#464646"/>
    <path id="path837-1-2-26-7-2" d="M4.689,1.4a.5.5,0,1,1-.5.5A.5.5,0,0,1,4.689,1.4Z" class="aw-theme-iconOutline" fill="#464646"/>
    <path id="path839-2-4-1-9-3-97" d="M8.366,1.4a.5.5,0,1,1-.5.5A.5.5,0,0,1,8.366,1.4Z" class="aw-theme-iconOutline" fill="#464646"/>
    <path id="path837-1-2-2-5-6-5" d="M2.85,1.4a.5.5,0,1,1-.5.5A.5.5,0,0,1,2.85,1.4Z" class="aw-theme-iconOutline" fill="#464646"/>
    <path id="path837-1-2-26-1-5-7" d="M12.043,1.4a.5.5,0,1,1-.5.5A.5.5,0,0,1,12.043,1.4Z" class="aw-theme-iconOutline" fill="#464646"/>
    <path id="path837-1-2-2-5-5-8-4" d="M10.2,1.4a.5.5,0,1,1-.5.5A.5.5,0,0,1,10.2,1.4Z" class="aw-theme-iconOutline" fill="#464646"/>
    <path id="path839-1-2-8-7-8-2" d="M6.527,3.6a.5.5,0,1,1-.5.5A.5.5,0,0,1,6.527,3.6Z" class="aw-theme-iconOutline" fill="#464646"/>
    <path id="path837-1-2-26-7-3-7" d="M4.689,3.6a.5.5,0,1,1-.5.5A.5.5,0,0,1,4.689,3.6Z" class="aw-theme-iconOutline" fill="#464646"/>
    <path id="path839-2-4-1-9-3-9-9" d="M8.366,3.6a.5.5,0,1,1-.5.5A.5.5,0,0,1,8.366,3.6Z" class="aw-theme-iconOutline" fill="#464646"/>
    <path id="path837-1-2-2-5-6-7-7" d="M2.85,3.6a.5.5,0,1,1-.5.5A.5.5,0,0,1,2.85,3.6Z" class="aw-theme-iconOutline" fill="#464646"/>
    <path id="path837-1-2-26-1-5-4-5" d="M12.043,3.6a.5.5,0,1,1-.5.5A.5.5,0,0,1,12.043,3.6Z" class="aw-theme-iconOutline" fill="#464646"/>
    <path id="path837-1-2-2-5-5-8-6-4" d="M10.2,3.6a.5.5,0,1,1-.5.5A.5.5,0,0,1,10.2,3.6Z" class="aw-theme-iconOutline" fill="#464646"/>
  </g>
</svg>
