<svg id="Layer_1" data-name="Layer 1" xmlns="http://www.w3.org/2000/svg" viewBox="0 0 24 24">
  <g id="g883">
    <path id="path4" d="M12,8H2V2H12ZM3,7h8V3H3Z" class="aw-theme-iconOutline" fill="#464646"/>
    <path id="polygon6" d="M10,16H2V10H12v2H11V11H3v4h7Z" class="aw-theme-iconOutline" fill="#464646"/>
    <path id="polygon8" d="M1,2H0V0H2V1H1Z" class="aw-theme-iconOutline" fill="#464646"/>
    <path id="polygon10" d="M14,2H13V1H12V0h2Z" class="aw-theme-iconOutline" fill="#464646"/>
    <path id="polygon12" d="M2,18H0V16H1v1H2Z" class="aw-theme-iconOutline" fill="#464646"/>
    <path id="rect14" d="M4,0H6V1H4Z" class="aw-theme-iconOutline" fill="#464646"/>
    <path id="rect16" d="M8,0h2V1H8Z" class="aw-theme-iconOutline" fill="#464646"/>
    <path id="rect18" d="M13,4h1V6H13Z" class="aw-theme-iconOutline" fill="#464646"/>
    <path id="rect20" d="M0,4H1V6H0Z" class="aw-theme-iconOutline" fill="#464646"/>
    <path id="rect22" d="M0,12H1v2H0Z" class="aw-theme-iconOutline" fill="#464646"/>
    <path id="rect24" d="M13,8h1v2H13Z" class="aw-theme-iconOutline" fill="#464646"/>
    <path id="rect26" d="M4,17H6v1H4Z" class="aw-theme-iconOutline" fill="#464646"/>
    <path id="rect28" d="M8,17h2v1H8Z" class="aw-theme-iconOutline" fill="#464646"/>
    <path id="rect30" d="M0,8H1v2H0Z" class="aw-theme-iconOutline" fill="#464646"/>
    <path id="path2-2" d="M17.5,24A6.5,6.5,0,1,1,24,17.5h0A6.487,6.487,0,0,1,17.526,24H17.5Zm0-12A5.5,5.5,0,1,0,23,17.5h0A5.55,5.55,0,0,0,17.5,12Z" class="aw-theme-iconOutline" fill="#464646"/>
    <path id="rect851" d="M14,16.9h7v1H14Z" class="aw-theme-iconOutline" fill="#464646"/>
  </g>
</svg>
