<svg id="Artwork" xmlns="http://www.w3.org/2000/svg" viewBox="0 0 24 24">
  <g id="g925">
    <path id="rect828-1-9" d="M0,0V6H14V0ZM1,1H13V5H1Z" class="aw-theme-iconOutline" fill="#464646"/>
    <path id="path839-1-2-8-4" d="M5.627,2.5a.5.5,0,1,1-.5.5A.5.5,0,0,1,5.627,2.5Z" class="aw-theme-iconOutline" fill="#464646"/>
    <path id="path837-1-2-26-72" d="M3.789,2.5a.5.5,0,1,1-.5.5A.5.5,0,0,1,3.789,2.5Z" class="aw-theme-iconOutline" fill="#464646"/>
    <path id="path839-2-4-1-9-4" d="M7.466,2.5a.5.5,0,1,1-.5.5A.5.5,0,0,1,7.466,2.5Z" class="aw-theme-iconOutline" fill="#464646"/>
    <path id="path837-1-2-2-5-9" d="M1.95,2.5a.5.5,0,1,1-.5.5A.5.5,0,0,1,1.95,2.5Z" class="aw-theme-iconOutline" fill="#464646"/>
    <path id="path837-1-2-26-1-7" d="M11.143,2.5a.5.5,0,1,1-.5.5A.5.5,0,0,1,11.143,2.5Z" class="aw-theme-iconOutline" fill="#464646"/>
    <path id="path837-1-2-2-5-5-5" d="M9.3,2.5a.5.5,0,1,1-.5.5A.5.5,0,0,1,9.3,2.5Z" class="aw-theme-iconOutline" fill="#464646"/>
    <path id="path839-1-2-8-7-9" d="M6.527,1.4a.5.5,0,1,1-.5.5A.5.5,0,0,1,6.527,1.4Z" class="aw-theme-iconOutline" fill="#464646"/>
    <path id="path837-1-2-26-7-2" d="M4.689,1.4a.5.5,0,1,1-.5.5A.5.5,0,0,1,4.689,1.4Z" class="aw-theme-iconOutline" fill="#464646"/>
    <path id="path839-2-4-1-9-3-97" d="M8.366,1.4a.5.5,0,1,1-.5.5A.5.5,0,0,1,8.366,1.4Z" class="aw-theme-iconOutline" fill="#464646"/>
    <path id="path837-1-2-2-5-6-5" d="M2.85,1.4a.5.5,0,1,1-.5.5A.5.5,0,0,1,2.85,1.4Z" class="aw-theme-iconOutline" fill="#464646"/>
    <path id="path837-1-2-26-1-5-7" d="M12.043,1.4a.5.5,0,1,1-.5.5A.5.5,0,0,1,12.043,1.4Z" class="aw-theme-iconOutline" fill="#464646"/>
    <path id="path837-1-2-2-5-5-8-4" d="M10.2,1.4a.5.5,0,1,1-.5.5A.5.5,0,0,1,10.2,1.4Z" class="aw-theme-iconOutline" fill="#464646"/>
    <path id="path839-1-2-8-7-8-2" d="M6.527,3.6a.5.5,0,1,1-.5.5A.5.5,0,0,1,6.527,3.6Z" class="aw-theme-iconOutline" fill="#464646"/>
    <path id="path837-1-2-26-7-3-7" d="M4.689,3.6a.5.5,0,1,1-.5.5A.5.5,0,0,1,4.689,3.6Z" class="aw-theme-iconOutline" fill="#464646"/>
    <path id="path839-2-4-1-9-3-9-9" d="M8.366,3.6a.5.5,0,1,1-.5.5A.5.5,0,0,1,8.366,3.6Z" class="aw-theme-iconOutline" fill="#464646"/>
    <path id="path837-1-2-2-5-6-7-7" d="M2.85,3.6a.5.5,0,1,1-.5.5A.5.5,0,0,1,2.85,3.6Z" class="aw-theme-iconOutline" fill="#464646"/>
    <path id="path837-1-2-26-1-5-4-5" d="M12.043,3.6a.5.5,0,1,1-.5.5A.5.5,0,0,1,12.043,3.6Z" class="aw-theme-iconOutline" fill="#464646"/>
    <path id="path837-1-2-2-5-5-8-6-4" d="M10.2,3.6a.5.5,0,1,1-.5.5A.5.5,0,0,1,10.2,3.6Z" class="aw-theme-iconOutline" fill="#464646"/>
    <path id="rect1051" d="M1,6.915h.986V20H1Z" class="aw-theme-iconOutline" fill="#464646"/>
    <path id="path4-4-4-6-7-6-7" d="M3.258,22.019l1.977-2L1.986,20l-.019-1.043H5.192L3.258,17.036l.627-.677L6.623,19c.1.1.311.319.311.519A.78.78,0,0,1,6.676,20L3.885,22.718Z" class="aw-theme-iconOutline" fill="#464646"/>
    <path id="rect828-1-6" d="M8,16v6h3V21H9V17h4.739L15,16Z" class="aw-theme-iconOutline" fill="#464646"/>
    <path id="path837-1-2-2-5-67" d="M9.95,18.5a.5.5,0,1,1-.5.5A.5.5,0,0,1,9.95,18.5Z" class="aw-theme-iconOutline" fill="#464646"/>
    <path id="path837-1-2-2-5-6-6" d="M10.85,17.4a.5.5,0,1,1-.5.5A.5.5,0,0,1,10.85,17.4Z" class="aw-theme-iconOutline" fill="#464646"/>
    <path id="rect828-1-2" d="M8,8v6H18.5V8ZM9,9h8.5v4H9Z" class="aw-theme-iconOutline" fill="#464646"/>
    <path id="path839-1-2-8-9" d="M13.627,10.5a.5.5,0,1,1-.5.5A.5.5,0,0,1,13.627,10.5Z" class="aw-theme-iconOutline" fill="#464646"/>
    <path id="path837-1-2-26-0" d="M11.789,10.5a.5.5,0,1,1-.5.5A.5.5,0,0,1,11.789,10.5Z" class="aw-theme-iconOutline" fill="#464646"/>
    <path id="path839-2-4-1-9-31" d="M15.466,10.5a.5.5,0,1,1-.5.5A.5.5,0,0,1,15.466,10.5Z" class="aw-theme-iconOutline" fill="#464646"/>
    <path id="path837-1-2-2-5-674" d="M9.95,10.5a.5.5,0,1,1-.5.5A.5.5,0,0,1,9.95,10.5Z" class="aw-theme-iconOutline" fill="#464646"/>
    <path id="path839-1-2-8-7-6" d="M14.527,9.4a.5.5,0,1,1-.5.5A.5.5,0,0,1,14.527,9.4Z" class="aw-theme-iconOutline" fill="#464646"/>
    <path id="path837-1-2-26-7-1" d="M12.689,9.4a.5.5,0,1,1-.5.5A.5.5,0,0,1,12.689,9.4Z" class="aw-theme-iconOutline" fill="#464646"/>
    <path id="path839-2-4-1-9-3-8" d="M16.366,9.4a.5.5,0,1,1-.5.5A.5.5,0,0,1,16.366,9.4Z" class="aw-theme-iconOutline" fill="#464646"/>
    <path id="path837-1-2-2-5-6-73" d="M10.85,9.4a.5.5,0,1,1-.5.5A.5.5,0,0,1,10.85,9.4Z" class="aw-theme-iconOutline" fill="#464646"/>
    <path id="path839-1-2-8-7-8-4" d="M14.527,11.6a.5.5,0,1,1-.5.5A.5.5,0,0,1,14.527,11.6Z" class="aw-theme-iconOutline" fill="#464646"/>
    <path id="path837-1-2-26-7-3-0" d="M12.689,11.6a.5.5,0,1,1-.5.5A.5.5,0,0,1,12.689,11.6Z" class="aw-theme-iconOutline" fill="#464646"/>
    <path id="path839-2-4-1-9-3-9-3" d="M16.366,11.6a.5.5,0,1,1-.5.5A.5.5,0,0,1,16.366,11.6Z" class="aw-theme-iconOutline" fill="#464646"/>
    <path id="path837-1-2-2-5-6-7-98" d="M10.85,11.6a.5.5,0,1,1-.5.5A.5.5,0,0,1,10.85,11.6Z" class="aw-theme-iconOutline" fill="#464646"/>
    <path id="path4-4-4-6-7-6-7-84" d="M3.234,13.5l1.977-2-3.249-.02-.019-1.043H5.168L3.234,8.516l.627-.678L6.6,10.481c.1.1.312.319.312.519a.785.785,0,0,1-.258.481L3.861,14.2Z" class="aw-theme-iconOutline" fill="#464646"/>
    <path id="path1012" d="M12.283,23.759a5.31,5.31,0,0,1-.835-.335.4.4,0,0,1-.073-.241c0-.129.151-.321.656-.833l.656-.665L13.07,20.3c.21-.763.383-1.4.383-1.418,0-.047,7.913-6.894,8.057-6.971a.243.243,0,0,1,.24-.01c.06.033.594.549,1.187,1.147.837.844,1.078,1.123,1.078,1.248a40.479,40.479,0,0,1-3.347,4.024c-1.841,2.124-3.395,3.925-3.453,4-.084.11-.4.222-1.512.527l-1.407.387-.415.4c-.508.486-.54.489-1.6.128Zm1.088-.616a.463.463,0,0,0,.144-.206,1.025,1.025,0,0,0-.25-.314l-.25-.245-.311.306c-.171.169-.295.322-.277.341a3.119,3.119,0,0,0,.709.249A.447.447,0,0,0,13.371,23.143Zm1.91-.877L16.266,22l-1.138-1.139c-.626-.627-1.145-1.133-1.153-1.125s-.142.478-.3,1.044l-.284,1.03.356.359a1.56,1.56,0,0,0,.452.361C14.253,22.531,14.74,22.412,15.281,22.266Zm4.825-4.325,3.108-3.618-.809-.81-.81-.81-3.636,3.176-3.636,3.176,1.3,1.3a13.932,13.932,0,0,0,1.337,1.253C16.98,21.581,18.4,19.932,20.106,17.941Z" class="aw-theme-iconOutline" fill="#464646"/>
    <path id="path837-1-2-26-0-9" d="M11.789,18.5a.5.5,0,1,1-.5.5A.5.5,0,0,1,11.789,18.5Z" class="aw-theme-iconOutline" fill="#464646"/>
    <path id="path837-1-2-2-5-674-2" d="M9.95,18.5a.5.5,0,1,1-.5.5A.5.5,0,0,1,9.95,18.5Z" class="aw-theme-iconOutline" fill="#464646"/>
    <path id="path837-1-2-26-7-1-1" d="M12.689,17.4a.5.5,0,1,1-.5.5A.5.5,0,0,1,12.689,17.4Z" class="aw-theme-iconOutline" fill="#464646"/>
    <path id="path837-1-2-2-5-6-73-2" d="M10.85,17.4a.5.5,0,1,1-.5.5A.5.5,0,0,1,10.85,17.4Z" class="aw-theme-iconOutline" fill="#464646"/>
    <path id="path837-1-2-2-5-6-7-98-5" d="M10.85,19.6a.5.5,0,1,1-.5.5A.5.5,0,0,1,10.85,19.6Z" class="aw-theme-iconOutline" fill="#464646"/>
  </g>
</svg>
