<svg id="Layer_1" data-name="Layer 1" xmlns="http://www.w3.org/2000/svg" viewBox="0 0 24 24">
  <g id="g860">
    <path id="path847" d="M2.431,18.627l-.374-.375.473-.466c1.253-1.234,2.232-2.192,2.247-2.2s.551.343,1.2.77,1.2.778,1.212.78.688-.678,1.5-1.508,1.483-1.513,1.491-1.515.774.709.774.726-2.729,2.8-3.468,3.552l-.137.139-1.21-.791c-.666-.436-1.218-.789-1.227-.786s-.482.462-1.052,1.021S2.823,18.994,2.817,19,2.637,18.833,2.431,18.627Z" class="aw-theme-iconOutline" fill="#464646"/>
    <path id="path827" d="M0,3.981V23l12.991-.008.018-13.124L6.523,3.991H5.409ZM.971,4.989h4.44v5.992H12v10.99H1.029Zm5.552.463,5.062,4.534H6.522Z" class="aw-theme-iconOutline" fill="#464646"/>
    <path id="path827-0" d="M10,1V8.4h.992l-.021-6.392H15.41V8H22V18.991H12.091v1.025l10.9-.006.018-13.123L16.521,1.01H15.408Zm6.521,1.471,5.063,4.535H16.521Z" class="aw-theme-iconOutline" fill="#464646"/>
    <path id="rect897" d="M14,11h1v7H14Z" class="aw-theme-iconOutline" fill="#464646"/>
    <path id="rect897-2" d="M16,11h1v7H16Z" class="aw-theme-iconOutline" fill="#464646"/>
    <path id="rect897-2-4" d="M17,11v1H14V11Z" class="aw-theme-iconOutline" fill="#464646"/>
    <path id="rect897-2-4-2" d="M17,17v1H14V17Z" class="aw-theme-iconOutline" fill="#464646"/>
    <path id="rect897-29" d="M18,9.184h1V18H18Z" class="aw-theme-iconOutline" fill="#464646"/>
    <path id="rect897-2-7" d="M20,9.292h1V18H20Z" class="aw-theme-iconOutline" fill="#464646"/>
    <path id="rect897-2-4-5" d="M21,9v1H18V9Z" class="aw-theme-iconOutline" fill="#464646"/>
    <path id="rect897-2-4-2-0" d="M21,17v1H18V17Z" class="aw-theme-iconOutline" fill="#464646"/>
  </g>
</svg>
