<svg id="Image" xmlns="http://www.w3.org/2000/svg" viewBox="0 0 24 24">
  <g id="g860">
    <path id="path848" d="M17.3,9.781a1.038,1.038,0,0,1-.175-.892,5.772,5.772,0,0,1,1.4-3.4c.235-.259.271-.322.271-.472s-.036-.214-.226-.43a5.454,5.454,0,0,1-1.055-1.728,6.3,6.3,0,0,1-.4-1.946c0-.246-.023-.328-.088-.388s-.084-.136-.084-.289V.019h6.039l.1.1A.253.253,0,0,1,23.093.5C23.031.561,23,.68,22.98.991A5.934,5.934,0,0,1,21.6,4.48c-.417.452-.425.551-.083.939a6.1,6.1,0,0,1,1.46,3.56.968.968,0,0,1-.23.856l-.113.106-2.6.012-2.6.012Zm4.948-.654a7.464,7.464,0,0,0-.2-1.153,5.668,5.668,0,0,0-.632-1.431c-.076-.11-.275-.359-.442-.554A1.22,1.22,0,0,1,20.554,5a1.3,1.3,0,0,1,.46-1.033,5.1,5.1,0,0,0,1.207-2.874l.028-.232H17.871V1.04a6.087,6.087,0,0,0,.294,1.376,4.687,4.687,0,0,0,.984,1.644,1.268,1.268,0,0,1,.391,1.062,1.422,1.422,0,0,1-.46.917,5.011,5.011,0,0,0-1.2,2.762l-.038.318L18,9.136C18.357,9.174,22.246,9.166,22.246,9.127Z" class="aw-theme-iconOutline" fill="#464646"/>
    <path id="path1012" d="M12.229,23.744a5.337,5.337,0,0,1-.836-.334.4.4,0,0,1-.073-.241c0-.129.151-.321.656-.833l.656-.665.383-1.389c.21-.764.383-1.4.383-1.418,0-.048,7.913-6.9,8.057-6.972a.241.241,0,0,1,.24-.009c.06.033.594.549,1.187,1.147.837.843,1.078,1.123,1.078,1.248A40.738,40.738,0,0,1,20.613,18.3c-1.841,2.124-3.395,3.925-3.453,4-.084.111-.4.222-1.512.527l-1.406.388-.416.4c-.508.487-.54.489-1.6.128Zm1.087-.615a.468.468,0,0,0,.144-.206,1.012,1.012,0,0,0-.25-.315l-.25-.244-.311.306c-.171.168-.295.322-.277.341a3.119,3.119,0,0,0,.709.249A.462.462,0,0,0,13.316,23.129Zm1.91-.878.985-.265-1.138-1.14c-.626-.627-1.145-1.133-1.153-1.125s-.142.479-.3,1.045L13.338,21.8l.356.36a1.579,1.579,0,0,0,.452.361C14.2,22.516,14.685,22.4,15.226,22.251Zm4.825-4.324,3.108-3.619-.809-.81-.81-.809L17.9,15.865,14.268,19.04l1.3,1.3A13.684,13.684,0,0,0,16.9,21.591Z" class="aw-theme-iconOutline" fill="#464646"/>
    <path id="path839-1-2-8-5" d="M10.627,13.554a.5.5,0,1,1-.5.5A.5.5,0,0,1,10.627,13.554Z" class="aw-theme-iconOutline" fill="#464646"/>
    <path id="path837-1-2-26-9" d="M8.789,13.554a.5.5,0,1,1-.5.5A.5.5,0,0,1,8.789,13.554Z" class="aw-theme-iconOutline" fill="#464646"/>
    <path id="path839-2-4-1-9-8" d="M12.466,13.554a.5.5,0,1,1-.5.5A.5.5,0,0,1,12.466,13.554Z" class="aw-theme-iconOutline" fill="#464646"/>
    <path id="path837-1-2-2-5-62" d="M6.95,13.554a.5.5,0,1,1-.5.5A.5.5,0,0,1,6.95,13.554Z" class="aw-theme-iconOutline" fill="#464646"/>
    <path id="path837-1-2-26-1-0" d="M16.143,13.554a.5.5,0,1,1-.5.5A.5.5,0,0,1,16.143,13.554Z" class="aw-theme-iconOutline" fill="#464646"/>
    <path id="path837-1-2-2-5-5-5" d="M14.3,13.554a.5.5,0,1,1-.5.5A.5.5,0,0,1,14.3,13.554Z" class="aw-theme-iconOutline" fill="#464646"/>
    <path id="path839-1-2-8-7" d="M11.527,12.454a.5.5,0,1,1-.5.5A.5.5,0,0,1,11.527,12.454Z" class="aw-theme-iconOutline" fill="#464646"/>
    <path id="path837-1-2-26-7" d="M9.689,12.454a.5.5,0,1,1-.5.5A.5.5,0,0,1,9.689,12.454Z" class="aw-theme-iconOutline" fill="#464646"/>
    <path id="path839-2-4-1-9-3" d="M13.366,12.454a.5.5,0,1,1-.5.5A.5.5,0,0,1,13.366,12.454Z" class="aw-theme-iconOutline" fill="#464646"/>
    <path id="path837-1-2-2-5-6" d="M7.85,12.454a.5.5,0,1,1-.5.5A.5.5,0,0,1,7.85,12.454Z" class="aw-theme-iconOutline" fill="#464646"/>
    <path id="path837-1-2-26-1-5" d="M17.043,12.454a.5.5,0,1,1-.5.5A.5.5,0,0,1,17.043,12.454Z" class="aw-theme-iconOutline" fill="#464646"/>
    <path id="path837-1-2-2-5-5-8" d="M15.2,12.454a.5.5,0,1,1-.5.5A.5.5,0,0,1,15.2,12.454Z" class="aw-theme-iconOutline" fill="#464646"/>
    <path id="path839-1-2-8-7-8" d="M11.527,14.654a.5.5,0,1,1-.5.5A.5.5,0,0,1,11.527,14.654Z" class="aw-theme-iconOutline" fill="#464646"/>
    <path id="path837-1-2-26-7-3" d="M9.689,14.654a.5.5,0,1,1-.5.5A.5.5,0,0,1,9.689,14.654Z" class="aw-theme-iconOutline" fill="#464646"/>
    <path id="path839-2-4-1-9-3-9" d="M13.366,14.654a.5.5,0,1,1-.5.5A.5.5,0,0,1,13.366,14.654Z" class="aw-theme-iconOutline" fill="#464646"/>
    <path id="path837-1-2-2-5-6-7" d="M7.85,14.654a.5.5,0,1,1-.5.5A.5.5,0,0,1,7.85,14.654Z" class="aw-theme-iconOutline" fill="#464646"/>
    <path id="path837-1-2-2-5-5-8-6" d="M15.2,14.654a.5.5,0,1,1-.5.5A.5.5,0,0,1,15.2,14.654Z" class="aw-theme-iconOutline" fill="#464646"/>
    <path id="rect828-1-9-0" d="M5,11.054v6h8.961l1.164-1H6v-4H18v1.531l.973-.836.006-.82c0-.185,0,.618,0,.813L19,12.728V11.054Z" class="aw-theme-iconOutline" fill="#464646"/>
    <path id="rect1341-1-6" d="M16.407,10h7.186A.405.405,0,0,0,24,9.593V9.407A.405.405,0,0,0,23.593,9H16.407A.405.405,0,0,0,16,9.407v.186A.405.405,0,0,0,16.407,10Z" class="aw-theme-iconOutline" fill="#464646"/>
    <path id="rect1341-1-5-2" d="M16.407,1h7.186A.405.405,0,0,0,24,.593V.407A.405.405,0,0,0,23.593,0H16.407A.405.405,0,0,0,16,.407V.593A.405.405,0,0,0,16.407,1Z" class="aw-theme-iconOutline" fill="#464646"/>
    <path id="path1394-4" d="M19.9,5.56c-.023.24-.364.479-.561.688a3.734,3.734,0,0,0-.978,1.85,5.477,5.477,0,0,0-.1.586v.041h1.779c.979,0,1.78,0,1.78-.011s-.013-.1-.029-.209a4.259,4.259,0,0,0-.569-1.644,3.311,3.311,0,0,0-.448-.576,3.975,3.975,0,0,0-.313-.327,1.2,1.2,0,0,1-.349-.419l-.052-.051.006,0c-.2-.055-.2.2-.086,0Z" class="aw-theme-iconOutline" fill="#464646"/>
  </g>
</svg>
