<svg id="Artwork" xmlns="http://www.w3.org/2000/svg" viewBox="0 0 24 24">
  <g id="g895">
    <path id="rect828-1-9" d="M0,0V6H14V0ZM1,1H13V5H1Z" class="aw-theme-iconOutline" fill="#464646"/>
    <path id="path839-1-2-8-4" d="M5.627,2.5a.5.5,0,1,1-.5.5A.5.5,0,0,1,5.627,2.5Z" class="aw-theme-iconOutline" fill="#464646"/>
    <path id="path837-1-2-26-72" d="M3.789,2.5a.5.5,0,1,1-.5.5A.5.5,0,0,1,3.789,2.5Z" class="aw-theme-iconOutline" fill="#464646"/>
    <path id="path839-2-4-1-9-4" d="M7.466,2.5a.5.5,0,1,1-.5.5A.5.5,0,0,1,7.466,2.5Z" class="aw-theme-iconOutline" fill="#464646"/>
    <path id="path837-1-2-2-5-9" d="M1.95,2.5a.5.5,0,1,1-.5.5A.5.5,0,0,1,1.95,2.5Z" class="aw-theme-iconOutline" fill="#464646"/>
    <path id="path837-1-2-26-1-7" d="M11.143,2.5a.5.5,0,1,1-.5.5A.5.5,0,0,1,11.143,2.5Z" class="aw-theme-iconOutline" fill="#464646"/>
    <path id="path837-1-2-2-5-5-5" d="M9.3,2.5a.5.5,0,1,1-.5.5A.5.5,0,0,1,9.3,2.5Z" class="aw-theme-iconOutline" fill="#464646"/>
    <path id="path839-1-2-8-7-9" d="M6.527,1.4a.5.5,0,1,1-.5.5A.5.5,0,0,1,6.527,1.4Z" class="aw-theme-iconOutline" fill="#464646"/>
    <path id="path837-1-2-26-7-2" d="M4.689,1.4a.5.5,0,1,1-.5.5A.5.5,0,0,1,4.689,1.4Z" class="aw-theme-iconOutline" fill="#464646"/>
    <path id="path839-2-4-1-9-3-97" d="M8.366,1.4a.5.5,0,1,1-.5.5A.5.5,0,0,1,8.366,1.4Z" class="aw-theme-iconOutline" fill="#464646"/>
    <path id="path837-1-2-2-5-6-5" d="M2.85,1.4a.5.5,0,1,1-.5.5A.5.5,0,0,1,2.85,1.4Z" class="aw-theme-iconOutline" fill="#464646"/>
    <path id="path837-1-2-26-1-5-7" d="M12.043,1.4a.5.5,0,1,1-.5.5A.5.5,0,0,1,12.043,1.4Z" class="aw-theme-iconOutline" fill="#464646"/>
    <path id="path837-1-2-2-5-5-8-4" d="M10.2,1.4a.5.5,0,1,1-.5.5A.5.5,0,0,1,10.2,1.4Z" class="aw-theme-iconOutline" fill="#464646"/>
    <path id="path839-1-2-8-7-8-2" d="M6.527,3.6a.5.5,0,1,1-.5.5A.5.5,0,0,1,6.527,3.6Z" class="aw-theme-iconOutline" fill="#464646"/>
    <path id="path837-1-2-26-7-3-7" d="M4.689,3.6a.5.5,0,1,1-.5.5A.5.5,0,0,1,4.689,3.6Z" class="aw-theme-iconOutline" fill="#464646"/>
    <path id="path839-2-4-1-9-3-9-9" d="M8.366,3.6a.5.5,0,1,1-.5.5A.5.5,0,0,1,8.366,3.6Z" class="aw-theme-iconOutline" fill="#464646"/>
    <path id="path837-1-2-2-5-6-7-7" d="M2.85,3.6a.5.5,0,1,1-.5.5A.5.5,0,0,1,2.85,3.6Z" class="aw-theme-iconOutline" fill="#464646"/>
    <path id="path837-1-2-26-1-5-4-5" d="M12.043,3.6a.5.5,0,1,1-.5.5A.5.5,0,0,1,12.043,3.6Z" class="aw-theme-iconOutline" fill="#464646"/>
    <path id="path837-1-2-2-5-5-8-6-4" d="M10.2,3.6a.5.5,0,1,1-.5.5A.5.5,0,0,1,10.2,3.6Z" class="aw-theme-iconOutline" fill="#464646"/>
    <path id="rect1051" d="M1,6.915h.986V20H1Z" class="aw-theme-iconOutline" fill="#464646"/>
    <path id="path4-4-4-6-7-6-7" d="M3.258,22.019l1.977-2L1.986,20l-.019-1.043H5.192L3.258,17.036l.627-.677L6.623,19c.1.1.311.319.311.519A.78.78,0,0,1,6.676,20L3.885,22.718Z" class="aw-theme-iconOutline" fill="#464646"/>
    <path id="rect828-1-2" d="M8,8v6h5.971a2.685,2.685,0,0,1,.218-1H9V9h8.5v1.566a5.591,5.591,0,0,1,1-.1V8Z" class="aw-theme-iconOutline" fill="#464646"/>
    <path id="path839-1-2-8-9" d="M13.627,10.5a.5.5,0,1,1-.5.5A.5.5,0,0,1,13.627,10.5Z" class="aw-theme-iconOutline" fill="#464646"/>
    <path id="path837-1-2-26-0" d="M11.789,10.5a.5.5,0,1,1-.5.5A.5.5,0,0,1,11.789,10.5Z" class="aw-theme-iconOutline" fill="#464646"/>
    <path id="path839-2-4-1-9-31" d="M15.466,10.5a.5.5,0,1,1-.5.5A.5.5,0,0,1,15.466,10.5Z" class="aw-theme-iconOutline" fill="#464646"/>
    <path id="path837-1-2-2-5-674" d="M9.95,10.5a.5.5,0,1,1-.5.5A.5.5,0,0,1,9.95,10.5Z" class="aw-theme-iconOutline" fill="#464646"/>
    <path id="path839-1-2-8-7-6" d="M14.527,9.4a.5.5,0,1,1-.5.5A.5.5,0,0,1,14.527,9.4Z" class="aw-theme-iconOutline" fill="#464646"/>
    <path id="path837-1-2-26-7-1" d="M12.689,9.4a.5.5,0,1,1-.5.5A.5.5,0,0,1,12.689,9.4Z" class="aw-theme-iconOutline" fill="#464646"/>
    <path id="path839-2-4-1-9-3-8" d="M16.366,9.4a.5.5,0,1,1-.5.5A.5.5,0,0,1,16.366,9.4Z" class="aw-theme-iconOutline" fill="#464646"/>
    <path id="path837-1-2-2-5-6-73" d="M10.85,9.4a.5.5,0,1,1-.5.5A.5.5,0,0,1,10.85,9.4Z" class="aw-theme-iconOutline" fill="#464646"/>
    <path id="path839-1-2-8-7-8-4" d="M14.527,11.6a.5.5,0,1,1-.5.5A.5.5,0,0,1,14.527,11.6Z" class="aw-theme-iconOutline" fill="#464646"/>
    <path id="path837-1-2-26-7-3-0" d="M12.689,11.6a.5.5,0,1,1-.5.5A.5.5,0,0,1,12.689,11.6Z" class="aw-theme-iconOutline" fill="#464646"/>
    <path id="path837-1-2-2-5-6-7-98" d="M10.85,11.6a.5.5,0,1,1-.5.5A.5.5,0,0,1,10.85,11.6Z" class="aw-theme-iconOutline" fill="#464646"/>
    <path id="path4-4-4-6-7-6-7-84" d="M3.234,13.5l1.977-2-3.249-.02-.019-1.043H5.168L3.234,8.516l.627-.678L6.6,10.481c.1.1.312.319.312.519a.785.785,0,0,1-.258.481L3.861,14.2Z" class="aw-theme-iconOutline" fill="#464646"/>
    <path id="path823" d="M13.982,23.936a1.457,1.457,0,0,1-.673-.523c-.239-.357-.232-.229-.232-4.051V15.909l.764-.009.764-.01.022-.838a3.724,3.724,0,0,1,.215-1.5A3.819,3.819,0,0,1,16.96,11.42a4.019,4.019,0,0,1,2.912,0,3.733,3.733,0,0,1,2.233,2.49,4.3,4.3,0,0,1,.1,1.142l.02.838.89.01.89.009v3.38c0,2.155-.014,3.462-.038,3.607a1.508,1.508,0,0,1-.111.372,1.556,1.556,0,0,1-.652.618l-.223.1L18.578,24c-4.268.007-4.41.006-4.6-.061ZM22.833,23a.3.3,0,0,0,.128-.127c.028-.061.039-.953.039-3.046v-2.96H14.083l.009,3.018.01,3.018.085.068c.082.067.2.069,4.321.069,3.029,0,4.262-.012,4.325-.04ZM21.2,15.1a2.557,2.557,0,0,0-.8-2.167,2.818,2.818,0,0,0-3.957,0A2.638,2.638,0,0,0,15.75,14a2.693,2.693,0,0,0-.113,1.1l-.013.812h5.584Z" class="aw-theme-iconOutline" fill="#464646"/>
    <path id="path825" d="M18.111,21.086v-.441l-.155-.064a1.224,1.224,0,0,1-.31-.212,1.171,1.171,0,0,1,.384-1.9.917.917,0,0,1,.477-.086.957.957,0,0,1,.522.1,1.211,1.211,0,0,1,.643,1.474,1.264,1.264,0,0,1-.573.621l-.2.1v.854h-.791Zm.642-1.193a.393.393,0,0,0,.185-.377.422.422,0,0,0-.823-.092.434.434,0,0,0,.128.446A.555.555,0,0,0,18.753,19.893Z" class="aw-theme-iconOutline" fill="#464646"/>
    <path id="rect828-1-2-7" d="M8,16v6h4V21H9V17h3V16Z" class="aw-theme-iconOutline" fill="#464646"/>
    <path id="path837-1-2-26-0-0" d="M11.789,18.5a.5.5,0,1,1-.5.5A.5.5,0,0,1,11.789,18.5Z" class="aw-theme-iconOutline" fill="#464646"/>
    <path id="path837-1-2-2-5-674-4" d="M9.95,18.5a.5.5,0,1,1-.5.5A.5.5,0,0,1,9.95,18.5Z" class="aw-theme-iconOutline" fill="#464646"/>
    <path id="path837-1-2-2-5-6-73-9" d="M10.85,17.4a.5.5,0,1,1-.5.5A.5.5,0,0,1,10.85,17.4Z" class="aw-theme-iconOutline" fill="#464646"/>
    <path id="path837-1-2-2-5-6-7-98-8" d="M10.85,19.6a.5.5,0,1,1-.5.5A.5.5,0,0,1,10.85,19.6Z" class="aw-theme-iconOutline" fill="#464646"/>
  </g>
</svg>
