<svg id="Artwork" xmlns="http://www.w3.org/2000/svg" viewBox="0 0 24 24">
  <g id="g917">
    <path id="rect828-1" d="M2.1,4.981v8H7.446a4.432,4.432,0,0,1,.259-1H3.1v-6h15v6H16.409a4.372,4.372,0,0,1,.255,1H19.1v-8Z" class="aw-theme-iconOutline" fill="#464646"/>
    <path id="path843-8-9-53" d="M6.605,9.543a.5.5,0,1,0,.5-.5A.5.5,0,0,0,6.605,9.543Z" class="aw-theme-iconOutline" fill="#464646"/>
    <path id="path841-5-6-1" d="M5.105,9.043a.5.5,0,1,1-.5.5A.5.5,0,0,1,5.105,9.043Z" class="aw-theme-iconOutline" fill="#464646"/>
    <path id="path839-1-2-8" d="M8.105,7.932a.5.5,0,1,1-.5.5A.5.5,0,0,1,8.105,7.932Z" class="aw-theme-iconOutline" fill="#464646"/>
    <path id="path837-1-2-26" d="M6.105,7.932a.5.5,0,1,1-.5.5A.5.5,0,0,1,6.105,7.932Z" class="aw-theme-iconOutline" fill="#464646"/>
    <path id="path839-2-4-1-9" d="M10.105,7.932a.5.5,0,1,1-.5.5A.5.5,0,0,1,10.105,7.932Z" class="aw-theme-iconOutline" fill="#464646"/>
    <path id="path843-3-3-5-7" d="M8.58,9.543a.5.5,0,1,0,.5-.5A.5.5,0,0,0,8.58,9.543Z" class="aw-theme-iconOutline" fill="#464646"/>
    <path id="path837-1-2-2-5" d="M4.412,7.932a.5.5,0,1,1-.5.5A.5.5,0,0,1,4.412,7.932Z" class="aw-theme-iconOutline" fill="#464646"/>
    <path id="path843-8-9-53-0" d="M14.043,9.543a.5.5,0,1,0,.5-.5A.5.5,0,0,0,14.043,9.543Z" class="aw-theme-iconOutline" fill="#464646"/>
    <path id="path837-1-2-26-1" d="M13.605,7.932a.5.5,0,1,1-.5.5A.5.5,0,0,1,13.605,7.932Z" class="aw-theme-iconOutline" fill="#464646"/>
    <path id="path837-1-2-2-5-5" d="M11.913,7.932a.5.5,0,1,1-.5.5A.5.5,0,0,1,11.913,7.932Z" class="aw-theme-iconOutline" fill="#464646"/>
    <path id="path843-8-9-53-2" d="M6.6,7.324a.5.5,0,1,0,.5-.5A.5.5,0,0,0,6.6,7.324Z" class="aw-theme-iconOutline" fill="#464646"/>
    <path id="path841-5-6-1-0" d="M5.1,6.824a.5.5,0,1,1-.5.5A.5.5,0,0,1,5.1,6.824Z" class="aw-theme-iconOutline" fill="#464646"/>
    <path id="path843-3-3-5-7-9" d="M8.575,7.324a.5.5,0,1,0,.5-.5A.5.5,0,0,0,8.575,7.324Z" class="aw-theme-iconOutline" fill="#464646"/>
    <path id="path839-2-4-2-6-9-2" d="M10.851,6.824a.5.5,0,1,1-.5.5A.5.5,0,0,1,10.851,6.824Z" class="aw-theme-iconOutline" fill="#464646"/>
    <path id="path843-8-9-53-0-4" d="M14.1,7.324a.5.5,0,1,0,.5-.5A.5.5,0,0,0,14.1,7.324Z" class="aw-theme-iconOutline" fill="#464646"/>
    <path id="path841-5-6-1-6-5" d="M12.6,6.824a.5.5,0,1,1-.5.5A.5.5,0,0,1,12.6,6.824Z" class="aw-theme-iconOutline" fill="#464646"/>
    <path id="path843-8-9-53-2-1" d="M6.012,10.793a.5.5,0,1,0,.5-.5A.5.5,0,0,0,6.012,10.793Z" class="aw-theme-iconOutline" fill="#464646"/>
    <path id="path841-5-6-1-0-0" d="M4.512,10.293a.5.5,0,1,1-.5.5A.5.5,0,0,1,4.512,10.293Z" class="aw-theme-iconOutline" fill="#464646"/>
    <path id="path841-5-6-1-6-9" d="M16.043,9.027a.5.5,0,1,1-.5.5.5.5,0,0,1,.5-.5Z" class="aw-theme-iconOutline" fill="#464646"/>
    <path id="path837-1-2-26-1-9" d="M17.105,7.916a.5.5,0,1,1-.5.5A.5.5,0,0,1,17.105,7.916Z" class="aw-theme-iconOutline" fill="#464646"/>
    <path id="path837-1-2-2-5-5-9" d="M15.413,7.916a.5.5,0,1,1-.5.5A.5.5,0,0,1,15.413,7.916Z" class="aw-theme-iconOutline" fill="#464646"/>
    <path id="path841-5-6-1-6-5-0" d="M16.256,6.84a.5.5,0,1,1-.5.5A.5.5,0,0,1,16.256,6.84Z" class="aw-theme-iconOutline" fill="#464646"/>
    <path id="path843-8-9-53-0-4-2-3" d="M16.387,10.715a.5.5,0,1,0,.5-.5A.5.5,0,0,0,16.387,10.715Z" class="aw-theme-iconOutline" fill="#464646"/>
    <g id="g53">
      <path id="path51" d="M13.842,24a.558.558,0,0,1-.366-.091.443.443,0,0,1,0-.641l9.751-9.748a.453.453,0,0,1,.641.64l-9.66,9.749A.551.551,0,0,1,13.842,24Z" class="aw-theme-iconOutline" fill="#464646"/>
    </g>
    <path id="path869" d="M11.865,9.939a3.5,3.5,0,0,0-2.482,1.112,3.675,3.675,0,0,0-.942,1.676,4.07,4.07,0,0,0-.109,1.185l-.016.836h.942v-.711a3.89,3.89,0,0,1,.074-1.016,2.876,2.876,0,0,1,1.432-1.845A2.749,2.749,0,0,1,14.689,13a4.336,4.336,0,0,1,.1,1.033l.021.846h-1.6l.011,3.486.01,3.588.1.2a1.449,1.449,0,0,0,.209.313c.154-.157.53-.632.733-.836-.03-.179-.04-.643-.04-2.819V15.861h5.907c.323-.321.84-.737,1.083-.978H15.693v-.858a4.807,4.807,0,0,0-.074-1.123,3.735,3.735,0,0,0-1.992-2.6,3.451,3.451,0,0,0-1.762-.36ZM23.8,14.883c-.15.165-.613.715-.867.978h.126v6.083l-.08.055a41.7,41.7,0,0,1-4.4.057c-1,0-1.217-.005-1.793-.006-.334.335-.791.641-1.047.9.591.013.739.03,2.846.031,4.637,0,4.4.015,4.769-.218a1.319,1.319,0,0,0,.51-.6l.111-.236.01-3.568L24,14.883Zm-5.2,2.474a1.06,1.06,0,0,0-.834.348,1.16,1.16,0,0,0-.33.84c.082-.082.07-.072.155-.156.526-.527.6-.6,1.033-1.03l-.024,0ZM19,19.68l-.016.015c-.388.392-.433.433-.767.77H19V19.68Z" class="aw-theme-iconOutline" fill="#464646"/>
  </g>
</svg>
