<svg id="Artwork" xmlns="http://www.w3.org/2000/svg" viewBox="0 0 24 24">
  <g id="g823">
    <path id="path2" d="M12,24A12.069,12.069,0,0,1,0,12,12.069,12.069,0,0,1,12,0,12.069,12.069,0,0,1,24,12,12.069,12.069,0,0,1,12,24ZM12,1.043A10.957,10.957,0,1,0,22.957,12,10.957,10.957,0,0,0,12,1.043Z" class="aw-theme-iconOutline" fill="#464646"/>
    <path id="polygon2-7" d="M13.34,9.58v.9h-.617L18.3,16H15v1h5V12H19v3.3Z" class="aw-theme-iconOutline" fill="#464646"/>
    <path id="polygon2-7-9" d="M4.4,7.6l-.8.8,6.1,6.034.739-.737Z" class="aw-theme-iconOutline" fill="#464646"/>
    <path id="polygon2-7-9-4" d="M13.209,9.445,8.915,13.651l.8.8L13.942,10.2Z" class="aw-theme-iconOutline" fill="#464646"/>
  </g>
</svg>
