<svg id="Artwork" xmlns="http://www.w3.org/2000/svg" viewBox="0 0 24 24">
  <g id="g870">
    <path id="path835" d="M8,21.919V19.838l.99-1.591.99-1.59V11.481h1.309V9.533h3.545v3.194h2.4V9.533h3.481v1.948H22.02v5.146l.99,1.554L24,19.736V24H17.23l-.008-2.914-.009-2.914H14.85l-.008,2.914L14.834,24H8Zm5.908-.011V20.743H8.926v2.331h4.982Zm9.2,0V20.743H18.092v2.331h5.014Zm-9.2-5.8V12.343H10.874v4.512l-.91,1.465c-.5.806-.91,1.479-.91,1.5a19.2,19.2,0,0,0,2.818.057l2.036.007Zm9.02,3.617c-.049-.084-.467-.761-.929-1.506l-.841-1.354V12.343H18.092V19.88h4.924Zm-5.753-2.468c.007-.008.023-.824.033-1.812l.02-1.8H14.834V17.3L16,17.288c.64-.006,1.17-.018,1.178-.027Zm-3.267-6.323V10.4H12.184v1.086h1.724Zm5.94,0V10.4H18.092v1.086h1.756Z" class="aw-theme-iconOutline" fill="#464646"/>
    <path id="rect828-1-1" d="M0,3v8H9V10H1V4H16V8h1V3Z" class="aw-theme-iconOutline" fill="#464646"/>
    <path id="path839-1-2-8-6" d="M5.777,5.9a.5.5,0,1,1-.5.5A.5.5,0,0,1,5.777,5.9Z" class="aw-theme-iconOutline" fill="#464646"/>
    <path id="path837-1-2-26-4" d="M3.939,5.9a.5.5,0,1,1-.5.5A.5.5,0,0,1,3.939,5.9Z" class="aw-theme-iconOutline" fill="#464646"/>
    <path id="path839-2-4-1-9-1" d="M7.616,5.9a.5.5,0,1,1-.5.5A.5.5,0,0,1,7.616,5.9Z" class="aw-theme-iconOutline" fill="#464646"/>
    <path id="path837-1-2-2-5-1" d="M2.1,5.9a.5.5,0,1,1-.5.5A.5.5,0,0,1,2.1,5.9Z" class="aw-theme-iconOutline" fill="#464646"/>
    <path id="path837-1-2-26-1-0" d="M11.293,5.9a.5.5,0,1,1-.5.5A.5.5,0,0,1,11.293,5.9Z" class="aw-theme-iconOutline" fill="#464646"/>
    <path id="path837-1-2-2-5-5-5" d="M9.454,5.9a.5.5,0,1,1-.5.5A.5.5,0,0,1,9.454,5.9Z" class="aw-theme-iconOutline" fill="#464646"/>
    <path id="path839-1-2-8-7-3" d="M6.677,4.7a.5.5,0,1,1-.5.5A.5.5,0,0,1,6.677,4.7Z" class="aw-theme-iconOutline" fill="#464646"/>
    <path id="path837-1-2-26-7-7" d="M4.839,4.7a.5.5,0,1,1-.5.5A.5.5,0,0,1,4.839,4.7Z" class="aw-theme-iconOutline" fill="#464646"/>
    <path id="path839-2-4-1-9-3-3" d="M8.516,4.7a.5.5,0,1,1-.5.5A.5.5,0,0,1,8.516,4.7Z" class="aw-theme-iconOutline" fill="#464646"/>
    <path id="path837-1-2-2-5-6-3" d="M3,4.7a.5.5,0,1,1-.5.5A.5.5,0,0,1,3,4.7Z" class="aw-theme-iconOutline" fill="#464646"/>
    <path id="path837-1-2-26-1-5-44" d="M12.193,4.7a.5.5,0,1,1-.5.5A.5.5,0,0,1,12.193,4.7Z" class="aw-theme-iconOutline" fill="#464646"/>
    <path id="path837-1-2-2-5-5-8-4" d="M10.354,4.7a.5.5,0,1,1-.5.5h0A.5.5,0,0,1,10.354,4.7Z" class="aw-theme-iconOutline" fill="#464646"/>
    <path id="path839-1-2-8-7-8-0" d="M6.677,7.1a.5.5,0,1,1-.5.5A.5.5,0,0,1,6.677,7.1Z" class="aw-theme-iconOutline" fill="#464646"/>
    <path id="path837-1-2-26-7-3-0" d="M4.839,7.1a.5.5,0,1,1-.5.5A.5.5,0,0,1,4.839,7.1Z" class="aw-theme-iconOutline" fill="#464646"/>
    <path id="path839-2-4-1-9-3-9-4" d="M8.516,7.1a.5.5,0,1,1-.5.5A.5.5,0,0,1,8.516,7.1Z" class="aw-theme-iconOutline" fill="#464646"/>
    <path id="path837-1-2-2-5-6-7-5" d="M3,7.1a.5.5,0,1,1-.5.5A.5.5,0,0,1,3,7.1Z" class="aw-theme-iconOutline" fill="#464646"/>
    <path id="path837-1-2-26-1-5-4-9" d="M12.193,7.1a.5.5,0,1,1-.5.5A.5.5,0,0,1,12.193,7.1Z" class="aw-theme-iconOutline" fill="#464646"/>
    <path id="path837-1-2-2-5-5-8-6-5" d="M10.354,7.1a.5.5,0,1,1-.5.5h0A.5.5,0,0,1,10.354,7.1Z" class="aw-theme-iconOutline" fill="#464646"/>
    <path id="path839-1-2-8-6-8" d="M5.777,8.3a.5.5,0,1,1-.5.5A.5.5,0,0,1,5.777,8.3Z" class="aw-theme-iconOutline" fill="#464646"/>
    <path id="path837-1-2-26-4-1" d="M3.939,8.3a.5.5,0,1,1-.5.5A.5.5,0,0,1,3.939,8.3Z" class="aw-theme-iconOutline" fill="#464646"/>
    <path id="path839-2-4-1-9-1-3" d="M7.616,8.3a.5.5,0,1,1-.5.5A.5.5,0,0,1,7.616,8.3Z" class="aw-theme-iconOutline" fill="#464646"/>
    <path id="path837-1-2-2-5-1-4" d="M2.1,8.3a.5.5,0,1,1-.5.5A.5.5,0,0,1,2.1,8.3Z" class="aw-theme-iconOutline" fill="#464646"/>
    <path id="path837-1-2-2-5-5-5-2" d="M9.454,8.3a.5.5,0,1,1-.5.5A.5.5,0,0,1,9.454,8.3Z" class="aw-theme-iconOutline" fill="#464646"/>
    <path id="path839-1-2-8-6-1" d="M14.97,5.9a.5.5,0,1,1-.5.5A.5.5,0,0,1,14.97,5.9Z" class="aw-theme-iconOutline" fill="#464646"/>
    <path id="path837-1-2-26-4-11" d="M13.131,5.9a.5.5,0,1,1-.5.5A.5.5,0,0,1,13.131,5.9Z" class="aw-theme-iconOutline" fill="#464646"/>
    <path id="path837-1-2-26-7-7-8" d="M14.031,4.7a.5.5,0,1,1-.5.5A.5.5,0,0,1,14.031,4.7Z" class="aw-theme-iconOutline" fill="#464646"/>
    <path id="path837-1-2-26-7-3-0-2" d="M14.031,7.1a.5.5,0,1,1-.5.5A.5.5,0,0,1,14.031,7.1Z" class="aw-theme-iconOutline" fill="#464646"/>
  </g>
</svg>
