<svg id="Layer_1" data-name="Layer 1" xmlns="http://www.w3.org/2000/svg" viewBox="0 0 24 24">
  <g id="g893">
    <path id="path854" d="M4.81,7.584A2.4,2.4,0,0,1,2.966,5.9,1.7,1.7,0,0,1,2.9,5.258a1.82,1.82,0,0,1,.057-.623A2.415,2.415,0,0,1,4.7,2.94a2.8,2.8,0,0,1,1.048-.012A2.37,2.37,0,0,1,7.393,4.244a2.054,2.054,0,0,1,.215.785,2.318,2.318,0,0,1-.656,1.865,2.4,2.4,0,0,1-1.108.654A2.967,2.967,0,0,1,4.81,7.584Z" class="aw-theme-iconOutline" fill="#464646"/>
    <path id="path856" d="M8.376,8.669l-.671-.654.318-.33.319-.33.213.2c.117.108.424.4.683.653l.471.457-.331.33-.33.331Z" class="aw-theme-iconOutline" fill="#464646"/>
    <path id="path858" d="M4.789,9.554v-.94H5.7V10.5H4.789Z" class="aw-theme-iconOutline" fill="#464646"/>
    <path id="path860" d="M1.324,8.991l-.317-.336.423-.408.677-.654.254-.246.322.336.322.336-.487.47c-.268.259-.575.553-.682.654l-.194.184Z" class="aw-theme-iconOutline" fill="#464646"/>
    <path id="path862" d="M.009,5.245v-.47H1.891v.94H.009Z" class="aw-theme-iconOutline" fill="#464646"/>
    <path id="path864" d="M1.98,2.361c-.363-.348-.663-.643-.667-.656a2.668,2.668,0,0,1,.308-.351l.315-.329.289.279.678.658.389.378-.313.321c-.172.177-.319.324-.326.328S2.343,2.71,1.98,2.361Z" class="aw-theme-iconOutline" fill="#464646"/>
    <path id="path866" d="M4.789.961V.02H5.7V1.9H4.789Z" class="aw-theme-iconOutline" fill="#464646"/>
    <path id="path868" d="M7.751,2.69l-.327-.328.456-.439.679-.655.223-.216.243.241c.133.132.277.283.32.336l.077.1-.48.462c-.263.255-.566.546-.671.647l-.192.184Z" class="aw-theme-iconOutline" fill="#464646"/>
    <path id="path870" d="M13.726,10.531a.36.36,0,0,1-.206-.229c-.089-.232-.081-.243,1.038-1.392a8.954,8.954,0,0,0,.629-.682c0-.065-.172-.739-.251-.988a2.792,2.792,0,0,0-.2-.444c-.432-.739-.5-1.026-.323-1.416a1.084,1.084,0,0,1,.728-.545,1.312,1.312,0,0,0,.205-.086c.027-.025-.01-.142-.139-.449a1.227,1.227,0,0,1,.133-1.344,1.192,1.192,0,0,1,.882-.394,1.668,1.668,0,0,0,1.1-.415,1.349,1.349,0,0,0,.367-.969,1.481,1.481,0,0,1,.236-.75A.923.923,0,0,1,18.361.1a1.191,1.191,0,0,1,.755.03A2.115,2.115,0,0,1,20.01.9c.182.278.2.292.356.292A2.639,2.639,0,0,0,21.485.726,1.5,1.5,0,0,1,22.42.465a.828.828,0,0,1,.5.08,1.077,1.077,0,0,1,.633,1.039,1.951,1.951,0,0,1-.383,1.144,1.7,1.7,0,0,0-.339,1.066,1.223,1.223,0,0,0,.245.2,2.1,2.1,0,0,1,.8.918.884.884,0,0,1,.067.424.7.7,0,0,1-.082.438A1.044,1.044,0,0,1,23,6.318l-.463.069a1.088,1.088,0,0,0-.646.311,1.621,1.621,0,0,0-.42,1.053c-.016.16-.042.342-.057.405a1.069,1.069,0,0,1-.574.705l-.194.1H19.98l-.309-.134a2.687,2.687,0,0,0-.348-.133c-.035,0-.095.126-.157.33a1.115,1.115,0,0,1-.518.629.649.649,0,0,1-.384.069A1.427,1.427,0,0,1,17.39,9.4a2.677,2.677,0,0,0-.516-.26c-.226-.077-.98-.276-1.045-.276-.02,0-.412.368-.872.818s-.862.833-.894.851A.425.425,0,0,1,13.726,10.531Zm4.679-1.867c.155-.428.306-.629.555-.738a1.122,1.122,0,0,1,.975.106,1.939,1.939,0,0,0,.352.118.308.308,0,0,0,.291-.122,2.176,2.176,0,0,0,.064-.375,2.758,2.758,0,0,1,.249-.959,2,2,0,0,1,1.72-1.158c.375-.041.483-.071.509-.141.065-.169-.19-.506-.575-.762a1.142,1.142,0,0,1-.457-.478c-.21-.461-.092-1.042.377-1.867.221-.388.245-.455.247-.686,0-.164-.007-.193-.062-.248s-.085-.062-.238-.062a1.144,1.144,0,0,0-.7.258,2.529,2.529,0,0,1-1.535.458,1.012,1.012,0,0,1-.779-.532,1.265,1.265,0,0,0-.667-.6c-.146-.03-.175.033-.228.488a2.275,2.275,0,0,1-.377,1.121,2.18,2.18,0,0,1-.945.717,2.667,2.667,0,0,1-.776.174c-.338.034-.423.063-.471.155-.059.114-.044.248.054.482a1.7,1.7,0,0,1,.2.727.6.6,0,0,1-.067.346,1.178,1.178,0,0,1-.763.553.466.466,0,0,0-.188.095c-.025.066.045.244.183.465.074.119.164.274.2.345a5.715,5.715,0,0,1,.286.818.681.681,0,0,0,.061.185c.008,0,.159-.146.336-.324l.321-.324.012-.908c.011-.838.016-.914.061-.991a.407.407,0,0,1,.706,0c.047.079.053.139.061.552a2.45,2.45,0,0,0,.03.464c.011,0,.242-.229.512-.509L18.429,5l.013-.925.012-.926.088-.091a.4.4,0,0,1,.545-.036c.128.1.144.167.161.674l.015.471.3-.3.3-.3L20,3.56a.54.54,0,0,1,.218.02.467.467,0,0,1,.243.292c.034.179,0,.24-.306.574a3.931,3.931,0,0,0-.292.335,3.1,3.1,0,0,0,.479.019c.455,0,.483,0,.563.057a.384.384,0,0,1,.171.37.4.4,0,0,1-.181.321c-.067.051-.111.053-.983.066L19,5.626l-.5.5c-.272.272-.5.5-.5.513a3.574,3.574,0,0,0,.49.025c.465.008.493.012.572.068a.369.369,0,0,1,.159.337.4.4,0,0,1-.172.345c-.064.043-.143.047-.99.054l-.92.008-.319.331c-.176.183-.32.34-.32.35a1.931,1.931,0,0,0,.328.11,2.873,2.873,0,0,1,.921.394c.262.176.395.238.493.23C18.321,8.881,18.332,8.866,18.405,8.664Z" class="aw-theme-iconOutline" fill="#464646"/>
    <path id="path872" d="M5.081,23.968a1.169,1.169,0,0,1-.643-.344,2.148,2.148,0,0,1-.411-1.541V21.76L3.791,22c-.584.607-1.073.85-1.558.774a1.289,1.289,0,0,1-.978-.863c-.162-.525.066-1.072.716-1.715a3.093,3.093,0,0,0,.25-.264.634.634,0,0,0-.2,0A3.976,3.976,0,0,1,.963,19.85a1.235,1.235,0,0,1-.881-.775,1.53,1.53,0,0,1,0-.83c.229-.627.864-.924,1.883-.879l.287.012-.315-.321a2.084,2.084,0,0,1-.71-1.157,1.184,1.184,0,0,1,.586-1.2,1.076,1.076,0,0,1,1.145-.052,2.471,2.471,0,0,1,.765.587l.318.312,0-.476a2.068,2.068,0,0,1,.186-1.063,1.24,1.24,0,0,1,.555-.575c.167-.082.174-.083.526-.083s.357,0,.534.087a1.3,1.3,0,0,1,.678.932,2.481,2.481,0,0,1,.058.7c0,.262,0,.476.009.476s.111-.109.239-.243c.838-.876,1.62-1.027,2.219-.429a1.341,1.341,0,0,1,.26.36.751.751,0,0,1,.1.489.863.863,0,0,1-.079.476,2.73,2.73,0,0,1-.625.858c-.165.167-.3.3-.3.307s.141,0,.314-.008a2.139,2.139,0,0,1,1.522.4,1.127,1.127,0,0,1,.376.88,1.1,1.1,0,0,1-.29.815,1.748,1.748,0,0,1-1.473.468H8.394l.315.323a2.575,2.575,0,0,1,.6.8,1.137,1.137,0,0,1-.254,1.377,1.05,1.05,0,0,1-.644.343,1.352,1.352,0,0,1-.976-.255,5.148,5.148,0,0,1-.5-.435c-.182-.18-.337-.326-.343-.326s-.012.226-.013.5a2.044,2.044,0,0,1-.187,1.058,1.18,1.18,0,0,1-1.311.65Zm.514-.776a.762.762,0,0,0,.226-.417,6.507,6.507,0,0,0-.052-1.7c-.038-.23-.071-.421-.074-.424s-.09.006-.2.019a1.619,1.619,0,0,1-.381,0,1.326,1.326,0,0,0-.2-.017,10.922,10.922,0,0,0-.156,1.166,4.5,4.5,0,0,0,.048,1.015.7.7,0,0,0,.237.38A.688.688,0,0,0,5.6,23.192Zm-3-1.161a3.086,3.086,0,0,0,1.016-.909,8.379,8.379,0,0,0,.573-.785.672.672,0,0,0-.129-.118,2.185,2.185,0,0,1-.27-.273l-.141-.171-.13.094c-.922.665-1.445,1.194-1.558,1.579a.379.379,0,0,0,.1.425A.426.426,0,0,0,2.59,22.031Zm5.878-.042a.484.484,0,0,0,.188-.625A4.161,4.161,0,0,0,7.4,20.078L7,19.773l-.112.138a3.192,3.192,0,0,1-.278.287l-.165.149.292.392a6.722,6.722,0,0,0,.685.828C7.882,22.03,8.222,22.167,8.468,21.989ZM5.555,19.927a1.326,1.326,0,0,0,1-.954,1.274,1.274,0,1,0-1.8.842A1.218,1.218,0,0,0,5.555,19.927Zm-2.813-.786c.2-.029.407-.062.47-.072l.113-.02v-.8l-.152-.025a6.032,6.032,0,0,0-1.3-.116c-.6,0-.746.02-.927.144a.4.4,0,0,0-.2.374.42.42,0,0,0,.185.426,1.353,1.353,0,0,0,.434.144A8.52,8.52,0,0,0,2.742,19.141Zm6.555.048a.878.878,0,0,0,.486-.2.626.626,0,0,0,.011-.655.984.984,0,0,0-.49-.214,7.079,7.079,0,0,0-1.577.064c-.236.036-.435.065-.44.065s0,.026.009.057a2.7,2.7,0,0,1,.021.4l0,.342.19.033A6.579,6.579,0,0,0,9.3,19.189ZM7.412,17.216a4.531,4.531,0,0,0,1.2-1.193.486.486,0,0,0-.179-.709c-.313-.212-.808.109-1.5.978a6.567,6.567,0,0,0-.489.679.772.772,0,0,0,.135.134,3.315,3.315,0,0,1,.271.272c.118.134.144.153.18.127S7.225,17.358,7.412,17.216Zm-3.495.02.278-.277L4.079,16.8a6.388,6.388,0,0,0-1.292-1.414.566.566,0,0,0-.494-.125.778.778,0,0,0-.315.274.575.575,0,0,0,.029.47,4.45,4.45,0,0,0,1.2,1.2c.227.169.417.308.421.308S3.764,17.388,3.917,17.236ZM5.741,16.4a6.962,6.962,0,0,0,.116-1.272,1.578,1.578,0,0,0-.135-.849c-.093-.167-.169-.207-.4-.206a.59.59,0,0,0-.276.044c-.235.127-.345.644-.288,1.353.025.325.113,1.02.143,1.144.012.048.034.051.4.053l.39,0,.042-.269Z" class="aw-theme-iconOutline" fill="#464646"/>
    <path id="path874" d="M18.461,23.17l-.007-.825-.708.661c-.39.363-.719.657-.731.653a5.681,5.681,0,0,1-.531-.48c0-.011.446-.429.991-.93l.992-.911v-.9c0-.847,0-.9.051-1a.723.723,0,0,0,.051-.115.435.435,0,0,0-.146.068c-.081.046-.524.285-.984.532l-.838.448-.042.125c-.023.068-.155.512-.294.986-.3,1.016-.263.963-.573.9-.256-.053-.388-.116-.4-.191a5.438,5.438,0,0,1,.162-.655,5.7,5.7,0,0,0,.156-.613c-.013-.013-.85.417-1.155.593l-.107.062-.113-.177c-.063-.1-.138-.224-.167-.282-.054-.105-.054-.106-.005-.175a3.023,3.023,0,0,1,.555-.341c.278-.15.528-.289.555-.309.058-.043.118-.023-.712-.229-.308-.076-.579-.146-.6-.155-.075-.031-.077-.108-.007-.35s.117-.324.2-.324c.028,0,.493.107,1.032.239s1.016.246,1.059.255c.066.014.2-.052.977-.464.5-.264.9-.49.908-.5a7.462,7.462,0,0,0-1.2-.673l-.61-.327-1,.243c-.986.24-1.23.28-1.274.209a4.755,4.755,0,0,1-.172-.592c.005,0,.327-.086.716-.183a6.076,6.076,0,0,0,.709-.2,5.894,5.894,0,0,0-.606-.348,6.653,6.653,0,0,1-.606-.347,2.224,2.224,0,0,1,.152-.268c.218-.35.177-.351.906.033.323.17.59.306.594.3s-.071-.276-.167-.605-.174-.629-.175-.667a.121.121,0,0,1,.057-.107,1.386,1.386,0,0,1,.563-.12c.091.024.086.01.423,1.159.14.475.256.865.259.867.035.026,1.839.978,1.854.978s.021-.433.021-.961V16.2l-.992-.923c-.545-.507-.991-.925-.991-.928s.12-.117.266-.253l.266-.246.719.661.719.661.007-.826.007-.825h.786l.007.825.007.824.712-.656c.539-.5.721-.65.75-.633s.145.123.276.246l.237.225-.994.923-.994.923v.887c0,.837,0,.893-.051.987a.88.88,0,0,0-.051.111c0,.01.75-.392,1.663-.89l.317-.173.166-.56c.09-.308.225-.771.3-1.03s.134-.473.136-.475.5.123.617.158c.093.029.072.2-.105.813a4.041,4.041,0,0,0-.14.567,4.9,4.9,0,0,0,.485-.238,4.889,4.889,0,0,1,.63-.293c.193-.054.162-.073.346.22.11.176.132.247.093.307-.01.016-.27.164-.578.328s-.564.3-.57.308c-.027.022.063.048.676.2.517.128.667.174.7.217.05.061.047.091-.047.382s-.012.3-1.264-.007l-1.066-.261-.181.1c-1.107.589-1.666.9-1.661.915s.35.207,1.485.809l.361.192L22.6,19.5l1.086-.265.058.059a1.669,1.669,0,0,1,.2.607c-.011.01-.337.1-.725.192s-.706.182-.706.191.261.156.579.325.594.318.613.33c.041.026.031.048-.164.351L23.4,21.5l-.4-.164c-.221-.09-.514-.222-.651-.293a1.715,1.715,0,0,0-.258-.12s.059.241.14.525a3.9,3.9,0,0,1,.156.685l.008.168-.153.048a1.432,1.432,0,0,1-.328.053l-.176,0-.086-.255c-.047-.14-.18-.592-.3-1l-.21-.749-.647-.344-.945-.5-.3-.16v1.948l.991.915c.545.5.988.922.984.932a6.069,6.069,0,0,1-.532.479c-.01,0-.337-.3-.725-.658l-.707-.659-.007.824L19.254,24h-.786Z" class="aw-theme-iconOutline" fill="#464646"/>
    <path id="path876" d="M11.5,18.236V12.478H.009v-.966H11.5V.02h.991V11.512H23.984v.966H12.492V24H11.5Z" class="aw-theme-iconOutline" fill="#464646"/>
    <path id="path878" d="M8.6,5.245v-.47h1.881v.94H8.6Z" class="aw-theme-iconOutline" fill="#464646"/>
  </g>
</svg>
