<svg id="Livello_3" data-name="Livello 3" xmlns="http://www.w3.org/2000/svg" viewBox="0 0 24 24">
  <g id="g1349">
    <path id="rect825" d="M23.036,19h1v4h-1Z" class="aw-theme-iconOutline" fill="#464646"/>
    <path id="rect825-4" d="M20.036,19h1v4h-1Z" class="aw-theme-iconOutline" fill="#464646"/>
    <path id="rect825-0" d="M24.036,22v1h-4V22Z" class="aw-theme-iconOutline" fill="#464646"/>
    <path id="rect825-0-5" d="M24.036,19v1h-4V19Z" class="aw-theme-iconOutline" fill="#464646"/>
    <path id="rect825-2" d="M19,10h1v4H19Z" class="aw-theme-iconOutline" fill="#464646"/>
    <path id="rect825-4-0" d="M16,10h1v4H16Z" class="aw-theme-iconOutline" fill="#464646"/>
    <path id="rect825-0-1" d="M20,13v1H16V13Z" class="aw-theme-iconOutline" fill="#464646"/>
    <path id="rect825-0-5-0" d="M20,10v1H16V10Z" class="aw-theme-iconOutline" fill="#464646"/>
    <path id="rect825-2-4" d="M15.13,19h1v4h-1Z" class="aw-theme-iconOutline" fill="#464646"/>
    <path id="rect825-4-0-5" d="M12.13,19h1v4h-1Z" class="aw-theme-iconOutline" fill="#464646"/>
    <path id="rect825-0-1-8" d="M16.13,22v1h-4V22Z" class="aw-theme-iconOutline" fill="#464646"/>
    <path id="rect825-0-5-0-1" d="M16.13,19v1h-4V19Z" class="aw-theme-iconOutline" fill="#464646"/>
    <path id="rect825-2-7" d="M10,10h1v4H10Z" class="aw-theme-iconOutline" fill="#464646"/>
    <path id="rect825-4-0-6" d="M7,10H8v4H7Z" class="aw-theme-iconOutline" fill="#464646"/>
    <path id="rect825-0-1-4" d="M11,13v1H7V13Z" class="aw-theme-iconOutline" fill="#464646"/>
    <path id="rect825-0-5-0-2" d="M11,10v1H7V10Z" class="aw-theme-iconOutline" fill="#464646"/>
    <path id="rect825-2-1" d="M3,10H4v4H3Z" class="aw-theme-iconOutline" fill="#464646"/>
    <path id="rect825-4-0-4" d="M0,10H1v4H0Z" class="aw-theme-iconOutline" fill="#464646"/>
    <path id="rect825-0-1-9" d="M4,13v1H0V13Z" class="aw-theme-iconOutline" fill="#464646"/>
    <path id="rect825-0-5-0-4" d="M4,10v1H0V10Z" class="aw-theme-iconOutline" fill="#464646"/>
    <path id="rect825-2-0" d="M10,1h1V5H10Z" class="aw-theme-iconOutline" fill="#464646"/>
    <path id="rect825-4-0-3" d="M7,1H8V5H7Z" class="aw-theme-iconOutline" fill="#464646"/>
    <path id="rect825-0-1-6" d="M11,4V5H7V4Z" class="aw-theme-iconOutline" fill="#464646"/>
    <path id="rect825-0-5-0-3" d="M11,1V2H7V1Z" class="aw-theme-iconOutline" fill="#464646"/>
    <path id="rect971" d="M1.5,7H18V8H1.5Z" class="aw-theme-iconOutline" fill="#464646"/>
    <path id="rect973" d="M1.5,7.065h1v3.416h-1Z" class="aw-theme-iconOutline" fill="#464646"/>
    <path id="rect973-1" d="M8.5,7.354h1V10.77h-1Z" class="aw-theme-iconOutline" fill="#464646"/>
    <path id="rect973-19" d="M17.5,7h1v3.416h-1Z" class="aw-theme-iconOutline" fill="#464646"/>
    <path id="rect973-3" d="M8.5,4.746h1V8.162h-1Z" class="aw-theme-iconOutline" fill="#464646"/>
    <path id="rect971-3" d="M14.5,11.507v7.8h-1v-7.8Z" class="aw-theme-iconOutline" fill="#464646"/>
    <path id="rect971-1" d="M13.5,11.5h3v1h-3Z" class="aw-theme-iconOutline" fill="#464646"/>
    <path id="rect971-1-3" d="M19.39,11.5h3v1h-3Z" class="aw-theme-iconOutline" fill="#464646"/>
    <path id="rect971-3-6" d="M22.5,11.5v7.88h-1V11.5Z" class="aw-theme-iconOutline" fill="#464646"/>
    <path id="rect973-0" d="M1.5,13.733h1V16h-1Z" class="aw-theme-iconOutline" fill="#464646"/>
    <path id="rect973-31" d="M1.5,16.957h1v2h-1Z" class="aw-theme-iconOutline" fill="#464646"/>
    <path id="rect971-1-34" d="M1.5,21.5H3.637v1H1.5Z" class="aw-theme-iconOutline" fill="#464646"/>
    <path id="rect971-1-1" d="M5,21.5H7v1H5Z" class="aw-theme-iconOutline" fill="#464646"/>
    <path id="rect971-1-1-4" d="M11,21.5h1.733v1H11Z" class="aw-theme-iconOutline" fill="#464646"/>
    <path id="rect973-31-9" d="M1.5,19.99h1v1.721h-1Z" class="aw-theme-iconOutline" fill="#464646"/>
    <path id="rect971-1-1-3" d="M8,21.5h2v1H8Z" class="aw-theme-iconOutline" fill="#464646"/>
    <path id="rect1161" d="M7.515,10.373h3.02v2.913H7.515Z" class="aw-theme-iconOutline" fill="#464646"/>
    <path id="rect973-31-4" d="M8.5,13.758h1V16h-1Z" class="aw-theme-iconOutline" fill="#464646"/>
    <path id="rect971-1-34-2" d="M8.5,19.5h1.53v1H8.5Z" class="aw-theme-iconOutline" fill="#464646"/>
    <path id="rect971-1-1-5" d="M11,19.5h1.723v1H11Z" class="aw-theme-iconOutline" fill="#464646"/>
    <path id="rect973-31-9-3" d="M8.5,17h1v2.775h-1Z" class="aw-theme-iconOutline" fill="#464646"/>
  </g>
</svg>
