<svg id="Layer_1" data-name="Layer 1" xmlns="http://www.w3.org/2000/svg" viewBox="0 0 24 24">
  <g id="g822">
    <path id="path815" d="M14.866,23.922c-.12-.055-.173-.117-.438-.516-.636-.959-1.323-2.081-1.8-2.943-.358-.645-.936-1.826-1.086-2.221a4.079,4.079,0,0,1-.292-1.814,3.672,3.672,0,0,1,1.478-2.505,3.959,3.959,0,0,1,1.471-.67,3.234,3.234,0,0,1,.864-.086A3.779,3.779,0,0,1,18.85,16.4a3.972,3.972,0,0,1-.272,1.8c-.078.214-.373.857-.631,1.373a39.161,39.161,0,0,1-2.233,3.772c-.309.468-.361.53-.488.583A.59.59,0,0,1,14.866,23.922Zm.377-1.553a31.713,31.713,0,0,0,2.107-3.686,5.783,5.783,0,0,0,.489-1.263,2.423,2.423,0,0,0,.1-.778,2.622,2.622,0,0,0-.848-1.784,2.97,2.97,0,0,0-2.688-.724,2.886,2.886,0,0,0-1.967,1.514,2.621,2.621,0,0,0-.271.96,1.162,1.162,0,0,0,.015.4A6.646,6.646,0,0,0,13,19.2a31.407,31.407,0,0,0,1.758,3.03c.243.374.283.43.3.412S15.15,22.509,15.243,22.369Z" class="aw-theme-iconOutline" fill="#464646"/>
    <path id="path817" d="M14.858,18.24a1.693,1.693,0,0,1-.983-.47,1.585,1.585,0,0,1-.4-.663,1.691,1.691,0,0,1-.034-.731,1.619,1.619,0,0,1,1.223-1.239,1.961,1.961,0,0,1,.744-.007,1.571,1.571,0,0,1-.184,3.111,1.1,1.1,0,0,1-.367,0Zm.495-.959a.708.708,0,0,0,.34-.325.474.474,0,0,0,.054-.29.467.467,0,0,0-.048-.276.736.736,0,0,0-.973-.318.669.669,0,0,0,.352,1.267A.537.537,0,0,0,15.353,17.281Z" class="aw-theme-iconOutline" fill="#464646"/>
    <path id="path829" d="M22.035,4.051a1.974,1.974,0,0,0-1.4.6,1.824,1.824,0,0,0-.573,1.319l-.019.316-1.232.541c-.677.3-1.244.532-1.26.522a1.205,1.205,0,0,1-.141-.211,6.512,6.512,0,0,0-1.728-1.83,6.408,6.408,0,0,0-2.25-.959,5.646,5.646,0,0,0-1.95-.053,5.941,5.941,0,0,0-3.531,1.81,6.224,6.224,0,0,0-1.3,2.08l-.107.3-1.32-.867C4.5,7.144,3.9,6.742,3.883,6.729a.682.682,0,0,1,.025-.26,1.934,1.934,0,0,0-.541-1.795,1.94,1.94,0,0,0-2.8.014A1.839,1.839,0,0,0,0,6.182,1.877,1.877,0,0,0,.572,7.467a1.986,1.986,0,0,0,2.58.187.457.457,0,0,1,.209-.1c.022.009.695.451,1.5.98l1.457.961-.009.541A5.959,5.959,0,0,0,7.3,13.525c.141.211.215.35.2.375s-.913.882-1.994,1.911S3.435,17.781,3.313,17.9l-.223.217-.319-.107a1.549,1.549,0,0,0-.64-.1,1.8,1.8,0,0,0-1.4.58,1.815,1.815,0,0,0-.586,1.391,1.723,1.723,0,0,0,.075.559,2.073,2.073,0,0,0,1.384,1.357,2.114,2.114,0,0,0,.573.039,1.445,1.445,0,0,0,.644-.107A1.961,1.961,0,0,0,4.1,19.877a1.918,1.918,0,0,0-.209-.893l-.1-.2.08-.076c.826-.784,3.934-3.745,4.1-3.9l.221-.213.22.187a6.063,6.063,0,0,0,1.875,1.131,4.846,4.846,0,0,1,.719-1.738c-.057-.111-.116-.218-.166-.338l-.051-.127h.567a4.863,4.863,0,0,1,1.054-.924H10.484A12.442,12.442,0,0,1,10.211,11l-.023-.348h4.187l-.023.332c-.019.263-.092.689-.155,1.088A4.882,4.882,0,0,1,15.033,12l.051,0c.062-.438.129-.936.129-1.137v-.213h2.18l-.024.223a6.323,6.323,0,0,1-.437,1.512,4.834,4.834,0,0,1,1.431.945c.153.041.2.051.424.113l1.25.348.047.183a2.076,2.076,0,0,0,1,1.268,2.28,2.28,0,0,0,.916.223,1.977,1.977,0,1,0-.885-3.742,2.147,2.147,0,0,0-.871.865l-.107.224-.842-.234-1.1-.3-.257-.07.1-.344a5.538,5.538,0,0,0,.213-1.685,4.7,4.7,0,0,0-.189-1.52,3.176,3.176,0,0,1-.09-.4c.005-.006.557-.25,1.224-.543L20.4,7.189l.194.2a1.972,1.972,0,0,0,2.84.033,1.98,1.98,0,0,0-1.4-3.369Zm-9.7,1.062a.825.825,0,0,1,.32.094,2.556,2.556,0,0,1,.694.682,5.439,5.439,0,0,1,.408.879H10.969c-.089-.007-.162-.028-.162-.047a6.021,6.021,0,0,1,.568-1.043A1.182,1.182,0,0,1,12.334,5.113Zm9.721.151a.773.773,0,0,1,.746.715.759.759,0,0,1-.567.8l-.173.032a.635.635,0,0,1-.17-.014.776.776,0,0,1-.442-1.262A.733.733,0,0,1,22.055,5.264ZM1.986,5.3a.772.772,0,0,1,.746.715.761.761,0,0,1-.564.8c-.068.011-.146.023-.174.029a.635.635,0,0,1-.17-.014.776.776,0,0,1-.441-1.262A.729.729,0,0,1,1.986,5.3Zm12.121.15a6.657,6.657,0,0,1,1.061.563,4.34,4.34,0,0,1,.859.752v.006H14.721L14.6,6.445a5.6,5.6,0,0,0-.315-.646A2.427,2.427,0,0,1,14.107,5.447Zm-3.632.014-.084.135a7.033,7.033,0,0,0-.452.908l-.109.264H8.535a4.485,4.485,0,0,1,.9-.788,4.238,4.238,0,0,1,.945-.5ZM7.859,7.641H9.586c0,.014-.022.164-.049.3a13.941,13.941,0,0,0-.172,1.389c-.011.177-.026.356-.035.4l-.016.077H7.172L7.2,9.615a5.562,5.562,0,0,1,.514-1.679Zm2.645,0,3.572.029a15.692,15.692,0,0,1,.289,2.047v.092H10.2v-.1a14.354,14.354,0,0,1,.272-1.94Zm4.467,0h1.738l.166.347a5.792,5.792,0,0,1,.508,1.733v.088H15.252L15.23,9.58c-.073-.783-.158-1.443-.24-1.848ZM7.18,10.656H9.35v.182a10.639,10.639,0,0,0,.154,1.41c.045.269.082.536.082.561H7.828c-.121,0-.305-.655-.424-1.022a5,5,0,0,1-.224-1.051Zm14.841,2.065a.772.772,0,0,1,.745.715.757.757,0,0,1-.565.8l-.174.032a.638.638,0,0,1-.17-.014.776.776,0,0,1-.441-1.262A.733.733,0,0,1,22.021,12.721Zm-13.5.986H9.846l.078.195c.043.108.184.4.312.651a4.957,4.957,0,0,1,.223.463,1.746,1.746,0,0,1-.264-.1,5.131,5.131,0,0,1-1.472-1Zm-6.5,5.4a.751.751,0,0,1,.2,0,.771.771,0,1,1-.2,0Z" class="aw-theme-iconOutline" fill="#464646"/>
  </g>
</svg>
