<svg id="svg8" xmlns="http://www.w3.org/2000/svg" viewBox="0 0 24 24">
  <g id="g859">
    <path id="rect827" d="M10,23H24v1H10Z" class="aw-theme-iconOutline" fill="#464646"/>
    <path id="rect829" d="M10,11h1V23H10Z" class="aw-theme-iconOutline" fill="#464646"/>
    <path id="rect829-3" d="M23,11h1V23H23Z" class="aw-theme-iconOutline" fill="#464646"/>
    <path id="rect827-6" d="M10,10H24v1H10Z" class="aw-theme-iconOutline" fill="#464646"/>
    <path id="path823" d="M12,17.056l.826-.692,3.182,3.893,5.137-7.84.855.57-5.809,8.9Z" class="aw-theme-iconOutline" fill="#464646"/>
    <path id="rect827-1" d="M5,18h5v1H5Z" class="aw-theme-iconOutline" fill="#464646"/>
    <path id="rect829-7" d="M5,6H6V18H5Z" class="aw-theme-iconOutline" fill="#464646"/>
    <path id="rect829-3-5" d="M18,6h1v4H18Z" class="aw-theme-iconOutline" fill="#464646"/>
    <path id="rect827-6-9" d="M5,5H19V6H5Z" class="aw-theme-iconOutline" fill="#464646"/>
    <path id="rect827-1-8" d="M0,13H5v1H0Z" class="aw-theme-iconOutline" fill="#464646"/>
    <path id="rect829-7-4" d="M0,1H1V13H0Z" class="aw-theme-iconOutline" fill="#464646"/>
    <path id="rect829-3-5-3" d="M13,1h1V5H13Z" class="aw-theme-iconOutline" fill="#464646"/>
    <path id="rect827-6-9-3" d="M.1.1H13.9V.9H.1Z" class="aw-theme-iconOutline" fill="#464646"/>
    <path id="path823-8" d="M16.2,7.494,14.551,10h1.234l1.266-1.94ZM7.877,11.441l-.826.692L10,15.535V14.043Z" class="aw-theme-iconOutline" fill="#464646"/>
    <path id="path823-8-3" d="M11.238,2.49,9.593,5h1.235l1.265-1.939ZM2.919,6.438l-.826.691,2.953,3.4V9.039Z" class="aw-theme-iconOutline" fill="#464646"/>
    <path id="path952" d="M0,.5V0H14V1H0Z" class="aw-theme-iconOutline" fill="#464646"/>
  </g>
</svg>
