<svg id="Verb_Zone" xmlns="http://www.w3.org/2000/svg" viewBox="0 0 24 24">
  <g id="g3328">
    <path id="path2" d="M23.52,24H0V.48a.48.48,0,0,1,.96,0V23.04H23.52a.48.48,0,1,1,0,.96Z" class="aw-theme-iconOutline" fill="#464646"/>
    <path id="polygon4" d="M20.676,17.286,14.882,6.253l-3.473,5.854-2.093-8.2L5.479,9.241,2.917,1.884l-.944.329,3.194,9.174L8.876,6.229l2.161,8.464L14.829,8.3l4.962,9.448-1.766.927,4.215,2.663.2-4.982Z" class="aw-theme-iconOutline" fill="#464646"/>
    <path id="path925-9-4-56-4-37" d="M16.53,5.189h-.7v.347h.7Z" class="aw-theme-iconOutline" fill="#464646"/>
    <path id="path919-0-7-79-3-5" d="M15.13,5.189h-.7v.347h.7Z" class="aw-theme-iconOutline" fill="#464646"/>
    <path id="path889-6-9-3-4-2" d="M12.329,5.189h-.7v.347h.7Z" class="aw-theme-iconOutline" fill="#464646"/>
    <path id="path885-0-2-52-54-9" d="M10.926,5.189h-.7v.347h.7Z" class="aw-theme-iconOutline" fill="#464646"/>
    <path id="path889-6-9-4-5-7" d="M13.55,6.764v-.7H13.2v.7Z" class="aw-theme-iconOutline" fill="#464646"/>
    <path id="path885-0-2-63-0-5" d="M13.55,5.364v-.7H13.2v.7Z" class="aw-theme-iconOutline" fill="#464646"/>
    <path id="path879-4-0-04-6-6" d="M13.55,3.964v-.7H13.2v.7Z" class="aw-theme-iconOutline" fill="#464646"/>
    <path id="path877-0-0-63-9-6" d="M13.55,2.564v-.7H13.2v.7Z" class="aw-theme-iconOutline" fill="#464646"/>
    <path id="path925-0" d="M20.53,1.864v.7h-.347v-.7Z" class="aw-theme-iconOutline" fill="#464646"/>
    <path id="path921-6" d="M6.532,1.864v.7H6.184v-.7Z" class="aw-theme-iconOutline" fill="#464646"/>
    <path id="path919-0" d="M20.53,3.264v.7h-.347v-.7Z" class="aw-theme-iconOutline" fill="#464646"/>
    <path id="path911-4" d="M20.53,4.664v.7h-.347v-.7Z" class="aw-theme-iconOutline" fill="#464646"/>
    <path id="path905-7" d="M23.505,5.188v.348h-.7V5.188Z" class="aw-theme-iconOutline" fill="#464646"/>
    <path id="path903-9" d="M22.107,5.188v.348h-.7V5.188Z" class="aw-theme-iconOutline" fill="#464646"/>
    <path id="path901-3" d="M19.306,5.188v.348h-.7V5.188Z" class="aw-theme-iconOutline" fill="#464646"/>
    <path id="path889-7" d="M20.53,6.064v.7h-.347v-.7Z" class="aw-theme-iconOutline" fill="#464646"/>
    <path id="path887-1" d="M13.532,6.064v.7h-.35v-.7Z" class="aw-theme-iconOutline" fill="#464646"/>
    <path id="path885-3" d="M20.53,7.464v.7h-.347v-.7Z" class="aw-theme-iconOutline" fill="#464646"/>
    <path id="path879-2" d="M20.53,8.864v.7h-.347v-.7Z" class="aw-theme-iconOutline" fill="#464646"/>
    <path id="path869-7" d="M23.505,10.442v.348h-.7v-.348Z" class="aw-theme-iconOutline" fill="#464646"/>
    <path id="path867-7" d="M22.107,10.442v.348h-.7v-.348Z" class="aw-theme-iconOutline" fill="#464646"/>
    <path id="path861-9" d="M13.532,11.669v.7h-.35v-.7Z" class="aw-theme-iconOutline" fill="#464646"/>
    <path id="path855-9" d="M6.532,14.469v.7H6.184v-.7Z" class="aw-theme-iconOutline" fill="#464646"/>
    <path id="path853-3" d="M6.532,15.87v.7H6.184v-.7Z" class="aw-theme-iconOutline" fill="#464646"/>
    <path id="path849-1" d="M23.505,16.571v.35h-.7v-.35Z" class="aw-theme-iconOutline" fill="#464646"/>
    <path id="path847-2" d="M17.907,16.571v.35h-.7v-.35Z" class="aw-theme-iconOutline" fill="#464646"/>
    <path id="path845-0" d="M16.507,16.571v.35h-.7v-.35Z" class="aw-theme-iconOutline" fill="#464646"/>
    <path id="path843-8" d="M10.907,16.571v.35h-.7v-.35Z" class="aw-theme-iconOutline" fill="#464646"/>
    <path id="path837-1" d="M6.708,16.571v.35h-.7v-.35Z" class="aw-theme-iconOutline" fill="#464646"/>
    <path id="path835-9" d="M5.31,16.571v.35h-.7v-.35Z" class="aw-theme-iconOutline" fill="#464646"/>
    <path id="path833-9" d="M6.532,17.272v.7H6.184v-.7Z" class="aw-theme-iconOutline" fill="#464646"/>
    <path id="path829-5" d="M13.532,18.671v.7h-.35v-.7Z" class="aw-theme-iconOutline" fill="#464646"/>
    <path id="path825-6" d="M13.532,20.075v.7h-.35v-.7Z" class="aw-theme-iconOutline" fill="#464646"/>
    <path id="path821-7" d="M20.53,21.475V22h-.347v-.525Z" class="aw-theme-iconOutline" fill="#464646"/>
    <path id="path819-3" d="M13.532,21.475V22h-.35v-.525Z" class="aw-theme-iconOutline" fill="#464646"/>
    <path id="path954-5" d="M6.532,21.475V22H6.184v-.525Z" class="aw-theme-iconOutline" fill="#464646"/>
    <path id="path893-4-3" d="M6.708,5.188v.348h-.7V5.188Z" class="aw-theme-iconOutline" fill="#464646"/>
    <path id="path891-3-2" d="M5.307,5.188v.348h-.7V5.188Z" class="aw-theme-iconOutline" fill="#464646"/>
    <path id="path885-0-2-65" d="M14.439,10.445h.7v.347h-.7Z" class="aw-theme-iconOutline" fill="#464646"/>
    <path id="path925-9-4-4-5" d="M13.2,20.77v-.7h.347v.7Z" class="aw-theme-iconOutline" fill="#464646"/>
    <path id="path919-0-7-0-0" d="M13.2,19.37v-.7h.347v.7Z" class="aw-theme-iconOutline" fill="#464646"/>
    <path id="path911-5-7-3-1" d="M13.2,17.969v-.7h.347v.7Z" class="aw-theme-iconOutline" fill="#464646"/>
    <path id="path889-6-9-8-1" d="M13.2,16.564v-.7h.347v.7Z" class="aw-theme-iconOutline" fill="#464646"/>
    <path id="path885-0-2-5-1" d="M13.2,15.164v-.7h.347v.7Z" class="aw-theme-iconOutline" fill="#464646"/>
    <path id="path879-4-0-9-1" d="M13.2,13.764v-.7h.347v.7Z" class="aw-theme-iconOutline" fill="#464646"/>
    <path id="path877-0-0-0-1" d="M13.2,12.364v-.7h.347v.7Z" class="aw-theme-iconOutline" fill="#464646"/>
    <path id="path925-9-4-5-3" d="M13.2,15.164v-.7h.347v.7Z" class="aw-theme-iconOutline" fill="#464646"/>
    <path id="path919-0-7-7-4" d="M13.2,13.764v-.7h.347v.7Z" class="aw-theme-iconOutline" fill="#464646"/>
    <path id="path911-5-7-4-6" d="M13.2,12.364v-.7h.347v.7Z" class="aw-theme-iconOutline" fill="#464646"/>
    <path id="path877-0-0-1-2" d="M13.2,6.758v-.7h.347v.7Z" class="aw-theme-iconOutline" fill="#464646"/>
    <path id="path925-9-4-57-3" d="M6.21,4.657v.7h.347v-.7Z" class="aw-theme-iconOutline" fill="#464646"/>
    <path id="path919-0-7-9-7" d="M6.21,6.057v.7h.347v-.7Z" class="aw-theme-iconOutline" fill="#464646"/>
    <path id="path879-4-0-8-4" d="M6.21,11.664v.7h.347v-.7Z" class="aw-theme-iconOutline" fill="#464646"/>
    <path id="path877-0-0-18-2" d="M6.21,13.064v.7h.347v-.7Z" class="aw-theme-iconOutline" fill="#464646"/>
    <path id="path925-9-4-1-1" d="M12.958,16.564h.7v.347h-.7Z" class="aw-theme-iconOutline" fill="#464646"/>
    <path id="path919-0-7-8-7" d="M14.358,16.564h.7v.347h-.7Z" class="aw-theme-iconOutline" fill="#464646"/>
    <path id="path911-5-7-5-6" d="M15.759,16.564h.7v.347h-.7Z" class="aw-theme-iconOutline" fill="#464646"/>
    <path id="path889-6-9-9-1" d="M17.159,16.564h.7v.347h-.7Z" class="aw-theme-iconOutline" fill="#464646"/>
    <path id="path925-9-4-578-2" d="M3.193,16.55h.7V16.9h-.7Z" class="aw-theme-iconOutline" fill="#464646"/>
    <path id="path919-0-7-2-3" d="M4.593,16.55h.7V16.9h-.7Z" class="aw-theme-iconOutline" fill="#464646"/>
    <path id="path911-5-7-2-9" d="M5.993,16.55h.7V16.9h-.7Z" class="aw-theme-iconOutline" fill="#464646"/>
    <path id="path879-4-0-6-6" d="M10.193,16.55h.7V16.9h-.7Z" class="aw-theme-iconOutline" fill="#464646"/>
    <path id="path877-0-0-16-6" d="M11.593,16.55h.7V16.9h-.7Z" class="aw-theme-iconOutline" fill="#464646"/>
    <path id="path925-9-4-8-8" d="M3.268,10.44h.7v.347h-.7Z" class="aw-theme-iconOutline" fill="#464646"/>
    <path id="path889-6-9-29-6" d="M7.469,10.44h.7v.347h-.7Z" class="aw-theme-iconOutline" fill="#464646"/>
    <path id="path919-0-7-79-2" d="M4.6,5.189h.7v.347H4.6Z" class="aw-theme-iconOutline" fill="#464646"/>
    <path id="path911-5-7-22-8" d="M6.005,5.189h.7v.347h-.7Z" class="aw-theme-iconOutline" fill="#464646"/>
    <path id="path889-6-9-4-7" d="M6.184,6.764v-.7h.347v.7Z" class="aw-theme-iconOutline" fill="#464646"/>
    <path id="path885-0-2-63-7" d="M6.184,5.364v-.7h.347v.7Z" class="aw-theme-iconOutline" fill="#464646"/>
    <path id="path879-4-0-04-4" d="M6.184,3.964v-.7h.347v.7Z" class="aw-theme-iconOutline" fill="#464646"/>
    <path id="path877-0-0-63-5" d="M6.184,2.564v-.7h.347v.7Z" class="aw-theme-iconOutline" fill="#464646"/>
    <path id="path907-3" d="M2,5.189v.348h.525V5.189Z" class="aw-theme-iconOutline" fill="#464646"/>
    <path id="path883-6" d="M20.2,7.465v.7h.348v-.7Z" class="aw-theme-iconOutline" fill="#464646"/>
    <path id="path871-7" d="M2,10.443v.348h.525v-.348Z" class="aw-theme-iconOutline" fill="#464646"/>
    <path id="path863-3" d="M8.825,10.443v.348h.7v-.348Z" class="aw-theme-iconOutline" fill="#464646"/>
    <path id="path855-97" d="M20.2,14.47v.7h.348v-.7Z" class="aw-theme-iconOutline" fill="#464646"/>
    <path id="path851-4" d="M2,16.572v.35h.525v-.35Z" class="aw-theme-iconOutline" fill="#464646"/>
    <path id="path847-5" d="M8.825,16.572v.35h.7v-.35Z" class="aw-theme-iconOutline" fill="#464646"/>
    <path id="path895-4-4" d="M17.223,5.189v.348h.7V5.189Z" class="aw-theme-iconOutline" fill="#464646"/>
    <path id="path893-4-2" d="M20.024,5.189v.348h.7V5.189Z" class="aw-theme-iconOutline" fill="#464646"/>
    <path id="path877-0-79" d="M6.2,18.673v.7h.347v-.7Z" class="aw-theme-iconOutline" fill="#464646"/>
    <path id="path877-0-0-4" d="M9.491,10.446h-.7v.347h.7Z" class="aw-theme-iconOutline" fill="#464646"/>
    <path id="path925-9-4-57-8" d="M20.522,4.658v.7h-.347v-.7Z" class="aw-theme-iconOutline" fill="#464646"/>
    <path id="path919-0-7-9-6" d="M20.522,6.058v.7h-.347v-.7Z" class="aw-theme-iconOutline" fill="#464646"/>
    <path id="path911-5-7-0-2" d="M20.522,7.459v.7h-.347v-.7Z" class="aw-theme-iconOutline" fill="#464646"/>
    <path id="path889-6-9-2-0" d="M20.522,8.859v.7h-.347v-.7Z" class="aw-theme-iconOutline" fill="#464646"/>
    <path id="path885-0-2-7-21" d="M20.522,10.265v.7h-.347v-.7Z" class="aw-theme-iconOutline" fill="#464646"/>
    <path id="path879-4-0-8-1" d="M20.522,11.665v.7h-.347v-.7Z" class="aw-theme-iconOutline" fill="#464646"/>
    <path id="path877-0-0-18-5" d="M20.522,13.065v.7h-.347v-.7Z" class="aw-theme-iconOutline" fill="#464646"/>
    <path id="path889-6-9-9-4" d="M9.573,16.565h-.7v.347h.7Z" class="aw-theme-iconOutline" fill="#464646"/>
    <path id="path885-0-2-6-1" d="M8.17,16.565h-.7v.347h.7Z" class="aw-theme-iconOutline" fill="#464646"/>
    <path id="path911-5-7-31-9" d="M20.663,10.441h-.7v.347h.7Z" class="aw-theme-iconOutline" fill="#464646"/>
    <path id="path889-6-9-29-4" d="M19.263,10.441h-.7v.347h.7Z" class="aw-theme-iconOutline" fill="#464646"/>
    <path id="path911-5-7-22-9" d="M20.727,5.19h-.7v.347h.7Z" class="aw-theme-iconOutline" fill="#464646"/>
    <path id="path919-0-7-4-5" d="M6.539,20.765v-.7h-.35v.7Z" class="aw-theme-iconOutline" fill="#464646"/>
    <path id="path911-5-7-1-2" d="M6.539,19.365v-.7h-.35v.7Z" class="aw-theme-iconOutline" fill="#464646"/>
    <path id="path919-0-7-95-0" d="M20.548,9.565v-.7H20.2v.7Z" class="aw-theme-iconOutline" fill="#464646"/>
    <path id="path911-5-7-22-9-3" d="M13.737,5.191h-.7v.347h.7Z" class="aw-theme-iconOutline" fill="#464646"/>
  </g>
</svg>
