<svg id="Layer_1" data-name="Layer 1" xmlns="http://www.w3.org/2000/svg" viewBox="0 0 24 24">
  <g id="g840">
    <path id="path824" d="M1.271,13.719c-.048-.216.056-.507.181-.507.038,0,.069-.21.069-.465a7.808,7.808,0,0,1,.137-1.172A7.767,7.767,0,0,1,3.5,7.677a1.342,1.342,0,0,0,.391-.62,1.123,1.123,0,0,0-.4-.749A8.13,8.13,0,0,1,1.634,2.317c-.209-1.206-.12-1.845.3-2.175A23.492,23.492,0,0,1,5.58.055c3.815,0,3.733-.006,4,.4.379.575-.019,2.8-.766,4.289A6.337,6.337,0,0,1,7.735,6.322c-.533.6-.528.743.05,1.4A8.262,8.262,0,0,1,9.7,12.45c.036.554.076.742.179.845a.328.328,0,0,1,0,.517c-.119.107-.525.119-4.345.119H1.317Zm7.4-.948a7.563,7.563,0,0,0-.359-1.982,6.715,6.715,0,0,0-1.48-2.516,1.682,1.682,0,0,1-.5-1.282A1.727,1.727,0,0,1,6.9,5.637,6.129,6.129,0,0,0,8,3.99a8.459,8.459,0,0,0,.666-2.374L8.7,1.2H5.615c-1.7,0-3.087.024-3.087.054s.048.347.106.705A6.864,6.864,0,0,0,4.405,5.71a1.622,1.622,0,0,1,.484,1.4c-.026.607-.061.675-.795,1.543A6.947,6.947,0,0,0,2.639,12c-.061.372-.11.719-.111.77a13.243,13.243,0,0,0,3.05.072C7.256,12.825,8.649,12.8,8.674,12.771Z" class="aw-theme-iconOutline" fill="#464646"/>
    <path id="polygon2-2" d="M13,0V11.5l.993-.5V1H24V0Z" class="aw-theme-iconOutline" fill="#464646"/>
    <path id="path8-0" d="M16.486,7A1.494,1.494,0,0,0,15,8.5v1a1.535,1.535,0,0,0,.046.369h1.108a.5.5,0,0,1-.163-.369v-1a.5.5,0,0,1,.5-.5H24V7ZM20,10l.5,1H24V10Z" class="aw-theme-iconOutline" fill="#464646"/>
    <path id="path12-1" d="M15,2V4.707l1.984,2L18.678,5H24V4H18.968V3H24V2Zm.992,1h1.984V4.293l-.992,1-.992-1Z" class="aw-theme-iconOutline" fill="#464646"/>
    <path id="rect936" d="M23,12h1v1H23l-.5-1Z" class="aw-theme-iconOutline" fill="#464646"/>
    <path id="path2-2" d="M17.5,24A6.5,6.5,0,1,1,24,17.5h0A6.487,6.487,0,0,1,17.526,24H17.5Zm0-12A5.5,5.5,0,1,0,23,17.5h0A5.55,5.55,0,0,0,17.5,12Z" class="aw-theme-iconOutline" fill="#464646"/>
    <path id="path4-8" d="M18.546,13l-.708.708,1.647,1.646H17.461A3.269,3.269,0,0,0,16.2,21.641l.384-.923a2.269,2.269,0,0,1,.873-4.364h2.024L17.838,18l.708.708,2.5-2.5a.5.5,0,0,0,0-.707h0Z" class="aw-theme-iconOutline" fill="#464646"/>
    <path id="rect1341-1-1" d="M.569,0h10.06a.568.568,0,0,1,.569.57V.833a.568.568,0,0,1-.569.569H.569A.568.568,0,0,1,0,.833V.572A.568.568,0,0,1,.569,0Z" class="aw-theme-iconOutline" fill="#464646"/>
    <path id="rect1341-1-5-8" d="M.569,12.6h10.06a.568.568,0,0,1,.569.57v.261a.568.568,0,0,1-.569.569H.569A.568.568,0,0,1,0,13.431V13.17A.568.568,0,0,1,.569,12.6Z" class="aw-theme-iconOutline" fill="#464646"/>
    <path id="path1394-8" d="M5.463,6.292c-.019,0,.015.079.008.018-.024-.2-.319-.442-.528-.613A2.9,2.9,0,0,1,3.907,4.186a3.6,3.6,0,0,1-.1-.478V3.675H5.691c1.038,0,1.887,0,1.887.009s-.014.082-.031.17a2.986,2.986,0,0,1-.6,1.343,2.891,2.891,0,0,1-.475.47c-.158.132-.291.239-.362.3-.149.122-.294.21-.294.308l-.018.051-.076-.007a.828.828,0,0,0-.238.02Z" class="aw-theme-iconOutline" fill="#464646"/>
    <path id="path1394-2" d="M5.547,9.939c.187-.018,0-.045-.008.016-.024.2-.356.452-.564.623a2.9,2.9,0,0,0-1.037,1.511,3.411,3.411,0,0,0-.1.478V12.6H5.722c1.038,0,1.887,0,1.887-.009s-.014-.081-.031-.17a2.982,2.982,0,0,0-.6-1.342,2.892,2.892,0,0,0-.475-.471c-.158-.132-.273-.249-.342-.309a.818.818,0,0,1-.2-.225l-.08-.125-.133.01a1.157,1.157,0,0,1-.22-.011Z" class="aw-theme-iconOutline" fill="#464646"/>
    <path id="path1413-0" d="M5.813,5.954c0,.082,0,.164,0,.246s0,.158,0,.238a2.363,2.363,0,0,1,0,.238,1.92,1.92,0,0,0-.039.239.945.945,0,0,0,0,.2.711.711,0,0,0,.043.169.584.584,0,0,1,.067.2,1.545,1.545,0,0,1,.011.192c0,.067,0,.134,0,.2s0,.138,0,.207a.508.508,0,0,1-.053.183A.572.572,0,0,1,5.75,8.4a.275.275,0,0,0-.036.149.4.4,0,0,0,.062.16c.022.052.046.1.068.153a.542.542,0,0,1,.04.169c0,.062,0,.124,0,.186v.626c0,.042,0,.083,0,.125l-.331.183h0c0-.041,0-.083,0-.124V9.4c0-.06,0-.121,0-.181a.447.447,0,0,0-.034-.157c-.022-.05-.045-.1-.066-.15a.511.511,0,0,1-.069-.177.353.353,0,0,1,.024-.171.853.853,0,0,0,.085-.138.49.49,0,0,0,.059-.171c.008-.067,0-.136,0-.2v-.2a1.652,1.652,0,0,0-.007-.186.479.479,0,0,0-.064-.186A.742.742,0,0,1,5.438,7.3a.9.9,0,0,1,0-.207,1.753,1.753,0,0,1,.038-.241,1.5,1.5,0,0,0,.008-.233V6.382c0-.081,0-.163,0-.244l.332-.184Z" class="aw-theme-iconOutline" fill="#464646"/>
  </g>
</svg>
