<svg id="Layer_1" data-name="Layer 1" xmlns="http://www.w3.org/2000/svg" viewBox="0 0 24 24">
  <g id="g849">
    <path id="circle32" d="M17.213,5.813a6.736,6.736,0,0,0-3.734,1.126c.145.13.556.5.769.7a5.782,5.782,0,1,1,.086,9.97l-.77.7a6.779,6.779,0,1,0,3.649-12.49ZM11.75,8.594a6.756,6.756,0,0,0-.549.877c.039-.006.092-.007.129-.012l.406-.059Zm-.471,7.279a6.729,6.729,0,0,0,.485.74l0-.715Z" class="aw-theme-iconOutline" fill="#464646"/>
    <path id="path79" d="M.508,5.813A.5.5,0,0,0,0,6.305a.521.521,0,0,0,.021.152A13.323,13.323,0,0,0,4.07,13.066a11.356,11.356,0,0,0,7.071,2.36V18.02a.5.5,0,0,0,.5.5.507.507,0,0,0,.337-.129l6.009-5.467a.5.5,0,0,0,.034-.707c-.011-.011-.022-.023-.034-.033L11.977,6.717a.5.5,0,0,0-.836.371v2.5c-.143.025-.288.053-.436.072-4.664.589-7-.657-9.84-3.689A.5.5,0,0,0,.508,5.813Zm11.633,2.4,4.767,4.338-4.767,4.336V15a.5.5,0,0,0-.5-.5h0a10.413,10.413,0,0,1-6.932-2.2,11.138,11.138,0,0,1-2.83-4.049,10.719,10.719,0,0,0,8.953,2.4c.323-.04.606-.093.9-.15a.5.5,0,0,0,.407-.492Z" class="aw-theme-iconOutline" fill="#464646"/>
  </g>
</svg>
