<svg id="Artwork" xmlns="http://www.w3.org/2000/svg" viewBox="0 0 24 24">
  <g id="g849">
    <path id="path828" d="M4.336.977c-3.244,0-3.2,0-3.621.279a1.777,1.777,0,0,0-.607.754A15.967,15.967,0,0,0,.025,5L.013,7.8H1.124V5.138c0-2.566,0-2.665.08-2.792.167-.271.03-.26,3.2-.258a29.2,29.2,0,0,1,3.017.057c.133.047.2.162,1.047,1.691l.9,1.642,1.591.008,1.591.016H22.864V7.8h1.108V4.428H10.057L9.238,3.022c-.86-1.477-1-1.668-1.37-1.858S7.391.977,4.336.977Z" class="aw-theme-iconOutline" fill="#464646"/>
    <path id="rect869" d="M0,7.119H1.121V23H0Z" class="aw-theme-iconOutline" fill="#464646"/>
    <path id="rect871" d="M1.119,21.881H23.88V23H1.119Z" class="aw-theme-iconOutline" fill="#464646"/>
    <path id="rect873" d="M22.86,7.774h1.11V23H22.86Z" class="aw-theme-iconOutline" fill="#464646"/>
    <path id="rect845" d="M2.5,7.5v5h5v-5Zm1,1h3v3h-3Z" class="aw-theme-iconOutline" fill="#464646"/>
    <path id="rect845-2-4" d="M16.5,15h5v5h-5Z" class="aw-theme-iconOutline" fill="#464646"/>
    <path id="rect845-3" d="M9.5,7.5v5h5v-5Zm1,1h3v3h-3Z" class="aw-theme-iconOutline" fill="#464646"/>
    <path id="rect845-3-9" d="M16.5,12.5h5v-5h-5Zm1-1v-3h3v3Z" class="aw-theme-iconOutline" fill="#464646"/>
    <path id="rect845-3-54" d="M2.5,15v5h5V15Zm1,1h3v3h-3Z" class="aw-theme-iconOutline" fill="#464646"/>
    <path id="rect845-3-54-1" d="M14.5,15h-5v5h5Zm-1,1v3h-3V16Z" class="aw-theme-iconOutline" fill="#464646"/>
  </g>
</svg>
