<svg id="Image" xmlns="http://www.w3.org/2000/svg" viewBox="0 0 24 24">
  <g id="g832">
    <path id="path847" d="M6.717,4.783,4.227,7.031l1.08.35L2.672,14.705c-.057,0-.113-.017-.172-.017a2.529,2.529,0,1,0,1.137.285L6.26,7.688l1.158.373ZM2.438,15.689A1.5,1.5,0,0,1,4,17.126c0,.02,0,.041,0,.062a1.494,1.494,0,1,1-1.562-1.5Z" class="aw-theme-iconOutline" fill="#464646"/>
    <path id="path843" d="M7.77-.039A2.52,2.52,0,1,0,9.854,3.975l2.984,1.351-.465,1.125L15.7,6.012,13.654,3.354,13.221,4.4,10.273,3.066a2.451,2.451,0,0,0,.071-.566,2.521,2.521,0,0,0-2.5-2.54ZM7.844,1V4a1.5,1.5,0,0,1,0-3Z" class="aw-theme-iconOutline" fill="#464646"/>
    <path id="path839" d="M20.438,7.5a2.493,2.493,0,0,1-4.2,1.82L7.813,15.033l.668.918-3.333.354,1.36-3.064.716.983,8.428-5.717A2.5,2.5,0,1,1,20.438,7.5Z" class="aw-theme-iconOutline" fill="#464646"/>
    <path id="rect2" d="M11,22h5v1H11Z" class="aw-theme-iconOutline" fill="#464646"/>
    <path id="rect4" d="M22,22h2v1H22Z" class="aw-theme-iconOutline" fill="#464646"/>
    <path id="path6" d="M20,24H18a1,1,0,0,1-1-1V22a1,1,0,0,1,1-1h2a1,1,0,0,1,1,1v1A1,1,0,0,1,20,24Zm-2-2v1h2V22Z" class="aw-theme-iconOutline" fill="#464646"/>
    <path id="polygon8" d="M22.009,17.474l1.991.79V20H23V18.943l-2.294-.911.92-2.284-.389-.387-2.3.914L18.02,14H16.98l-.916,2.275-2.3-.914-.389.387.92,2.284L12,18.943V20H11V18.264l1.991-.79L12.2,15.505l1.324-1.315,1.986.788.8-1.978H18.7l.8,1.978,1.986-.788L22.8,15.505Z" class="aw-theme-iconOutline" fill="#464646"/>
  </g>
</svg>
