<svg id="Livello_3" data-name="Livello 3" xmlns="http://www.w3.org/2000/svg" viewBox="0 0 24 24">
  <g id="g953">
    <path id="path949" d="M17.082,19.9a2.487,2.487,0,0,1-2.153-1.857,3.152,3.152,0,0,1-.015-1.29,3.424,3.424,0,0,1,.208-.554,1.945,1.945,0,0,1,.457-.616,1.9,1.9,0,0,1,.649-.474,2.639,2.639,0,0,1,2.479.073,2.922,2.922,0,0,1,.873.874,2.641,2.641,0,0,1,.074,2.48,2.5,2.5,0,0,1-1.63,1.307A3,3,0,0,1,17.082,19.9Zm.846-1.113a1.561,1.561,0,0,0,.888-.926,1.145,1.145,0,0,0,.064-.55,1.109,1.109,0,0,0-.132-.586,1.575,1.575,0,0,0-.713-.712,1.026,1.026,0,0,0-.641-.12,1.039,1.039,0,0,0-.672.136,1.494,1.494,0,0,0-.394,2.417A1.518,1.518,0,0,0,17.928,18.786Z" class="aw-theme-iconOutline" fill="#464646"/>
    <path id="path947" d="M16.251,23.973c-.008-.015-.172-.5-.365-1.079s-.353-1.051-.358-1.051-.452.211-.993.47l-.982.469L12.766,22l-.786-.786.47-.983c.259-.541.464-.989.456-1s-.49-.173-1.071-.367l-1.056-.352-.009-1.133-.01-1.132,1.026-.353c.565-.194,1.032-.362,1.04-.374s-.2-.48-.457-1.04l-.47-1.018.788-.789.789-.788.98.473a10.673,10.673,0,0,0,1,.451c.012-.011.194-.471.406-1.021l.385-1,.13-.018.129-.018-.125-.432A8.538,8.538,0,0,0,14.86,7c-.473-.459-1.076-.4-1.637.162a9.944,9.944,0,0,0-1.69,3.069C10.218,13.374,9.758,14.261,9.059,15a2.419,2.419,0,0,1-1.806.91,1.683,1.683,0,0,1-1.284-.542,1.618,1.618,0,0,1-.365-.507,12.009,12.009,0,0,1-.543-4.146c-.011-.514-.028-1-.038-1.086-.018-.149-.02-.151-.187-.172a7.239,7.239,0,0,1-1.925-.45A3.753,3.753,0,0,1,.838,7.3C.605,6.813.586,6.659.586,5.256V4.018L.437,4a.533.533,0,0,1-.411-.4A.37.37,0,0,1,.078,3.31c.138-.26.087-.251,1.587-.271l1.348-.018.018-1.349C3.05.209,3.047.232,3.257.108A.5.5,0,0,1,3.92.28c.057.1.065.255.075,1.437l.011,1.322H7.019l.01-1.323c.01-1.2.017-1.332.076-1.422A.48.48,0,0,1,7.922.281c.066.108.07.189.07,1.436V3.039H9.307c1.451,0,1.462,0,1.6.226a.469.469,0,0,1-.2.671.733.733,0,0,1-.23.073H10.4V5.3c0,1.355-.016,1.514-.192,1.927a3.636,3.636,0,0,1-1.7,1.6,7.042,7.042,0,0,1-2.046.6c-.119.012-.275.031-.348.041l-.131.019L6,10.061a20.559,20.559,0,0,0,.342,3.994,1.147,1.147,0,0,0,.347.676.76.76,0,0,0,.633.2c.514-.033,1.04-.463,1.551-1.272a23.381,23.381,0,0,0,1.257-2.587c.743-1.789,1.013-2.4,1.283-2.93a4.665,4.665,0,0,1,1.853-2.208,2.062,2.062,0,0,1,1.5-.112c.67.237,1.12.743,1.709,1.927a14.553,14.553,0,0,1,.877,2.442l.159.558.5.01.5.01.179.511c.1.281.257.742.354,1.024a3.285,3.285,0,0,0,.2.512c.013,0,.465-.211,1-.47l.98-.469.783.784.784.784-.467.968c-.256.532-.466.986-.466,1.007s.085.07.189.107.581.212,1.061.39l.872.324-.009,1.137-.01,1.137-1,.345c-.549.189-1.008.354-1.02.366a10.936,10.936,0,0,0,.451,1l.472.982L22.094,22l-.786.786-.984-.471a8.445,8.445,0,0,0-1.009-.444c-.014.015-.2.5-.413,1.079L18.513,24H17.39c-.618,0-1.13-.012-1.139-.027Zm1.862-1.888c.357-.99.472-1.2.716-1.315.3-.142.379-.121,1.37.351l.9.429.261-.257a1.6,1.6,0,0,0,.26-.3c0-.022-.18-.418-.4-.88a7.089,7.089,0,0,1-.418-.987.71.71,0,0,1,.22-.61c.134-.128.236-.171,1.03-.434l.881-.293.01-.416.01-.416L22.8,16.9l-.889-.325c-.976-.355-1.149-.481-1.18-.856-.016-.185,0-.228.408-1.082l.423-.891-.273-.273-.274-.274-.892.427c-.772.369-.917.427-1.074.427a.547.547,0,0,1-.493-.256c-.037-.062-.2-.49-.371-.951s-.322-.884-.344-.939l-.04-.1-.417.01-.417.01-.327.9c-.354.972-.4,1.048-.7,1.18s-.441.082-1.387-.367c-.46-.219-.851-.4-.87-.4a1.846,1.846,0,0,0-.293.263l-.262.262.328.681c.181.375.369.778.419.9a.791.791,0,0,1-.184.977,5.582,5.582,0,0,1-1.009.423l-.883.32.01.413.01.413.906.33a7.682,7.682,0,0,1,1.036.43.66.66,0,0,1,.27.731c-.023.093-.217.536-.431.984l-.388.815.276.273.275.274.866-.414c.744-.355.892-.414,1.044-.414a.9.9,0,0,1,.647.316,8.962,8.962,0,0,1,.355.953c.152.459.284.847.292.861a1.786,1.786,0,0,0,.422.027H17.8ZM6.423,8.45A3.641,3.641,0,0,0,9.278,6.928l.135-.272.011-1.323.012-1.324H1.557V5.224c0,1.323.018,1.485.206,1.8a2.86,2.86,0,0,0,1.207.985,6.647,6.647,0,0,0,1.679.45A9.763,9.763,0,0,0,6.423,8.45Z" class="aw-theme-iconOutline" fill="#464646"/>
  </g>
</svg>
