<svg id="Layer_1" data-name="Layer 1" xmlns="http://www.w3.org/2000/svg" viewBox="0 0 24 24">
  <g id="g829">
    <path id="path839" d="M17.744,10.517A10.271,10.271,0,0,1,16.387,9.7c-2.347-1.467-2.8-1.759-2.859-1.832-.082-.1-.08-.065-.08-2.53V3l.038-.072c.073-.134-.054-.049,1.786-1.2A24.313,24.313,0,0,1,17.766.212a.529.529,0,0,1,.373.076c.349.215,2.13,1.324,2.787,1.738a7.524,7.524,0,0,1,1.3.878l.057.078,0,2.364c-.006,2.594,0,2.413-.112,2.548a27.625,27.625,0,0,1-2.353,1.5c-.9.562-1.678,1.044-1.734,1.072a.452.452,0,0,1-.337.047Zm-.368-2.986V5.87l-1.344-.84c-.739-.462-1.408-.883-1.486-.935a.536.536,0,0,0-.158-.086c-.016.01-.016,1.1,0,2.456l.011.876,1.483.926c.815.509,1.484.926,1.487.926S17.376,8.445,17.376,7.531Zm1.959,1.051,1.425-.89.571-.357V5.675c0-.912,0-1.659-.009-1.659s-.677.417-1.492.927l-1.484.927V9.2l.068-.041.921-.573Zm-.211-4.321C20.587,3.345,20.9,3.147,20.9,3.135s-.682-.435-1.515-.956L17.87,1.233l-.081.046c-.175.1-2.924,1.825-2.953,1.854-.008.007.348.241.791.52,1.8,1.13,2.208,1.385,2.23,1.386S18.439,4.69,19.124,4.261Z" class="aw-theme-iconOutline" fill="#464646"/>
    <path id="polygon2" d="M0,1V2H10V14l1-1V1ZM0,21v1H11l-1-1Z" class="aw-theme-iconOutline" fill="#464646"/>
    <path id="path8" d="M0,8V9H1.518a.5.5,0,0,1,.5.5v1a.5.5,0,0,1-.5.5H0v1H1.518a1.5,1.5,0,0,0,1.5-1.5v-1A1.5,1.5,0,0,0,1.518,8Z" class="aw-theme-iconOutline" fill="#464646"/>
    <path id="path12" d="M.018,3V4H5.072V5H.018V6H5.365L7.072,7.707l2-2V3ZM6.072,4h2V5.293l-1,1-1-1Z" class="aw-theme-iconOutline" fill="#464646"/>
    <path id="path8-04" d="M0,13v1H5.572a.5.5,0,0,1,.5.5v1a.5.5,0,0,1-.5.5H0v1H5.572a1.5,1.5,0,0,0,1.5-1.5h0v-1a1.5,1.5,0,0,0-1.5-1.5Z" class="aw-theme-iconOutline" fill="#464646"/>
    <path id="path6" d="M17.5,24A6.5,6.5,0,1,1,24,17.5,6.5,6.5,0,0,1,17.5,24Zm0-12A5.5,5.5,0,1,0,23,17.5h0A5.506,5.506,0,0,0,17.5,12Z" class="aw-theme-iconOutline" fill="#464646"/>
    <path id="path8-7" d="M17.5,21.249a.746.746,0,0,1-.728-.756.728.728,0,1,1,1.456,0h0A.746.746,0,0,1,17.5,21.249Z" class="aw-theme-iconOutline" fill="#464646"/>
    <path id="rect10" d="M17,14h1v5H17Z" class="aw-theme-iconOutline" fill="#464646"/>
  </g>
</svg>
