<svg id="Layer_1" data-name="Layer 1" xmlns="http://www.w3.org/2000/svg" viewBox="0 0 24 24">
  <g id="g881">
    <path id="path2" d="M18,8H2V1H18ZM3,7H17V2H3Z" class="aw-theme-iconOutline" fill="#464646"/>
    <path id="rect6" d="M0,9H2v1H0Z" class="aw-theme-iconOutline" fill="#464646"/>
    <path id="rect8" d="M3,9H5v1H3Z" class="aw-theme-iconOutline" fill="#464646"/>
    <path id="rect10" d="M6,9H8v1H6Z" class="aw-theme-iconOutline" fill="#464646"/>
    <path id="rect12" d="M9,9h2v1H9Z" class="aw-theme-iconOutline" fill="#464646"/>
    <path id="rect14" d="M12,9h2v1H12Z" class="aw-theme-iconOutline" fill="#464646"/>
    <path id="rect16" d="M15,9h2v1H15Z" class="aw-theme-iconOutline" fill="#464646"/>
    <path id="rect18" d="M18,9h2v1H18Z" class="aw-theme-iconOutline" fill="#464646"/>
    <path id="path2-5" d="M2,11v7h8.018c-.012-.166-.018-.333-.018-.5s.011-.334.025-.5H3V12h9.41a7.529,7.529,0,0,1,1.367-1Z" class="aw-theme-iconOutline" fill="#464646"/>
    <path id="path4-6" d="M17.5,24A6.5,6.5,0,1,1,24,17.5,6.5,6.5,0,0,1,17.5,24Zm0-12A5.5,5.5,0,1,0,23,17.5,5.5,5.5,0,0,0,17.5,12Z" class="aw-theme-iconOutline" fill="#464646"/>
    <path id="rect815" d="M20.474,15.1,17.26,19.479l-2.519-2.624-.689.774,3.325,3.324S21.3,15.732,21.268,15.7A7.982,7.982,0,0,0,20.474,15.1Z" class="aw-theme-iconOutline" fill="#464646" fill-rule="evenodd"/>
  </g>
</svg>
