<svg id="Image" xmlns="http://www.w3.org/2000/svg" viewBox="0 0 24 24">
  <g id="g826">
    <path id="path827" d="M19.8,0,8.2,2.6,7.4,1.2A1.424,1.424,0,0,0,6.2.6H1.4A1.367,1.367,0,0,0,0,2V21H11V20H1V7.6H23v7.8a7.977,7.977,0,0,1,1,1.148V3.6H20.6ZM19,1.2l1.2,5.4H3.8L3.4,4.7ZM1.4,1.6H6.3a1,1,0,0,1,.3.1l.6,1.1-5,1.1.6,2.7H1V2A.429.429,0,0,1,1.4,1.6Zm19.4,3H23v2H21.2Z" class="aw-theme-iconOutline" fill="#464646"/>
    <path id="path840-8" d="M17.813,17.45a3.489,3.489,0,0,1-2.059-3.06,2.136,2.136,0,0,1,.336-1.246,2.615,2.615,0,0,1,3.027-1.2,3.015,3.015,0,0,1,1.265.885A2.7,2.7,0,0,1,20.49,15.9C19.838,17.155,18.76,17.777,17.813,17.45Zm1.09-.921a2.273,2.273,0,0,0,1-1.376,2.82,2.82,0,0,0-.012-1.53,1.477,1.477,0,0,0-1.249-.85c-1.27-.146-1.972.429-1.972,1.615a2.315,2.315,0,0,0,1.322,2.245A1.564,1.564,0,0,0,18.9,16.529Z" class="aw-theme-iconOutline" fill="#464646"/>
    <path id="path836-2" d="M14.843,21.992V19.983h.966V24h-.966Z" class="aw-theme-iconOutline" fill="#464646"/>
    <path id="path838-4" d="M12.973,21.623c.016-2.324.021-2.44.124-2.712a3.308,3.308,0,0,1,1.676-1.85,1.736,1.736,0,0,1,.468-.179,1.47,1.47,0,0,1,.457.2,5.539,5.539,0,0,0,2.149.823,5.111,5.111,0,0,0,3.008-.769,2.271,2.271,0,0,1,.562-.252,4.507,4.507,0,0,1,1.151.553,3.657,3.657,0,0,1,1.29,1.574c.105.277.11.379.126,2.64L24,24h-.916l-.015-2.377-.015-2.377-.157-.28a2.728,2.728,0,0,0-1.1-.942l-.351-.184-.469.231a7.338,7.338,0,0,1-1.727.6l-.344.063.026.156c.056.337.484,3.757.472,3.766L18.916,23l-.478.334L18.1,23.1c-.186-.131-.406-.288-.489-.348l-.15-.11.218-1.721c.12-.946.232-1.814.247-1.928l.028-.208-.367-.06a5.014,5.014,0,0,1-1.636-.6l-.645-.331-.268.144a2.427,2.427,0,0,0-.99,1l-.147.32-.016,2.4L13.871,24h-.915Z" class="aw-theme-iconOutline" fill="#464646"/>
    <path id="path848-0" d="M21.1,21.992V19.983h.966V24H21.1Z" class="aw-theme-iconOutline" fill="#464646"/>
  </g>
</svg>
