<svg id="Image" xmlns="http://www.w3.org/2000/svg" viewBox="0 0 24 24">
  <g id="g817">
    <path id="path2-7" d="M8.355,0C6.6,0,4.707.472,4.707,1.51V2.793a.97.97,0,0,0,.428.77V6.975L3.463,10.457l-.008.02L1.914,13.691.1,17.477V17.5c-.011.026-.015.052-.024.078s-.022.063-.031.1A1.344,1.344,0,0,0,0,17.99C0,19.944,4.308,21,8.361,21c.339,0,.679-.009,1.018-.023a4.252,4.252,0,0,1,.031-.889c-.346.015-.685.037-1.055.037C3.719,20.125.873,18.883.873,18a.521.521,0,0,1,.033-.166l.02-.043c.389-.863,3.143-1.924,7.431-1.924a21.024,21.024,0,0,1,3.807.328c.315-.3.541-.506.76-.7a17.445,17.445,0,0,0-4.569-.5,17.423,17.423,0,0,0-6.626,1.127L3.8,11.8c.848.727,2.754,1.068,4.558,1.068s3.711-.341,4.559-1.068l1.1,2.345.768-.49-3.2-6.681V3.561a.963.963,0,0,0,.43-.768V1.51C12.008.472,10.114,0,8.355,0Zm0,.881a4.358,4.358,0,0,1,2.764.621c-.108.192-1.038.639-2.764.639A4.413,4.413,0,0,1,5.588,1.52C5.7,1.328,6.629.881,8.355.881Zm2.778,1.646v.244a.568.568,0,0,1-.195.163,5.837,5.837,0,0,1-2.6.49A5.818,5.818,0,0,1,6,3.02V3.006L5.75,2.918a1.164,1.164,0,0,1-.162-.125V2.529a7.023,7.023,0,0,0,2.771.492A7,7,0,0,0,11.133,2.527ZM10.7,3.965V7.074L11.844,9.49a9,9,0,0,0-1.92-.41H9.916c-.249-.029-.5-.049-.758-.064H9.094c-.248-.014-.5-.022-.742-.022s-.5.008-.743.022H7.543c-.254.015-.507.036-.756.064H6.775a9.116,9.116,0,0,0-1.869.393L5.969,7.266,6,3.967a6.541,6.541,0,0,0,2.057.344c.088,0,.184,0,.275-.008A6.628,6.628,0,0,0,10.7,3.965ZM8.352,9.871c.318,0,.616.012.9.031.095.007.182.018.273.026.186.016.37.035.539.058.078.011.147.023.221.035.176.03.353.059.508.094l.113.028c.183.043.352.088.508.138l.022.008a4.687,4.687,0,0,1,.441.166l.018.008a2.682,2.682,0,0,1,.275.146c.032.02.062.04.088.059a1.034,1.034,0,0,1,.1.078.5.5,0,0,1,.088.106.211.211,0,0,1,.037.078c0,.307-1.446,1.056-4.13,1.056s-4.133-.752-4.133-1.056c0-.022.025-.051.039-.077a.542.542,0,0,1,.094-.109.982.982,0,0,1,.093-.066.7.7,0,0,1,.106-.075,2.319,2.319,0,0,1,.252-.132l.043-.02c.122-.054.264-.108.418-.16l.039-.012c.149-.047.318-.093.5-.136l.115-.028c.158-.035.333-.064.512-.094.072-.011.141-.024.217-.035.17-.023.356-.043.545-.06.088-.008.175-.018.263-.024.284-.019.582-.031.9-.031Z" class="aw-theme-iconOutline" fill="#464646"/>
    <path id="path857" d="M16.386,23.042l2.14-2.05-.683-.655-2.135,2.052a2.658,2.658,0,0,1-3.57,0,2.364,2.364,0,0,1-.091-3.342c.029-.032.06-.062.091-.091.421-.4.772-.752,1.1-1.067,1.521-1.5,1.832-1.782,2.7-1.9l.032-.005A2.5,2.5,0,0,1,18.8,18.046l.956-.127V17.89A3.464,3.464,0,0,0,15.8,15.068h0c-1.216.169-1.689.634-3.262,2.178-.311.307-.668.655-1.083,1.054a3.264,3.264,0,0,0-.129,4.615q.063.066.129.129a3.587,3.587,0,0,0,4.927,0Z" class="aw-theme-iconOutline" fill="#464646"/>
    <path id="path2-5" d="M20.534,19.052l2.382-2.29a3.264,3.264,0,0,0,.128-4.615c-.041-.043-.084-.086-.128-.127a3.671,3.671,0,0,0-4.932,0l-2.142,2.048.685.655,2.134-2.052a2.658,2.658,0,0,1,3.57,0,2.365,2.365,0,0,1,.091,3.342c-.03.032-.06.062-.091.091l-2.375,2.289a2.552,2.552,0,0,1-4.282-1.377l-.956.125a3.531,3.531,0,0,0,5.92,1.91Z" class="aw-theme-iconOutline" fill="#464646"/>
  </g>
</svg>
