<svg id="Livello_1" data-name="Livello 1" xmlns="http://www.w3.org/2000/svg" viewBox="0 0 24 24">
  <g id="g827">
    <path id="path9" d="M2.165,21.943a2.548,2.548,0,0,1-1.283-.725A2.485,2.485,0,0,1,.173,20a1.826,1.826,0,0,1,.036-1.2c.051-.1,1.815-2.084,3.92-4.412s3.822-4.25,3.816-4.268S7.192,9.34,6.286,8.419L4.641,6.745l-.949.948-.95.948L1.371,7.251,0,5.861l.926-.9c.509-.5,1.832-1.8,2.94-2.89L5.879.082l.2.142a1.466,1.466,0,0,0,.905.328A1.625,1.625,0,0,0,8,.2L8.285,0l.791.81.791.81-1.224,1.2-1.224,1.2,1.588,1.61L10.6,7.231l.1-.088a3.831,3.831,0,0,0,.272-.3l.174-.208-.072-.367A10.514,10.514,0,0,1,11,4.021a4.139,4.139,0,0,1,.841-2.127A5.184,5.184,0,0,1,15.227.051c.576-.069.824-.033,1.078.154.318.234.408.351.43.562a.451.451,0,0,1-.066.323c-.047.073-.473.573-.945,1.111-.842.957-.865.987-1.006,1.369-.2.551-.443,1.267-.432,1.275s.326.282.713.619l.7.612.184-.069c.1-.038.453-.191.781-.34.553-.251.613-.29.834-.546a19.56,19.56,0,0,1,1.822-1.972c.193-.067.4.018.67.276.328.314.355.429.33,1.354A4.335,4.335,0,0,1,19.8,6.922,4.176,4.176,0,0,1,18.24,8.744a5.3,5.3,0,0,1-3.217.765h-.744l-.254.3-.334.386c-.076.089-.07.1.279.477a3.3,3.3,0,0,1,.342.4c-.01.006-.193.129-.41.271l-.395.259-.268-.308c-.148-.168-1.581-1.637-3.184-3.266l-3.047-3.1-.137-.142-.729.7-.729.7.747.768c.412.423,1.91,1.946,3.33,3.386,1.514,1.535,2.574,2.643,2.561,2.677a4.272,4.272,0,0,1-.258.395l-.235.338-.271-.268-.27-.268L7.422,17.422C5.446,19.738,3.8,21.66,3.76,21.692a2.209,2.209,0,0,1-.313.176,2.236,2.236,0,0,1-1.282.075M3.11,20.9c.061-.055,1.7-1.967,3.651-4.25l3.54-4.152-.809-.808-.808-.809-.162.166c-.089.092-1.794,1.974-3.79,4.183-3.578,3.961-3.628,4.02-3.628,4.2a1.66,1.66,0,0,0,.606,1.2c.4.33,1.167.475,1.4.266M13.293,9.11c.5-.589.525-.6,1.357-.584A4.928,4.928,0,0,0,17.8,7.837,3.823,3.823,0,0,0,19.2,5.68a4.667,4.667,0,0,0,.127-1.074c-.012-.013-.1.066-.189.175s-.426.485-.74.837l-.57.641-.949.428c-.521.236-1.016.442-1.1.459-.295.061-.441-.032-1.441-.915-.525-.464-.986-.89-1.021-.945-.172-.26-.107-.569.385-1.895l.275-.739.682-.773a6.862,6.862,0,0,0,.654-.8A3.862,3.862,0,0,0,12.326,3.03a3.881,3.881,0,0,0-.333,2.036A8.36,8.36,0,0,0,12.1,6.3c.125.641.107.691-.457,1.307l-.34.37.789.79c.434.433.8.787.811.786s.186-.2.387-.438M5.178,4.915,8.064,2.077,8.55,1.6l-.184-.184-.183-.184-.391.128a2.557,2.557,0,0,1-1.537.023l-.263-.094-.731.719C2.454,4.767,1.369,5.845,1.369,5.872c0,.043,1.341,1.413,1.378,1.407.017,0,1.111-1.066,2.431-2.364" class="aw-theme-iconOutline" fill="#464646"/>
    <path id="path824" d="M17.6,16.943s-.034-.214-.074-.469c-.066-.413-.072-.465-.054-.473s.307-.052.656-.105c.73-.111.708-.107.7-.122s-.075-.066-.158-.133a3.668,3.668,0,0,0-1.785-.846,2.119,2.119,0,0,0-.821.076,2.453,2.453,0,0,0-.509.265,3.189,3.189,0,0,0-.9,1.115c-.04.077-.075.142-.077.145s-.827-.431-.853-.449c0,0,.044-.074.257-.4a3.481,3.481,0,0,1,1.58-1.539,3.548,3.548,0,0,1,.8-.184,2.709,2.709,0,0,1,.693.013,5.155,5.155,0,0,1,2.084,1.014.733.733,0,0,0,.169.107c0-.008-.04-.289-.092-.625s-.092-.612-.089-.615.216-.038.473-.077l.467-.072.226,1.461c.124.8.224,1.463.222,1.465s-.644.1-1.427.221-1.439.222-1.458.226a.093.093,0,0,1-.036,0Z" class="aw-theme-iconOutline" fill="#464646"/>
    <path id="path3-5" d="M17.5,24a6.487,6.487,0,1,1,.026,0H17.5m0-12A5.5,5.5,0,1,0,23,17.5,5.5,5.5,0,0,0,17.5,12" class="aw-theme-iconOutline" fill="#464646"/>
    <path id="circle5-7" d="M17,19.251A1.75,1.75,0,1,1,15.251,17.5h0A1.75,1.75,0,0,1,17,19.251Z" class="aw-theme-iconOutline" fill="#464646"/>
    <path id="circle5-4" d="M19.762,17.508a1.76,1.76,0,1,0,.024,0Zm.012,1h.01a.75.75,0,0,1,.75.75h0a.75.75,0,1,1-.76-.75Z" class="aw-theme-iconOutline" fill="#464646"/>
  </g>
</svg>
