<svg id="Image" xmlns="http://www.w3.org/2000/svg" viewBox="0 0 24 24">
  <g id="g817">
    <path id="path2" d="M8.355,0C6.6,0,4.707.472,4.707,1.51V2.793a.971.971,0,0,0,.428.768V6.975L3.463,10.457l-.008.02L1.914,13.691.1,17.477V17.5c-.011.026-.015.052-.024.078s-.02.063-.029.1A1.383,1.383,0,0,0,0,17.99C0,19.944,4.31,21,8.363,21c.76,0,1.527-.038,2.276-.111l.162-.02a7.382,7.382,0,0,1-.356-.846c-.652.059-1.338.1-2.09.1C3.719,20.125.875,18.883.875,18a.493.493,0,0,1,.031-.166l.022-.043c.389-.863,3.141-1.924,7.429-1.924.643,0,1.239.031,1.811.074a7.491,7.491,0,0,1,.244-.867,17.439,17.439,0,0,0-2.057-.088A17.426,17.426,0,0,0,1.73,16.113L3.8,11.8c.848.727,2.754,1.068,4.558,1.068a10.337,10.337,0,0,0,3.8-.623,7.535,7.535,0,0,1,1.41-1.125L11.58,6.975V3.561a.961.961,0,0,0,.428-.768V1.51C12.008.472,10.114,0,8.355,0Zm0,.881a4.367,4.367,0,0,1,2.766.621c-.108.192-1.04.639-2.766.639a4.406,4.406,0,0,1-2.767-.623C5.7,1.326,6.629.881,8.355.881Zm2.778,1.646v.244a.555.555,0,0,1-.194.163,5.842,5.842,0,0,1-2.6.49,5.808,5.808,0,0,1-2.332-.4V3.006L5.75,2.918a1.164,1.164,0,0,1-.162-.125V2.529a7.033,7.033,0,0,0,2.773.492A7.026,7.026,0,0,0,11.133,2.527ZM10.7,3.965V7.074L11.844,9.49a9,9,0,0,0-1.92-.41h-.01q-.374-.043-.756-.066H9.094c-.248-.014-.5-.02-.742-.02s-.5.008-.743.02H7.543c-.254.015-.507.038-.756.066H6.775a9.1,9.1,0,0,0-1.867.393L5.969,7.266l.037-3.3a6.529,6.529,0,0,0,2.055.344c.088,0,.184,0,.275-.008A6.628,6.628,0,0,0,10.7,3.965ZM8.354,9.871c.318,0,.616.012.9.031.1.007.18.018.271.026.186.016.37.035.539.058.078.011.149.023.223.035.176.029.351.059.506.094l.113.028c.183.043.354.088.51.138l.022.01a4.65,4.65,0,0,1,.439.166l.018.008a2.5,2.5,0,0,1,.275.146c.032.02.062.04.088.059a1.034,1.034,0,0,1,.1.078.5.5,0,0,1,.088.106c.015.027.039.055.039.078,0,.307-1.448,1.056-4.132,1.056s-4.131-.752-4.131-1.056c0-.022.023-.051.037-.077a.542.542,0,0,1,.094-.109.982.982,0,0,1,.093-.066.7.7,0,0,1,.106-.075h0a2.163,2.163,0,0,1,.252-.133l.045-.02c.122-.053.264-.108.418-.16l.037-.012c.149-.047.318-.093.5-.136l.117-.028c.158-.035.331-.065.51-.094.072-.011.141-.024.217-.035.17-.024.356-.043.545-.06.088-.009.177-.018.265-.024C7.737,9.883,8.035,9.871,8.354,9.871Z" class="aw-theme-iconOutline" fill="#464646"/>
    <path id="path2-2" d="M17.5,24A6.5,6.5,0,1,1,24,17.5h0A6.487,6.487,0,0,1,17.526,24H17.5Zm0-12A5.5,5.5,0,1,0,23,17.5h0A5.55,5.55,0,0,0,17.5,12Z" class="aw-theme-iconOutline" fill="#464646"/>
    <path id="path4-8" d="M18.546,13l-.708.708,1.647,1.646H17.461A3.269,3.269,0,0,0,16.2,21.641l.384-.923a2.269,2.269,0,0,1,.873-4.364h2.024L17.838,18l.708.708,2.5-2.5a.5.5,0,0,0,0-.707h0Z" class="aw-theme-iconOutline" fill="#464646"/>
  </g>
</svg>
