<svg id="Livello_3" data-name="Livello 3" xmlns="http://www.w3.org/2000/svg" viewBox="0 0 24 24">
  <g id="g933">
    <path id="rect825-3" d="M0,0H1V6H0Z" class="aw-theme-iconOutline" fill="#464646"/>
    <path id="rect827-4" d="M0,5H24V6H0Z" class="aw-theme-iconOutline" fill="#464646"/>
    <path id="rect827-2-5" d="M0,0H24V1H0Z" class="aw-theme-iconOutline" fill="#464646"/>
    <path id="rect825-6-6" d="M23,0h1V6H23Z" class="aw-theme-iconOutline" fill="#464646"/>
    <path id="rect825-3-8" d="M0,9H1v6H0Z" class="aw-theme-iconOutline" fill="#464646"/>
    <path id="rect827-4-6" d="M0,14H24v1H0Z" class="aw-theme-iconOutline" fill="#464646"/>
    <path id="rect827-2-5-8" d="M0,9H24v1H0Z" class="aw-theme-iconOutline" fill="#464646"/>
    <path id="rect825-6-6-0" d="M23,9h1v6H23Z" class="aw-theme-iconOutline" fill="#464646"/>
    <path id="rect825-3-8-9" d="M0,18H1v6H0Z" class="aw-theme-iconOutline" fill="#464646"/>
    <path id="rect827-4-6-6" d="M0,23H18v1H0Z" class="aw-theme-iconOutline" fill="#464646"/>
    <path id="rect827-2-5-8-2" d="M0,18H18v1H0Z" class="aw-theme-iconOutline" fill="#464646"/>
    <path id="rect825-6-6-0-6" d="M12,18h1v6H12Z" class="aw-theme-iconOutline" fill="#464646"/>
    <path id="rect825-6-6-0-3" d="M17,9h1v6H17Z" class="aw-theme-iconOutline" fill="#464646"/>
    <path id="rect825-6-6-0-3-1" d="M17,18h1v6H17Z" class="aw-theme-iconOutline" fill="#464646"/>
  </g>
</svg>
