<svg id="Artwork" xmlns="http://www.w3.org/2000/svg" viewBox="0 0 24 24">
  <g id="g817">
    <path id="path830" d="M14.414,20.424a.6.6,0,0,1-.152-.37c-.039-.333.565-.073-5.692-2.444-1.882-.713-3.563-1.383-3.738-1.489-.347-.211-.409-.5-.153-.717.09-.077,2.275-.964,4.856-1.971,4.329-1.69,4.7-1.851,4.727-2.085.048-.342.2-.507.466-.507.4,0,.465.184.465,1.322s-.065,1.322-.465,1.322c-.248,0-.407-.155-.471-.458-.05-.242-.065-.24-1.317.222l-.983.362-.039,2a8.973,8.973,0,0,0,.067,2.107,14.645,14.645,0,0,0,2.2.855c.049,0,.09-.105.09-.233a.438.438,0,0,1,.458-.478c.395,0,.457.186.457,1.382,0,.944-.027,1.149-.161,1.2A.754.754,0,0,1,14.414,20.424Zm-3.635-6.3c-.026-.025-.954.357-2.106.728-1.217.393-1.28.409-2.119.677a.813.813,0,0,0-.158.044c-.121.032-.125.037.017.084.1.033,1.125.419,2.272.856l2.084.795.029-1.569A14.544,14.544,0,0,0,10.779,14.121Z" class="aw-theme-iconOutline" fill="#464646"/>
    <path id="path832" d="M11.3,10.289A2.937,2.937,0,0,1,9.6,6.809a8.9,8.9,0,0,1,.269-1.186,1.048,1.048,0,0,0,.1-.455,1.43,1.43,0,0,0-.5.021,2.023,2.023,0,0,0-1.367.874c-.214.314-.236.44-.2,1.117a3.738,3.738,0,0,0,.426,1.591c.41.889.427,1.1.108,1.316S7.789,10.07,7.4,9.366a4.2,4.2,0,0,1-.348-3.592,3.3,3.3,0,0,1,1.43-1.327c.4-.176.784-.208,3.1-.266,1.454-.036,2.85-.027,3.1.02.422.078.46.111.49.419.028.289-.008.35-.262.446l-.294.111.255.62a4.632,4.632,0,0,1,.142,2.924A2.722,2.722,0,0,1,12.4,10.429,4.236,4.236,0,0,1,11.3,10.289ZM13.038,9.28a2.217,2.217,0,0,0,1.146-1.159,3.323,3.323,0,0,0-.338-2.263L13.513,5.2l-1.189-.029-1.188-.029-.206.667c-.579,1.873-.282,3.051.872,3.463A1.606,1.606,0,0,0,13.038,9.28Z" class="aw-theme-iconOutline" fill="#464646"/>
    <path id="path4" d="M23,12A11,11,0,1,1,12,1a11.128,11.128,0,0,1,8.5,4H17V6h5V5.4h0V1H21V4a12.184,12.184,0,0,0-9-4A12,12,0,1,0,24,12Z" class="aw-theme-iconOutline" fill="#464646"/>
  </g>
</svg>
