<svg id="Livello_3" data-name="Livello 3" xmlns="http://www.w3.org/2000/svg" viewBox="0 0 24 24">
  <g id="g951">
    <path id="rect825" d="M0,17H1v7H0Z" class="aw-theme-iconOutline" fill="#464646"/>
    <path id="rect827" d="M0,23H24v1H0Z" class="aw-theme-iconOutline" fill="#464646"/>
    <path id="rect827-2" d="M0,17H24v1H0Z" class="aw-theme-iconOutline" fill="#464646"/>
    <path id="rect825-6" d="M23,17h1v7H23Z" class="aw-theme-iconOutline" fill="#464646"/>
    <path id="rect825-3" d="M0,0H1V7H0Z" class="aw-theme-iconOutline" fill="#464646"/>
    <path id="rect827-4" d="M0,6H24V7H0Z" class="aw-theme-iconOutline" fill="#464646"/>
    <path id="rect827-2-5" d="M0,0H24V1H0Z" class="aw-theme-iconOutline" fill="#464646"/>
    <path id="rect825-6-6" d="M23,0h1V7H23Z" class="aw-theme-iconOutline" fill="#464646"/>
    <path id="rect5" d="M7,8H8v7H7Z" class="aw-theme-iconOutline" fill="#464646"/>
    <path id="rect8" d="M10.108,12.642l.624.781L7.506,16l-.624-.781Z" class="aw-theme-iconOutline" fill="#464646"/>
    <path id="rect11" d="M4.9,12.642,8.13,15.219,7.506,16,4.279,13.424Z" class="aw-theme-iconOutline" fill="#464646"/>
    <path id="rect825-6-4" d="M15,17h1v7H15Z" class="aw-theme-iconOutline" fill="#464646"/>
  </g>
</svg>
