<svg version="1.1" id="Layer_1" xmlns="http://www.w3.org/2000/svg" xmlns:xlink="http://www.w3.org/1999/xlink" x="0px" y="0px"
	 viewBox="0 0 24 24" style="enable-background:new 0 0 24 24;" xml:space="preserve"> 
<g>
	<g>
		<path class="aw-theme-iconOutline" fill="#464646" d="M9.129,18.763c-0.166,0-0.332,0-0.498,0l1.41-1.41c0,0,0.083-0.083,0.083-0.166l0.332-1.493
			c0-0.083,0-0.166-0.083-0.249l-1.244-1.244c-0.083-0.083-0.166-0.083-0.166-0.083s0,0-0.083,0l-1.493,0.332
			c-0.083,0-0.083,0-0.166,0.083l-1.41,1.41c-0.166-1.078,0.166-2.074,0.995-2.903c0.498-0.498,1.161-0.747,2.157-0.747
			c0.415,0,0.83,0.083,1.244,0.166c0,0,0,0,0.083,0s0.166,0,0.249-0.083l4.811-5.475c0.332-0.332,0.747-0.498,1.244-0.498
			c0.46,0,0.849,0.142,1.167,0.425c0.052,0.046,0.174,0.182,0.215,0.237c0.194,0.259,0.235,0.673,0.235,1.006
			c0,0.498-0.207,0.904-0.539,1.236l-5.475,4.811c-0.083,0.083-0.083,0.166-0.083,0.249c0.083,0.581,0.415,2.406-0.581,3.401
			C10.871,18.431,10.041,18.763,9.129,18.763 M9.129,19.593c1.161,0,2.157-0.415,2.986-1.244c1.078-1.078,0.995-2.82,0.83-3.816
			c0,0,5.226-4.562,5.309-4.562C18.751,9.389,19,8.809,19,8.062c0-0.664-0.249-1.327-0.747-1.825
			c-0.498-0.498-1.161-0.747-1.825-0.747c-0.664,0-1.327,0.249-1.825,0.747l0,0l-4.562,5.226C9.626,11.38,9.294,11.38,8.963,11.38
			c-1.161,0-2.074,0.332-2.737,0.912c-0.912,0.912-1.41,2.24-1.161,3.567c0.083,0.332,0.244,0.613,0.615,0.73
			c0.083,0,0.132,0.016,0.215,0.016c0.249,0,0.415-0.083,0.581-0.249l1.327-1.327l1.078-0.249l0.83,0.83L9.46,16.689l-1.327,1.327
			c-0.249,0.249-0.461,0.536-0.289,0.843c0.074,0.469,0.372,0.65,0.704,0.733C8.714,19.593,8.88,19.593,9.129,19.593L9.129,19.593z"
			/>
	</g>
	<circle class="aw-theme-iconOutline" fill="#464646" cx="16.128" cy="8.445" r="0.425"/>
</g>
<g>
	<path class="aw-theme-iconOutline" fill="#464646" d="M11.5,24C5.159,24,0,18.841,0,12.5C0,6.159,5.159,1,11.5,1C17.841,1,23,6.159,23,12.5
		C23,18.841,17.841,24,11.5,24z M11.5,2C5.71,2,1,6.71,1,12.5C1,18.29,5.71,23,11.5,23C17.29,23,22,18.29,22,12.5
		C22,6.71,17.29,2,11.5,2z"/>
</g>
</svg>
