<svg id="Image" xmlns="http://www.w3.org/2000/svg" viewBox="0 0 24 24">
  <g id="g825">
    <path id="path818" d="M5.935,21.943a2.683,2.683,0,0,1-1.989-2.209,1.622,1.622,0,0,1,.083-1.051c.076-.172.881-1.179,2.913-3.64l2.809-3.4L8.086,9.826,6.421,8.011,5.51,9l-.91.988L3.3,8.54,2,7.094,3.608,5.371c.885-.948,2.143-2.3,2.8-3.006L7.592,1.084l.275.2a1.252,1.252,0,0,0,.948.29,1.584,1.584,0,0,0,.808-.359l.267-.189.761.823.76.824-1.17,1.25L9.072,5.177,10.645,6.87c.865.93,1.588,1.692,1.605,1.692a2.584,2.584,0,0,0,.571-.754c-.011-.041-.048-.27-.082-.51a7.2,7.2,0,0,1,.235-3.366A4.723,4.723,0,0,1,17.16,1a.9.9,0,0,1,.782.351c.241.24.309.437.227.66-.023.063-.416.579-.873,1.145S16.44,4.23,16.41,4.282c-.058.1-.571,1.612-.571,1.684a8.706,8.706,0,0,0,.679.691l.68.652.728-.353.729-.352.831-1.028c.973-1.2,1.121-1.358,1.29-1.358a1.248,1.248,0,0,1,.651.47c.152.205.194.425.2,1.032A5.613,5.613,0,0,1,21.1,8.2a4.124,4.124,0,0,1-1.49,1.873,4.952,4.952,0,0,1-3.18.806H15.81l-.329.425-.329.424,3.2,3.448c2.45,2.645,3.229,3.513,3.344,3.725A2.318,2.318,0,0,1,22,20.161a1.615,1.615,0,0,1-.544,1.181,1.633,1.633,0,0,1-1.065.651,2.094,2.094,0,0,1-1.462-.527c-.106-.094-1.54-1.624-3.188-3.4s-3.007-3.218-3.019-3.2-1.212,1.56-2.666,3.436c-3.02,3.9-2.8,3.661-3.492,3.693A2.46,2.46,0,0,1,5.935,21.943ZM20.405,21a1.872,1.872,0,0,0,.7-.754,1.073,1.073,0,0,0,0-.317c-.071-.5.133-.266-6.384-7.293C11.336,8.987,8.554,6.011,8.533,6.019c-.06.024-1.352,1.375-1.352,1.415C7.181,7.5,19.419,20.666,19.6,20.8a1.65,1.65,0,0,0,.613.244A.942.942,0,0,0,20.405,21ZM6.748,20.879c.051-.039,1.171-1.461,2.489-3.16s2.49-3.209,2.606-3.356l.211-.266-.779-.85a7.863,7.863,0,0,0-.829-.836C10.409,12.42,5.922,17.836,4.99,19a.389.389,0,0,0-.119.388,1.762,1.762,0,0,0,1.167,1.5,1.01,1.01,0,0,0,.71-.009Zm8.12-10.4c.5-.648.5-.646,1.52-.644a4.246,4.246,0,0,0,2.444-.469A3.242,3.242,0,0,0,20.224,7.78a4.51,4.51,0,0,0,.423-1.838l-.014-.184-.649.8c-.357.443-.692.84-.743.884s-.5.276-.991.517c-.952.464-1.151.517-1.405.373A23.272,23.272,0,0,1,14.887,6.42c-.126-.265-.065-.558.408-1.95l.25-.735.653-.8c.359-.443.653-.817.654-.833s-.1-.01-.221.011a3.969,3.969,0,0,0-2.272,1.365,4.889,4.889,0,0,0-.628,3.87c.141.857.128.908-.411,1.537a2.749,2.749,0,0,0-.353.467,18.952,18.952,0,0,0,1.519,1.6C14.5,10.944,14.67,10.729,14.868,10.475ZM7.389,5.62l2.749-2.941-.18-.195-.18-.2-.316.125a1.668,1.668,0,0,1-.8.122,1.747,1.747,0,0,1-.721-.1l-.235-.1L5.489,4.722,3.274,7.1l.65.744a7.873,7.873,0,0,0,.683.731C4.625,8.568,5.877,7.238,7.389,5.62Z" class="aw-theme-iconOutline" fill="#464646"/>
    <path id="path948" d="M14.53,12.382l-.116-.142-.007.006Z" class="aw-theme-iconOutline" fill="#464646"/>
    <path id="path815" d="M7.133,19a.5.5,0,1,1-.5-.5A.5.5,0,0,1,7.133,19Z" class="aw-theme-iconOutline" fill="#464646"/>
  </g>
</svg>
