<svg id="Livello_3" data-name="Livello 3" xmlns="http://www.w3.org/2000/svg" viewBox="0 0 24 24">
  <g id="g841">
    <path id="path66" d="M4.041,9.72A9.6,9.6,0,0,1,9.856,3.693l.319.842A8.52,8.52,0,0,0,4.946,10Z" class="aw-theme-iconOutline" fill="#464646"/>
    <path id="path841" d="M15.088.094a2,2,0,0,0-1.547.654,2.178,2.178,0,0,0-.7,1.676,3.011,3.011,0,0,0,.348,1.4,2.471,2.471,0,0,0,1.59,1.418,1.186,1.186,0,0,0,.58,0,2.862,2.862,0,0,0,1.966-2.677A2.178,2.178,0,0,0,16.639.748,2,2,0,0,0,15.088.094Zm-.075.939a1.225,1.225,0,0,1,.965.373,1.669,1.669,0,0,1,.139,2.049,2.139,2.139,0,0,1-.68.777c-.382.2-.8.05-1.146-.406a2.1,2.1,0,0,1-.412-1.94,1.434,1.434,0,0,1,.765-.777A1.451,1.451,0,0,1,15.013,1.033Z" class="aw-theme-iconOutline" fill="#464646"/>
    <path id="path845" d="M3.971,11.619a2.06,2.06,0,0,0-.435.065A2.362,2.362,0,0,0,1.887,13.4a3,3,0,0,0,1.8,3.353,1.747,1.747,0,0,0,1.725-.588,2.325,2.325,0,0,0,.545-.791,4.809,4.809,0,0,0,.3-.75,3.323,3.323,0,0,0,0-1.265A2.314,2.314,0,0,0,3.971,11.619Zm.039.957a.921.921,0,0,1,.571.1,1.369,1.369,0,0,1,.8,1.275,2.22,2.22,0,0,1-.969,1.809.632.632,0,0,1-.641.025,2.245,2.245,0,0,1-.957-1.394,1.96,1.96,0,0,1,.078-1.043A1.259,1.259,0,0,1,4.01,12.576Z" class="aw-theme-iconOutline" fill="#464646"/>
    <path id="path864" d="M11.032,9.441c-.007-.007,0-1.488,0-1.6a3.218,3.218,0,0,1,.593-1.623,3.088,3.088,0,0,1,.932-.871c.075-.044.431-.226.441-.226a1.536,1.536,0,0,1,.168.119c.088.065.2.143.24.172a2.975,2.975,0,0,0,1.966.52,3.033,3.033,0,0,0,1.4-.515c.05-.031.16-.112.25-.178s.164-.119.167-.119.333.163.406.205a3.123,3.123,0,0,1,1.009.952,3.49,3.49,0,0,1,.4.827,3.268,3.268,0,0,1,.126.569,8.334,8.334,0,0,1,.022,1.036v.733h-.979V8.691a3.946,3.946,0,0,0-.051-1.122,2.245,2.245,0,0,0-.835-1.283l-.02-.014-.03.013c-.016.007-.069.036-.118.065a3.9,3.9,0,0,1-4.061,0c-.048-.028-.1-.057-.115-.064l-.029-.012-.02.014a2.107,2.107,0,0,0-.232.2,2.486,2.486,0,0,0-.252.3,2.279,2.279,0,0,0-.388.966,6.48,6.48,0,0,0-.017.892v.8h-.976Z" class="aw-theme-iconOutline" fill="#464646"/>
    <path id="rect866" d="M13.019,8.05h1.013v1.4H13.019Z" class="aw-theme-iconOutline" fill="#464646"/>
    <path id="rect866-4" d="M16.006,8.058h1.013v1.4H16.006Z" class="aw-theme-iconOutline" fill="#464646"/>
    <path id="path864-1" d="M0,20.984C0,20.976,0,19.5,0,19.384A3.231,3.231,0,0,1,.59,17.756a3.084,3.084,0,0,1,.932-.87c.075-.044.431-.227.441-.227a1.536,1.536,0,0,1,.168.119c.088.065.2.143.24.172a2.97,2.97,0,0,0,1.966.521,3.022,3.022,0,0,0,1.406-.515c.048-.032.16-.112.248-.178s.164-.119.168-.119.333.163.405.2a3.1,3.1,0,0,1,1.009.952,3.452,3.452,0,0,1,.4.827,3.24,3.24,0,0,1,.127.568,8.511,8.511,0,0,1,.021,1.035v.734H7.142l0-.752A3.884,3.884,0,0,0,7.1,19.11a2.31,2.31,0,0,0-.6-1.077,2.234,2.234,0,0,0-.238-.207l-.021-.015-.03.013c-.017.007-.069.036-.117.065a3.9,3.9,0,0,1-4.062,0c-.048-.028-.1-.058-.116-.064l-.026-.015-.021.015a2.2,2.2,0,0,0-.232.2,2.4,2.4,0,0,0-.251.3,2.291,2.291,0,0,0-.393.967,6.463,6.463,0,0,0-.017.891v.8H0Z" class="aw-theme-iconOutline" fill="#464646"/>
    <path id="rect866-48" d="M1.99,19.592H3v1.4H1.99Z" class="aw-theme-iconOutline" fill="#464646"/>
    <path id="rect866-4-2" d="M4.976,19.6H5.99V21H4.976Z" class="aw-theme-iconOutline" fill="#464646"/>
    <path id="path840" d="M17.757,17.45A3.489,3.489,0,0,1,15.7,14.39a2.136,2.136,0,0,1,.336-1.246,2.615,2.615,0,0,1,3.027-1.2,3.015,3.015,0,0,1,1.265.885,2.7,2.7,0,0,1,.108,3.074C19.782,17.155,18.7,17.777,17.757,17.45Zm1.09-.921a2.273,2.273,0,0,0,1-1.376,2.82,2.82,0,0,0-.012-1.53,1.477,1.477,0,0,0-1.249-.85c-1.27-.146-1.972.429-1.972,1.615a2.315,2.315,0,0,0,1.322,2.245A1.564,1.564,0,0,0,18.847,16.529Z" class="aw-theme-iconOutline" fill="#464646"/>
    <path id="path836" d="M14.787,21.992V19.983h.966V24h-.966Z" class="aw-theme-iconOutline" fill="#464646"/>
    <path id="path838" d="M12.917,21.623c.016-2.324.021-2.44.124-2.712a3.308,3.308,0,0,1,1.676-1.85,1.736,1.736,0,0,1,.468-.179,1.47,1.47,0,0,1,.457.2,5.539,5.539,0,0,0,2.149.823,5.111,5.111,0,0,0,3.008-.769,2.271,2.271,0,0,1,.562-.252,4.507,4.507,0,0,1,1.151.553,3.657,3.657,0,0,1,1.29,1.574c.105.277.11.379.126,2.64L23.944,24h-.916l-.015-2.377L23,19.246l-.157-.28a2.728,2.728,0,0,0-1.1-.942l-.351-.184-.469.231a7.338,7.338,0,0,1-1.727.6l-.344.063.026.156c.056.337.484,3.757.472,3.766L18.86,23l-.478.334-.337-.237c-.186-.131-.406-.288-.489-.348l-.15-.11.218-1.721c.12-.946.232-1.814.247-1.928l.028-.208-.367-.06a5.014,5.014,0,0,1-1.636-.6l-.645-.331-.268.144a2.427,2.427,0,0,0-.99,1l-.147.32-.016,2.4L13.815,24H12.9Z" class="aw-theme-iconOutline" fill="#464646"/>
    <path id="path848" d="M21.041,21.992V19.983h.966V24h-.966Z" class="aw-theme-iconOutline" fill="#464646"/>
  </g>
</svg>
