<svg id="svg8" xmlns="http://www.w3.org/2000/svg" viewBox="0 0 24 24">
  <g id="g837">
    <path id="rect827" d="M10,23H24v1H10Z" class="aw-theme-iconOutline" fill="#464646"/>
    <path id="rect829" d="M10,11h1V23H10Z" class="aw-theme-iconOutline" fill="#464646"/>
    <path id="rect829-3" d="M23,11h1V23H23Z" class="aw-theme-iconOutline" fill="#464646"/>
    <path id="rect827-6" d="M10,10H24v1H10Z" class="aw-theme-iconOutline" fill="#464646"/>
    <path id="rect827-1" d="M5,18h5v1H5Z" class="aw-theme-iconOutline" fill="#464646"/>
    <path id="rect829-7" d="M5,6H6V18H5Z" class="aw-theme-iconOutline" fill="#464646"/>
    <path id="rect829-3-5" d="M18,6h1v4H18Z" class="aw-theme-iconOutline" fill="#464646"/>
    <path id="rect827-6-9" d="M5,5H19V6H5Z" class="aw-theme-iconOutline" fill="#464646"/>
    <path id="rect827-1-8" d="M0,13H5v1H0Z" class="aw-theme-iconOutline" fill="#464646"/>
    <path id="rect829-7-4" d="M0,1H1V13H0Z" class="aw-theme-iconOutline" fill="#464646"/>
    <path id="rect829-3-5-3" d="M13,1h1V5H13Z" class="aw-theme-iconOutline" fill="#464646"/>
    <path id="rect827-6-9-3" d="M.1.1H13.9V.9H.1Z" class="aw-theme-iconOutline" fill="#464646"/>
    <path id="path952" d="M0,.5V0H14V1H0Z" class="aw-theme-iconOutline" fill="#464646"/>
  </g>
</svg>
