<svg id="Layer_1" data-name="Layer 1" xmlns="http://www.w3.org/2000/svg" viewBox="0 0 24 24">
  <g id="g841">
    <path id="path960" d="M5.332,19.9c-.106-.081-.337-.252-.514-.381a7.48,7.48,0,0,1-2.665-3.846,8.42,8.42,0,0,1-.1-4.319A7.327,7.327,0,0,1,3.883,8.133,8.223,8.223,0,0,1,8.461,5.722,8.954,8.954,0,0,1,10.274,5.7,7.912,7.912,0,0,1,13.633,6.95,7.54,7.54,0,0,1,16.2,9.816l.216.415-.151.02c-.083.011-.323.062-.533.113s-.389.094-.4.094a1.57,1.57,0,0,1-.136-.243A6.511,6.511,0,0,0,4.789,8.676a6.412,6.412,0,0,0-1.816,3.485,8.8,8.8,0,0,0-.017,2.187,6.837,6.837,0,0,0,1.446,3.3,6.141,6.141,0,0,0,.954.916c.047-.029.6-.7,1.013-1.227l.37-.473H10v1.187l-1.344,0-1.476,0-.728.9a13.979,13.979,0,0,1-.92,1.1s-.095-.068-.2-.149Z" class="aw-theme-iconOutline" fill="#464646"/>
    <path id="path962" d="M9.149,15.082A1.683,1.683,0,0,1,7.935,12.7l.079-.155L6.691,11.218,5.368,9.9l.288-.289.289-.288.383.374c.211.206.814.8,1.341,1.325l.958.95.2-.08a1.714,1.714,0,0,1,1.885.367,1.629,1.629,0,0,1,.514,1.2,1.656,1.656,0,0,1-.941,1.463,2.416,2.416,0,0,1-.427.159A2.248,2.248,0,0,1,9.149,15.082Z" class="aw-theme-iconOutline" fill="#464646"/>
    <path id="path964" d="M17.289,18c-.143-.061-2.792-2.7-2.88-2.87a.546.546,0,0,1,.231-.709.632.632,0,0,1,.477-.029c.054.021.58.52,1.242,1.182l1.149,1.146L18.234,16c.775-.77.845-.82,1.081-.778a.553.553,0,0,1,.37.854A25.887,25.887,0,0,1,17.719,18a.532.532,0,0,1-.43,0Z" class="aw-theme-iconOutline" fill="#464646"/>
    <path id="path966" d="M16.789,24.05a6.768,6.768,0,0,1-2.262-.679,6.584,6.584,0,0,1,.711-12.053,6.457,6.457,0,0,1,2.265-.392,6.015,6.015,0,0,1,2.067.331,6.588,6.588,0,0,1,4.451,5.35,7.28,7.28,0,0,1-.12,2.429,6.6,6.6,0,0,1-5.294,4.956A9.493,9.493,0,0,1,16.789,24.05Zm.188-1.452v-.422h1.031V22.6a1.645,1.645,0,0,0,.028.422c.016,0,.188-.027.383-.061a5.441,5.441,0,0,0,3.073-1.631,5.5,5.5,0,0,0,1.472-2.917c.075-.427.109-.391-.362-.391H22.2V16.989h.821l-.022-.2a5.607,5.607,0,0,0-.892-2.372,5.541,5.541,0,0,0-3.7-2.388c-.428-.075-.391-.111-.391.378v.422H16.977v-.851L16.8,12a5.713,5.713,0,0,0-2.69,1.118,5.6,5.6,0,0,0-2.113,3.735l-.018.133h.844V18.02h-.844l.019.133a5.568,5.568,0,0,0,3.532,4.523,6.224,6.224,0,0,0,1.4.341C16.972,23.02,16.977,22.98,16.977,22.6Z" class="aw-theme-iconOutline" fill="#464646"/>
    <path id="rect816-92" d="M0,0H21V1H0Z" class="aw-theme-iconOutline" fill="#464646"/>
    <path id="rect816-9-2" d="M0,4H21V5H0Z" class="aw-theme-iconOutline" fill="#464646"/>
    <path id="rect816-9-0-6" d="M1,0V21H0V0Z" class="aw-theme-iconOutline" fill="#464646"/>
    <path id="rect816-9-0-7-6" d="M22,0V10H21V0Z" class="aw-theme-iconOutline" fill="#464646"/>
    <path id="rect816-9-0-7-3-1" d="M10,22H0V21H10Z" class="aw-theme-iconOutline" fill="#464646"/>
    <path id="rect1037-3" d="M2,2H5V3H2Z" class="aw-theme-iconOutline" fill="#464646"/>
    <path id="rect1037-1-9" d="M7,2h3V3H7Z" class="aw-theme-iconOutline" fill="#464646"/>
    <path id="rect1037-7-8" d="M12,2h3V3H12Z" class="aw-theme-iconOutline" fill="#464646"/>
    <path id="rect1037-7-3" d="M18,2h1V3H18Z" class="aw-theme-iconOutline" fill="#464646"/>
  </g>
</svg>
