<svg id="Layer_1" data-name="Layer 1" xmlns="http://www.w3.org/2000/svg" viewBox="0 0 24 24">
  <g id="g839">
    <path id="path856-3-5" d="M5.554,14.226A9.2,9.2,0,0,0,0,16.387l.731.7A8.181,8.181,0,0,1,14.11,23.1v.079l1,0v-.113a9.2,9.2,0,0,0-9.554-8.833Z" class="aw-theme-iconOutline" fill="#464646"/>
    <path id="path863" d="M6,16.226a7.009,7.009,0,0,0-4.39,1.623l.724.7a6,6,0,0,1,9.749,4.608h0l1-.012A7,7,0,0,0,6,16.226Zm.023,2a5,5,0,0,0-2.96,1.022l.731.7a3.993,3.993,0,0,1,6.289,3.226l1-.012a5,5,0,0,0-5.06-4.94Zm.024,2a3,3,0,0,0-1.516.436l.759.731A1.994,1.994,0,0,1,8.086,23.2l1-.012A3,3,0,0,0,6.05,20.226Z" class="aw-theme-iconOutline" fill="#464646"/>
    <path id="path918" d="M7.046,23.165a1,1,0,1,1-.821-1.151A1,1,0,0,1,7.046,23.165Z" class="aw-theme-iconOutline" fill="#464646"/>
    <path id="rect823" d="M2,0A2,2,0,0,0,0,2V14.5l1-.4V2.373A1.37,1.37,0,0,1,2.373,1H21.627A1.37,1.37,0,0,1,23,2.373V21.627A1.37,1.37,0,0,1,21.627,23H16v1h6a2,2,0,0,0,2-2V2a2,2,0,0,0-2-2Z" class="aw-theme-iconOutline" fill="#464646"/>
    <path id="path10" d="M21,8.031v.5a5.524,5.524,0,1,1-1.27-3.5H17v1h4v-4H20V3.857a6.488,6.488,0,1,0,2,4.674v-.5Z" class="aw-theme-iconOutline" fill="#464646"/>
  </g>
</svg>
