<svg id="svg8" xmlns="http://www.w3.org/2000/svg" viewBox="0 0 24 24">
  <g id="g891">
    <path id="rect882" d="M2.5,11.5h7v1h-7Z" class="aw-theme-iconOutline" fill="#464646"/>
    <path id="path828" d="M14,4v7H24V4Zm1,1h8v5H15Z" class="aw-theme-iconOutline" fill="#464646"/>
    <path id="path828-0" d="M14,13v7H24V13Zm1,1h8v5H15Z" class="aw-theme-iconOutline" fill="#464646"/>
    <path id="path852" d="M6,6a6,6,0,1,0,6,6A6,6,0,0,0,6,6ZM6,7.2A4.8,4.8,0,0,1,10.8,12v0A4.8,4.8,0,0,1,6,16.8H6A4.8,4.8,0,0,1,1.2,12v0A4.8,4.8,0,0,1,6,7.2Z" class="aw-theme-iconOutline" fill="#464646"/>
    <path id="rect899" d="M5.5,4h1V6.233h-1Z" class="aw-theme-iconOutline" fill="#464646"/>
    <path id="rect899-5" d="M5.5,0h1V2h-1Z" class="aw-theme-iconOutline" fill="#464646"/>
    <path id="rect899-81" d="M5.5,20.066h1V17.691h-1Z" class="aw-theme-iconOutline" fill="#464646"/>
    <path id="rect973-7" d="M5.5,24H8V23H5.5Z" class="aw-theme-iconOutline" fill="#464646"/>
    <path id="rect899-5-1" d="M5.5,24h1V21.934h-1Z" class="aw-theme-iconOutline" fill="#464646"/>
    <path id="rect973-3-0" d="M10,24h2V23H10Z" class="aw-theme-iconOutline" fill="#464646"/>
    <path id="rect973-3-3-6" d="M14,24h2V23H14Z" class="aw-theme-iconOutline" fill="#464646"/>
    <path id="rect973-3-3-3-1" d="M18,24h2V23H18Z" class="aw-theme-iconOutline" fill="#464646"/>
    <path id="rect973-3-3-3-1-2" d="M22,24h2V23H22Z" class="aw-theme-iconOutline" fill="#464646"/>
    <path id="rect973-7-3" d="M5.5,1H8V0H5.5Z" class="aw-theme-iconOutline" fill="#464646"/>
    <path id="rect973-3-0-0" d="M10,1h2V0H10Z" class="aw-theme-iconOutline" fill="#464646"/>
    <path id="rect973-3-3-6-6" d="M14,1h2V0H14Z" class="aw-theme-iconOutline" fill="#464646"/>
    <path id="rect973-3-3-3-1-4" d="M18,1h2V0H18Z" class="aw-theme-iconOutline" fill="#464646"/>
    <path id="rect973-3-3-3-1-2-2" d="M22,1h2V0H22Z" class="aw-theme-iconOutline" fill="#464646"/>
  </g>
</svg>
