<svg id="Layer_1" data-name="Layer 1" xmlns="http://www.w3.org/2000/svg" viewBox="0 0 24 24">
  <g id="g851">
    <path id="path826" d="M5.11,19.736A7.577,7.577,0,0,1,3.375,18.1a8.063,8.063,0,0,1-1.5-3.749,12.2,12.2,0,0,1,.016-2.172A7.657,7.657,0,0,1,6.516,6.3a7,7,0,0,1,4.25-.513,7.7,7.7,0,0,1,5.453,4.061l.191.374-.337.067c-.186.037-.426.092-.534.123a.832.832,0,0,1-.206.043c-.005-.007-.07-.125-.144-.262A6.446,6.446,0,0,0,11.08,6.956a6.557,6.557,0,0,0-8.065,4.986,7.072,7.072,0,0,0,.579,4.437,6.189,6.189,0,0,0,1.4,1.9l.33.312.156-.168c.152-.161.683-.818,1.064-1.313l.186-.242H10v1.187H7.192l-.76.926-.822,1-.063.075Z" class="aw-theme-iconOutline" fill="#464646"/>
    <path id="path828" d="M14.507,21.106l2.415-3.719,2.371-3.648h1.245l-.058.09c-.032.05-1.119,1.722-2.417,3.717L15.7,21.173l-.621,0h-.621Z" class="aw-theme-iconOutline" fill="#464646"/>
    <path id="path830" d="M14.619,17.44a1.781,1.781,0,0,1-1.245-2.094,1.771,1.771,0,0,1,1.219-1.614,2.8,2.8,0,0,1,1.055-.057,1.553,1.553,0,0,1,1.274,1.235,3.357,3.357,0,0,1,0,1.187,1.738,1.738,0,0,1-1.3,1.343,2.875,2.875,0,0,1-1.005,0Zm.772-.861c.3-.08.458-.323.519-.773a1.933,1.933,0,0,0-.091-.89.694.694,0,0,0-1.116-.193,1.015,1.015,0,0,0-.256.766,1.4,1.4,0,0,0,.164.85A.709.709,0,0,0,15.391,16.579Z" class="aw-theme-iconOutline" fill="#464646"/>
    <path id="path832" d="M19.165,21.2a1.756,1.756,0,0,1-1.153-1.9,3.483,3.483,0,0,1,.081-.543,1.755,1.755,0,0,1,1.8-1.331,1.632,1.632,0,0,1,1.735,1.859,1.839,1.839,0,0,1-1.145,1.88,1.536,1.536,0,0,1-.652.094A1.515,1.515,0,0,1,19.165,21.2Zm1.065-.914A.707.707,0,0,0,20.454,20c.091-.182.093-.2.093-.64s0-.461-.087-.632a.671.671,0,0,0-.793-.4.7.7,0,0,0-.524.532,2.311,2.311,0,0,0,0,1.01.731.731,0,0,0,.409.475A.864.864,0,0,0,20.23,20.282Z" class="aw-theme-iconOutline" fill="#464646"/>
    <path id="path834" d="M9.038,15.051A1.584,1.584,0,0,1,8.3,14.64a1.543,1.543,0,0,1-.529-1.2,1.313,1.313,0,0,1,.16-.73l.079-.168L6.685,11.22,5.361,9.9l.3-.3.3-.3,1.33,1.33,1.33,1.329.295-.1a1.742,1.742,0,0,1,1.517.154,1.664,1.664,0,0,1,.544,2.3A1.768,1.768,0,0,1,9.038,15.051Z" class="aw-theme-iconOutline" fill="#464646"/>
    <path id="rect816-92" d="M0,0H21V1H0Z" class="aw-theme-iconOutline" fill="#464646"/>
    <path id="rect816-9-2" d="M0,4H21V5H0Z" class="aw-theme-iconOutline" fill="#464646"/>
    <path id="rect816-9-0-6" d="M1,0V21H0V0Z" class="aw-theme-iconOutline" fill="#464646"/>
    <path id="rect816-9-0-7-6" d="M22,0V10H21V0Z" class="aw-theme-iconOutline" fill="#464646"/>
    <path id="rect816-9-0-7-3-1" d="M10,22H0V21H10Z" class="aw-theme-iconOutline" fill="#464646"/>
    <path id="rect1037-3" d="M2,2H5V3H2Z" class="aw-theme-iconOutline" fill="#464646"/>
    <path id="rect1037-1-9" d="M7,2h3V3H7Z" class="aw-theme-iconOutline" fill="#464646"/>
    <path id="rect1037-7-8" d="M12,2h3V3H12Z" class="aw-theme-iconOutline" fill="#464646"/>
    <path id="rect1037-7-3" d="M18,2h1V3H18Z" class="aw-theme-iconOutline" fill="#464646"/>
    <path id="path910" d="M17.5,11A6.5,6.5,0,1,0,24,17.5,6.5,6.5,0,0,0,17.5,11Zm0,1A5.5,5.5,0,1,1,12,17.5,5.5,5.5,0,0,1,17.5,12Z" class="aw-theme-iconOutline" fill="#464646"/>
  </g>
</svg>
