<svg id="Layer_1" data-name="Layer 1" xmlns="http://www.w3.org/2000/svg" viewBox="0 0 24 24">
  <g id="g849">
    <path id="path826" d="M5.11,19.736A7.577,7.577,0,0,1,3.375,18.1a8.063,8.063,0,0,1-1.5-3.749,12.2,12.2,0,0,1,.016-2.172A7.657,7.657,0,0,1,6.516,6.3a7,7,0,0,1,4.25-.513,7.7,7.7,0,0,1,5.453,4.061l.191.374-.337.067c-.186.037-.426.092-.534.123a.832.832,0,0,1-.206.043c-.005-.007-.07-.125-.144-.262A6.446,6.446,0,0,0,11.08,6.956a6.557,6.557,0,0,0-8.065,4.986,7.072,7.072,0,0,0,.579,4.437,6.189,6.189,0,0,0,1.4,1.9l.33.312.156-.168c.152-.161.683-.818,1.064-1.313l.186-.242H10v1.187H7.192l-.76.926-.822,1-.063.075Z" class="aw-theme-iconOutline" fill="#464646"/>
    <path id="path834" d="M9.038,15.051A1.584,1.584,0,0,1,8.3,14.64a1.543,1.543,0,0,1-.529-1.2,1.313,1.313,0,0,1,.16-.73l.079-.168L6.685,11.22,5.361,9.9l.3-.3.3-.3,1.33,1.33,1.33,1.329.295-.1a1.742,1.742,0,0,1,1.517.154,1.664,1.664,0,0,1,.544,2.3A1.768,1.768,0,0,1,9.038,15.051Z" class="aw-theme-iconOutline" fill="#464646"/>
    <path id="rect816-92" d="M0,0H21V1H0Z" class="aw-theme-iconOutline" fill="#464646"/>
    <path id="rect816-9-2" d="M0,4H21V5H0Z" class="aw-theme-iconOutline" fill="#464646"/>
    <path id="rect816-9-0-6" d="M1,0V21H0V0Z" class="aw-theme-iconOutline" fill="#464646"/>
    <path id="rect816-9-0-7-6" d="M22,0V10H21V0Z" class="aw-theme-iconOutline" fill="#464646"/>
    <path id="rect816-9-0-7-3-1" d="M10,22H0V21H10Z" class="aw-theme-iconOutline" fill="#464646"/>
    <path id="rect1037-3" d="M2,2H5V3H2Z" class="aw-theme-iconOutline" fill="#464646"/>
    <path id="rect1037-1-9" d="M7,2h3V3H7Z" class="aw-theme-iconOutline" fill="#464646"/>
    <path id="rect1037-7-8" d="M12,2h3V3H12Z" class="aw-theme-iconOutline" fill="#464646"/>
    <path id="rect1037-7-3" d="M18,2h1V3H18Z" class="aw-theme-iconOutline" fill="#464646"/>
    <path id="path910" d="M17.5,11A6.5,6.5,0,1,0,24,17.5,6.5,6.5,0,0,0,17.5,11Zm0,1A5.5,5.5,0,1,1,12,17.5,5.5,5.5,0,0,1,17.5,12Z" class="aw-theme-iconOutline" fill="#464646"/>
    <path id="path833" d="M20.961,15.743l-1.893,1.82-.707-.708,1.04-.966-3.293-.024v-1l3.293.024-1.06-1.03.707-.706,1.911,1.883A.5.5,0,0,1,20.961,15.743Z" class="aw-theme-iconOutline" fill="#464646"/>
    <path id="path831" d="M14.4,20.153l1.893,1.819L17,21.265,15.96,20.3l3.293-.023v-1L15.96,19.3l1.057-1.03-.707-.707L14.4,19.445A.5.5,0,0,0,14.4,20.153Z" class="aw-theme-iconOutline" fill="#464646"/>
  </g>
</svg>
