<svg id="Layer_1" data-name="Layer 1" xmlns="http://www.w3.org/2000/svg" viewBox="0 0 24 24">
  <g id="g913">
    <path id="path865" d="M5.572,19.929c-.037-.028-.215-.159-.4-.29a7.166,7.166,0,0,1-2.215-2.453A7.85,7.85,0,0,1,2.033,14.3a13.12,13.12,0,0,1-.012-1.889A7.344,7.344,0,0,1,4.785,7.469a8.236,8.236,0,0,1,3.8-1.7,4.568,4.568,0,0,1,.925-.05,6.034,6.034,0,0,1,1.591.156A7.619,7.619,0,0,1,14.3,7.4a9.766,9.766,0,0,1,1.146,1.146,7.883,7.883,0,0,1,.944,1.5,6.142,6.142,0,0,1,.352.93l-1.005.014-.1-.229A7.2,7.2,0,0,0,14.731,9.2a9.114,9.114,0,0,0-1.06-1.066,6.7,6.7,0,0,0-3.2-1.371,8.1,8.1,0,0,0-1.835,0,6.83,6.83,0,0,0-2.055.644,6.561,6.561,0,0,0-3.534,4.776,7.027,7.027,0,0,0,1.383,5.425,9.394,9.394,0,0,0,.856.88l.174.154.146-.154c.18-.189.621-.731.939-1.154l.236-.315H11v.973H7.3l-.6.733c-.772.949-1.027,1.254-1.046,1.254A.3.3,0,0,1,5.572,19.929Z" fill="#464646"/>
    <path id="path867" d="M9.164,15.068c-.024,0-.1-.014-.164-.026a1.845,1.845,0,0,1-1.4-1.227,1.488,1.488,0,0,1-.088-.585,1.36,1.36,0,0,1,.025-.353,2.154,2.154,0,0,1,.151-.449l.05-.105L6.419,11,5.1,9.679l.346-.346c.19-.19.349-.345.354-.345s.6.592,1.327,1.315l1.319,1.315.076-.038a1.852,1.852,0,0,1,1.193-.156,2.189,2.189,0,0,1,.443.153,1.915,1.915,0,0,1,.847.858,1.843,1.843,0,0,1,.084,1.383,1.849,1.849,0,0,1-1.928,1.25Z" fill="#464646"/>
    <path id="rect816" d="M0,0H21V1H0Z" fill="#464646"/>
    <path id="rect816-9" d="M0,4H21V5H0Z" fill="#464646"/>
    <path id="rect816-9-0" d="M1,0V21H0V0Z" fill="#464646"/>
    <path id="rect816-9-0-7" d="M22,0V11H21V0Z" fill="#464646"/>
    <path id="rect816-9-0-7-3" d="M11,22H0V21H11Z" fill="#464646"/>
    <path id="rect1037" d="M2,2H5V3H2Z" fill="#464646"/>
    <path id="rect1037-1" d="M7,2h3V3H7Z" fill="#464646"/>
    <path id="rect1037-7" d="M12,2h3V3H12Z" fill="#464646"/>
    <path id="rect1037-7-3" d="M18,2h1V3H18Z" fill="#464646"/>
    <path id="rect861" d="M12,12h1V24H12Z" fill="#464646"/>
    <path id="rect863" d="M12.7,12H24v2H12.7Z" fill="#464646"/>
    <path id="rect861-1" d="M23,14h1V24H23Z" fill="#464646"/>
    <path id="rect861-16" d="M23.305,23v1H12.644V23Z" fill="#464646"/>
    <path id="rect895" d="M15.392,17.25h1.216a.641.641,0,0,1,.642.64v1.218a.641.641,0,0,1-.64.642H15.392a.641.641,0,0,1-.642-.64V17.892a.641.641,0,0,1,.64-.642Z" fill="#464646"/>
    <path id="rect912" d="M15.5,20.5h1V22h-1Z" fill="#464646"/>
    <path id="rect912-2" d="M15.5,14.5h1v2h-1Z" fill="#464646"/>
    <path id="rect895-1" d="M20.6,19.25H19.383a.641.641,0,0,1-.642-.64V17.392a.641.641,0,0,1,.64-.642H20.6a.641.641,0,0,1,.643.641h0v1.216a.641.641,0,0,1-.642.642Z" fill="#464646"/>
    <path id="rect912-7" d="M20.491,16h-1V14.5h1Z" fill="#464646"/>
    <path id="rect912-2-5" d="M20.491,22h-1V20h1Z" fill="#464646"/>
  </g>
</svg>
