<svg id="Layer_1" data-name="Layer 1" xmlns="http://www.w3.org/2000/svg" viewBox="0 0 24 24">
  <g id="g831">
    <path id="path918" d="M6.774,23.2A1,1,0,1,1,6,22.021,1,1,0,0,1,6.774,23.2Z" class="aw-theme-iconOutline" fill="#464646"/>
    <path id="rect823" d="M2,0A2,2,0,0,0,0,2V14.5l1-.4V2.373A1.37,1.37,0,0,1,2.373,1H21.627A1.37,1.37,0,0,1,23,2.373V21.627A1.37,1.37,0,0,1,21.627,23H16v1h6a2,2,0,0,0,2-2V2a2,2,0,0,0-2-2Z" class="aw-theme-iconOutline" fill="#464646"/>
    <path id="path10" d="M21.089,7.779v.5a5.524,5.524,0,1,1-1.27-3.5h-2.73v1h4v-4h-1V3.605a6.487,6.487,0,1,0,2,4.674v-.5Z" class="aw-theme-iconOutline" fill="#464646"/>
    <path id="path856-3-5" d="M5.583,14.13A9.2,9.2,0,0,0,0,16.215l.722.709A8.106,8.106,0,0,1,8.5,15.585l.723-.639.12-.107A9.2,9.2,0,0,0,5.583,14.13ZM6,16.136A7,7,0,0,0,1.593,17.7l.714.706A5.869,5.869,0,0,1,6.7,17.183l.934-.829.013-.012A7.013,7.013,0,0,0,6,16.136Zm6.034.414-.7.617-.062.055a8.2,8.2,0,0,1,2.738,5.9l0,.077,1,.011c0-.038,0-.075,0-.113a9.2,9.2,0,0,0-2.979-6.543Zm-1.469,1.3-.3.266-.451.4a6,6,0,0,1,2.174,4.63l1,0A7,7,0,0,0,10.569,17.851ZM5.6,18.157a5.005,5.005,0,0,0-2.57.96l.7.7C4.4,19.216,5.115,18.583,5.6,18.157Zm3.462,1.034-.764.678a4,4,0,0,1,1.7,3.274l1,0A5,5,0,0,0,9.058,19.191Zm-1.54,1.368-.806.715a2,2,0,0,1,1.28,1.866l1,0A3,3,0,0,0,7.518,20.559Z" class="aw-theme-iconOutline" fill="#464646"/>
    <path id="rect926-2" d="M1.742,23.2l9.588-8.889.743.8L2.486,24Z" class="aw-theme-iconOutline" fill="#464646"/>
  </g>
</svg>
