<svg id="Layer_1" data-name="Layer 1" xmlns="http://www.w3.org/2000/svg" viewBox="0 0 24 24">
  <g id="g847">
    <path id="rect816" d="M0,0H22.335V1H0Z" class="aw-theme-iconOutline" fill="#464646"/>
    <path id="rect816-9" d="M0,4.043H22.371v1H0Z" class="aw-theme-iconOutline" fill="#464646"/>
    <path id="rect816-9-0" d="M1,0V21H0V0Z" class="aw-theme-iconOutline" fill="#464646"/>
    <path id="rect816-9-0-7" d="M23,0V9H22V0Z" class="aw-theme-iconOutline" fill="#464646"/>
    <path id="rect816-9-0-7-3" d="M8,21H0V20H8Z" class="aw-theme-iconOutline" fill="#464646"/>
    <path id="rect1037" d="M2,2H5V3H2Z" class="aw-theme-iconOutline" fill="#464646"/>
    <path id="rect1037-1" d="M7,2h4V3H7Z" class="aw-theme-iconOutline" fill="#464646"/>
    <path id="rect1037-7" d="M13,2h4V3H13Z" class="aw-theme-iconOutline" fill="#464646"/>
    <path id="rect1037-7-0" d="M20,2h1V3H20Z" class="aw-theme-iconOutline" fill="#464646"/>
    <path id="rect841" d="M5,4.425H6V20.483H5Z" class="aw-theme-iconOutline" fill="#464646"/>
    <path id="rect841-3" d="M11,4.5h1V16H11Z" class="aw-theme-iconOutline" fill="#464646"/>
    <path id="rect841-0" d="M17,4.569h1V10H17Z" class="aw-theme-iconOutline" fill="#464646"/>
    <path id="rect841-32" d="M20,8V9H.64V8Z" class="aw-theme-iconOutline" fill="#464646"/>
    <path id="rect841-32-9" d="M14,12v1H.64V12Z" class="aw-theme-iconOutline" fill="#464646"/>
    <path id="rect841-32-9-3" d="M10,16v1H.569V16Z" class="aw-theme-iconOutline" fill="#464646"/>
    <path id="path852" d="M9.209,23.989c-.156-.03-.309-.176-.309-.293s1.335-4.088,1.433-4.235c.041-.064,2.316-2.283,5.043-4.933,3.724-3.618,5.03-4.849,5.229-4.941a1.433,1.433,0,0,1,.51-.126c.509,0,.646.083,1.616,1A13.025,13.025,0,0,1,23.754,11.5a1.366,1.366,0,0,1-.015,1.418c-.067.09-2.326,2.3-5.018,4.908l-4.9,4.741-2.111.7c-2.155.716-2.309.762-2.5.721Zm2.15-1.393c.667-.206,1.233-.392,1.258-.413A17.014,17.014,0,0,0,10.925,20.5a11.449,11.449,0,0,0-.422,1.163L10.092,22.9c-.011.034-.009.069.013.069s.587-.166,1.254-.371ZM17.5,17.855l4.012-3.882-1.05-1.021a12.782,12.782,0,0,0-1.1-1.007c-.075.021-7.986,7.683-7.991,7.739s2.016,2.046,2.079,2.051c.024,0,1.847-1.746,4.053-3.879Zm5.513-5.388c.163-.288.11-.373-.759-1.225a8.084,8.084,0,0,0-.957-.855c-.213-.068-.352.01-.846.474l-.478.448L21.04,12.34l1.065,1.03.422-.392a4.192,4.192,0,0,0,.485-.512Z" class="aw-theme-iconOutline" fill="#464646"/>
  </g>
</svg>
