<svg id="Layer_1" data-name="Layer 1" xmlns="http://www.w3.org/2000/svg" viewBox="0 0 24 24">
  <g id="g904">
    <path id="path888" d="M6.049,13.494l-.562-.006-.069-.034a.37.37,0,0,1-.2-.365.4.4,0,0,1,.177-.367l.068-.049H9.624c2.477,0,4.162,0,4.16.011s-.1.193-.227.416l-.222.406-3.362,0c-1.85,0-3.616-.005-3.924-.009Z" class="aw-theme-iconOutline" fill="#464646"/>
    <path id="path890" d="M5.813,11.66c-.334-.009-.352-.01-.41-.038a.469.469,0,0,1-.2-.2.442.442,0,0,1,0-.335.474.474,0,0,1,.193-.2l.052-.027,1.292-.011c1.513-.013,7.3,0,7.471.012a.453.453,0,0,1,.183.043.368.368,0,0,1,.191.364.4.4,0,0,1-.207.358l-.058.04-4.08,0c-2.244,0-4.237,0-4.43-.007Z" class="aw-theme-iconOutline" fill="#464646"/>
    <path id="path892" d="M5.716,9.849c-.261-.01-.3-.021-.39-.11a.329.329,0,0,1-.1-.283.324.324,0,0,1,.029-.179.462.462,0,0,1,.172-.19l.07-.048,4.415,0,4.415,0,.069.032a.477.477,0,0,1,.216.207.441.441,0,0,1,0,.316.422.422,0,0,1-.162.2l-.075.053H10.159c-2.317,0-4.317,0-4.443-.007Z" class="aw-theme-iconOutline" fill="#464646"/>
    <path id="path894" d="M12.536,6.036c-.226-.007-.245-.01-.307-.039a.4.4,0,0,1-.242-.4.36.36,0,0,1,.117-.262c.079-.084.13-.1.42-.112s2.211-.015,2.5,0a.609.609,0,0,1,.257.036.4.4,0,0,1,.178.178.306.306,0,0,1,.035.185.351.351,0,0,1-.106.288.335.335,0,0,1-.235.111C15.042,6.036,12.885,6.047,12.536,6.036Z" class="aw-theme-iconOutline" fill="#464646"/>
    <path id="path896" d="M6.67,4.3c-.332-.009-.344-.012-.444-.119a.348.348,0,0,1-.11-.285.322.322,0,0,1,.105-.272.42.42,0,0,1,.31-.124c.2-.019,7.759-.019,7.956,0a.805.805,0,0,1,.183.033.39.39,0,0,1,.18.185.307.307,0,0,1,.04.184.307.307,0,0,1-.04.184.361.361,0,0,1-.181.18.768.768,0,0,1-.3.035C14.09,4.309,7.1,4.308,6.67,4.3Z" class="aw-theme-iconOutline" fill="#464646"/>
    <path id="path886" d="M12.193,21.509A16.25,16.25,0,0,1,6.745,20.1a1.51,1.51,0,0,0-.925-.157,11.707,11.707,0,0,0-2.16.493,6.4,6.4,0,0,1-1.714.406,1.539,1.539,0,0,1-1.16-.489c-.333-.333-.4-.5-.626-1.521A2.915,2.915,0,0,1,.023,17.6a1.762,1.762,0,0,1,.935-1.379,5.406,5.406,0,0,1,1.169-.345c.827-.2,1.563-.406,1.786-.492l.072-.028L3.922,15.3a.54.54,0,0,1-.109-.137c-.043-.082-.045-.282-.045-6.59,0-6.018,0-6.511.04-6.578a.48.48,0,0,1,.277-.231c.054-.012,2.517-.022,5.78-.022h5.686l.115.073a.381.381,0,0,1,.148.154,3.529,3.529,0,0,1,.072.536,5.672,5.672,0,0,0,.473,2.064A14.715,14.715,0,0,0,17.77,6.557c.436.534.494.621.494.737a.4.4,0,0,1-.132.309l-.085.1-1.086.018-1.086.018V10.4l-.41.328c-.226.181-.416.328-.423.328s-.012-.749-.012-1.665V7.728l-.912,0c-.5,0-1.823-.011-2.939-.022a14.616,14.616,0,0,1-2.263-.069,5.268,5.268,0,0,1-3.268-2,9.771,9.771,0,0,1-.721-1.207,6.018,6.018,0,0,0-.308-.536C4.609,3.89,4.6,6.3,4.6,9.239v5.35l1.129-.017c1.314-.019,1.287-.019,4.636.005l2.565.019-.279.4-.28.4-.8.006-.795.007.865.441.866.44.366.052a3.078,3.078,0,0,0,.376.042.3.3,0,0,0-.016-.108c-.054-.2.025-.317.627-.93l.465-.473.317-1.156a12.707,12.707,0,0,1,.368-1.226c.072-.1,2.027-1.806,4.759-4.157a21.86,21.86,0,0,1,2.044-1.711c.179-.075.2-.062,1.107.852.886.889,1.061,1.09,1.061,1.222,0,.178-.289.527-3.394,4.117L18.753,14.95a7.984,7.984,0,0,1-.591.643,8.736,8.736,0,0,1-1.426.449c-1,.278-.957.261-1.223.532-.105.107-.122.134-.083.134a1.615,1.615,0,0,1,.851.394l.129.132.463-.216a10.492,10.492,0,0,0,2.045-1.209c.619-.42,1.2-.8,1.292-.847a1.475,1.475,0,0,1,1.332-.036,1.624,1.624,0,0,1,.651.672,1.677,1.677,0,0,1,.191.736,1.891,1.891,0,0,1-.613,1.511A18.315,18.315,0,0,1,19.5,19.479c-.235.137-.991.5-2.2,1.06a7.759,7.759,0,0,1-3.067.972c-.406.029-1.584.028-2.04,0Zm2.173-.941c.769-.077,1.269-.265,3.512-1.323C18.389,19,18.894,18.757,19,18.7a18.06,18.06,0,0,0,2.2-1.588.991.991,0,0,0,.158-1.1.444.444,0,0,0-.4-.288.6.6,0,0,0-.27.037c-.067.026-.626.389-1.244.808s-1.177.794-1.243.834-.426.217-.8.392l-.679.317-.015.162a1.88,1.88,0,0,1-1.364,1.649c-.334.088-.537.074-2.08-.146-.763-.108-1.475-.22-1.581-.247a8.872,8.872,0,0,1-1.678-.755,7.562,7.562,0,0,1-1.174-.631.452.452,0,0,1,.149-.711c.2-.1.221-.091,1.523.55.649.32,1.235.6,1.3.618a13.3,13.3,0,0,0,1.69.271,13.445,13.445,0,0,0,1.466.172.874.874,0,0,0,.734-.521.826.826,0,0,0,.027-.642.509.509,0,0,0-.306-.229c-.048-.013-.722-.11-1.5-.217s-1.488-.213-1.581-.234a11.424,11.424,0,0,1-1.352-.637,10.035,10.035,0,0,0-1.565-.721,5.632,5.632,0,0,0-3.408-.207,12.1,12.1,0,0,0-1.315.44,16.237,16.237,0,0,1-2.39.709A3.375,3.375,0,0,0,1.3,17.09a.941.941,0,0,0-.359.833,10.814,10.814,0,0,0,.348,1.564.707.707,0,0,0,.6.428A7.431,7.431,0,0,0,3.575,19.5a8.491,8.491,0,0,1,2.641-.487,2.292,2.292,0,0,1,.909.246,15.782,15.782,0,0,0,4.694,1.292A17.54,17.54,0,0,0,14.366,20.568Zm.554-4.49a.291.291,0,0,0,.085-.1,1.493,1.493,0,0,0-.326-.333,1.18,1.18,0,0,0-.332.365,1.573,1.573,0,0,0,.422.14A.249.249,0,0,0,14.92,16.078Zm1.618-.751c.359-.093.66-.176.67-.185s-.362-.4-.826-.859a7.316,7.316,0,0,0-.856-.808c-.007.019-.106.371-.219.781L15.1,15l.14.143c.077.079.208.2.292.271.15.125.153.126.253.1C15.841,15.507,16.18,15.42,16.538,15.327Zm4.018-3.592,2.56-2.981-.62-.62-.62-.621-.146.128C19.758,9.36,16,12.646,15.959,12.68s-.041.052.519.615c.665.668,1.473,1.438,1.5,1.428C17.987,14.72,19.147,13.375,20.556,11.735ZM16.934,6.869a.515.515,0,0,0-.088-.124,16.265,16.265,0,0,1-1.22-1.769,6.133,6.133,0,0,1-.563-2.191l-.016-.223H9.981c-3.919,0-5.066.007-5.066.029s.413.821.839,1.6A5.371,5.371,0,0,0,6.5,5.33l.146.149,1.291-.188L9.942,5l.718-.1.1.054a4.639,4.639,0,0,1,.477.4,9.468,9.468,0,0,0,1.822,1.412l.217.117.833.012C14.935,6.9,16.916,6.885,16.934,6.869Zm-5.224-.01c-.008-.013-.147-.135-.309-.271s-.428-.366-.592-.513a4.472,4.472,0,0,0-.35-.294,2.68,2.68,0,0,0-.752.078l-1.434.214c-.4.06-.741.116-.749.124s.068.08.348.215a4.755,4.755,0,0,0,1.521.443C9.7,6.886,11.729,6.89,11.71,6.859Z" class="aw-theme-iconOutline" fill="#464646"/>
  </g>
</svg>
