<svg id="Layer_1" data-name="Layer 1" xmlns="http://www.w3.org/2000/svg" viewBox="0 0 24 24">
  <g id="g818">
    <path id="path2" d="M19,7v4H17V3H14V0H10V3H7v8H5V7H0v9H5V12H7v8h3v3h4V20h3V12h2v4h5V7ZM4,15H1V8H4ZM11,1h2V6H11ZM8,4h2V7h4V4h2v7H14V8H10v3H8Zm5,5v5H11V9Zm0,13H11V17h2Zm3-3H14V16H10v3H8V12h2v3h4V12h2Zm7-4H20V8h3Z" class="aw-theme-iconOutline" fill="#464646"/>
    <rect id="rect819" x="19.627" y="7.627" width="4.017" height="7.856" class="aw-theme-iconOutline" fill="#464646"/>
  </g>
</svg>
