<svg id="svg8" xmlns="http://www.w3.org/2000/svg" viewBox="0 0 24 24">
  <g id="g856">
    <path id="rect854" d="M.089,3.029H23.05V4.1H.089Z" class="aw-theme-iconOutline" fill="#464646" fill-rule="evenodd"/>
    <path id="rect856" d="M3.05,3.884h1V23.241h-1Z" class="aw-theme-iconOutline" fill="#464646" fill-rule="evenodd"/>
    <path id="rect856-6" d="M7,3.776H8V23.169H7Z" class="aw-theme-iconOutline" fill="#464646" fill-rule="evenodd"/>
    <path id="rect856-1" d="M11,3.74h1V23.313H11Z" class="aw-theme-iconOutline" fill="#464646" fill-rule="evenodd"/>
    <path id="rect856-5" d="M15,3.776h1V23.349H15Z" class="aw-theme-iconOutline" fill="#464646" fill-rule="evenodd"/>
    <path id="rect885" d="M.121,7.166H23.374V8.2H.121Z" class="aw-theme-iconOutline" fill="#464646" fill-rule="evenodd"/>
    <path id="rect893" d="M.186,11.1h23.08v1H.186Z" class="aw-theme-iconOutline" fill="#464646" fill-rule="evenodd"/>
    <path id="rect854-5" d="M.072,0h23V1h-23Z" class="aw-theme-iconOutline" fill="#464646" fill-rule="evenodd"/>
    <path id="rect854-5-0" d="M1,0V24H0V0Z" class="aw-theme-iconOutline" fill="#464646" fill-rule="evenodd"/>
    <path id="rect854-5-0-9" d="M24,0V24H23V0Z" class="aw-theme-iconOutline" fill="#464646" fill-rule="evenodd"/>
    <path id="rect856-5-5" d="M19,3.552h1v19.68H19Z" class="aw-theme-iconOutline" fill="#464646" fill-rule="evenodd"/>
    <path id="rect854-5-6" d="M.6,15.1H23.561v1H.6Z" class="aw-theme-iconOutline" fill="#464646" fill-rule="evenodd"/>
    <path id="rect854-5-6-3" d="M1,23H23.961v1H1Z" class="aw-theme-iconOutline" fill="#464646" fill-rule="evenodd"/>
    <path id="rect854-5-6-5" d="M.6,19.062H23.561v1H.6Z" class="aw-theme-iconOutline" fill="#464646" fill-rule="evenodd"/>
  </g>
</svg>
