<svg id="Layer_1" data-name="Layer 1" xmlns="http://www.w3.org/2000/svg" viewBox="0 0 24 24">
  <g id="g851">
    <path id="path826" d="M1.886,19.286a.458.458,0,0,1-.062-.823l.063-.029,4.881,0,4.882,0-.028.05-.24.437-.213.386H6.556c-3.624,0-4.626,0-4.67-.014Z" class="aw-theme-iconOutline" fill="#464646"/>
    <path id="path828" d="M1.87,17.107a.436.436,0,0,1-.279-.236.3.3,0,0,1-.036-.183.317.317,0,0,1,.036-.183.443.443,0,0,1,.325-.242c.1-.015,10.273-.015,10.371,0a.434.434,0,0,1,.323.614.5.5,0,0,1-.23.216l-.063.026-5.193,0c-4.545,0-5.2,0-5.254-.014Z" class="aw-theme-iconOutline" fill="#464646"/>
    <path id="path830" d="M1.9,14.96a.393.393,0,0,1-.2-.128.379.379,0,0,1-.106-.288.288.288,0,0,1,.041-.184.424.424,0,0,1,.337-.242c.045-.006,2.106-.009,5.223-.007,4.811,0,5.152,0,5.2.022a.436.436,0,0,1,.122.762.481.481,0,0,1-.105.061c-.047.019-.314.02-5.253.022-5,0-5.206,0-5.267-.018Z" class="aw-theme-iconOutline" fill="#464646"/>
    <path id="path832" d="M9.961,10.413a.471.471,0,0,1-.279-.256A.433.433,0,0,1,9.9,9.608l.066-.035H13.41l.064.03a.453.453,0,0,1,.249.324.438.438,0,0,1-.24.461l-.073.036-1.7,0c-1.386,0-1.71,0-1.748-.013Z" class="aw-theme-iconOutline" fill="#464646"/>
    <path id="path834" d="M2.986,8.364a.435.435,0,0,1-.3-.538.429.429,0,0,1,.241-.278l.065-.03h9.689l.072.034a.454.454,0,0,1,.212.212A.29.29,0,0,1,13,7.943a.309.309,0,0,1-.036.18.468.468,0,0,1-.21.214l-.064.032-4.839,0C5.191,8.372,3,8.369,2.986,8.364Z" class="aw-theme-iconOutline" fill="#464646"/>
    <path id="path836" d="M.26,21.972a.423.423,0,0,1-.234-.241C0,21.628,0,6.441.025,6.319A.393.393,0,0,1,.2,6.068l.073-.05,6.81.006L13.9,6.03l.084.063a.419.419,0,0,1,.114.137,2.7,2.7,0,0,1,.053.478,6.912,6.912,0,0,0,.586,2.625A18.694,18.694,0,0,0,16.507,11.8c.457.544.462.55.479.651a.4.4,0,0,1-.164.346l-.075.05h-2.6v3.266l-.359.287-.359.287-.014-.522c-.007-.288-.015-1.152-.016-1.92l0-1.4-3.464-.007a33.528,33.528,0,0,1-3.751-.054,6.12,6.12,0,0,1-3.415-1.728,5.749,5.749,0,0,1-1.1-1.5c-.108-.2-.355-.66-.549-1.022S.759,7.875.75,7.875.724,21.258.739,21.271s2.2.01,4.892.016l4.887.012-.237.342-.237.343-4.86,0c-2.706,0-4.888,0-4.924-.016ZM9.771,12.13c0-.005-.107-.091-.238-.192a19.2,19.2,0,0,1-1.477-1.262l-.178-.171-1.941.288c-1.067.158-1.948.292-1.959.3-.032.02,0,.053.155.152a5.632,5.632,0,0,0,2.553.872C6.937,12.134,9.771,12.147,9.771,12.13Zm6.054,0c0-.006-.1-.133-.217-.281A17.078,17.078,0,0,1,14.057,9.6a7.3,7.3,0,0,1-.621-2.528l-.028-.348H7.275c-3.373,0-6.17.008-6.215.017l-.083.015.118.21c.065.115.386.707.715,1.316s.644,1.185.7,1.281a6.755,6.755,0,0,0,.589.79l.118.127,2.406-.356A20.957,20.957,0,0,1,8.116,9.8a1.557,1.557,0,0,1,.389.316A10.021,10.021,0,0,0,11.152,12.1a15.682,15.682,0,0,0,2.392.041c1.255,0,2.281,0,2.281-.012Z" class="aw-theme-iconOutline" fill="#464646"/>
    <path id="path823" d="M12.74,23.949a13.693,13.693,0,0,1-1.419-.512.434.434,0,0,1-.114-.5,5.412,5.412,0,0,1,.781-.886l.5-.51.057-.21c.375-1.392.694-2.522.728-2.579a2.019,2.019,0,0,1,.246-.256c.708-.644,6.585-5.73,7.548-6.531a2.792,2.792,0,0,1,.327-.248.366.366,0,0,1,.3.026c.112.068,1.93,1.9,2.106,2.119a1.257,1.257,0,0,1,.173.268c.022.072.017.093-.039.2-.155.285-.794,1.042-4.384,5.193-.857.991-1.757,2.033-2,2.316-.506.591-.474.568-1.027.741-.267.084-1.353.39-2.1.592l-.188.05-.356.333a3.758,3.758,0,0,1-.464.387A1,1,0,0,1,12.74,23.949Zm.413-.933a.6.6,0,0,0,.106-.109c.034-.051.034-.06,0-.11a2.379,2.379,0,0,0-.2-.223l-.17-.169-.229.238a1.117,1.117,0,0,0-.211.257,2.525,2.525,0,0,0,.592.183A.526.526,0,0,0,13.153,23.016Zm1.235-.736c.254-.06,1.482-.385,1.555-.411a3.507,3.507,0,0,0-.519-.564c-.783-.785-1.511-1.487-1.527-1.471s-.515,1.8-.516,1.84a2.616,2.616,0,0,0,.271.292c.259.258.4.38.442.38C14.1,22.346,14.236,22.317,14.388,22.28ZM19.6,18.159c1.48-1.726,2.843-3.313,3.028-3.527l.337-.388-.755-.753-.756-.752L19.679,14.3l-3.567,3.118-1.788,1.562.96.948c.527.522,1.087,1.067,1.244,1.211l.286.263.048-.051C16.889,21.319,18.122,19.884,19.6,18.159Z" class="aw-theme-iconOutline" fill="#464646"/>
    <path id="path848" d="M17.3,9.781a1.038,1.038,0,0,1-.175-.892,5.772,5.772,0,0,1,1.4-3.4c.235-.259.271-.322.271-.472s-.036-.214-.226-.43a5.454,5.454,0,0,1-1.055-1.728,6.3,6.3,0,0,1-.4-1.946c0-.246-.023-.328-.088-.388s-.084-.136-.084-.289V.019h6.039l.1.1A.253.253,0,0,1,23.093.5C23.031.561,23,.68,22.98.991A5.934,5.934,0,0,1,21.6,4.48c-.417.452-.425.551-.083.939a6.1,6.1,0,0,1,1.46,3.56.968.968,0,0,1-.23.856l-.113.106-2.6.012-2.6.012Zm4.948-.654a7.464,7.464,0,0,0-.2-1.153,5.668,5.668,0,0,0-.632-1.431c-.076-.11-.275-.359-.442-.554A1.22,1.22,0,0,1,20.554,5a1.3,1.3,0,0,1,.46-1.033,5.1,5.1,0,0,0,1.207-2.874l.028-.232H17.871V1.04a6.087,6.087,0,0,0,.294,1.376,4.687,4.687,0,0,0,.984,1.644,1.268,1.268,0,0,1,.391,1.062,1.422,1.422,0,0,1-.46.917,5.011,5.011,0,0,0-1.2,2.762l-.038.318L18,9.136c.356.038,4.245.03,4.245-.009Z" class="aw-theme-iconOutline" fill="#464646"/>
    <path id="rect1341-1-6" d="M16.407,10h7.186A.405.405,0,0,0,24,9.593V9.407A.405.405,0,0,0,23.593,9H16.407A.405.405,0,0,0,16,9.407v.186A.405.405,0,0,0,16.407,10Z" class="aw-theme-iconOutline" fill="#464646"/>
    <path id="rect1341-1-5-2" d="M16.407,1h7.186A.405.405,0,0,0,24,.593V.407A.405.405,0,0,0,23.593,0H16.407A.405.405,0,0,0,16,.407V.593A.405.405,0,0,0,16.407,1Z" class="aw-theme-iconOutline" fill="#464646"/>
    <path id="path1394-4" d="M19.9,5.56c-.023.24-.364.479-.561.688a3.734,3.734,0,0,0-.978,1.85,5.477,5.477,0,0,0-.1.586v.041h1.779c.979,0,1.78,0,1.78-.011s-.013-.1-.029-.209a4.259,4.259,0,0,0-.569-1.644,3.311,3.311,0,0,0-.448-.576,3.975,3.975,0,0,0-.313-.327,1.2,1.2,0,0,1-.349-.419l-.052-.051.006,0c-.2-.055-.2.2-.086,0Z" class="aw-theme-iconOutline" fill="#464646"/>
  </g>
</svg>
