<svg id="Layer_1" data-name="Layer 1" xmlns="http://www.w3.org/2000/svg" viewBox="0 0 24 24">
  <g id="g981">
    <path id="rect816" d="M0,0H24V1H0V0Z" class="aw-theme-iconOutline" fill="#464646"/>
    <path id="rect816-9" d="M0,4.043H24v1H0v-1Z" class="aw-theme-iconOutline" fill="#464646"/>
    <path id="rect816-9-0" d="M1,0V24H0V0H1Z" class="aw-theme-iconOutline" fill="#464646"/>
    <path id="rect816-9-0-7" d="M24,0V24H23V0h1Z" class="aw-theme-iconOutline" fill="#464646"/>
    <path id="rect816-9-0-7-3" d="M24,24H0V23H24v1Z" class="aw-theme-iconOutline" fill="#464646"/>
    <path id="rect1037" d="M2,2H6V3H2V2Z" class="aw-theme-iconOutline" fill="#464646"/>
    <path id="rect1037-1" d="M8,2h4V3H8V2Z" class="aw-theme-iconOutline" fill="#464646"/>
    <path id="rect1037-7" d="M14,2h4V3H14V2Z" class="aw-theme-iconOutline" fill="#464646"/>
    <path id="rect1037-7-3" d="M21,2h1V3H21V2Z" class="aw-theme-iconOutline" fill="#464646"/>
    <path id="rect882" d="M4.083,13.583H9.917v.834H4.083Z" class="aw-theme-iconOutline" fill="#464646"/>
    <path id="path852" d="M7,9a5,5,0,1,0,5,5A5,5,0,0,0,7,9Zm0,1a4,4,0,0,1,4,4h0a4,4,0,0,1-4,4H7a4,4,0,0,1-4-4H3a4,4,0,0,1,4-4Z" class="aw-theme-iconOutline" fill="#464646"/>
    <path id="rect882-1" d="M7.417,11.083v5.834H6.583V11.083Z" class="aw-theme-iconOutline" fill="#464646"/>
    <path id="rect973" d="M7,6H21V7H7Z" class="aw-theme-iconOutline" fill="#464646"/>
    <path id="rect899-5" d="M6.5,6h1V9.5h-1Z" class="aw-theme-iconOutline" fill="#464646"/>
    <path id="rect973-7" d="M7,22H21V21H7Z" class="aw-theme-iconOutline" fill="#464646"/>
    <path id="rect899-5-2" d="M6.5,18.5h1V22h-1Z" class="aw-theme-iconOutline" fill="#464646"/>
    <path id="rect870" d="M13,19h8v1H13Z" class="aw-theme-iconOutline" fill="#464646"/>
    <path id="rect870-2" d="M13,15h8v1H13Z" class="aw-theme-iconOutline" fill="#464646"/>
    <path id="rect870-8" d="M13,12h8v1H13Z" class="aw-theme-iconOutline" fill="#464646"/>
    <path id="rect870-2-3" d="M13,8h8V9H13Z" class="aw-theme-iconOutline" fill="#464646"/>
    <path id="rect905" d="M13,9h1v3H13Z" class="aw-theme-iconOutline" fill="#464646"/>
    <path id="rect905-8" d="M20,9h1v3H20Z" class="aw-theme-iconOutline" fill="#464646"/>
    <path id="rect905-86" d="M13,16h1v3H13Z" class="aw-theme-iconOutline" fill="#464646"/>
    <path id="rect905-8-8" d="M20,16h1v3H20Z" class="aw-theme-iconOutline" fill="#464646"/>
  </g>
</svg>
