<svg id="Image" xmlns="http://www.w3.org/2000/svg" viewBox="0 0 24 24">
  <g id="g863">
    <path id="path853" d="M17.192,21.893a.729.729,0,0,1-.362-.311.468.468,0,0,1-.07-.3.463.463,0,0,1,.07-.3.685.685,0,0,1,.635-.352.652.652,0,0,1,.49.181.636.636,0,0,1-.2,1.067A.966.966,0,0,1,17.192,21.893Z" class="aw-theme-iconOutline" fill="#464646"/>
    <path id="path851" d="M16.841,19.27a2.441,2.441,0,0,1-.013-1.278,4.414,4.414,0,0,1,1.286-1.521c.687-.628.944-1.142.837-1.668a1.213,1.213,0,0,0-1.021-.931,1.7,1.7,0,0,0-.585-.041,2.47,2.47,0,0,0-1.651.656l-.141.129v-1.05l.311-.15a3.837,3.837,0,0,1,1.45-.407,2.712,2.712,0,0,1,2.316.788,1.627,1.627,0,0,1,.364,1.006,1.77,1.77,0,0,1-.169.894,3.862,3.862,0,0,1-1.074,1.284,3.453,3.453,0,0,0-.951,1.081,1.517,1.517,0,0,0,.016,1.111c.042.118.076.221.076.229a4.516,4.516,0,0,1-.5.014h-.5Z" class="aw-theme-iconOutline" fill="#464646"/>
    <path id="path839" d="M17.486,5H4.819a.5.5,0,1,1,0-1H17.486a.5.5,0,0,1,0,1Z" class="aw-theme-iconOutline" fill="#464646"/>
    <path id="path837" d="M3.386,13.375H11.5a.5.5,0,0,0,0-1H3.381a.5.5,0,0,0,0,1Z" class="aw-theme-iconOutline" fill="#464646"/>
    <path id="path835" d="M9.5,15.333H3.381a.5.5,0,1,0,0,1H9.5a.5.5,0,0,0,0-1Z" class="aw-theme-iconOutline" fill="#464646"/>
    <path id="path833" d="M8.5,18.292H3.381a.5.5,0,0,0,0,1H8.5a.5.5,0,0,0,0-1Z" class="aw-theme-iconOutline" fill="#464646"/>
    <path id="path831" d="M18.569,6.875H14.486a.5.5,0,0,0,0,1h4.083a.5.5,0,0,0,0-1Z" class="aw-theme-iconOutline" fill="#464646"/>
    <path id="path829" d="M1.457.986a.332.332,0,0,0-.187.067l-.012.01-.008.005a.492.492,0,0,0-.162.162.44.44,0,0,0-.029.051.477.477,0,0,0-.049.188c0,.011-.01.02-.01.031v21a.5.5,0,0,0,.5.5H13.813a.523.523,0,0,0,.179-.035,6.495,6.495,0,1,0,5.912-11.5V10.428h3.319A.5.5,0,0,0,23.6,9.6a31.852,31.852,0,0,1-2.715-3.686,4.607,4.607,0,0,1-.3-.6l-.021-.046a6.46,6.46,0,0,1-.215-.614c-.008-.029-.018-.056-.026-.084-.058-.2-.107-.4-.15-.6-.007-.03-.017-.067-.024-.1q-.057-.3-.1-.576a.794.794,0,0,1-.016-.1c-.027-.189-.047-.37-.064-.539l-.006-.06c-.017-.176-.03-.34-.039-.483V2.1c-.021-.3-.022-.52-.022-.6a.517.517,0,0,0-.017-.1.593.593,0,0,0-.02-.093.481.481,0,0,0-.066-.1c-.012-.021-.025-.041-.039-.061a.549.549,0,0,0-.1-.068.587.587,0,0,0-.058-.039.574.574,0,0,0-.1-.021A.391.391,0,0,0,19.41,1H1.568A.346.346,0,0,0,1.457.986ZM2.3,2H18.912v.027c.005.1.013.208.022.327,0,.04.009.09.009.138.007.09.018.181.028.281,0,.055.008.106.015.163.015.134.034.274.055.419.009.063.019.127.029.192.019.119.043.24.067.363.01.053.017.1.027.154.034.166.074.332.117.5.014.056.03.113.045.17.045.158.092.317.145.475.008.023.013.046.021.068.062.178.132.352.207.524l.065.125a5.092,5.092,0,0,0,.265.508A28.95,28.95,0,0,0,22.16,9.428H16.115c-1.1-.244-3.292-2.32-4.052-3.106a.5.5,0,0,0-.436-.146L5.3,7.139a7.694,7.694,0,0,1-1.184-1.69C3.232,3.741,2.676,2.668,2.3,2ZM2,3.547c.3.583.7,1.346,1.229,2.365a8.113,8.113,0,0,0,7.107,4.516H18.9v.728A6.489,6.489,0,0,0,12.82,22H2ZM11.525,7.2a23.6,23.6,0,0,0,2.543,2.227H10.432A7.3,7.3,0,0,1,6.26,8ZM17.34,12A5.5,5.5,0,0,1,23,17.339c0,.054,0,.107,0,.161A5.507,5.507,0,1,1,17.34,12Z" class="aw-theme-iconOutline" fill="#464646"/>
  </g>
</svg>
