<svg id="Livello_1" data-name="Livello 1" xmlns="http://www.w3.org/2000/svg" viewBox="0 0 24 24">
  <g id="g841">
    <path id="path13" d="M0,0V21H10.873a7.416,7.416,0,0,1-.373-6.168v-.744h.33a7.452,7.452,0,0,1,.522-.877H10.5V10.586h2.625v.834A7.49,7.49,0,0,1,14,10.871v-.285h.611A7.439,7.439,0,0,1,21,10.871V0H0ZM.873.873H20.127V2.648H.873Zm0,2.713h1.8V6.27H.873Zm2.67,0H6.125V6.27H3.543ZM7,3.586H9.627V6.27H7Zm3.5,0h2.625V6.27H10.5Zm3.5,0h2.625V6.27H14Zm3.5,0h2.627V6.27H17.5ZM.873,7.174h1.8V9.713H.873Zm2.67,0H6.125V9.713H3.543ZM7,7.174H9.627V9.713H7Zm3.5,0h2.625V9.713H10.5Zm3.5,0h2.625V9.713H14Zm3.5,0h2.627V9.713H17.5ZM.873,10.586h1.8v2.625H.873Zm2.67,0H6.125v2.625H3.543Zm3.457,0H9.627v2.625H7Zm-6.127,3.5h1.8v2.59H.873Zm2.67,0H6.125v2.59H3.543Zm3.457,0H9.627v2.59H7ZM.873,17.555h1.8v2.572H.873Zm2.67,0H6.125v2.572H3.543Zm3.457,0H9.627v2.572H7Z" class="aw-theme-iconOutline" fill="#464646" fill-rule="evenodd"/>
    <path id="path824" d="M17.6,16.943s-.034-.214-.074-.469c-.066-.413-.072-.465-.054-.473s.307-.052.656-.105c.73-.111.708-.107.7-.122s-.075-.066-.158-.133a3.668,3.668,0,0,0-1.785-.846,2.119,2.119,0,0,0-.821.076,2.453,2.453,0,0,0-.509.265,3.189,3.189,0,0,0-.9,1.115c-.04.077-.075.142-.077.145s-.827-.431-.853-.449c0,0,.044-.074.257-.4a3.481,3.481,0,0,1,1.58-1.539,3.548,3.548,0,0,1,.8-.184,2.709,2.709,0,0,1,.693.013,5.155,5.155,0,0,1,2.084,1.014.733.733,0,0,0,.169.107c0-.008-.04-.289-.092-.625s-.092-.612-.089-.615.216-.038.473-.077l.467-.072.226,1.461c.124.8.224,1.463.222,1.465s-.644.1-1.427.221-1.439.222-1.458.226a.093.093,0,0,1-.036,0Z" class="aw-theme-iconOutline" fill="#464646"/>
    <path id="path3-5" d="M17.5,24a6.487,6.487,0,1,1,.026,0H17.5m0-12A5.5,5.5,0,1,0,23,17.5,5.5,5.5,0,0,0,17.5,12" class="aw-theme-iconOutline" fill="#464646"/>
    <path id="circle5-7" d="M17,19.251A1.75,1.75,0,1,1,15.251,17.5h0A1.75,1.75,0,0,1,17,19.251Z" class="aw-theme-iconOutline" fill="#464646"/>
    <path id="circle5-4" d="M19.762,17.508a1.76,1.76,0,1,0,.024,0Zm.012,1h.01a.75.75,0,0,1,.75.75h0a.75.75,0,1,1-.76-.75Z" class="aw-theme-iconOutline" fill="#464646"/>
  </g>
</svg>
