<svg id="Layer_1" data-name="Layer 1" xmlns="http://www.w3.org/2000/svg" viewBox="0 0 24 24">
  <g id="g852">
    <path id="path838" d="M0,0H22.32V1.04H0Z" class="aw-theme-iconOutline" fill="#464646"/>
    <path id="path840" d="M0,4.08H22.4v.96H0Z" class="aw-theme-iconOutline" fill="#464646"/>
    <path id="path842" d="M1.04,0V21.04H0V0Z" class="aw-theme-iconOutline" fill="#464646"/>
    <path id="path844" d="M23.04,0V9.04H22V0Z" class="aw-theme-iconOutline" fill="#464646"/>
    <path id="path846" d="M8,21.04H0V20H8Z" class="aw-theme-iconOutline" fill="#464646"/>
    <path id="path848" d="M2,2H5.04V3.04H2Z" class="aw-theme-iconOutline" fill="#464646"/>
    <path id="path850" d="M7.04,2h4V3.04h-4Z" class="aw-theme-iconOutline" fill="#464646"/>
    <path id="path852-6" d="M13.04,2h4V3.04h-4Z" class="aw-theme-iconOutline" fill="#464646"/>
    <path id="path854" d="M20,2h1.04V3.04H20Z" class="aw-theme-iconOutline" fill="#464646"/>
    <path id="path868" d="M9.2,24c-.16-.08-.32-.16-.32-.32,0-.08,1.36-4.08,1.44-4.24.08-.08,2.32-2.24,5.04-4.88,3.76-3.68,5.04-4.88,5.28-4.96a1.137,1.137,0,0,1,.48-.16c.48,0,.64.08,1.6,1.04a6.4,6.4,0,0,1,1.04,1.04,1.374,1.374,0,0,1,0,1.36c-.08.16-2.32,2.32-5.04,4.96l-4.88,4.72-2.16.72A9.278,9.278,0,0,1,9.2,24Zm2.16-1.44a5.987,5.987,0,0,0,1.28-.4l-1.68-1.68-.48,1.2a8.951,8.951,0,0,1-.4,1.2v.08A8.567,8.567,0,0,0,11.36,22.56Zm6.16-4.72,4-3.84-1.04-1.04a13.284,13.284,0,0,0-1.12-1.04c-.08.08-8,7.68-8,7.76a25.515,25.515,0,0,0,2.08,2.08S15.28,20,17.52,17.84Zm5.52-5.36c.16-.32.08-.4-.8-1.2a9.588,9.588,0,0,0-.96-.88c-.16-.08-.32,0-.8.48l-.48.4,1.04,1.04,1.04,1.04.48-.4Z" class="aw-theme-iconOutline" fill="#464646"/>
    <path id="rect993" d="M2,7H4V9H2Z" class="aw-theme-iconOutline" fill="#464646"/>
    <path id="rect995" d="M6,7h7V9H6Z" class="aw-theme-iconOutline" fill="#464646"/>
    <path id="rect997" d="M6,11H9v2H6Z" class="aw-theme-iconOutline" fill="#464646"/>
    <path id="rect995-9" d="M6,15h5v2H6Z" class="aw-theme-iconOutline" fill="#464646"/>
    <path id="rect993-0" d="M2,11H4v2H2Z" class="aw-theme-iconOutline" fill="#464646"/>
    <path id="rect993-1" d="M2,15H4v2H2Z" class="aw-theme-iconOutline" fill="#464646"/>
    <path id="rect997-8-3" d="M16,7h5V9H16Z" class="aw-theme-iconOutline" fill="#464646"/>
    <path id="rect995-9-4" d="M12,11h3v2H12Z" class="aw-theme-iconOutline" fill="#464646"/>
  </g>
</svg>
