<svg id="Layer_1" data-name="Layer 1" xmlns="http://www.w3.org/2000/svg" viewBox="0 0 24 24">
  <g id="g1144">
    <path id="path852" d="M9.209,23.989c-.156-.03-.309-.176-.309-.293s1.335-4.088,1.433-4.235c.041-.064,2.316-2.283,5.043-4.933,3.724-3.618,5.03-4.849,5.229-4.941a1.433,1.433,0,0,1,.51-.126c.509,0,.646.083,1.616,1A13.025,13.025,0,0,1,23.754,11.5a1.366,1.366,0,0,1-.015,1.418c-.067.09-2.326,2.3-5.018,4.908l-4.9,4.741-2.111.7c-2.155.716-2.309.762-2.5.721Zm2.15-1.393c.667-.206,1.233-.392,1.258-.413A17.014,17.014,0,0,0,10.925,20.5a11.449,11.449,0,0,0-.422,1.163L10.092,22.9c-.011.034-.009.069.013.069s.587-.166,1.254-.371ZM17.5,17.855l4.012-3.882-1.05-1.021a12.782,12.782,0,0,0-1.1-1.007c-.075.021-7.986,7.683-7.991,7.739s2.016,2.046,2.079,2.051c.024,0,1.847-1.746,4.053-3.879Zm5.513-5.388c.163-.288.11-.373-.759-1.225a8.084,8.084,0,0,0-.957-.855c-.213-.068-.352.01-.846.474l-.478.448L21.04,12.34l1.065,1.03.422-.392a4.192,4.192,0,0,0,.485-.512Z" class="aw-theme-iconOutline" fill="#464646"/>
    <path id="rect816-1" d="M0,0H23V1H0Z" class="aw-theme-iconOutline" fill="#464646"/>
    <path id="rect816-9-4" d="M0,4.043H22v1H0Z" class="aw-theme-iconOutline" fill="#464646"/>
    <path id="rect816-9-0-6" d="M1,0V21.052H0V0Z" class="aw-theme-iconOutline" fill="#464646"/>
    <path id="rect816-9-0-7-0" d="M23,0V8.963H22V0Z" class="aw-theme-iconOutline" fill="#464646"/>
    <path id="rect816-9-0-7-3-1" d="M8.051,22H0V21H8.051Z" class="aw-theme-iconOutline" fill="#464646"/>
    <path id="rect1037-73" d="M2,2H6V3H2Z" class="aw-theme-iconOutline" fill="#464646"/>
    <path id="rect1037-1-2" d="M8,2h4V3H8Z" class="aw-theme-iconOutline" fill="#464646"/>
    <path id="rect1037-7-4" d="M14,2h4V3H14Z" class="aw-theme-iconOutline" fill="#464646"/>
    <path id="rect1037-7-0-9" d="M20.065,2h1V3h-1Z" class="aw-theme-iconOutline" fill="#464646"/>
    <path id="rect841-8" d="M6,16H7v5H6Z" class="aw-theme-iconOutline" fill="#464646"/>
    <path id="rect841-32-9-3-1" d="M9.5,17v1H1V17Z" class="aw-theme-iconOutline" fill="#464646"/>
    <path id="rect828-1-1-9" d="M2,7v8H14V14H3V8H18V9h1V7Z" class="aw-theme-iconOutline" fill="#464646"/>
    <path id="path839-1-2-8-6-5" d="M7.777,9.9a.5.5,0,1,1-.5.5A.5.5,0,0,1,7.777,9.9Z" class="aw-theme-iconOutline" fill="#464646"/>
    <path id="path837-1-2-26-4-3" d="M5.939,9.9a.5.5,0,1,1-.5.5A.5.5,0,0,1,5.939,9.9Z" class="aw-theme-iconOutline" fill="#464646"/>
    <path id="path839-2-4-1-9-1-0" d="M9.616,9.9a.5.5,0,1,1-.5.5A.5.5,0,0,1,9.616,9.9Z" class="aw-theme-iconOutline" fill="#464646"/>
    <path id="path837-1-2-2-5-1-0" d="M4.1,9.9a.5.5,0,1,1-.5.5A.5.5,0,0,1,4.1,9.9Z" class="aw-theme-iconOutline" fill="#464646"/>
    <path id="path837-1-2-26-1-0-3" d="M13.293,9.9a.5.5,0,1,1-.5.5A.5.5,0,0,1,13.293,9.9Z" class="aw-theme-iconOutline" fill="#464646"/>
    <path id="path837-1-2-2-5-5-5-25" d="M11.454,9.9a.5.5,0,1,1-.5.5A.5.5,0,0,1,11.454,9.9Z" class="aw-theme-iconOutline" fill="#464646"/>
    <path id="path839-1-2-8-7-3-0" d="M8.677,8.7a.5.5,0,1,1-.5.5A.5.5,0,0,1,8.677,8.7Z" class="aw-theme-iconOutline" fill="#464646"/>
    <path id="path837-1-2-26-7-7-0" d="M6.839,8.7a.5.5,0,1,1-.5.5A.5.5,0,0,1,6.839,8.7Z" class="aw-theme-iconOutline" fill="#464646"/>
    <path id="path839-2-4-1-9-3-3-4" d="M10.516,8.7a.5.5,0,1,1-.5.5A.5.5,0,0,1,10.516,8.7Z" class="aw-theme-iconOutline" fill="#464646"/>
    <path id="path837-1-2-2-5-6-3-8" d="M5,8.7a.5.5,0,1,1-.5.5A.5.5,0,0,1,5,8.7Z" class="aw-theme-iconOutline" fill="#464646"/>
    <path id="path837-1-2-26-1-5-44-5" d="M14.193,8.7a.5.5,0,1,1-.5.5A.5.5,0,0,1,14.193,8.7Z" class="aw-theme-iconOutline" fill="#464646"/>
    <path id="path837-1-2-2-5-5-8-4-7" d="M12.354,8.7a.5.5,0,1,1-.5.5A.5.5,0,0,1,12.354,8.7Z" class="aw-theme-iconOutline" fill="#464646"/>
    <path id="path839-1-2-8-7-8-0-1" d="M8.677,11.1a.5.5,0,1,1-.5.5A.5.5,0,0,1,8.677,11.1Z" class="aw-theme-iconOutline" fill="#464646"/>
    <path id="path837-1-2-26-7-3-0-3" d="M6.839,11.1a.5.5,0,1,1-.5.5A.5.5,0,0,1,6.839,11.1Z" class="aw-theme-iconOutline" fill="#464646"/>
    <path id="path839-2-4-1-9-3-9-4-2" d="M10.516,11.1a.5.5,0,1,1-.5.5A.5.5,0,0,1,10.516,11.1Z" class="aw-theme-iconOutline" fill="#464646"/>
    <path id="path837-1-2-2-5-6-7-5-1" d="M5,11.1a.5.5,0,1,1-.5.5A.5.5,0,0,1,5,11.1Z" class="aw-theme-iconOutline" fill="#464646"/>
    <path id="path837-1-2-26-1-5-4-9-8" d="M14.193,11.1a.5.5,0,1,1-.5.5A.5.5,0,0,1,14.193,11.1Z" class="aw-theme-iconOutline" fill="#464646"/>
    <path id="path837-1-2-2-5-5-8-6-5-2" d="M12.354,11.1a.5.5,0,1,1-.5.5A.5.5,0,0,1,12.354,11.1Z" class="aw-theme-iconOutline" fill="#464646"/>
    <path id="path839-1-2-8-6-8-0" d="M7.777,12.3a.5.5,0,1,1-.5.5A.5.5,0,0,1,7.777,12.3Z" class="aw-theme-iconOutline" fill="#464646"/>
    <path id="path837-1-2-26-4-1-1" d="M5.939,12.3a.5.5,0,1,1-.5.5A.5.5,0,0,1,5.939,12.3Z" class="aw-theme-iconOutline" fill="#464646"/>
    <path id="path839-2-4-1-9-1-3-3" d="M9.616,12.3a.5.5,0,1,1-.5.5A.5.5,0,0,1,9.616,12.3Z" class="aw-theme-iconOutline" fill="#464646"/>
    <path id="path837-1-2-2-5-1-4-9" d="M4.1,12.3a.5.5,0,1,1-.5.5A.5.5,0,0,1,4.1,12.3Z" class="aw-theme-iconOutline" fill="#464646"/>
    <path id="path837-1-2-26-1-0-7-0" d="M13.293,12.3a.5.5,0,1,1-.5.5A.5.5,0,0,1,13.293,12.3Z" class="aw-theme-iconOutline" fill="#464646"/>
    <path id="path837-1-2-2-5-5-5-2-6" d="M11.454,12.3a.5.5,0,1,1-.5.5A.5.5,0,0,1,11.454,12.3Z" class="aw-theme-iconOutline" fill="#464646"/>
    <path id="path839-1-2-8-6-1-5" d="M16.97,9.9a.5.5,0,1,1-.5.5A.5.5,0,0,1,16.97,9.9Z" class="aw-theme-iconOutline" fill="#464646"/>
    <path id="path837-1-2-26-4-11-5" d="M15.131,9.9a.5.5,0,1,1-.5.5A.5.5,0,0,1,15.131,9.9Z" class="aw-theme-iconOutline" fill="#464646"/>
    <path id="path837-1-2-26-7-7-8-1" d="M16.031,8.7a.5.5,0,1,1-.5.5A.5.5,0,0,1,16.031,8.7Z" class="aw-theme-iconOutline" fill="#464646"/>
    <path id="path837-1-2-26-7-3-0-2-8" d="M16.031,11.1a.5.5,0,1,1-.5.5A.5.5,0,0,1,16.031,11.1Z" class="aw-theme-iconOutline" fill="#464646"/>
    <path id="path837-1-2-26-4-1-5-2" d="M15.131,12.3a.5.5,0,1,1-.5.5A.5.5,0,0,1,15.131,12.3Z" class="aw-theme-iconOutline" fill="#464646"/>
    <path id="rect904" d="M20,7h2V8H20Z" class="aw-theme-iconOutline" fill="#464646"/>
  </g>
</svg>
