<svg id="Layer_1" data-name="Layer 1" xmlns="http://www.w3.org/2000/svg" viewBox="0 0 24 24">
  <g id="g853">
    <path id="path837" d="M17.127,21.336a2.33,2.33,0,0,1-1.917-1.357l-.1-.189-.428.323-.428.324-.29-.376c-.16-.206-.29-.383-.29-.392s.26-.208.578-.442l.578-.425-.022-.162a8.389,8.389,0,0,1,0-2.294,3.21,3.21,0,0,1,1.526-2.54,2.821,2.821,0,0,1,2.406-.014,2.707,2.707,0,0,1,.969.974l.153.279.113-.079c.063-.043.2-.148.318-.234a1.2,1.2,0,0,1,.233-.153,1.651,1.651,0,0,1,.246.291c.118.159.244.328.28.374l.064.085-.487.361c-.419.311-.485.373-.47.443A9.133,9.133,0,0,1,20.2,18.4a3.1,3.1,0,0,1-1.84,2.807,2.786,2.786,0,0,1-.839.147,3.066,3.066,0,0,1-.4-.015Zm.976-.957a2.324,2.324,0,0,0,1.1-1.918,8.549,8.549,0,0,0,.021-1.648,11.068,11.068,0,0,0-1.637,1.147c-1.825,1.356-1.662,1.173-1.445,1.633a1.607,1.607,0,0,0,.931.867,1.586,1.586,0,0,0,.475.039A1.118,1.118,0,0,0,18.1,20.379Zm-.439-3.68c1.518-1.123,1.4-.983,1.191-1.424a1.775,1.775,0,0,0-.747-.778.955.955,0,0,0-.581-.117,1.468,1.468,0,0,0-.527.068c-.826.307-1.273,1.388-1.271,3.073,0,.63-.011.616.32.371C16.2,17.78,16.928,17.243,17.664,16.7Z" class="aw-theme-iconOutline" fill="#464646"/>
    <path id="rect816" d="M0,0H22V1H0Z" class="aw-theme-iconOutline" fill="#464646"/>
    <path id="rect816-9" d="M0,4H22V5H0Z" class="aw-theme-iconOutline" fill="#464646"/>
    <path id="rect816-9-0" d="M1,0V22H0V0Z" class="aw-theme-iconOutline" fill="#464646"/>
    <path id="rect816-9-0-7" d="M22,0V11H21V0Z" class="aw-theme-iconOutline" fill="#464646"/>
    <path id="rect816-9-0-7-3" d="M11,22H0V21H11Z" class="aw-theme-iconOutline" fill="#464646"/>
    <path id="rect995-9" d="M6,14h4v2H6Z" class="aw-theme-iconOutline" fill="#464646"/>
    <path id="rect1037-1" d="M5,2H9V3H5Z" class="aw-theme-iconOutline" fill="#464646"/>
    <path id="rect1037-7" d="M11,2h4V3H11Z" class="aw-theme-iconOutline" fill="#464646"/>
    <path id="rect993-1" d="M2,14H4v2H2Z" class="aw-theme-iconOutline" fill="#464646"/>
    <path id="rect993-11" d="M2,18H4v2H2Z" class="aw-theme-iconOutline" fill="#464646"/>
    <path id="rect997-8" d="M6,18H9.094v2H6Z" class="aw-theme-iconOutline" fill="#464646"/>
    <path id="rect1037-7-3" d="M18,2h1V3H18Z" class="aw-theme-iconOutline" fill="#464646"/>
    <path id="rect833" d="M1,12H12v1H1Z" class="aw-theme-iconOutline" fill="#464646"/>
    <path id="rect997" d="M4,8H7V9H4Z" class="aw-theme-iconOutline" fill="#464646"/>
    <path id="rect995-9-47" d="M7,6h4V7H7Z" class="aw-theme-iconOutline" fill="#464646"/>
    <path id="rect993-1-9" d="M2,10H4v1H2Z" class="aw-theme-iconOutline" fill="#464646"/>
    <path id="rect995-9-4" d="M11,8h5V9H11Z" class="aw-theme-iconOutline" fill="#464646"/>
    <path id="path6" d="M17.5,24A6.5,6.5,0,1,1,24,17.5,6.5,6.5,0,0,1,17.5,24Zm0-12A5.5,5.5,0,1,0,23,17.5,5.5,5.5,0,0,0,17.5,12Z" class="aw-theme-iconOutline" fill="#464646"/>
  </g>
</svg>
