<svg id="svg8" xmlns="http://www.w3.org/2000/svg" viewBox="0 0 24 24">
  <g id="g827">
    <path id="rect854" d="M.1.1V19.9H10.4a7.546,7.546,0,0,1-.226-.824H10V16.652h.053a7.469,7.469,0,0,1,.144-.826H10V13.383h1.238a7.555,7.555,0,0,1,.629-.826H10V10.082h2.475v1.861A7.476,7.476,0,0,1,13.3,11.3V10.082h2.474v.129a6.968,6.968,0,0,1,2.768-.129h.533v.09a7.564,7.564,0,0,1,.824.23V.1H.1ZM.924.924H19.076V2.6H.924Zm0,2.558H2.615v2.53H.924Zm2.517,0H5.875v2.53H3.441Zm3.258,0H9.176v2.53H6.7Zm3.3,0h2.475v2.53H10Zm3.3,0h2.474v2.53H13.3Zm3.3,0h2.474v2.53H16.6ZM.924,6.865H2.615V9.258H.924Zm2.517,0H5.875V9.258H3.441Zm3.258,0H9.176V9.258H6.7Zm3.3,0h2.475V9.258H10Zm3.3,0h2.474V9.258H13.3Zm3.3,0h2.474V9.258H16.6ZM.924,10.082H2.615v2.475H.924Zm2.517,0H5.875v2.475H3.441Zm3.258,0H9.176v2.475H6.7Zm-5.775,3.3H2.615v2.443H.924Zm2.517,0H5.875v2.443H3.441Zm3.258,0H9.176v2.443H6.7ZM.924,16.652H2.615v2.424H.924Zm2.517,0H5.875v2.424H3.441Zm3.258,0H9.176v2.424H6.7Z" class="aw-theme-iconOutline" fill="#464646" fill-rule="evenodd"/>
    <path id="path8" d="M17.5,24A6.5,6.5,0,1,1,24,17.5,6.5,6.5,0,0,1,17.5,24Zm0-12A5.5,5.5,0,1,0,23,17.5,5.5,5.5,0,0,0,17.5,12Z" class="aw-theme-iconOutline" fill="#464646"/>
    <path id="path10" d="M21,18V17H15.7l2.15-2.149-.708-.708-3,3a.5.5,0,0,0,0,.707h0l3,3,.708-.708L15.71,18Z" class="aw-theme-iconOutline" fill="#464646"/>
  </g>
</svg>
