<svg id="Layer_1" data-name="Layer 1" xmlns="http://www.w3.org/2000/svg" viewBox="0 0 24 24">
  <g id="g1041">
    <path id="path868" d="M16.736,22.365a2.779,2.779,0,0,1-2.076-3.049,2.749,2.749,0,0,1,3.967-2.071,2.887,2.887,0,0,1,.674.521A2.466,2.466,0,0,1,20.11,19.7a2.608,2.608,0,0,1-.807,1.933A2.708,2.708,0,0,1,16.736,22.365Zm1.141-.916A1.8,1.8,0,0,0,19.1,20.318a1.486,1.486,0,0,0,.089-.72,1.376,1.376,0,0,0-.191-.751,1.782,1.782,0,0,0-.861-.818,1.413,1.413,0,0,0-.768-.134,1.346,1.346,0,0,0-.77.14,2.109,2.109,0,0,0-.9.942,1.937,1.937,0,0,0-.02,1.391A1.83,1.83,0,0,0,17.877,21.449Z" class="aw-theme-iconOutline" fill="#464646"/>
    <path id="path870" d="M16.653,23.94a7.642,7.642,0,0,1-4.368-2.105,6.353,6.353,0,0,1-1.48-2.123,5.494,5.494,0,0,1,1.221-1.906,7.558,7.558,0,0,1,4.47-2.33,8.6,8.6,0,0,1,2.343.1,7.669,7.669,0,0,1,3.65,1.985,7.036,7.036,0,0,1,1.462,2.051c.079.316-.71,1.484-1.543,2.284a7.481,7.481,0,0,1-3.731,1.951A11.24,11.24,0,0,1,16.653,23.94Zm1.873-1.016a6.76,6.76,0,0,0,4.406-3.18,5.152,5.152,0,0,0-1.361-1.778,6.526,6.526,0,0,0-2.82-1.455,4.306,4.306,0,0,0-1.336-.138,5.461,5.461,0,0,0-1.22.092,6.61,6.61,0,0,0-4.1,2.756l-.291.428.086.183a6.947,6.947,0,0,0,1.737,1.941,7.086,7.086,0,0,0,2.746,1.176l.483.078A8.35,8.35,0,0,0,18.526,22.924Z" class="aw-theme-iconOutline" fill="#464646"/>
    <path id="rect816" d="M0,0H23V1H0Z" class="aw-theme-iconOutline" fill="#464646"/>
    <path id="rect816-9" d="M0,4.043H22v1H0Z" class="aw-theme-iconOutline" fill="#464646"/>
    <path id="rect816-9-0" d="M1,0V21.052H0V0Z" class="aw-theme-iconOutline" fill="#464646"/>
    <path id="rect816-9-0-7" d="M23,0V15.13H22V0Z" class="aw-theme-iconOutline" fill="#464646"/>
    <path id="rect816-9-0-7-3" d="M10.542,22H0V21H10.542Z" class="aw-theme-iconOutline" fill="#464646"/>
    <path id="rect1037" d="M2,2H6V3H2Z" class="aw-theme-iconOutline" fill="#464646"/>
    <path id="rect1037-1" d="M8,2h4V3H8Z" class="aw-theme-iconOutline" fill="#464646"/>
    <path id="rect1037-7" d="M14,2h4V3H14Z" class="aw-theme-iconOutline" fill="#464646"/>
    <path id="rect1037-7-0" d="M20.065,2h1V3h-1Z" class="aw-theme-iconOutline" fill="#464646"/>
    <path id="rect841" d="M6,16H7v5H6Z" class="aw-theme-iconOutline" fill="#464646"/>
    <path id="rect841-32-9-3" d="M9.5,17v1H1V17Z" class="aw-theme-iconOutline" fill="#464646"/>
    <path id="rect828-1-1" d="M2,6v8H14V13H3V7H18V8h1V6Z" class="aw-theme-iconOutline" fill="#464646"/>
    <path id="path839-1-2-8-6" d="M7.777,8.9a.5.5,0,1,1-.5.5A.5.5,0,0,1,7.777,8.9Z" class="aw-theme-iconOutline" fill="#464646"/>
    <path id="path837-1-2-26-4" d="M5.939,8.9a.5.5,0,1,1-.5.5A.5.5,0,0,1,5.939,8.9Z" class="aw-theme-iconOutline" fill="#464646"/>
    <path id="path839-2-4-1-9-1" d="M9.616,8.9a.5.5,0,1,1-.5.5A.5.5,0,0,1,9.616,8.9Z" class="aw-theme-iconOutline" fill="#464646"/>
    <path id="path837-1-2-2-5-1" d="M4.1,8.9a.5.5,0,1,1-.5.5A.5.5,0,0,1,4.1,8.9Z" class="aw-theme-iconOutline" fill="#464646"/>
    <path id="path837-1-2-26-1-0" d="M13.293,8.9a.5.5,0,1,1-.5.5A.5.5,0,0,1,13.293,8.9Z" class="aw-theme-iconOutline" fill="#464646"/>
    <path id="path837-1-2-2-5-5-5" d="M11.454,8.9a.5.5,0,1,1-.5.5A.5.5,0,0,1,11.454,8.9Z" class="aw-theme-iconOutline" fill="#464646"/>
    <path id="path839-1-2-8-7-3" d="M8.677,7.7a.5.5,0,1,1-.5.5A.5.5,0,0,1,8.677,7.7Z" class="aw-theme-iconOutline" fill="#464646"/>
    <path id="path837-1-2-26-7-7" d="M6.839,7.7a.5.5,0,1,1-.5.5A.5.5,0,0,1,6.839,7.7Z" class="aw-theme-iconOutline" fill="#464646"/>
    <path id="path839-2-4-1-9-3-3" d="M10.516,7.7a.5.5,0,1,1-.5.5A.5.5,0,0,1,10.516,7.7Z" class="aw-theme-iconOutline" fill="#464646"/>
    <path id="path837-1-2-2-5-6-3" d="M5,7.7a.5.5,0,1,1-.5.5A.5.5,0,0,1,5,7.7Z" class="aw-theme-iconOutline" fill="#464646"/>
    <path id="path837-1-2-26-1-5-44" d="M14.193,7.7a.5.5,0,1,1-.5.5A.5.5,0,0,1,14.193,7.7Z" class="aw-theme-iconOutline" fill="#464646"/>
    <path id="path837-1-2-2-5-5-8-4" d="M12.354,7.7a.5.5,0,1,1-.5.5A.5.5,0,0,1,12.354,7.7Z" class="aw-theme-iconOutline" fill="#464646"/>
    <path id="path839-1-2-8-7-8-0" d="M8.677,10.1a.5.5,0,1,1-.5.5A.5.5,0,0,1,8.677,10.1Z" class="aw-theme-iconOutline" fill="#464646"/>
    <path id="path837-1-2-26-7-3-0" d="M6.839,10.1a.5.5,0,1,1-.5.5A.5.5,0,0,1,6.839,10.1Z" class="aw-theme-iconOutline" fill="#464646"/>
    <path id="path839-2-4-1-9-3-9-4" d="M10.516,10.1a.5.5,0,1,1-.5.5A.5.5,0,0,1,10.516,10.1Z" class="aw-theme-iconOutline" fill="#464646"/>
    <path id="path837-1-2-2-5-6-7-5" d="M5,10.1a.5.5,0,1,1-.5.5A.5.5,0,0,1,5,10.1Z" class="aw-theme-iconOutline" fill="#464646"/>
    <path id="path837-1-2-26-1-5-4-9" d="M14.193,10.1a.5.5,0,1,1-.5.5A.5.5,0,0,1,14.193,10.1Z" class="aw-theme-iconOutline" fill="#464646"/>
    <path id="path837-1-2-2-5-5-8-6-5" d="M12.354,10.1a.5.5,0,1,1-.5.5A.5.5,0,0,1,12.354,10.1Z" class="aw-theme-iconOutline" fill="#464646"/>
    <path id="path839-1-2-8-6-8" d="M7.777,11.3a.5.5,0,1,1-.5.5A.5.5,0,0,1,7.777,11.3Z" class="aw-theme-iconOutline" fill="#464646"/>
    <path id="path837-1-2-26-4-1" d="M5.939,11.3a.5.5,0,1,1-.5.5A.5.5,0,0,1,5.939,11.3Z" class="aw-theme-iconOutline" fill="#464646"/>
    <path id="path839-2-4-1-9-1-3" d="M9.616,11.3a.5.5,0,1,1-.5.5A.5.5,0,0,1,9.616,11.3Z" class="aw-theme-iconOutline" fill="#464646"/>
    <path id="path837-1-2-2-5-1-4" d="M4.1,11.3a.5.5,0,1,1-.5.5A.5.5,0,0,1,4.1,11.3Z" class="aw-theme-iconOutline" fill="#464646"/>
    <path id="path837-1-2-26-1-0-7" d="M13.293,11.3a.5.5,0,1,1-.5.5A.5.5,0,0,1,13.293,11.3Z" class="aw-theme-iconOutline" fill="#464646"/>
    <path id="path837-1-2-2-5-5-5-2" d="M11.454,11.3a.5.5,0,1,1-.5.5A.5.5,0,0,1,11.454,11.3Z" class="aw-theme-iconOutline" fill="#464646"/>
    <path id="path839-1-2-8-6-1" d="M16.97,8.9a.5.5,0,1,1-.5.5A.5.5,0,0,1,16.97,8.9Z" class="aw-theme-iconOutline" fill="#464646"/>
    <path id="path837-1-2-26-4-11" d="M15.131,8.9a.5.5,0,1,1-.5.5A.5.5,0,0,1,15.131,8.9Z" class="aw-theme-iconOutline" fill="#464646"/>
    <path id="path837-1-2-26-7-7-8" d="M16.031,7.7a.5.5,0,1,1-.5.5A.5.5,0,0,1,16.031,7.7Z" class="aw-theme-iconOutline" fill="#464646"/>
    <path id="path837-1-2-26-7-3-0-2" d="M16.031,10.1a.5.5,0,1,1-.5.5A.5.5,0,0,1,16.031,10.1Z" class="aw-theme-iconOutline" fill="#464646"/>
    <path id="path837-1-2-26-4-1-5" d="M15.131,11.3a.5.5,0,1,1-.5.5A.5.5,0,0,1,15.131,11.3Z" class="aw-theme-iconOutline" fill="#464646"/>
    <path id="rect828-1-1-3" d="M19,6v8H7V13H18V7H3V8H2V6Z" class="aw-theme-iconOutline" fill="#464646"/>
    <path id="path839-1-2-8-6-1-4" d="M16.9,11.318a.5.5,0,1,1-.5.5A.5.5,0,0,1,16.9,11.318Z" class="aw-theme-iconOutline" fill="#464646"/>
    <path id="rect904" d="M20,7h2V8H20Z" class="aw-theme-iconOutline" fill="#464646"/>
    <path id="rect904-2" d="M20,11h2.229v1H20Z" class="aw-theme-iconOutline" fill="#464646"/>
  </g>
</svg>
