<svg id="Layer_1" data-name="Layer 1" xmlns="http://www.w3.org/2000/svg" viewBox="0 0 24 24">
  <g id="g862">
    <path id="path2-1" d="M8.7.055V2.68H6.088v7H4.35V6.18H0v7.875H4.35v-3.5H6.088v7H8.7V20.18h1.8a7.244,7.244,0,0,1-.269-.875H9.568V14.93h.9a7.3,7.3,0,0,1,.381-.875H8.7V16.68H6.959V10.555H8.7V13.18h2.678a7.477,7.477,0,0,1,.8-.955v-1.67h1.738v.365A7.5,7.5,0,0,1,17.4,10V7.055h2.61v3.386a7.456,7.456,0,0,1,.869.37V6.18h-4.35v3.5H14.787v-7H12.178V.055ZM9.568.93h1.739V5.305H9.568ZM6.959,3.555H8.7V6.18h3.481V3.555h1.738V9.68H12.178V7.055H8.7V9.68H6.959Zm-6.09,3.5h2.61V13.18H.869Zm8.7.875h1.739v4.375H9.568Z" class="aw-theme-iconOutline" fill="#464646"/>
    <path id="path4" d="M18.58,24H16.417l-.746-2.111-2,.948-1.528-1.528.951-2L11,18.561V16.4l2.1-.744-.951-2,1.528-1.528,2.006.952L16.419,11H18.58l.742,2.079,2-.953,1.529,1.529-.951,2L24,16.4v2.164l-2.1.744.951,2-1.53,1.528-2-.948Zm-1.507-.929h.851l.606-1.716a.718.718,0,0,1,.967-.417l1.635.778.6-.6-.776-1.633a.7.7,0,0,1-.016-.569.719.719,0,0,1,.419-.4l1.709-.606v-.85l-1.709-.606a.7.7,0,0,1-.4-.97l.776-1.631-.6-.6-1.633.778a.724.724,0,0,1-.968-.394l-.606-1.7h-.853l-.6,1.7a.723.723,0,0,1-.972.391l-1.63-.774-.6.6.776,1.635a.708.708,0,0,1-.4.968l-1.709.606v.85l1.708.608a.7.7,0,0,1,.4.968l-.775,1.633.6.6,1.633-.776a.726.726,0,0,1,.967.41Z" class="aw-theme-iconOutline" fill="#464646"/>
    <path id="path6" d="M17.5,19.359A1.858,1.858,0,1,1,19.356,17.5,1.859,1.859,0,0,1,17.5,19.359Zm0-2.786a.929.929,0,1,0,.928.928A.928.928,0,0,0,17.5,16.573Z" class="aw-theme-iconOutline" fill="#464646"/>
  </g>
</svg>
