<svg version="1.1" id="Livello_1" xmlns="http://www.w3.org/2000/svg" xmlns:xlink="http://www.w3.org/1999/xlink" x="0px" y="0px"
	  viewBox="0 0 24 24" enable-background="new 0 0 24 24" xml:space="preserve">
<path class="aw-theme-iconOutline" fill="#464646" d="M3,17.133V24h17.988v-3.699h-0.976v2.721H3.977v-5.889H3z M3,0v8.551h0.977V0.977h10.179l5.867,6.076
	L20,16.4h0.977L21,6.661L14.569,0H3z"/>
<rect x="14" y="0.641" class="aw-theme-iconOutline" fill="#464646" width="1" height="6.359"/>
<rect x="14.041" y="6" class="aw-theme-iconOutline" fill="#464646" width="6.224" height="1"/>
<polygon class="aw-theme-iconOutline" fill="#464646" points="20.011,20.345 20.986,20.36 20.974,16.328 20,16.305 "/>
<path class="aw-theme-iconOutline" fill="#464646" d="M1.118,9h16.765v8H1.118V9z M0,18h19V8H0V18z"/>
<path class="aw-theme-iconOutline" fill="#464646" d="M6.504,15.801H5.008l-0.965-1.824c-0.037-0.068-0.074-0.193-0.113-0.375H3.915
	c-0.018,0.086-0.061,0.217-0.129,0.391l-0.969,1.809H1.313L3.098,13l-1.633-2.801H3l0.801,1.68c0.063,0.133,0.119,0.291,0.168,0.473
	h0.016c0.031-0.109,0.09-0.272,0.176-0.488l0.891-1.664h1.406l-1.68,2.777L6.504,15.801z"/>
<path class="aw-theme-iconOutline" fill="#464646" d="M13.234,15.801h-1.246v-3.352c0-0.362,0.015-0.762,0.046-1.199h-0.031c-0.065,0.344-0.124,0.591-0.175,0.742
	l-1.313,3.809H9.485l-1.336-3.77c-0.036-0.102-0.095-0.362-0.176-0.781H7.938c0.034,0.552,0.051,1.037,0.051,1.453v3.098H6.852
	v-5.602H8.7l1.145,3.32c0.091,0.266,0.157,0.533,0.199,0.801h0.023c0.07-0.311,0.145-0.58,0.223-0.809l1.145-3.313h1.8V15.801z"/>
<path class="aw-theme-iconOutline" fill="#464646" d="M17.525,15.801h-3.336v-5.602h1.262v4.578h2.074V15.801z"/>
</svg>
