<svg id="Layer_1" data-name="Layer 1" xmlns="http://www.w3.org/2000/svg" viewBox="0 0 16 16">
  <g id="g833">
    <path id="path2" d="M.423,5.562H10.577v6.769a.846.846,0,0,1-.846.846H1.269a.846.846,0,0,1-.846-.846h0Z" fill="#3c91af"/>
    <path id="path4" d="M9.731,5.138V4.292a4.231,4.231,0,0,0-8.462,0v.846H0v7.193A1.269,1.269,0,0,0,1.269,13.6H9.731A1.269,1.269,0,0,0,11,12.331h0V5.138ZM2.115,4.292a3.385,3.385,0,0,1,6.77,0v.846H2.115Zm8.039,8.039a.424.424,0,0,1-.423.423H1.269a.424.424,0,0,1-.423-.423V5.985h9.308Z" class="aw-theme-iconOutline" fill="#464646"/>
    <path id="rect6" d="M5.077,8.9h.846v2.165H5.077Z" class="aw-theme-iconOutline" fill="#464646"/>
    <path id="path2-5" d="M14.534,16H6.471a1.439,1.439,0,0,1-1.233-.727,1.684,1.684,0,0,1-.064-1.609l0-.011,3.9-7.371a1.588,1.588,0,0,1,2.182-.689,1.639,1.639,0,0,1,.668.689l3.9,7.371a1.692,1.692,0,0,1-.059,1.62,1.438,1.438,0,0,1-1.23.727Z" class="aw-theme-iconOutline" fill="#464646"/>
    <path id="path4-8" d="M5.826,14.011a.915.915,0,0,0,.037.866.7.7,0,0,0,.608.366h8.063a.7.7,0,0,0,.608-.366.913.913,0,0,0,.035-.872L11.282,6.646a.894.894,0,0,0-1.249-.324.937.937,0,0,0-.314.324Z" fill="#dc0000"/>
    <path id="rect6-2" d="M10.065,8h.867v4.473h-.867Z" fill="#fff"/>
    <path id="path8" d="M10.5,14.486a.669.669,0,0,1-.65-.677.65.65,0,1,1,1.3,0A.668.668,0,0,1,10.5,14.486Z" fill="#fff"/>
    <path id="path8-1" d="M5.492,9.613a.567.567,0,0,1-.551-.573.551.551,0,1,1,.551.573Z" class="aw-theme-iconOutline" fill="#464646"/>
  </g>
</svg>
