<svg id="Layer_1" data-name="Layer 1" xmlns="http://www.w3.org/2000/svg" viewBox="0 0 16 16">
  <g id="g821">
    <path id="path818" d="M3.163,16c0-.071,1.534-5.794,1.6-5.982.015-.04-1.025-.943-2.309-2.009L.037,6H5.954c.038-.024.539-1.4,1.073-2.989S7.977.027,8,0s.413,1.084.82,2.388.831,2.657.941,3.009l.2.585,5.9.036L13.551,8C12.293,9.073,11.219,9.95,11.2,9.986s.357,1.4.842,3.025.869,2.974.854,2.989-1.1-.762-2.421-1.726S8.075,12.521,8,12.52a24.354,24.354,0,0,0-2.43,1.7C3.043,16.136,3.163,16.109,3.163,16Z" fill="#005f87"/>
  </g>
</svg>
