<svg id="Artwork" xmlns="http://www.w3.org/2000/svg" viewBox="0 0 16 16">
  <g id="g821">
    <path id="path814" d="M14.572,9.686c-.664,0-.6-.025-.644.289a6.455,6.455,0,0,1-.3,1.1,5.875,5.875,0,0,1-3.469,3.342,4.6,4.6,0,0,1-1.609.275,4.158,4.158,0,0,1-1.033-.052,5.667,5.667,0,0,1-2.577-1.174c-.264-.205-2.564-2.393-2.587-2.459-.007-.022.665-.033,1.906-.033H4.6A4.471,4.471,0,0,1,3.871,9.82H.008v6.166H1.2V13.768c0-1.234.014-2.221.03-2.221s.614.59,1.33,1.314,1.431,1.419,1.589,1.545a6.535,6.535,0,0,0,6.288,1.239,6.65,6.65,0,0,0,2.623-1.6,6.707,6.707,0,0,0,1.923-3.252,8.983,8.983,0,0,0,.182-1.08A3.421,3.421,0,0,0,14.572,9.686Z" fill="#005f87"/>
    <path id="path816" d="M14.816.057v2.2c0,1.21-.012,2.208-.027,2.217s-.628-.586-1.363-1.323S11.96,1.713,11.8,1.586A7.158,7.158,0,0,0,8.783.154a4.789,4.789,0,0,0-1.2-.08,4.49,4.49,0,0,0-1.24.094A6.92,6.92,0,0,0,3.414,1.551,11.364,11.364,0,0,0,2.135,2.877,6.607,6.607,0,0,0,.865,6.035l-.023.258h.6c.586,0,.6,0,.6-.072a6.064,6.064,0,0,1,.242-1.057,5.412,5.412,0,0,1,.944-1.7A8.183,8.183,0,0,1,4.467,2.3a5.814,5.814,0,0,1,1.982-.865,5.473,5.473,0,0,1,4.69,1.2c.26.213,2.468,2.32,2.486,2.373.007.02-.7.031-1.906.031H11.4a4.521,4.521,0,0,1,.6.873c.049.1.076.188.117.281h3.852V.057Z" fill="#005f87"/>
    <path id="path6" d="M8.7,8l1.65-1.645a.5.5,0,0,0-.707-.707L8,7.3,6.35,5.648a.5.5,0,0,0-.707.707L7.289,8,5.643,9.648a.5.5,0,0,0,.667.745l.027-.026.013-.012L8,8.708l1.647,1.647a.5.5,0,0,0,.707-.707Z" fill="#dc0000"/>
    <path id="path817-3" d="M8,3.5A4.5,4.5,0,0,0,3.5,8h0A4.5,4.5,0,1,0,8,3.5Zm0,.7A3.8,3.8,0,0,1,11.8,8h0A3.8,3.8,0,1,1,8,4.2Z" fill="#dc0000"/>
  </g>
</svg>
