<svg id="Layer_1" data-name="Layer 1" xmlns="http://www.w3.org/2000/svg" viewBox="0 0 16 16">
  <path id="path844" d="M7.131,15.48l-5.079-.01-.12-.044a2.03,2.03,0,0,1-1.3-1.533,2.381,2.381,0,0,1-.153-.912,2.541,2.541,0,0,1,1.22-2.16l.207-.137.025-.179a3.745,3.745,0,0,1,.432-1.366,3.467,3.467,0,0,1,.695-.926A3.548,3.548,0,0,1,5.081,7.174a4.319,4.319,0,0,1,1.057.041,3.257,3.257,0,0,1,1.517.767,2.621,2.621,0,0,0,.249.206l.256-.031a2.4,2.4,0,0,1,.748,0,2.645,2.645,0,0,1,1.926,1.27,2.759,2.759,0,0,1,.268.691c.048.168.092.309.1.315a1.7,1.7,0,0,0,.255-.016,3.09,3.09,0,0,1,1.259.111,2.725,2.725,0,0,1,1.626,1.625,2.358,2.358,0,0,1,.13.724,2.353,2.353,0,0,1-2.107,2.6c-.084.008-2.438.012-5.231.007Z" fill="#dc0000"/>
  <path id="path2" d="M5.529,7.187A4.17,4.17,0,0,0,1.551,10.6,2.773,2.773,0,0,0,.289,13.945a2.6,2.6,0,0,0,2.077,1.933v-.554A1.968,1.968,0,0,1,.88,13.782a2.3,2.3,0,0,1,1.132-2.8l.11-.068.02-.115a3.611,3.611,0,0,1,2.5-2.918,3.44,3.44,0,0,1,3.243.681L8,8.647l.147-.018a2.634,2.634,0,0,1,2.986,1.787l.068.224.264-.026a2.745,2.745,0,0,1,1.968.563A2.331,2.331,0,0,1,14.361,13a2.275,2.275,0,0,1-2.237,2.354l-.027.54A2.883,2.883,0,0,0,14.98,13a2.849,2.849,0,0,0-1.138-2.226,3.389,3.389,0,0,0-2.192-.713A3.255,3.255,0,0,0,8.206,8.077,4.013,4.013,0,0,0,5.529,7.187Z" class="aw-theme-iconOutline" fill="#464646"/>
  <path id="path863" d="M5.281,2.1l.705.709a6,6,0,0,1,8.429-.026l.708-.7A7,7,0,0,0,5.281,2.1Zm1.41,1.419.7.709A4,4,0,0,1,13,4.189l.708-.7A5,5,0,0,0,6.691,3.515ZM8.1,4.934l.705.709a2,2,0,0,1,2.77-.043l.71-.7A3,3,0,0,0,8.1,4.934Z" class="aw-theme-iconOutline" fill="#464646"/>
  <circle id="path918" cx="10.247" cy="6.844" r="1" class="aw-theme-iconOutline" fill="#464646"/>
  <path id="path821" d="M14.172.092,7.141,6.186l.656.753L14.828.846Z" fill="#dc0000"/>
  <path id="path829" d="M2.138,15.927A2.731,2.731,0,0,1,.221,14.06a2.854,2.854,0,0,1-.014-2.027,3.258,3.258,0,0,1,1.037-1.341c.193-.143.219-.175.239-.292a4.183,4.183,0,0,1,.329-.933A4.494,4.494,0,0,1,4.665,7.2a5.024,5.024,0,0,1,1.681-.059A4.075,4.075,0,0,1,8,7.8l.254.173H8.6a3.533,3.533,0,0,1,2,.6A3.245,3.245,0,0,1,11.657,9.81l.067.161h.223a3.579,3.579,0,0,1,1.617.488,4.012,4.012,0,0,1,.941.856,3.2,3.2,0,0,1,.5,1.047,3.154,3.154,0,0,1-.015,1.4,2.947,2.947,0,0,1-1.952,2.055c-.545.18-.173.168-5.616.178l-5,.008-.281-.073Zm10.453-.75A2.427,2.427,0,0,0,13.73,14.5a2.579,2.579,0,0,0,.47-.946,2.671,2.671,0,0,0-.015-1.059,2.473,2.473,0,0,0-2.422-1.774,4.184,4.184,0,0,0-.49.021l-.147.022-.084-.277a3.567,3.567,0,0,0-.187-.48A2.6,2.6,0,0,0,8.264,8.724l-.3.03-.259-.205a3.179,3.179,0,0,0-2.224-.694,2.7,2.7,0,0,0-1.255.317,3.455,3.455,0,0,0-1.968,2.514c-.025.144-.046.267-.046.272a2.935,2.935,0,0,1-.258.181,3.048,3.048,0,0,0-.73.688,2.947,2.947,0,0,0-.328.738,2.5,2.5,0,0,0-.04.5,1.655,1.655,0,0,0,.089.593A2.015,2.015,0,0,0,2.1,15.135l.165.07,2.515.017c1.384.009,3.662.016,5.063.015A16.308,16.308,0,0,0,12.591,15.177Z" class="aw-theme-iconOutline" fill="#464646"/>
</svg>
