<svg id="Layer_1" data-name="Layer 1" xmlns="http://www.w3.org/2000/svg" xmlns:xlink="http://www.w3.org/1999/xlink" viewBox="0 0 16 16">
  <defs>
    <linearGradient id="linear-gradient" x1="-13.688" y1="753.644" x2="-1.98" y2="760.617" gradientTransform="translate(16.492 -798.419) scale(1.054 1.071)" gradientUnits="userSpaceOnUse">
      <stop offset="0" stop-color="#afd7e1"/>
      <stop offset="1" stop-color="#54a4bc"/>
    </linearGradient>
  </defs>
  <g id="g827">
    <path id="path844" d="M2.188,15.505A2.945,2.945,0,0,1,.622,13.917a2.348,2.348,0,0,1-.2-1.272,2.2,2.2,0,0,1,.249-1.362,3.286,3.286,0,0,1,.763-1c.489-.46.52-.513.61-.983a4.744,4.744,0,0,1,.68-1.75,3.62,3.62,0,0,1,5.542-.987c.316.232.394.253,1.06.284a2.323,2.323,0,0,1,1.158.253,3.425,3.425,0,0,1,1.6,2.074l.087.307.68.008a2.05,2.05,0,0,1,1.114.221,3.27,3.27,0,0,1,1.725,2.417,3.182,3.182,0,0,1-1.744,3.323l-.417.2-5.455.018-5.455.019Z" fill="url(#linear-gradient)"/>
    <path id="path827" d="M13.745,10.087,10.607,8.429,7.462,10.073l.608-3.5L5.463,3.591H9.047L10.625.412,12.189,3.6l3.379.017L13.153,6.588Z" fill="#ffcd50"/>
    <path id="path822" d="M2.833,16.051a3.474,3.474,0,0,1-1.84-.97A3.867,3.867,0,0,1,.17,11.005,3.957,3.957,0,0,1,1.234,9.493l.188-.158.053-.268a5.388,5.388,0,0,1,.83-1.9A6.062,6.062,0,0,1,3.5,5.969a5.669,5.669,0,0,1,1.256-.646,4.693,4.693,0,0,1,1.06-.181l.333-.019L5.6,4.5a7.525,7.525,0,0,1-.592-.733.412.412,0,0,1,.187-.51c.095-.059.17-.061,1.81-.061H8.718l.763-1.526A10.367,10.367,0,0,1,10.333.083a.5.5,0,0,1,.495.007,9.625,9.625,0,0,1,.841,1.586L12.416,3.2H13.95c.844,0,1.588.014,1.655.029a.441.441,0,0,1,.331.534,31.427,31.427,0,0,1-2.129,2.689l-.239.294.192,1.125c.169.985.2,1.128.255,1.156a3.758,3.758,0,0,1,1.77,1.828,3.817,3.817,0,0,1-.127,3.272,3.681,3.681,0,0,1-2.67,1.931c-.4.069-9.774.067-10.155,0Zm9.938-.859a2.777,2.777,0,0,0,2.359-2.113,3.572,3.572,0,0,0,.014-1.32,2.944,2.944,0,0,0-.779-1.42l-.217-.223-.03.11a.437.437,0,0,1-.517.314c-.054-.015-.752-.374-1.551-.8s-1.469-.768-1.491-.768-.7.346-1.508.768-1.515.776-1.571.785a.393.393,0,0,1-.352-.1c-.187-.157-.187-.152.12-1.922.154-.884.284-1.644.289-1.689.007-.063-.038-.138-.194-.321-.194-.229-.214-.243-.437-.314A3.469,3.469,0,0,0,5.175,6.1,3.993,3.993,0,0,0,2.791,8.032a4.224,4.224,0,0,0-.479,1.643v.173l-.195.131a2.869,2.869,0,0,0-1.058,1.2,2.463,2.463,0,0,0-.273,1,2.956,2.956,0,0,0,.307,1.594,3.145,3.145,0,0,0,.312.507,2.658,2.658,0,0,0,1.641.911c.284.041,9.425.042,9.725,0ZM9.237,8.659a6.32,6.32,0,0,1,1.326-.629,6.157,6.157,0,0,1,1.311.629c.654.346,1.2.629,1.214.629s-.077-.6-.2-1.336a7.6,7.6,0,0,1-.2-1.445,12.233,12.233,0,0,1,.97-1.266L14.6,4.085,13.292,4.07c-1.278-.016-1.31-.018-1.4-.084a6.829,6.829,0,0,1-.7-1.306L10.58,1.441,9.954,2.684A8.277,8.277,0,0,1,9.239,3.99c-.084.061-.144.065-1.464.08L6.4,4.085l.575.656A11.433,11.433,0,0,1,8.448,6.508c.016.079-.352,2.353-.438,2.71-.01.039-.008.07,0,.07S8.574,9.005,9.237,8.659Z" class="aw-theme-iconOutline" fill="#464646"/>
  </g>
</svg>
