<svg id="Layer_1" data-name="Layer 1" xmlns="http://www.w3.org/2000/svg" viewBox="0 0 16 16">
  <g id="g856">
    <path id="rect4" d="M.593.864,12.474.83l1.393,3.322-1.336.713-.746,10.647L.593,15.373Z" fill="#e3faff"/>
    <path id="path886" d="M12.85-.01c-.01,0-1.008.389-1.01.4s.379.9.846,2l.72,1.683H2.686c-.4-.95-1.644-3.9-1.653-3.908S.186.508.168.525s1,2.539,1.466,3.657c.333.654.35.887,1.2.887h11L14,5.06c1.209.025.72-.759.585-1.042Z" fill="#005f87"/>
    <path id="rect870" d="M12,4.161h1v8.92H12Z" fill="#005f87"/>
    <path id="rect872" d="M.88,15h11v1H.88Z" fill="#005f87"/>
    <path id="rect870-7" d="M0,0H1V16H0Z" fill="#005f87"/>
    <path id="rect872-5" d="M.934,0h11.85V1H.934Z" fill="#005f87"/>
    <path id="rect1087" d="M2,7H8V8H2Z" fill="#005f87"/>
    <path id="rect1089" d="M2,9.5H8v1H2Z" fill="#005f87"/>
    <path id="rect1091" d="M3.5,2h8l.3,1h-8Z" fill="#005f87"/>
    <path id="rect1089-1" d="M2,12H8v1H2Z" fill="#005f87"/>
    <path id="path4-4" d="M11.674,7.343a4.176,4.176,0,1,0,2.952,1.222A4.176,4.176,0,0,0,11.674,7.343Z" fill="#005f87"/>
    <path id="path817-3" d="M11.5,7A4.5,4.5,0,0,0,7,11.5H7A4.5,4.5,0,1,0,11.5,7Zm0,.7a3.8,3.8,0,0,1,3.8,3.8h0a3.8,3.8,0,1,1-3.8-3.8Z" class="aw-theme-iconOutline" fill="#464646"/>
    <path id="path829" d="M12.879,12.083l-2.274,0,.769.862c.422.474.767.867.764.873s-.192.18-.422.386l-.418.375-.035-.037c-.019-.02-.626-.7-1.348-1.509l-1.338-1.5-.025-.028,1.325-1.484c.728-.817,1.349-1.51,1.38-1.542l.056-.057.42.376c.232.207.421.381.421.386s-.344.395-.765.866-.766.861-.766.866,1.018.01,2.264.01H14.5V12.08Z" fill="#fff"/>
  </g>
</svg>
