<svg id="Layer_1" data-name="Layer 1" xmlns="http://www.w3.org/2000/svg" viewBox="0 0 16 16">
  <g id="g818">
    <g id="g822">
      <path id="path2" d="M10.985,1.357a.851.851,0,0,0-.673.386,2.486,2.486,0,0,0-.438,1.825L6.825,6c-1.522-.514-3.639-.509-4.79.409a.5.5,0,0,0-.079.7l2.6,3.257L.645,13.487l.623.782,3.909-3.118,2.6,3.258a.5.5,0,0,0,.7.079c1.148-.915,1.625-2.978,1.465-4.579l3.049-2.431a2.484,2.484,0,0,0,1.877-.022.848.848,0,0,0,.507-1.088.826.826,0,0,0-.134-.239L11.688,1.672A.852.852,0,0,0,10.985,1.357Z" class="aw-theme-iconOutline" fill="#464646"/>
      <path id="path4" d="M14.325,6.583a1.328,1.328,0,0,1-1.143-.127.5.5,0,0,0-.565.041L9.1,9.3a.5.5,0,0,0-.183.469,5.3,5.3,0,0,1-.712,3.57L3.091,6.931a5.3,5.3,0,0,1,3.636.1.5.5,0,0,0,.5-.074l3.518-2.806a.5.5,0,0,0,.166-.541,1.33,1.33,0,0,1,.134-1.145Z" fill="#3c91af"/>
    </g>
  </g>
</svg>
