<svg version="1.1" id="Image" xmlns="http://www.w3.org/2000/svg" xmlns:xlink="http://www.w3.org/1999/xlink" x="0px" y="0px"
	  viewBox="0 0 16 16" enable-background="new 0 0 16 16" xml:space="preserve">
<polygon fill="#14915A" points="11.763,2.905 7.374,7.293 6.747,7.92 6.12,7.293 4.239,5.413 2.984,6.667 4.865,8.547 6.747,10.429 
	8.628,8.547 13.017,4.159 "/>
<rect x="4.635" y="15.395" class="aw-theme-iconOutline" fill="#464646" width="6.667" height="0.657"/>
<polygon class="aw-theme-iconOutline" fill="#464646" points="6.604,13.072 4.629,15.396 5.358,15.701 7.335,13.377 "/>
<polygon class="aw-theme-iconOutline" fill="#464646" points="9.311,13.053 11.285,15.377 10.556,15.683 8.58,13.358 "/>
<rect y="-0.008" class="aw-theme-iconOutline" fill="#464646" width="16.001" height="1"/>
<path class="aw-theme-iconOutline" fill="#464646" d="M0,14.001h16.001v-1.334H0V14.001z M11.326,13.021h0.667v0.689h-0.667V13.021z M12.662,13.021h0.667v0.689
	h-0.667V13.021z M13.997,13.021h0.669v0.689h-0.669V13.021z"/>
<rect x="-0.029" class="aw-theme-iconOutline" fill="#464646" width="1" height="12.667"/>
<rect x="15.001" y="0.667" class="aw-theme-iconOutline" fill="#464646" width="1" height="12"/>
<rect fill="none" width="16.001" height="16.001"/>
<polygon display="none" fill="#0A9B00" points="13.659,2.589 13.008,2.061 5.99,10.629 2.923,6.907 2.277,7.44 5.992,11.977 
	6.545,11.303 6.544,11.301 "/>
</svg>
