<svg id="svg42" xmlns="http://www.w3.org/2000/svg" viewBox="0 0 16 16">
  <g id="g818">
    <path id="path843" d="M7.9,0A8.05,8.05,0,1,0,8,0Zm.014,1H8a6.957,6.957,0,1,1-.086,0Z" fill="#dc0000"/>
    <path id="rect845" d="M3.678,4.363l.649-.66a.047.047,0,0,1,.066,0l7.894,7.83a.048.048,0,0,1,0,.067l-.649.659a.047.047,0,0,1-.066,0h0L3.678,4.429a.047.047,0,0,1,0-.065Z" fill="#dc0000" stroke="#dc0000" stroke-width="0.1"/>
    <path id="rect845-6" d="M12.291,4.384l-.65-.659a.046.046,0,0,0-.065,0h0l-7.9,7.83a.047.047,0,0,0,0,.065h0l.65.66a.047.047,0,0,0,.065,0h0l7.893-7.83a.047.047,0,0,0,0-.067Z" fill="#dc0000" stroke="#dc0000" stroke-width="0.1"/>
  </g>
</svg>
