<svg id="Layer_1" data-name="Layer 1" xmlns="http://www.w3.org/2000/svg" viewBox="0 0 16 16">
  <g id="g843">
    <path id="rect4" d="M.593.864,12.474.83l1.393,3.322-1.336.713-.746,10.647L.593,15.373Z" fill="#e3faff"/>
    <path id="path886" d="M12.85-.01c-.01,0-1.008.389-1.01.4s.379.9.846,2l.72,1.683H2.686c-.4-.95-1.644-3.9-1.653-3.908S.186.508.168.525s1,2.539,1.466,3.657c.333.654.35.887,1.2.887h11L14,5.06c1.209.025.72-.759.585-1.042Z" fill="#005f87"/>
    <path id="rect870" d="M12,4.161h1v8.92H12Z" fill="#005f87"/>
    <path id="rect872" d="M.88,15h11v1H.88Z" fill="#005f87"/>
    <path id="rect870-7" d="M0,0H1V16H0Z" fill="#005f87"/>
    <path id="rect872-5" d="M.934,0h11.85V1H.934Z" fill="#005f87"/>
    <path id="rect1087" d="M2,7H8V8H2Z" fill="#005f87"/>
    <path id="rect1089" d="M2,9.5H8v1H2Z" fill="#005f87"/>
    <path id="rect1091" d="M3.5,2h8l.3,1h-8Z" fill="#005f87"/>
    <path id="rect1089-1" d="M2,12H8v1H2Z" fill="#005f87"/>
    <path id="path4-4" d="M11.674,7.343a4.176,4.176,0,1,0,2.952,1.222A4.176,4.176,0,0,0,11.674,7.343Z" fill="#0b9b01"/>
    <path id="path836-1" d="M8.584,11.857c.389-.367.347-.347.671-.652l1.89,1.817,2.485-4.05c.346.2.518.333.842.5C13.6,10.851,11.6,14.1,11.34,14.5,10.059,13.264,8.68,11.96,8.584,11.857Z" fill="#fff"/>
    <path id="path817-3" d="M11.5,7A4.5,4.5,0,0,0,7,11.5H7A4.5,4.5,0,1,0,11.5,7Zm0,.7a3.8,3.8,0,0,1,3.8,3.8h0a3.8,3.8,0,1,1-3.8-3.8Z" fill="#464646"/>
  </g>
</svg>
