<svg id="Verb_Zone" data-name="Verb Zone" xmlns="http://www.w3.org/2000/svg" viewBox="0 0 16 16">
  <g id="g859">
    <path id="rect837-7-6-8" d="M12.264,3.007,7.706.778,3.548,2.883,8.106,5.112Z" fill="#8cc2d3"/>
    <path id="rect837-7-6" d="M12.427,3.133,7.607,5.666v4.74l4.914-2.628Z" fill="#3c91af"/>
    <path id="rect837-7" d="M3.377,3.145l5.07,2.534v4.739L3.5,7.829Z" fill="#91c5d5"/>
    <path id="path842" d="M7.864,10.571c-.036-.012-1.03-.6-2.21-1.308a14.744,14.744,0,0,1-2.21-1.376.454.454,0,0,1-.084-.172c-.011-.057-.015-.8-.012-2.457l0-2.375L3.4,2.8a.5.5,0,0,1,.1-.127C3.593,2.6,7.815.072,7.89.044a.372.372,0,0,1,.28,0C8.3.09,12.475,2.594,12.545,2.67a.681.681,0,0,1,.094.143l.041.086V5.3c0,2.636.005,2.489-.1,2.609-.041.048-.543.357-2.18,1.34-1.17.7-2.152,1.292-2.183,1.309A.607.607,0,0,1,7.864,10.571ZM7.531,7.526V5.786L5.939,4.831c-.876-.526-1.6-.96-1.617-.965A11.284,11.284,0,0,0,4.3,5.6l0,1.74L5.914,8.3c.885.531,1.611.966,1.614.966S7.531,8.483,7.531,7.526Zm2.622.75,1.582-.949V5.592a11.629,11.629,0,0,0-.025-1.726c-.014,0-.742.439-1.617.965L8.5,5.786V9.269l.035-.022C8.555,9.235,9.282,8.8,10.153,8.276ZM9.662,3.961C10.536,3.437,11.248,3,11.246,3s-.73-.447-1.617-.979L8.016,1.049,6.4,2.017c-.888.532-1.614.975-1.614.983s.724.451,1.61.982a12.745,12.745,0,0,0,1.642.95C8.06,4.922,8.789,4.485,9.662,3.961Z" fill="#005f87"/>
    <path id="rect837" d="M2.037,8.9H14v6.772H2.037Z" fill="#e3faff"/>
    <path id="path841" d="M4.742,10.978H3.958v3h.784Z" fill="#005f87"/>
    <path id="path839" d="M5.393,10.978H5.132v3h.261Z" fill="#005f87"/>
    <path id="path837" d="M6.306,10.978h-.26v3h.26Z" fill="#005f87"/>
    <path id="path835" d="M7.35,10.978H6.828v3h.521Z" fill="#005f87"/>
    <path id="path833" d="M8.133,10.978H7.875v3h.258Z" fill="#005f87"/>
    <path id="path827" d="M9.737,13.978H10v-3H9.737Z" fill="#005f87"/>
    <path id="path825" d="M10.649,13.978h.263v-3h-.261Z" fill="#005f87"/>
    <path id="path823" d="M9.1,13.978v-3H8.835v3Z" fill="#005f87"/>
    <path id="path821" d="M11.927,13.978v-3h-.52v3Z" fill="#005f87"/>
    <path id="path945" d="M2.391,15.959a.507.507,0,0,1-.4-.432c-.034-.195-.936-6-.936-6.083,0-.005-.237-.01-.528-.01C.087,9.434,0,9.429,0,9.4S.012,9.3.026,9.2a.83.83,0,0,1,.547-.673L.78,8.462l7.229.011,7.229.01.139.036a.67.67,0,0,1,.357.233,1.04,1.04,0,0,1,.141.269,2.193,2.193,0,0,1,.084.241c.018.073.069.17-.018.171h-.555a1.355,1.355,0,0,0-.406.024.748.748,0,0,0-.033.181c-.028.285-.591,3.247-.832,5.067-.114.858-.126.923-.189,1.025a.5.5,0,0,1-.182.175l-.116.065H8.11c-3.034,0-5.517.007-5.517.017s-.042.017-.2-.028Zm10.735-.943c.005-.015.151-1.087.322-2.382s.376-2.846.457-3.446.281.031.284,0l-.129.235H8.026c-3.263,0-6.039.005-6.045.011s.057-.885.141-.225c.247,1.92.731,5.755.731,5.784s.613.037,6.144.044c3.2,0,4.12,0,4.129-.022Z" class="aw-theme-iconOutline" fill="#464646"/>
  </g>
</svg>
