<svg id="Artwork" xmlns="http://www.w3.org/2000/svg" viewBox="0 0 16 16">
  <g id="g825">
    <path id="path814" d="M.007,12.905V9.82H6.176v1.152H4.258c-1.241,0-1.914.012-1.907.034.023.066,2.324,2.253,2.588,2.458a5.656,5.656,0,0,0,2.576,1.175,4.18,4.18,0,0,0,1.034.052,4.619,4.619,0,0,0,1.61-.275,5.875,5.875,0,0,0,3.468-3.342,6.413,6.413,0,0,0,.3-1.1c.04-.314-.019-.288.645-.288a3.437,3.437,0,0,1,.591.026,9.051,9.051,0,0,1-.182,1.081,6.709,6.709,0,0,1-1.925,3.251,6.646,6.646,0,0,1-2.622,1.6,6.531,6.531,0,0,1-6.288-1.237c-.158-.126-.873-.821-1.589-1.545s-1.314-1.315-1.33-1.315-.03.986-.03,2.22v2.22H.007Z" fill="#005f87"/>
    <path id="path816" d="M.866,6.036a6.606,6.606,0,0,1,1.268-3.16A11.375,11.375,0,0,1,3.414,1.55,6.928,6.928,0,0,1,6.341.168,4.5,4.5,0,0,1,7.583.075a4.766,4.766,0,0,1,1.2.079A7.155,7.155,0,0,1,11.8,1.585c.159.127.89.833,1.625,1.57s1.35,1.331,1.365,1.322.027-1.008.027-2.218V.057h1.153V6.193H9.8V5.04h1.918c1.207,0,1.914-.012,1.907-.032-.018-.053-2.226-2.16-2.486-2.373a5.475,5.475,0,0,0-4.689-1.2A5.822,5.822,0,0,0,4.466,2.3,8.218,8.218,0,0,0,3.227,3.464a5.416,5.416,0,0,0-.944,1.7,6.077,6.077,0,0,0-.242,1.057c0,.069-.014.071-.6.071h-.6Z" fill="#005f87"/>
    <path id="path4-4-7" d="M8,4a4,4,0,1,0,2.829,1.17A4,4,0,0,0,8,4Z" fill="#cf3339"/>
    <path id="path6" d="M8.7,8,10.35,6.355a.5.5,0,0,0-.707-.707L8,7.3,6.35,5.648a.5.5,0,0,0-.707.707L7.289,8,5.643,9.648a.5.5,0,1,0,.694.719l.013-.012L8,8.708l1.647,1.647a.5.5,0,0,0,.707-.707Z" fill="#fff"/>
    <path id="path817-3" d="M8,3.5A4.5,4.5,0,0,0,3.5,8h0A4.5,4.5,0,1,0,8,3.5Zm0,.7A3.8,3.8,0,0,1,11.8,8V8A3.8,3.8,0,1,1,8,4.2Z" class="aw-theme-iconOutline" fill="#464646"/>
  </g>
</svg>
