<svg id="Image" xmlns="http://www.w3.org/2000/svg" viewBox="0 0 16 16">
  <g id="g849">
    <path id="path841" d="M1.023,2.951V.925H4.142v.78H2.125v.712H3.989V3.2H2.125V4.213H4.142v.763H1.023Z" fill="#005f87"/>
    <path id="path843" d="M12.04,2.993V.976h2.932v.763H13.091v.779h1.746v.763H13.091V5.01H12.04Z" fill="#005f87"/>
    <path id="rect4-0" d="M.484,6.819H15.712v7.84H.484Z" fill="#fff"/>
    <path id="rect819-5" d="M0,6.883H1V15H0Z" fill="#005f87"/>
    <path id="rect836" d="M-.012,14h16v1h-16Z" fill="#005f87"/>
    <path id="rect836-4" d="M0,6H16V7H0Z" fill="#005f87"/>
    <path id="rect819-5-3" d="M15,6.883h1V15H15Z" fill="#005f87"/>
    <path id="path871" d="M2,10v3H5Z" fill="#005f87"/>
    <path id="path873" d="M2,9V8H5l5,5H6Z" fill="#005f87"/>
    <path id="path871-0" d="M11,8h3l-.017,3Z" fill="#005f87"/>
    <path id="path873-3" d="M13.969,12v1H11L6,8H9.969Z" fill="#005f87"/>
  </g>
</svg>
