<svg id="Artwork" xmlns="http://www.w3.org/2000/svg" xmlns:xlink="http://www.w3.org/1999/xlink" viewBox="0 0 16 16">
  <defs>
    <linearGradient id="linear-gradient" x1="-10.021" y1="793.876" x2="1.105" y2="801.064" gradientTransform="translate(12.257 -761.498) scale(1.039 0.963)" gradientUnits="userSpaceOnUse">
      <stop offset="0" stop-color="#afd7e1"/>
      <stop offset="1" stop-color="#54a4bc"/>
    </linearGradient>
  </defs>
  <g id="g854">
    <path id="path844-5" d="M2.243,9.3A2.785,2.785,0,0,1,.7,7.871,1.945,1.945,0,0,1,.5,6.727,1.829,1.829,0,0,1,.747,5.5,2.985,2.985,0,0,1,1.5,4.6c.481-.414.512-.461.6-.884a4.03,4.03,0,0,1,.671-1.573A3.755,3.755,0,0,1,7.621.868a3.536,3.536,0,0,1,.616.392c.312.208.389.227,1.047.255a2.478,2.478,0,0,1,1.142.227A3.138,3.138,0,0,1,12,3.607l.086.276.67.007a2.175,2.175,0,0,1,1.1.2,2.965,2.965,0,0,1,1.7,2.173,2.807,2.807,0,0,1-1.72,2.987l-.411.18-5.38.016-5.38.017Z" fill="url(#linear-gradient)"/>
    <path id="path849" d="M4.705,14.9v-.474l.244-.012a1.137,1.137,0,0,0,.893-.4,1.478,1.478,0,0,0,.312-.569c.013-.052.036-.627.052-1.284a4.811,4.811,0,0,1,.179-1.789A3.664,3.664,0,0,1,7.759,8.529,6.375,6.375,0,0,1,8.4,8.168s.007,1.338.007,2.972v2.972h.5V8.086h2.164L11.066,11.1l-.008,3.013h.5v-3c0-1.652,0-3,.007-3s.63.328.719.384a3.9,3.9,0,0,1,.926.875,3.771,3.771,0,0,1,.614,1.343,9.431,9.431,0,0,1,.094,1.612c.011.621.028,1.055.042,1.119a1.455,1.455,0,0,0,.316.583,1.126,1.126,0,0,0,.888.393l.245.014v.946H4.705Z" fill="#ffcd50"/>
    <path id="path825" d="M4.231,15.967a.285.285,0,0,1-.154-.121c-.054-.089-.057-.153-.058-1.017,0-.843,0-.932.055-1.024.105-.2.164-.219.645-.235.418-.014.436-.018.54-.1.212-.161.208-.139.228-1.411a5.736,5.736,0,0,1,.181-1.882l.07-.242H4.549a7.153,7.153,0,0,1-1.975-.129,3.315,3.315,0,0,1-1.6-.922A2.862,2.862,0,0,1,.3,7.929,3.269,3.269,0,0,1,1.311,3.993c.2-.163.207-.174.244-.355a4.44,4.44,0,0,1,.6-1.427A4.739,4.739,0,0,1,4.063.538,3.646,3.646,0,0,1,5.133.154,5.563,5.563,0,0,1,6.812.138a4.417,4.417,0,0,1,1.75.756l.194.142h.366a3.55,3.55,0,0,1,1.648.376,3.332,3.332,0,0,1,1.6,1.6l.118.25h.154a3.595,3.595,0,0,1,3.224,2.416A3.207,3.207,0,0,1,15.1,8.765a4.081,4.081,0,0,1-.81.643.406.406,0,0,0-.14.1,2.582,2.582,0,0,0,.1.278,5.469,5.469,0,0,1,.308,2.36c0,.952,0,1,.063,1.122a.563.563,0,0,0,.181.207c.112.074.143.079.55.093s.436.018.511.088c.158.147.159.156.162,1.173,0,.887,0,.95-.054,1.021a.391.391,0,0,1-.155.11C15.693,16.006,4.383,16.011,4.231,15.967Zm10.975-1.182v-.307h-.139a1.4,1.4,0,0,1-1.31-1.156,7.8,7.8,0,0,1-.044-1.219,4.644,4.644,0,0,0-.176-1.789,3.291,3.291,0,0,0-1.552-1.89,1.8,1.8,0,0,0-.227-.109L11.692,8.3v5.89h-.82l-.007-3.024-.008-3.024-.82-.008c-.451,0-.862,0-.915.009l-.1.017v6.03h-.82V11.271c0-1.6-.008-2.914-.018-2.914a2.546,2.546,0,0,0-.593.37,3.458,3.458,0,0,0-1.221,2.178,10.337,10.337,0,0,0-.042,1.259c0,1.088-.018,1.24-.176,1.552A1.364,1.364,0,0,1,5,14.478H4.839v.615H15.206ZM6.29,8.862A4.656,4.656,0,0,1,7.322,7.835a4.164,4.164,0,0,1,.852-.444q.033,0,.033-.249V6.893H11.69l.008.223.009.222.227.083a4.049,4.049,0,0,1,1.71,1.271l.09.115.25-.166a2.441,2.441,0,0,0,.666-3.476,3.822,3.822,0,0,0-.713-.7,2.736,2.736,0,0,0-.83-.358,3.162,3.162,0,0,0-.8-.066l-.538,0-.082-.292a2.232,2.232,0,0,0-.6-1.094,2.777,2.777,0,0,0-1.21-.728,2.167,2.167,0,0,0-.836-.082l-.578,0-.127-.106A3.947,3.947,0,0,0,5.4.9a3.837,3.837,0,0,0-2.558,1.82,3.794,3.794,0,0,0-.445,1.4c-.019.2-.023.2-.141.274A2.625,2.625,0,0,0,1,5.872a1.747,1.747,0,0,0-.106.645,2.34,2.34,0,0,0,.175,1.058,2.475,2.475,0,0,0,1.81,1.486,9.777,9.777,0,0,0,1.745.055l1.5,0Z" fill="#464646"/>
  </g>
</svg>
