<svg id="Layer_1" data-name="Layer 1" xmlns="http://www.w3.org/2000/svg" viewBox="0 0 16 16">
  <g id="g829">
    <path id="path844" d="M7.176,15.5l-4.982-.01-.118-.044A2.022,2.022,0,0,1,.8,13.916,2.434,2.434,0,0,1,.651,13a2.552,2.552,0,0,1,1.2-2.159l.2-.137.024-.179A3.8,3.8,0,0,1,2.5,9.161a3.471,3.471,0,0,1,.682-.925A3.462,3.462,0,0,1,5.165,7.2,4.157,4.157,0,0,1,6.2,7.238a3.155,3.155,0,0,1,1.489.767,2.84,2.84,0,0,0,.244.206l.251-.031a2.286,2.286,0,0,1,.734,0A2.593,2.593,0,0,1,10.81,9.45a2.861,2.861,0,0,1,.262.692c.047.168.09.309.1.315a1.627,1.627,0,0,0,.249-.016,2.979,2.979,0,0,1,1.236.111,2.7,2.7,0,0,1,1.595,1.625,2.384,2.384,0,0,1,.127.724,2.341,2.341,0,0,1-2.066,2.6c-.083.008-2.393.011-5.133.006Z" fill="#0b9b01"/>
    <path id="path2" d="M5.529,7.21a4.17,4.17,0,0,0-3.978,3.414A2.775,2.775,0,0,0,.289,13.968,2.6,2.6,0,0,0,2.366,15.9v-.554A1.97,1.97,0,0,1,.88,13.805,2.3,2.3,0,0,1,2.012,11l.11-.068.02-.116A3.611,3.611,0,0,1,4.645,7.9a3.44,3.44,0,0,1,3.243.681L8,8.67l.147-.018a2.633,2.633,0,0,1,2.986,1.787l.068.224.264-.026a2.74,2.74,0,0,1,1.968.563,2.33,2.33,0,0,1,.932,1.821,2.267,2.267,0,0,1-2.231,2.35v.546A2.845,2.845,0,0,0,13.842,10.8a3.383,3.383,0,0,0-2.192-.713A3.252,3.252,0,0,0,8.206,8.1,4.008,4.008,0,0,0,5.529,7.21Z" class="aw-theme-iconOutline" fill="#464646"/>
    <path id="path863" d="M5.281,2.1l.705.709a6,6,0,0,1,8.429-.026l.708-.7A7,7,0,0,0,5.281,2.1Zm1.41,1.419.7.709A4,4,0,0,1,13,4.189l.708-.7A5,5,0,0,0,6.691,3.515ZM8.1,4.934l.705.709a2,2,0,0,1,2.77-.043l.71-.7A3,3,0,0,0,8.1,4.934Z" class="aw-theme-iconOutline" fill="#464646"/>
    <path id="path918" d="M11.247,6.844a1,1,0,1,1-1-1A1,1,0,0,1,11.247,6.844Z" class="aw-theme-iconOutline" fill="#464646"/>
    <path id="path821" d="M2.052,15.92A2.836,2.836,0,0,1,.109,13.684a3.214,3.214,0,0,1,0-1.285,3.13,3.13,0,0,1,1.06-1.615.878.878,0,0,0,.313-.343A4.293,4.293,0,0,1,3.8,7.561a3.866,3.866,0,0,1,2.088-.429,3.9,3.9,0,0,1,2.094.683c.259.176.26.176.79.2a3.109,3.109,0,0,1,1.483.391A3.124,3.124,0,0,1,11.61,9.755l.111.226.315.023a3.426,3.426,0,0,1,1.3.371,2.4,2.4,0,0,1,.821.605,2.791,2.791,0,0,1,.561.714,2.277,2.277,0,0,1,.321,1.37,2.174,2.174,0,0,1-.124.928,2.846,2.846,0,0,1-.68,1.114,2.917,2.917,0,0,1-1.492.811c-.338.082-.57.085-5.391.082A42.952,42.952,0,0,1,2.052,15.92Zm10.554-.734a2.094,2.094,0,0,0,1.526-1.38,2.131,2.131,0,0,0-.563-2.315,2.38,2.38,0,0,0-1.941-.743l-.5.006-.117-.349A2.233,2.233,0,0,0,9.854,9.046a2.554,2.554,0,0,0-1.39-.3l-.527,0-.291-.223a3.144,3.144,0,0,0-1.988-.65,2.906,2.906,0,0,0-1.35.281,3.658,3.658,0,0,0-1.84,1.839,3.986,3.986,0,0,0-.242.911c-.01.055-.132.167-.3.277A2.267,2.267,0,0,0,.851,13.174a4.124,4.124,0,0,0,.4,1.257,1.961,1.961,0,0,0,1,.779c.061.019,2.359.036,5.106.038C11.648,15.251,12.389,15.242,12.606,15.186Z" class="aw-theme-iconOutline" fill="#464646"/>
  </g>
</svg>
