<svg id="Image" xmlns="http://www.w3.org/2000/svg" viewBox="0 0 16 16">
  <g id="g836">
    <path id="polygon4" d="M10.032.068,5.016,5.084,2.508,2.576,0,5.084,2.508,7.592,5.016,10.1,7.524,7.592,12.54,2.576Z" fill="#14915a"/>
    <path id="path6" d="M10.032,1.322l1.253,1.254L6.9,6.965,5.016,8.842,3.135,6.965,1.254,5.084,2.508,3.83,4.389,5.711l.627.627.627-.627,4.389-4.389m0-1.254L5.016,5.084,2.508,2.576,0,5.084,2.508,7.592,5.016,10.1,7.524,7.592,12.54,2.576Z" class="aw-theme-iconOutline" fill="#464646"/>
    <path id="rect2" d="M6,14.462H9.846v.769H6Z" class="aw-theme-iconOutline" fill="#464646"/>
    <path id="rect4" d="M14.462,14.462H16v.769H14.462Z" class="aw-theme-iconOutline" fill="#464646"/>
    <path id="path6-2" d="M12.923,16H11.385a.769.769,0,0,1-.77-.769h0v-.769a.77.77,0,0,1,.77-.77h1.538a.769.769,0,0,1,.769.77v.769A.769.769,0,0,1,12.923,16Zm-1.538-1.538v.769h1.538v-.769Z" class="aw-theme-iconOutline" fill="#464646"/>
    <path id="polygon8" d="M13.466,12.178l.708-1.756-.3-.3-1.77.7-.7-1.75h-.8l-.7,1.75-1.77-.7-.3.3.708,1.756-1.765.7v.813H6V12.357l1.532-.608-.61-1.514L7.94,9.223l1.528.606.613-1.521h1.838l.613,1.521,1.528-.606,1.018,1.012-.61,1.514L16,12.357v1.335h-.769v-.813Z" class="aw-theme-iconOutline" fill="#464646"/>
  </g>
</svg>
