<svg id="Layer_1" data-name="Layer 1" xmlns="http://www.w3.org/2000/svg" viewBox="0 0 16 16">
  <path id="path814" d="M3.785,14.271c-.578-.4-1.055-.739-1.059-.752s.83-1.1,1.856-2.4,1.864-2.394,1.864-2.41-1.223-.276-2.718-.577S1.006,7.575,1,7.569s.838-2.373.87-2.408c.015-.016,1.189.409,2.608.945s2.587.968,2.594.961S6.983,5.7,6.858,4.054l-.227-3,1.336-.009c.735,0,1.345,0,1.354.009S9.237,2.417,9.113,4.06s-.22,3-.212,3,1.183-.425,2.61-.961,2.6-.969,2.608-.961c.028.031.832,2.438.814,2.438s-5.35,1.085-5.394,1.1c-.025.009.722.99,1.838,2.415,1.035,1.319,1.881,2.407,1.882,2.416s-2.082,1.462-2.133,1.482c-.01.005-.713-1.173-1.562-2.617S8.014,9.753,8.005,9.753s-.718,1.181-1.576,2.624S4.862,15,4.853,15,4.363,14.671,3.785,14.271Z" fill="#005f87"/>
</svg>
