<svg id="Artwork" xmlns="http://www.w3.org/2000/svg" xmlns:xlink="http://www.w3.org/1999/xlink" viewBox="0 0 16 16">
  <defs>
    <linearGradient id="linear-gradient" x1="1.547" y1="16.656" x2="12.107" y2="9.469" gradientTransform="matrix(1, 0, 0, -1, 0.252, 17.884)" gradientUnits="userSpaceOnUse">
      <stop offset="0" stop-color="#fff"/>
      <stop offset="0.221" stop-color="#f8f8f8"/>
      <stop offset="0.541" stop-color="#e5e5e5"/>
      <stop offset="0.92" stop-color="#c6c6c6"/>
      <stop offset="1" stop-color="#bebebe"/>
    </linearGradient>
    <linearGradient id="linear-gradient-2" x1="81.829" y1="12.784" x2="88.686" y2="2.846" gradientTransform="matrix(0.785, 0, 0, -1, -63.503, 17.758)" gradientUnits="userSpaceOnUse">
      <stop offset="0" stop-color="#f2f2f2"/>
      <stop offset="0.5" stop-color="#ccc"/>
      <stop offset="0.63" stop-color="#c7c7c7"/>
      <stop offset="0.779" stop-color="#b9b9b9"/>
      <stop offset="0.938" stop-color="#a2a2a2"/>
      <stop offset="0.99" stop-color="#999"/>
    </linearGradient>
  </defs>
  <g id="g894">
    <path id="rect837-7-6-3" d="M12.45,4.6l-5.9,3.434-.1,7.435,6.167-3.71Z" fill="#888"/>
    <path id="rect837-7-6-8-3" d="M12.37,4.584,6.182.771.556,4.22,6.45,8.078Z" fill="url(#linear-gradient)"/>
    <path id="rect837-7-5" d="M.836,4.694,6.323,8.323,6.514,16,.533,11.487Z" fill="url(#linear-gradient-2)"/>
    <path id="rect845-6-9-9" d="M.067,4.164l.007-.012A.446.446,0,0,1,.7,4L6.541,7.7a.478.478,0,0,1,.154.645l-.008.013a.446.446,0,0,1-.627.15L.22,4.809A.477.477,0,0,1,.067,4.164Z" fill="#6e6e6e"/>
    <path id="rect845-6-7-2-2" d="M12.77,4.384l-.016-.025A.485.485,0,0,0,12.08,4.2L6.343,7.76a.5.5,0,0,0-.163.681l.016.025a.485.485,0,0,0,.674.161l5.737-3.562A.5.5,0,0,0,12.77,4.384Z" fill="#6e6e6e"/>
    <path id="rect845-8-5-8" d="M6.412,7.771a.519.519,0,0,1,.5.54v7.138a.5.5,0,1,1-.992,0V8.311A.518.518,0,0,1,6.412,7.771Z" fill="#6e6e6e"/>
    <path id="rect845-9" d="M.449,4.037H.563A.438.438,0,0,1,1,4.476v7.271a.438.438,0,0,1-.439.439H.449a.438.438,0,0,1-.439-.439V4.476A.438.438,0,0,1,.449,4.037Z" fill="#464646"/>
    <path id="rect845-6-7-24" d="M12.779,11.5l-.006-.01a.456.456,0,0,0-.637-.152l-5.8,3.642a.477.477,0,0,0-.155.65l.006.01a.455.455,0,0,0,.637.152l5.8-3.642A.477.477,0,0,0,12.779,11.5Z" fill="#464646"/>
    <path id="rect845-6-7-2-5-5" d="M6.826.564,6.81.538A.5.5,0,0,0,6.122.374L.24,3.989a.5.5,0,0,0-.164.688L.092,4.7a.5.5,0,0,0,.688.164L6.662,1.251A.5.5,0,0,0,6.826.564Z" fill="#464646"/>
    <path id="rect845-6-6-8" d="M6.054.538,6.086.483A.409.409,0,0,1,6.669.344l5.887,3.8a.457.457,0,0,1,.146.61l-.033.054a.409.409,0,0,1-.583.139L6.2,1.148A.456.456,0,0,1,6.054.538Z" fill="#464646"/>
    <path id="rect845-8-6" d="M12.356,4.347h.032a.479.479,0,0,1,.48.48v6.919a.479.479,0,0,1-.48.48h-.032a.479.479,0,0,1-.48-.48V4.827A.479.479,0,0,1,12.356,4.347Z" fill="#464646"/>
    <path id="rect845-6-9-9-6" d="M.067,11.547l.007-.013a.447.447,0,0,1,.628-.15l5.839,3.7a.478.478,0,0,1,.154.645l-.008.012a.446.446,0,0,1-.627.15l-5.84-3.7A.477.477,0,0,1,.067,11.547Z" fill="#464646"/>
    <path id="rect826-0" d="M3.737,13.312,12.794.334l2.87,2.037L6.608,15.349Z" fill="#ffcd50" stroke="#464646" stroke-linecap="square" stroke-width="0.309"/>
    <path id="path904" d="M4.923,14.07a.953.953,0,0,1-.863-.6L3.967,13.3l.277.188c.152.1.4.278.546.388l.269.2Z" fill="#ffcd50"/>
    <path id="path904-4" d="M6.4,15.141a.752.752,0,0,1-.757-.522l-.075-.161.243.164c.134.091.349.244.478.34l.236.175Z" fill="#ffcd50"/>
    <path id="path900-7" d="M3.978,13.316a1.56,1.56,0,0,0,1.166.715l.582.4a1.1,1.1,0,0,0,.8.7l-1.741.392-.626-.478Z" fill="#fffb9e"/>
    <path id="path1328" d="M3.924,15.971c-.007-.019-.1-.63-.2-1.358l-.188-1.322,4.6-6.6C13.218-.581,12.788-.012,13.168.024A4.131,4.131,0,0,1,15.85,2.009a.8.8,0,0,1,.05.266c-.01.071-2.093,3.073-8.553,12.325l-.66.944-1.342.223C4.607,15.89,3.988,16,3.97,16A.04.04,0,0,1,3.924,15.971Zm1.742-.632c.752-.17.844-.2.912-.275S15.333,2.543,15.426,2.393c.018-.03-.056-.091-.432-.357-.25-.177-.457-.318-.46-.313-.065.1-8.783,12.6-8.809,12.626s-.042.041-.294-.134c-.141-.1-.273-.184-.294-.192s1.955-2.867,4.389-6.354,4.422-6.349,4.417-6.362S12.873.524,12.865.538L8.427,6.9c-2.438,3.5-4.439,6.384-4.446,6.42s.028.44.077.9l.089.834.307.233a2.676,2.676,0,0,0,.341.236C4.814,15.526,5.206,15.443,5.666,15.339Z" fill="#464646"/>
  </g>
</svg>
