<svg id="Layer_1" data-name="Layer 1" xmlns="http://www.w3.org/2000/svg" viewBox="0 0 24 24">
  <g id="g826">
    <path id="path825" d="M23.5,12A11.5,11.5,0,0,1,12,23.5h0A11.5,11.5,0,1,1,23.5,12Z" fill="#f0f0f0" opacity="0.7" style="isolation: isolate"/>
    <path id="path2" d="M0,12A12,12,0,1,1,12,24,12.014,12.014,0,0,1,0,12Zm1,0A11.005,11.005,0,1,0,12,1,11.018,11.018,0,0,0,1,12Z" class="aw-theme-iconOutline" fill="#464646"/>
    <path id="polygon6" d="M14.865,18.37,7.449,11.635l7.424-6.462.656.754L8.954,11.65l6.583,5.98Z" class="aw-theme-iconOutline" fill="#464646"/>
  </g>
</svg>
