<svg id="Layer_1" data-name="Layer 1" xmlns="http://www.w3.org/2000/svg" viewBox="0 0 24 24">
  <g id="g826">
    <path id="path825" d="M23.5,12A11.5,11.5,0,0,1,12,23.5h0A11.5,11.5,0,1,1,23.5,12Z" fill="#f0f0f0" opacity="0.7" style="isolation: isolate"/>
    <path id="path2" d="M12,24A12,12,0,1,1,24,12,12.014,12.014,0,0,1,12,24ZM12,1A11.005,11.005,0,1,0,23.005,12,11.018,11.018,0,0,0,12,1Z" class="aw-theme-iconOutline" fill="#464646"/>
    <path id="polygon6" d="M9.135,18.37l-.672-.74,6.583-5.98L8.471,5.927l.656-.754,7.425,6.462Z" class="aw-theme-iconOutline" fill="#464646"/>
  </g>
</svg>
