<svg id="Layer_1" data-name="Layer 1" xmlns="http://www.w3.org/2000/svg" xmlns:xlink="http://www.w3.org/1999/xlink" viewBox="0 0 48 48">
  <defs>
    <linearGradient id="linear-gradient" x1="5.374" y1="797.074" x2="35.679" y2="764.735" gradientTransform="translate(-3 -750)" gradientUnits="userSpaceOnUse">
      <stop offset="0" stop-color="#fff"/>
      <stop offset="0.228" stop-color="#fafafa"/>
      <stop offset="0.321" stop-color="#ededed"/>
      <stop offset="0.762" stop-color="#d7d6d6"/>
      <stop offset="1" stop-color="#bdbcbc"/>
    </linearGradient>
    <linearGradient id="linear-gradient-2" x1="-528.069" y1="108.803" x2="-502.224" y2="87.549" gradientTransform="translate(12386.458 -838.615) scale(23.308 7.793)" gradientUnits="userSpaceOnUse">
      <stop offset="0" stop-color="#73b4c8"/>
      <stop offset="0.175" stop-color="#6aaec3"/>
      <stop offset="0.457" stop-color="#529eb5"/>
      <stop offset="0.809" stop-color="#2c839f"/>
      <stop offset="1" stop-color="#147391"/>
    </linearGradient>
  </defs>
  <g id="g913">
    <path id="rect894" d="M.2.305H47.7V47.8H.2Z" fill="url(#linear-gradient)"/>
    <path id="path883" d="M39.864,20.746l-6.1-9.56s-7.729-.813-9.356-.813-12.814-.407-13.627,1.22-3.255,5.7-3.458,6.509S5.034,23.7,5.237,24.712s2.9,4.373,3.712,6.813,1.831,5.9,3.865,6.712.813.407,5.9,1.017a24.593,24.593,0,0,0,9.356-.407c2.237-.406,12.2-2.033,12.2-2.847s-1.83-7.525-1.83-7.525l2.034-5.492Z" stroke="#464646" fill="url(#linear-gradient-2)"/>
    <path id="path885" d="M10.424,12,3.254,6.305.814,5.7" fill="none" stroke="#464646"/>
    <path id="path887" d="M13.017,38.441,9.153,41.7l-2.034-1.22L4.678,44.136.6,47.4" fill="none" stroke="#464646"/>
    <path id="path889" d="M31.22,38.339,29.7,43.932l2.441,2.237.2,1.017h0" fill="none" stroke="#464646"/>
    <path id="path891" d="M36.407,15.356l4.068.508,6.711,1.628.407.254" fill="none" stroke="#464646"/>
    <path id="path2" d="M39.968,17.273C33.913,14.245,27.857,21.028,21.8,18V5.888c6.056,3.028,12.112-3.754,18.167-.726Z" fill="#8c8c8c"/>
    <path id="path4" d="M40.211,4.677c-3.271-1.7-6.42-.727-9.448.242-2.906.969-5.692,1.7-8.357.485v-1.7H21.2V29.627h1.211V18.848a8.333,8.333,0,0,0,2.907.605,19.923,19.923,0,0,0,5.814-1.211c3.028-.969,5.813-1.817,8.6-.363a.8.8,0,0,0,.848-.242c0-.121.121-.121.121-.243V5.283A.852.852,0,0,0,40.211,4.677Zm-.848,11.748c-2.907-1.09-5.814-.242-8.6.727-2.906.848-5.571,1.7-8.357.485V6.736c2.907,1.09,5.814.242,8.6-.606,2.907-.847,5.571-1.7,8.357-.484Z" fill="#464646"/>
    <path id="rect1028" d="M28.228,6.2h1.211V18.117H28.228Z" fill="#464646"/>
    <path id="rect1028-2" d="M34.458,4.63h1.211V16.547H34.458Z" fill="#464646"/>
    <path id="path1053" d="M29.449,12.06V6.6l.269-.078,1.317-.387a31.028,31.028,0,0,1,3.333-.867h.069V16.1l-.192.037a24.288,24.288,0,0,0-2.887.8c-.631.21-1.268.4-1.763.539l-.146.039Z" fill="#bebebe"/>
    <path id="path1055" d="M38.979,16.288a9.362,9.362,0,0,0-1.586-.338c-.177-.021-.638-.038-1.023-.037h-.7V5.089l.269-.023c.149-.012.485-.013.747,0a7.092,7.092,0,0,1,2.379.475l.3.111v5.383c0,2.96,0,5.381-.006,5.379l-.378-.124Z" fill="#f9f9f9"/>
    <path id="rect1057" d="M0,0H1V48H0Z" fill="#147391"/>
    <path id="rect1057-4" d="M47,0h1V48H47Z" fill="#147391"/>
    <path id="rect1057-4-1" d="M48,0V1H0V0Z" fill="#147391"/>
    <path id="rect1057-4-1-0" d="M48,47v1H0V47Z" fill="#147391"/>
  </g>
</svg>
