<svg id="Layer_1" data-name="Layer 1" xmlns="http://www.w3.org/2000/svg" xmlns:xlink="http://www.w3.org/1999/xlink" viewBox="0 0 48 48">
  <defs>
    <linearGradient id="linear-gradient" x1="2.086" y1="44.914" x2="43.5" y2="3.5" gradientTransform="matrix(1, 0, 0, -1, 0, 50)" gradientUnits="userSpaceOnUse">
      <stop offset="0" stop-color="#fff"/>
      <stop offset="0.221" stop-color="#f8f8f8"/>
      <stop offset="0.541" stop-color="#e5e5e5"/>
      <stop offset="0.92" stop-color="#c6c6c6"/>
      <stop offset="1" stop-color="#bebebe"/>
    </linearGradient>
    <linearGradient id="linear-gradient-2" x1="36.064" y1="-25.702" x2="47.276" y2="-38.601" gradientTransform="matrix(0.83, 0, 0, -0.852, -12.396, -1.226)" gradientUnits="userSpaceOnUse">
      <stop offset="0" stop-color="#afd7e1"/>
      <stop offset="0.159" stop-color="#a4d0dc"/>
      <stop offset="0.706" stop-color="#80bcce"/>
      <stop offset="1" stop-color="#73b4c8"/>
    </linearGradient>
    <linearGradient id="linear-gradient-3" x1="36.064" y1="-25.702" x2="47.276" y2="-38.601" gradientTransform="matrix(0.83, 0, 0, -0.852, 0.488, -1.226)" xlink:href="#linear-gradient-2"/>
    <linearGradient id="linear-gradient-4" x1="36.064" y1="-25.702" x2="47.276" y2="-38.601" gradientTransform="matrix(0.83, 0, 0, -0.852, -25.281, -1.226)" xlink:href="#linear-gradient-2"/>
  </defs>
  <g id="g1113">
    <path id="path35" d="M1.5,43.5h45v-33h-27L16.094,5.391A2,2,0,0,0,14.43,4.5H3.5a2,2,0,0,0-2,2Z" stroke="#464646" stroke-miterlimit="10" fill="url(#linear-gradient)"/>
    <path id="rect1862-8-2-5" d="M4.034,24H43.966a.034.034,0,0,1,.034.034v1.932a.034.034,0,0,1-.034.034H4.034A.034.034,0,0,1,4,25.966V24.034A.034.034,0,0,1,4.034,24Z" fill="#32859e"/>
    <path id="rect1171-7-1" d="M26.866,18.215,28.981,16.9c.015-.009.027,0,.027.016v16.82a.063.063,0,0,1-.027.049L26.866,35.1c-.015.009-.027,0-.027-.016V18.264A.063.063,0,0,1,26.866,18.215Z" fill="#32859e"/>
    <path id="rect1169-3-8" d="M21.9,16.258h6.639c.017,0,.02.008.006.018L26,18.162a.112.112,0,0,1-.056.018H19.3c-.017,0-.02-.008-.006-.018l2.553-1.886A.112.112,0,0,1,21.9,16.258Z" fill="#32859e"/>
    <path id="rect1115-5-1" d="M19.077,18.336H26.6v17.2H19.077Z" fill="url(#linear-gradient-2)"/>
    <g id="g1146-0-7">
      <g id="g1134-6-3">
        <path id="rect989-8-3-4" d="M18.907,35.169h7.765a.374.374,0,0,1,.36.388v.055a.374.374,0,0,1-.36.388H18.907a.374.374,0,0,1-.36-.388v-.055A.374.374,0,0,1,18.907,35.169Z" fill="#464646"/>
        <path id="rect989-8-7-3-3" d="M18.907,17.712h7.765a.374.374,0,0,1,.36.388v.056a.374.374,0,0,1-.36.388H18.907a.374.374,0,0,1-.36-.388V18.1A.374.374,0,0,1,18.907,17.712Z" fill="#464646"/>
        <path id="rect989-8-7-2-0-5" d="M27.032,18.1V35.612a.374.374,0,0,1-.36.388H26.62a.374.374,0,0,1-.36-.388V18.1a.374.374,0,0,1,.36-.388h.052A.374.374,0,0,1,27.032,18.1Z" fill="#464646"/>
        <path id="rect989-8-7-2-5-8-5" d="M19.318,18.1V35.612a.374.374,0,0,1-.36.388h-.051a.374.374,0,0,1-.36-.388V18.1a.374.374,0,0,1,.36-.388h.051A.374.374,0,0,1,19.318,18.1Z" fill="#464646"/>
        <path id="rect989-8-7-2-7-8-4" d="M29.346,16.438V33.95a.374.374,0,0,1-.36.387h-.052a.374.374,0,0,1-.36-.387V16.438a.374.374,0,0,1,.36-.388h.052A.374.374,0,0,1,29.346,16.438Z" fill="#464646"/>
        <path id="path1068-6-7" d="M28.966,33.591a.335.335,0,0,0-.194.065l-2.265,1.6a.408.408,0,0,0-.105.539.347.347,0,0,0,.5.114h0l2.264-1.6a.409.409,0,0,0,.108-.539A.354.354,0,0,0,28.966,33.591Z" fill="#464646"/>
        <path id="path1068-8-24-9" d="M28.983,15.993a.347.347,0,0,0-.2.067l-2.263,1.594a.408.408,0,0,0-.127.534.348.348,0,0,0,.5.137l.026-.018,2.264-1.595a.409.409,0,0,0,.113-.538A.358.358,0,0,0,28.983,15.993Z" fill="#464646"/>
        <path id="path1068-8-2-8-0" d="M21.176,16.011a.348.348,0,0,0-.193.066l-2.264,1.6a.408.408,0,0,0-.105.54.346.346,0,0,0,.5.113h0l2.264-1.6a.408.408,0,0,0,.112-.538A.355.355,0,0,0,21.176,16.011Z" fill="#464646"/>
        <path id="rect989-8-7-6-2-6" d="M21.221,16h7.765a.374.374,0,0,1,.36.388v.056a.374.374,0,0,1-.36.387H21.221a.373.373,0,0,1-.36-.387v-.056A.374.374,0,0,1,21.221,16Z" fill="#464646"/>
      </g>
    </g>
    <g id="g985-5-3-8">
      <path id="rect1440-9-0-9-8" d="M20.464,20.289h4.65a.033.033,0,0,1,.032.034v3.022a.034.034,0,0,1-.032.035h-4.65a.033.033,0,0,1-.031-.035V20.323A.033.033,0,0,1,20.464,20.289Z" fill="#979797" stroke="#464646" stroke-linecap="round" stroke-miterlimit="10" stroke-width="0.874"/>
      <path id="rect1442-9-38-4-9" d="M20.47,26.856h4.617a.028.028,0,0,1,.027.028v7.381a.027.027,0,0,1-.027.028H20.47a.027.027,0,0,1-.027-.028V26.884A.028.028,0,0,1,20.47,26.856Z" fill="#979797" stroke="#464646" stroke-linecap="round" stroke-miterlimit="10" stroke-width="0.874"/>
    </g>
    <g id="g1421">
      <path id="rect1171-7-1-4" d="M39.749,18.216,41.866,16.9c.015-.009.027,0,.027.017v16.82a.061.061,0,0,1-.027.048L39.749,35.1c-.014.009-.026,0-.026-.017V18.264A.063.063,0,0,1,39.749,18.216Z" fill="#32859e"/>
      <path id="rect1169-3-8-9" d="M34.788,16.258h6.641c.016,0,.019.008,0,.018L38.88,18.162a.109.109,0,0,1-.055.018H32.184c-.016,0-.019-.008,0-.018l2.554-1.886A.109.109,0,0,1,34.788,16.258Z" fill="#32859e"/>
      <path id="rect1115-5-1-1" d="M31.962,18.336h7.52v17.2h-7.52Z" fill="url(#linear-gradient-3)"/>
      <g id="g1146-0-7-9">
        <g id="g1134-6-3-9">
          <path id="rect989-8-3-4-2" d="M31.791,35.169h7.765a.374.374,0,0,1,.36.388v.055a.374.374,0,0,1-.36.388H31.791a.374.374,0,0,1-.36-.388v-.055A.374.374,0,0,1,31.791,35.169Z" fill="#464646"/>
          <path id="rect989-8-7-3-3-4" d="M31.791,17.712h7.765a.374.374,0,0,1,.36.388v.056a.374.374,0,0,1-.36.388H31.791a.374.374,0,0,1-.36-.388V18.1A.374.374,0,0,1,31.791,17.712Z" fill="#464646"/>
          <path id="rect989-8-7-2-0-5-8" d="M39.916,18.1V35.612a.374.374,0,0,1-.36.388h-.051a.374.374,0,0,1-.36-.388V18.1a.374.374,0,0,1,.36-.388h.051A.374.374,0,0,1,39.916,18.1Z" fill="#464646"/>
          <path id="rect989-8-7-2-5-8-5-8" d="M32.2,18.1V35.612a.374.374,0,0,1-.36.388h-.052a.374.374,0,0,1-.36-.388V18.1a.374.374,0,0,1,.36-.388h.052A.374.374,0,0,1,32.2,18.1Z" fill="#464646"/>
          <path id="rect989-8-7-2-7-8-4-3" d="M42.23,16.438V33.95a.374.374,0,0,1-.36.387h-.051a.373.373,0,0,1-.36-.387V16.438a.374.374,0,0,1,.36-.388h.051A.374.374,0,0,1,42.23,16.438Z" fill="#464646"/>
          <path id="path1068-6-7-4" d="M41.85,33.591a.337.337,0,0,0-.194.065l-2.264,1.6a.407.407,0,0,0-.106.539.347.347,0,0,0,.5.114h0l2.264-1.6a.407.407,0,0,0,.108-.539A.353.353,0,0,0,41.85,33.591Z" fill="#464646"/>
          <path id="path1068-8-24-9-2" d="M41.867,15.993a.344.344,0,0,0-.194.067L39.41,17.654a.407.407,0,0,0-.127.534.347.347,0,0,0,.495.137l.026-.018,2.265-1.595a.408.408,0,0,0,.112-.538A.357.357,0,0,0,41.867,15.993Z" fill="#464646"/>
          <path id="path1068-8-2-8-0-5" d="M34.06,16.011a.348.348,0,0,0-.193.066l-2.264,1.6a.41.41,0,0,0-.105.54.347.347,0,0,0,.5.113h0l2.265-1.6a.409.409,0,0,0,.112-.538A.355.355,0,0,0,34.06,16.011Z" fill="#464646"/>
          <path id="rect989-8-7-6-2-6-4" d="M34.1,16H41.87a.374.374,0,0,1,.36.388v.056a.374.374,0,0,1-.36.387H34.1a.374.374,0,0,1-.36-.387v-.056A.374.374,0,0,1,34.1,16Z" fill="#464646"/>
        </g>
      </g>
      <g id="g985-5-3-8-3">
        <path id="rect1440-9-0-9-8-3" d="M33.349,20.289H38a.033.033,0,0,1,.032.034v3.022A.034.034,0,0,1,38,23.38H33.349a.034.034,0,0,1-.032-.035V20.323A.033.033,0,0,1,33.349,20.289Z" fill="#979797" stroke="#464646" stroke-linecap="round" stroke-miterlimit="10" stroke-width="0.874"/>
        <path id="rect1442-9-38-4-9-3" d="M33.354,26.856h4.618a.028.028,0,0,1,.026.028v7.381a.027.027,0,0,1-.026.028H33.354a.026.026,0,0,1-.026-.028V26.884A.027.027,0,0,1,33.354,26.856Z" fill="#979797" stroke="#464646" stroke-linecap="round" stroke-miterlimit="10" stroke-width="0.874"/>
      </g>
    </g>
    <path id="rect1171-7-1-7" d="M13.982,18.215,16.1,16.9c.015-.009.028,0,.028.016v16.82a.064.064,0,0,1-.028.049L13.982,35.1c-.015.009-.028,0-.028-.016V18.264A.064.064,0,0,1,13.982,18.215Z" fill="#32859e"/>
    <path id="rect1169-3-8-3" d="M9.02,16.258h6.639c.017,0,.02.008.006.018l-2.554,1.886a.106.106,0,0,1-.055.018H6.417c-.018,0-.02-.008-.007-.018l2.554-1.886A.112.112,0,0,1,9.02,16.258Z" fill="#32859e"/>
    <path id="rect1115-5-1-6" d="M6.193,18.336h7.52v17.2H6.193Z" fill="url(#linear-gradient-4)"/>
    <g id="g1146-0-7-3">
      <g id="g1134-6-3-3">
        <path id="rect989-8-3-4-4" d="M6.022,35.169h7.765a.374.374,0,0,1,.36.388v.055a.374.374,0,0,1-.36.388H6.022a.374.374,0,0,1-.36-.388v-.055A.374.374,0,0,1,6.022,35.169Z" fill="#464646"/>
        <path id="rect989-8-7-3-3-6" d="M6.022,17.712h7.765a.374.374,0,0,1,.36.388v.056a.374.374,0,0,1-.36.388H6.022a.374.374,0,0,1-.36-.388V18.1A.374.374,0,0,1,6.022,17.712Z" fill="#464646"/>
        <path id="rect989-8-7-2-0-5-5" d="M14.147,18.1V35.612a.374.374,0,0,1-.36.388h-.051a.374.374,0,0,1-.36-.388V18.1a.374.374,0,0,1,.36-.388h.051A.374.374,0,0,1,14.147,18.1Z" fill="#464646"/>
        <path id="rect989-8-7-2-5-8-5-4" d="M6.434,18.1V35.612a.374.374,0,0,1-.36.388H6.022a.374.374,0,0,1-.36-.388V18.1a.374.374,0,0,1,.36-.388h.052A.374.374,0,0,1,6.434,18.1Z" fill="#464646"/>
        <path id="rect989-8-7-2-7-8-4-5" d="M16.461,16.438V33.95a.373.373,0,0,1-.36.387H16.05a.373.373,0,0,1-.36-.387V16.438a.374.374,0,0,1,.36-.388H16.1A.374.374,0,0,1,16.461,16.438Z" fill="#464646"/>
        <path id="path1068-6-7-1" d="M16.082,33.591a.338.338,0,0,0-.2.065l-2.264,1.6a.407.407,0,0,0-.1.539.346.346,0,0,0,.5.114h0l2.264-1.6a.409.409,0,0,0,.109-.539A.354.354,0,0,0,16.082,33.591Z" fill="#464646"/>
        <path id="path1068-8-24-9-0" d="M16.1,15.993a.344.344,0,0,0-.194.067l-2.263,1.594a.407.407,0,0,0-.127.534.348.348,0,0,0,.5.137l.026-.018L16.3,16.712a.408.408,0,0,0,.112-.538A.357.357,0,0,0,16.1,15.993Z" fill="#464646"/>
        <path id="path1068-8-2-8-0-4" d="M8.291,16.011a.347.347,0,0,0-.192.066l-2.265,1.6a.41.41,0,0,0-.1.54.347.347,0,0,0,.5.113h0l2.265-1.6a.408.408,0,0,0,.112-.538A.355.355,0,0,0,8.291,16.011Z" fill="#464646"/>
        <path id="rect989-8-7-6-2-6-5" d="M8.336,16H16.1a.374.374,0,0,1,.36.388v.056a.373.373,0,0,1-.36.387H8.336a.373.373,0,0,1-.359-.387v-.056A.373.373,0,0,1,8.336,16Z" fill="#464646"/>
      </g>
    </g>
    <g id="g985-5-3-8-6">
      <path id="rect1440-9-0-9-8-2" d="M7.58,20.289h4.65a.033.033,0,0,1,.031.034v3.022a.033.033,0,0,1-.031.035H7.58a.034.034,0,0,1-.032-.035V20.323A.033.033,0,0,1,7.58,20.289Z" fill="#979797" stroke="#464646" stroke-linecap="round" stroke-miterlimit="10" stroke-width="0.874"/>
      <path id="rect1442-9-38-4-9-7" d="M7.585,26.856H12.2a.027.027,0,0,1,.026.028v7.381a.026.026,0,0,1-.026.028H7.585a.027.027,0,0,1-.026-.028V26.884A.028.028,0,0,1,7.585,26.856Z" fill="#979797" stroke="#464646" stroke-linecap="round" stroke-miterlimit="10" stroke-width="0.874"/>
    </g>
  </g>
</svg>
