<svg id="Image" xmlns="http://www.w3.org/2000/svg" xmlns:xlink="http://www.w3.org/1999/xlink" viewBox="0 0 48 48">
  <defs>
    <linearGradient id="linear-gradient" x1="24.837" y1="48.653" x2="28.252" y2="46.344" gradientTransform="matrix(1, 0, 0, -1, -8.5, 48)" gradientUnits="userSpaceOnUse">
      <stop offset="0" stop-color="#fff"/>
      <stop offset="1" stop-color="#dcdcdc"/>
    </linearGradient>
    <linearGradient id="linear-gradient-2" x1="23.687" y1="34.081" x2="41.793" y2="1.124" gradientTransform="matrix(1, 0, 0, -1, -8.5, 48)" gradientUnits="userSpaceOnUse">
      <stop offset="0" stop-color="#f2f2f2"/>
      <stop offset="1" stop-color="#999"/>
    </linearGradient>
    <linearGradient id="linear-gradient-3" x1="24" y1="40" x2="28" y2="36" xlink:href="#linear-gradient"/>
    <linearGradient id="linear-gradient-4" x1="31" y1="40" x2="35" y2="36" xlink:href="#linear-gradient"/>
    <linearGradient id="linear-gradient-5" x1="24" y1="33.333" x2="28" y2="29.333" xlink:href="#linear-gradient"/>
    <linearGradient id="linear-gradient-6" x1="31" y1="33.333" x2="35" y2="29.333" xlink:href="#linear-gradient"/>
    <linearGradient id="linear-gradient-7" x1="24" y1="26.667" x2="28" y2="22.667" xlink:href="#linear-gradient"/>
    <linearGradient id="linear-gradient-8" x1="31" y1="26.667" x2="35" y2="22.667" xlink:href="#linear-gradient"/>
    <linearGradient id="linear-gradient-9" x1="24" y1="20" x2="28" y2="16" xlink:href="#linear-gradient"/>
    <linearGradient id="linear-gradient-10" x1="31" y1="20" x2="35" y2="16" xlink:href="#linear-gradient"/>
    <linearGradient id="linear-gradient-11" x1="26.5" y1="10" x2="32.5" y2="4" xlink:href="#linear-gradient"/>
    <linearGradient id="linear-gradient-12" x1="27.015" y1="22.985" x2="43.985" y2="6.015" gradientTransform="matrix(1, 0, 0, -1, 0, 50)" gradientUnits="userSpaceOnUse">
      <stop offset="0" stop-color="#73b4c8"/>
      <stop offset="0.175" stop-color="#6aaec3"/>
      <stop offset="0.457" stop-color="#529eb5"/>
      <stop offset="0.809" stop-color="#2c839f"/>
      <stop offset="1" stop-color="#147391"/>
    </linearGradient>
  </defs>
  <g id="g947">
    <g id="g42">
      <path id="rect38" d="M14.5.5h13v4h-13Z" fill="url(#linear-gradient)"/>
      <path id="path40" d="M27,1V4H15V1H27m1-1H14V5H28Z" fill="#177491"/>
    </g>
    <g id="g60">
      <path id="rect56" d="M11.5,4.5h19v40h-19Z" fill="url(#linear-gradient-2)"/>
      <path id="path58" d="M30,5V44H12V5H30m1-1H11V45H31Z" fill="#177491"/>
    </g>
    <g id="g66">
      <path id="rect62" d="M15,8.5h5v3H15Z" fill="url(#linear-gradient-3)"/>
      <path id="path64" d="M19.5,9v2h-4V9h4m1-1h-6v4h6Z" fill="#4e4a48"/>
    </g>
    <g id="g90">
      <path id="rect86" d="M22,8.5h5v3H22Z" fill="url(#linear-gradient-4)"/>
      <path id="path88" d="M26.5,9v2h-4V9h4m1-1h-6v4h6Z" fill="#4e4a48"/>
    </g>
    <g id="g96">
      <path id="rect92" d="M15,15.167h5v3H15Z" fill="url(#linear-gradient-5)"/>
      <path id="path94" d="M19.5,15.667v2h-4v-2h4m1-1h-6v4h6Z" fill="#4e4a48"/>
    </g>
    <g id="g102">
      <path id="rect98" d="M22,15.167h5v3H22Z" fill="url(#linear-gradient-6)"/>
      <path id="path100" d="M26.5,15.667v2h-4v-2h4m1-1h-6v4h6Z" fill="#4e4a48"/>
    </g>
    <g id="g108">
      <path id="rect104" d="M15,21.833h5v3H15Z" fill="url(#linear-gradient-7)"/>
      <path id="path106" d="M19.5,22.333v2h-4v-2h4m1-1h-6v4h6Z" fill="#4e4a48"/>
    </g>
    <g id="g114">
      <path id="rect110" d="M22,21.833h5v3H22Z" fill="url(#linear-gradient-8)"/>
      <path id="path112" d="M26.5,22.333v2h-4v-2h4m1-1h-6v4h6Z" fill="#4e4a48"/>
    </g>
    <g id="g120">
      <path id="rect116" d="M15,28.5h5v3H15Z" fill="url(#linear-gradient-9)"/>
      <path id="path118" d="M19.5,29v2h-4V29h4m1-1h-6v4h6Z" fill="#4e4a48"/>
    </g>
    <g id="g126">
      <path id="rect122" d="M22,28.5h5v3H22Z" fill="url(#linear-gradient-10)"/>
      <path id="path124" d="M26.5,29v2h-4V29h4m1-1h-6v4h6Z" fill="#4e4a48"/>
    </g>
    <g id="g132">
      <path id="rect128" d="M18.5,37.5h5v7h-5Z" fill="url(#linear-gradient-11)"/>
      <path id="path130" d="M23,38v6H19V38h4m1-1H18v8h6Z" fill="#4e4a48"/>
    </g>
    <path id="line52" d="M36,34V26" fill="none" stroke="#147391" stroke-miterlimit="10" stroke-width="0.905"/>
    <path id="circle66" d="M47.5,35.5a12,12,0,1,1-12-12A12,12,0,0,1,47.5,35.5Z" stroke="#464646" stroke-linecap="round" stroke-linejoin="round" fill="url(#linear-gradient-12)"/>
    <path id="path68" d="M31.9,39.742a6.354,6.354,0,0,0,3.68,1.526,3.06,3.06,0,0,0,3.239-2.842c0-1.567-1.555-2.339-3.25-2.83-1.756-.547-3.247-1.264-3.249-2.831a3.061,3.061,0,0,1,3.239-2.843,3.348,3.348,0,0,1,2.821,1.425" fill="none" stroke="#147391" stroke-linecap="round" stroke-linejoin="round" stroke-width="4"/>
    <path id="line70" d="M35.5,26v4" fill="none" stroke="#147391" stroke-linejoin="round" stroke-width="3"/>
    <path id="line72" d="M35.5,41v4" fill="none" stroke="#147391" stroke-linejoin="round" stroke-width="3"/>
    <path id="path74" d="M31.9,39.742a6.354,6.354,0,0,0,3.68,1.526,3.06,3.06,0,0,0,3.239-2.842c0-1.567-1.555-2.339-3.25-2.83-1.756-.547-3.247-1.264-3.249-2.831a3.061,3.061,0,0,1,3.239-2.843,3.348,3.348,0,0,1,2.821,1.425" fill="none" stroke="#fff" stroke-linecap="round" stroke-linejoin="round" stroke-width="2"/>
    <path id="line76" d="M35.5,27v3" fill="none" stroke="#fff" stroke-linejoin="round"/>
    <path id="line78" d="M35.5,41v3" fill="none" stroke="#fff" stroke-linejoin="round"/>
  </g>
</svg>
