<svg id="Livello_3" data-name="Livello 3" xmlns="http://www.w3.org/2000/svg" xmlns:xlink="http://www.w3.org/1999/xlink" viewBox="0 0 48 48">
  <defs>
    <linearGradient id="linear-gradient" x1="141.582" y1="928.123" x2="150.583" y2="928.123" gradientTransform="translate(-184.52 -1252.755) scale(1.33 1.363)" gradientUnits="userSpaceOnUse">
      <stop offset="0" stop-color="#74b5c8"/>
      <stop offset="0.175" stop-color="#6baec3"/>
      <stop offset="0.457" stop-color="#539eb5"/>
      <stop offset="0.809" stop-color="#2f849f"/>
      <stop offset="1" stop-color="#187491"/>
    </linearGradient>
    <linearGradient id="linear-gradient-2" x1="8.661" y1="34.718" x2="25.913" y2="25.709" gradientTransform="matrix(1.03, 0, 0, -1.029, 7.631, 61.254)" gradientUnits="userSpaceOnUse">
      <stop offset="0" stop-color="#fff"/>
      <stop offset="0.221" stop-color="#f7f8f8"/>
      <stop offset="0.541" stop-color="#e5e5e5"/>
      <stop offset="0.92" stop-color="#c7c6c6"/>
      <stop offset="1" stop-color="#bfbebe"/>
    </linearGradient>
  </defs>
  <g id="g4562">
    <path id="path1610" d="M9.682,17.619c.062,3.531.122,7.063,1.3,8.9s3.456,1.989,5.457-.8,3.74-8.566,5.217-12.407,2.7-5.774,4.088-6.561,2.942-.43,4.075,1.487a19.739,19.739,0,0,1,1.872,4.341A78.242,78.242,0,0,1,34.322,25.4" fill="none" stroke="#474747"/>
    <path id="path1614" d="M6.178,2.766a.543.543,0,0,0-.5.58v4.34a.7.7,0,0,0,.014.08H2.146a.462.462,0,0,0-.462.463V8.3a.462.462,0,0,0,.462.463h.572l0,0v4.819h.008c.919,2.491,3.759,4.159,6.983,4.159s6.08-1.662,6.992-4.159V8.766h.5a.463.463,0,0,0,.463-.463V8.229a.463.463,0,0,0-.463-.463H13.655a.535.535,0,0,0,.014-.08V3.346a.5.5,0,1,0-1,0v4.34a.535.535,0,0,0,.014.08H6.665a.7.7,0,0,0,.014-.08V3.346A.543.543,0,0,0,6.178,2.766Z" fill="#474747" stroke="#6f6f6f" stroke-width="0.019"/>
    <path id="path1614-9" d="M3.738,8.737l-.02,4.776c.806,2.255,3.254,3.232,5.993,3.233S14.9,15.782,15.7,13.53V8.736Z" fill="url(#linear-gradient)"/>
    <path id="path847" d="M25.843,37.592l-.777-.013-.059,0v-.984l.8.008c.44,0,.915.012,1.054.017l.254.009v.981l-.277,0-1-.013Z" fill="none" stroke="#f646f2" stroke-width="0"/>
    <path id="path849" d="M25.843,37.592l-.777-.013-.059,0v-.984l.8.008c.44,0,.915.012,1.054.017l.254.009v.981l-.277,0-1-.013Z" fill="none" stroke="#f646f2" stroke-width="0"/>
    <path id="path902" d="M23.467,44.488a15.778,15.778,0,0,1-2.549-2.34c.036-.043.5-.466.853-.75l1.118-1,1.137,1.262c.655.727.944.654.965.654a7.572,7.572,0,0,0,.142-2.287l-.215-3.15-1.478-.05a11.178,11.178,0,0,1-2.286-.342,4.327,4.327,0,0,1-2-1.165,6.091,6.091,0,0,1-1.748-2.859,4.01,4.01,0,0,1-.174-1.537,5.3,5.3,0,0,1,.353-2.28A6.975,6.975,0,0,1,19.6,25.95a4.668,4.668,0,0,0,.718-.724,5.278,5.278,0,0,0,.229-.914A15.171,15.171,0,0,1,21,22.61a8.063,8.063,0,0,1,2.267-3.6A6.259,6.259,0,0,1,27.5,17.083a6.539,6.539,0,0,1,3.486.789,7.562,7.562,0,0,1,1.757,1.14l.514.429h1.16a5.117,5.117,0,0,1,2.454.378,6.224,6.224,0,0,1,3.218,4.212c.09.322.177.634.194.693.028.093.2.109,1.462.134a5.171,5.171,0,0,1,1.812.167,6.007,6.007,0,0,1,3.58,3.789,4.227,4.227,0,0,1,.24,1.688,5.08,5.08,0,0,1-.367,2.477,5.57,5.57,0,0,1-3.674,3.437,13.633,13.633,0,0,1-3.01.258h-1.4l-.2-2.144c-.123-1.328.028-1.623.092-1.574a6.468,6.468,0,0,1,1.379.594c.362.293.552.3.6.279.1-.04,2.432-2.171,2.458-2.235.015-.038-6.446-5.263-6.554-5.3-.061-.022-6.458,5.352-6.474,5.44.4.147,2.57,2.14,2.748,2.208a5.269,5.269,0,0,0,.8-.639l1.018-.5.144,2.244-.21,1.713-3.6-.024-3.272.208.039,3.226a14.019,14.019,0,0,0,.079,1.868c0,.028-.071.177.84-.171L30.368,40.6l.968.713a10.263,10.263,0,0,1,.943.888c0,.061-5.544,4.738-5.614,4.737.427.75-1.5-1.039-2.933-2.25Z" fill="url(#linear-gradient-2)"/>
    <path id="polygon17-0-1-2-48-7" d="M26.525,48.007l-7.006-5.939,3.322-2.723L24.318,40.6l.032-4.067,1.158,0,.015.2V43.2L22.83,40.913,21.4,42.083l5.137,4.354,5.226-4.282-1.4-1.187-2.717,2.226V36.725l.031-.2,1.174.1v4.024l1.523-1.25,3.27,2.771Z" fill="#464646"/>
    <path id="path877" d="M25,37.134c-1.563-.023-2.531-.1-2.883-.134l.163.172L22.109,37a4.431,4.431,0,0,1-2.315-.775A7.839,7.839,0,0,1,17.9,34.213a7.783,7.783,0,0,1-.833-2.391,8.573,8.573,0,0,1,.119-2.506,6.814,6.814,0,0,1,2.4-3.619,2.194,2.194,0,0,0,.576-.586c.017-.084.07-.411.119-.726a13.1,13.1,0,0,1,.8-2.618,8.624,8.624,0,0,1,4.329-4.334,6.882,6.882,0,0,1,4.351-.2,9.969,9.969,0,0,1,3,1.57l.531.458h1.1A4.984,4.984,0,0,1,37.871,20.3a6.994,6.994,0,0,1,2.386,3.765l.129.477h1.137a4.389,4.389,0,0,1,1.718.189,6.318,6.318,0,0,1,3.979,4.359,8.451,8.451,0,0,1,.039,3.231,6.033,6.033,0,0,1-4.987,4.675c-.427.144-8.748.173-14.595.126" fill="none" stroke="#464646" stroke-width="1.2"/>
    <path id="polygon17-0-1-2-48" d="M36.718,25.838l-7.005,5.939L33.035,34.5l1.476-1.252v4.367l1.2,0V30.648l-2.693,2.284L31.6,31.762l5.137-4.354,5.227,4.281-1.4,1.188L37.841,30.65v6.969l1.206,0V33.2l1.523,1.25,3.27-2.771Z" fill="#464646"/>
    <path id="path879" d="M35.727,34.079l-.007-3.445-1.3,1.1c-.714.6-1.32,1.12-1.348,1.145-.045.04-.125-.017-.743-.525a8.383,8.383,0,0,1-.684-.594c.011-.03,5.061-4.318,5.086-4.318s5.173,4.23,5.173,4.255-1.237,1.09-1.324,1.144c-.018.011-.641-.48-1.386-1.092l-1.352-1.111-.008,3.443.007,3.65-1.038.008-1.047.018Z" fill="#fff" stroke="#fff" stroke-width="0.2"/>
  </g>
</svg>
