<svg id="Layer_1" data-name="Layer 1" xmlns="http://www.w3.org/2000/svg" xmlns:xlink="http://www.w3.org/1999/xlink" viewBox="0 0 48 48">
  <defs>
    <linearGradient id="linear-gradient" x1="-123.979" y1="72.756" x2="-104.384" y2="62.852" gradientTransform="matrix(1.86, 0, 0, -1.212, 239.221, 119.257)" gradientUnits="userSpaceOnUse">
      <stop offset="0" stop-color="#73b4c8"/>
      <stop offset="0.175" stop-color="#6aaec3"/>
      <stop offset="0.457" stop-color="#529eb5"/>
      <stop offset="0.809" stop-color="#2c839f"/>
      <stop offset="1" stop-color="#147391"/>
    </linearGradient>
    <linearGradient id="linear-gradient-3" x1="-128.63" y1="158.155" x2="-114.243" y2="148.406" gradientTransform="matrix(1.86, 0, 0, -1.664, 241.779, 281.767)" gradientUnits="userSpaceOnUse">
      <stop offset="0" stop-color="#cee6eb"/>
      <stop offset="0.221" stop-color="#c6e2e8"/>
      <stop offset="0.542" stop-color="#b3d8e1"/>
      <stop offset="0.921" stop-color="#93c7d4"/>
      <stop offset="1" stop-color="#8dc3d2"/>
    </linearGradient>
    <linearGradient id="linear-gradient-5" x1="3283.669" y1="1551.811" x2="3330.827" y2="1596.287" gradientTransform="matrix(0, 0.124, 0.409, 0, -624.769, -372.21)" gradientUnits="userSpaceOnUse">
      <stop offset="0" stop-color="#f2f2f2"/>
      <stop offset="0.217" stop-color="#eee"/>
      <stop offset="0.425" stop-color="#e3e3e3"/>
      <stop offset="0.628" stop-color="#cfcfcf"/>
      <stop offset="0.828" stop-color="#b5b5b5"/>
      <stop offset="0.99" stop-color="#999"/>
    </linearGradient>
    <linearGradient id="linear-gradient-6" x1="11.88" y1="29.758" x2="21.836" y2="24.632" gradientTransform="matrix(1, 0, 0, -1, 3.266, 50)" xlink:href="#linear-gradient-5"/>
    <linearGradient id="linear-gradient-7" x1="41.117" y1="42.661" x2="6.721" y2="47.258" gradientTransform="matrix(1, 0, 0, -1, 2.9, 50.278)" gradientUnits="userSpaceOnUse">
      <stop offset="0" stop-color="#464646"/>
      <stop offset="1" stop-color="#464646" stop-opacity="0"/>
    </linearGradient>
    <linearGradient id="linear-gradient-8" x1="8925.283" y1="6503.89" x2="8965.986" y2="6540.959" gradientTransform="matrix(0, 0.043, 0.05, 0, -291.927, -347.61)" xlink:href="#linear-gradient"/>
    <linearGradient id="linear-gradient-9" x1="8925.283" y1="6503.89" x2="8965.986" y2="6540.959" gradientTransform="matrix(0, 0.043, 0.05, 0, -287.818, -347.632)" xlink:href="#linear-gradient"/>
    <linearGradient id="linear-gradient-10" x1="3.447" y1="30.549" x2="41.189" y2="30.549" gradientTransform="matrix(1, 0, 0, -1, 2.287, 49.88)" xlink:href="#linear-gradient-5"/>
  </defs>
  <g id="g969">
    <path id="path908" d="M5.375,32.25V6.625L13.75,2.5H35l8.313,4.063L43.25,32.438Z" fill="#fff"/>
    <path id="path1183-5-9" d="M9.206,45a5.671,5.671,0,0,1-3.98-2.069c-.444-.708-.419-1.644.08-2.99.863-2.33,4.093-10.6,4.327-11.074A5.386,5.386,0,0,1,12.4,26.239c.657-.246.789-.257,3.694-.326,1.658-.039,6.648-.045,11.089-.013,8.031.058,8.079.059,8.693.277A5.64,5.64,0,0,1,38.7,28.722c.3.559,4.518,11.515,4.76,12.355.434,1.507-.81,2.975-3.175,3.746l-.691.225-14.765.014C16.708,45.069,9.678,45.041,9.206,45Z" stroke-miterlimit="10" stroke-width="0.516" fill="url(#linear-gradient)" stroke="url(#linear-gradient)"/>
    <path id="path1098-5-0-9-7-4-5" d="M24.4,25.266l0,1.045c-2.871,0-5.379,0-7.221.01-.921.006-1.675.014-2.224.023s-.973.032-.93.028a4.832,4.832,0,0,0-3.363,1.719,8.318,8.318,0,0,0-1.579,2.9c-.3.753-1.341,3.229-2.32,5.529-.82,1.927-1.265,2.986-1.5,3.633a2.967,2.967,0,0,0-.257,1.185A1.465,1.465,0,0,0,5.3,42.481a6.311,6.311,0,0,0,4.055,2.066c-.051-.006.164.009.428.016s.628.011,1.073.017c.89.011,2.11.021,3.548.029,2.877.015,6.63.021,10.393.021v1.046c-3.766,0-7.52-.007-10.4-.022-1.442-.007-2.665-.017-3.564-.029-.449-.005-.817-.011-1.094-.018s-.411-.006-.6-.027a7.279,7.279,0,0,1-5.109-2.652,2.551,2.551,0,0,1-.426-1.6,4.023,4.023,0,0,1,.3-1.447c.248-.692.694-1.751,1.515-3.68.977-2.3,2.023-4.788,2.314-5.513a9.519,9.519,0,0,1,1.742-3.163,6.512,6.512,0,0,1,4.331-2.19c.268-.031.551-.029,1.112-.039s1.32-.018,2.245-.024c1.85-.012,4.361-.016,7.236-.01Z" fill="#464646" stroke="#464646" stroke-miterlimit="10" stroke-width="0.17"/>
    <path id="path1098-5-0-9-7-4" d="M24.192,25.267l0,1.045c2.871-.005,5.379,0,7.221.01.921.006,1.675.014,2.224.023s.973.032.93.028a4.832,4.832,0,0,1,3.363,1.719,8.335,8.335,0,0,1,1.579,2.9c.3.753,1.341,3.23,2.32,5.529.82,1.927,1.265,2.986,1.5,3.633a2.967,2.967,0,0,1,.257,1.185,1.469,1.469,0,0,1-.291,1.142,6.311,6.311,0,0,1-4.055,2.066c.051-.006-.164.009-.428.016s-.628.011-1.073.017c-.89.011-2.11.021-3.548.029-2.877.015-6.63.021-10.393.021v1.046c3.766,0,7.52-.007,10.4-.022,1.441-.007,2.665-.017,3.564-.029.449,0,.817-.011,1.094-.018s.411-.006.6-.027a7.279,7.279,0,0,0,5.109-2.652,2.551,2.551,0,0,0,.426-1.6,4.023,4.023,0,0,0-.3-1.447c-.248-.692-.694-1.751-1.515-3.68-.977-2.3-2.023-4.788-2.314-5.513a9.519,9.519,0,0,0-1.742-3.163,6.512,6.512,0,0,0-4.331-2.19c-.268-.031-.551-.029-1.112-.039s-1.32-.018-2.245-.024c-1.85-.012-4.361-.016-7.236-.01Z" fill="#464646" stroke="#464646" stroke-miterlimit="10" stroke-width="0.17"/>
    <path id="path1183-5" d="M9.206,41.511a5.481,5.481,0,0,1-3.98-2.424c-.444-.83-.419-1.927.08-3.5C6.169,32.852,9.4,23.167,9.633,22.607a5.859,5.859,0,0,1,2.764-3.08c.656-.288.788-.3,3.694-.382,1.657-.046,6.648-.053,11.09-.015,8.031.068,8.079.069,8.694.324A6.058,6.058,0,0,1,38.7,22.436c.3.656,4.519,13.494,4.76,14.478.435,1.766-.809,3.486-3.174,4.39l-.692.264-14.766.016c-8.121.008-15.152-.024-15.624-.073Z" stroke-miterlimit="10" stroke-width="0.558" fill="url(#linear-gradient-3)" stroke="url(#linear-gradient-3)"/>
    <path id="path1098-5-0-9-7" d="M24.193,18.388l0,1.225c2.871-.007,5.379,0,7.222.012.921.007,1.674.015,2.224.027s.973.037.931.032A4.648,4.648,0,0,1,37.937,21.7a10.312,10.312,0,0,1,1.578,3.4c.3.882,1.342,3.784,2.321,6.478.82,2.258,1.265,3.5,1.5,4.258a3.991,3.991,0,0,1,.256,1.388A1.933,1.933,0,0,1,43.3,38.56a6.079,6.079,0,0,1-4.055,2.422c.052-.007-.164.01-.428.018s-.628.014-1.073.02c-.89.013-2.11.025-3.548.034-2.877.017-6.63.025-10.394.025V42.3c3.766,0,7.521-.008,10.4-.025,1.442-.009,2.665-.02,3.564-.034.449-.006.818-.014,1.095-.022a5.319,5.319,0,0,0,.595-.032,7.032,7.032,0,0,0,5.11-3.107,3.378,3.378,0,0,0,.426-1.87,5.43,5.43,0,0,0-.3-1.7c-.249-.81-.694-2.051-1.515-4.312-.977-2.69-2.024-5.61-2.315-6.459a11.759,11.759,0,0,0-1.742-3.707,6.246,6.246,0,0,0-4.331-2.566,11.006,11.006,0,0,0-1.112-.046c-.561-.011-1.32-.021-2.245-.028-1.85-.014-4.361-.019-7.237-.012Z" fill="#464646"/>
    <path id="rect41-2" d="M29.592,34l.309,6-20.066.044.486-6Z" stroke="#464646" stroke-linejoin="round" stroke-width="0.9" fill="url(#linear-gradient-5)"/>
    <path id="rect1053-7" d="M3.928,36.593h.2a.4.4,0,0,1,.4.4v3.984a.4.4,0,0,1-.4.4h-.2a.4.4,0,0,1-.4-.4V36.992A.4.4,0,0,1,3.928,36.593Z" fill="#464646"/>
    <path id="path1051-1" d="M33.215,26.168c0,2.382-4.03,4.313-9,4.313h0c-4.971,0-9-1.931-9-4.313h0c0-2.382,4.029-4.312,9-4.312h0c4.97,0,9,1.93,9,4.312Z" fill="#464646"/>
    <path id="path1051" d="M33.266,24.938c0,2.381-4.029,4.312-9,4.312s-9-1.931-9-4.312h0c0-2.382,4.03-4.313,9-4.313h0c4.971,0,9,1.931,9,4.313Z" fill="url(#linear-gradient-6)"/>
    <path id="rect1269-0-4" d="M34.869,2.178c.367,0,.663.18.663.405V19.14c0,.224-.3.405-.663.405s-.663-.181-.663-.405V2.583C34.206,2.358,34.5,2.178,34.869,2.178Z" fill="#464646"/>
    <path id="rect1269-0-4-9" d="M13.675,1.753a.61.61,0,0,1,.662.544V19.019a.675.675,0,0,1-1.325,0V2.3A.611.611,0,0,1,13.675,1.753Z" fill="#464646"/>
    <path id="path1418" d="M14.656,2.669,6.347,6.382l37.035.8-2.652-2.3-5.3-2.21Z" fill="url(#linear-gradient-7)"/>
    <path id="rect943-4-6" d="M13.82,1.757H34.887a.688.688,0,1,1,0,1.375H13.82a.688.688,0,0,1,0-1.375Z" fill="#464646"/>
    <path id="rect943-4-6-1" d="M35.212,1.842l8.166,4.013a.69.69,0,0,1,.329.915.68.68,0,0,1-.915.329L34.915,3.111a.693.693,0,0,1-.328-.915C34.749,1.852,34.87,1.674,35.212,1.842Z" fill="#464646"/>
    <path id="rect943-4-6-1-5" d="M13.218,1.886,5.189,5.892c-.345.172-.363.493-.2.844a.686.686,0,0,0,.924.335l7.8-3.906a.708.708,0,0,0,.331-.933A.585.585,0,0,0,13.218,1.886Z" fill="#464646"/>
    <path id="rect41-2-3-4" d="M34.666,35.636l.037,2.086-2.45.016.059-2.086Z" stroke="#147391" stroke-linejoin="round" stroke-width="0.559" fill="url(#linear-gradient-8)"/>
    <path id="rect1053-7-4" d="M44.374,36.648l.164,0a.417.417,0,0,1,.429.406l.11,4.177a.416.416,0,0,1-.407.428l-.164,0a.418.418,0,0,1-.429-.407l-.11-4.176A.417.417,0,0,1,44.374,36.648Z" fill="#464646"/>
    <path id="rect41-2-3-4-4" d="M38.775,35.613l.037,2.087-2.45.015.059-2.086Z" stroke="#147391" stroke-linejoin="round" stroke-width="0.559" fill="url(#linear-gradient-9)"/>
    <g id="g1283">
      <path id="path1106-5-7-3-1-8" d="M19.729,38.654l-.129.115-.13-.106-.13-.106-.021-.569-.021-.569.115-.107.115-.108.14.111.139.11.025.557.025.557Z" fill="#464646"/>
      <path id="path1106-5-7-3-8-4-0" d="M21.753,38.567l-.128.115-.13-.105-.13-.106-.021-.569-.021-.569.115-.108.115-.108.139.111.14.111.025.557.025.557Z" fill="#464646"/>
      <path id="path1106-5-7-3-8-1-3-6" d="M21.676,36.769l-.128.115-.13-.106-.131-.1-.02-.569-.021-.57.115-.107.115-.108.139.111.14.111.024.556.025.557Z" fill="#464646"/>
      <path id="path1106-5-7-3-8-1-9-1-5" d="M19.651,36.83l-.128.115-.13-.106-.13-.106-.021-.569-.021-.569.115-.107.115-.108.139.111.14.11.025.557.025.557Z" fill="#464646"/>
      <path id="path1106-5-7-2-2-3" d="M19.77,37.187l-.132-.119.121-.121.121-.121.652-.02.651-.019.123.107L21.43,37l-.127.13-.127.129-.637.024-.638.023Z" fill="#464646"/>
      <path id="path1106-5-7-6-5-1" d="M19.74,35.382l-.126-.12.116-.121.115-.121.622-.02.621-.019.118.107.118.107-.121.13-.121.13-.609.023-.608.023Z" fill="#464646"/>
      <path id="path1106-5-7-2-0-6-9" d="M19.831,39.026l-.135-.119.124-.121.125-.121.672-.02.671-.019.127.107.127.107-.13.13-.131.129-.657.024-.657.023Z" fill="#464646"/>
      <path id="path1106-5-7-3-1-8-8" d="M22.951,38.653l-.128.115-.131-.106-.13-.1-.021-.569-.02-.569.115-.108.115-.108.139.111.139.111.025.556.025.557Z" fill="#464646"/>
      <path id="path1106-5-7-3-8-4-0-4" d="M24.976,38.567l-.129.114-.13-.1-.13-.106-.021-.569-.021-.569.115-.108.115-.107.14.11.139.111.025.557.025.557Z" fill="#464646"/>
      <path id="path1106-5-7-3-8-1-3-6-4" d="M24.9,36.768l-.128.115-.13-.106-.13-.105-.021-.569-.021-.569.115-.108.115-.108.139.111.14.111L25,36.1l.025.556Z" fill="#464646"/>
      <path id="path1106-5-7-3-8-1-9-1-5-6" d="M22.873,36.829l-.128.115-.13-.106-.13-.105-.021-.57-.021-.569.115-.107.115-.108.139.111.14.111.025.556.025.557Z" fill="#464646"/>
      <path id="path1106-5-7-2-2-3-2" d="M22.992,37.187l-.131-.12.121-.121.12-.121.652-.02.651-.019.124.107.123.107-.127.13-.127.13-.637.023-.638.023Z" fill="#464646"/>
      <path id="path1106-5-7-6-5-1-9" d="M22.962,35.381l-.126-.12.116-.121.115-.121L23.689,35l.622-.02.117.107.118.107-.121.13-.121.13-.608.023-.609.023Z" fill="#464646"/>
      <path id="path1106-5-7-2-0-6-9-4" d="M23.053,39.026l-.135-.12.125-.121.124-.121.672-.02.671-.019.127.107.127.107-.13.13-.131.13-.657.023-.657.023Z" fill="#464646"/>
      <path id="path1106-5-7-3-1-8-0" d="M26.138,38.645l-.128.115-.13-.106-.13-.105-.021-.569-.021-.569.115-.108.115-.108.139.111.14.111.025.557.025.556Z" fill="#464646"/>
      <path id="path1106-5-7-3-8-4-0-1" d="M28.163,38.559l-.128.115-.13-.106-.13-.106-.021-.569-.021-.569.115-.108.115-.107.139.111.14.11.024.557.025.557Z" fill="#464646"/>
      <path id="path1106-5-7-3-8-1-3-6-1" d="M28.086,36.76l-.129.115-.13-.1-.13-.106-.021-.569-.021-.569.115-.108.115-.108.14.111.139.111.025.557.025.557Z" fill="#464646"/>
      <path id="path1106-5-7-3-8-1-9-1-5-69" d="M26.061,36.821l-.129.115-.13-.106-.13-.1-.021-.569-.021-.569.115-.108.116-.108.139.111.139.111.025.557.025.556Z" fill="#464646"/>
      <path id="path1106-5-7-2-2-3-8" d="M26.18,37.179l-.132-.12.121-.121.121-.121.651-.02.652-.019.123.107.123.107-.126.13-.127.13-.638.023-.637.023Z" fill="#464646"/>
      <path id="path1106-5-7-6-5-1-8" d="M26.149,35.373l-.125-.12.115-.121.116-.121.621-.019.622-.02.118.107.117.107-.121.13-.121.13-.608.023-.608.023Z" fill="#464646"/>
      <path id="path1106-5-7-2-0-6-9-6" d="M26.241,39.018l-.136-.12.125-.121.125-.121.671-.019.672-.02.127.107.127.107-.131.13-.13.13-.657.023-.658.023Z" fill="#464646"/>
    </g>
    <path id="path1098-5-0-9-7-3" d="M24.318,18.383l0,1.225c-2.872-.007-5.38,0-7.222.012-.921.007-1.675.015-2.224.027s-.973.037-.931.032a4.648,4.648,0,0,0-3.363,2.014A10.312,10.312,0,0,0,9,25.093c-.3.882-1.342,3.784-2.321,6.478-.82,2.259-1.265,3.5-1.5,4.258a4,4,0,0,0-.257,1.388,1.933,1.933,0,0,0,.291,1.338,6.083,6.083,0,0,0,4.055,2.422c-.051-.007.164.01.428.018s.629.014,1.074.02c.89.013,2.109.025,3.548.034,2.877.017,6.63.025,10.394.025V42.3c-3.766,0-7.521-.008-10.4-.025-1.441-.009-2.665-.02-3.563-.034-.45-.006-.818-.014-1.1-.022a5.354,5.354,0,0,1-.6-.032,7.032,7.032,0,0,1-5.109-3.107,3.378,3.378,0,0,1-.426-1.87,5.4,5.4,0,0,1,.3-1.7c.248-.81.694-2.051,1.515-4.312.977-2.69,2.024-5.61,2.314-6.459a11.756,11.756,0,0,1,1.743-3.707,6.244,6.244,0,0,1,4.33-2.566,11.021,11.021,0,0,1,1.112-.046c.561-.011,1.321-.021,2.246-.028,1.85-.014,4.361-.019,7.237-.012Z" fill="#464646"/>
    <path id="rect1376" d="M6.09,6.515H43.12a.355.355,0,0,1,.356.356v24.92a.356.356,0,0,1-.356.356H6.09a.356.356,0,0,1-.356-.356V6.871A.355.355,0,0,1,6.09,6.515Z" opacity="0.4" fill="url(#linear-gradient-10)" style="isolation: isolate"/>
    <path id="rect943-4" d="M5.687,5.823h37.4a.688.688,0,0,1,0,1.375H5.687a.688.688,0,0,1,0-1.375Z" fill="#464646"/>
    <path id="rect943" d="M5.937,31.75H42.491a.355.355,0,0,1,.356.356v.663a.355.355,0,0,1-.356.356H5.937a.356.356,0,0,1-.356-.356v-.663A.356.356,0,0,1,5.937,31.75Z" fill="#464646"/>
    <path id="rect1269" d="M5.432,5.844a.668.668,0,0,1,.663.675V32.743a.663.663,0,1,1-1.326,0V6.519A.668.668,0,0,1,5.432,5.844Z" fill="#464646"/>
    <path id="rect1269-0" d="M42.806,6.051h.614a.355.355,0,0,1,.356.355V32.785a.356.356,0,0,1-.356.356h-.614a.356.356,0,0,1-.356-.356V6.406A.355.355,0,0,1,42.806,6.051Z" fill="#464646"/>
  </g>
</svg>
