<svg id="Layer_1" data-name="Layer 1" xmlns="http://www.w3.org/2000/svg" xmlns:xlink="http://www.w3.org/1999/xlink" viewBox="0 0 48 48">
  <defs>
    <linearGradient id="linear-gradient" x1="-15.379" y1="727.936" x2="18.035" y2="761.352" gradientTransform="translate(20.575 -771.268) scale(1.073 1.073)" gradientUnits="userSpaceOnUse">
      <stop offset="0" stop-color="#fff"/>
      <stop offset="0.221" stop-color="#f8f8f8"/>
      <stop offset="0.541" stop-color="#e5e5e5"/>
      <stop offset="0.92" stop-color="#c6c6c6"/>
      <stop offset="1" stop-color="#bebebe"/>
    </linearGradient>
    <linearGradient id="linear-gradient-2" x1="-11.378" y1="713.108" x2="14.034" y2="738.521" gradientTransform="translate(20.575 -771.268) scale(1.073 1.073)" gradientUnits="userSpaceOnUse">
      <stop offset="0" stop-color="#73b4c8"/>
      <stop offset="0.175" stop-color="#6aaec3"/>
      <stop offset="0.457" stop-color="#529eb5"/>
      <stop offset="0.809" stop-color="#2c839f"/>
      <stop offset="1" stop-color="#147391"/>
    </linearGradient>
    <linearGradient id="linear-gradient-3" x1="31.789" y1="19.063" x2="49.894" y2="31.063" gradientTransform="matrix(0.999, 0, 0, -0.999, -0.19, 49.696)" xlink:href="#linear-gradient-2"/>
    <linearGradient id="linear-gradient-4" x1="0.729" y1="779.849" x2="46.729" y2="779.849" gradientTransform="translate(-0.19 -743.657)" xlink:href="#linear-gradient"/>
  </defs>
  <g id="g883">
    <g id="g854">
      <path id="path13" d="M.537,13.413v27.9a2.144,2.144,0,0,0,2.144,2.146H41.322a2.144,2.144,0,0,0,2.141-2.146v-27.9Z" fill="url(#linear-gradient)"/>
      <path id="path26" d="M43.463,13.413V2.683A2.144,2.144,0,0,0,41.322.537H2.683A2.146,2.146,0,0,0,.537,2.683h0v10.73Z" stroke="#147391" stroke-miterlimit="9.565" stroke-width="1.073" fill="url(#linear-gradient-2)"/>
      <path id="line28" d="M9.122,13.949V42.922" fill="none" stroke="#6e6e6e" stroke-miterlimit="3.826" stroke-width="1.073"/>
      <path id="line30" d="M17.707,13.949V42.922" fill="none" stroke="#6e6e6e" stroke-miterlimit="3.826" stroke-width="1.073"/>
      <path id="circle42" d="M15.561,6.439a1.61,1.61,0,0,1-3.22,0h0a1.61,1.61,0,0,1,1.61-1.61h0a1.609,1.609,0,0,1,1.61,1.608Z" fill="#fff" stroke="#147391" stroke-miterlimit="9.565" stroke-width="1.073"/>
      <path id="circle44" d="M31.661,6.439a1.61,1.61,0,1,1-1.61-1.61h0A1.611,1.611,0,0,1,31.661,6.439Z" fill="#fff" stroke="#147391" stroke-miterlimit="9.565" stroke-width="1.073"/>
      <path id="rect881" d="M.956,20.387H43.044v1.076H.956Z" fill="#6e6e6e"/>
      <path id="rect881-0" d="M.956,28.14H43.044v1.076H.956Z" fill="#6e6e6e"/>
      <path id="rect881-0-4" d="M.956,35.586H43.044v1.076H.956Z" fill="#6e6e6e"/>
      <path id="rect913" d="M25.756,13.946H26.83V43.039H25.756Z" fill="#6e6e6e"/>
      <path id="rect913-6" d="M34.339,13.946h1.073V43.039H34.339Z" fill="#6e6e6e"/>
      <path id="path46" d="M43.463,41.317V2.683A2.144,2.144,0,0,0,41.322.537H2.683A2.144,2.144,0,0,0,.537,2.681V41.317a2.144,2.144,0,0,0,2.144,2.146H41.322A2.144,2.144,0,0,0,43.463,41.317Z" fill="none" stroke="#464646" stroke-miterlimit="9.565" stroke-width="1.073"/>
    </g>
    <path id="path24" d="M34.511,34.511l12.3-4.189A12.983,12.983,0,0,0,27.452,23.61Z" fill="url(#linear-gradient-3)"/>
    <path id="path26-1" d="M34.511,34.511l-7.059-10.9a12.989,12.989,0,1,0,19.355,6.712Z" fill="url(#linear-gradient-4)"/>
    <path id="polyline28" d="M46.806,30.32,34.511,34.511,27.45,23.61" fill="none" stroke="#147391" stroke-width="1.768"/>
    <path id="line32" d="M34.511,21.8v3.39" fill="none" stroke="#147391" stroke-width="0.999"/>
    <path id="line34" d="M34.511,43.828v3.39" fill="none" stroke="#6e6e6e" stroke-width="0.999"/>
    <path id="line36" d="M25.193,34.511H21.8" fill="none" stroke="#6e6e6e" stroke-width="0.999"/>
    <path id="line38" d="M47.219,34.511H43.83" fill="none" stroke="#6e6e6e" stroke-width="0.999"/>
    <path id="circle30" d="M47.5,34.511A12.989,12.989,0,0,1,34.511,47.5h0A12.989,12.989,0,1,1,47.5,34.511Z" fill="none" stroke="#464646" stroke-linecap="round" stroke-linejoin="round" stroke-width="0.999"/>
    <path id="polygon40" d="M41.838,31.042l.73,2.138L34.016,36.1l-6.277-9.734,1.9-1.225,5.322,8.25Z" fill="#fff"/>
    <path id="path887" d="M30.445,31.44c-1.848-2.867-3.354-5.219-3.345-5.227.038-.033,2.369-1.541,2.517-1.627.09-.053.173-.085.184-.073s1.213,1.875,2.675,4.138,2.663,4.124,2.672,4.136,1.57-.509,3.466-1.156,3.467-1.176,3.5-1.176c.052,0,1.07,2.983,1.031,3.022S33.9,36.653,33.85,36.653c-.028,0-1.556-2.342-3.405-5.213Zm9.293,2.205c1.159-.394,2.13-.737,2.158-.762a3.514,3.514,0,0,0-.4-1.207c-.031,0-1.553.514-3.384,1.139a25.558,25.558,0,0,1-3.385,1.077c-.032-.031-1.217-1.859-2.635-4.059s-2.6-4-2.614-4a6.984,6.984,0,0,0-1.044.694c0,.024,1.3,2.061,2.889,4.524l2.887,4.479,1.71-.583Z" fill="#464646"/>
  </g>
</svg>
