<svg id="Image" xmlns="http://www.w3.org/2000/svg" xmlns:xlink="http://www.w3.org/1999/xlink" viewBox="0 0 48 48">
  <defs>
    <linearGradient id="linear-gradient" x1="38.882" y1="32.355" x2="43.188" y2="29.101" gradientTransform="matrix(1, 0, 0, -1, 0.239, 50.342)" gradientUnits="userSpaceOnUse">
      <stop offset="0" stop-color="#7fb8cd"/>
      <stop offset="0.175" stop-color="#72b0c8"/>
      <stop offset="0.457" stop-color="#559eb8"/>
      <stop offset="0.809" stop-color="#2982a1"/>
      <stop offset="1" stop-color="#0e7191"/>
    </linearGradient>
    <linearGradient id="linear-gradient-2" x1="34.706" y1="24.408" x2="42.496" y2="12.738" gradientTransform="matrix(1, 0, 0, -1, 0.03, 50)" gradientUnits="userSpaceOnUse">
      <stop offset="0" stop-color="#fff"/>
      <stop offset="1" stop-color="#dcdcdc"/>
    </linearGradient>
    <linearGradient id="linear-gradient-3" x1="9.1" y1="18.325" x2="12.356" y2="15.371" gradientTransform="matrix(1, 0, 0, -1, 2.3, 50)" xlink:href="#linear-gradient"/>
    <linearGradient id="linear-gradient-4" x1="2.782" y1="42.333" x2="10.326" y2="31.401" gradientTransform="matrix(1, 0, 0, -1, 2.105, 51.3)" xlink:href="#linear-gradient-2"/>
    <linearGradient id="linear-gradient-5" x1="95.5" y1="-43" x2="104" y2="-51.5" gradientTransform="matrix(0.8, 0, 0, -0.8, -55.8, -29.8)" xlink:href="#linear-gradient"/>
    <linearGradient id="linear-gradient-6" x1="85" y1="-54.5" x2="114.5" y2="-84" gradientTransform="matrix(0.8, 0, 0, -0.8, -55.8, -29.8)" xlink:href="#linear-gradient"/>
    <linearGradient id="linear-gradient-7" x1="94.25" y1="-52.75" x2="98.25" y2="-56.75" gradientTransform="matrix(0.8, 0, 0, -0.8, -55.8, -29.8)" xlink:href="#linear-gradient-2"/>
    <linearGradient id="linear-gradient-8" x1="101.25" y1="-52.75" x2="105.25" y2="-56.75" gradientTransform="matrix(0.8, 0, 0, -0.8, -55.8, -29.8)" xlink:href="#linear-gradient-2"/>
    <linearGradient id="linear-gradient-9" x1="94.25" y1="-59.417" x2="98.25" y2="-63.417" gradientTransform="matrix(0.8, 0, 0, -0.8, -55.8, -29.8)" xlink:href="#linear-gradient-2"/>
    <linearGradient id="linear-gradient-10" x1="101.25" y1="-59.417" x2="105.25" y2="-63.417" gradientTransform="matrix(0.8, 0, 0, -0.8, -55.8, -29.8)" xlink:href="#linear-gradient-2"/>
    <linearGradient id="linear-gradient-11" x1="94.25" y1="-66.083" x2="98.25" y2="-70.083" gradientTransform="matrix(0.8, 0, 0, -0.8, -55.8, -29.8)" xlink:href="#linear-gradient-2"/>
    <linearGradient id="linear-gradient-12" x1="101.25" y1="-66.083" x2="105.25" y2="-70.083" gradientTransform="matrix(0.8, 0, 0, -0.8, -55.8, -29.8)" xlink:href="#linear-gradient-2"/>
    <linearGradient id="linear-gradient-13" x1="94.25" y1="-72.75" x2="98.25" y2="-76.75" gradientTransform="matrix(0.8, 0, 0, -0.8, -55.8, -29.8)" xlink:href="#linear-gradient-2"/>
    <linearGradient id="linear-gradient-14" x1="101.25" y1="-72.75" x2="105.25" y2="-76.75" gradientTransform="matrix(0.8, 0, 0, -0.8, -55.8, -29.8)" xlink:href="#linear-gradient-2"/>
    <linearGradient id="linear-gradient-15" x1="96.75" y1="-82.75" x2="102.75" y2="-88.75" gradientTransform="matrix(0.8, 0, 0, -0.8, -55.8, -29.8)" xlink:href="#linear-gradient-2"/>
    <linearGradient id="linear-gradient-16" x1="-58.546" y1="95.65" x2="-50.131" y2="90.523" gradientTransform="matrix(1.158, 0, 0, -1.146, 70.075, 110.761)" gradientUnits="userSpaceOnUse">
      <stop offset="0" stop-color="#f2f2f2"/>
      <stop offset="1" stop-color="#999"/>
    </linearGradient>
    <linearGradient id="linear-gradient-17" x1="-58.668" y1="95.772" x2="-50.049" y2="90.424" gradientTransform="matrix(1.158, 0, 0, -1.146, 70.075, 146.761)" xlink:href="#linear-gradient-16"/>
    <linearGradient id="linear-gradient-18" x1="-59.172" y1="96.891" x2="-50.636" y2="91.656" gradientTransform="matrix(1.161, 0, 0, -1.15, 104.745, 116.433)" xlink:href="#linear-gradient-16"/>
    <linearGradient id="linear-gradient-19" x1="-59.322" y1="97.097" x2="-50.624" y2="91.537" gradientTransform="matrix(1.161, 0, 0, -1.15, 104.675, 151.433)" xlink:href="#linear-gradient-16"/>
  </defs>
  <g id="g955">
    <path id="path1192" d="M33.384,19.715l.076-.563,1.6-.047c.735-.018,1.736,0,2.231,0s1.234.024,1.382-.007a1.931,1.931,0,0,0,1.445-1.115,1.811,1.811,0,0,0,.226-.9c.023-.3.056-.93.058-1.364l.066-.52-.853.877-.967.9-.557-.433-.342-.6,1.639-1.589,1.665-1.639L42.772,14.4,44.4,16.1l-.443.5-.545.395-.934-.971-.692-.754.008,1.186a3.228,3.228,0,0,1-.4,2.115,3.9,3.9,0,0,1-2.106,1.8,9.241,9.241,0,0,1-2.444.164c-.979.021-2.174.035-2.541-.02l-.889-.111Z" fill="url(#linear-gradient)"/>
    <path id="path1196" d="M40.379,38.368c-.189.117-.158-1.573-.17-3.432-.022-3.263-.014-3.368-.117-3.69-.215-.672-1.552-1.088-1.51-1.4a6.88,6.88,0,0,0-1.368-.047c-.7-.02-.887-.044-.637.087.361.188.07.179.559.669l.929.943-.5.494-.51.393-1.639-1.665L33.73,29l1.69-1.666c.859-.847,1.612-1.6,1.641-1.6a1.78,1.78,0,0,1,.469.382l.5.56-1,1a3.527,3.527,0,0,0-.647.78,4.839,4.839,0,0,1,.852-.037,12.6,12.6,0,0,1,1.589.1,3.838,3.838,0,0,1,2.359,1.858c.331.671.3.793.326,3.528a28.506,28.506,0,0,1,.078,3.483l.017,1.182-.693-.012c-.377-.007-.52-.146-.535-.191Z" fill="url(#linear-gradient-2)"/>
    <path id="path1190" d="M5.606,33.551l-1.6-1.83.354-.434.545-.344,1.1.869.552.755.02-1.059A7.107,7.107,0,0,1,6.8,29.844a3.572,3.572,0,0,1,1.856-2.151c.679-.328.856-.144,3.47-.222l2.492-.048.064.75-.089.635-2.428.051c-2.465.051-2.509-.032-2.986.227A2.05,2.05,0,0,0,8.3,30a1.536,1.536,0,0,0-.27.853c-.023.316-.018.8-.019,1.222l.048.495.636-.762,1.069-.915.507.407.418.5L8.922,33.665,7.3,35.127Z" fill="url(#linear-gradient-3)"/>
    <path id="path1194" d="M10.443,20.841l-.392-.357,1.054-1.093.676-.634-.243-.034c-.133-.018-.357-.01-.854-.013a4.11,4.11,0,0,1-2.1-.41,3.715,3.715,0,0,1-1.666-1.641c-.335-.694-.45-.863-.343-4.64L6.534,8.536,7.2,8.473l.72.089.009,2.046c0,1.028.021,2.452.021,3.257,0,1.665.041,1.9.337,2.4a1.407,1.407,0,0,0,.588.634c.522.335.6.388,1.96.426a2,2,0,0,1,.748.092c.013-.011.061-.142-.432-.653l-1.09-1.13.406-.419.572-.571,1.767,1.753,1.614,1.678-1.6,1.729a15.69,15.69,0,0,1-1.743,1.614c-.015,0-.294-.293-.5-.5Z" fill="url(#linear-gradient-4)"/>
    <path id="rect38" d="M18.8,6.4H29.2V9.6H18.8Z" fill="url(#linear-gradient-5)"/>
    <path id="path40" d="M28.8,6.8V9.2H19.2V6.8h9.6m.8-.8H18.4v4H29.6Z" fill="#177491"/>
    <path id="rect56" d="M16.4,9.6H31.6v32H16.4Z" fill="url(#linear-gradient-6)"/>
    <path id="path58" d="M31.2,10V41.2H16.8V10H31.2m.8-.8H16V42H32Z" fill="#177491"/>
    <path id="rect62" d="M19.2,12.8h4v2.4h-4Z" fill="url(#linear-gradient-7)"/>
    <path id="path64" d="M22.8,13.2v1.6H19.6V13.2h3.2m.8-.8H18.8v3.2h4.8Z" fill="#4e4a48"/>
    <path id="rect86" d="M24.8,12.8h4v2.4h-4Z" fill="url(#linear-gradient-8)"/>
    <path id="path88" d="M28.4,13.2v1.6H25.2V13.2h3.2m.8-.8H24.4v3.2h4.8Z" fill="#4e4a48"/>
    <path id="rect92" d="M19.2,18.134h4v2.4h-4Z" fill="url(#linear-gradient-9)"/>
    <path id="path94" d="M22.8,18.534v1.6H19.6v-1.6h3.2m.8-.8H18.8v3.2h4.8Z" fill="#4e4a48"/>
    <path id="rect98" d="M24.8,18.134h4v2.4h-4Z" fill="url(#linear-gradient-10)"/>
    <path id="path100" d="M28.4,18.534v1.6H25.2v-1.6h3.2m.8-.8H24.4v3.2h4.8Z" fill="#4e4a48"/>
    <path id="rect104" d="M19.2,23.466h4v2.4h-4Z" fill="url(#linear-gradient-11)"/>
    <path id="path106" d="M22.8,23.866v1.6H19.6v-1.6h3.2m.8-.8H18.8v3.2h4.8Z" fill="#4e4a48"/>
    <path id="rect110" d="M24.8,23.466h4v2.4h-4Z" fill="url(#linear-gradient-12)"/>
    <path id="path112" d="M28.4,23.866v1.6H25.2v-1.6h3.2m.8-.8H24.4v3.2h4.8Z" fill="#4e4a48"/>
    <path id="rect116" d="M19.2,28.8h4v2.4h-4Z" fill="url(#linear-gradient-13)"/>
    <path id="path118" d="M22.8,29.2v1.6H19.6V29.2h3.2m.8-.8H18.8v3.2h4.8Z" fill="#4e4a48"/>
    <path id="rect122" d="M24.8,28.8h4v2.4h-4Z" fill="url(#linear-gradient-14)"/>
    <path id="path124" d="M28.4,29.2v1.6H25.2V29.2h3.2m.8-.8H24.4v3.2h4.8Z" fill="#4e4a48"/>
    <path id="rect128" d="M22,36h4v5.6H22Z" fill="url(#linear-gradient-15)"/>
    <path id="path130" d="M25.6,36.4v4.8H22.4V36.4h3.2m.8-.8H21.6V42h4.8Z" fill="#4e4a48"/>
    <path id="rect1032-2" d="M3.835,1.494h6.33a1.338,1.338,0,0,1,1.341,1.341v2.33a1.338,1.338,0,0,1-1.341,1.341H3.835A1.338,1.338,0,0,1,2.494,5.165V2.835A1.338,1.338,0,0,1,3.835,1.494Z" stroke="#177491" stroke-width="0.989" fill="url(#linear-gradient-16)"/>
    <path id="rect1032-2-8" d="M3.835,37.494h6.33a1.338,1.338,0,0,1,1.341,1.341v2.33a1.338,1.338,0,0,1-1.341,1.341H3.835a1.338,1.338,0,0,1-1.341-1.341v-2.33A1.338,1.338,0,0,1,3.835,37.494Z" stroke="#177491" stroke-width="0.989" fill="url(#linear-gradient-17)"/>
    <path id="rect1032-2-8-8" d="M37.83,5.485h6.34A1.341,1.341,0,0,1,45.514,6.83V9.17a1.341,1.341,0,0,1-1.344,1.345H37.83A1.342,1.342,0,0,1,36.485,9.17V6.83A1.342,1.342,0,0,1,37.83,5.485Z" stroke="#177491" stroke-width="0.971" fill="url(#linear-gradient-18)"/>
    <path id="rect1032-2-8-4" d="M37.76,40.485H44.1a1.342,1.342,0,0,1,1.345,1.345v2.34A1.342,1.342,0,0,1,44.1,45.515H37.76a1.342,1.342,0,0,1-1.345-1.345V41.83A1.342,1.342,0,0,1,37.76,40.485Z" stroke="#177491" stroke-width="0.971" fill="url(#linear-gradient-19)"/>
    <path id="path45-8" d="M7.774,8.63l.06,6.566a2.258,2.258,0,0,0,2.232,2.232l2.039.04-1.838-1.837.789-.79,3.185,3.185-3.185,3.185-.789-.79,1.838-1.837-2.039-.04A3.375,3.375,0,0,1,6.718,15.2L6.658,8.63H7.775m.557-.558H6.1V8.63L6.16,15.2A4.008,4.008,0,0,0,10.066,19.1l.692.041-.885.886-.394.394.394.394.789.789.394.395.4-.395,3.184-3.184.395-.4-.395-.394-3.184-3.185-.4-.394-.394.394-.789.789-.394.395.394.394.885.885-.692-.04A1.712,1.712,0,0,1,8.392,15.2L8.332,8.63Z" fill="#147391"/>
    <path id="path45-8-6" d="M40.356,38.442l-.06-6.566a2.258,2.258,0,0,0-2.232-2.232l-2.039-.04,1.838,1.837-.789.79-3.185-3.185,3.185-3.185.789.789-1.838,1.838,2.039.04a3.375,3.375,0,0,1,3.348,3.348l.06,6.566H40.355M39.8,39H42.03v-.558l-.06-6.566a4.008,4.008,0,0,0-3.906-3.906l-.692-.041.885-.886.394-.394-.394-.394-.789-.789-.394-.395-.395.395L33.495,28.65l-.395.4.395.394,3.184,3.185.395.394.394-.394.789-.789.394-.395-.394-.394-.885-.885.692.04a1.712,1.712,0,0,1,1.674,1.674l.059,6.566Z" fill="#147391"/>
    <path id="path45-8-6-5" d="M14.5,28.635l-4.365-.043A2.259,2.259,0,0,0,7.9,30.824l-.04,2.039L9.7,31.026l.79.789L7.3,35,4.115,31.815l.79-.789,1.837,1.838.04-2.039a3.375,3.375,0,0,1,3.348-3.348l4.365.042v1.116m.559.558V26.961H14.5l-4.365-.043a4.009,4.009,0,0,0-3.906,3.906l-.041.693L5.3,30.631,4.9,30.237l-.394.394-.789.79-.395.394.4.395L6.9,35.394l.4.4.394-.4,3.185-3.184.394-.395-.394-.394-.789-.79L9.7,30.237l-.394.394-.885.886.04-.692a1.712,1.712,0,0,1,1.674-1.674l4.365.042Z" fill="#147391"/>
    <path id="path45-8-6-5-3" d="M33.584,19.277l4.64-.011a2.258,2.258,0,0,0,2.232-2.232L40.5,15l-1.838,1.838-.789-.789,3.184-3.185,3.185,3.185-.789.789L41.612,15l-.041,2.039a3.374,3.374,0,0,1-3.347,3.348l-4.64.011V19.276m-.558-.558v2.233h.558l4.64-.011a4.009,4.009,0,0,0,3.906-3.906l.041-.692.885.885.394.394.395-.394.789-.789.4-.394-.4-.4-3.185-3.184-.395-.395-.4.395-3.184,3.184-.4.4.4.394.789.789.395.394.394-.394.885-.885-.041.692a1.711,1.711,0,0,1-1.673,1.674l-4.64.01Z" fill="#147391"/>
  </g>
</svg>
