<svg id="Image" xmlns="http://www.w3.org/2000/svg" xmlns:xlink="http://www.w3.org/1999/xlink" viewBox="0 0 48 48">
  <defs>
    <linearGradient id="linear-gradient" x1="7.529" y1="45.171" x2="34.817" y2="17.883" gradientTransform="matrix(1, 0, 0, -1, -2.77, 47.075)" gradientUnits="userSpaceOnUse">
      <stop offset="0" stop-color="#fff"/>
      <stop offset="1" stop-color="#bebdbd"/>
    </linearGradient>
    <linearGradient id="linear-gradient-2" x1="14.844" y1="19.422" x2="35.159" y2="-0.895" gradientTransform="matrix(1, 0, 0, -1, -2.77, 47.075)" gradientUnits="userSpaceOnUse">
      <stop offset="0" stop-color="#73b4c8"/>
      <stop offset="1" stop-color="#177492"/>
    </linearGradient>
    <linearGradient id="linear-gradient-3" x1="6.101" y1="43.753" x2="14.663" y2="35.191" xlink:href="#linear-gradient-2"/>
    <linearGradient id="linear-gradient-4" x1="29.364" y1="43.068" x2="36.558" y2="35.874" xlink:href="#linear-gradient-2"/>
    <linearGradient id="linear-gradient-5" x1="36.778" y1="40.744" x2="42.327" y2="35.194" xlink:href="#linear-gradient"/>
    <linearGradient id="linear-gradient-6" x1="37.044" y1="43.547" x2="42.061" y2="38.531" xlink:href="#linear-gradient"/>
    <linearGradient id="linear-gradient-7" x1="265.638" y1="1083.791" x2="281.901" y2="1100.055" gradientTransform="translate(-119.792 -549.958) scale(0.542)" xlink:href="#linear-gradient"/>
    <linearGradient id="linear-gradient-8" x1="272.316" y1="1092.608" x2="288.579" y2="1108.872" gradientTransform="translate(-134.456 -547.23) scale(0.535)" xlink:href="#linear-gradient"/>
    <linearGradient id="linear-gradient-9" x1="265.638" y1="1083.791" x2="281.901" y2="1100.055" gradientTransform="translate(-106.792 -549.958) scale(0.542)" xlink:href="#linear-gradient"/>
  </defs>
  <g id="g926">
    <g id="g49">
      <path id="path29" d="M16.511,33.863,4.312,12.68l-.1-.064a5.892,5.892,0,0,1-.526-.406l-.092-.082c-.168-.154-.283-.266-.394-.385l-.145-.157c-.107-.123-.208-.25-.306-.382l-.111-.148a6.131,6.131,0,0,1-.356-.572A6.192,6.192,0,0,1,2,9.877L1.953,9.75c-.078-.216-.128-.367-.171-.523L1.73,9c-.038-.158-.066-.317-.092-.478l-.032-.21a5.978,5.978,0,0,1-.045-.707A6.063,6.063,0,0,1,7.616,1.55a6.416,6.416,0,0,1,.746.05l.147.023a5.85,5.85,0,0,1,.6.122l.183.046a6.057,6.057,0,0,1,1.341.572l.106.064a6.1,6.1,0,0,1,1.667,1.49,6.252,6.252,0,0,1,.444.661L13,4.827H27.889v5.555H13.843L27.375,33.863Z" fill="url(#linear-gradient)"/>
      <path id="path31" d="M4.705,40.6V35.775a1.821,1.821,0,0,1,1.82-1.82H37.937a1.821,1.821,0,0,1,1.82,1.82V40.6Z" fill="url(#linear-gradient-2)"/>
      <path id="path33" d="M7.614,13.659A6.055,6.055,0,1,1,13.668,7.6v0A6.061,6.061,0,0,1,7.614,13.659Zm0-9.286a3.232,3.232,0,1,0,3.231,3.233h0a3.236,3.236,0,0,0-3.231-3.23Z" fill="url(#linear-gradient-3)"/>
      <path id="rect35" d="M27.959,2.642h4.463v9.925H27.959Z" fill="url(#linear-gradient-4)"/>
      <path id="polygon37" d="M41.944,9.251l-1.173,1.416L37.429,12.5l-5-2.727V7.909l5,2.728L39.9,9.284Z" fill="url(#linear-gradient-5)"/>
      <g id="g47">
        <path id="polygon39" d="M39.9,5.858l-2.47-1.353-5,2.728V5.372l5-2.727,3.342,1.83,1.173,1.416Z" fill="url(#linear-gradient-6)"/>
        <g id="g45">
          <path id="path41" d="M11.345,7.605a3.731,3.731,0,1,0-3.731,3.731A3.73,3.73,0,0,0,11.345,7.605Zm-6.462,0a2.731,2.731,0,1,1,2.731,2.731A2.731,2.731,0,0,1,4.883,7.605Z" fill="#464646"/>
          <path id="path43" d="M37.43,10.067,32.922,7.608V7.534L37.43,5.075l2.339,1.281,3.253.052L41.1,4.083,37.43,2.075,32.922,4.534V2.142H27.46V4.327H13.285A6.6,6.6,0,0,0,11.63,2.432L11.586,2.4h0A6.654,6.654,0,0,0,11,2h0l-.115-.07h0a6.47,6.47,0,0,0-1.45-.619h0c-.065-.019-.132-.034-.2-.051h0a6.541,6.541,0,0,0-1.618-.21h0A6.555,6.555,0,0,0,1.059,7.6v0h0a6.59,6.59,0,0,0,.181,1.5h0c.013.054.028.107.042.16q.079.3.188.6c.023.065.045.13.071.194h0a6.542,6.542,0,0,0,.3.654h0a6.6,6.6,0,0,0,.838,1.2h0l.055.06a6.519,6.519,0,0,0,1.2,1.055L15.7,33.453H6.53a2.32,2.32,0,0,0-2.32,2.32V41.1H40.257V35.775a2.32,2.32,0,0,0-2.32-2.32H27.715L14.708,10.882H27.46v2.185h5.462V10.608l4.508,2.459L41.1,11.059l1.926-2.325-3.253.052Zm-4.5-4.4,4.5-2.452,3.019,1.653.418.506L40.03,5.36,37.91,4.2l-.48-.263-.48.262L32.93,6.39Zm6.327,30.1v4.327H5.205V35.775a1.321,1.321,0,0,1,1.32-1.32H37.937a1.321,1.321,0,0,1,1.32,1.32ZM4.03,11.844c-.059-.05-.115-.1-.172-.156-.094-.087-.185-.176-.273-.268-.057-.06-.113-.121-.167-.184-.084-.1-.163-.2-.24-.3-.046-.062-.095-.123-.139-.187-.076-.109-.134-.209-.194-.31s-.124-.213-.181-.323c-.065-.129-.129-.26-.193-.417-.027-.065-.049-.132-.073-.2-.049-.134-.094-.27-.132-.408-.02-.07-.038-.14-.054-.211-.034-.143-.061-.288-.083-.435l-.014-.089C2.109,8.32,2.1,8.285,2.1,8.248a5.751,5.751,0,0,1-.041-.643h0A5.56,5.56,0,0,1,7.612,2.05c.142,0,.282.011.421.021.085.007.168.014.262.026a.879.879,0,0,1,.135.02l.057.009c.17.027.337.06.5.1l.033.008c.046.012.093.023.138.036a5.542,5.542,0,0,1,1.21.515c.045.025.088.053.131.08.157.1.309.2.454.308.031.024.064.047.1.072a5.594,5.594,0,0,1,.97.987l.027.035a5.478,5.478,0,0,1,.358.535c.014.025.03.048.044.073l.061.105A5.547,5.547,0,0,1,4.38,12.106,4.236,4.236,0,0,1,4.03,11.844ZM26.509,33.363H16.8L5.545,13.821a6.535,6.535,0,0,0,7.873-3.175l.424.735ZM27.39,9.882H13.754a6.461,6.461,0,0,0,0-4.555H27.39Zm4.532,2.185H28.46V3.142h3.462Zm8.944-2.3-.418.506L37.43,11.928l-4.5-2.453V8.753l4.021,2.193.48.262.479-.263,2.12-1.163Z" fill="#464646"/>
        </g>
      </g>
    </g>
    <path id="circle51-6" d="M34.729,41.5A6.229,6.229,0,0,1,28.5,47.729h0A6.229,6.229,0,0,1,22.271,41.5h0A6.229,6.229,0,0,1,28.5,35.271h0A6.229,6.229,0,0,1,34.729,41.5Z" fill="url(#linear-gradient-7)"/>
    <path id="line35-2-0" d="M25.833,44.59l5.581-5.933" fill="#147391" stroke="#147391" stroke-linecap="round" stroke-miterlimit="10" stroke-width="1.5"/>
    <path id="path53-2" d="M28.5,35.542A5.958,5.958,0,1,1,22.542,41.5h0A5.965,5.965,0,0,1,28.5,35.542m0-.542A6.5,6.5,0,1,0,35,41.5,6.5,6.5,0,0,0,28.5,35Z" fill="#4e4a48"/>
    <path id="line35-2-0-1" d="M31.414,44.661l-5.581-5.933" fill="#147391" stroke="#147391" stroke-linecap="round" stroke-miterlimit="10" stroke-width="1.5"/>
    <path id="circle51" d="M21.673,41.427a6.151,6.151,0,0,1-6.15,6.15h0a6.15,6.15,0,0,1-6.15-6.15h0a6.149,6.149,0,0,1,6.15-6.15h0a6.15,6.15,0,0,1,6.15,6.15Z" fill="url(#linear-gradient-8)"/>
    <path id="path53" d="M15.5,35.542A5.958,5.958,0,1,1,9.542,41.5h0A5.965,5.965,0,0,1,15.5,35.542m0-.542A6.5,6.5,0,1,0,22,41.5,6.5,6.5,0,0,0,15.5,35Z" fill="#4e4a48"/>
    <path id="polyline31-1-2" d="M12.242,42.248l2.429,2.428,3.555-5.992" fill="none" stroke="#147391" stroke-linecap="round" stroke-linejoin="round" stroke-width="1.5"/>
    <path id="circle51-0" d="M47.729,41.5A6.229,6.229,0,0,1,41.5,47.729h0A6.229,6.229,0,0,1,35.271,41.5h0A6.229,6.229,0,0,1,41.5,35.271h0A6.229,6.229,0,0,1,47.729,41.5Z" fill="url(#linear-gradient-9)"/>
    <path id="path53-4" d="M41.5,35.542A5.958,5.958,0,1,1,35.542,41.5h0A5.965,5.965,0,0,1,41.5,35.542m0-.542A6.5,6.5,0,1,0,48,41.5,6.5,6.5,0,0,0,41.5,35Z" fill="#4e4a48"/>
    <path id="rect946-1" d="M39.675,37.932h.212a.51.51,0,0,1,.511.511v6.129a.51.51,0,0,1-.511.511h-.212a.509.509,0,0,1-.51-.511V38.443A.509.509,0,0,1,39.675,37.932Z" fill="#147391" stroke="#147391" stroke-linecap="square" stroke-miterlimit="10" stroke-width="0.5"/>
    <path id="rect946-7-6" d="M43.374,37.932h.212a.51.51,0,0,1,.511.511v6.129a.51.51,0,0,1-.511.511h-.212a.509.509,0,0,1-.51-.511V38.443A.509.509,0,0,1,43.374,37.932Z" fill="#147391" stroke="#147391" stroke-linecap="square" stroke-miterlimit="10" stroke-width="0.5"/>
  </g>
</svg>
