<svg id="Layer_1" data-name="Layer 1" xmlns="http://www.w3.org/2000/svg" xmlns:xlink="http://www.w3.org/1999/xlink" viewBox="0 0 48 48">
  <defs>
    <linearGradient id="linear-gradient" x1="0.5" y1="49.5" x2="47.5" y2="2.5" gradientTransform="matrix(1, 0, 0, -1, 0, 50)" gradientUnits="userSpaceOnUse">
      <stop offset="0" stop-color="#fff"/>
      <stop offset="0.232" stop-color="#fafafa"/>
      <stop offset="0.496" stop-color="#ededed"/>
      <stop offset="0.775" stop-color="#d6d6d6"/>
      <stop offset="1" stop-color="#bebebe"/>
    </linearGradient>
    <linearGradient id="linear-gradient-2" x1="10.75" y1="36.75" x2="37.25" y2="10.25" gradientTransform="matrix(1, 0, 0, -1, 0, 50)" gradientUnits="userSpaceOnUse">
      <stop offset="0" stop-color="#fff"/>
      <stop offset="0.335" stop-color="#f8f8f8"/>
      <stop offset="0.82" stop-color="#e5e5e5"/>
      <stop offset="1" stop-color="#dcdcdc"/>
    </linearGradient>
    <linearGradient id="linear-gradient-3" x1="34.5" y1="49.5" x2="47.5" y2="36.5" gradientTransform="matrix(1, 0, 0, -1, 0, 50)" gradientUnits="userSpaceOnUse">
      <stop offset="0" stop-color="#fff"/>
      <stop offset="0.221" stop-color="#f8f8f8"/>
      <stop offset="0.541" stop-color="#e5e5e5"/>
      <stop offset="0.92" stop-color="#c6c6c6"/>
      <stop offset="1" stop-color="#bebebe"/>
    </linearGradient>
    <linearGradient id="linear-gradient-4" x1="38.183" y1="51.979" x2="49.45" y2="40.064" gradientTransform="matrix(1, 0, 0, -1, 0, 50)" gradientUnits="userSpaceOnUse">
      <stop offset="0" stop-color="#afd7e1"/>
      <stop offset="1" stop-color="#73b4c8"/>
    </linearGradient>
    <linearGradient id="linear-gradient-5" x1="66.952" y1="-40.274" x2="105.952" y2="-79.274" gradientTransform="matrix(0.816, 0, 0, -0.816, -47.026, -20.895)" gradientUnits="userSpaceOnUse">
      <stop offset="0" stop-color="#fff"/>
      <stop offset="1" stop-color="#dcdcdc"/>
    </linearGradient>
    <linearGradient id="linear-gradient-6" x1="-512.359" y1="781.769" x2="-522.935" y2="793.067" gradientTransform="matrix(-1, 0, 0, 1, -480.156, -777.844)" xlink:href="#linear-gradient-3"/>
    <linearGradient id="linear-gradient-7" x1="35" y1="49" x2="47" y2="37" xlink:href="#linear-gradient-3"/>
  </defs>
  <g id="g951">
    <path id="rect53" d="M.5.5h47v47H.5Z" stroke="#464646" stroke-miterlimit="10" fill="url(#linear-gradient)"/>
    <path id="rect57" d="M12.5,11.5h23v30h-23Z" stroke="#bebebe" stroke-miterlimit="10" fill="url(#linear-gradient-2)"/>
    <path id="rect63" d="M34.5.5h13v13h-13Z" fill="url(#linear-gradient-3)"/>
    <path id="polygon65" d="M47,13V1H35Z" fill="url(#linear-gradient-4)"/>
    <path id="path71" d="M21.476,34.517l-5.929-7.154,1.992-1.65,3.91,4.719,8.6-10.659L32.062,21.4Z" fill="#3c91af" stroke="#147391"/>
    <g id="Verb_Zone" data-name="Verb Zone">
      <g id="g65">
        <g id="g13">
          <path id="rect9" d="M8.408,11.145H38.592V44.592H8.408Z" fill="url(#linear-gradient-5)"/>
          <path id="path11" d="M38.184,11.553V44.184H8.816V11.553H38.184M39,10.737H8V45H39Z" fill="#6f6e6e"/>
        </g>
        <g id="g19">
          <path id="line15" d="M10.816,19.35h12.71" fill="none" stroke="#177491" stroke-miterlimit="8.158" stroke-width="0.816"/>
          <path id="line17" d="M10.816,21.771h8.666" fill="none" stroke="#177491" stroke-miterlimit="8.158" stroke-width="0.816"/>
        </g>
        <g id="g25">
          <path id="path21" d="M29.541,21.38l-1.8-2.134-1.815,1.505,3.595,4.418,6.282-7.75-1.8-1.468" fill="#0e7191"/>
          <path id="polygon23" d="M29.583,22.7l4.5-5.512.653.5-5.162,6.328-2.689-3.3.659-.489Z" fill="#3b90b2"/>
        </g>
        <g id="g31">
          <path id="line27" d="M10.816,27.921h12.71" fill="none" stroke="#177491" stroke-miterlimit="8.158" stroke-width="0.816"/>
          <path id="line29" d="M10.816,30.343h8.666" fill="none" stroke="#177491" stroke-miterlimit="8.158" stroke-width="0.816"/>
        </g>
        <g id="g37">
          <path id="path33" d="M29.541,29.952l-1.8-2.135-1.815,1.5,3.592,4.42,6.281-7.75-1.794-1.468" fill="#0e7191"/>
          <path id="polygon35" d="M29.583,31.266l4.5-5.511.653.5-5.162,6.328-2.689-3.3.659-.488Z" fill="#3b90b2"/>
        </g>
        <g id="g43">
          <path id="line39" d="M10.816,36.482h12.71" fill="none" stroke="#177491" stroke-miterlimit="8.158" stroke-width="0.816"/>
          <path id="line41" d="M10.816,38.9h8.666" fill="none" stroke="#177491" stroke-miterlimit="8.158" stroke-width="0.816"/>
        </g>
        <g id="g49">
          <path id="path45" d="M29.541,38.512l-1.8-2.134-1.815,1.5L29.522,42.3l6.282-7.75-1.8-1.469" fill="#0e7191"/>
          <path id="polygon47" d="M29.583,39.826l4.5-5.511.653.5-5.162,6.328-2.689-3.3.659-.488Z" fill="#3b90b2"/>
        </g>
        <path id="line51" d="M10.855,7.066v6.118" fill="none" stroke="#6f6e6e" stroke-linecap="round" stroke-miterlimit="8.158" stroke-width="0.816"/>
        <path id="line53" d="M15.07,7.066v6.118" fill="none" stroke="#6f6e6e" stroke-linecap="round" stroke-miterlimit="8.158" stroke-width="0.816"/>
        <path id="line55" d="M27.715,7.066v6.118" fill="none" stroke="#6f6e6e" stroke-linecap="round" stroke-miterlimit="8.158" stroke-width="0.816"/>
        <path id="line57" d="M19.285,7.066v6.118" fill="none" stroke="#6f6e6e" stroke-linecap="round" stroke-miterlimit="8.158" stroke-width="0.816"/>
        <path id="line59" d="M23.5,7.066v6.118" fill="none" stroke="#6f6e6e" stroke-linecap="round" stroke-miterlimit="8.158" stroke-width="0.816"/>
        <path id="line61" d="M31.93,7.066v6.118" fill="none" stroke="#6f6e6e" stroke-linecap="round" stroke-miterlimit="8.158" stroke-width="0.816"/>
        <path id="line63" d="M36.145,7.066v6.118" fill="none" stroke="#6f6e6e" stroke-linecap="round" stroke-miterlimit="8.158" stroke-width="0.816"/>
      </g>
    </g>
    <path id="polygon65-1-2" d="M46.844,13.156l-12-12v12Z" fill="url(#linear-gradient-6)"/>
    <path id="line67" d="M35,1,47,13" stroke="#464646" stroke-miterlimit="10" fill="url(#linear-gradient-7)"/>
    <path id="rect69" d="M34.5.5h13v13h-13Z" fill="none" stroke="#464646" stroke-miterlimit="10"/>
  </g>
</svg>
