<svg id="Layer_1" data-name="Layer 1" xmlns="http://www.w3.org/2000/svg" xmlns:xlink="http://www.w3.org/1999/xlink" viewBox="0 0 48 48">
  <defs>
    <linearGradient id="linear-gradient" x1="38.925" y1="-0.945" x2="47.382" y2="-10.714" gradientTransform="matrix(0.944, 0, 0, -0.944, -19.389, 23.222)" gradientUnits="userSpaceOnUse">
      <stop offset="0" stop-color="#fff"/>
      <stop offset="0.221" stop-color="#f8f8f8"/>
      <stop offset="0.541" stop-color="#e5e5e5"/>
      <stop offset="0.92" stop-color="#c6c6c6"/>
      <stop offset="1" stop-color="#bebebe"/>
    </linearGradient>
    <linearGradient id="linear-gradient-2" x1="-466.457" y1="-60.781" x2="-466.66" y2="-67.608" gradientTransform="matrix(0.488, -0.809, -0.809, -0.488, 195.97, -395.182)" gradientUnits="userSpaceOnUse">
      <stop offset="0" stop-color="#afd7e1"/>
      <stop offset="1" stop-color="#73b4c8"/>
    </linearGradient>
    <linearGradient id="linear-gradient-3" x1="-454.261" y1="-64.131" x2="-455.529" y2="-66.929" gradientTransform="matrix(0.488, -0.809, -0.809, -0.488, 192.77, -396.167)" gradientUnits="userSpaceOnUse">
      <stop offset="0" stop-color="#73b4c8"/>
      <stop offset="0.175" stop-color="#6aaec3"/>
      <stop offset="0.457" stop-color="#529eb5"/>
      <stop offset="0.809" stop-color="#2c839f"/>
      <stop offset="1" stop-color="#147391"/>
    </linearGradient>
    <linearGradient id="linear-gradient-4" x1="-454.63" y1="-64.413" x2="-455.246" y2="-66.354" gradientTransform="matrix(0.483, -0.812, -0.784, -0.526, 181.092, -380.922)" xlink:href="#linear-gradient-2"/>
    <linearGradient id="linear-gradient-5" x1="-449.893" y1="-62.403" x2="-450.51" y2="-63.234" gradientTransform="matrix(0.48, -0.813, -0.78, -0.533, 178.298, -378.312)" xlink:href="#linear-gradient-2"/>
    <linearGradient id="linear-gradient-6" x1="39.151" y1="-12.69" x2="41.867" y2="-15.079" gradientTransform="matrix(0.944, 0, 0, -0.944, -19.389, 23.222)" xlink:href="#linear-gradient-3"/>
    <linearGradient id="linear-gradient-7" x1="45.035" y1="9.182" x2="47.948" y2="6.248" gradientTransform="matrix(0.944, 0, 0, -0.944, -19.389, 23.222)" xlink:href="#linear-gradient-3"/>
    <linearGradient id="linear-gradient-8" x1="-468.214" y1="-61.147" x2="-468.329" y2="-64.189" gradientTransform="matrix(0.485, -0.811, -0.811, -0.485, 192.679, -398.081)" xlink:href="#linear-gradient-2"/>
    <linearGradient id="linear-gradient-9" x1="26.168" y1="23.87" x2="43.829" y2="6.209" gradientTransform="matrix(1, 0, 0, -1, 0, 49.994)" xlink:href="#linear-gradient-3"/>
    <linearGradient id="linear-gradient-10" x1="32.525" y1="17.475" x2="37.475" y2="12.525" gradientTransform="matrix(1, 0, 0, -1, 0, 49.994)" xlink:href="#linear-gradient"/>
  </defs>
  <g id="g936">
    <path id="rect837" d="M.292,39.111H33.708A.291.291,0,0,1,34,39.4v1.3a.291.291,0,0,1-.292.292H.292A.291.291,0,0,1,0,40.708V39.4A.291.291,0,0,1,.292,39.111Z" fill="#464646"/>
    <path id="path856" d="M25.553,14.779v3.259a9.958,9.958,0,0,1,1.69,5.536A10.293,10.293,0,0,1,16.816,33.727h0a10.614,10.614,0,0,1-6.427-2.171H7.314a12.746,12.746,0,0,0,23.877-6.215h0A12.75,12.75,0,0,0,25.553,14.779Z" stroke="#464646" stroke-width="0.957" fill="url(#linear-gradient)"/>
    <path id="rect837-8" d="M1.745,29.9H16.427a.292.292,0,0,1,.293.292v1.3a.293.293,0,0,1-.293.292H1.745a.292.292,0,0,1-.292-.292v-1.3A.292.292,0,0,1,1.745,29.9Z" fill="#464646"/>
    <path id="rect875" d="M17.34,17.625,22.5,9.074a.293.293,0,0,1,.4-.1l5.637,3.4a.291.291,0,0,1,.1.4l-5.16,8.551a.292.292,0,0,1-.4.1l-5.637-3.4A.292.292,0,0,1,17.34,17.625Z" stroke="#464646" stroke-width="0.949" fill="url(#linear-gradient-2)"/>
    <path id="path839" d="M27.956,15.972a3.306,3.306,0,0,1-3.306,3.306h0a3.306,3.306,0,0,1-3.306-3.306h0a3.306,3.306,0,0,1,3.306-3.3h0a3.306,3.306,0,0,1,3.306,3.305Z" fill="#464646"/>
    <path id="rect875-7" d="M21.861,4.234l1.6-2.65a.292.292,0,0,1,.4-.1l1.591.96a.293.293,0,0,1,.1.4l-1.6,2.65a.292.292,0,0,1-.4.1l-1.59-.96A.291.291,0,0,1,21.861,4.234Z" stroke="#464646" stroke-width="0.571" fill="url(#linear-gradient-3)"/>
    <path id="rect909" d="M23.515.279,26.66,2.2a.293.293,0,0,1,.1.4l-.357.609a.291.291,0,0,1-.4.1L22.862,1.391a.292.292,0,0,1-.1-.4l.357-.609A.29.29,0,0,1,23.515.279Z" fill="#464646"/>
    <path id="rect875-7-5" d="M11.552,23.889l1.42-2.387a.225.225,0,0,1,.323-.073l1.272.853a.259.259,0,0,1,.077.342l-1.379,2.345a.229.229,0,0,1-.324.073l-1.312-.812a.252.252,0,0,1-.077-.341Z" stroke="#464646" stroke-width="0.649" fill="url(#linear-gradient-4)"/>
    <path id="rect875-7-5-3" d="M9.971,21.887,11.146,19.9a.173.173,0,0,1,.251-.056l.991.678a.2.2,0,0,1,.06.268l-1.217,1.952a.175.175,0,0,1-.251.055l-.949-.636A.2.2,0,0,1,9.971,21.887Z" stroke="#464646" stroke-width="0.539" fill="url(#linear-gradient-5)"/>
    <path id="path839-3" d="M18.979,34.23c-1.769,0-3.2,1.854-3.2,4.142h0a5.2,5.2,0,0,0,.281,1.683h5.849a5.175,5.175,0,0,0,.278-1.683c0-2.287-1.433-4.142-3.2-4.143Z" fill="#464646"/>
    <path id="path1012" d="M20.234,36.443a1.231,1.231,0,0,1-1.241,1.223h0a1.232,1.232,0,0,1-1.242-1.223h0a1.232,1.232,0,0,1,1.242-1.222h0a1.231,1.231,0,0,1,1.241,1.222Z" fill="url(#linear-gradient-6)"/>
    <path id="path1012-8" d="M25.972,15.972a1.417,1.417,0,1,1-1.416-1.416A1.416,1.416,0,0,1,25.972,15.972Z" fill="url(#linear-gradient-7)"/>
    <path id="rect877" d="M10.3,20.306,20.927,2.528a.291.291,0,0,1,.4-.1l4.345,2.6a.292.292,0,0,1,.1.4L15.142,23.2a.292.292,0,0,1-.4.1l-4.345-2.6A.291.291,0,0,1,10.3,20.306Z" stroke="#464646" stroke-width="0.944" fill="url(#linear-gradient-8)"/>
    <path id="rect1195" d="M5.319,29.473h6.728a.277.277,0,1,1,0,.554H5.319a.277.277,0,1,1,0-.554Z" fill="#464646" stroke="#464646" stroke-width="0.622"/>
    <path id="path50" d="M43.324,37.994,47.5,36.513V33.394l-4.176-1.482a.5.5,0,0,1-.314-.634.549.549,0,0,1,.021-.051l1.9-4-2.208-2.208-3.995,1.9a.5.5,0,0,1-.668-.232.393.393,0,0,1-.018-.043L36.56,22.494H33.44l-1.482,4.155a.507.507,0,0,1-.656.285l-.03-.013-4-1.9-2.207,2.207,1.9,4a.5.5,0,0,1-.24.665.455.455,0,0,1-.051.021L22.5,33.394v3.12l4.176,1.48a.5.5,0,0,1,.314.634c-.006.017-.013.035-.021.052l-1.9,4,2.207,2.208,4-1.894a.5.5,0,0,1,.663.246.392.392,0,0,1,.023.06l1.482,4.2H36.56l1.482-4.2a.49.49,0,0,1,.686-.314l4,1.9,2.207-2.207-1.9-4a.5.5,0,0,1,.24-.665A.419.419,0,0,1,43.324,37.994Z" stroke="#464646" stroke-linejoin="round" fill="url(#linear-gradient-9)"/>
    <path id="circle52" d="M38.5,34.994a3.5,3.5,0,1,1-3.5-3.5A3.5,3.5,0,0,1,38.5,34.994Z" stroke="#464646" stroke-miterlimit="10" fill="url(#linear-gradient-10)"/>
  </g>
</svg>
