<svg id="Image" xmlns="http://www.w3.org/2000/svg" xmlns:xlink="http://www.w3.org/1999/xlink" viewBox="0 0 48 48">
  <defs>
    <linearGradient id="linear-gradient" x1="37.466" y1="3.221" x2="76.385" y2="-35.698" gradientTransform="matrix(0.903, 0, 0, -0.903, -28.042, 8.437)" gradientUnits="userSpaceOnUse">
      <stop offset="0" stop-color="#afd7e1"/>
      <stop offset="1" stop-color="#73b4c8"/>
    </linearGradient>
    <linearGradient id="linear-gradient-2" x1="41.054" y1="-10.697" x2="66.503" y2="-36.147" gradientTransform="matrix(0.903, 0, 0, -0.903, -28.042, 8.437)" gradientUnits="userSpaceOnUse">
      <stop offset="0" stop-color="#73b4c8"/>
      <stop offset="1" stop-color="#177492"/>
    </linearGradient>
    <linearGradient id="linear-gradient-3" x1="84.118" y1="-79.951" x2="95.183" y2="-79.951" gradientTransform="matrix(0.904, 0, 0, -0.784, -43.166, -36.942)" gradientUnits="userSpaceOnUse">
      <stop offset="0" stop-color="#fff"/>
      <stop offset="1" stop-color="#bebebe"/>
    </linearGradient>
    <linearGradient id="linear-gradient-4" x1="156.806" y1="-181.111" x2="183.462" y2="-202.562" gradientTransform="matrix(0.645, 0, 0, -0.645, -71.932, -82.532)" gradientUnits="userSpaceOnUse">
      <stop offset="0" stop-color="#73b4c8"/>
      <stop offset="0.175" stop-color="#6aaec3"/>
      <stop offset="0.457" stop-color="#529eb5"/>
      <stop offset="0.809" stop-color="#2c839f"/>
      <stop offset="1" stop-color="#147391"/>
    </linearGradient>
  </defs>
  <g id="g889">
    <g id="g26">
      <g id="g18">
        <path id="polygon14" d="M11.869,17.963V10.882l8.79,7.081h2.627V10.882l8.791,7.081h1.8V.452h7.228v40.1H.452V10.882l8.79,7.081Z" fill="url(#linear-gradient)"/>
        <path id="path16" d="M40.654.9V40.1H.9V11.826l7.932,6.389.248.2h3.238V11.826l7.931,6.389.248.2h3.238V11.826l7.931,6.389.249.2H34.33V.9h6.324m.9-.9h-8.13V17.511h-1.19l-9.4-7.573v7.573H20.819l-9.4-7.573v7.573H9.4L0,9.938V41H41.557Z" fill="#177491"/>
      </g>
      <g id="g24">
        <path id="path20" d="M9.938,38.4a3.2,3.2,0,0,1-.64-.064,3.09,3.09,0,0,1-1.127-.476A3.159,3.159,0,0,1,7.7,33h0a3.212,3.212,0,0,1,.468-.386,3.1,3.1,0,0,1,1.13-.476,3.239,3.239,0,0,1,.637-.065,3.155,3.155,0,0,1,2.789,1.705l.218.419h-.009l.075.325a3.027,3.027,0,0,1,.09.709A3.161,3.161,0,0,1,9.944,38.4Zm24.392-.9a3.276,3.276,0,0,1-.64-.064,3.139,3.139,0,0,1-1.127-.476,3.259,3.259,0,0,1-.468-.385,3.091,3.091,0,0,1-.828-2.981l.1-.423.014,0,.173-.32a3.115,3.115,0,0,1,.536-.751,3.281,3.281,0,0,1,.469-.387,3.136,3.136,0,0,1,1.13-.476,3.162,3.162,0,1,1,.638,6.259ZM20.779,35.685A5.851,5.851,0,0,1,15.85,33l-.234-.361h0l-.172-.372a5.7,5.7,0,0,1-.452-3.419l.065-.395h-.008l.135-.42a5.872,5.872,0,0,1,10.5-1.445l.255.387-.009.005.163.344a5.819,5.819,0,0,1,.563,2.491,5.915,5.915,0,0,1-.2,1.486l-.111.426,1.009.29-1.006-.289-.155.369A5.863,5.863,0,0,1,20.779,35.685ZM6.324,28.458a3.276,3.276,0,0,1-.64-.064,3.136,3.136,0,0,1-1.127-.478,3.205,3.205,0,0,1-.468-.385,3.162,3.162,0,0,1,0-4.472h0a3.219,3.219,0,0,1,.468-.387,3.128,3.128,0,0,1,1.13-.476,3.175,3.175,0,0,1,3.8,3.1h0a3.134,3.134,0,0,1-.172.978l-.146.442h0L8.987,27A3.15,3.15,0,0,1,6.324,28.458Zm24.392-1.807a3.266,3.266,0,0,1-.639-.064,3.136,3.136,0,0,1-1.128-.476,3.315,3.315,0,0,1-.468-.385l-.271-.271-.349.164.32-.225-.258-.451a2.031,2.031,0,0,1-.123-.23,3.16,3.16,0,0,1,.678-3.466,3.157,3.157,0,0,1,1.6-.862,3.162,3.162,0,0,1,1.2,6.209A3.2,3.2,0,0,1,30.716,26.651Z" fill="url(#linear-gradient-2)"/>
        <path id="path22" d="M30.716,20.779A2.71,2.71,0,1,1,29.2,25.737a2.748,2.748,0,0,1-.37-.3l-.023-.029-.038-.04-.21-.218-.188-.331-.059-.1a1.612,1.612,0,0,1-.095-.173,2.71,2.71,0,0,1,1.442-3.551,2.752,2.752,0,0,1,.509-.158,2.714,2.714,0,0,1,.547-.055M6.324,22.586a2.71,2.71,0,0,1,2.71,2.71,2.66,2.66,0,0,1-.15.838l-.119.362-.165.255a2.7,2.7,0,0,1-2.276,1.255,2.806,2.806,0,0,1-.548-.055,2.71,2.71,0,0,1,.548-5.365m14.455,1.806a5.412,5.412,0,0,1,4.525,2.44l.2.3.18.38a5.354,5.354,0,0,1,.517,2.3,5.465,5.465,0,0,1-.18,1.371l-.112.426-.131.309a5.421,5.421,0,0,1-9.545.834l-.2-.316-.167-.361a5.252,5.252,0,0,1-.419-3.156l.07-.42.106-.333a5.4,5.4,0,0,1,5.162-3.775M34.33,31.62a2.71,2.71,0,1,1-2.71,2.71,2.664,2.664,0,0,1,.09-.64l.075-.309.174-.322a2.634,2.634,0,0,1,1.827-1.384,2.758,2.758,0,0,1,.544-.055m-24.392.9a2.7,2.7,0,0,1,2.387,1.463l.177.335.069.3a2.681,2.681,0,0,1-1.966,3.242,2.732,2.732,0,0,1-.667.077,2.8,2.8,0,0,1-.548-.055,2.711,2.711,0,0,1,0-5.311,2.8,2.8,0,0,1,.548-.055M30.716,19.875a3.714,3.714,0,0,0-.728.073,3.615,3.615,0,0,0-2.813,4.267,3.7,3.7,0,0,0,.211.681,3.75,3.75,0,0,0,.2.368l-1.53,1.071h0a6.323,6.323,0,0,0-11.3,1.555L9.743,26.415h0a3.582,3.582,0,0,0,.2-1.119,3.634,3.634,0,1,0-.579,1.948l5.186,1.525a6.407,6.407,0,0,0-.09,1.044,6.277,6.277,0,0,0,.582,2.638l-1.911,1.115h0A3.6,3.6,0,0,0,9.938,31.62a3.614,3.614,0,1,0,3.539,4.343,3.5,3.5,0,0,0-.025-1.543l2.019-1.174h0a6.324,6.324,0,0,0,11.137-.976h0l4.22,1.206a3.6,3.6,0,0,0,2.637,4.363c.045.012.091.022.137.032a3.614,3.614,0,1,0,0-7.081,3.493,3.493,0,0,0-2.439,1.842l-4.269-1.22a6.221,6.221,0,0,0-.392-4.284l1.621-1.135c.015.017.026.035.042.051a3.612,3.612,0,1,0,3.274-6.1A3.656,3.656,0,0,0,30.716,19.875Z" fill="#177491"/>
      </g>
    </g>
    <path id="path866" d="M42.468,25.106c0,2.717-2.115,6.169-4.652,6.169s-4.536-3.452-4.536-6.169a4.6,4.6,0,1,1,9.188,0Z" stroke="#464646" stroke-miterlimit="10" fill="url(#linear-gradient-3)"/>
    <path id="path28" d="M47.455,47.5V37.672a6.426,6.426,0,0,0-3.876-5.656,9.662,9.662,0,0,1-11.6,0A6.425,6.425,0,0,0,28.1,37.672V47.5Z" stroke="#464646" stroke-miterlimit="10" fill="url(#linear-gradient-4)"/>
    <path id="line30" d="M32.616,47V39.413" fill="none" stroke="#147391" stroke-linejoin="round" stroke-width="0.936"/>
    <path id="line32" d="M42.939,47V39.413" fill="none" stroke="#147391" stroke-linejoin="round" stroke-width="0.936"/>
    <path id="rect1056" d="M37.143,33.808h1.333l.334,9.466-1,1-1-1Z" fill="#464646"/>
  </g>
</svg>
