<svg id="svg8" xmlns="http://www.w3.org/2000/svg" xmlns:xlink="http://www.w3.org/1999/xlink" viewBox="0 0 48 48">
  <defs>
    <linearGradient id="linear-gradient" x1="-352.243" y1="-506.173" x2="-350.894" y2="-507.272" gradientTransform="matrix(2.755, 0, 0, -2.755, 984.411, -1391.433)" gradientUnits="userSpaceOnUse">
      <stop offset="0" stop-color="#73b4c8"/>
      <stop offset="0.175" stop-color="#6aaec3"/>
      <stop offset="0.457" stop-color="#529eb5"/>
      <stop offset="0.809" stop-color="#2c839f"/>
      <stop offset="1" stop-color="#147391"/>
    </linearGradient>
    <linearGradient id="linear-gradient-2" x1="-357.033" y1="-514.903" x2="-347.079" y2="-518.219" gradientTransform="matrix(2.755, 0, 0, -2.755, 984.411, -1391.433)" gradientUnits="userSpaceOnUse">
      <stop offset="0" stop-color="#fff"/>
      <stop offset="1" stop-color="#bebebe"/>
    </linearGradient>
    <linearGradient id="linear-gradient-3" x1="309.733" y1="1002.662" x2="313.026" y2="1001.259" gradientTransform="translate(-154.324 -740.29) scale(0.729)" xlink:href="#linear-gradient"/>
    <linearGradient id="linear-gradient-4" x1="308.507" y1="1020.311" x2="314.006" y2="1018.173" gradientTransform="translate(-154.324 -740.29) scale(0.729)" xlink:href="#linear-gradient"/>
    <linearGradient id="linear-gradient-5" x1="247.2" y1="1052.288" x2="254.916" y2="1051.285" gradientTransform="translate(-153.839 -744.073) scale(0.732 0.736)" xlink:href="#linear-gradient"/>
    <linearGradient id="linear-gradient-6" x1="115.943" y1="868.332" x2="122.81" y2="875.197" gradientTransform="translate(-66.749 -735.667) scale(0.87)" gradientUnits="userSpaceOnUse">
      <stop offset="0" stop-color="#fff"/>
      <stop offset="0.221" stop-color="#f8f8f8"/>
      <stop offset="0.541" stop-color="#e5e5e5"/>
      <stop offset="0.92" stop-color="#c6c6c6"/>
      <stop offset="1" stop-color="#bebebe"/>
    </linearGradient>
    <linearGradient id="linear-gradient-7" x1="104.089" y1="878.339" x2="120.855" y2="895.105" gradientTransform="translate(-66.749 -735.667) scale(0.87)" gradientUnits="userSpaceOnUse">
      <stop offset="0" stop-color="#afd7e1"/>
      <stop offset="0.159" stop-color="#a4d0dc"/>
      <stop offset="0.706" stop-color="#80bcce"/>
      <stop offset="1" stop-color="#73b4c8"/>
    </linearGradient>
  </defs>
  <g id="g966">
    <path id="path885" d="M14.4,4.934,6.508,30.966,14.186,33l11.473-2.028L24.5,28.151,17.959,4.268Z" fill="#fff"/>
    <path id="path1132" d="M14.367,5.814c0-.02.084-.517.226-1.224a2.5,2.5,0,0,1,.72-1.5,1.361,1.361,0,0,1,1.655-.017,1.518,1.518,0,0,1,.752.969,11.774,11.774,0,0,1,.292,1.77c-.018.027-3.7-.052-3.723-.052s.031.064.031.055Z" fill="url(#linear-gradient)"/>
    <g id="g865">
      <g id="g867">
        <path id="rect828" d="M29.448,28.208a.546.546,0,0,0-.292-.057H24.5l1.377,3.8L5.7,32.207l1.435-4.066-3.767.03L.074,35.8l30.753.129-1.3-7.51A.368.368,0,0,0,29.448,28.208Z" fill="#147391" stroke="#147391" stroke-linejoin="round" stroke-width="0.147"/>
      </g>
    </g>
    <path id="rect828-6" d="M28.891,28.635l-4.1-.025L25.54,32.6,6.23,32.316l.875-3.681H3.947l-2.692,6.5,28.714.106Z" fill="url(#linear-gradient-2)"/>
    <path id="path1122" d="M14.1,4.209,5.885,31l.323.113a29.52,29.52,0,0,0,19.139-.028l.312-.113L18.384,4.257l-.425.011.011.71h-.129l6.941,25.495a28.817,28.817,0,0,1-18,.022L14.616,4.944l-.219-.01.033-.711Z" fill="#147391"/>
    <path id="path855" d="M16.259,2.223a2.026,2.026,0,0,0-1.6.818A2.885,2.885,0,0,0,14.2,3.9c-.047.14-.1.284-.139.446-.028.11-.1.335-.146.507l.684.2c.039-.134.117-.365.159-.533.028-.117.073-.242.124-.388a2.176,2.176,0,0,1,.344-.651,1.294,1.294,0,0,1,1.033-.549,1.331,1.331,0,0,1,1.028.583,2.232,2.232,0,0,1,.339.662c.045.14.09.292.129.437.054.2.118.406.134.5l.7-.118a5.743,5.743,0,0,0-.146-.563c-.042-.159-.092-.319-.14-.468a2.947,2.947,0,0,0-.452-.875A2.04,2.04,0,0,0,16.259,2.223Z" fill="#147391"/>
    <path id="path1130" d="M18.218,5.178a4.85,4.85,0,0,1-2,.506,3.749,3.749,0,0,1-1.959-.5l-.355.635a4.543,4.543,0,0,0,2.308.6,5.242,5.242,0,0,0,2.352-.6Z" fill="#147391"/>
    <path id="rect871" d="M25.23,30.148a1.439,1.439,0,0,1,1.276.025l.027.063-.161.212H25.4Z" fill="#147391"/>
    <path id="rect871-5" d="M6.525,30.139a1.444,1.444,0,0,0-1.28.027l-.027.063.161.212H6.35Z" fill="#147391"/>
    <path id="path860" d="M14.882,16.36a22.066,22.066,0,0,1-3.255-.7l-.265-.081.3-1.01c.165-.556.365-1.246.452-1.531.111-.38.173-.524.227-.524a4.782,4.782,0,0,1,.5.094,18.979,18.979,0,0,0,2.5.347,16.323,16.323,0,0,0,4.16-.343,4.241,4.241,0,0,1,.5-.084c.007.008.2.691.418,1.519a5.9,5.9,0,0,1,.344,1.54,17.767,17.767,0,0,1-2.843.679A16.067,16.067,0,0,1,14.882,16.36Z" stroke="#4d9ab2" stroke-linejoin="round" stroke-width="0.007" fill="url(#linear-gradient-3)"/>
    <path id="path862" d="M14.941,28.257c-3.156-.129-5.742-.6-6.68-1.215-.125-.082-.227-.179-.227-.219s.308-1.138.684-2.446L9.4,22l.215.07c.484.156,1.657.442,2.292.559A21.06,21.06,0,0,0,16.054,23a20.98,20.98,0,0,0,5.622-.752c.482-.119.885-.209.893-.2.029.031,1.239,4.646,1.239,4.723,0,.1-.226.292-.529.438a15.9,15.9,0,0,1-4.954.979c-.729.052-2.77.1-3.383.073Z" stroke="#4d9ab2" stroke-linejoin="round" stroke-width="0.007" fill="url(#linear-gradient-4)"/>
    <path id="path866" d="M15.216,33.661a36.13,36.13,0,0,1-8.979-1.539c-1.1-.337-1.057-.3-1.057-.808,0-.636.011-.645.647-.411a30.014,30.014,0,0,0,8.021,1.685,44.527,44.527,0,0,0,5.062-.078A30.487,30.487,0,0,0,25.7,31c.544-.189.765-.246.8-.2a1.023,1.023,0,0,1,.06.5c0,.534.052.488-.943.837a28.224,28.224,0,0,1-10.408,1.539Z" stroke="#4d9ab2" stroke-linejoin="round" stroke-width="0.007" fill="url(#linear-gradient-5)"/>
    <path id="rect1019" d="M5.729,30.161a.786.786,0,0,0-.808.237,1.035,1.035,0,0,0-.274.705v.619a.9.9,0,0,0,.3.662,1.406,1.406,0,0,0,.555.285,34.906,34.906,0,0,0,20.753-.006,1.575,1.575,0,0,0,.539-.279.9.9,0,0,0,.306-.662V31.1a1.035,1.035,0,0,0-.274-.705.784.784,0,0,0-.807-.237A31.917,31.917,0,0,1,5.729,30.161Zm-.243.711a32.663,32.663,0,0,0,20.775,0c-.006,0-.03-.014.011.032a.386.386,0,0,1,.08.2v.619c0,.055,0,.051-.048.091a.958.958,0,0,1-.285.14,34.175,34.175,0,0,1-20.314,0,.762.762,0,0,1-.264-.124c-.044-.039-.048-.045-.048-.1V31.1a.376.376,0,0,1,.081-.2c.04-.045.016-.031.011-.032Z" fill="#147391"/>
    <path id="path857" d="M8.925,21.229,7.3,26.745v.073a.986.986,0,0,0,.339.645,2.5,2.5,0,0,0,.667.42,9.377,9.377,0,0,0,2.056.6,30.877,30.877,0,0,0,5.838.484,27.4,27.4,0,0,0,5.553-.548,7.8,7.8,0,0,0,1.851-.613,2.141,2.141,0,0,0,.583-.425.965.965,0,0,0,.275-.635V26.7L23,21.261l-.36.1a24.5,24.5,0,0,1-6.436,1,20.912,20.912,0,0,1-6.908-1Zm.516.894a22.148,22.148,0,0,0,6.764.984,24.653,24.653,0,0,0,6.253-.96l1.248,4.617c0,.019,0,.043-.064.108a1.507,1.507,0,0,1-.388.274,7.254,7.254,0,0,1-1.662.544,26.769,26.769,0,0,1-5.394.532,30.189,30.189,0,0,1-5.686-.473,8.831,8.831,0,0,1-1.884-.544,1.872,1.872,0,0,1-.473-.291.21.21,0,0,1-.081-.119Z" fill="#147391"/>
    <path id="path874" d="M11.815,11.769,10.491,16.09l.344.1a16.746,16.746,0,0,0,5.385.893,17.869,17.869,0,0,0,5.052-.893l.329-.108L20.412,11.8l-.334.073a19.058,19.058,0,0,1-3.858.481,15.6,15.6,0,0,1-4.069-.5Zm.5.834a16.322,16.322,0,0,0,3.912.479,18.993,18.993,0,0,0,3.664-.452l.818,2.938a16.925,16.925,0,0,1-4.5.8,15.882,15.882,0,0,1-4.8-.8Z" fill="#147391"/>
    <path id="polyline48" d="M28.768,25.159,42.11,18.391,45.472,20.4,33.905,26.6" fill="url(#linear-gradient-6)"/>
    <path id="polygon50" d="M42.11,16.568v1.823l-13.41,7.6-.266-2.127Z" fill="#969696"/>
    <path id="polygon52" d="M47.58,19.3V40.271L33.905,47.564V26.6Z" fill="#3c91af"/>
    <path id="line54" d="M42.11,18.391l-13.41,7.6" fill="#969696" stroke="#6e6e6e" stroke-linejoin="round" stroke-width="0.87"/>
    <path id="path56" d="M33.905,47.564a7.331,7.331,0,0,1-3.615-.891,3.174,3.174,0,0,1-1.855-2.756V23.861a11.3,11.3,0,0,0,2.254,1.877,8.12,8.12,0,0,0,3.216.858Z" fill="url(#linear-gradient-7)"/>
    <path id="line58" d="M33.657,26.248V47.134" fill="none" stroke="#147391" stroke-linejoin="round" stroke-width="0.87"/>
    <path id="path60" d="M28.435,23.861a11.3,11.3,0,0,0,2.254,1.877,8.12,8.12,0,0,0,3.216.858l12.053-6.428" fill="none" stroke="#147391" stroke-miterlimit="8.702" stroke-width="0.87"/>
    <path id="path62" d="M45.489,20.418l-3.13-1.878V16.435L28.435,23.861V43.917a3.174,3.174,0,0,0,1.855,2.756,7.331,7.331,0,0,0,3.615.891L47.58,40.271V19.3Z" fill="none" stroke="#464646" stroke-linejoin="round" stroke-width="0.87"/>
  </g>
</svg>
