<svg id="Livello_3" data-name="Livello 3" xmlns="http://www.w3.org/2000/svg" xmlns:xlink="http://www.w3.org/1999/xlink" viewBox="0 0 48 48">
  <defs>
    <linearGradient id="linear-gradient" x1="2.146" y1="41.1" x2="7.834" y2="36.239" gradientTransform="matrix(1.08, 0, 0, -1.08, 14.423, 73.314)" gradientUnits="userSpaceOnUse">
      <stop offset="0" stop-color="#fff"/>
      <stop offset="0.221" stop-color="#f8f8f8"/>
      <stop offset="0.541" stop-color="#e5e5e5"/>
      <stop offset="0.92" stop-color="#c6c6c6"/>
      <stop offset="1" stop-color="#bebebe"/>
    </linearGradient>
    <linearGradient id="linear-gradient-2" x1="-15.045" y1="805.589" x2="9.487" y2="826.256" gradientTransform="translate(31.431 -1403.87) scale(1.89 1.74)" gradientUnits="userSpaceOnUse">
      <stop offset="0" stop-color="#f3f3f3"/>
      <stop offset="0.5" stop-color="#cdcccc"/>
      <stop offset="0.63" stop-color="#c8c7c7"/>
      <stop offset="0.779" stop-color="#bababa"/>
      <stop offset="0.938" stop-color="#a2a2a1"/>
      <stop offset="0.99" stop-color="#989898"/>
    </linearGradient>
    <linearGradient id="linear-gradient-3" x1="-1.99" y1="41.996" x2="6.538" y2="37.194" gradientTransform="matrix(1.08, 0, 0, -1.08, 18.4, 81.517)" gradientUnits="userSpaceOnUse">
      <stop offset="0" stop-color="#73b4c8"/>
      <stop offset="0.175" stop-color="#6aaec3"/>
      <stop offset="0.457" stop-color="#529eb5"/>
      <stop offset="0.809" stop-color="#2c839f"/>
      <stop offset="1" stop-color="#147391"/>
    </linearGradient>
    <linearGradient id="linear-gradient-4" x1="107.087" y1="-91.891" x2="123.342" y2="-101.69" gradientTransform="matrix(0.767, 0, 0, -0.767, -58.226, -41.72)" xlink:href="#linear-gradient"/>
    <linearGradient id="linear-gradient-5" x1="2.146" y1="41.1" x2="7.834" y2="36.239" gradientTransform="matrix(1.08, 0, 0, -1.08, 36.56, 73.676)" xlink:href="#linear-gradient"/>
    <linearGradient id="linear-gradient-6" x1="0.783" y1="34.761" x2="9.973" y2="29.9" gradientTransform="matrix(1.08, 0, 0, -1.08, 36.56, 73.676)" xlink:href="#linear-gradient-3"/>
    <linearGradient id="linear-gradient-7" x1="-8.939" y1="49.301" x2="0.528" y2="45.44" gradientTransform="matrix(1.08, 0, 0, -1.08, 21.428, 96.575)" xlink:href="#linear-gradient-3"/>
    <linearGradient id="linear-gradient-8" x1="26.491" y1="20.403" x2="36.729" y2="13.04" gradientTransform="matrix(1, 0, 0, -1, -23.616, 49.594)" xlink:href="#linear-gradient-3"/>
    <linearGradient id="linear-gradient-9" x1="2.146" y1="41.1" x2="7.834" y2="36.239" gradientTransform="matrix(1.08, 0, 0, -1.08, 11.443, 80.523)" xlink:href="#linear-gradient"/>
  </defs>
  <g id="g950">
    <path id="path855" d="M20.424,35.493c-1.68,0-3.024-2.016-3.024-3.7a3,3,0,1,1,6,0C23.4,33.477,22.1,35.493,20.424,35.493Z" fill="#147391"/>
    <path id="path859-5-0" d="M20.407,29.975A1.888,1.888,0,0,0,18.583,31.8c0,1.056.864,2.5,1.824,2.5s1.776-1.44,1.776-2.5A1.881,1.881,0,0,0,20.407,29.975Z" fill-rule="evenodd" fill="url(#linear-gradient)"/>
    <path id="rect13-9-3" d="M1,1H46V27H1Z" stroke="#474747" stroke-miterlimit="10" fill="url(#linear-gradient-2)"/>
    <path id="path15-5" d="M4.183,3.959l15,9.824A7.667,7.667,0,0,0,27.5,13.7L41.644,3.959" fill="none" stroke="#6f6f6f" stroke-miterlimit="10"/>
    <path id="line17-6" d="M19.259,13.873,4.183,22.822" fill="none" stroke="#6f6f6f" stroke-miterlimit="10"/>
    <path id="line19-5" d="M41.645,22.822,27.338,13.9" fill="none" stroke="#6f6f6f" stroke-miterlimit="10"/>
    <path id="path857" d="M25.8,40.773H15V39a3.953,3.953,0,0,1,2.256-3.5l.384-.1.24.24a4.405,4.405,0,0,0,5.04,0l.24-.24.384.1A3.953,3.953,0,0,1,25.8,39Z" fill="#147391"/>
    <path id="path861" d="M16.2,39.573h8.4V39a2.744,2.744,0,0,0-1.3-2.3,5.507,5.507,0,0,1-5.808,0A2.744,2.744,0,0,0,16.2,39Z" fill-rule="evenodd" fill="url(#linear-gradient-3)"/>
    <path id="path79" d="M38.616,34.629l-4.987-4.988v2.668c-.247.051-.472.1-.725.133-3.966.55-6.118-.691-8.52-3.508,1.354,4.914,4.17,7.941,9.245,7.927v2.755Z" stroke="#464646" stroke-linejoin="round" stroke-width="0.767" fill="url(#linear-gradient-4)"/>
    <path id="path855-8" d="M42.544,35.856c-1.68,0-3.024-2.016-3.024-3.7a3,3,0,1,1,6,0C45.52,33.84,44.224,35.856,42.544,35.856Z" fill="#147391"/>
    <path id="path857-1" d="M47.92,41.136H37.12V39.36a3.953,3.953,0,0,1,2.256-3.5l.384-.1L40,36a4.405,4.405,0,0,0,5.04,0l.24-.24.384.1a3.953,3.953,0,0,1,2.256,3.5Z" fill="#147391"/>
    <path id="path859-5" d="M42.544,30.336A1.888,1.888,0,0,0,40.72,32.16c0,1.056.864,2.5,1.824,2.5s1.776-1.44,1.776-2.5A1.881,1.881,0,0,0,42.544,30.336Z" fill-rule="evenodd" fill="url(#linear-gradient-5)"/>
    <path id="path861-8" d="M38.32,39.936h8.4V39.36a2.744,2.744,0,0,0-1.3-2.3,5.507,5.507,0,0,1-5.808,0,2.744,2.744,0,0,0-1.3,2.3Z" fill-rule="evenodd" fill="url(#linear-gradient-6)"/>
    <path id="path857-3" d="M22.8,48H12V46.224a3.953,3.953,0,0,1,2.256-3.5l.384-.1.24.24a4.405,4.405,0,0,0,5.04,0l.24-.24.384.1a3.953,3.953,0,0,1,2.256,3.5Z" fill="#147391"/>
    <path id="path861-2" d="M13.2,46.8h8.4v-.576a2.744,2.744,0,0,0-1.3-2.3,5.507,5.507,0,0,1-5.808,0,2.744,2.744,0,0,0-1.3,2.3Z" fill-rule="evenodd" fill="url(#linear-gradient-7)"/>
    <path id="path79-2" d="M15.616,34.768l-4.987-4.987v2.667c-.247.052-.472.1-.725.133-3.966.55-6.118-.69-8.52-3.507,1.354,4.913,4.17,7.94,9.245,7.926v2.756Z" stroke="#464646" stroke-linejoin="round" stroke-width="0.767" fill="url(#linear-gradient-8)"/>
    <path id="path855-6" d="M17.424,42.72c-1.68,0-3.024-2.016-3.024-3.7a3,3,0,1,1,6,0C20.4,40.7,19.1,42.72,17.424,42.72Z" fill="#147391"/>
    <path id="path859-5-8" d="M17.427,37.183A1.888,1.888,0,0,0,15.6,39.007c0,1.056.864,2.5,1.824,2.5s1.776-1.44,1.776-2.5A1.881,1.881,0,0,0,17.427,37.183Z" fill-rule="evenodd" fill="url(#linear-gradient-9)"/>
  </g>
</svg>
