<svg id="svg54" xmlns="http://www.w3.org/2000/svg" xmlns:xlink="http://www.w3.org/1999/xlink" viewBox="0 0 48 48">
  <defs>
    <linearGradient id="linear-gradient" x1="26.085" y1="23.514" x2="49.654" y2="8.69" gradientTransform="matrix(0.939, 0, 0, -0.939, -11.982, 30.668)" gradientUnits="userSpaceOnUse">
      <stop offset="0" stop-color="#cee6eb"/>
      <stop offset="0.221" stop-color="#c6e2e8"/>
      <stop offset="0.542" stop-color="#b3d8e1"/>
      <stop offset="0.921" stop-color="#93c7d4"/>
      <stop offset="1" stop-color="#8dc3d2"/>
    </linearGradient>
    <linearGradient id="linear-gradient-2" x1="18.567" y1="16.431" x2="37.052" y2="-14.746" gradientTransform="matrix(0.939, 0, 0, -0.939, -11.982, 30.668)" gradientUnits="userSpaceOnUse">
      <stop offset="0" stop-color="#afd7e1"/>
      <stop offset="0.159" stop-color="#a5d1dc"/>
      <stop offset="0.706" stop-color="#82bdcf"/>
      <stop offset="1" stop-color="#73b4c8"/>
    </linearGradient>
    <linearGradient id="linear-gradient-3" x1="30.454" y1="4.625" x2="53.878" y2="-18.799" gradientTransform="matrix(0.939, 0, 0, -0.939, -17.005, 28.286)" gradientUnits="userSpaceOnUse">
      <stop offset="0" stop-color="#fff"/>
      <stop offset="1" stop-color="#dadada"/>
    </linearGradient>
    <linearGradient id="linear-gradient-4" x1="29.504" y1="772.7" x2="47.663" y2="790.859" gradientTransform="translate(-17.005 -715.807) scale(0.939)" xlink:href="#linear-gradient"/>
  </defs>
  <g id="g869">
    <path id="polygon30" d="M39.808,34.7,22.661,44.614V24.876L39.808,14.96Z" fill="#3f91af"/>
    <path id="polygon32" d="M39.808,14.96,22.661,24.876,5.513,14.959,22.632,5.043Z" fill="url(#linear-gradient)"/>
    <path id="polygon34" d="M5.513,34.7V14.959l17.148,9.917V44.614Z" fill="url(#linear-gradient-2)"/>
    <path id="polygon36" d="M22.233,25.12V44.613h.856V25.12l16.936-9.789-.43-.742L32.744,18.55l-.009-.014L22.662,24.359,12.587,18.536l-.009.014L5.727,14.588l-.43.742Z" fill="#197492"/>
    <path id="path38" d="M40.025,14.589,22.849,4.672a.432.432,0,0,0-.429,0L5.3,14.588a.431.431,0,0,0-.214.376V34.7a.432.432,0,0,0,.214.371l17.148,9.922a.434.434,0,0,0,.43,0l17.149-9.912a.427.427,0,0,0,.213-.375V14.959A.429.429,0,0,0,40.025,14.589Zm-.643,19.862L22.663,44.118,5.946,34.449V15.206L22.632,5.538l16.747,9.669Z" fill="#474647"/>
    <path id="path43-5" d="M38.348,2.719l2.623,2.624h-13.6a6.112,6.112,0,0,0-6.1,6.105v5.166h2.818V11.448A3.292,3.292,0,0,1,27.371,8.16h13.6l-2.623,2.624,1.992,1.992,6.024-6.024L40.34.727Z" fill="#3c91af"/>
    <path id="path45-4" d="M23.614,16.238v-4.79a3.761,3.761,0,0,1,3.757-3.757H42.105l-3.093,3.093,1.328,1.328,5.36-5.36L40.34,1.391,39.012,2.719l3.093,3.093H27.371a5.641,5.641,0,0,0-5.635,5.636v4.79h1.878m.94.939H20.8V11.448a6.582,6.582,0,0,1,6.575-6.575H39.837l-1.489-1.49-.664-.664.664-.664L39.676.727,40.34.063,41,.727l5.36,5.36.664.665-.664.664L41,12.776l-.664.664-.664-.664-1.328-1.328-.664-.664.664-.664,1.489-1.49H27.371a2.821,2.821,0,0,0-2.817,2.818v5.729Z" fill="#147391"/>
    <g id="g51">
      <path id="path41" d="M39.874,35.132,22.819,44.994a.432.432,0,0,1-.429,0L5.334,35.125a.428.428,0,0,1-.212-.369V33.027L1.958,34.911a.048.048,0,0,0-.018.033c0,.019.021.03.034.038L22.509,47.027a.2.2,0,0,0,.107.033.182.182,0,0,0,.094-.023L43.248,34.968s.019-.015.019-.024-.021-.03-.034-.039l-3.147-1.878v1.729A.43.43,0,0,1,39.874,35.132Z" fill="url(#linear-gradient-3)"/>
      <path id="path43" d="M22.033,47.837a1.12,1.12,0,0,0,1.163,0A1.12,1.12,0,0,1,22.033,47.837Z" fill="#4f4b49"/>
      <path id="path45" d="M22.615,21.7a1.115,1.115,0,0,0-.3.042A1.115,1.115,0,0,1,22.615,21.7Z" fill="#4f4b49"/>
      <path id="path47" d="M22.615,21.7a1.115,1.115,0,0,0-.3.042A1.115,1.115,0,0,1,22.615,21.7Z" fill="url(#linear-gradient-4)"/>
      <path id="path49" d="M43.729,34.1l-3.643-2.172v1.093L43.233,34.9c.013.009.034.024.034.039s-.019.029-.019.029L22.705,47.037a.182.182,0,0,1-.094.023.19.19,0,0,1-.106-.033L1.974,34.978c-.013-.009-.034-.025-.034-.034s.018-.028.018-.028l3.164-1.884V31.938L1.477,34.109a.97.97,0,0,0,.006,1.674l20.55,12.054a1.12,1.12,0,0,0,1.163,0L43.724,35.778a.969.969,0,0,0,.005-1.674Z" fill="#474647"/>
    </g>
  </g>
</svg>
