<svg version="1.1"
	 id="Image" xmlns:dc="http://purl.org/dc/elements/1.1/" xmlns:inkscape="http://www.inkscape.org/namespaces/inkscape" xmlns:rdf="http://www.w3.org/1999/02/22-rdf-syntax-ns#" xmlns:cc="http://creativecommons.org/ns#" xmlns:svg="http://www.w3.org/2000/svg" xmlns:sodipodi="http://sodipodi.sourceforge.net/DTD/sodipodi-0.dtd" inkscape:version="0.92.4 (5da689c313, 2019-01-14)" sodipodi:docname="carrier gradienti cancellati.svg"
	 xmlns="http://www.w3.org/2000/svg" xmlns:xlink="http://www.w3.org/1999/xlink" x="0px" y="0px" 
	 viewBox="0 0 48 48" enable-background="new 0 0 48 48" xml:space="preserve">
<linearGradient id="rect947_1_" gradientUnits="userSpaceOnUse" x1="274.543" y1="-352.3384" x2="280.027" y2="-354.9273" gradientTransform="matrix(1.1441 0 0 -1.0698 -280.0086 -343.9328)">
	<stop  offset="0" style="stop-color:#F2F2F2"/>
	<stop  offset="1" style="stop-color:#999999"/>
</linearGradient>
<path id="rect947" fill="url(#rect947_1_)" d="M33.852,31.483h5.29c0.159,0,0.286,0.128,0.286,0.286v4.582
	c0,0.158-0.127,0.286-0.286,0.286h-5.29c-0.158,0-0.286-0.128-0.286-0.286V31.77C33.565,31.611,33.693,31.483,33.852,31.483z"/>
<path id="rect990-1" fill="#464646" d="M43.123,3.901h3.408c0.26,0,0.469,0.209,0.469,0.469V6c0,0.26-0.209,0.469-0.469,0.469
	h-3.408c-0.26,0-0.47-0.209-0.47-0.469V4.371C42.653,4.111,42.863,3.901,43.123,3.901z"/>
<linearGradient id="rect957-8_1_" gradientUnits="userSpaceOnUse" x1="-218.2583" y1="-331.29" x2="-219.8614" y2="-344.3357" gradientTransform="matrix(0.4252 -0.9817 -0.9817 -0.4252 -199.3992 -341.6079)">
	<stop  offset="0" style="stop-color:#F2F2F2"/>
	<stop  offset="1" style="stop-color:#999999"/>
</linearGradient>
<path id="rect957-8" inkscape:connector-curvature="0" sodipodi:nodetypes="sssssssss" fill="url(#rect957-8_1_)" stroke="#464646" stroke-width="1.0698" stroke-linecap="round" stroke-linejoin="round" d="
	M32.337,27.912L42.609,4.606c0.064-0.145,0.231-0.212,0.377-0.149l1.365,0.591c0.146,0.063,0.213,0.231,0.149,0.376L34.229,28.73
	c-0.064,0.145-0.231,0.212-0.377,0.148l-1.365-0.591C32.34,28.225,32.273,28.057,32.337,27.912z"/>
<linearGradient id="rect4642-4_1_" gradientUnits="userSpaceOnUse" x1="232.8623" y1="-380.7852" x2="272.1382" y2="-408.4126" gradientTransform="matrix(1.188 0 0 -0.9579 -276.2639 -352.7079)">
	<stop  offset="0" style="stop-color:#A5CFDC"/>
	<stop  offset="0.128" style="stop-color:#9CC9D7"/>
	<stop  offset="0.335" style="stop-color:#84BACB"/>
	<stop  offset="0.596" style="stop-color:#5EA2B7"/>
	<stop  offset="0.896" style="stop-color:#28809B"/>
	<stop  offset="1" style="stop-color:#147391"/>
</linearGradient>
<path id="rect4642-4" fill="url(#rect4642-4_1_)" stroke="#464646" stroke-width="1.0698" d="M11.583,19.355h26.465
	c1.259,0,2.272,1.014,2.272,2.273v8.594c0,1.26-1.014,2.273-2.272,2.273H11.583c-1.259,0-2.273-1.014-2.273-2.273v-8.594
	C9.311,20.369,10.324,19.355,11.583,19.355z"/>
<linearGradient id="path3790-5-9-9_1_" gradientUnits="userSpaceOnUse" x1="406.751" y1="-511.1846" x2="412.8458" y2="-511.1846" gradientTransform="matrix(0.724 0 0 -0.7457 -263.5085 -352.8632)">
	<stop  offset="0" style="stop-color:#F2F2F2"/>
	<stop  offset="1" style="stop-color:#999999"/>
</linearGradient>
<path id="path3790-5-9-9" fill="url(#path3790-5-9-9_1_)" stroke="#464646" stroke-width="0.8045" d="M34.98,28.338
	c0,1.029-0.811,1.864-1.811,1.864c-0.999,0-1.81-0.835-1.81-1.864s0.811-1.864,1.81-1.864l0,0
	C34.17,26.474,34.98,27.309,34.98,28.338L34.98,28.338z"/>
<linearGradient id="rect905_1_" gradientUnits="userSpaceOnUse" x1="-190.1968" y1="-285.5601" x2="-189.0509" y2="-291.049" gradientTransform="matrix(0.4773 -0.868 -1.1999 -0.7394 -215.8042 -340.7749)">
	<stop  offset="0" style="stop-color:#F2F2F2"/>
	<stop  offset="1" style="stop-color:#999999"/>
</linearGradient>
<path id="rect905" fill="url(#rect905_1_)" stroke="#464646" stroke-width="1.1816" stroke-linecap="round" stroke-linejoin="round" d="
	M35.537,39.451l4.135-7.518c0.1-0.183,0.324-0.242,0.502-0.133l4.063,2.504c0.178,0.109,0.24,0.345,0.139,0.527l-4.133,7.518
	c-0.102,0.184-0.326,0.242-0.504,0.133l-4.062-2.502C35.499,39.87,35.437,39.635,35.537,39.451z"/>
<path id="path3790" fill="#464646" d="M14.442,41.326c0,1.477-1.197,2.674-2.674,2.674s-2.675-1.197-2.675-2.674
	c0-1.478,1.198-2.676,2.675-2.676S14.442,39.849,14.442,41.326z"/>
<linearGradient id="path3792_1_" gradientUnits="userSpaceOnUse" x1="275.4844" y1="-346.9741" x2="278.6281" y2="-349.9942" gradientTransform="matrix(1.0698 0 0 -1.0698 -284.5505 -331.4094)">
	<stop  offset="0" style="stop-color:#F2F2F2"/>
	<stop  offset="1" style="stop-color:#999999"/>
</linearGradient>
<path id="path3792" fill="url(#path3792_1_)" d="M13.372,41.326c0,0.886-0.718,1.604-1.604,1.604s-1.605-0.718-1.605-1.604
	c0-0.887,0.719-1.605,1.605-1.605S13.372,40.439,13.372,41.326z"/>
<path id="path4607" fill="#464646" d="M12.302,41.326c0,0.295-0.239,0.534-0.535,0.534s-0.535-0.239-0.535-0.534
	c0-0.296,0.24-0.535,0.535-0.535S12.302,41.03,12.302,41.326z"/>
<path id="path3790-5" fill="#464646" d="M31.559,41.326c0,1.477-1.197,2.674-2.674,2.674c-1.478,0-2.675-1.197-2.675-2.674
	c0-1.478,1.197-2.676,2.675-2.676C30.361,38.65,31.559,39.849,31.559,41.326z"/>
<linearGradient id="path3792-6_1_" gradientUnits="userSpaceOnUse" x1="275.4834" y1="-346.9741" x2="278.6272" y2="-349.9943" gradientTransform="matrix(1.0698 0 0 -1.0698 -267.4333 -331.4094)">
	<stop  offset="0" style="stop-color:#F2F2F2"/>
	<stop  offset="1" style="stop-color:#999999"/>
</linearGradient>
<path id="path3792-6" fill="url(#path3792-6_1_)" d="M30.488,41.326c0,0.886-0.718,1.604-1.604,1.604
	c-0.887,0-1.605-0.718-1.605-1.604c0-0.887,0.719-1.605,1.605-1.605C29.771,39.721,30.488,40.439,30.488,41.326z"/>
<path id="path4607-5" fill="#464646" d="M29.419,41.326c0,0.295-0.239,0.534-0.534,0.534c-0.296,0-0.535-0.239-0.535-0.534
	c0-0.296,0.239-0.535,0.535-0.535C29.18,40.791,29.419,41.03,29.419,41.326z"/>
<path id="path873" inkscape:connector-curvature="0" sodipodi:nodetypes="cc" fill="none" stroke="#464646" stroke-width="1.0698" stroke-linecap="round" d="
	M5.915,27.282l3.745-6.927"/>
<path id="path873-1" inkscape:connector-curvature="0" sodipodi:nodetypes="cc" fill="none" stroke="#464646" stroke-width="1.0698" stroke-linecap="round" d="
	M35.167,27.579L39.369,20"/>
<linearGradient id="rect905-2_1_" gradientUnits="userSpaceOnUse" x1="-190.1978" y1="-285.5605" x2="-189.052" y2="-291.049" gradientTransform="matrix(0.4773 -0.868 -1.1999 -0.7394 -249.7202 -344.2788)">
	<stop  offset="0" style="stop-color:#F2F2F2"/>
	<stop  offset="1" style="stop-color:#999999"/>
</linearGradient>
<path id="rect905-2" fill="url(#rect905-2_1_)" stroke="#464646" stroke-width="1.1816" stroke-linecap="round" stroke-linejoin="round" d="
	M1.623,35.949l4.134-7.518c0.101-0.184,0.325-0.242,0.503-0.133l4.062,2.503c0.178,0.11,0.24,0.346,0.14,0.528l-4.134,7.518
	c-0.101,0.184-0.325,0.242-0.503,0.133l-4.062-2.503C1.584,36.368,1.522,36.133,1.623,35.949z"/>
<linearGradient id="rect4642_1_" gradientUnits="userSpaceOnUse" x1="235.8926" y1="-384.0566" x2="265.8278" y2="-403.1664" gradientTransform="matrix(1.188 0 0 -0.9579 -280.219 -345.4892)">
	<stop  offset="0" style="stop-color:#A5CFDC"/>
	<stop  offset="0.128" style="stop-color:#9CC9D7"/>
	<stop  offset="0.335" style="stop-color:#84BACB"/>
	<stop  offset="0.596" style="stop-color:#5EA2B7"/>
	<stop  offset="0.896" style="stop-color:#28809B"/>
	<stop  offset="1" style="stop-color:#147391"/>
</linearGradient>
<path id="rect4642" fill="url(#rect4642_1_)" stroke="#464646" stroke-width="1.0698" d="M7.628,26.574h26.464
	c1.259,0,2.273,1.014,2.273,2.273v8.594c0,1.259-1.015,2.272-2.273,2.272H7.628c-1.259,0-2.273-1.014-2.273-2.272v-8.594
	C5.355,27.588,6.369,26.574,7.628,26.574z"/>
<path id="rect990" fill="#464646" d="M38.227,5.796h3.764c0.26,0,0.469,0.209,0.469,0.469v1.628c0,0.26-0.209,0.469-0.469,0.469
	h-3.764c-0.26,0-0.47-0.209-0.47-0.469V6.266C37.757,6.005,37.967,5.796,38.227,5.796z"/>
<linearGradient id="rect957_1_" gradientUnits="userSpaceOnUse" x1="-218.1875" y1="-330.6978" x2="-219.9109" y2="-344.7377" gradientTransform="matrix(0.4252 -0.9817 -0.9817 -0.4252 -204.2566 -339.7133)">
	<stop  offset="0" style="stop-color:#F2F2F2"/>
	<stop  offset="1" style="stop-color:#999999"/>
</linearGradient>
<path id="rect957" inkscape:connector-curvature="0" sodipodi:nodetypes="sssssssss" fill="url(#rect957_1_)" stroke="#464646" stroke-width="1.0698" stroke-linecap="round" stroke-linejoin="round" d="
	M27.479,29.807L37.752,6.501c0.064-0.146,0.23-0.212,0.377-0.149l1.365,0.591c0.146,0.063,0.213,0.231,0.148,0.376L29.369,30.625
	c-0.063,0.146-0.23,0.213-0.376,0.149l-1.366-0.592C27.482,30.119,27.414,29.951,27.479,29.807z"/>
<linearGradient id="path3790-5-9_1_" gradientUnits="userSpaceOnUse" x1="406.75" y1="-511.1841" x2="412.8448" y2="-511.1841" gradientTransform="matrix(0.724 0 0 -0.7457 -268.3664 -350.9687)">
	<stop  offset="0" style="stop-color:#F2F2F2"/>
	<stop  offset="1" style="stop-color:#999999"/>
</linearGradient>
<path id="path3790-5-9" fill="url(#path3790-5-9_1_)" stroke="#464646" stroke-width="0.8045" d="M30.122,30.232
	c0,1.029-0.811,1.864-1.81,1.864l0,0c-1,0-1.811-0.835-1.811-1.864l0,0c0-1.029,0.811-1.864,1.811-1.864
	C29.312,28.368,30.122,29.203,30.122,30.232z"/>
</svg>
