<svg id="Image" xmlns="http://www.w3.org/2000/svg" xmlns:xlink="http://www.w3.org/1999/xlink" viewBox="0 0 48 48">
  <defs>
    <linearGradient id="linear-gradient" x1="-0.102" y1="-697.356" x2="40.148" y2="-737.606" gradientTransform="matrix(1, 0, 0, -1, 0, -694)" gradientUnits="userSpaceOnUse">
      <stop offset="0" stop-color="#afd7e1"/>
      <stop offset="1" stop-color="#73b4c8"/>
    </linearGradient>
    <linearGradient id="linear-gradient-2" x1="13.467" y1="-704.04" x2="27.138" y2="-717.71" gradientTransform="matrix(1, 0, 0, -1, 0, -694)" gradientUnits="userSpaceOnUse">
      <stop offset="0" stop-color="#73b4c8"/>
      <stop offset="1" stop-color="#177491"/>
    </linearGradient>
    <linearGradient id="linear-gradient-3" x1="109.591" y1="1303.094" x2="129.225" y2="1322.728" gradientTransform="translate(-68.44 -1103.207) scale(0.867)" gradientUnits="userSpaceOnUse">
      <stop offset="0" stop-color="#6ab1c3"/>
      <stop offset="0.175" stop-color="#64acbe"/>
      <stop offset="0.457" stop-color="#509cb0"/>
      <stop offset="0.809" stop-color="#31849d"/>
      <stop offset="1" stop-color="#1f7690"/>
    </linearGradient>
  </defs>
  <g id="g975">
    <g id="g28">
      <g id="g18">
        <path id="path14" d="M38.5,45.252l.091-25.908v-.136H46.5a66.81,66.81,0,0,1-5.727-7.772c-2.092-3.488-2.18-8.855-2.182-9.591V1.754H1.5v43.5h37" fill="url(#linear-gradient)"/>
        <path id="path16" d="M38.5,45.752H1.5a.5.5,0,0,1-.5-.5V1.776a.5.5,0,0,1,.238-.452.492.492,0,0,1,.311-.07h37.04a.5.5,0,0,1,.5.5c0,.688.074,6.032,2.11,9.424a66.539,66.539,0,0,0,5.676,7.7.5.5,0,0,1-.378.827H39.091L39,45.254A.5.5,0,0,1,38.5,45.752Zm-36.5-1H38l.09-25.544a.5.5,0,0,1,.5-.5h6.837a63.6,63.6,0,0,1-5.084-7.015C38.421,8.487,38.137,3.868,38.1,2.254H2Z" fill="#464646"/>
      </g>
      <path id="path20" d="M19.909,19.71a16.524,16.524,0,0,1-14.35-9.067C1.7,3.2,1.152,2.157,1.075,2.014l-.019-.036a.5.5,0,0,1,.2-.677h.008c.286-.146.388-.2.66.236l.017-.008a.4.4,0,0,1,.036.1c.144.243.332.605.608,1.134.592,1.137,1.718,3.3,3.853,7.422A15.451,15.451,0,0,0,20.02,18.709H38.592a.5.5,0,0,1,0,1H19.909Z" fill="#464646"/>
      <g id="g26">
        <path id="path22" d="M31.637,19.211c-3.068-.611-9-6.753-9-6.753L8.968,14.539s4.949,4.632,10.157,4.672S31.637,19.211,31.637,19.211Z" fill="url(#linear-gradient-2)"/>
        <path id="path24" d="M24.67,19.728c-1.856,0-3.822,0-5.549-.018C13.779,19.67,8.834,15.1,8.626,14.9a.5.5,0,0,1,.267-.86l13.669-2.08a.5.5,0,0,1,.435.147c.059.06,5.858,6.035,8.738,6.609a.5.5,0,0,1-.094.99C31.592,19.711,28.351,19.728,24.67,19.728ZM10.132,14.867c1.59,1.264,5.258,3.816,9,3.843,3.343.026,7.59.019,10.174.01a42.765,42.765,0,0,1-6.843-5.729Z" fill="#464646"/>
      </g>
    </g>
    <g id="g34">
      <path id="rect30" d="M9.208,8.25h27.25a1,1,0,0,1,1,1v1a1,1,0,0,1-1,1H9.208a1,1,0,0,1-1-1v-1A1,1,0,0,1,9.208,8.25Z" fill="#fff"/>
      <path id="path32" d="M32.433,13.906H26.87a16.6,16.6,0,0,0,1.569,1.678,12.308,12.308,0,0,0,1.719,1.322h2.275a1,1,0,0,0,1-1v-1A1,1,0,0,0,32.433,13.906Z" fill="#fff"/>
    </g>
    <g id="g42">
      <path id="rect36" d="M4.875,30.708h24a1,1,0,0,1,1,1v1a1,1,0,0,1-1,1h-24a1,1,0,0,1-1-1v-1A1,1,0,0,1,4.875,30.708Z" fill="#fff"/>
      <path id="rect38" d="M4.875,24.5H35a1,1,0,0,1,1,1v1a1,1,0,0,1-1,1H4.875a1,1,0,0,1-1-1v-1A1,1,0,0,1,4.875,24.5Z" fill="#fff"/>
      <path id="rect40" d="M4.875,36.917h16.5a1,1,0,0,1,1,1v1a1,1,0,0,1-1,1H4.875a1,1,0,0,1-1-1v-1A1,1,0,0,1,4.875,36.917Z" fill="#fff"/>
    </g>
    <path id="circle42-5" d="M47.037,35A12.037,12.037,0,0,1,35,47.037h0A12.037,12.037,0,0,1,22.963,35h0A12.037,12.037,0,0,1,35,22.963h0A12.037,12.037,0,0,1,47.037,35Z" fill="url(#linear-gradient-3)"/>
    <path id="path44-9" d="M35,48A13,13,0,1,1,48,35,13,13,0,0,1,35,48Zm0-25.037A12.037,12.037,0,1,0,47.038,35,12.037,12.037,0,0,0,35,22.963Z" fill="#3f4143"/>
    <path id="path931" d="M32.027,27.236a8.325,8.325,0,0,0-4.649,3.78l1.635.776a6.792,6.792,0,0,1,8.968-2.271,5.54,5.54,0,0,1,1.6,1.106,3.938,3.938,0,0,1-.808.051c-.432,0-.818.015-.855.026A7.628,7.628,0,0,0,38,32.52c.025.014,1.018.019,2.208.01s2.2-.022,2.246-.032.082-.076.082-.148c0-.223-.262-4.546-.283-4.694-.017-.121-.134-.141-.843-.135-.569,0-.83.036-.843.1s0,.415.03.812a4.42,4.42,0,0,1,.018.706c-.015-.009-.3-.221-.633-.472A8.642,8.642,0,0,0,32.027,27.236Z" fill="#fff" stroke="#187491" stroke-width="1.5"/>
    <path id="path934" d="M37.987,32.3a6.609,6.609,0,0,1-.045-.855c0-.509.022-.639.114-.675a5.156,5.156,0,0,1,.833-.043c.827,0,.851-.035.315-.442a9,9,0,0,0-2.879-1.4,9.2,9.2,0,0,0-3.23,0,7.312,7.312,0,0,0-3.868,2.6l-.214.3-.767-.359c-.421-.2-.778-.369-.792-.383a6.775,6.775,0,0,1,1.295-1.7,8.4,8.4,0,0,1,4.656-2.367,11.107,11.107,0,0,1,3.221.14,9.557,9.557,0,0,1,3.366,1.623c.277.2.546.395.6.427.077.046.085-.092.045-.735l-.051-.791.483-.051a3.427,3.427,0,0,1,1.159.056c.033.037.3,4.766.268,4.818-.016.029-1.026.054-2.245.054H38.032Z" fill="#fff"/>
    <path id="path931-8" d="M38.082,43.179a8.578,8.578,0,0,0,4.074-2.909,8.357,8.357,0,0,0,.574-.872L41.1,38.623a6.793,6.793,0,0,1-8.969,2.271,5.488,5.488,0,0,1-1.6-1.107,3.98,3.98,0,0,1,.808-.05c.432,0,.817-.015.854-.026a7.587,7.587,0,0,0-.086-1.817c-.024-.013-1.018-.018-2.207-.01s-2.2.023-2.246.032-.083.077-.082.149c0,.222.262,4.545.283,4.694.017.121.134.141.842.135.57,0,.83-.036.843-.1a8.037,8.037,0,0,0-.029-.812,4.5,4.5,0,0,1-.019-.706c.016.009.3.221.634.472a8.642,8.642,0,0,0,7.956,1.429Z" fill="#fff" stroke="#187491" stroke-width="1.5"/>
    <path id="path934-0" d="M32.121,38.113a6.418,6.418,0,0,1,.045.855c0,.509-.022.639-.114.674a5.089,5.089,0,0,1-.833.044c-.826,0-.851.035-.315.442a9.008,9.008,0,0,0,2.88,1.4,9.2,9.2,0,0,0,3.23,0,7.321,7.321,0,0,0,3.868-2.6l.214-.3.766.358c.422.2.779.37.793.384a6.814,6.814,0,0,1-1.3,1.7A8.4,8.4,0,0,1,36.7,43.429a11.108,11.108,0,0,1-3.221-.14,9.539,9.539,0,0,1-3.365-1.624c-.277-.2-.546-.394-.6-.426-.076-.046-.085.092-.044.734l.05.792-.483.051a3.459,3.459,0,0,1-1.159-.056c-.032-.037-.295-4.766-.268-4.818.016-.029,1.026-.054,2.245-.054h2.216Z" fill="#fff"/>
  </g>
</svg>
