<svg id="Layer_1" data-name="Layer 1" xmlns="http://www.w3.org/2000/svg" xmlns:xlink="http://www.w3.org/1999/xlink" viewBox="0 0 48 48">
  <defs>
    <linearGradient id="linear-gradient" x1="30.092" y1="-18.019" x2="41.304" y2="-30.919" gradientTransform="matrix(0.845, 0, 0, -0.867, -24.453, 0.515)" gradientUnits="userSpaceOnUse">
      <stop offset="0" stop-color="#f2f2f2"/>
      <stop offset="0.5" stop-color="#ccc"/>
      <stop offset="0.63" stop-color="#c7c7c7"/>
      <stop offset="0.779" stop-color="#b9b9b9"/>
      <stop offset="0.938" stop-color="#a2a2a2"/>
      <stop offset="0.99" stop-color="#999"/>
    </linearGradient>
    <linearGradient id="linear-gradient-2" x1="-58.613" y1="96.072" x2="-47.401" y2="83.173" gradientTransform="matrix(1.152, 0, 0, -1.182, 80.609, 134.066)" gradientUnits="userSpaceOnUse">
      <stop offset="0" stop-color="#afd7e1"/>
      <stop offset="0.159" stop-color="#a4d0dc"/>
      <stop offset="0.706" stop-color="#80bcce"/>
      <stop offset="1" stop-color="#73b4c8"/>
    </linearGradient>
    <linearGradient id="linear-gradient-3" x1="30.092" y1="-18.019" x2="41.304" y2="-30.919" gradientTransform="matrix(0.845, 0, 0, -0.867, 6.547, 0.515)" xlink:href="#linear-gradient"/>
  </defs>
  <g id="g1108">
    <path id="rect1862-8-2-7" d="M.04,18.01H47.96a.046.046,0,0,1,.04.05v2.9a.047.047,0,0,1-.04.051H.04A.047.047,0,0,1,0,20.959v-2.9A.046.046,0,0,1,.04,18.01Z" fill="#32859e"/>
    <path id="rect1171" d="M10.469,13.642l2.152-1.34c.016-.009.028,0,.028.016V29.44a.063.063,0,0,1-.028.05l-2.152,1.34c-.016.01-.028,0-.028-.015V13.693A.066.066,0,0,1,10.469,13.642Z" fill="#979797"/>
    <path id="rect1169" d="M5.433,11.65h6.8c.018,0,.02.009.006.019L9.623,13.588a.108.108,0,0,1-.057.019h-6.8c-.018,0-.021-.008-.007-.019l2.615-1.919A.117.117,0,0,1,5.433,11.65Z" fill="#979797"/>
    <path id="rect1115" d="M2.54,13.766H10.2V31.271H2.54Z" fill="url(#linear-gradient)"/>
    <path id="rect989-8" d="M2.366,30.9h7.905a.38.38,0,0,1,.366.395v.056a.38.38,0,0,1-.366.395H2.366A.38.38,0,0,1,2,31.352V31.3A.38.38,0,0,1,2.366,30.9Z" fill="#464646"/>
    <path id="rect989-8-7" d="M2.366,13.131h7.905a.38.38,0,0,1,.366.395v.056a.38.38,0,0,1-.366.395H2.366A.38.38,0,0,1,2,13.582v-.056A.38.38,0,0,1,2.366,13.131Z" fill="#464646"/>
    <path id="rect989-8-7-2" d="M10.637,13.526V31.352a.38.38,0,0,1-.366.395h-.053a.38.38,0,0,1-.366-.395V13.526a.38.38,0,0,1,.366-.395h.053A.38.38,0,0,1,10.637,13.526Z" fill="#464646"/>
    <path id="rect989-8-7-2-5" d="M2.785,13.526V31.352a.38.38,0,0,1-.366.395H2.366A.38.38,0,0,1,2,31.352V13.526a.38.38,0,0,1,.366-.395h.053A.38.38,0,0,1,2.785,13.526Z" fill="#464646"/>
    <path id="rect989-8-7-2-7" d="M12.993,11.834V29.66a.381.381,0,0,1-.367.395h-.052a.381.381,0,0,1-.367-.395V11.834a.381.381,0,0,1,.367-.395h.052A.381.381,0,0,1,12.993,11.834Z" fill="#464646"/>
    <path id="path1068" d="M12.54,29.341a.333.333,0,0,0-.193.066l-2.251,1.6a.408.408,0,0,0-.1.54.346.346,0,0,0,.5.11h0l2.25-1.6a.408.408,0,0,0,.11-.538A.353.353,0,0,0,12.54,29.341Z" fill="#464646"/>
    <path id="path1068-8" d="M12.557,11.452a.35.35,0,0,0-.2.068l-2.3,1.624a.417.417,0,0,0-.107.55.353.353,0,0,0,.51.115h0l2.3-1.625a.416.416,0,0,0,.114-.548A.364.364,0,0,0,12.557,11.452Z" fill="#464646"/>
    <path id="path1068-8-2" d="M4.676,11.4a.352.352,0,0,0-.2.068L2.175,13.091a.417.417,0,0,0-.107.55.353.353,0,0,0,.51.115h0l2.305-1.625A.414.414,0,0,0,5,11.584.36.36,0,0,0,4.676,11.4Z" fill="#464646"/>
    <path id="rect989-8-7-6" d="M4.722,11.384h7.9a.381.381,0,0,1,.367.395v.056a.381.381,0,0,1-.367.395h-7.9a.38.38,0,0,1-.366-.395v-.056A.38.38,0,0,1,4.722,11.384Z" fill="#464646"/>
    <path id="rect1440-9-0" d="M3.952,15.753H8.685a.034.034,0,0,1,.032.035v3.077a.034.034,0,0,1-.032.035H3.952a.034.034,0,0,1-.032-.035V15.788A.034.034,0,0,1,3.952,15.753Z" fill="#979797" stroke="#464646" stroke-linecap="round" stroke-miterlimit="10" stroke-width="0.8"/>
    <path id="rect1442-9-38" d="M3.957,22.439h4.7a.028.028,0,0,1,.027.029v7.513a.028.028,0,0,1-.027.029h-4.7a.027.027,0,0,1-.026-.029V22.468A.027.027,0,0,1,3.957,22.439Z" fill="#979797" stroke="#464646" stroke-linecap="round" stroke-miterlimit="10" stroke-width="0.8"/>
    <path id="rect1171-7-1" d="M26.049,16.74l2.934-1.852c.021-.013.039,0,.039.021V38.575a.093.093,0,0,1-.039.07L26.049,40.5c-.022.013-.039,0-.039-.021V16.81A.09.09,0,0,1,26.049,16.74Z" fill="#32859e"/>
    <path id="rect1169-3-8" d="M19.16,14.342h9.216c.024,0,.028.012.009.026L24.84,16.985a.154.154,0,0,1-.077.026H15.547c-.024,0-.028-.012-.009-.026l3.545-2.617A.154.154,0,0,1,19.16,14.342Z" fill="#32859e"/>
    <path id="rect1115-5-1" d="M15.236,17.227h10.44V41.1H15.236Z" fill="url(#linear-gradient-2)"/>
    <g id="g1134-6-3">
      <path id="rect989-8-3-4" d="M15,40.593H25.778a.519.519,0,0,1,.5.539v.077a.519.519,0,0,1-.5.538H15a.519.519,0,0,1-.5-.538v-.077A.519.519,0,0,1,15,40.593Z" fill="#464646"/>
      <path id="rect989-8-7-3-3" d="M15,16.362H25.778a.519.519,0,0,1,.5.538v.077a.519.519,0,0,1-.5.538H15a.519.519,0,0,1-.5-.538V16.9A.519.519,0,0,1,15,16.362Z" fill="#464646"/>
      <path id="rect989-8-7-2-0-5" d="M26.278,16.9V41.209a.519.519,0,0,1-.5.538h-.071a.519.519,0,0,1-.5-.538V16.9a.519.519,0,0,1,.5-.538h.071A.519.519,0,0,1,26.278,16.9Z" fill="#464646"/>
      <path id="rect989-8-7-2-5-8-5" d="M15.571,16.9V41.209a.519.519,0,0,1-.5.538H15a.519.519,0,0,1-.5-.538V16.9a.519.519,0,0,1,.5-.538h.071A.519.519,0,0,1,15.571,16.9Z" fill="#464646"/>
      <path id="rect989-8-7-2-7-8-4" d="M29.49,14.592V38.9a.519.519,0,0,1-.5.538h-.071a.519.519,0,0,1-.5-.538V14.592a.519.519,0,0,1,.5-.538h.071A.519.519,0,0,1,29.49,14.592Z" fill="#464646"/>
      <path id="path1068-6-7" d="M28.965,38.425a.486.486,0,0,0-.268.092l-3.143,2.214a.567.567,0,0,0-.145.749.481.481,0,0,0,.7.157l3.141-2.214a.565.565,0,0,0,.156-.746A.494.494,0,0,0,28.965,38.425Z" fill="#464646"/>
      <path id="path1068-8-24-9" d="M28.986,13.975a.477.477,0,0,0-.27.092L25.575,16.28a.566.566,0,0,0-.176.742.483.483,0,0,0,.688.19l.036-.026,3.143-2.213a.566.566,0,0,0,.156-.746A.494.494,0,0,0,28.986,13.975Z" fill="#464646"/>
      <path id="path1068-8-2-8-0" d="M18.149,14a.475.475,0,0,0-.267.092l-3.144,2.215a.568.568,0,0,0-.145.75.481.481,0,0,0,.7.157h0L18.432,15a.566.566,0,0,0,.155-.747A.491.491,0,0,0,18.149,14Z" fill="#464646"/>
      <path id="rect989-8-7-6-2-6" d="M18.212,13.979H28.99a.519.519,0,0,1,.5.539V14.6a.519.519,0,0,1-.5.538H18.212a.519.519,0,0,1-.5-.538v-.077A.519.519,0,0,1,18.212,13.979Z" fill="#464646"/>
    </g>
    <path id="rect1440-9-0-9-8" d="M17.162,19.938h6.454a.046.046,0,0,1,.044.047v4.2a.046.046,0,0,1-.044.047H17.162a.045.045,0,0,1-.044-.047v-4.2A.045.045,0,0,1,17.162,19.938Z" fill="#979797" stroke="#464646" stroke-linecap="round" stroke-miterlimit="10"/>
    <path id="rect1442-9-38-4-9" d="M17.169,29.054h6.41a.038.038,0,0,1,.036.039V39.339a.037.037,0,0,1-.036.039h-6.41a.037.037,0,0,1-.036-.039V29.093A.038.038,0,0,1,17.169,29.054Z" fill="#979797" stroke="#464646" stroke-linecap="round" stroke-miterlimit="10"/>
    <path id="rect1171-3" d="M41.469,13.642l2.152-1.34c.016-.009.028,0,.028.016V29.44a.063.063,0,0,1-.028.05l-2.152,1.34c-.016.01-.028,0-.028-.015V13.693A.066.066,0,0,1,41.469,13.642Z" fill="#979797"/>
    <path id="rect1169-4" d="M36.433,11.65h6.8c.018,0,.02.009.006.019l-2.614,1.919a.108.108,0,0,1-.057.019h-6.8c-.018,0-.021-.008-.007-.019l2.615-1.919A.117.117,0,0,1,36.433,11.65Z" fill="#979797"/>
    <path id="rect1115-8" d="M33.54,13.766H41.2V31.271H33.54Z" fill="url(#linear-gradient-3)"/>
    <path id="rect989-8-2" d="M33.366,30.9h7.905a.38.38,0,0,1,.366.395v.056a.38.38,0,0,1-.366.395H33.366A.38.38,0,0,1,33,31.352V31.3A.38.38,0,0,1,33.366,30.9Z" fill="#464646"/>
    <path id="rect989-8-7-9" d="M33.366,13.131h7.905a.38.38,0,0,1,.366.395v.056a.38.38,0,0,1-.366.395H33.366A.38.38,0,0,1,33,13.582v-.056A.38.38,0,0,1,33.366,13.131Z" fill="#464646"/>
    <path id="rect989-8-7-2-6" d="M41.637,13.526V31.352a.38.38,0,0,1-.366.395h-.053a.38.38,0,0,1-.366-.395V13.526a.38.38,0,0,1,.366-.395h.053A.38.38,0,0,1,41.637,13.526Z" fill="#464646"/>
    <path id="rect989-8-7-2-5-7" d="M33.785,13.526V31.352a.38.38,0,0,1-.366.395h-.053A.38.38,0,0,1,33,31.352V13.526a.38.38,0,0,1,.366-.395h.053A.38.38,0,0,1,33.785,13.526Z" fill="#464646"/>
    <path id="rect989-8-7-2-7-1" d="M43.993,11.834V29.66a.381.381,0,0,1-.367.395h-.052a.381.381,0,0,1-.367-.395V11.834a.381.381,0,0,1,.367-.395h.052A.381.381,0,0,1,43.993,11.834Z" fill="#464646"/>
    <path id="path1068-5" d="M43.585,29.3a.347.347,0,0,0-.192.068l-2.3,1.648a.407.407,0,0,0-.116.536.347.347,0,0,0,.5.124l.018-.013,2.3-1.646a.408.408,0,0,0,.111-.537A.357.357,0,0,0,43.585,29.3Z" fill="#464646"/>
    <path id="path1068-8-9" d="M43.557,11.452a.35.35,0,0,0-.2.068l-2.3,1.624a.417.417,0,0,0-.107.55.353.353,0,0,0,.51.115h0l2.3-1.625a.416.416,0,0,0,.114-.548A.364.364,0,0,0,43.557,11.452Z" fill="#464646"/>
    <path id="path1068-8-2-3" d="M35.676,11.4a.352.352,0,0,0-.2.068l-2.3,1.624a.416.416,0,0,0-.107.55.353.353,0,0,0,.51.115h0l2.3-1.625A.414.414,0,0,0,36,11.584.36.36,0,0,0,35.676,11.4Z" fill="#464646"/>
    <path id="rect989-8-7-6-8" d="M35.722,11.384h7.9a.381.381,0,0,1,.367.395v.056a.381.381,0,0,1-.367.395h-7.9a.38.38,0,0,1-.366-.395v-.056A.38.38,0,0,1,35.722,11.384Z" fill="#464646"/>
    <path id="rect1440-9-0-2" d="M34.952,15.753h4.733a.034.034,0,0,1,.032.035v3.077a.034.034,0,0,1-.032.035H34.952a.034.034,0,0,1-.032-.035V15.788A.034.034,0,0,1,34.952,15.753Z" fill="#979797" stroke="#464646" stroke-linecap="round" stroke-miterlimit="10" stroke-width="0.8"/>
    <path id="rect1442-9-38-8" d="M34.957,22.439h4.7a.028.028,0,0,1,.027.029v7.513a.028.028,0,0,1-.027.029h-4.7a.027.027,0,0,1-.026-.029V22.468A.027.027,0,0,1,34.957,22.439Z" fill="#979797" stroke="#464646" stroke-linecap="round" stroke-miterlimit="10" stroke-width="0.8"/>
  </g>
</svg>
