<svg id="Layer_1" data-name="Layer 1" xmlns="http://www.w3.org/2000/svg" xmlns:xlink="http://www.w3.org/1999/xlink" viewBox="0 0 48 48">
  <defs>
    <linearGradient id="linear-gradient" x1="20.021" y1="772.222" x2="42.624" y2="800.432" gradientTransform="translate(-15.189 -727.783) scale(0.946 0.957)" gradientUnits="userSpaceOnUse">
      <stop offset="0" stop-color="#fff"/>
      <stop offset="0.232" stop-color="#fafafa"/>
      <stop offset="0.496" stop-color="#ededed"/>
      <stop offset="0.775" stop-color="#d6d6d6"/>
      <stop offset="1" stop-color="#bebebe"/>
    </linearGradient>
    <linearGradient id="linear-gradient-2" x1="4.445" y1="756.031" x2="21.903" y2="780.72" gradientTransform="translate(0 -744.884)" gradientUnits="userSpaceOnUse">
      <stop offset="0" stop-color="#fff"/>
      <stop offset="0.221" stop-color="#f8f8f8"/>
      <stop offset="0.541" stop-color="#e5e5e5"/>
      <stop offset="0.92" stop-color="#c6c6c6"/>
      <stop offset="1" stop-color="#bebebe"/>
    </linearGradient>
    <linearGradient id="linear-gradient-3" x1="19.207" y1="771.456" x2="40.853" y2="798.119" gradientTransform="translate(-8.189 -725.782) scale(0.946 0.957)" xlink:href="#linear-gradient"/>
    <linearGradient id="linear-gradient-4" x1="3.893" y1="754.069" x2="22.433" y2="782.99" gradientTransform="translate(7.17 -742.85)" xlink:href="#linear-gradient-2"/>
    <linearGradient id="linear-gradient-5" x1="27.123" y1="779.816" x2="60.626" y2="809.304" gradientTransform="translate(-8.782 -719.224) scale(0.919 0.946)" gradientUnits="userSpaceOnUse">
      <stop offset="0" stop-color="#73b4c8"/>
      <stop offset="0.175" stop-color="#6aaec3"/>
      <stop offset="0.457" stop-color="#529eb5"/>
      <stop offset="0.809" stop-color="#2c839f"/>
      <stop offset="1" stop-color="#147391"/>
    </linearGradient>
    <linearGradient id="linear-gradient-6" x1="52.551" y1="775.05" x2="63.125" y2="781.815" xlink:href="#linear-gradient-5"/>
    <linearGradient id="linear-gradient-7" x1="2.891" y1="753.924" x2="17.931" y2="776.34" gradientTransform="translate(13.9 -740.007)" xlink:href="#linear-gradient-2"/>
  </defs>
  <polygon id="polygon36-4-9" points="0.473 43.522 34.527 43.522 34.527 12.913 22.23 0.478 0.473 0.478 0.473 43.522" stroke="#464646" stroke-miterlimit="10" fill="url(#linear-gradient)"/>
  <polygon id="polygon46-1-5" points="19.5 41.495 4.5 41.495 4.5 15.44 19.5 5.418 19.5 41.495" stroke="#464646" stroke-linecap="round" stroke-linejoin="round" fill="url(#linear-gradient-2)"/>
  <polygon id="polygon36-4" points="7.473 45.522 41.528 45.522 41.528 14.914 29.23 2.479 7.473 2.479 7.473 45.522" stroke="#464646" stroke-miterlimit="10" fill="url(#linear-gradient-3)"/>
  <polygon id="polygon46-1" points="26.67 7.452 26.67 43.529 11.67 43.529 11.67 17.473 26.67 7.452" stroke="#464646" stroke-linecap="round" stroke-linejoin="round" fill="url(#linear-gradient-4)"/>
  <polygon id="polygon36" points="47.541 17.266 35.595 4.973 14.459 4.973 14.459 47.527 47.541 47.527 47.541 17.266" stroke="#464646" stroke-miterlimit="10" fill="url(#linear-gradient-5)"/>
  <polygon id="polygon38" points="35.595 17.266 47.541 17.266 35.595 4.973 35.595 17.266" stroke="#464646" stroke-linejoin="round" fill="url(#linear-gradient-6)"/>
  <polygon id="polygon46" points="18.4 45.493 18.4 19.493 33.4 9.493 33.4 45.493 18.4 45.493" stroke="#464646" stroke-linecap="round" stroke-linejoin="round" fill="url(#linear-gradient-7)"/>
  <line id="line48" x1="21.9" y1="28.493" x2="29.9" y2="28.493" fill="none" stroke="#5a5a5a" stroke-linejoin="round"/>
  <line id="line50" x1="21.9" y1="25.493" x2="29.9" y2="25.493" fill="none" stroke="#5a5a5a" stroke-linejoin="round"/>
  <line id="line52" x1="21.9" y1="22.493" x2="29.9" y2="22.493" fill="none" stroke="#5a5a5a" stroke-linejoin="round"/>
  <line id="line54" x1="21.9" y1="37.493" x2="29.9" y2="37.493" fill="none" stroke="#5a5a5a" stroke-linejoin="round"/>
  <line id="line56" x1="21.9" y1="34.493" x2="29.9" y2="34.493" fill="none" stroke="#5a5a5a" stroke-linejoin="round"/>
  <line id="line58" x1="21.9" y1="31.493" x2="29.9" y2="31.493" fill="none" stroke="#5a5a5a" stroke-linejoin="round"/>
  <polyline id="polyline60" points="24.4 44.993 24.4 41.493 27.4 41.493 27.4 44.993" fill="none" stroke="#5a5a5a" stroke-miterlimit="10"/>
</svg>
