<svg id="Layer_1" data-name="Layer 1" xmlns="http://www.w3.org/2000/svg" xmlns:xlink="http://www.w3.org/1999/xlink" viewBox="0 0 48 48">
  <defs>
    <linearGradient id="linear-gradient" x1="5.232" y1="762.75" x2="33.221" y2="790.739" gradientTransform="translate(0 -744)" gradientUnits="userSpaceOnUse">
      <stop offset="0" stop-color="#73b4c8"/>
      <stop offset="0.175" stop-color="#6aaec3"/>
      <stop offset="0.457" stop-color="#529eb5"/>
      <stop offset="0.809" stop-color="#2c839f"/>
      <stop offset="1" stop-color="#147391"/>
    </linearGradient>
    <linearGradient id="linear-gradient-2" x1="70.75" y1="-71.25" x2="89.75" y2="-90.25" gradientTransform="matrix(0.8, 0, 0, -0.8, -31.2, -35.6)" xlink:href="#linear-gradient"/>
  </defs>
  <g id="g852">
    <path id="rect969-0" d="M23,30V28H43v2Z" fill="#969696"/>
    <path id="rect969" d="M32,17h2V41H32Z" fill="#969696"/>
    <path id="path4" d="M17.7,6.172a8.339,8.339,0,0,0-5.661,1.979,8.282,8.282,0,0,0-2.724,5.287L8.879,17.5H6.1v6H7.964l-1.5,9.53c-.427,2.83-1.267,4.262-2.5,4.262A2.713,2.713,0,0,1,2.6,36.98l-1.5-.865V42.5l.766.213.143.034.894.217a5.529,5.529,0,0,0,1.3.161,7.611,7.611,0,0,0,5.879-2.589,12.724,12.724,0,0,0,2.871-6.816l1.6-10.22H18.1v-6H15.461l.415-3.52a2.424,2.424,0,0,1,.72-1.493A1.954,1.954,0,0,1,17.943,12a3.886,3.886,0,0,1,1.127.179,5.468,5.468,0,0,1,.622.233l1.407.628V6.762l-.711-.215A9.3,9.3,0,0,0,17.7,6.172Z" fill="#464646"/>
    <path id="path17" d="M20.1,7.5a8.253,8.253,0,0,0-2.4-.323,7.336,7.336,0,0,0-5,1.732,7.278,7.278,0,0,0-2.391,4.67L9.778,18.5H7.1v4H9.135L7.448,33.186q-.771,5.106-3.485,5.106A3.666,3.666,0,0,1,2.1,37.846v3.89c.337.081.686.165,1.043.253a4.487,4.487,0,0,0,1.064.132,6.619,6.619,0,0,0,5.136-2.259,11.7,11.7,0,0,0,2.624-6.291L13.694,22.5h3.4v-4H14.336l.547-4.637a3.431,3.431,0,0,1,1.054-2.127A2.942,2.942,0,0,1,17.943,11a4.873,4.873,0,0,1,1.418.223,6.454,6.454,0,0,1,.738.271Z" fill="url(#linear-gradient)"/>
    <g id="text836">
      <path id="path841" d="M27.792,44.5H24.313a24.811,24.811,0,0,1-4.179-6.922,22.743,22.743,0,0,1-1.489-8.453,22.743,22.743,0,0,1,1.489-8.453,24.811,24.811,0,0,1,4.179-6.922h3.479v.156a19.818,19.818,0,0,0-2.355,2.641,21.088,21.088,0,0,0-2.066,3.469,22.622,22.622,0,0,0-1.49,4.234,21.787,21.787,0,0,0-.015,9.766,23.188,23.188,0,0,0,1.5,4.218A19.759,19.759,0,0,0,25.452,41.7a19.313,19.313,0,0,0,2.34,2.641Z" fill="#464646"/>
    </g>
    <path id="path863" d="M24,43.105a22.152,22.152,0,0,1-4.3-9.466,24.436,24.436,0,0,1,.975-12.519,25.832,25.832,0,0,1,3.3-6.023l.529-.69h1.309c.886,0,.381.024.381.056a7.2,7.2,0,0,1-.84,1.066c-2.457,2.647-3.776,6.314-4.441,10.132a26.477,26.477,0,0,0-.184,5.69A19.824,19.824,0,0,0,22.5,37.942a18.008,18.008,0,0,0,3.091,4.995l.91.927H24.573Z" fill="#5ba4ba"/>
    <g id="text836-1">
      <path id="path838" d="M37.925,44.5h3.48a24.808,24.808,0,0,0,4.178-6.922,22.743,22.743,0,0,0,1.489-8.453,22.743,22.743,0,0,0-1.489-8.453,24.808,24.808,0,0,0-4.178-6.922h-3.48v.156a19.679,19.679,0,0,1,2.355,2.641,21.164,21.164,0,0,1,2.067,3.469,22.69,22.69,0,0,1,1.489,4.234,21.787,21.787,0,0,1,.015,9.766,23.367,23.367,0,0,1-1.5,4.218A19.759,19.759,0,0,1,40.265,41.7a19.313,19.313,0,0,1-2.34,2.641Z" fill="#464646"/>
    </g>
    <path id="path863-1" d="M41.717,43.105a22.147,22.147,0,0,0,4.3-9.466,24.436,24.436,0,0,0-.975-12.519,25.832,25.832,0,0,0-3.3-6.023l-.529-.69H39.9c-.886,0-.381.024-.381.056a7.144,7.144,0,0,0,.841,1.066c2.457,2.647,3.775,6.314,4.44,10.132a26.523,26.523,0,0,1,.2,5.688,19.814,19.814,0,0,1-1.773,6.593,18.034,18.034,0,0,1-3.092,4.995l-.91.927h1.923Z" fill="#5ba4ba"/>
    <path d="M25.4,21.4H40.6V36.6H25.4Z" stroke="#464646" stroke-miterlimit="10" stroke-width="0.8" fill="url(#linear-gradient-2)"/>
  </g>
</svg>
