<svg id="Image" xmlns="http://www.w3.org/2000/svg" xmlns:xlink="http://www.w3.org/1999/xlink" viewBox="0 0 48 48">
  <defs>
    <linearGradient id="linear-gradient" x1="-270.044" y1="866.525" x2="-255.301" y2="901.184" gradientTransform="matrix(0.809, -0.588, 0.57, 0.821, -266.269, -842.438)" gradientUnits="userSpaceOnUse">
      <stop offset="0" stop-color="#fff"/>
      <stop offset="1" stop-color="#dcdcdc"/>
    </linearGradient>
    <linearGradient id="linear-gradient-2" x1="27.037" y1="42.88" x2="19.409" y2="49.183" gradientTransform="matrix(1, 0, 0, -1, 0, 52)" gradientUnits="userSpaceOnUse">
      <stop offset="0" stop-color="#c9c6c5"/>
      <stop offset="0.045" stop-color="#cecccc"/>
      <stop offset="0.268" stop-color="#e7e6e6"/>
      <stop offset="0.497" stop-color="#f6f6f7"/>
      <stop offset="0.736" stop-color="#fefefe"/>
      <stop offset="1" stop-color="#fff"/>
    </linearGradient>
    <linearGradient id="linear-gradient-3" x1="11.756" y1="46.293" x2="36.456" y2="16.507" gradientTransform="matrix(1, 0, 0, -1, 0, 52)" gradientUnits="userSpaceOnUse">
      <stop offset="0" stop-color="#fff"/>
      <stop offset="0.221" stop-color="#fbfbfc"/>
      <stop offset="0.541" stop-color="#ececec"/>
      <stop offset="0.92" stop-color="#d0cecd"/>
      <stop offset="1" stop-color="#c9c6c5"/>
    </linearGradient>
    <linearGradient id="linear-gradient-4" x1="11.868" y1="43.66" x2="42.056" y2="13.472" gradientTransform="matrix(1, 0, 0, -1, 0, 52)" gradientUnits="userSpaceOnUse">
      <stop offset="0" stop-color="#fff"/>
      <stop offset="0.335" stop-color="#fbfbfc"/>
      <stop offset="0.82" stop-color="#ececec"/>
      <stop offset="1" stop-color="#e4e3e4"/>
    </linearGradient>
    <linearGradient id="linear-gradient-5" x1="435.199" y1="-516.633" x2="458.768" y2="-531.457" gradientTransform="matrix(0.397, 0, 0, -0.397, -154.345, -190.286)" gradientUnits="userSpaceOnUse">
      <stop offset="0" stop-color="#cee6eb"/>
      <stop offset="0.221" stop-color="#c6e2e8"/>
      <stop offset="0.542" stop-color="#b3d8e1"/>
      <stop offset="0.921" stop-color="#93c7d4"/>
      <stop offset="1" stop-color="#8dc3d2"/>
    </linearGradient>
    <linearGradient id="linear-gradient-6" x1="427.681" y1="-523.716" x2="446.166" y2="-554.893" gradientTransform="matrix(0.397, 0, 0, -0.397, -154.345, -190.286)" gradientUnits="userSpaceOnUse">
      <stop offset="0" stop-color="#afd7e1"/>
      <stop offset="0.159" stop-color="#a5d1dc"/>
      <stop offset="0.706" stop-color="#82bdcf"/>
      <stop offset="1" stop-color="#73b4c8"/>
    </linearGradient>
  </defs>
  <g id="g883">
    <path id="rect864" d="M1.421,37l22.635-9.579,22.523,9.613L24.147,46.579Z" stroke="#464646" stroke-linejoin="round" stroke-width="0.841" fill="url(#linear-gradient)"/>
    <path id="path37" d="M30.139,4.945a1.884,1.884,0,0,0-1.445-.723H27.611V3.861a2.564,2.564,0,0,0-2.528-2.528H22.916a2.562,2.562,0,0,0-2.527,2.528v.361H19.306a1.884,1.884,0,0,0-1.445.723H11V36H37V4.945Z" fill="#4e4a48"/>
    <path id="path39" d="M18.222,7.833H29.778V6.025a1.109,1.109,0,0,0-1.084-1.083H26.886V3.861a1.789,1.789,0,0,0-1.767-1.809h-2.2a1.788,1.788,0,0,0-1.8,1.77V4.945H19.3a1.109,1.109,0,0,0-1.084,1.083Z" fill="url(#linear-gradient-2)"/>
    <path id="circle41" d="M24.722,4.222A.722.722,0,0,1,24,4.944h0a.722.722,0,0,1-.722-.722h0A.722.722,0,0,1,24,3.5h0a.722.722,0,0,1,.722.722Z" fill="#4e4a48"/>
    <path id="path43" d="M30.428,5.667a.657.657,0,0,1,.075.361V8.555h-13V6.028a.657.657,0,0,1,.075-.361H11.722V35.278H36.278V5.667Z" fill="url(#linear-gradient-3)"/>
    <path id="polygon45" d="M13.167,33.833H34.833V7.111H30.5V8.555h-13V7.111H13.167Z" fill="#c9c6c5"/>
    <path id="polygon47" d="M13.889,33.111H34.111V7.833H30.5v.722h-13V7.833H13.889Z" fill="url(#linear-gradient-4)"/>
    <path id="polygon30" d="M29.84,25.712,22.6,29.9V21.562l7.243-4.188Z" fill="#3f91af"/>
    <path id="polygon32" d="M29.84,17.374,22.6,21.562l-7.243-4.189,7.231-4.188Z" fill="url(#linear-gradient-5)"/>
    <path id="polygon34" d="M15.354,25.712V17.373L22.6,21.562V29.9Z" fill="url(#linear-gradient-6)"/>
    <path id="polygon36" d="M22.416,21.665V29.9h.362V21.665l7.154-4.135-.182-.313L26.856,18.89l-.006-.008L22.6,21.342l-4.256-2.46-.006.008-2.893-1.674-.182.314Z" fill="#197492" stroke="#177491" stroke-width="0.15"/>
    <path id="path38" d="M29.932,17.217l-7.255-4.189a.183.183,0,0,0-.181,0l-7.233,4.188a.182.182,0,0,0-.09.159v8.334a.183.183,0,0,0,.09.157l7.243,4.191a.185.185,0,0,0,.182,0l7.244-4.187a.183.183,0,0,0,.09-.158V17.373A.182.182,0,0,0,29.932,17.217Zm-.272,8.389L22.6,29.689l-7.061-4.084V17.477l7.048-4.083,7.074,4.084Z" fill="#474647" stroke="#4e4a48" stroke-width="0.15"/>
    <path id="path43-5" d="M29.223,12.2l1.108,1.108H24.587a2.582,2.582,0,0,0-2.579,2.579v2.182H23.2V15.89A1.39,1.39,0,0,1,24.587,14.5h5.744L29.223,15.61l.842.841,2.544-2.545-2.544-2.544Z" fill="#3c91af"/>
    <path id="path45-4" d="M23,17.913V15.89A1.589,1.589,0,0,1,24.587,14.3H30.81L29.5,15.61l.561.56,2.264-2.264-2.264-2.264L29.5,12.2,30.81,13.51H24.587a2.382,2.382,0,0,0-2.38,2.38v2.023H23m.4.4H21.81V15.89a2.78,2.78,0,0,1,2.777-2.777h5.265l-.629-.629-.28-.281.28-.28.561-.561.281-.281.28.281,2.264,2.264.281.28-.281.281-2.264,2.264-.28.28-.281-.28-.561-.561-.28-.28.28-.281.629-.629H24.587a1.192,1.192,0,0,0-1.19,1.19v2.42Z" fill="#147391" stroke="#177491" stroke-width="0.15"/>
  </g>
</svg>
