<svg id="Layer_1" data-name="Layer 1" xmlns="http://www.w3.org/2000/svg" xmlns:xlink="http://www.w3.org/1999/xlink" viewBox="0 0 48 48">
  <defs>
    <linearGradient id="linear-gradient" x1="-43.306" y1="685.381" x2="-4.302" y2="724.385" gradientTransform="translate(53.184 -825.884) scale(1.205)" gradientUnits="userSpaceOnUse">
      <stop offset="0" stop-color="#fff"/>
      <stop offset="0.228" stop-color="#fafafa"/>
      <stop offset="0.488" stop-color="#ededed"/>
      <stop offset="0.762" stop-color="#d7d6d6"/>
      <stop offset="1" stop-color="#bdbcbc"/>
    </linearGradient>
    <linearGradient id="linear-gradient-2" x1="50.659" y1="760.694" x2="71.919" y2="778.782" gradientTransform="translate(-24.895 -781.294) scale(0.765 1.042)" gradientUnits="userSpaceOnUse">
      <stop offset="0" stop-color="#73b4c8"/>
      <stop offset="0.175" stop-color="#6aaec3"/>
      <stop offset="0.457" stop-color="#529eb5"/>
      <stop offset="0.809" stop-color="#2c839f"/>
      <stop offset="1" stop-color="#147391"/>
    </linearGradient>
    <linearGradient id="linear-gradient-3" x1="73.659" y1="749.522" x2="91.795" y2="728.667" xlink:href="#linear-gradient-2"/>
    <linearGradient id="linear-gradient-4" x1="86.275" y1="754.189" x2="101.287" y2="733.412" xlink:href="#linear-gradient-2"/>
  </defs>
  <g id="g868">
    <path id="rect13" d="M1,0H48V47H1Z" fill="url(#linear-gradient)"/>
    <path id="path868" d="M9.3,2.109H10v-.7H9.3Zm0,2.09H10V3.5H9.3Zm0,2.09H10V5.594H9.3Zm0,2.092H10v-.7H9.3Zm0,2.09H10v-.7H9.3Zm0,2.09H10v-.7H9.3Zm0,2.089H10v-.7H9.3Zm0,2.09H10v-.7H9.3Zm0,2.09H10v-.7H9.3Zm0,4.18H10v-.7H9.3Zm0,2.09H10v-.7H9.3Zm0,2.089H10v-.7H9.3Zm0,2.09H10v-.7H9.3Zm0,2.09H10v-.7H9.3Zm0,2.092H10v-.7H9.3Zm0,2.09H10v-.7H9.3Zm0,2.09H10v-.7H9.3Zm0,2.089H10v-.7H9.3Zm0,2.09H10v-.7H9.3Zm0,2.09H10v-.7H9.3ZM9.3,46H10v-.7H9.3Z" fill="#464646"/>
    <path id="path868-3" d="M19.8,2.109h.7v-.7h-.7Zm0,4.18h.7V5.594h-.7Zm0,2.092h.7v-.7h-.7Zm0,2.09h.7v-.7h-.7Zm0,2.09h.7v-.7h-.7Zm0,2.089h.7v-.7h-.7Zm0,2.09h.7v-.7h-.7Zm0,6.27h.7v-.7h-.7Zm0,2.09h.7v-.7h-.7Zm0,2.089h.7v-.7h-.7Zm0,4.18h.7v-.7h-.7Zm0,2.092h.7v-.7h-.7Zm0,4.18h.7v-.7h-.7Zm0,2.089h.7v-.7h-.7Zm0,2.09h.7v-.7h-.7Zm0,2.09h.7v-.7h-.7Zm0,2.09h.7v-.7h-.7Z" fill="#464646"/>
    <path id="path868-3-6" d="M30.3,2.109H31v-.7h-.7Zm0,4.18H31V5.594h-.7Zm0,2.092H31v-.7h-.7Zm0,2.09H31v-.7h-.7Zm0,2.09H31v-.7h-.7Zm0,2.089H31v-.7h-.7Zm0,2.09H31v-.7h-.7Zm0,2.09H31v-.7h-.7Zm0,2.09H31v-.7h-.7Zm0,2.09H31v-.7h-.7Zm0,4.179H31v-.7h-.7Zm0,2.09H31v-.7h-.7Zm0,4.182H31v-.7h-.7Zm0,2.09H31v-.7h-.7Zm0,2.09H31v-.7h-.7Zm0,2.089H31v-.7h-.7Zm0,2.09H31v-.7h-.7Zm0,2.09H31v-.7h-.7Zm0,2.09H31v-.7h-.7Z" fill="#464646"/>
    <path id="path868-3-6-1" d="M40.7,2.109h.7v-.7h-.7Zm0,2.09h.7V3.5h-.7Zm0,2.09h.7V5.594h-.7Zm0,2.092h.7v-.7h-.7Zm0,2.09h.7v-.7h-.7Zm0,2.09h.7v-.7h-.7Zm0,2.089h.7v-.7h-.7Zm0,4.18h.7v-.7h-.7Zm0,4.18h.7v-.7h-.7Zm0,2.09h.7v-.7h-.7Zm0,2.089h.7v-.7h-.7Zm0,2.09h.7v-.7h-.7Zm0,2.09h.7v-.7h-.7Zm0,2.092h.7v-.7h-.7Zm0,2.09h.7v-.7h-.7Zm0,2.09h.7v-.7h-.7Zm0,2.089h.7v-.7h-.7Zm0,2.09h.7v-.7h-.7Zm0,2.09h.7v-.7h-.7Zm0,2.09h.7v-.7h-.7Z" fill="#464646"/>
    <path id="path868-2" d="M2,38.8h.7v-.7H2Zm2.09,0h.7v-.7h-.7Zm2.09,0h.7v-.7h-.7Zm2.09,0h.7v-.7h-.7Zm2.089,0h.7v-.7h-.7Zm2.09,0h.7v-.7h-.7Zm4.182,0h.7v-.7h-.7Zm2.09,0h.7v-.7h-.7Zm2.09,0h.7v-.7h-.7Zm2.089,0h.7v-.7h-.7Zm2.09,0h.7v-.7h-.7Zm2.09,0h.7v-.7h-.7Zm2.09,0h.7v-.7h-.7Zm2.09,0h.7v-.7h-.7Zm2.09,0h.7v-.7h-.7Zm2.089,0h.7v-.7h-.7Zm2.09,0h.7v-.7h-.7Zm2.09,0h.7v-.7h-.7Zm2.092,0h.7v-.7h-.7Zm2.09,0h.7v-.7h-.7Zm2.09,0h.7v-.7h-.7Z" fill="#464646"/>
    <path id="path868-3-0" d="M2,28.2h.7v-.7H2Zm2.09,0h.7v-.7h-.7Zm2.09,0h.7v-.7h-.7Zm2.09,0h.7v-.7h-.7Zm2.089,0h.7v-.7h-.7Zm2.09,0h.7v-.7h-.7Zm2.09,0h.7v-.7h-.7Zm2.092,0h.7v-.7h-.7Zm2.09,0h.7v-.7h-.7Zm2.09,0h.7v-.7h-.7Zm2.089,0h.7v-.7h-.7Zm2.09,0h.7v-.7h-.7Zm2.09,0h.7v-.7h-.7Zm4.18,0h.7v-.7h-.7Zm2.09,0h.7v-.7h-.7Zm4.179,0h.7v-.7h-.7Zm2.09,0h.7v-.7h-.7Zm2.092,0h.7v-.7h-.7Zm2.09,0h.7v-.7h-.7Zm2.09,0h.7v-.7h-.7Z" fill="#464646"/>
    <path id="path868-3-6-7" d="M2,17.9h.7v-.7H2Zm2.09,0h.7v-.7h-.7Zm2.09,0h.7v-.7h-.7Zm2.09,0h.7v-.7h-.7Zm2.089,0h.7v-.7h-.7Zm2.09,0h.7v-.7h-.7Zm2.09,0h.7v-.7h-.7Zm2.092,0h.7v-.7h-.7Zm6.269,0h.7v-.7h-.7Zm4.18,0h.7v-.7h-.7Zm2.09,0h.7v-.7h-.7Zm2.09,0h.7v-.7h-.7Zm2.09,0h.7v-.7h-.7Zm2.089,0h.7v-.7h-.7Zm2.09,0h.7v-.7h-.7Zm2.09,0h.7v-.7h-.7Zm2.092,0h.7v-.7h-.7Zm2.09,0h.7v-.7h-.7Zm2.09,0h.7v-.7h-.7Z" fill="#464646"/>
    <path id="path868-3-6-1-7" d="M2,7.3h.7v-.7H2Zm2.09,0h.7v-.7h-.7Zm2.09,0h.7v-.7h-.7Zm2.09,0h.7v-.7h-.7Zm2.089,0h.7v-.7h-.7Zm4.18,0h.7v-.7h-.7Zm2.092,0h.7v-.7h-.7Zm2.09,0h.7v-.7h-.7Zm4.179,0h.7v-.7h-.7Zm6.27,0h.7v-.7h-.7Zm2.09,0h.7v-.7h-.7Zm4.179,0h.7v-.7h-.7Zm2.09,0h.7v-.7h-.7Zm4.182,0h.7v-.7h-.7Zm2.09,0h.7v-.7h-.7Zm2.09,0h.7v-.7h-.7Z" fill="#464646"/>
    <g id="text1338-4">
      <path id="path909" d="M20.066,20.156H16.111l-3.737-6.819-.756,1.247v5.572H8.393V3.119h3.225V10.83l4.468-7.711h3.737L14.935,11Z" stroke="#464646" stroke-width="0.769" fill="url(#linear-gradient-2)"/>
      <path id="path911" d="M31.982,8.5a8.614,8.614,0,0,1-.294,2.242,5.482,5.482,0,0,1-.839,1.831,5.348,5.348,0,0,1-1.672,1.521,4.6,4.6,0,0,1-2.284.515H24.886v5.549H21.662V3.119h5.307a6.123,6.123,0,0,1,2.007.286,4.125,4.125,0,0,1,1.453.835,4.284,4.284,0,0,1,1.15,1.728A7.073,7.073,0,0,1,31.982,8.5Zm-3.334.1a2.515,2.515,0,0,0-.285-1.235A1.748,1.748,0,0,0,27.7,6.63a2.269,2.269,0,0,0-.982-.3Q26.239,6.3,25.441,6.3h-.555v5.1h.924a5.534,5.534,0,0,0,1.352-.137,1.75,1.75,0,0,0,.9-.549,2.191,2.191,0,0,0,.445-.87A4.7,4.7,0,0,0,28.648,8.6Z" stroke="#464646" stroke-width="0.769" fill="url(#linear-gradient-3)"/>
      <path id="path913" d="M41.018,20.156H33.7v-3.02h2.049V6.141H33.7V3.119h7.323v3.02H38.969v11h2.049Z" stroke="#464646" stroke-width="0.769" fill="url(#linear-gradient-4)"/>
    </g>
    <g id="g2594">
      <path id="polyline62-3-2-6-7-2-5" d="M12.705,44.232l7.853-13.274,5.688,2.276,8.208-9.62" fill="none" stroke="#464646" stroke-width="2.8"/>
      <path id="path911-5-9-4-2-4-3" d="M36.406,21.1l-.423,3.387-.518,3.38-2.9-1.929-2.84-2,3.322-1.459Z" fill="#464646" stroke="#464646" stroke-linecap="round" stroke-width="0.019"/>
      <path id="path911-5-9-45-3-5" d="M35.8,21.918l-.318,2.517-.389,2.512-2.178-1.434-2.134-1.487,2.5-1.084Z" fill="#3e90aa"/>
      <path id="polyline62-3-2-7-8-7" d="M12.979,43.728l7.579-12.77,5.688,2.276,7.976-9.26" fill="none" stroke="#3e90aa" stroke-width="1.6"/>
    </g>
    <path id="rect844" d="M.173,0H.827A.172.172,0,0,1,1,.173V47.827A.172.172,0,0,1,.827,48H.173A.172.172,0,0,1,0,47.827V.173A.172.172,0,0,1,.173,0Z" fill="#3e90aa"/>
    <path id="rect844-1" d="M48,47.173v.654a.172.172,0,0,1-.173.173H.173A.172.172,0,0,1,0,47.827v-.654A.172.172,0,0,1,.173,47H47.827A.172.172,0,0,1,48,47.173Z" fill="#3e90aa"/>
  </g>
</svg>
