<svg id="Artwork" xmlns="http://www.w3.org/2000/svg" xmlns:xlink="http://www.w3.org/1999/xlink" viewBox="0 0 48 48">
  <defs>
    <linearGradient id="linear-gradient" x1="-125.189" y1="579.963" x2="-102.922" y2="594.513" gradientTransform="translate(262.854 -1097.464) scale(2.086 1.91)" gradientUnits="userSpaceOnUse">
      <stop offset="0" stop-color="#73b4c8"/>
      <stop offset="0.319" stop-color="#6aaec3"/>
      <stop offset="0.57" stop-color="#529eb5"/>
      <stop offset="0.809" stop-color="#2c839f"/>
      <stop offset="1" stop-color="#147391"/>
    </linearGradient>
    <linearGradient id="linear-gradient-2" x1="-106.455" y1="510.095" x2="-77.244" y2="518.092" gradientTransform="translate(195.654 -1447.006) scale(1.817 2.832)" gradientUnits="userSpaceOnUse">
      <stop offset="0" stop-color="#73b4c8"/>
      <stop offset="0.175" stop-color="#6aaec3"/>
      <stop offset="0.457" stop-color="#529eb5"/>
      <stop offset="0.809" stop-color="#2c839f"/>
      <stop offset="1" stop-color="#147391"/>
    </linearGradient>
    <linearGradient id="linear-gradient-3" x1="26.094" y1="23.958" x2="38.217" y2="12.069" gradientTransform="matrix(1, 0, 0, -1, -0.069, 50.113)" gradientUnits="userSpaceOnUse">
      <stop offset="0" stop-color="#fff"/>
      <stop offset="0.221" stop-color="#f8f8f8"/>
      <stop offset="0.541" stop-color="#e5e5e5"/>
      <stop offset="0.92" stop-color="#c6c6c6"/>
      <stop offset="1" stop-color="#bebebe"/>
    </linearGradient>
    <linearGradient id="linear-gradient-4" x1="32.484" y1="17.433" x2="40.437" y2="9.745" gradientTransform="matrix(1, 0, 0, -1, 0, 49.994)" xlink:href="#linear-gradient-3"/>
  </defs>
  <g id="g847">
    <g id="g946-1-5">
      <g id="g866">
        <path id="path915-2-2" d="M15.83,37.255l.338-6.48L9.008,19.358A132.027,132.027,0,0,0,.916,7.923a2.438,2.438,0,0,1,1.3-.006,74.413,74.413,0,0,0,11.4,1.737c3.017.2,12.053.167,15.1-.054A70.246,70.246,0,0,0,40.712,7.609l-.018.254.014-.159c-.118.165-3.85,5.624-8.014,11.571a71.522,71.522,0,0,0-6.532,11.871l.072.989.033,4.121-.492,3.737-5,2.916a26.107,26.107,0,0,1-4.521,2.037c-.026,0-.234-3.024-.234-6.945Z" fill-rule="evenodd" fill="url(#linear-gradient)"/>
        <path id="path933-3-6" d="M16.168,10.419C9.3,9.845,3.546,8.2.958,6.063a1.86,1.86,0,0,1-.417-.409c0-.309,2.274-1.672,3.772-2.261C8.8,1.629,14.044.827,21.068.827c6.538,0,11.585.543,15.888,2.027,2.54.875,4.764,2.438,4.581,2.9a8.793,8.793,0,0,1-2.6,1.706A36.081,36.081,0,0,1,28.2,10.2,103.27,103.27,0,0,1,16.168,10.419Z" fill-rule="evenodd" fill="url(#linear-gradient-2)"/>
        <path id="path2" d="M42.167,6.186C42.167,2.147,31.274,0,21.088,0S0,2.031,0,6.07A1.861,1.861,0,0,0,.488,7.142l14.8,22.566.05,15.792c0,.383.644.5.837.5s10.265-5.8,10.265-5.8a.766.766,0,0,0,.383-.766l.015-9.713L41.573,7.364A2.285,2.285,0,0,0,42.167,6.186ZM21.083.849A53.64,53.64,0,0,1,36.067,2.714c3.483,1.066,5.2,2.415,5.2,3.089s-2.421,1.443-5.913,2.2a64.4,64.4,0,0,1-14.3,1.529,69.807,69.807,0,0,1-14.7-1.565c-3.463-.735-5.234-1.377-5.234-2.05S2.33,3.986,5.793,2.882A53.683,53.683,0,0,1,21.083.849Zm5.4,27.614a3.7,3.7,0,0,0-.6,1.245l-.046,9.743-9.507,5.391-.013-15.134a2.514,2.514,0,0,0-.493-1.029L2.2,7.985a75.937,75.937,0,0,0,18.879,2.557A74.551,74.551,0,0,0,39.956,7.961Z" fill="#464646"/>
      </g>
    </g>
    <path id="path50" d="M43.324,37.994,47.5,36.513V33.394l-4.176-1.482a.5.5,0,0,1-.314-.634.549.549,0,0,1,.021-.051l1.9-4-2.208-2.208-3.995,1.9a.5.5,0,0,1-.668-.232.393.393,0,0,1-.018-.043L36.56,22.494H33.44l-1.482,4.155a.507.507,0,0,1-.656.285l-.03-.013-4-1.9-2.207,2.207,1.9,4a.5.5,0,0,1-.24.665.455.455,0,0,1-.051.021L22.5,33.394v3.12l4.176,1.48a.5.5,0,0,1,.314.634c-.006.017-.013.035-.021.052l-1.9,4,2.207,2.208,4-1.894a.5.5,0,0,1,.663.246.392.392,0,0,1,.023.06l1.482,4.2H36.56l1.482-4.2a.49.49,0,0,1,.686-.314l4,1.9,2.207-2.207-1.9-4a.5.5,0,0,1,.24-.665A.419.419,0,0,1,43.324,37.994Z" stroke="#464646" stroke-linejoin="round" fill="url(#linear-gradient-3)"/>
    <path id="circle52" d="M38.5,34.994a3.5,3.5,0,1,1-3.5-3.5A3.5,3.5,0,0,1,38.5,34.994Z" stroke="#464646" stroke-miterlimit="10" fill="url(#linear-gradient-4)"/>
  </g>
</svg>
