<svg id="Layer_1" data-name="Layer 1" xmlns="http://www.w3.org/2000/svg" xmlns:xlink="http://www.w3.org/1999/xlink" viewBox="0 0 48 48">
  <defs>
    <linearGradient id="linear-gradient" x1="-21.077" y1="47.793" x2="-9.865" y2="34.894" gradientTransform="matrix(0.998, 0, 0, -1.025, 37.32, 67.28)" gradientUnits="userSpaceOnUse">
      <stop offset="0" stop-color="#afd7e1"/>
      <stop offset="0.159" stop-color="#a4d0dc"/>
      <stop offset="0.706" stop-color="#80bcce"/>
      <stop offset="1" stop-color="#73b4c8"/>
    </linearGradient>
    <linearGradient id="linear-gradient-2" x1="-21.077" y1="47.793" x2="-9.865" y2="34.894" gradientTransform="matrix(0.998, 0, 0, -1.025, 52.82, 67.28)" xlink:href="#linear-gradient"/>
    <linearGradient id="linear-gradient-3" x1="-21.077" y1="47.793" x2="-9.865" y2="34.894" gradientTransform="matrix(0.998, 0, 0, -1.025, 21.82, 67.28)" xlink:href="#linear-gradient"/>
  </defs>
  <g id="g1222">
    <path id="rect1862-8-2-5" d="M.04,22.644H47.96a.039.039,0,0,1,.04.04V24.97a.04.04,0,0,1-.04.04H.04A.04.04,0,0,1,0,24.97V22.684A.039.039,0,0,1,.04,22.644Z" fill="#32859e"/>
    <path id="rect1171-7-1" d="M27.508,15.351l2.544-1.584c.018-.011.033,0,.033.019V34.02a.078.078,0,0,1-.033.06l-2.544,1.584c-.018.011-.033,0-.033-.019V15.411A.08.08,0,0,1,27.508,15.351Z" fill="#32859e"/>
    <path id="rect1169-3-8" d="M21.539,13h7.987c.02,0,.024.01.007.022l-3.072,2.268a.122.122,0,0,1-.067.022H18.407c-.02,0-.024-.009-.007-.022l3.072-2.268A.13.13,0,0,1,21.539,13Z" fill="#32859e"/>
    <path id="rect1115-5-1" d="M18.138,15.5h9.047V36.184H18.138Z" fill="url(#linear-gradient)"/>
    <g id="g1134-6-3">
      <path id="rect989-8-3-4" d="M17.933,35.747h9.341a.45.45,0,0,1,.433.467v.066a.45.45,0,0,1-.433.467H17.933a.45.45,0,0,1-.433-.467v-.066A.45.45,0,0,1,17.933,35.747Z" fill="#464646"/>
      <path id="rect989-8-7-3-3" d="M17.933,14.747h9.341a.45.45,0,0,1,.433.467v.066a.45.45,0,0,1-.433.467H17.933a.45.45,0,0,1-.433-.467v-.066A.45.45,0,0,1,17.933,14.747Z" fill="#464646"/>
      <path id="rect989-8-7-2-0-5" d="M27.707,15.214V36.28a.45.45,0,0,1-.433.467h-.062a.45.45,0,0,1-.433-.467V15.214a.45.45,0,0,1,.433-.467h.062A.45.45,0,0,1,27.707,15.214Z" fill="#464646"/>
      <path id="rect989-8-7-2-5-8-5" d="M18.428,15.214V36.28a.45.45,0,0,1-.433.467h-.062a.45.45,0,0,1-.433-.467V15.214a.45.45,0,0,1,.433-.467H18A.45.45,0,0,1,18.428,15.214Z" fill="#464646"/>
      <path id="rect989-8-7-2-7-8-4" d="M30.491,13.214V34.28a.45.45,0,0,1-.433.467H30a.45.45,0,0,1-.433-.467V13.214A.45.45,0,0,1,30,12.747h.062A.45.45,0,0,1,30.491,13.214Z" fill="#464646"/>
      <path id="path1068-6-7" d="M30.034,33.849a.41.41,0,0,0-.234.078l-2.724,1.92a.491.491,0,0,0-.126.649.416.416,0,0,0,.6.136h0l2.724-1.92a.491.491,0,0,0,.13-.648A.425.425,0,0,0,30.034,33.849Z" fill="#464646"/>
      <path id="path1068-8-24-9" d="M30.054,12.678a.414.414,0,0,0-.234.081L27.1,14.677a.49.49,0,0,0-.153.642.419.419,0,0,0,.6.165l.031-.022L30.3,13.544a.491.491,0,0,0,.135-.647A.429.429,0,0,0,30.054,12.678Z" fill="#464646"/>
      <path id="path1068-8-2-8-0" d="M20.663,12.7a.409.409,0,0,0-.232.08L17.707,14.7a.491.491,0,0,0-.127.649.417.417,0,0,0,.6.136h0l2.724-1.92a.49.49,0,0,0,.135-.647A.426.426,0,0,0,20.663,12.7Z" fill="#464646"/>
      <path id="rect989-8-7-6-2-6" d="M20.717,12.682h9.341a.45.45,0,0,1,.433.467v.067a.449.449,0,0,1-.433.466H20.717a.449.449,0,0,1-.433-.466v-.067A.45.45,0,0,1,20.717,12.682Z" fill="#464646"/>
    </g>
    <path id="rect1440-9-0-9-8" d="M19.81,17.846H25.4a.041.041,0,0,1,.042.041v3.636a.041.041,0,0,1-.042.041H19.81a.041.041,0,0,1-.041-.041V17.887A.041.041,0,0,1,19.81,17.846Z" fill="#979797" stroke="#464646" stroke-linecap="round" stroke-miterlimit="10" stroke-width="0.9"/>
    <path id="rect1442-9-38-4-9" d="M19.815,25.747h5.551a.034.034,0,0,1,.034.034V34.66a.034.034,0,0,1-.034.034H19.815a.034.034,0,0,1-.033-.034V25.781A.034.034,0,0,1,19.815,25.747Z" fill="#979797" stroke="#464646" stroke-linecap="round" stroke-miterlimit="10" stroke-width="0.9"/>
    <path id="rect1171-7-1-4" d="M43.008,15.351l2.544-1.584c.018-.011.033,0,.033.019V34.02a.078.078,0,0,1-.033.06l-2.544,1.584c-.018.011-.033,0-.033-.019V15.411A.08.08,0,0,1,43.008,15.351Z" fill="#32859e"/>
    <path id="rect1169-3-8-9" d="M37.039,13h7.987c.02,0,.024.01.007.022l-3.072,2.268a.122.122,0,0,1-.067.022H33.907c-.02,0-.024-.009-.007-.022l3.072-2.268A.13.13,0,0,1,37.039,13Z" fill="#32859e"/>
    <path id="rect1115-5-1-1" d="M33.638,15.5h9.047V36.184H33.638Z" fill="url(#linear-gradient-2)"/>
    <g id="g1146-0-7-9">
      <g id="g1134-6-3-9">
        <path id="rect989-8-3-4-2" d="M33.433,35.747h9.341a.45.45,0,0,1,.433.467v.066a.45.45,0,0,1-.433.467H33.433A.45.45,0,0,1,33,36.28v-.066A.45.45,0,0,1,33.433,35.747Z" fill="#464646"/>
        <path id="rect989-8-7-3-3-4" d="M33.433,14.747h9.341a.45.45,0,0,1,.433.467v.066a.45.45,0,0,1-.433.467H33.433A.45.45,0,0,1,33,15.28v-.066A.45.45,0,0,1,33.433,14.747Z" fill="#464646"/>
        <path id="rect989-8-7-2-0-5-8" d="M43.207,15.214V36.28a.45.45,0,0,1-.433.467h-.062a.45.45,0,0,1-.433-.467V15.214a.45.45,0,0,1,.433-.467h.062A.45.45,0,0,1,43.207,15.214Z" fill="#464646"/>
        <path id="rect989-8-7-2-5-8-5-8" d="M33.928,15.214V36.28a.45.45,0,0,1-.433.467h-.062A.45.45,0,0,1,33,36.28V15.214a.45.45,0,0,1,.433-.467h.062A.45.45,0,0,1,33.928,15.214Z" fill="#464646"/>
        <path id="rect989-8-7-2-7-8-4-3" d="M45.991,13.214V34.28a.45.45,0,0,1-.433.467H45.5a.45.45,0,0,1-.433-.467V13.214a.45.45,0,0,1,.433-.467h.062A.45.45,0,0,1,45.991,13.214Z" fill="#464646"/>
        <path id="path1068-6-7-4" d="M45.534,33.849a.41.41,0,0,0-.234.078l-2.724,1.92a.491.491,0,0,0-.126.649.416.416,0,0,0,.6.136h0l2.724-1.92a.491.491,0,0,0,.13-.648A.425.425,0,0,0,45.534,33.849Z" fill="#464646"/>
        <path id="path1068-8-24-9-2" d="M45.554,12.678a.414.414,0,0,0-.234.081L42.6,14.677a.49.49,0,0,0-.153.642.419.419,0,0,0,.6.165l.031-.022L45.8,13.544a.491.491,0,0,0,.135-.647A.429.429,0,0,0,45.554,12.678Z" fill="#464646"/>
        <path id="path1068-8-2-8-0-5" d="M36.163,12.7a.409.409,0,0,0-.232.08L33.207,14.7a.491.491,0,0,0-.127.649.417.417,0,0,0,.6.136h0l2.724-1.92a.49.49,0,0,0,.135-.647A.426.426,0,0,0,36.163,12.7Z" fill="#464646"/>
        <path id="rect989-8-7-6-2-6-4" d="M36.217,12.682h9.341a.45.45,0,0,1,.433.467v.067a.449.449,0,0,1-.433.466H36.217a.449.449,0,0,1-.433-.466v-.067A.45.45,0,0,1,36.217,12.682Z" fill="#464646"/>
      </g>
    </g>
    <g id="g985-5-3-8-3">
      <path id="rect1440-9-0-9-8-3" d="M35.307,17.846H40.9a.04.04,0,0,1,.039.041v3.636a.04.04,0,0,1-.039.041H35.307a.039.039,0,0,1-.038-.041V17.887A.039.039,0,0,1,35.307,17.846Z" fill="#979797" stroke="#464646" stroke-linecap="round" stroke-miterlimit="10" stroke-width="0.934"/>
      <path id="rect1442-9-38-4-9-3" d="M35.313,25.747h5.555a.033.033,0,0,1,.032.034V34.66a.033.033,0,0,1-.032.034H35.313a.033.033,0,0,1-.031-.034V25.781A.033.033,0,0,1,35.313,25.747Z" fill="#979797" stroke="#464646" stroke-linecap="round" stroke-miterlimit="10" stroke-width="0.934"/>
    </g>
    <path id="rect1171-7-1-7" d="M12.008,15.351l2.544-1.584c.018-.011.033,0,.033.019V34.02a.078.078,0,0,1-.033.06l-2.544,1.584c-.018.011-.033,0-.033-.019V15.411A.08.08,0,0,1,12.008,15.351Z" fill="#32859e"/>
    <path id="rect1169-3-8-3" d="M6.039,13h7.987c.02,0,.024.01.007.022l-3.072,2.268a.122.122,0,0,1-.067.022H2.907c-.02,0-.024-.009-.007-.022l3.072-2.268A.13.13,0,0,1,6.039,13Z" fill="#32859e"/>
    <path id="rect1115-5-1-6" d="M2.638,15.5h9.047V36.184H2.638Z" fill="url(#linear-gradient-3)"/>
    <g id="g1134-6-3-3">
      <path id="rect989-8-3-4-4" d="M2.433,35.747h9.341a.45.45,0,0,1,.433.467v.066a.45.45,0,0,1-.433.467H2.433A.45.45,0,0,1,2,36.28v-.066A.45.45,0,0,1,2.433,35.747Z" fill="#464646"/>
      <path id="rect989-8-7-3-3-6" d="M2.433,14.747h9.341a.45.45,0,0,1,.433.467v.066a.45.45,0,0,1-.433.467H2.433A.45.45,0,0,1,2,15.28v-.066A.45.45,0,0,1,2.433,14.747Z" fill="#464646"/>
      <path id="rect989-8-7-2-0-5-5" d="M12.207,15.214V36.28a.45.45,0,0,1-.433.467h-.062a.45.45,0,0,1-.433-.467V15.214a.45.45,0,0,1,.433-.467h.062A.45.45,0,0,1,12.207,15.214Z" fill="#464646"/>
      <path id="rect989-8-7-2-5-8-5-4" d="M2.928,15.214V36.28a.45.45,0,0,1-.433.467H2.433A.45.45,0,0,1,2,36.28V15.214a.45.45,0,0,1,.433-.467H2.5A.45.45,0,0,1,2.928,15.214Z" fill="#464646"/>
      <path id="rect989-8-7-2-7-8-4-5" d="M14.991,13.214V34.28a.45.45,0,0,1-.433.467H14.5a.45.45,0,0,1-.433-.467V13.214a.45.45,0,0,1,.433-.467h.062A.45.45,0,0,1,14.991,13.214Z" fill="#464646"/>
      <path id="path1068-6-7-1" d="M14.534,33.849a.41.41,0,0,0-.234.078l-2.724,1.92a.491.491,0,0,0-.126.649.416.416,0,0,0,.6.136h0l2.724-1.92a.491.491,0,0,0,.13-.648A.425.425,0,0,0,14.534,33.849Z" fill="#464646"/>
      <path id="path1068-8-24-9-0" d="M14.554,12.678a.414.414,0,0,0-.234.081L11.6,14.677a.49.49,0,0,0-.153.642.419.419,0,0,0,.6.165l.031-.022L14.8,13.544a.491.491,0,0,0,.135-.647A.429.429,0,0,0,14.554,12.678Z" fill="#464646"/>
      <path id="path1068-8-2-8-0-4" d="M5.163,12.7a.409.409,0,0,0-.232.08L2.207,14.7a.491.491,0,0,0-.127.649.417.417,0,0,0,.6.136h0l2.724-1.92a.49.49,0,0,0,.135-.647A.426.426,0,0,0,5.163,12.7Z" fill="#464646"/>
      <path id="rect989-8-7-6-2-6-5" d="M5.217,12.682h9.341a.45.45,0,0,1,.433.467v.067a.449.449,0,0,1-.433.466H5.217a.449.449,0,0,1-.433-.466v-.067A.45.45,0,0,1,5.217,12.682Z" fill="#464646"/>
    </g>
    <path id="rect1440-9-0-9-8-2" d="M4.31,17.846H9.9a.041.041,0,0,1,.042.041v3.636a.041.041,0,0,1-.042.041H4.31a.041.041,0,0,1-.041-.041V17.887A.041.041,0,0,1,4.31,17.846Z" fill="#979797" stroke="#464646" stroke-linecap="round" stroke-miterlimit="10" stroke-width="0.9"/>
    <path id="rect1442-9-38-4-9-7" d="M4.315,25.747H9.866a.034.034,0,0,1,.034.034V34.66a.034.034,0,0,1-.034.034H4.315a.034.034,0,0,1-.033-.034V25.781A.034.034,0,0,1,4.315,25.747Z" fill="#979797" stroke="#464646" stroke-linecap="round" stroke-miterlimit="10" stroke-width="0.9"/>
  </g>
</svg>
