<svg id="Artwork" xmlns="http://www.w3.org/2000/svg" xmlns:xlink="http://www.w3.org/1999/xlink" viewBox="0 0 48 48">
  <defs>
    <linearGradient id="linear-gradient" x1="18.492" y1="31.099" x2="47.417" y2="4.76" gradientTransform="matrix(0.995, 0, 0, -0.997, -3.142, 47.091)" gradientUnits="userSpaceOnUse">
      <stop offset="0" stop-color="#7eb8cd"/>
      <stop offset="1" stop-color="#087091"/>
    </linearGradient>
  </defs>
  <g id="g919">
    <path id="path836" d="M45.88,24.1A21.963,21.963,0,0,1,24.045,46.186h0A21.963,21.963,0,0,1,2.21,24.1,21.963,21.963,0,0,1,24.043,2.008h0A21.963,21.963,0,0,1,45.88,24.1Z" fill="url(#linear-gradient)"/>
    <path id="path2" d="M24,47A23.134,23.134,0,0,1,1,24,23.134,23.134,0,0,1,24,1,23.134,23.134,0,0,1,47,24,23.134,23.134,0,0,1,24,47ZM24,3A21,21,0,1,0,45,24,21,21,0,0,0,24,3Z" fill="#464646"/>
    <path id="path4" d="M22.532,18.64h3.187V37.36H22.532Z" fill="#fff" stroke="#464646" stroke-width="1.287"/>
    <path id="path6" d="M24.188,11.042a1.929,1.929,0,1,1-1.923,1.929h0A1.926,1.926,0,0,1,24.188,11.042Z" fill="#fff" stroke="#464646" stroke-width="1.156"/>
  </g>
</svg>
