<svg id="Layer_1" data-name="Layer 1" xmlns="http://www.w3.org/2000/svg" xmlns:xlink="http://www.w3.org/1999/xlink" viewBox="0 0 48 48">
  <defs>
    <linearGradient id="linear-gradient" x1="-46.28" y1="148.268" x2="-16.743" y2="120.808" gradientTransform="matrix(1.311, 0, 0, -1.454, 63.738, 216.402)" gradientUnits="userSpaceOnUse">
      <stop offset="0" stop-color="#73b4c8"/>
      <stop offset="0.175" stop-color="#6aaec3"/>
      <stop offset="0.457" stop-color="#529eb5"/>
      <stop offset="0.809" stop-color="#2c839f"/>
      <stop offset="1" stop-color="#147391"/>
    </linearGradient>
    <linearGradient id="linear-gradient-2" x1="25.05" y1="27.001" x2="47.204" y2="4.745" gradientTransform="matrix(1, 0, 0, -1, 0, 52)" gradientUnits="userSpaceOnUse">
      <stop offset="0" stop-color="#7fb8cd"/>
      <stop offset="0.175" stop-color="#72b0c8"/>
      <stop offset="0.457" stop-color="#559eb8"/>
      <stop offset="0.809" stop-color="#2982a1"/>
      <stop offset="1" stop-color="#0e7191"/>
    </linearGradient>
  </defs>
  <g id="g869">
    <g id="g830">
      <path id="path28" d="M37.94,7.076A32.536,32.536,0,0,1,20.1,1.022L19.678.69l-.425.332A32.546,32.546,0,0,1,1.418,7.076H.69v8.531c0,21.419,17.459,28.7,19,28.7s19-7.27,19-28.7V7.077Z" stroke="#464646" stroke-linecap="round" stroke-linejoin="round" stroke-width="1.38" fill="url(#linear-gradient)"/>
      <path id="polygon51" d="M13.945,20.477,18.75,26.25,30.6,11.6l3.006,2.426L18.8,32.35l-7.828-9.408Z" fill="#fff"/>
      <path id="path53-1" d="M30.7,12.5l2.007,1.618L18.785,31.334l-6.907-8.307,1.984-1.644,4.9,5.882L30.7,12.5m-.193-1.815-.809,1L18.743,25.235l-3.892-4.676-.822-.988-.989.821-1.984,1.639-.993.823.824.992,6.908,8.31,1,1.209.988-1.219L33.708,14.929l.81-1-1-.81L31.508,11.5Z" fill="#147391"/>
    </g>
    <g id="g26">
      <path id="circle22" d="M47.5,36A11.5,11.5,0,0,1,36,47.5h0A11.5,11.5,0,0,1,24.5,36h0a11.5,11.5,0,0,1,23,0Z" fill="url(#linear-gradient-2)"/>
      <path id="path24" d="M36,25A11,11,0,1,1,25,36,11,11,0,0,1,36,25m0-1A12,12,0,1,0,48,36,12,12,0,0,0,36,24Z" fill="#4e4a48"/>
    </g>
    <g id="g32">
      <path id="path28-9" d="M36,27.375a8.625,8.625,0,0,0,0,17.25,8.524,8.524,0,0,0,6.25-2.708v2h.958V40.125H39.417v.958h2.329A7.672,7.672,0,1,1,43.667,36a7.537,7.537,0,0,1-.487,2.788l-.043.111.869.386.046-.127A9.426,9.426,0,0,0,44.625,36,8.636,8.636,0,0,0,36,27.375Z" fill="#fff"/>
      <path id="polygon30" d="M31.625,35.875v.958h5.208V30.208h-.958v5.667Z" fill="#fff"/>
    </g>
  </g>
</svg>
