<svg id="Livello_3" data-name="Livello 3" xmlns="http://www.w3.org/2000/svg" xmlns:xlink="http://www.w3.org/1999/xlink" viewBox="0 0 48 48">
  <defs>
    <linearGradient id="linear-gradient" x1="374.133" y1="-463.705" x2="405.134" y2="-494.706" gradientTransform="matrix(0.891, 0, 0, -0.859, -314.052, -377.355)" gradientUnits="userSpaceOnUse">
      <stop offset="0" stop-color="#fff"/>
      <stop offset="0.232" stop-color="#fafafa"/>
      <stop offset="0.496" stop-color="#ededed"/>
      <stop offset="0.775" stop-color="#d7d6d6"/>
      <stop offset="1" stop-color="#bfbebe"/>
    </linearGradient>
    <linearGradient id="linear-gradient-2" x1="393.132" y1="-495.249" x2="403.133" y2="-505.25" gradientTransform="matrix(0.891, 0, 0, -0.798, -314.052, -375.647)" gradientUnits="userSpaceOnUse">
      <stop offset="0" stop-color="#fff"/>
      <stop offset="0.221" stop-color="#f7f8f8"/>
      <stop offset="0.541" stop-color="#e5e5e5"/>
      <stop offset="0.92" stop-color="#c7c6c6"/>
      <stop offset="1" stop-color="#bfbebe"/>
    </linearGradient>
    <linearGradient id="linear-gradient-3" x1="141.582" y1="928.123" x2="150.583" y2="928.123" gradientTransform="translate(-184.421 -1252.755) scale(1.33 1.363)" gradientUnits="userSpaceOnUse">
      <stop offset="0" stop-color="#74b5c8"/>
      <stop offset="0.175" stop-color="#6baec3"/>
      <stop offset="0.457" stop-color="#539eb5"/>
      <stop offset="0.809" stop-color="#2f849f"/>
      <stop offset="1" stop-color="#187491"/>
    </linearGradient>
    <linearGradient id="linear-gradient-4" x1="3.75" y1="744.25" x2="26.25" y2="766.75" gradientTransform="translate(4 -718)" gradientUnits="userSpaceOnUse">
      <stop offset="0" stop-color="#73b4c8"/>
      <stop offset="0.175" stop-color="#6aaec3"/>
      <stop offset="0.457" stop-color="#529eb5"/>
      <stop offset="0.809" stop-color="#2c839f"/>
      <stop offset="1" stop-color="#147391"/>
    </linearGradient>
  </defs>
  <g id="g866">
    <path id="polygon58" d="M47.491,47.4V25.916l-8.914-8.6H23.425V47.4Z" stroke="#474747" stroke-miterlimit="10" stroke-width="1.3" fill="url(#linear-gradient)"/>
    <path id="polygon60" d="M38.576,25.3h8.913L38.576,17.32Z" stroke="#474747" stroke-linejoin="round" stroke-width="1.252" fill="url(#linear-gradient-2)"/>
    <path id="path1610" d="M9.674,17.223c.062,3.531.122,7.063,1.3,8.9s3.456,1.989,5.457-.8,3.74-8.566,5.217-12.407,2.7-5.774,4.088-6.561,2.942-.43,4.075,1.487,1.851,5.4,2.566,8.885" fill="none" stroke="#474747"/>
    <path id="path1614" d="M6.278,2.766a.543.543,0,0,0-.5.58v4.34a.7.7,0,0,0,.014.08H2.246a.462.462,0,0,0-.462.463V8.3a.462.462,0,0,0,.462.463h.572l0,0v4.819h.008c.919,2.491,3.759,4.159,6.983,4.159s6.08-1.662,6.992-4.159V8.766h.5a.463.463,0,0,0,.463-.463V8.229a.463.463,0,0,0-.463-.463H13.755a.535.535,0,0,0,.014-.08V3.346a.5.5,0,1,0-1,0v4.34a.535.535,0,0,0,.014.08H6.765a.7.7,0,0,0,.014-.08V3.346A.543.543,0,0,0,6.278,2.766Z" fill="#474747" stroke="#6f6f6f" stroke-width="0.019"/>
    <path id="path1614-9" d="M3.838,8.737l-.02,4.776c.806,2.255,3.254,3.232,5.993,3.233S15,15.782,15.8,13.53V8.736Z" fill="url(#linear-gradient-3)"/>
    <path id="rect45" d="M4.5,29.5h29v16H4.5Z" stroke="#464646" stroke-miterlimit="10" fill="url(#linear-gradient-4)"/>
    <rect id="rect870" x="27" y="26" width="9" height="1" fill="#5b5b5b"/>
    <rect id="rect870-1" x="35" y="30" width="9" height="1" fill="#5b5b5b"/>
    <rect id="rect870-1-7" x="35" y="34" width="9" height="1" fill="#5b5b5b"/>
    <rect id="rect870-1-7-6" x="35" y="38" width="9" height="1" fill="#5b5b5b"/>
    <rect id="rect870-1-7-6-4" x="35" y="42" width="9" height="1" fill="#5b5b5b"/>
    <path id="path934" d="M10.185,42.943a4.414,4.414,0,0,1-3.61-2.52,5.681,5.681,0,0,1-.551-2.461,5.785,5.785,0,0,1,1.607-4.514,4.905,4.905,0,0,1,2.94-1.406,9.6,9.6,0,0,1,2.36.09,6.6,6.6,0,0,1,.756.2l.121.046.007,1.136c0,.625,0,1.136,0,1.136a1.444,1.444,0,0,1-.159-.087,4.376,4.376,0,0,0-1.3-.462,5.856,5.856,0,0,0-1.288-.039,2.864,2.864,0,0,0-1.732.828,3.219,3.219,0,0,0-.88,1.721A6.875,6.875,0,0,0,8.4,38.138a2.923,2.923,0,0,0,2.289,2.732,3.014,3.014,0,0,0,.724.057,4.272,4.272,0,0,0,2.022-.462c.188-.094.351-.174.362-.179s.019.477.019,1.071v1.08l-.251.106a6.027,6.027,0,0,1-1.783.411,11.2,11.2,0,0,1-1.6-.011Z" fill="#fff"/>
    <path id="path936" d="M17.23,43a6.251,6.251,0,0,1-2.043-.506l-.133-.067V40.069l.135.115a4.2,4.2,0,0,0,2.492.957,2.179,2.179,0,0,0,1.628-.44.937.937,0,0,0,.159-1.11,2.006,2.006,0,0,0-.6-.61,7.964,7.964,0,0,0-1.236-.635,6.381,6.381,0,0,1-1.2-.63,2.932,2.932,0,0,1-1.4-2.868,2.716,2.716,0,0,1,.758-1.758,3.5,3.5,0,0,1,1.773-.949,5.713,5.713,0,0,1,1.506-.153,6.663,6.663,0,0,1,2.13.282l.323.1v1.1a4.6,4.6,0,0,1-.033,1.082c-.017-.01-.078-.05-.135-.088a4.558,4.558,0,0,0-1.747-.589,4.136,4.136,0,0,0-1.189.052,1.311,1.311,0,0,0-.921.638.634.634,0,0,0-.083.386.872.872,0,0,0,.314.7,4.62,4.62,0,0,0,1.474.878,11.509,11.509,0,0,1,1.1.557,3.073,3.073,0,0,1,1.585,1.929,3.923,3.923,0,0,1-.09,1.991,2.622,2.622,0,0,1-.67,1.025,3.228,3.228,0,0,1-1.546.806A5.557,5.557,0,0,1,18.016,43C17.64,43.008,17.287,43.006,17.23,43Z" fill="#fff"/>
    <path id="path938" d="M24.708,38.865c-1.709-5.506-2.116-6.82-2.116-6.84.963,0,1.383-.016,2.408-.012l.147.539c1.511,5.52,1.922,7.027,1.983,7.271a5.3,5.3,0,0,1,.152.849c0,.14.071.11.09-.039.055-.416.242-1.14,1.185-4.6.575-2.111,1.058-3.883,1.072-3.937l.026-.1H32l-.017.059c-.048.158-1.129,3.6-1.915,6.1-.484,1.538-1.024,3.257-1.2,3.819L28.547,43H25.992Z" fill="#fff"/>
    <rect id="rect870-7" x="27" y="23" width="9" height="1" fill="#5b5b5b"/>
  </g>
</svg>
