<svg id="Image" xmlns="http://www.w3.org/2000/svg" xmlns:xlink="http://www.w3.org/1999/xlink" viewBox="0 0 48 48">
  <defs>
    <linearGradient id="linear-gradient" x1="4.437" y1="48" x2="48.437" y2="4" gradientTransform="matrix(1, 0, 0, -1, 0, 50)" gradientUnits="userSpaceOnUse">
      <stop offset="0" stop-color="#fff"/>
      <stop offset="1" stop-color="#dcdcdc"/>
    </linearGradient>
    <linearGradient id="linear-gradient-2" x1="64.07" y1="825.423" x2="90.586" y2="851.939" gradientTransform="translate(-36.273 -674.572) scale(0.831 0.833)" gradientUnits="userSpaceOnUse">
      <stop offset="0" stop-color="#a0d1db"/>
      <stop offset="1" stop-color="#6ab1c3"/>
    </linearGradient>
    <linearGradient id="linear-gradient-3" x1="67.385" y1="828.738" x2="87.271" y2="848.625" gradientTransform="translate(-36.273 -674.572) scale(0.831 0.833)" gradientUnits="userSpaceOnUse">
      <stop offset="0" stop-color="#fff"/>
      <stop offset="1" stop-color="#b1b4b4"/>
    </linearGradient>
  </defs>
  <g id="g918">
    <g id="g869">
      <path id="rect16" d="M5.437,1h42V47h-42Z" fill="url(#linear-gradient)"/>
      <path id="path18" d="M5.438,1V11.062H1.5a.5.5,0,0,0,0,1H5.438v24H1.5a.5.5,0,0,0,0,1H5.438V47h42V1Zm41,45h-40V37.062h4.874a.5.5,0,0,0,0-1H6.438v-24h4.874a.5.5,0,0,0,0-1H6.438V2h40Z" fill="#464646"/>
      <g id="Image-3">
        <g id="g39">
          <g id="g31">
            <path id="circle27" d="M43.584,23.967A15.584,15.584,0,1,1,28,8.35,15.6,15.6,0,0,1,43.584,23.967Z" fill="url(#linear-gradient-2)"/>
            <path id="path29" d="M28,40A16.034,16.034,0,1,1,44,23.967,16.016,16.016,0,0,1,28,40ZM28,8.766a15.2,15.2,0,1,0,15.169,15.2A15.185,15.185,0,0,0,28,8.766Z" fill="#3f4143"/>
          </g>
          <g id="g37">
            <path id="circle33" d="M39.688,23.967A11.688,11.688,0,1,1,28,12.254h0A11.7,11.7,0,0,1,39.688,23.967Z" fill="url(#linear-gradient-3)"/>
            <path id="path35" d="M28,36.1A12.13,12.13,0,1,1,40.1,23.967h0A12.13,12.13,0,0,1,28,36.1Zm0-23.425a11.3,11.3,0,1,0,11.273,11.3h0A11.3,11.3,0,0,0,28,12.671Z" fill="#3f4143"/>
          </g>
        </g>
      </g>
    </g>
  </g>
</svg>
