<svg id="Layer_1" data-name="Layer 1" xmlns="http://www.w3.org/2000/svg" xmlns:xlink="http://www.w3.org/1999/xlink" viewBox="0 0 48 48">
  <defs>
    <linearGradient id="linear-gradient" x1="-26.763" y1="712.869" x2="6.652" y2="746.285" gradientTransform="translate(35.282 -788.508) scale(1.122)" gradientUnits="userSpaceOnUse">
      <stop offset="0" stop-color="#fff"/>
      <stop offset="0.221" stop-color="#f8f8f8"/>
      <stop offset="0.541" stop-color="#e5e5e5"/>
      <stop offset="0.92" stop-color="#c6c6c6"/>
      <stop offset="1" stop-color="#bebebe"/>
    </linearGradient>
    <linearGradient id="linear-gradient-2" x1="-22.762" y1="698.04" x2="2.651" y2="723.453" gradientTransform="translate(35.282 -788.508) scale(1.122)" gradientUnits="userSpaceOnUse">
      <stop offset="0" stop-color="#73b4c8"/>
      <stop offset="0.175" stop-color="#6aaec3"/>
      <stop offset="0.457" stop-color="#529eb5"/>
      <stop offset="0.809" stop-color="#2c839f"/>
      <stop offset="1" stop-color="#147391"/>
    </linearGradient>
    <linearGradient id="linear-gradient-3" x1="7.624" y1="762.369" x2="17.476" y2="769.92" gradientTransform="translate(1.188 -739.944)" xlink:href="#linear-gradient-2"/>
  </defs>
  <g id="g856">
    <path id="path13" d="M1.561,15.024V44.2A2.243,2.243,0,0,0,3.8,46.444H44.2A2.242,2.242,0,0,0,46.439,44.2V15.024Z" fill="url(#linear-gradient)"/>
    <path id="path26" d="M46.439,15.024V3.805A2.242,2.242,0,0,0,44.2,1.561H3.805A2.244,2.244,0,0,0,1.561,3.805h0V15.024Z" stroke="#147391" stroke-miterlimit="10" stroke-width="1.122" fill="url(#linear-gradient-2)"/>
    <path id="circle42" d="M17.268,7.732a1.683,1.683,0,1,1-3.366,0h0a1.684,1.684,0,0,1,1.683-1.683h0A1.682,1.682,0,0,1,17.268,7.73Z" fill="#fff" stroke="#147391" stroke-miterlimit="10" stroke-width="1.122"/>
    <path id="circle44" d="M34.1,7.732a1.683,1.683,0,1,1-1.683-1.683h0A1.685,1.685,0,0,1,34.1,7.732Z" fill="#fff" stroke="#147391" stroke-miterlimit="10" stroke-width="1.122"/>
    <path id="rect881-0-4" d="M2,38.208H46v1.125H2Z" fill="#6e6e6e"/>
    <path id="rect913" d="M27.927,15.582h1.122V46H27.927Z" fill="#6e6e6e"/>
    <path id="rect913-6" d="M36.9,15.582h1.122V46H36.9Z" fill="#6e6e6e"/>
    <path id="rect852" d="M10.533,23.168h8.629v7.766H10.533Z" fill="url(#linear-gradient-3)"/>
    <path id="line28" d="M10.537,15.585V45.878" fill="none" stroke="#6e6e6e" stroke-width="1.122"/>
    <path id="line30" d="M19.512,15.585V45.878" fill="none" stroke="#6e6e6e" stroke-width="1.122"/>
    <path id="rect881" d="M2,22.316H46v1.125H2Z" fill="#6e6e6e"/>
    <path id="rect881-0" d="M2,30.422H46v1.125H2Z" fill="#6e6e6e"/>
    <path id="path46" d="M46.439,44.2V3.805A2.242,2.242,0,0,0,44.2,1.561H3.805A2.243,2.243,0,0,0,1.561,3.8V44.2A2.243,2.243,0,0,0,3.8,46.444H44.2A2.242,2.242,0,0,0,46.439,44.2Z" fill="none" stroke="#464646" stroke-miterlimit="10" stroke-width="1.122"/>
  </g>
</svg>
