<svg id="Layer_1" data-name="Layer 1" xmlns="http://www.w3.org/2000/svg" xmlns:xlink="http://www.w3.org/1999/xlink" viewBox="0 0 48 48">
  <defs>
    <linearGradient id="linear-gradient" x1="31.67" y1="11.898" x2="70.92" y2="-27.352" gradientTransform="matrix(0.917, 0, 0, -0.917, -28.917, 14.953)" gradientUnits="userSpaceOnUse">
      <stop offset="0" stop-color="#73b4c8"/>
      <stop offset="0.175" stop-color="#6aaec3"/>
      <stop offset="0.457" stop-color="#529eb5"/>
      <stop offset="0.809" stop-color="#2c839f"/>
      <stop offset="1" stop-color="#147391"/>
    </linearGradient>
    <linearGradient id="linear-gradient-2" x1="21.295" y1="5.023" x2="46.795" y2="-20.477" gradientTransform="matrix(0.917, 0, 0, -0.917, -28.917, 14.953)" gradientUnits="userSpaceOnUse">
      <stop offset="0" stop-color="#f2f2f2"/>
      <stop offset="0.5" stop-color="#ccc"/>
      <stop offset="0.63" stop-color="#c7c7c7"/>
      <stop offset="0.779" stop-color="#b9b9b9"/>
      <stop offset="0.938" stop-color="#a2a2a2"/>
      <stop offset="0.99" stop-color="#999"/>
    </linearGradient>
    <linearGradient id="linear-gradient-3" x1="-34.147" y1="116.124" x2="-27.281" y2="111.29" gradientTransform="matrix(1.369, 0, 0, -1.369, 81.157, 196.736)" xlink:href="#linear-gradient-2"/>
    <linearGradient id="linear-gradient-4" x1="-46.511" y1="116.184" x2="-39.808" y2="111.186" gradientTransform="matrix(1.369, 0, 0, -1.369, 81.157, 196.736)" xlink:href="#linear-gradient-2"/>
  </defs>
  <g id="g880">
    <g id="g883">
      <path id="polygon13" d="M3.667,43.578V.494H32.542V43.578Z" fill="url(#linear-gradient)"/>
      <path id="rect28" d="M.458.494H4.125V43.578H.458Z" stroke="#147391" stroke-miterlimit="9.167" stroke-width="0.917" fill="url(#linear-gradient-2)"/>
      <path id="path30" d="M26.125,16.078H9.625a.867.867,0,0,1-.917-.917V8.744a.866.866,0,0,1,.917-.916h16.5a.866.866,0,0,1,.917.916v6.417A.867.867,0,0,1,26.125,16.078Z" fill="#fff" stroke="#147391" stroke-miterlimit="3.667" stroke-width="0.917"/>
      <path id="line32" d="M21.083,13.328h-11" fill="none" stroke="#147391" stroke-miterlimit="3.667" stroke-width="0.917"/>
      <path id="line34" d="M23.833,10.578H10.083" fill="none" stroke="#147391" stroke-miterlimit="3.667" stroke-width="0.917"/>
      <path id="rect36" d="M.458.494H32.542V43.578H.458Z" fill="none" stroke="#464646" stroke-miterlimit="9.167" stroke-width="0.917"/>
    </g>
    <path id="path1169-9" d="M31.436,38.106v2.312a.96.96,0,0,0-.787.3,5.73,5.73,0,0,0-.615,1.353c-.333.808-.521,1.677-.91,2.46a4.665,4.665,0,0,1-.845,1.317,7.177,7.177,0,0,1-2.8,1.659,9.386,9.386,0,0,1-4.231.32,6.757,6.757,0,0,1-3.075-1.254,5.95,5.95,0,0,1-1.691-2.285,9.084,9.084,0,0,1-.5-2.414,2.867,2.867,0,0,0-.271-1.008,2.089,2.089,0,0,0-.763-.788V35.99l3.961.049c1.708.029,3.135-.005,4.7.1a19.955,19.955,0,0,1,3,.344c1.656.37,3.334,1.416,4.822,1.624Z" fill="#464646" stroke="#464646" stroke-width="0.137"/>
    <path id="path1169" d="M31.436,38.106v2.312a.963.963,0,0,1,.787.3,5.771,5.771,0,0,1,.615,1.353c.333.808.52,1.677.91,2.46a4.665,4.665,0,0,0,.845,1.317,7.177,7.177,0,0,0,2.8,1.659,9.386,9.386,0,0,0,4.231.32A6.761,6.761,0,0,0,44.7,46.568a5.96,5.96,0,0,0,1.691-2.285,9.123,9.123,0,0,0,.5-2.414,2.867,2.867,0,0,1,.271-1.008,2.094,2.094,0,0,1,.762-.788V35.99l-3.96.049c-1.708.029-3.136-.005-4.7.1a19.984,19.984,0,0,0-3,.344c-1.655.37-3.333,1.416-4.821,1.624Z" fill="#464646" stroke="#464646" stroke-width="0.137"/>
    <path id="path1051" d="M36.549,38.264a20.324,20.324,0,0,1,6.662-.39c.98.111,1.725,1.253,1.966,2.209a7.108,7.108,0,0,1,.1,2.637,3.9,3.9,0,0,1-1.226,2.547,3.669,3.669,0,0,1-2.5,1.259,8.787,8.787,0,0,1-2.609-.052A5.7,5.7,0,0,1,35.506,44.6a4.1,4.1,0,0,1-.8-1.878,7.471,7.471,0,0,1-.052-3.062c.135-.772,1.127-1.237,1.9-1.391Z" stroke="#464646" stroke-width="0.137" fill="url(#linear-gradient-3)"/>
    <path id="path1152" d="M39.751,31.158c-.785.247-2.228.643-2.5,1.635-.095.34.149.769.748.748a1.076,1.076,0,0,0,.331-.07,10.835,10.835,0,0,0,1.339-.678c.273-.152.789-.355,1.061-.139l4.418,3.235,2.627-.017-6.819-4.679a1.746,1.746,0,0,0-1.2-.035Z" fill="#464646" stroke="#464646" stroke-width="0.137"/>
    <path id="path1152-2" d="M23.11,31.158c.786.246,2.228.643,2.5,1.635.1.339-.149.769-.748.748a1.106,1.106,0,0,1-.33-.07,10.874,10.874,0,0,1-1.34-.678c-.272-.153-.788-.355-1.061-.14l-4.418,3.236-2.626-.017,6.818-4.679a1.741,1.741,0,0,1,1.2-.035Z" fill="#464646" stroke="#464646" stroke-width="0.137"/>
    <path id="path1051-1" d="M26.485,38.23a20.268,20.268,0,0,0-6.662-.39c-.979.111-1.725,1.253-1.965,2.209a7.088,7.088,0,0,0-.105,2.637,3.91,3.91,0,0,0,1.227,2.546,3.67,3.67,0,0,0,2.5,1.26,8.822,8.822,0,0,0,2.609-.052,5.7,5.7,0,0,0,3.444-1.879,4.115,4.115,0,0,0,.8-1.879,7.432,7.432,0,0,0,.052-3.061c-.135-.772-1.127-1.238-1.9-1.392Z" stroke="#464646" stroke-width="0.137" fill="url(#linear-gradient-4)"/>
  </g>
</svg>
