<svg id="Image" xmlns="http://www.w3.org/2000/svg" xmlns:xlink="http://www.w3.org/1999/xlink" viewBox="0 0 48 48">
  <defs>
    <linearGradient id="linear-gradient" x1="0.024" y1="747.228" x2="40.274" y2="787.478" gradientTransform="translate(0.001 -743.9)" gradientUnits="userSpaceOnUse">
      <stop offset="0" stop-color="#afd7e1"/>
      <stop offset="1" stop-color="#73b4c8"/>
    </linearGradient>
    <linearGradient id="linear-gradient-2" x1="13.593" y1="753.913" x2="27.264" y2="767.583" gradientTransform="translate(0.001 -743.9)" gradientUnits="userSpaceOnUse">
      <stop offset="0" stop-color="#73b4c8"/>
      <stop offset="1" stop-color="#177491"/>
    </linearGradient>
    <linearGradient id="linear-gradient-3" x1="26.473" y1="774.141" x2="47.32" y2="791.327" gradientTransform="translate(0.999 -742.748)" xlink:href="#linear-gradient"/>
  </defs>
  <g id="g896">
    <g id="g28">
      <g id="g18">
        <g id="g895">
          <path id="path14" d="M37.5,44.1l.091-25.908v-.136H45.5a66.81,66.81,0,0,1-5.727-7.772C37.683,6.8,37.6,1.429,37.593.693V.6H.5V44.1h37" fill="url(#linear-gradient)"/>
        </g>
        <path id="path16" d="M37.5,44.6H.5a.5.5,0,0,1-.5-.5V.624A.5.5,0,0,1,.24.172.491.491,0,0,1,.551.1h37.04a.5.5,0,0,1,.5.5c0,.688.074,6.032,2.11,9.424a66.307,66.307,0,0,0,5.676,7.7.5.5,0,0,1-.052.7.494.494,0,0,1-.326.122H38.093L38,44.1A.5.5,0,0,1,37.5,44.6ZM1,43.6H37l.09-25.544a.5.5,0,0,1,.5-.5h6.837a63.467,63.467,0,0,1-5.084-7.015C37.423,7.335,37.139,2.716,37.1,1.1H1Z" fill="#464646"/>
      </g>
      <path id="path20" d="M18.911,18.558A16.523,16.523,0,0,1,4.561,9.491C.7,2.048.154,1,.077.862L.058.826A.5.5,0,0,1,.269.151H.275c.286-.151.388-.2.66.233L.952.376a.442.442,0,0,1,.036.1c.144.243.332.605.608,1.134.592,1.137,1.718,3.3,3.853,7.422a15.451,15.451,0,0,0,13.577,8.525H37.594a.5.5,0,0,1,0,1H18.911Z" fill="#464646"/>
      <g id="g26">
        <path id="path22" d="M30.639,18.059c-3.068-.611-9-6.753-9-6.753L7.97,13.387s4.949,4.632,10.157,4.672S30.639,18.059,30.639,18.059Z" fill="url(#linear-gradient-2)"/>
        <path id="path24" d="M23.672,18.576c-1.856,0-3.822,0-5.549-.018-5.342-.04-10.287-4.61-10.495-4.81a.5.5,0,0,1,.267-.86l13.669-2.08a.5.5,0,0,1,.435.147c.059.06,5.858,6.035,8.738,6.609a.5.5,0,0,1-.094.99C30.594,18.559,27.353,18.576,23.672,18.576ZM9.134,13.715c1.59,1.264,5.258,3.816,9,3.843,3.343.026,7.59.019,10.174.01a42.765,42.765,0,0,1-6.843-5.729Z" fill="#464646"/>
      </g>
    </g>
    <g id="g34">
      <path id="rect30" d="M8.21,7.1H35.46a1,1,0,0,1,1,1v1a1,1,0,0,1-1,1H8.21a1,1,0,0,1-1-1v-1A1,1,0,0,1,8.21,7.1Z" fill="#fff"/>
      <path id="path32" d="M31.435,12.754H25.872a16.487,16.487,0,0,0,1.569,1.678,12.308,12.308,0,0,0,1.719,1.322h2.275a1,1,0,0,0,1-1v-1A1,1,0,0,0,31.435,12.754Z" fill="#fff"/>
    </g>
    <g id="g42">
      <path id="rect36" d="M3.877,29.556h24a1,1,0,0,1,1,1v1a1,1,0,0,1-1,1h-24a1,1,0,0,1-1-1v-1A1,1,0,0,1,3.877,29.556Z" fill="#fff"/>
      <path id="rect38" d="M3.877,23.348H34a1,1,0,0,1,1,1v1a1,1,0,0,1-1,1H3.877a1,1,0,0,1-1-1v-1A1,1,0,0,1,3.877,23.348Z" fill="#fff"/>
      <path id="rect40" d="M3.877,35.765h16.5a1,1,0,0,1,1,1v1a1,1,0,0,1-1,1H3.877a1,1,0,0,1-1-1v-1A1,1,0,0,1,3.877,35.765Z" fill="#fff"/>
    </g>
    <path id="rect882" d="M26.542,30.508H47v17.1H26.542Z" fill="url(#linear-gradient-3)"/>
    <path id="path841" d="M31.136,32.7H29.694V45.3h1.442Z" fill="#464646"/>
    <path id="path839" d="M32.341,32.7H31.86V45.3h.481Z" fill="#464646"/>
    <path id="path837" d="M34.025,32.7h-.48V45.3h.48Z" fill="#464646"/>
    <path id="path835" d="M35.951,32.7h-.963V45.3h.961Z" fill="#464646"/>
    <path id="path833" d="M37.4,32.7h-.481V45.3H37.4Z" fill="#464646"/>
    <path id="path827" d="M40.355,45.3h.48V32.7h-.48Z" fill="#464646"/>
    <path id="path825" d="M42.04,45.3h.484V32.7h-.48Z" fill="#464646"/>
    <path id="path823" d="M39.171,45.3V32.7H38.69V45.3Z" fill="#464646"/>
    <path id="path821" d="M44.394,45.3V32.7h-.96V45.3Z" fill="#464646"/>
    <path id="rect836" d="M26,30V48H48V30Zm1,.818H47V47.182H27Z" fill="#464646"/>
  </g>
</svg>
