<svg id="Layer_1" data-name="Layer 1" xmlns="http://www.w3.org/2000/svg" xmlns:xlink="http://www.w3.org/1999/xlink" viewBox="0 0 48 48">
  <defs>
    <linearGradient id="linear-gradient" x1="6.133" y1="57.932" x2="23.196" y2="48.745" gradientTransform="matrix(1.025, 0, 0, -1.025, 6.443, 58.788)" gradientUnits="userSpaceOnUse">
      <stop offset="0" stop-color="#cee6eb"/>
      <stop offset="0.221" stop-color="#c6e2e8"/>
      <stop offset="0.542" stop-color="#b3d8e1"/>
      <stop offset="0.921" stop-color="#93c7d4"/>
      <stop offset="1" stop-color="#8dc3d2"/>
    </linearGradient>
    <linearGradient id="linear-gradient-2" x1="6.14" y1="57.944" x2="23.203" y2="48.757" xlink:href="#linear-gradient"/>
    <linearGradient id="linear-gradient-3" x1="-0.649" y1="30.435" x2="25.407" y2="15.765" gradientTransform="matrix(1.046, 0, 0, -1.025, 11.294, 58.687)" gradientUnits="userSpaceOnUse">
      <stop offset="0" stop-color="#fff"/>
      <stop offset="1" stop-color="#dadada"/>
    </linearGradient>
    <linearGradient id="linear-gradient-4" x1="-6.294" y1="19.477" x2="30.714" y2="19.477" xlink:href="#linear-gradient-3"/>
    <linearGradient id="linear-gradient-5" x1="55.212" y1="804.442" x2="73.371" y2="822.601" gradientTransform="translate(-34.717 -687.69) scale(0.865 0.869)" xlink:href="#linear-gradient"/>
    <linearGradient id="linear-gradient-6" x1="-13.605" y1="26.709" x2="0.782" y2="16.959" gradientTransform="matrix(1.052, 0, 0, -1.052, 19.906, 40.286)" xlink:href="#linear-gradient"/>
    <linearGradient id="linear-gradient-8" x1="1312.527" y1="1913.846" x2="1358.516" y2="1959.834" gradientTransform="matrix(0, 0.361, 0.268, 0, -484.737, -455.99)" gradientUnits="userSpaceOnUse">
      <stop offset="0" stop-color="#f2f2f2"/>
      <stop offset="0.217" stop-color="#eee"/>
      <stop offset="0.425" stop-color="#e3e3e3"/>
      <stop offset="0.628" stop-color="#cfcfcf"/>
      <stop offset="0.828" stop-color="#b5b5b5"/>
      <stop offset="0.99" stop-color="#999"/>
    </linearGradient>
    <linearGradient id="linear-gradient-9" x1="156.358" y1="959.721" x2="162.86" y2="937.981" gradientTransform="translate(-78.772 -659.699) scale(0.723)" gradientUnits="userSpaceOnUse">
      <stop offset="0.01" stop-color="#999"/>
      <stop offset="0.295" stop-color="#bdbdbd"/>
      <stop offset="0.577" stop-color="#dadada"/>
      <stop offset="0.821" stop-color="#ececec"/>
      <stop offset="1" stop-color="#f2f2f2"/>
    </linearGradient>
    <linearGradient id="linear-gradient-10" x1="80.96" y1="-8.248" x2="86.311" y2="-28.012" gradientTransform="matrix(0.827, 0, 0, -0.827, -47.922, -27.254)" xlink:href="#linear-gradient-9"/>
    <linearGradient id="linear-gradient-11" x1="802.753" y1="-1855.767" x2="811.671" y2="-1864.684" gradientTransform="matrix(0.378, 0, 0, -0.361, -273.418, -642.487)" gradientUnits="userSpaceOnUse">
      <stop offset="0" stop-color="#73b4c8"/>
      <stop offset="0.175" stop-color="#6aaec3"/>
      <stop offset="0.457" stop-color="#529eb5"/>
      <stop offset="0.809" stop-color="#2c839f"/>
      <stop offset="1" stop-color="#147391"/>
    </linearGradient>
    <linearGradient id="linear-gradient-12" x1="158.02" y1="942.959" x2="162.328" y2="947.521" gradientTransform="translate(-78.772 -659.699) scale(0.723)" xlink:href="#linear-gradient-11"/>
  </defs>
  <g id="g905">
    <path id="path1254" d="M19.9,9.215c-3.517-.376-6.566-2.135-7.608-4.388a6.543,6.543,0,0,1-.459-2.353V2.118h19.06l-.064.929a4.334,4.334,0,0,1-.807,2.439,8.7,8.7,0,0,1-2.3,2.149,15.747,15.747,0,0,1-3.252,1.282,16.759,16.759,0,0,1-4.573.3Z" stroke-miterlimit="10" stroke-width="0.14" fill="url(#linear-gradient)" stroke="url(#linear-gradient-2)"/>
    <path id="path1126" d="M14.413,40.355C9.149,37.309,4.8,34.791,4.755,34.76c-.085-.056-.049-.084,1.694-1.382.98-.728,1.931-1.438,2.113-1.577l.331-.252.158.051.157.052.019,1.176.019,1.177,1.494.009,1.495.01V31.909l3.108.025c1.709.013,5.153.024,7.651.024h4.544V35.5H40.584l.009-1.232.01-1.231,1.372.809,1.422.838c.059.034-19.227,11.214-19.341,11.212-.04,0-4.379-2.494-9.643-5.54Z" stroke-miterlimit="10" stroke-width="0.244" fill="url(#linear-gradient-3)" stroke="url(#linear-gradient-4)"/>
    <path id="rect818" d="M9.9,31.2h2.894V34.1H9.9Z" fill="#464646"/>
    <path id="rect888" d="M20.023,9.508h2.984V12.4H20.023Z" fill="#464646"/>
    <g id="g51">
      <path id="path43" d="M23.468,46.747a1.031,1.031,0,0,0,1.071,0A1.031,1.031,0,0,1,23.468,46.747Z" fill="#4f4b49" stroke="#464646" stroke-width="0.237"/>
      <path id="path45" d="M24,22.554a1.054,1.054,0,0,0-.279.038A1.054,1.054,0,0,1,24,22.554Z" fill="#4f4b49" stroke="#464646" stroke-width="0.237"/>
      <path id="path47-5" d="M24,22.554a1.054,1.054,0,0,0-.279.038A1.054,1.054,0,0,1,24,22.554Z" stroke="#464646" stroke-width="0.237" fill="url(#linear-gradient-5)"/>
      <path id="path49" d="M43.447,34.035l-3.355-2.011v1.012l2.9,1.739c.011.008.031.022.031.036s-.018.027-.018.027L24.087,46.006a.179.179,0,0,1-.087.022A.182.182,0,0,1,23.9,46L5,34.844c-.012-.008-.032-.023-.032-.032s.018-.026.018-.026l4.093-3.108V30.666L4.539,34.039a.9.9,0,0,0,0,1.55L23.468,46.747a1.031,1.031,0,0,0,1.071,0l18.9-11.163A.9.9,0,0,0,43.447,34.035Z" fill="#474647" stroke="#464646" stroke-width="0.237"/>
    </g>
    <path id="path1124" d="M19.844,9.777a11.374,11.374,0,0,1-6.93-3.041A5.351,5.351,0,0,1,11.292,2.6V1.513H31.445l-.044,1.3a4.086,4.086,0,0,1-.435,2.172A7.9,7.9,0,0,1,28.04,8.12,14.524,14.524,0,0,1,24.015,9.6a17.761,17.761,0,0,1-4.171.176Z" fill="none" stroke="#464646" stroke-miterlimit="10" stroke-width="1.025"/>
    <path id="path1183-5" d="M10.569,30.884a4.1,4.1,0,0,1-2.993-1.927,3.756,3.756,0,0,1,.06-2.786C8.285,24,10.714,16.3,10.89,15.855a4.567,4.567,0,0,1,2.078-2.448c.494-.229.593-.24,2.778-.3,1.246-.037,5-.042,8.339-.012,6.038.054,6.075.055,6.537.258a4.7,4.7,0,0,1,2.126,2.371c.223.521,3.4,10.727,3.579,11.509.327,1.405-.608,2.772-2.387,3.491l-.52.209-11.1.013c-6.107.007-11.394-.019-11.748-.058Z" stroke-miterlimit="10" stroke-width="0.432" fill="url(#linear-gradient-6)" stroke="url(#linear-gradient-6)"/>
    <path id="path936" d="M21.487,15.108a10.831,10.831,0,0,0-11.049,10.6h0c0,.125.01.251.018.377h1.433c-.011-.15-.016-.3-.019-.447a9.387,9.387,0,0,1,9.6-9.146,9.808,9.808,0,0,1,7.346,3.273h1.812a11.19,11.19,0,0,0-9.139-4.654Z" fill="#464646"/>
    <path id="path840" d="M20.6,28.744a2.453,2.453,0,0,1-1.592-2.139,1.894,1.894,0,0,1,.13-.956l.16-.488L17.354,23.21l-1.943-1.948.438-.438.438-.438,1.948,1.948,1.949,1.948.357-.14a2.848,2.848,0,0,1,1.833,0,2.643,2.643,0,0,1,1.3,1.231,1.763,1.763,0,0,1,.212,1.083,1.778,1.778,0,0,1-.185,1.026,2.745,2.745,0,0,1-1.191,1.188,2.025,2.025,0,0,1-.956.2,1.767,1.767,0,0,1-.955-.13Z" fill="#464646"/>
    <path id="path886" d="M24.051,26.436a2.528,2.528,0,0,1-2.56,2.5h0a2.5,2.5,0,1,1,2.564-2.5Z" fill="#464646"/>
    <g id="g879">
      <path id="path1098-5-0-2" d="M21.942,12.016c-2.074-.006-3.993-.005-5.377.006-.761,0-1.388.014-1.849.024a7.687,7.687,0,0,0-.9.04,4.565,4.565,0,0,0-3.207,2.149,10.435,10.435,0,0,0-1.289,3.1c-.215.711-.988,3.158-1.711,5.412C7,24.644,6.666,25.683,6.482,26.362a5.022,5.022,0,0,0-.223,1.42,3.121,3.121,0,0,0,.314,1.566,5.169,5.169,0,0,0,3.782,2.6,3.6,3.6,0,0,0,.447.028c.207.007.483.012.82.018.674.011,1.59.021,2.669.028,2.124.014,4.888.022,7.651.022V31.021c-2.761,0-5.525-.008-7.645-.022-1.077-.008-1.992-.017-2.659-.028-.334-.006-.606-.012-.8-.019s-.359-.021-.321-.016a4.456,4.456,0,0,1-3-2.026A1.8,1.8,0,0,1,7.3,27.79a3.725,3.725,0,0,1,.189-1.164c.172-.635.5-1.675,1.108-3.567.725-2.256,1.494-4.687,1.718-5.425a9.163,9.163,0,0,1,1.169-2.847A3.4,3.4,0,0,1,13.971,13.1c-.034,0,.314-.02.767-.03s1.077-.016,1.835-.022c1.379-.01,3.3-.012,5.369-.006Z" fill="#464646"/>
      <path id="path1098-5-0-2-4" d="M21.849,12.016c2.074-.006,3.993-.005,5.377.006.761,0,1.388.014,1.85.024a7.666,7.666,0,0,1,.9.04,4.565,4.565,0,0,1,3.207,2.149,10.435,10.435,0,0,1,1.289,3.1c.216.711.988,3.158,1.712,5.412.607,1.893.938,2.932,1.122,3.611a5.022,5.022,0,0,1,.223,1.42,3.121,3.121,0,0,1-.314,1.566,5.169,5.169,0,0,1-3.782,2.6,3.6,3.6,0,0,1-.447.028c-.207.007-.483.012-.82.018-.673.011-1.59.021-2.669.028-2.124.015-4.888.022-7.651.022V31.021c2.761,0,5.525-.008,7.645-.022,1.077-.008,1.992-.017,2.659-.028.334-.006.606-.012.8-.019s.359-.021.321-.016a4.456,4.456,0,0,0,3-2.026,1.8,1.8,0,0,0,.213-1.12,3.725,3.725,0,0,0-.189-1.164c-.172-.635-.5-1.675-1.108-3.567-.724-2.256-1.494-4.687-1.717-5.425a9.158,9.158,0,0,0-1.17-2.847A3.4,3.4,0,0,0,29.821,13.1c.033,0-.315-.02-.768-.03s-1.077-.016-1.835-.022c-1.379-.01-3.3-.012-5.369-.006Z" fill="#464646"/>
    </g>
    <path id="rect41" d="M40.252,18.217v17H28.191v-17Z" stroke="#464646" stroke-miterlimit="10" stroke-width="0.82" fill="url(#linear-gradient-8)"/>
    <path id="rect45" d="M37.627,20.026V33.408H35.739V20.026Z" stroke="#6e6e6e" stroke-miterlimit="10" stroke-width="0.82" fill="url(#linear-gradient-9)"/>
    <path id="rect47" d="M32.72,20.026V33.408H30.834V20.026Z" stroke="#6e6e6e" stroke-miterlimit="10" stroke-width="0.82" fill="url(#linear-gradient-10)"/>
    <path id="rect49" d="M33.475,28.345v2.893a.369.369,0,0,1-.375.362H30.453a.369.369,0,0,1-.375-.362V28.345a.37.37,0,0,1,.376-.363H33.1a.369.369,0,0,1,.377.36h0Z" stroke="#147391" stroke-miterlimit="10" stroke-width="0.82" fill="url(#linear-gradient-11)"/>
    <path id="line51" d="M30.644,29.791h2.265" fill="none" stroke="#fff" stroke-miterlimit="10" stroke-width="0.82"/>
    <path id="rect53" d="M38.381,22.2V25.09a.369.369,0,0,1-.375.362H35.361a.369.369,0,0,1-.377-.36V22.2a.367.367,0,0,1,.374-.362H38A.368.368,0,0,1,38.381,22.2Z" stroke="#147391" stroke-miterlimit="10" stroke-width="0.82" fill="url(#linear-gradient-12)"/>
    <path id="line55" d="M35.55,23.643h2.265" fill="none" stroke="#fff" stroke-miterlimit="10" stroke-width="0.82"/>
  </g>
</svg>
