<svg id="Layer_1" data-name="Layer 1" xmlns="http://www.w3.org/2000/svg" xmlns:xlink="http://www.w3.org/1999/xlink" viewBox="0 0 48 48">
  <defs>
    <linearGradient id="linear-gradient" x1="30.295" y1="9.023" x2="68.795" y2="-29.477" gradientTransform="matrix(0.917, 0, 0, -0.917, -28.917, 14.917)" gradientUnits="userSpaceOnUse">
      <stop offset="0" stop-color="#fff"/>
      <stop offset="0.221" stop-color="#f8f8f8"/>
      <stop offset="0.541" stop-color="#e5e5e5"/>
      <stop offset="0.92" stop-color="#c6c6c6"/>
      <stop offset="1" stop-color="#bebebe"/>
    </linearGradient>
    <linearGradient id="linear-gradient-2" x1="33.295" y1="6.023" x2="65.795" y2="-26.477" gradientTransform="matrix(0.917, 0, 0, -0.917, -28.917, 14.917)" gradientUnits="userSpaceOnUse">
      <stop offset="0" stop-color="#fff"/>
      <stop offset="0.335" stop-color="#f8f8f8"/>
      <stop offset="0.82" stop-color="#e5e5e5"/>
      <stop offset="1" stop-color="#dcdcdc"/>
    </linearGradient>
    <linearGradient id="linear-gradient-3" x1="49.545" y1="6.773" x2="49.545" y2="15.773" gradientTransform="matrix(0.917, 0, 0, -0.917, -28.917, 14.917)" gradientUnits="userSpaceOnUse">
      <stop offset="0" stop-color="#bebebe"/>
      <stop offset="0.045" stop-color="#c4c4c4"/>
      <stop offset="0.268" stop-color="#dedede"/>
      <stop offset="0.497" stop-color="#f0f0f0"/>
      <stop offset="0.736" stop-color="#fbfbfb"/>
      <stop offset="1" stop-color="#fff"/>
    </linearGradient>
    <linearGradient id="linear-gradient-4" x1="1057.856" y1="1653.681" x2="1103.845" y2="1699.669" gradientTransform="matrix(0, 0.48, 0.356, 0, -557.936, -483.329)" gradientUnits="userSpaceOnUse">
      <stop offset="0" stop-color="#f2f2f2"/>
      <stop offset="0.217" stop-color="#eee"/>
      <stop offset="0.425" stop-color="#e3e3e3"/>
      <stop offset="0.628" stop-color="#cfcfcf"/>
      <stop offset="0.828" stop-color="#b5b5b5"/>
      <stop offset="0.99" stop-color="#999"/>
    </linearGradient>
    <linearGradient id="linear-gradient-5" x1="60.023" y1="832.531" x2="66.525" y2="810.791" gradientTransform="translate(-18.087 -754.22) scale(0.962)" gradientUnits="userSpaceOnUse">
      <stop offset="0.01" stop-color="#999"/>
      <stop offset="0.295" stop-color="#bdbdbd"/>
      <stop offset="0.577" stop-color="#dadada"/>
      <stop offset="0.821" stop-color="#ececec"/>
      <stop offset="1" stop-color="#f2f2f2"/>
    </linearGradient>
    <linearGradient id="linear-gradient-6" x1="-3.334" y1="103.044" x2="2.017" y2="83.28" gradientTransform="matrix(1.099, 0, 0, -1.099, 22.937, 86.799)" xlink:href="#linear-gradient-5"/>
    <linearGradient id="linear-gradient-7" x1="618.304" y1="-1601.096" x2="627.222" y2="-1610.013" gradientTransform="matrix(0.502, 0, 0, -0.48, -276.927, -731.331)" gradientUnits="userSpaceOnUse">
      <stop offset="0" stop-color="#73b4c8"/>
      <stop offset="0.175" stop-color="#6aaec3"/>
      <stop offset="0.457" stop-color="#529eb5"/>
      <stop offset="0.809" stop-color="#2c839f"/>
      <stop offset="1" stop-color="#147391"/>
    </linearGradient>
    <linearGradient id="linear-gradient-8" x1="61.685" y1="815.769" x2="65.993" y2="820.331" gradientTransform="translate(-18.087 -754.22) scale(0.962)" xlink:href="#linear-gradient-7"/>
  </defs>
  <g id="g921">
    <path id="rect13" d="M.458,5.042H32.542v38.5H.458Z" stroke="#464646" stroke-miterlimit="10" stroke-width="0.917" fill="url(#linear-gradient)"/>
    <path id="rect24" d="M3.208,7.792H29.792v33H3.208Z" stroke="#bebebe" stroke-miterlimit="10" stroke-width="0.917" fill="url(#linear-gradient-2)"/>
    <path id="path39" d="M22.458,4.125H20.625V3.208a2.75,2.75,0,0,0-2.75-2.75h-2.75a2.75,2.75,0,0,0-2.75,2.75v.917H10.542A1.833,1.833,0,0,0,8.708,5.958v2.75H24.292V5.958A1.833,1.833,0,0,0,22.458,4.125Z" stroke="#464646" stroke-miterlimit="10" stroke-width="0.917" fill="url(#linear-gradient-3)"/>
    <path id="circle41" d="M17.417,3.667a.917.917,0,0,1-.917.916h0a.917.917,0,0,1-.917-.916h0A.917.917,0,0,1,16.5,2.75h0a.917.917,0,0,1,.917.917Z" fill="#464646"/>
    <path id="rect43" d="M15.125,14.208h2.75v5.5h-2.75Z" fill="#3c91af" stroke="#147391" stroke-miterlimit="10" stroke-width="0.917"/>
    <path id="rect45" d="M15.125,21.542h2.75v5.5h-2.75Z" fill="#3c91af" stroke="#147391" stroke-miterlimit="10" stroke-width="0.917"/>
    <path id="rect47" d="M5.958,20.625H9.625v7.333H5.958Z" fill="#3c91af" stroke="#147391" stroke-miterlimit="10" stroke-width="0.917"/>
    <path id="rect49" d="M23.375,20.625h3.667v7.333H23.375Z" fill="#3c91af" stroke="#147391" stroke-miterlimit="10" stroke-width="0.917"/>
    <path id="rect51" d="M15.125,28.875h2.75v5.5h-2.75Z" fill="#3c91af" stroke="#147391" stroke-miterlimit="10" stroke-width="0.917"/>
    <path id="line53" d="M9.167,24.292h5.5" fill="none" stroke="#147391" stroke-miterlimit="10" stroke-width="0.917"/>
    <path id="line55" d="M17.417,24.292h5.5" fill="none" stroke="#147391" stroke-miterlimit="10" stroke-width="0.917"/>
    <path id="polyline57" d="M18.333,16.958h2.292V31.625H18.333" fill="none" stroke="#147391" stroke-miterlimit="9.167" stroke-width="0.917"/>
    <path id="polyline59" d="M14.667,16.958H12.375V31.625h2.292" fill="none" stroke="#147391" stroke-miterlimit="9.167" stroke-width="0.917"/>
    <path id="rect41" d="M47.518,24.914V47.52H31.48V24.914Z" stroke="#464646" stroke-miterlimit="10" stroke-width="0.96" fill="url(#linear-gradient-4)"/>
    <path id="rect45-6" d="M44.027,27.32V45.114H41.518V27.32Z" stroke="#6e6e6e" stroke-miterlimit="10" stroke-width="0.958" fill="url(#linear-gradient-5)"/>
    <path id="rect47-7" d="M37.5,27.32V45.114H34.994V27.32Z" stroke="#6e6e6e" stroke-miterlimit="10" stroke-width="0.958" fill="url(#linear-gradient-6)"/>
    <path id="rect49-4" d="M38.506,38.382V42.23a.49.49,0,0,1-.5.481H34.488a.491.491,0,0,1-.5-.481V38.382a.491.491,0,0,1,.5-.482h3.518a.491.491,0,0,1,.5.478v0Z" stroke="#147391" stroke-miterlimit="10" stroke-width="0.958" fill="url(#linear-gradient-7)"/>
    <path id="line51" d="M34.742,40.306h3.011" fill="none" stroke="#fff" stroke-miterlimit="10" stroke-width="0.958"/>
    <path id="rect53" d="M45.03,30.206v3.847a.49.49,0,0,1-.5.482H41.014a.49.49,0,0,1-.5-.478V30.209a.49.49,0,0,1,.5-.482h3.518A.49.49,0,0,1,45.03,30.206Z" stroke="#147391" stroke-miterlimit="10" stroke-width="0.958" fill="url(#linear-gradient-8)"/>
    <path id="line55-8" d="M41.266,32.129h3.012" fill="none" stroke="#fff" stroke-miterlimit="10" stroke-width="0.958"/>
  </g>
</svg>
