<svg id="Layer_1" data-name="Layer 1" xmlns="http://www.w3.org/2000/svg" xmlns:xlink="http://www.w3.org/1999/xlink" viewBox="0 0 48 48">
  <defs>
    <linearGradient id="linear-gradient" x1="-17.409" y1="73.045" x2="20.091" y2="35.545" gradientTransform="matrix(1.073, 0, 0, -1.073, 22.561, 83.878)" gradientUnits="userSpaceOnUse">
      <stop offset="0" stop-color="#fff"/>
      <stop offset="0.221" stop-color="#f8f8f8"/>
      <stop offset="0.541" stop-color="#e5e5e5"/>
      <stop offset="0.92" stop-color="#c6c6c6"/>
      <stop offset="1" stop-color="#bebebe"/>
    </linearGradient>
    <linearGradient id="linear-gradient-2" x1="22.399" y1="24.809" x2="45.782" y2="20.074" gradientTransform="matrix(1, 0, 0, -1, -0.368, 55.321)" gradientUnits="userSpaceOnUse">
      <stop offset="0" stop-color="#afd7e1"/>
      <stop offset="0.159" stop-color="#a4d0dc"/>
      <stop offset="0.706" stop-color="#80bcce"/>
      <stop offset="1" stop-color="#73b4c8"/>
    </linearGradient>
    <linearGradient id="linear-gradient-3" x1="22.399" y1="24.809" x2="45.782" y2="20.074" gradientTransform="matrix(1, 0, 0, -1, -0.224, 60.786)" xlink:href="#linear-gradient-2"/>
    <linearGradient id="linear-gradient-4" x1="22.399" y1="24.809" x2="45.782" y2="20.074" gradientTransform="matrix(1, 0, 0, -1, 0, 50)" xlink:href="#linear-gradient-2"/>
    <linearGradient id="linear-gradient-5" x1="-9.924" y1="75.467" x2="12.545" y2="52.998" gradientTransform="matrix(1.073, 0, 0, -1.073, 22.683, 89.032)" gradientUnits="userSpaceOnUse">
      <stop offset="0" stop-color="#73b4c8"/>
      <stop offset="0.313" stop-color="#82bcce"/>
      <stop offset="0.398" stop-color="#71b1c5"/>
      <stop offset="0.674" stop-color="#3f8fa9"/>
      <stop offset="0.883" stop-color="#207b98"/>
      <stop offset="1" stop-color="#147391"/>
    </linearGradient>
    <linearGradient id="linear-gradient-6" x1="-10.653" y1="74.63" x2="7.26" y2="59.063" gradientTransform="matrix(1.073, 0, 0, -1.073, 22.694, 78.512)" xlink:href="#linear-gradient-5"/>
    <linearGradient id="linear-gradient-7" x1="-9.924" y1="75.467" x2="12.545" y2="52.998" gradientTransform="matrix(1.073, 0, 0, -1.073, 22.561, 83.878)" xlink:href="#linear-gradient-5"/>
  </defs>
  <g id="g976">
    <path id="rect37" d="M2.537,6.829H45.463V44.39H2.537Z" fill="url(#linear-gradient)"/>
    <path id="rect43-2-4" d="M2.511,28.136H45.237v5.5H2.511Z" fill="url(#linear-gradient-2)"/>
    <path id="rect43-2-49" d="M2.655,33.6H45.381v5.5H2.655Z" fill="url(#linear-gradient-3)"/>
    <path id="rect43-2" d="M2.879,22.814H45.605v5.5H2.879Z" fill="url(#linear-gradient-4)"/>
    <path id="rect43-8" d="M2.726,17.349H45.453v5.5H2.726Z" fill="url(#linear-gradient-5)"/>
    <path id="rect43-6" d="M2.737,6.829H45.463v5.5H2.737Z" fill="url(#linear-gradient-6)"/>
    <path id="rect39" d="M2.537,3.61H45.463V6.827H2.537Z" fill="#969696"/>
    <path id="line41" d="M36.881,3.453V44.6" fill="none" stroke="#6e6e6e" stroke-width="1.064"/>
    <path id="rect43" d="M2.6,12.2H45.33v5.5H2.6Z" fill="url(#linear-gradient-7)"/>
    <path id="line45" d="M11.122,3.61V44.39" fill="none" stroke="#6e6e6e" stroke-width="1.073"/>
    <path id="line47" d="M28.293,3.31V44.5" fill="none" stroke="#6e6e6e" stroke-width="1.058"/>
    <path id="line49" d="M3.073,28.293H44.927" fill="none" stroke="#6e6e6e" stroke-width="1.073"/>
    <path id="line51" d="M3.073,33.659H44.927" fill="none" stroke="#6e6e6e" stroke-width="1.073"/>
    <path id="line53" d="M3.073,39.024H44.927" fill="none" stroke="#6e6e6e" stroke-width="1.073"/>
    <path id="line57" d="M19.707,3.61V44.39" fill="none" stroke="#6e6e6e" stroke-width="1.073"/>
    <path id="line63" d="M3.073,17.561H46" fill="none" stroke="#006487" stroke-width="1.073"/>
    <path id="line65" d="M3.073,12.2H44.927" fill="none" stroke="#006487" stroke-width="1.073"/>
    <path id="rect67" d="M2.537,3.61H45.463V44.39H2.537Z" fill="none" stroke="#464646" stroke-miterlimit="10" stroke-width="1.073"/>
    <path id="line69" d="M36.879,12.35v5.3" fill="none" stroke="#006487" stroke-width="1.073"/>
    <path id="line71" d="M11.122,12.344v5.3" fill="none" stroke="#006487" stroke-width="1.073"/>
    <path id="line73" d="M19.708,12.344v5.3" fill="none" stroke="#006487" stroke-width="1.073"/>
    <path id="line75" d="M28.288,12.344v5.3" fill="none" stroke="#006487" stroke-width="1.073"/>
    <path id="line69-08" d="M36.9,7.167v5.3" fill="none" stroke="#006487" stroke-width="1.073"/>
    <path id="line71-2" d="M11.139,7.162v5.3" fill="none" stroke="#006487" stroke-width="1.073"/>
    <path id="line73-6" d="M19.726,7.162v5.3" fill="none" stroke="#006487" stroke-width="1.073"/>
    <path id="line75-2" d="M28.306,7.162v5.3" fill="none" stroke="#006487" stroke-width="1.073"/>
    <path id="line69-8" d="M36.879,17.653v5.3" fill="none" stroke="#006487" stroke-width="1.073"/>
    <path id="line71-22" d="M11.122,17.648v5.3" fill="none" stroke="#006487" stroke-width="1.073"/>
    <path id="line73-1" d="M19.708,17.648v5.3" fill="none" stroke="#006487" stroke-width="1.073"/>
    <path id="line75-0" d="M28.288,17.648v5.3" fill="none" stroke="#006487" stroke-width="1.073"/>
    <path id="line55" d="M3.073,22.927H44.927" fill="none" stroke="#6e6e6e" stroke-width="1.073"/>
    <path id="line83" d="M3.073,6.829H44.927" fill="none" stroke="#6e6e6e" stroke-width="1.073"/>
  </g>
</svg>
