<svg id="Image" xmlns="http://www.w3.org/2000/svg" xmlns:xlink="http://www.w3.org/1999/xlink" viewBox="0 0 48 48">
  <defs>
    <linearGradient id="linear-gradient" x1="15.566" y1="17.994" x2="27.785" y2="5.418" gradientTransform="matrix(0.995, 0, 0, -0.997, -2.142, 48.991)" gradientUnits="userSpaceOnUse">
      <stop offset="0" stop-color="#7eb8cd"/>
      <stop offset="1" stop-color="#087091"/>
    </linearGradient>
    <linearGradient id="linear-gradient-2" x1="1.527" y1="27.694" x2="38.408" y2="-0.357" gradientTransform="matrix(0.995, 0, 0, -0.997, -2.142, 48.991)" gradientUnits="userSpaceOnUse">
      <stop offset="0" stop-color="#73b4c8"/>
      <stop offset="0.175" stop-color="#6aaec3"/>
      <stop offset="0.457" stop-color="#529eb5"/>
      <stop offset="0.809" stop-color="#2c839f"/>
      <stop offset="1" stop-color="#147391"/>
    </linearGradient>
    <linearGradient id="linear-gradient-3" x1="11.084" y1="41.415" x2="27.963" y2="25.537" gradientTransform="matrix(0.995, 0, 0, -0.997, -2.142, 48.991)" gradientUnits="userSpaceOnUse">
      <stop offset="0" stop-color="#afd7e1"/>
      <stop offset="0.159" stop-color="#a4d0dc"/>
      <stop offset="0.706" stop-color="#80bcce"/>
      <stop offset="1" stop-color="#73b4c8"/>
    </linearGradient>
    <linearGradient id="linear-gradient-4" x1="23.573" y1="41.52" x2="40.044" y2="29.209" gradientTransform="matrix(0.995, 0, 0, -0.997, -2.142, 48.991)" gradientUnits="userSpaceOnUse">
      <stop offset="0" stop-color="#fff"/>
      <stop offset="0.221" stop-color="#f8f8f8"/>
      <stop offset="0.541" stop-color="#e5e5e5"/>
      <stop offset="0.92" stop-color="#c6c6c6"/>
      <stop offset="1" stop-color="#bebebe"/>
    </linearGradient>
    <linearGradient id="linear-gradient-5" x1="36.608" y1="17.622" x2="47.793" y2="5.218" gradientTransform="matrix(1, 0, 0, -1, 1, 51.9)" gradientUnits="userSpaceOnUse">
      <stop offset="0" stop-color="#b1b1b1"/>
      <stop offset="1" stop-color="#7d7d7d"/>
    </linearGradient>
  </defs>
  <g id="g886">
    <path id="path848" d="M32.891,43.055A22.048,22.048,0,0,1,21.83,45.481a23.358,23.358,0,0,1-11.476-4.1l9.687-12.208a7.332,7.332,0,0,0,2.656.8,6.335,6.335,0,0,0,2.319-.3Z" stroke="#464646" stroke-miterlimit="10" stroke-width="0.996" fill="url(#linear-gradient)"/>
    <path id="path846" d="M18.482,27.894a6.491,6.491,0,0,1-1.131-2.058,6.407,6.407,0,0,1-.269-2.48L1.753,21.163s-.938,3.568.783,9.427a21.058,21.058,0,0,0,6.312,9.522Z" stroke="#464646" stroke-miterlimit="10" stroke-width="0.996" fill="url(#linear-gradient-2)"/>
    <path id="path844" d="M17.634,21.481a9.616,9.616,0,0,1,2.059-2.446,6.642,6.642,0,0,1,3-.944L22.462,2.5A19.84,19.84,0,0,0,8.681,8c-6.082,5.773-6.6,11.288-6.6,11.288Z" stroke="#464646" stroke-miterlimit="10" stroke-width="0.996" fill="url(#linear-gradient-3)"/>
    <path id="path14" d="M24.654,18.278A6.944,6.944,0,0,1,28.3,21.119a6.389,6.389,0,0,1,.666,3.81L43.849,29.37a21.641,21.641,0,0,0-1.775-15.235A21.81,21.81,0,0,0,24.4,2.594Z" stroke="#464646" stroke-miterlimit="10" stroke-width="0.996" fill="url(#linear-gradient-4)"/>
    <path id="path16" d="M45.879,33.122A32.911,32.911,0,0,1,42.631,39a21.152,21.152,0,0,1-5.543,5.026L29.3,30.627a5.463,5.463,0,0,0,.978-1,4.825,4.825,0,0,0,.585-.92Z" stroke="#464646" stroke-miterlimit="10" stroke-width="0.996" fill="url(#linear-gradient-5)"/>
  </g>
</svg>
