<svg id="Layer_1" data-name="Layer 1" xmlns="http://www.w3.org/2000/svg" xmlns:xlink="http://www.w3.org/1999/xlink" viewBox="0 0 48 48">
  <defs>
    <linearGradient id="linear-gradient" x1="-43.306" y1="685.381" x2="-4.302" y2="724.385" gradientTransform="translate(53.184 -825.884) scale(1.205)" gradientUnits="userSpaceOnUse">
      <stop offset="0" stop-color="#fff"/>
      <stop offset="0.228" stop-color="#fafafa"/>
      <stop offset="0.488" stop-color="#ededed"/>
      <stop offset="0.762" stop-color="#d7d6d6"/>
      <stop offset="1" stop-color="#bdbcbc"/>
    </linearGradient>
    <linearGradient id="linear-gradient-2" x1="50.659" y1="760.694" x2="71.919" y2="778.782" gradientTransform="translate(-24.895 -781.294) scale(0.765 1.042)" gradientUnits="userSpaceOnUse">
      <stop offset="0" stop-color="#73b4c8"/>
      <stop offset="0.175" stop-color="#6aaec3"/>
      <stop offset="0.457" stop-color="#529eb5"/>
      <stop offset="0.809" stop-color="#2c839f"/>
      <stop offset="1" stop-color="#147391"/>
    </linearGradient>
    <linearGradient id="linear-gradient-3" x1="17.416" y1="48.632" x2="35.552" y2="27.777" gradientTransform="matrix(1, 0, 0, -1, -0.144, 50.719)" xlink:href="#linear-gradient-2"/>
    <linearGradient id="linear-gradient-4" x1="30.289" y1="49.061" x2="45.302" y2="28.285" gradientTransform="matrix(1, 0, 0, -1, -0.144, 50.719)" xlink:href="#linear-gradient-2"/>
    <linearGradient id="linear-gradient-5" x1="95.738" y1="864.752" x2="115.132" y2="884.148" gradientTransform="translate(-47.421 -663.045) scale(0.801 0.803)" gradientUnits="userSpaceOnUse">
      <stop offset="0" stop-color="#fff"/>
      <stop offset="0.221" stop-color="#f8f8f8"/>
      <stop offset="0.541" stop-color="#e5e5e5"/>
      <stop offset="0.92" stop-color="#c6c6c6"/>
      <stop offset="1" stop-color="#bebebe"/>
    </linearGradient>
    <linearGradient id="linear-gradient-6" x1="97.854" y1="857.307" x2="113.015" y2="872.468" gradientTransform="translate(-47.421 -663.045) scale(0.801 0.803)" xlink:href="#linear-gradient-2"/>
    <linearGradient id="linear-gradient-7" x1="29.069" y1="759.201" x2="40.569" y2="770.701" gradientTransform="translate(1.488 -757.628) scale(1.001 1.033)" xlink:href="#linear-gradient-2"/>
  </defs>
  <g id="g891">
    <path id="rect13" d="M1,0H48V47H1Z" fill="url(#linear-gradient)"/>
    <path id="path868" d="M9.3,2.109H10v-.7H9.3Zm0,2.09H10V3.5H9.3Zm0,2.09H10V5.594H9.3Zm0,2.092H10v-.7H9.3Zm0,2.09H10v-.7H9.3Zm0,2.09H10v-.7H9.3Zm0,2.089H10v-.7H9.3Zm0,2.09H10v-.7H9.3Zm0,2.09H10v-.7H9.3Zm0,4.18H10v-.7H9.3Zm0,2.09H10v-.7H9.3Zm0,2.089H10v-.7H9.3Zm0,2.09H10v-.7H9.3Zm0,4.182H10v-.7H9.3Zm0,2.09H10v-.7H9.3Zm0,4.179H10v-.7H9.3Zm0,2.09H10v-.7H9.3Zm0,2.09H10v-.7H9.3ZM9.3,46H10v-.7H9.3Z" fill="#464646"/>
    <path id="path868-3" d="M19.8,2.109h.7v-.7h-.7Zm0,4.18h.7V5.594h-.7Zm0,2.092h.7v-.7h-.7Zm0,2.09h.7v-.7h-.7Zm0,2.09h.7v-.7h-.7Zm0,2.089h.7v-.7h-.7Zm0,2.09h.7v-.7h-.7Zm0,6.27h.7v-.7h-.7Zm0,6.269h.7v-.7h-.7Zm0,4.182h.7v-.7h-.7Zm0,2.09h.7v-.7h-.7Zm0,2.09h.7v-.7h-.7Zm0,2.089h.7v-.7h-.7Zm0,2.09h.7v-.7h-.7Zm0,2.09h.7v-.7h-.7Zm0,2.09h.7v-.7h-.7Z" fill="#464646"/>
    <path id="path868-3-6" d="M30.3,2.109H31v-.7h-.7Zm0,4.18H31V5.594h-.7Zm0,2.092H31v-.7h-.7Zm0,2.09H31v-.7h-.7Zm0,2.09H31v-.7h-.7Zm0,2.089H31v-.7h-.7Zm0,2.09H31v-.7h-.7Zm0,2.09H31v-.7h-.7Zm0,2.09H31v-.7h-.7Zm0,2.09H31v-.7h-.7Zm0,2.09H31v-.7h-.7Zm0,2.089H31v-.7h-.7Zm0,2.09H31v-.7h-.7Zm0,2.09H31v-.7h-.7Zm0,2.092H31v-.7h-.7Zm0,2.09H31v-.7h-.7Zm0,2.09H31v-.7h-.7Zm0,2.089H31v-.7h-.7Zm0,2.09H31v-.7h-.7Zm0,2.09H31v-.7h-.7Zm0,2.09H31v-.7h-.7Z" fill="#464646"/>
    <path id="path868-3-6-1" d="M40.7,2.109h.7v-.7h-.7Zm0,2.09h.7V3.5h-.7Zm0,2.09h.7V5.594h-.7Zm0,2.092h.7v-.7h-.7Zm0,2.09h.7v-.7h-.7Zm0,2.09h.7v-.7h-.7Zm0,1.5v.591h.7v-.7h-.7Zm0,8.951h.7v-.7h-.7Zm0,2.09h.7v-.7h-.7Zm0,2.089h.7v-.7h-.7Zm0,2.09h.7v-.7h-.7Zm0,2.09h.7v-.7h-.7Zm0,2.092h.7v-.7h-.7Zm0,2.09h.7v-.7h-.7Zm0,2.09h.7v-.7h-.7Zm0,2.089h.7v-.7h-.7Zm0,2.09h.7v-.7h-.7Zm0,2.09h.7v-.7h-.7Zm0,2.09h.7v-.7h-.7Z" fill="#464646"/>
    <path id="path868-2" d="M2,38.8h.7v-.7H2Zm8.359,0h.7v-.7h-.7Zm2.09,0h.7v-.7h-.7Zm2.09,0h.7v-.7h-.7Zm2.092,0h.7v-.7h-.7Zm2.09,0h.7v-.7h-.7Zm2.09,0h.7v-.7h-.7Zm2.089,0h.7v-.7h-.7Zm2.09,0h.7v-.7h-.7Zm2.09,0h.7v-.7h-.7Zm2.09,0h.7v-.7h-.7Zm2.09,0h.7v-.7h-.7Zm2.09,0h.7v-.7h-.7Zm2.089,0h.7v-.7h-.7Zm2.09,0h.7v-.7h-.7Zm2.09,0h.7v-.7h-.7Zm2.092,0h.7v-.7h-.7Zm2.09,0h.7v-.7h-.7Zm2.09,0h.7v-.7h-.7Z" fill="#464646"/>
    <path id="path868-3-0" d="M2,28.2h.7v-.7H2Zm2.09,0h.7v-.7h-.7Zm2.09,0h.7v-.7h-.7Zm2.09,0h.7v-.7h-.7Zm2.089,0h.7v-.7h-.7Zm2.09,0h.7v-.7h-.7Zm2.09,0h.7v-.7h-.7Zm2.092,0h.7v-.7h-.7Zm4.18,0h.7v-.7h-.7Z" fill="#464646"/>
    <path id="path868-3-6-7" d="M2,17.9h.7v-.7H2Zm2.09,0h.7v-.7h-.7Zm2.09,0h.7v-.7h-.7Zm2.09,0h.7v-.7h-.7Zm2.089,0h.7v-.7h-.7Zm2.09,0h.7v-.7h-.7Zm2.09,0h.7v-.7h-.7Zm2.092,0h.7v-.7h-.7Zm10.449,0h.7v-.7h-.7Zm2.09,0h.7v-.7h-.7Zm2.09,0h.7v-.7h-.7Zm2.09,0h.7v-.7h-.7Zm2.089,0h.7v-.7h-.7Zm2.09,0h.7v-.7h-.7Zm2.09,0h.7v-.7h-.7Zm2.092,0h.7v-.7h-.7Zm2.09,0h.7v-.7h-.7Zm2.09,0h.7v-.7h-.7Z" fill="#464646"/>
    <path id="path868-3-6-1-7" d="M2,7.3h.7v-.7H2Zm2.09,0h.7v-.7h-.7Zm2.09,0h.7v-.7h-.7Zm2.09,0h.7v-.7h-.7Zm2.089,0h.7v-.7h-.7Zm2.09,0h.7v-.7h-.7Zm2.09,0h.7v-.7h-.7Zm2.092,0h.7v-.7h-.7Zm6.269,0h.7v-.7h-.7Zm6.27,0h.7v-.7h-.7Zm2.09,0h.7v-.7h-.7Zm4.179,0h.7v-.7h-.7Zm2.09,0h.7v-.7h-.7Zm4.182,0h.7v-.7h-.7Zm2.09,0h.7v-.7h-.7Zm2.09,0h.7v-.7h-.7Z" fill="#464646"/>
    <path id="path909" d="M20.066,20.156H16.111l-3.737-6.819-.756,1.247v5.572H8.393V3.119h3.225V10.83l4.468-7.711h3.737L14.935,11Z" stroke="#464646" stroke-width="0.769" fill="url(#linear-gradient-2)"/>
    <path id="path911" d="M31.982,8.5a8.614,8.614,0,0,1-.294,2.242,5.482,5.482,0,0,1-.839,1.831,5.348,5.348,0,0,1-1.672,1.521,4.6,4.6,0,0,1-2.284.515H24.886v5.549H21.662V3.119h5.307a6.123,6.123,0,0,1,2.007.286,4.125,4.125,0,0,1,1.453.835,4.284,4.284,0,0,1,1.15,1.728A7.073,7.073,0,0,1,31.982,8.5Zm-3.334.1a2.515,2.515,0,0,0-.285-1.235A1.748,1.748,0,0,0,27.7,6.63a2.269,2.269,0,0,0-.982-.3Q26.239,6.3,25.441,6.3h-.555v5.1h.924a5.534,5.534,0,0,0,1.352-.137,1.75,1.75,0,0,0,.9-.549,2.191,2.191,0,0,0,.445-.87A4.7,4.7,0,0,0,28.648,8.6Z" stroke="#464646" stroke-width="0.769" fill="url(#linear-gradient-3)"/>
    <path id="path913" d="M41.018,20.156H33.7v-3.02h2.049V6.141H33.7V3.119h7.323v3.02H38.969v11h2.049Z" stroke="#464646" stroke-width="0.769" fill="url(#linear-gradient-4)"/>
    <path id="rect844" d="M.173,0H.827A.172.172,0,0,1,1,.173V47.827A.172.172,0,0,1,.827,48H.173A.172.172,0,0,1,0,47.827V.173A.172.172,0,0,1,.173,0Z" fill="#3e90aa"/>
    <path id="rect844-1" d="M48,47.173v.654a.172.172,0,0,1-.173.173H.173A.172.172,0,0,1,0,47.827v-.654A.172.172,0,0,1,.173,47H47.827A.172.172,0,0,1,48,47.173Z" fill="#3e90aa"/>
    <g id="g1070">
      <path id="path72" d="M27.4,33.147V44.629a.962.962,0,0,0,.96.964h17.29a.963.963,0,0,0,.961-.964V33.147" stroke="#464646" stroke-miterlimit="10" stroke-width="0.788" fill="url(#linear-gradient-5)"/>
      <path id="line74" d="M33.8,33.95V45.191" fill="none" stroke="#6e6e6e" stroke-width="0.788"/>
      <path id="line76" d="M40.2,33.95V45.191" fill="none" stroke="#6e6e6e" stroke-width="0.788"/>
      <path id="line78" d="M27.8,41.578H46.211" fill="none" stroke="#6e6e6e" stroke-width="0.788"/>
      <path id="line80" d="M27.8,37.563H46.211" fill="none" stroke="#6e6e6e" stroke-width="0.788"/>
      <path id="path82" d="M46.606,33.95V29.534a1.6,1.6,0,0,0-1.6-1.606H29a1.6,1.6,0,0,0-1.6,1.606h0V33.95" stroke="#464646" stroke-miterlimit="10" stroke-width="0.788" fill="url(#linear-gradient-6)"/>
      <path id="line88" d="M27.8,33.549H46.211" stroke="#464646" stroke-miterlimit="10" stroke-width="0.788" fill="url(#linear-gradient-7)"/>
    </g>
    <g id="g2594">
      <path id="polyline62-3-2-6-7-2-0" d="M3.205,44.287l7.854-13.273,5.687,2.275,8.208-9.619" fill="none" stroke="#464646" stroke-width="2.8"/>
      <path id="path911-5-9-4-2-4-9" d="M26.906,21.158l-.423,3.388-.518,3.379L23.066,26l-2.84-2,3.322-1.459Z" fill="#464646" stroke="#464646" stroke-linecap="round" stroke-width="0.019"/>
      <path id="path911-5-9-45-3-1" d="M26.3,21.973l-.318,2.518L25.589,27l-2.178-1.433-2.134-1.488L23.777,23Z" fill="#3e90aa"/>
      <path id="polyline62-3-2-7-8-8" d="M3.479,43.783l7.58-12.769,5.687,2.275,7.976-9.26" fill="none" stroke="#3e90aa" stroke-width="1.6"/>
    </g>
  </g>
</svg>
