<svg id="Layer_1" data-name="Layer 1" xmlns="http://www.w3.org/2000/svg" xmlns:xlink="http://www.w3.org/1999/xlink" viewBox="0 0 48 48">
  <defs>
    <linearGradient id="linear-gradient" x1="9.119" y1="771.838" x2="6.838" y2="770.162" gradientTransform="translate(-3.706 -746.999)" gradientUnits="userSpaceOnUse">
      <stop offset="0" stop-color="#b1b1b1"/>
      <stop offset="1" stop-color="#7d7d7d"/>
    </linearGradient>
    <linearGradient id="linear-gradient-2" x1="-1114.881" y1="771.838" x2="-1117.162" y2="770.162" gradientTransform="matrix(-1, 0, 0, 1, -1080.469, -746.999)" xlink:href="#linear-gradient"/>
    <linearGradient id="linear-gradient-3" x1="28.957" y1="760.999" x2="33.655" y2="762.624" gradientTransform="translate(-3.819 -746.374)" xlink:href="#linear-gradient"/>
    <linearGradient id="linear-gradient-4" x1="9.067" y1="757.587" x2="28.567" y2="768.141" gradientTransform="translate(-3.944 -747.07)" gradientUnits="userSpaceOnUse">
      <stop offset="0" stop-color="#afd7e1"/>
      <stop offset="1" stop-color="#73b4c8"/>
    </linearGradient>
    <linearGradient id="linear-gradient-5" x1="246.82" y1="-980.291" x2="277.42" y2="-1023.115" gradientTransform="matrix(0.533, 0, 0, -0.533, -100.09, -498.048)" gradientUnits="userSpaceOnUse">
      <stop offset="0" stop-color="#fff"/>
      <stop offset="0.232" stop-color="#fafafa"/>
      <stop offset="0.496" stop-color="#ededed"/>
      <stop offset="0.775" stop-color="#d6d6d6"/>
      <stop offset="1" stop-color="#bebebe"/>
    </linearGradient>
  </defs>
  <g id="g901">
    <g id="g1000">
      <path id="path832-9-0" d="M9.608,27.158c-.117-.025-1.615-.317-3.329-.65-2.341-.455-3.14-.649-3.21-.779A8.134,8.134,0,0,1,2.9,24.278L2.832,23l.307.049A22.905,22.905,0,0,1,8.5,24.521a3.578,3.578,0,0,1,.865.667,6.3,6.3,0,0,1,1.04,1.921C10.4,27.224,10.034,27.246,9.608,27.158Z" fill="url(#linear-gradient)"/>
      <path id="path832-9" d="M30.217,27.158c.117-.025,1.615-.317,3.329-.65,2.341-.455,3.14-.649,3.21-.779a8.043,8.043,0,0,0,.165-1.451L36.993,23l-.307.049a22.919,22.919,0,0,0-5.36,1.471,3.6,3.6,0,0,0-.865.667,6.32,6.32,0,0,0-1.041,1.921C29.42,27.224,29.793,27.246,30.217,27.158Z" fill="url(#linear-gradient-2)"/>
      <path id="rect1157" d="M12.566,26.826H28.122v2.055H12.566Z" fill="#147391"/>
      <path id="rect1157-6" d="M12.437,23.832H27.993v2.055H12.437Z" fill="#147391"/>
      <path id="path836" d="M8.267,16.2c.81-4.513,1.445-7.223,1.77-7.561a12.364,12.364,0,0,1,3.619-.861,36.086,36.086,0,0,1,5.5-.184c6.667.014,9.951.344,10.767,1.081.367.331.958,2.3,1.726,5.747a20.666,20.666,0,0,1,.407,2.078c-.024.028-1.8-.167-3.944-.432s-4.391-.539-4.993-.609a63.583,63.583,0,0,0-8.838.066,52.939,52.939,0,0,0-5.828.957c-.245.071-.249.064-.187-.282Z" fill="url(#linear-gradient-3)"/>
      <path id="path922" d="M2.221,31.616c0-.046-.056-.678-.123-1.4s-.122-1.38-.122-1.452a17.35,17.35,0,0,1,3.18.946c1.75.591,3.264,1.111,3.366,1.155.144.062.185.162.185.458V31.7H5.464Q3.841,31.74,2.221,31.616Z" fill="#464646"/>
      <path id="path922-3" d="M37.765,31.643c0-.046.056-.678.124-1.4s.122-1.38.122-1.452a17.462,17.462,0,0,0-3.181.946c-1.749.591-3.264,1.111-3.365,1.155-.144.062-.185.162-.185.458v.379h3.242q1.623.041,3.243-.082Z" fill="#464646"/>
      <path id="path838" d="M1.193,13.43c-.175-.093-.19-.867-.025-1.385l.119-.377,1.128.078c1.531.106,2,.307,2.272.978a1.157,1.157,0,0,1,.136.626A19.4,19.4,0,0,1,1.193,13.43Z" fill="#147391"/>
      <path id="path840" d="M35.383,13.331c-.309-.075-.334-.338-.087-.942.237-.583.864-.8,2.355-.811l1.178-.009.036.808c.024.545-.014.848-.118.931A15.2,15.2,0,0,1,35.383,13.331Z" fill="#147391"/>
      <path id="path842" d="M14.993,30c-1.337-.088-3.379-.093-4.537-.148l-2-.034-2.114-.564A25.866,25.866,0,0,1,1.728,27.6a.932.932,0,0,1-.09-.49l-.061-.463.479-.492a48.982,48.982,0,0,0,7.137,1.707c.976,0,1.3-.084,1.469-.827A3.751,3.751,0,0,0,9.45,24.082a5.724,5.724,0,0,0-2.988-1.61,18.429,18.429,0,0,0-4.5-.509l-.469-.381.061-1.2c.085-1.659.008-3.113.119-3.448.091-.277.1-.283.773-.336.375-.03,1.233-.095,1.418-.145a2.568,2.568,0,0,0,1.2-1,34.481,34.481,0,0,0,.929-3.417C7.03,7.736,7.44,6.768,7.922,6.327c.733-.673,5.1-1.461,9.621-1.638a70.506,70.506,0,0,1,7.922.175l1.886.224a26.674,26.674,0,0,1,4.146.895c.666.2.781.27.976.565.429.648.9,2.16,1.894,6.4.25,1.065.506,2.059.569,2.21a2.251,2.251,0,0,0,1.91,1.3,9.076,9.076,0,0,1,.947.068c.321.057.359.094.463.454.083.285.177,3.954.18,4.653,0,.033-.719.73-.582.3-.635-.222-4.112.557-5.828,1.251a3.026,3.026,0,0,0-1.879,1.856c-.754,1.484.741,2.688-.408,2.2a2.7,2.7,0,0,0,1.378.373,48.793,48.793,0,0,0,6.816-1.361l.336.5-.027.454-.026.555-3.559.863c-3.247.789-3.381,1.153-4.574,1.208-.68.031-2.91.207-4.873.325A66.522,66.522,0,0,1,15.369,30Zm12.816-2.292v-.8H12.693V28.5H27.809Zm0-3v-.8H12.693V25.5H27.809Zm5.326-8.021c.192-.184-.155-.335-.155-.639a39.355,39.355,0,0,0-2.1-7.6c-.437-.857-.879-1.13-2.341-1.422a65.952,65.952,0,0,0-15.646-.392,12.011,12.011,0,0,0-3.135.888C8.833,8,8.726,8.541,7.913,12.2c-.88,3.961-.787,4.057-.473,4.419.17.2.638.031,1.616-.151.887-.166,3.486-.4,5.142-.582a74.123,74.123,0,0,1,8.509-.226c1.093.086,8.191.833,9.1.967a1.189,1.189,0,0,0,1.083-.206Z" fill="url(#linear-gradient-4)"/>
      <g id="g846">
        <path id="path896-9" d="M19.555,3.665a41.183,41.183,0,0,0-10.021.881c-1.749.3-2.492.6-3,1.354a5.439,5.439,0,0,0-.3.577l.011,5.168c.295-1.188.606-2.473.678-2.728.425-1.5.741-2.216,1.09-2.452a18.86,18.86,0,0,1,5.508-1.154,58.118,58.118,0,0,1,13.255.067,22.93,22.93,0,0,1,4.862.94c.387.122.537.269.766.731a14.124,14.124,0,0,1,.86,2.628c.307,1.176,1.172,4.8,1.226,5.145a2.39,2.39,0,0,0,1.32,1.8,2.154,2.154,0,0,0,.972.188c.391.019.757.045.813.059.081.021.12.074.183.242a13.772,13.772,0,0,1,.342,3.135,14.96,14.96,0,0,1,.073,1.555c-.011,0-.134-.047-.277-.1a.949.949,0,0,0-.63-.053c-.512.061-1.851.281-2.422.4a14.553,14.553,0,0,0-3.659,1.19,4.4,4.4,0,0,0-1.922,2.487c-.382,1.144-.178,2.049.531,2.369.184.084.249.089.813.089a13.727,13.727,0,0,0,2.723-.348c1.338-.238,2.641-.491,3.453-.672.754-.168,1.126-.316,1.214-.489l.053-.1.006.135a5.293,5.293,0,0,1-.036.59l-.047.457-3.488.89-3.489.9h-.672c-.66,0-2.237.079-4.584.23-2.819.181-3.658.234-4.526.271a47.117,47.117,0,0,1-5.734-.2c-3.367-.213-4.472-.27-5.563-.3l-1.1-.03-2.593-.666V30.3l2.251.572.012.288.012.289-.13.03c-.05.011-1.2,0-2.145.011v1.444c1.1-.01,2.367.008,2.464-.012a1.553,1.553,0,0,0,.883-.43,1.34,1.34,0,0,0,.378-1.1v-.359h.318c.375,0,2.232.105,5.132.288,1.15.073,2.5.152,3.012.177.983.048,3.063.027,4.066-.041,2.585-.175,6.025-.384,6.812-.413h.716s-.032-.048.007.517a1.515,1.515,0,0,0,.3,1c.271.28.452.383,1.106.373s2.655,0,2.655,0a29.006,29.006,0,0,0,3.889,0,1.532,1.532,0,0,0,.808-.518c.268-.3.317-.506.43-1.821.052-.612.137-1.548.188-2.086a42.69,42.69,0,0,0,.277-5.852c-.011-.95-.042-1.96-.064-2.245a16.738,16.738,0,0,0-.388-3.612,2.01,2.01,0,0,0-.507-.949c-.355-.344-.709-.449-1.68-.5-.808-.038-1.107-.549-1.107-.76,0-.087.007-.093.141-.071a11.134,11.134,0,0,0,1.844.03c1.269-.124,1.828-.494,2.028-1.338a4.961,4.961,0,0,0-.124-1.856,1.82,1.82,0,0,0-1.6-1.031,7.611,7.611,0,0,0-2.953.442c-.134.067-.2.08-.206.047s-.135-.529-.283-1.12c-.627-2.51-1.036-3.533-1.673-4.184-.494-.5-1.358-.874-3.231-1.165a48.415,48.415,0,0,0-9.1-.681ZM37.624,11.8a1.927,1.927,0,0,1,.736.065c.1.047.105.065.13.436a5,5,0,0,1,.012.519c-.012.12-.033.14-.189.189a12.661,12.661,0,0,1-2.115.047,1.99,1.99,0,0,1-.684-.154,3.074,3.074,0,0,1,.277-.665c.1-.141.247-.2.7-.3a7.267,7.267,0,0,1,1.138-.141ZM6.244,22.323v1.544a3.964,3.964,0,0,1,2.511,1.379A4.775,4.775,0,0,1,9.4,26.672c0,.062-.032.069-.242.065a2.976,2.976,0,0,1-.335-.018l-.478-.077c-.295-.046-1.13-.213-2.1-.394v1.49c.917.165,2.323.436,2.646.466,1.029.094,1.58-.12,1.88-.731.1-.2.1-.246.1-.671a1.873,1.873,0,0,0-.124-.825,7.583,7.583,0,0,0-.777-1.568c-.7-1.038-1.626-1.566-3.654-2.074-.021-.006-.049-.007-.071-.012ZM36.97,23.2a23.824,23.824,0,0,1-.2,2.458c-.021.02-1.821.383-2.834.571-1.241.23-2.212.388-2.8.46-.643.079-.586.093-.554-.118a3.368,3.368,0,0,1,.86-1.668,1.927,1.927,0,0,1,.654-.465,14.711,14.711,0,0,1,3.035-.931C35.824,23.361,36.947,23.172,36.97,23.2Zm.872,6.058c.013.009-.179,2.183-.2,2.2a3.791,3.791,0,0,1-.412.047c-.219.02-1.584.041-3.035.041-2.469,0-2.64-.008-2.664-.07a1.66,1.66,0,0,1-.029-.33v-.265l3.164-.814c1.741-.447,3.166-.81,3.171-.807Z" fill="#464646"/>
        <path id="path896-9-9-1" d="M6.251,6.469V11.65c-.328,1.363-.72,2.961-.754,3.172a2.4,2.4,0,0,1-1.326,1.8,2.167,2.167,0,0,1-.972.188c-.391.019-.757.044-.813.058-.081.021-.12.068-.183.235a13.75,13.75,0,0,0-.342,3.126,15.128,15.128,0,0,0-.07,1.55c.011,0,.14-.046.282-.1a.923.923,0,0,1,.625-.053c.512.06,1.857.286,2.428.4.4.085.749.194,1.125.294l.177,1.592c-.453-.13-1.1-.343-1.579-.441-.687-.14-1.81-.322-1.833-.3q.039,1.226.2,2.443c.021.021,1.815.383,2.828.57.094.018.31.078.4.094l-.051,1.481c-1.178-.213-2.49-.481-3.212-.641-.754-.167-1.126-.315-1.214-.487l-.047-.1-.012.135a5.781,5.781,0,0,0,.036.588l.049.458c1.417.365,2.947.809,4.365,1.171l-.111,4.045H5.886c-3.569-.012-3.587-.015-3.889-.1a1.451,1.451,0,0,1-.8-.47c-.268-.3-.317-.5-.43-1.809-.052-.61-.137-1.549-.188-2.085A42.5,42.5,0,0,1,.3,22.641c.011-.947.042-1.954.065-2.238A16.754,16.754,0,0,1,.755,16.79a2,2,0,0,1,.507-.946c.355-.343.7-.448,1.674-.493.808-.038,1.114-.542,1.114-.752,0-.087-.014-.093-.148-.071a11.133,11.133,0,0,1-1.844.024C.79,14.429.236,14.066.037,13.224A4.961,4.961,0,0,1,.16,11.368a1.822,1.822,0,0,1,1.6-1.028,7.619,7.619,0,0,1,2.947.446c.134.067.2.081.206.047s.135-.527.283-1.116a16.321,16.321,0,0,1,1.06-3.248Zm-3.9,5.339a1.9,1.9,0,0,0-.73.065c-.1.046-.1.064-.13.435a4.566,4.566,0,0,0-.012.523c.012.119.027.133.183.182a12.663,12.663,0,0,0,2.115.047,1.989,1.989,0,0,0,.684-.153,3.04,3.04,0,0,0-.277-.658c-.1-.14-.241-.2-.689-.294a7.458,7.458,0,0,0-1.144-.146Z" fill="#464646"/>
      </g>
      <path id="path898-8" d="M31.728,16.973c-.813-.094-6.262-.739-7.075-.821a35.854,35.854,0,0,0-5.21-.263,51.921,51.921,0,0,0-8.891.68c-.981.094-2.067.36-2.373.383L7.623,17c-.239-.04-.492-.008-.65-.167a.969.969,0,0,1-.18-.727l.1-.523c.314-1.618,1.033-4.936,1.37-6.054A4.068,4.068,0,0,1,9.2,7.6a2.248,2.248,0,0,1,1.169-.55,37.227,37.227,0,0,1,10.157-.8A43.279,43.279,0,0,1,29.166,7a3.218,3.218,0,0,1,1.682.912c.482.605,1.1,2.406,1.839,5.359.612,2.445.685,2.868.559,3.2a1.042,1.042,0,0,1-.465.481,2.8,2.8,0,0,1-1.053.016Zm-.038-1.53c0-.011-.111-.481-.247-1.047a25.966,25.966,0,0,0-1.75-5.559c-.415-.446-1.9-.78-5.1-.921C21.962,7.8,18.284,7.7,16.36,7.773a39.9,39.9,0,0,0-4.789.518,8.408,8.408,0,0,0-1.287.33c-.186.094-.4.614-.719,1.714-.258.9-1.113,4.846-1.113,5.046,0,.064.022.071.163.055.09-.011,1.116-.274,1.791-.337s1.44-.275,2.189-.347a61.763,61.763,0,0,1,6.785-.345c2.435,0,3.331.076,10.339.862a10.915,10.915,0,0,0,1.976.174Z" fill="#464646"/>
      <path id="path896" d="M6.931,18.064l5.062,4.406L20.462,23l8.594-.562L32.931,18" fill="none" stroke="#147391" stroke-width="0.4"/>
      <path id="path930-2" d="M19.625,13.751l7,.438.626,1.2" fill="none" stroke="#464646" stroke-width="0.4"/>
      <path id="path930-2-5" d="M10.129,13.688l7,.438.618,1.187" fill="none" stroke="#464646" stroke-width="0.4"/>
    </g>
    <path id="polygon13-9" d="M41.62,24.049H31.5V47.5H47.48V24.049Z" stroke="#464646" stroke-miterlimit="10" fill="url(#linear-gradient-5)"/>
    <path id="rect28-0" d="M33.079,29.875H45.963v2.132H33.079Z" fill="none" stroke="#6e6e6e" stroke-width="0.63"/>
    <path id="rect30-7" d="M33.079,26.144H45.963v2.132H33.079Z" fill="none" stroke="#6e6e6e" stroke-width="0.63"/>
    <path id="rect32-6" d="M33.079,33.606H45.925v2.132H33.079Z" fill="none" stroke="#6e6e6e" stroke-width="0.63"/>
    <path id="rect32-5-0" d="M33.079,37.429H45.925v2.132H33.079Z" fill="none" stroke="#6e6e6e" stroke-width="0.63"/>
    <path id="rect1095-6-4" d="M33.715,34.3H44.362v.63H33.715Z" fill="#177491"/>
    <path id="rect1093-5" d="M33.9,26.9H44.55v.63H33.9Z" fill="#177491"/>
    <path id="rect1095-6" d="M33.9,30.628H44.544v.631H33.9Z" fill="#177491"/>
    <path id="rect1095-2-4" d="M33.9,38.09h6.924v.63H33.9Z" fill="#177491"/>
    <path id="rect32-1" d="M33.079,41.3H45.925v2.132H33.079Z" fill="none" stroke="#6e6e6e" stroke-width="0.63"/>
  </g>
</svg>
