<svg id="Image" xmlns="http://www.w3.org/2000/svg" xmlns:xlink="http://www.w3.org/1999/xlink" viewBox="0 0 48 48">
  <defs>
    <linearGradient id="linear-gradient" x1="4.437" y1="48" x2="48.437" y2="4" gradientTransform="matrix(1, 0, 0, -1, 0, 50)" gradientUnits="userSpaceOnUse">
      <stop offset="0" stop-color="#fff"/>
      <stop offset="1" stop-color="#dcdcdc"/>
    </linearGradient>
    <linearGradient id="linear-gradient-2" x1="99.336" y1="-75.204" x2="122.854" y2="-98.439" gradientTransform="matrix(0.763, 0, 0, -0.763, -56.934, -43.15)" gradientUnits="userSpaceOnUse">
      <stop offset="0" stop-color="#fff"/>
      <stop offset="1" stop-color="#bebdbd"/>
    </linearGradient>
    <linearGradient id="linear-gradient-3" x1="106.575" y1="-101.871" x2="124.751" y2="-115.447" gradientTransform="matrix(0.763, 0, 0, -0.763, -56.934, -43.15)" gradientUnits="userSpaceOnUse">
      <stop offset="0" stop-color="#73b4c8"/>
      <stop offset="1" stop-color="#177492"/>
    </linearGradient>
    <linearGradient id="linear-gradient-4" x1="95.938" y1="-74.077" x2="102.473" y2="-80.707" xlink:href="#linear-gradient-3"/>
    <linearGradient id="linear-gradient-5" x1="118.892" y1="-74.417" x2="123.483" y2="-79.196" xlink:href="#linear-gradient-3"/>
    <linearGradient id="linear-gradient-6" x1="95.908" y1="-73.434" x2="99.807" y2="-77.333" xlink:href="#linear-gradient-2"/>
    <linearGradient id="linear-gradient-7" x1="96.061" y1="-71.624" x2="129.329" y2="-104.892" xlink:href="#linear-gradient-2"/>
  </defs>
  <g id="g918">
    <g id="g890">
      <path id="rect16" d="M5.437,1h42V47h-42Z" fill="url(#linear-gradient)"/>
      <path id="path18" d="M5.438,1V11.062H1.5a.5.5,0,0,0,0,1H5.438v24H1.5a.5.5,0,0,0,0,1H5.438V47h42V1Zm41,45h-40V37.062h4.874a.5.5,0,0,0,0-1H6.438v-24h4.874a.5.5,0,0,0,0-1H6.438V2h40Z" fill="#464646"/>
      <g id="g40">
        <path id="path18-1" d="M32.781,12.335H22.029a5.212,5.212,0,0,0-.349-.522l-.017-.022a4.992,4.992,0,0,0-.879-.888c-.016-.013-.033-.025-.05-.037a4.826,4.826,0,0,0-.447-.3c-.029-.018-.058-.037-.088-.054a4.939,4.939,0,0,0-1.113-.472c-.05-.014-.1-.026-.153-.039-.148-.037-.3-.068-.451-.092-.057-.009-.113-.019-.171-.027a5.054,5.054,0,0,0-.615-.041,5,5,0,0,0-4.994,5,4.93,4.93,0,0,0,.037.582c.006.059.018.118.026.177.021.132.045.263.077.392.014.064.031.126.048.189.035.128.076.252.121.375.02.053.038.108.059.161a4.983,4.983,0,0,0,.229.5h0a4.833,4.833,0,0,0,.3.475c.029.042.061.081.092.123.08.108.163.213.252.315.039.044.078.087.119.13.091.1.187.191.286.281.039.034.076.07.114.1a5.054,5.054,0,0,0,.436.336L24.265,35.24H33.43L23.11,17.334h9.671Z" fill="url(#linear-gradient-2)"/>
        <path id="path20" d="M16.87,34.546H40.824a1.769,1.769,0,0,1,1.769,1.769v4.062H15.1v-4.06a1.769,1.769,0,0,1,1.768-1.771Z" fill="url(#linear-gradient-3)"/>
        <path id="path22" d="M22.7,14.835a5,5,0,1,1-5-5h0A5,5,0,0,1,22.7,14.835Zm-5-2.082a2.084,2.084,0,1,0,2.082,2.084h0A2.081,2.081,0,0,0,17.7,12.753Z" fill="url(#linear-gradient-4)"/>
        <path id="rect24" d="M33.6,11.431h2.641v6.806H33.6Z" fill="url(#linear-gradient-5)"/>
        <g id="g38">
          <g id="g30">
            <path id="path26" d="M20.165,14.834a2.465,2.465,0,0,0-4.929,0,2.465,2.465,0,0,1,4.929,0Z" fill="url(#linear-gradient-6)"/>
            <path id="path28" d="M17.7,11.99a2.846,2.846,0,1,0,2.845,2.847h0A2.848,2.848,0,0,0,17.7,11.99Zm0,4.929a2.084,2.084,0,1,1,2.082-2.084h0A2.082,2.082,0,0,1,17.7,16.919Z" fill="#464646"/>
          </g>
          <g id="g36">
            <path id="path32" d="M15.482,36.317a1.389,1.389,0,0,1,1.388-1.388h7.655l-5.753-9.99,5.713,9.92H32.77L22.45,16.952,32.812,34.927h8.012a1.389,1.389,0,0,1,1.388,1.388,1.389,1.389,0,0,0-1.388-1.388H16.874a1.39,1.39,0,0,0-1.388,1.388h0Zm2.9-16.914a4.625,4.625,0,0,0,3-1.782A4.606,4.606,0,0,1,18.381,19.4ZM15.292,18.9l-.109-.191-.077-.049a4.664,4.664,0,0,1-.843-.744l-.011-.012c.032.036.065.072.1.106a3.14,3.14,0,0,0,.225.222c.058.054.1.094.146.131.093.081.182.146.27.211a4.73,4.73,0,0,0,1.177.619Zm17.921-1.944H33.16V12.716H21.835l.132.353c-.06-.142-.125-.279-.2-.414l-.054-.092a5.226,5.226,0,0,0-.331-.5,5.168,5.168,0,0,0-.458-.522,4.491,4.491,0,0,1,.768.984l.111.191H33.215V11.05h0v5.9Zm3.4-.47V15.007l.2.165,3.621,1.975,1.884-1.032,1.558-.024-.9,1.079-2.545,1.395ZM14.129,17.753a4.458,4.458,0,0,1-.494-.725,4.245,4.245,0,0,1-.215-.458s-.062-.17-.077-.2l.077.214c.054.131.106.24.161.347s.1.182.152.27c.063.105.106.176.16.256C13.9,17.45,14.088,17.7,14.129,17.753Zm7.825-1.128-.04.108-.072.136c.042-.08.08-.162.115-.244Zm-8.76-.806a4.625,4.625,0,0,1-.111-.981h0a4.785,4.785,0,0,0,.034.534l.027.168C13.158,15.632,13.174,15.727,13.194,15.819Zm23.425-2.685,3.819-2.082,2.547,1.4.9,1.079L42.322,13.5l-1.884-1.032-3.82,2.083ZM20.476,11.152A4.516,4.516,0,0,0,20.1,10.9l-.107-.065a4.57,4.57,0,0,0-1.008-.429l-.044-.013.039.011A4.532,4.532,0,0,1,20,10.835l.082.05a4.5,4.5,0,0,1,.413.283.264.264,0,0,1,.029.021Zm-1.64-.787c-.16-.04-.283-.065-.409-.084l-.153-.025c-.081-.01-.152-.016-.217-.021-.111-.009-.221-.017-.333-.018A4.63,4.63,0,0,1,18.836,10.365Z" fill="url(#linear-gradient-7)"/>
            <path id="path34" d="M18.815,10.752h0m21.623.735,2.3,1.261.32.385-.639-.01L40.8,12.237l-.366-.2-.366.2L37,13.914v-.551l.366-.2,3.073-1.677M37,15.706l3.072,1.677.366.2.365-.2L42.42,16.5l.636-.011-.319.386-2.3,1.261-3.072-1.677-.365-.2V15.7M17.7,9.832a5,5,0,0,0-5,5v.005h0a5.014,5.014,0,0,0,.138,1.144h0c.01.041.021.081.032.122.041.152.089.3.143.457.018.05.035.1.055.148h0a5.1,5.1,0,0,0,.228.5h0a5.053,5.053,0,0,0,.639.915h0l.042.046a5.04,5.04,0,0,0,.915.8l8.971,15.576H16.874a1.769,1.769,0,0,0-1.769,1.769v4.062H42.593v-4.06a1.769,1.769,0,0,0-1.769-1.77H33.029L23.11,17.334h9.725V19H37V17.125L40.438,19l2.795-1.531L44.7,15.7l-2.481.039-1.783.977L37,14.837v-.056l3.438-1.876,1.783.977,2.481.04-1.469-1.773-2.795-1.531L37,12.493V10.669H32.835v1.666H22.025a5.02,5.02,0,0,0-1.262-1.445l-.033-.024h0a4.964,4.964,0,0,0-.447-.3h0c-.029-.018-.058-.037-.088-.054h0a4.933,4.933,0,0,0-1.106-.472h0c-.049-.014-.1-.026-.152-.039h0a5.039,5.039,0,0,0-1.234-.16Zm0,9.235a4.2,4.2,0,0,1-2.468-.8c-.085-.061-.169-.123-.263-.2-.045-.039-.088-.077-.131-.12-.072-.066-.142-.134-.208-.2-.044-.046-.087-.093-.129-.14-.063-.076-.123-.153-.181-.229-.036-.047-.076-.094-.107-.142-.058-.084-.1-.159-.148-.236s-.094-.163-.137-.247c-.05-.1-.1-.2-.148-.319-.021-.049-.037-.1-.056-.152-.037-.1-.071-.206-.1-.312-.016-.053-.029-.106-.041-.16-.026-.11-.047-.22-.064-.332l-.01-.068c0-.028-.01-.054-.013-.082a4.48,4.48,0,0,1-.032-.491h0A4.242,4.242,0,0,1,17.7,10.594c.109,0,.216.009.322.016.064.005.128.011.2.02a.71.71,0,0,1,.1.015l.044.007c.129.02.256.046.381.076l.026.007c.035.009.07.017.1.027a4.176,4.176,0,0,1,.923.393c.034.019.067.04.1.061a4.046,4.046,0,0,1,.346.235l.077.054a4.317,4.317,0,0,1,.739.753l.021.027a4.026,4.026,0,0,1,.273.408c.01.019.023.036.033.055l.047.08a4.234,4.234,0,0,1-3.733,6.236Zm15.9-.83V11.431h2.64v6.806ZM22.383,16.571a4.922,4.922,0,0,0,0-3.473h10.4v3.473ZM17.7,19.833a5,5,0,0,0,4.423-2.679l.323.56L32.11,34.477h-7.4l-8.583-14.9A4.946,4.946,0,0,0,17.7,19.833ZM15.864,39.615v-3.3A1.007,1.007,0,0,1,16.87,35.31H40.824a1.007,1.007,0,0,1,1.007,1.007v3.3Z" fill="#464646"/>
          </g>
        </g>
      </g>
    </g>
  </g>
</svg>
