<svg id="Layer_1" data-name="Layer 1" xmlns="http://www.w3.org/2000/svg" xmlns:xlink="http://www.w3.org/1999/xlink" viewBox="0 0 48 48">
  <defs>
    <linearGradient id="linear-gradient" x1="-43.306" y1="685.381" x2="-4.302" y2="724.385" gradientTransform="translate(53.184 -825.884) scale(1.205)" gradientUnits="userSpaceOnUse">
      <stop offset="0" stop-color="#fff"/>
      <stop offset="0.228" stop-color="#fafafa"/>
      <stop offset="0.488" stop-color="#ededed"/>
      <stop offset="0.762" stop-color="#d7d6d6"/>
      <stop offset="1" stop-color="#bdbcbc"/>
    </linearGradient>
    <linearGradient id="linear-gradient-2" x1="50.659" y1="760.694" x2="71.919" y2="778.782" gradientTransform="translate(-24.895 -781.294) scale(0.765 1.042)" gradientUnits="userSpaceOnUse">
      <stop offset="0" stop-color="#73b4c8"/>
      <stop offset="0.175" stop-color="#6aaec3"/>
      <stop offset="0.457" stop-color="#529eb5"/>
      <stop offset="0.809" stop-color="#2c839f"/>
      <stop offset="1" stop-color="#147391"/>
    </linearGradient>
    <linearGradient id="linear-gradient-3" x1="17.416" y1="48.632" x2="35.552" y2="27.777" gradientTransform="matrix(1, 0, 0, -1, -0.144, 50.719)" xlink:href="#linear-gradient-2"/>
    <linearGradient id="linear-gradient-4" x1="30.289" y1="49.061" x2="45.302" y2="28.285" gradientTransform="matrix(1, 0, 0, -1, -0.144, 50.719)" xlink:href="#linear-gradient-2"/>
    <linearGradient id="linear-gradient-5" x1="119.224" y1="747.455" x2="130.894" y2="737.388" gradientTransform="translate(-24.751 -782.013) scale(0.765 1.042)" xlink:href="#linear-gradient-2"/>
    <linearGradient id="linear-gradient-6" x1="117.205" y1="755.036" x2="133.243" y2="745.975" gradientTransform="translate(-24.751 -782.013) scale(0.765 1.042)" xlink:href="#linear-gradient-2"/>
  </defs>
  <g id="g873">
    <path id="rect13" d="M1,0H48V47H1Z" fill="url(#linear-gradient)"/>
    <path id="path868" d="M9.3,2.109H10v-.7H9.3Zm0,2.09H10V3.5H9.3Zm0,2.09H10V5.594H9.3Zm0,2.092H10v-.7H9.3Zm0,2.09H10v-.7H9.3Zm0,2.09H10v-.7H9.3Zm0,2.089H10v-.7H9.3Zm0,2.09H10v-.7H9.3Zm0,2.09H10v-.7H9.3Zm0,4.18H10v-.7H9.3Zm0,2.09H10v-.7H9.3Zm0,2.089H10v-.7H9.3Zm0,6.272H10v-.7H9.3Zm0,2.09H10v-.7H9.3Zm0,4.179H10v-.7H9.3Zm0,2.09H10v-.7H9.3Zm0,2.09H10v-.7H9.3ZM9.3,46H10v-.7H9.3Z" fill="#464646"/>
    <path id="path868-3" d="M19.8,2.109h.7v-.7h-.7Zm0,4.18h.7V5.594h-.7Zm0,2.092h.7v-.7h-.7Zm0,2.09h.7v-.7h-.7Zm0,2.09h.7v-.7h-.7Zm0,2.089h.7v-.7h-.7Zm0,2.09h.7v-.7h-.7Zm0,6.27h.7v-.7h-.7Zm0,10.451h.7v-.7h-.7Zm0,2.09h.7v-.7h-.7Zm0,2.09h.7v-.7h-.7Zm0,2.089h.7v-.7h-.7Zm0,2.09h.7v-.7h-.7Zm0,2.09h.7v-.7h-.7Zm0,2.09h.7v-.7h-.7Z" fill="#464646"/>
    <path id="path868-3-6" d="M30.3,2.109H31v-.7h-.7Zm0,4.18H31V5.594h-.7Zm0,2.092H31v-.7h-.7Zm0,2.09H31v-.7h-.7Zm0,2.09H31v-.7h-.7Zm0,2.089H31v-.7h-.7Zm0,2.09H31v-.7h-.7Zm0,2.09H31v-.7h-.7Zm0,2.09H31v-.7h-.7Zm0,2.09H31v-.7h-.7Zm0,2.09H31v-.7h-.7Zm0,2.089H31v-.7h-.7Zm0,2.09H31v-.7h-.7Zm0,4.182H31v-.7h-.7Zm0,2.09H31v-.7h-.7Zm0,2.09H31v-.7h-.7Zm0,2.089H31v-.7h-.7Zm0,2.09H31v-.7h-.7Zm0,2.09H31v-.7h-.7Zm0,2.09H31v-.7h-.7Z" fill="#464646"/>
    <path id="path868-3-6-1" d="M40.7,2.109h.7v-.7h-.7Zm0,2.09h.7V3.5h-.7Zm0,2.09h.7V5.594h-.7Zm0,2.092h.7v-.7h-.7Zm0,2.09h.7v-.7h-.7Zm0,2.09h.7v-.7h-.7Zm0,1.5v.591h.7v-.7h-.7Zm0,8.951h.7v-.7h-.7Zm0,2.09h.7v-.7h-.7Zm0,2.089h.7v-.7h-.7Zm0,2.09h.7v-.7h-.7Zm0,2.09h.7v-.7h-.7Zm0,2.092h.7v-.7h-.7Zm0,4.18h.7v-.7h-.7Zm0,2.089h.7v-.7h-.7Zm0,2.09h.7v-.7h-.7Zm0,2.09h.7v-.7h-.7Zm0,2.09h.7v-.7h-.7Z" fill="#464646"/>
    <path id="path868-2" d="M2,38.8h.7v-.7H2Zm4.18,0h.7v-.7h-.7Zm6.269,0h.7v-.7h-.7Zm2.09,0h.7v-.7h-.7Zm2.092,0h.7v-.7h-.7Zm2.09,0h.7v-.7h-.7Zm2.09,0h.7v-.7h-.7Zm2.089,0h.7v-.7h-.7Zm2.09,0h.7v-.7h-.7Zm2.09,0h.7v-.7h-.7Zm2.09,0h.7v-.7h-.7Zm2.09,0h.7v-.7h-.7Zm2.09,0h.7v-.7h-.7Zm2.089,0h.7v-.7h-.7Zm2.09,0h.7v-.7h-.7Zm2.09,0h.7v-.7h-.7Zm2.092,0h.7v-.7h-.7Zm2.09,0h.7v-.7h-.7Zm2.09,0h.7v-.7h-.7Z" fill="#464646"/>
    <path id="path868-3-0" d="M2,28.2h.7v-.7H2Zm2.09,0h.7v-.7h-.7Zm2.09,0h.7v-.7h-.7Zm2.09,0h.7v-.7h-.7Zm2.089,0h.7v-.7h-.7Zm2.09,0h.7v-.7h-.7Zm2.09,0h.7v-.7h-.7Zm2.092,0h.7v-.7h-.7Zm10.449,0h.7v-.7h-.7Zm2.09,0h.7v-.7h-.7Zm2.09,0h.7v-.7h-.7Zm2.09,0h.7v-.7h-.7Zm2.089,0h.7v-.7h-.7Zm2.09,0h.7v-.7h-.7Zm2.09,0h.7v-.7h-.7Zm2.092,0h.7v-.7h-.7Zm2.09,0h.7v-.7h-.7Zm2.09,0h.7v-.7h-.7Z" fill="#464646"/>
    <path id="path868-3-6-7" d="M2,17.9h.7v-.7H2Zm2.09,0h.7v-.7h-.7Zm2.09,0h.7v-.7h-.7Zm2.09,0h.7v-.7h-.7Zm2.089,0h.7v-.7h-.7Zm2.09,0h.7v-.7h-.7Zm2.09,0h.7v-.7h-.7Zm2.092,0h.7v-.7h-.7Zm10.449,0h.7v-.7h-.7Zm2.09,0h.7v-.7h-.7Zm2.09,0h.7v-.7h-.7Zm2.09,0h.7v-.7h-.7Zm2.089,0h.7v-.7h-.7Zm2.09,0h.7v-.7h-.7Zm2.09,0h.7v-.7h-.7Zm2.092,0h.7v-.7h-.7Zm2.09,0h.7v-.7h-.7Zm2.09,0h.7v-.7h-.7Z" fill="#464646"/>
    <path id="path868-3-6-1-7" d="M2,7.3h.7v-.7H2Zm2.09,0h.7v-.7h-.7Zm2.09,0h.7v-.7h-.7Zm2.09,0h.7v-.7h-.7Zm2.089,0h.7v-.7h-.7Zm2.09,0h.7v-.7h-.7Zm2.09,0h.7v-.7h-.7Zm2.092,0h.7v-.7h-.7Zm6.269,0h.7v-.7h-.7Zm6.27,0h.7v-.7h-.7Zm2.09,0h.7v-.7h-.7Zm4.179,0h.7v-.7h-.7Zm2.09,0h.7v-.7h-.7Zm4.182,0h.7v-.7h-.7Zm2.09,0h.7v-.7h-.7Zm2.09,0h.7v-.7h-.7Z" fill="#464646"/>
    <path id="path909" d="M20.066,20.156H16.111l-3.737-6.819-.756,1.247v5.572H8.393V3.119h3.225V10.83l4.468-7.711h3.737L14.935,11Z" stroke="#464646" stroke-width="0.769" fill="url(#linear-gradient-2)"/>
    <path id="path911" d="M31.982,8.5a8.614,8.614,0,0,1-.294,2.242,5.482,5.482,0,0,1-.839,1.831,5.348,5.348,0,0,1-1.672,1.521,4.6,4.6,0,0,1-2.284.515H24.886v5.549H21.662V3.119h5.307a6.123,6.123,0,0,1,2.007.286,4.125,4.125,0,0,1,1.453.835,4.284,4.284,0,0,1,1.15,1.728A7.073,7.073,0,0,1,31.982,8.5Zm-3.334.1a2.515,2.515,0,0,0-.285-1.235A1.748,1.748,0,0,0,27.7,6.63a2.269,2.269,0,0,0-.982-.3Q26.239,6.3,25.441,6.3h-.555v5.1h.924a5.534,5.534,0,0,0,1.352-.137,1.75,1.75,0,0,0,.9-.549,2.191,2.191,0,0,0,.445-.87A4.7,4.7,0,0,0,28.648,8.6Z" stroke="#464646" stroke-width="0.769" fill="url(#linear-gradient-3)"/>
    <path id="path913" d="M41.018,20.156H33.7v-3.02h2.049V6.141H33.7V3.119h7.323v3.02H38.969v11h2.049Z" stroke="#464646" stroke-width="0.769" fill="url(#linear-gradient-4)"/>
    <path id="rect844" d="M.173,0H.827A.172.172,0,0,1,1,.173V47.827A.172.172,0,0,1,.827,48H.173A.172.172,0,0,1,0,47.827V.173A.172.172,0,0,1,.173,0Z" fill="#3e90aa"/>
    <path id="rect844-1" d="M48,47.173v.654a.172.172,0,0,1-.173.173H.173A.172.172,0,0,1,0,47.827v-.654A.172.172,0,0,1,.173,47H47.827A.172.172,0,0,1,48,47.173Z" fill="#3e90aa"/>
    <path id="path846" d="M3.206,44.32l7.84-13.28,5.679,2.32,8.24-9.6" fill="none" stroke="#464646" stroke-width="2.8"/>
    <path id="path848" d="M26.885,21.2l-.4,3.44L26.005,28l-2.96-1.92-2.8-2,3.28-1.52Z" fill="#464646" stroke="#464646" stroke-linecap="round" stroke-width="0.08"/>
    <path id="path850" d="M26.325,22l-.32,2.56-.4,2.48-2.16-1.44-2.16-1.44,2.48-1.12Z" fill="#3e90aa"/>
    <path id="path852" d="M3.446,43.84l7.6-12.8,5.679,2.32,8-9.28" fill="none" stroke="#3e90aa" stroke-width="1.6"/>
    <path id="path854" d="M34.885,41.36l.08-3.04-2.96-5.2a36.753,36.753,0,0,0-3.36-5.28h.56a24.271,24.271,0,0,0,4.72.8c1.28.08,5.04.08,6.32,0a35.838,35.838,0,0,0,4.96-.88v0c-.08.08-1.6,2.56-3.36,5.36a38.348,38.348,0,0,0-2.72,5.44l.08.4v1.92l-.24,1.68-2.08,1.36a8.061,8.061,0,0,1-1.84.96s-.08-1.36-.08-3.2Z" fill-rule="evenodd" fill="url(#linear-gradient-5)"/>
    <path id="path856" d="M34.805,28.48c-2.88-.24-5.28-1.04-6.32-2-.08-.08-.16-.08-.16-.16a3.974,3.974,0,0,1,1.52-1.04,17.651,17.651,0,0,1,7.04-1.2,18.83,18.83,0,0,1,6.64.96c1.04.4,1.92,1.12,1.84,1.28a2.6,2.6,0,0,1-1.04.8,15.056,15.056,0,0,1-4.48,1.28C38.165,28.48,36.485,28.56,34.805,28.48Z" fill-rule="evenodd" fill="url(#linear-gradient-6)"/>
    <path id="path858" d="M46.005,26.32c0-2-4.72-2.88-9.2-2.88-4.4,0-9.12.88-9.12,2.88a.762.762,0,0,0,.16.56L34.325,38v7.52a.44.44,0,0,0,.24.4c0,.08.08.08.16.08a.806.806,0,0,0,.24-.08l4.16-2.88c.16-.08.24-.16.24-.32V38l6.48-11.12A1.483,1.483,0,0,0,46.005,26.32Zm-9.2-1.92c5.44,0,8.4,1.2,8.4,1.92,0,.64-2.96,1.84-8.4,1.84s-8.32-1.2-8.32-1.84C28.485,25.6,31.365,24.4,36.805,24.4Zm1.76,13.2a.481.481,0,0,0-.08.32V42.4l-3.36,2.24V37.92c.08-.08,0-.24-.08-.32l-5.6-9.52a26.563,26.563,0,0,0,14.72,0Z" fill="#464646"/>
  </g>
</svg>
