<svg id="Livello_3" data-name="Livello 3" xmlns="http://www.w3.org/2000/svg" xmlns:xlink="http://www.w3.org/1999/xlink" viewBox="0 0 48 48">
  <defs>
    <linearGradient id="linear-gradient" x1="13.827" y1="36.126" x2="43.319" y2="7.753" gradientTransform="matrix(1, 0, 0, -1, 0, 50)" gradientUnits="userSpaceOnUse">
      <stop offset="0" stop-color="#fff"/>
      <stop offset="1" stop-color="#dcdcdc"/>
    </linearGradient>
    <linearGradient id="linear-gradient-2" x1="-14.839" y1="73.822" x2="-0.033" y2="60.548" gradientTransform="matrix(1.123, 0, 0, -1.123, 31.271, 98.662)" gradientUnits="userSpaceOnUse">
      <stop offset="0" stop-color="#bfdee8"/>
      <stop offset="0.159" stop-color="#b3d6e2"/>
      <stop offset="0.706" stop-color="#8ec1d3"/>
      <stop offset="1" stop-color="#7fb8cd"/>
    </linearGradient>
    <linearGradient id="linear-gradient-3" x1="24.782" y1="25.45" x2="28.192" y2="21.95" xlink:href="#linear-gradient"/>
    <linearGradient id="linear-gradient-4" x1="-10.795" y1="777.073" x2="6.62" y2="760.7" gradientTransform="translate(0 -742)" xlink:href="#linear-gradient-2"/>
  </defs>
  <g id="g936">
    <path id="path1357" d="M45.6,26.052A19.2,19.2,0,0,1,26.485,45.331h0A19.2,19.2,0,0,1,7.366,26.052h0A19.2,19.2,0,0,1,26.485,6.772h0A19.2,19.2,0,0,1,45.6,26.052Z" fill="url(#linear-gradient)"/>
    <path id="path1059" d="M25.188,37.282a11.2,11.2,0,0,1-10.12-10.153,14.951,14.951,0,0,1,.065-2.564,11.231,11.231,0,0,1,2.334-5.385,14.159,14.159,0,0,1,1.725-1.737,11.346,11.346,0,0,1,5.39-2.356,16.95,16.95,0,0,1,3.225,0,11.531,11.531,0,0,1,4.1,1.464,11.167,11.167,0,0,1,5.418,8.593,14.714,14.714,0,0,1-.06,2.563,11.2,11.2,0,0,1-9.492,9.5A14.765,14.765,0,0,1,25.188,37.282Z" fill="url(#linear-gradient-2)"/>
    <path id="path828-1-1-9-9" d="M26.27,14.119a11.96,11.96,0,1,0,11.96,11.96A11.96,11.96,0,0,0,26.27,14.119Zm0,1.993a9.967,9.967,0,0,1,9.967,9.967h0a9.967,9.967,0,1,1-9.967-9.967Z" fill="#464646"/>
    <path id="path905-8" d="M20.138,26.113a1,1,0,1,1-1-1h0A1,1,0,0,1,20.138,26.113Z" fill="#464646"/>
    <path id="path905-7" d="M27.183,33.208a1,1,0,1,1-1-1A1,1,0,0,1,27.183,33.208Z" fill="#464646"/>
    <path id="path905-9" d="M34.43,26.012a1,1,0,1,1-1-1h0A1,1,0,0,1,34.43,26.012Z" fill="#464646"/>
    <path id="path905-3" d="M27.233,19.12a1,1,0,1,1-1-1h0A1,1,0,0,1,27.233,19.12Z" fill="#464646"/>
    <path id="path828-1-1-9-3" d="M26.271,22.093a3.987,3.987,0,0,0-3.987,3.986h0a3.987,3.987,0,1,0,7.973,0h0a3.987,3.987,0,0,0-3.986-3.986Zm0,1.993a1.994,1.994,0,1,1-1.994,1.993,1.994,1.994,0,0,1,1.994-1.993Z" fill="#464646"/>
    <path id="path1069" d="M25.842,28.006a2.027,2.027,0,0,1-1.506-1.518,1.973,1.973,0,1,1,3.849.059,1.844,1.844,0,0,1-.543.94A1.928,1.928,0,0,1,25.842,28.006Z" fill="url(#linear-gradient-3)"/>
    <path id="path1079" d="M4.771,21.8c-.847-.086-1.123-.209-1.187-.529a14.511,14.511,0,0,1,1.035-4.56,23.755,23.755,0,0,1,1.557-3.208,20.607,20.607,0,0,1,8.5-7.752,24.814,24.814,0,0,1,6.138-2.011,10.374,10.374,0,0,1,2.08-.149c.2.042.214.059.255.281a30.356,30.356,0,0,1-.088,3.905c-.094.541-.415,1.965-.539,2.393l-.08.277-.383.11a15.45,15.45,0,0,0-5.839,2.822A23.482,23.482,0,0,0,13.4,16.236a12.873,12.873,0,0,0-2.445,4.793c-.078.283-.1.317-.308.407a6.7,6.7,0,0,1-1.443.319c-.559.078-3.787.112-4.431.047Z" fill="url(#linear-gradient-4)"/>
    <path id="path824" d="M25.434,45.962a19.954,19.954,0,0,1-9.425-2.84,18.76,18.76,0,0,1-4.066-3.267,19.77,19.77,0,0,1-5.369-10.91,15.239,15.239,0,0,1-.158-2.823c0-.986.035-2,.077-2.258a2.08,2.08,0,0,0,.046-.5,9.273,9.273,0,0,0-1.013-.092c-2-.125-2.757-.483-3.317-1.561a4.351,4.351,0,0,1-.042-2.591,21.209,21.209,0,0,1,2.728-7,21.977,21.977,0,0,1,9.538-8.311c2.875-1.294,6.984-2.2,8.515-1.884a2.319,2.319,0,0,1,1.514,1.1c.207.4.211.432.242,1.812l.032,1.4.869-.049a17.456,17.456,0,0,1,1.979.033,19.7,19.7,0,0,1,11.733,4.834,20.108,20.108,0,0,1,6,9.258,19.5,19.5,0,0,1,.827,5.764,19.029,19.029,0,0,1-2.074,8.851A19.889,19.889,0,0,1,29.439,45.722a30,30,0,0,1-3.4.274c-.079-.007-.353-.023-.609-.034ZM27.513,44a17.461,17.461,0,0,0,6.7-1.82,17.993,17.993,0,0,0,9.793-13.193,22.83,22.83,0,0,0,.1-5.052,17.558,17.558,0,0,0-1.836-6.021A18.08,18.08,0,0,0,31.987,9.042a18.327,18.327,0,0,0-6.572-.912l-.833.052-.044.226c-.024.124-.176.768-.338,1.431-.444,1.818-.77,2.25-1.93,2.549A13.725,13.725,0,0,0,17.8,14.342a20.631,20.631,0,0,0-3.211,3.193,9.853,9.853,0,0,0-1.629,3.355c-.368,1.4-.747,1.75-2.255,2.1a12.708,12.708,0,0,1-1.387.219,6.759,6.759,0,0,0-.769.1,11.559,11.559,0,0,0-.205,2.814,14.765,14.765,0,0,0,.395,3.906A17.962,17.962,0,0,0,27.513,44ZM9.2,21.285a4.261,4.261,0,0,0,1.757-.428,6.1,6.1,0,0,0,.208-.69,14.854,14.854,0,0,1,5.911-7.648,15.04,15.04,0,0,1,4.134-1.84c.443-.116.818-.223.833-.239a22.133,22.133,0,0,0,.632-2.711,15.445,15.445,0,0,0,0-3.863,7.771,7.771,0,0,0-2.68.186A20.62,20.62,0,0,0,9.237,9.739a18.907,18.907,0,0,0-4.269,6.578c-.739,1.947-1.213,4.213-.975,4.658a.707.707,0,0,0,.385.23,19.655,19.655,0,0,0,4.818.08Z" fill="#464646"/>
    <path id="path1251-2" d="M12.892,37.509a.352.352,0,0,1-.2-.167c-.075-.131-.061-.214.118-.743.168-.495.226-.608.344-.665a.267.267,0,0,1,.395.152c.053.11.025.252-.148.747C13.185,37.45,13.11,37.549,12.892,37.509Z" fill="#464646"/>
    <path id="path1285-8" d="M33.858,14.755a.382.382,0,0,1-.281-.367c.008-.035,0-.354-.01-.708-.03-.759.039-.9.4-.826.177.036.207.144.239.848C34.247,14.617,34.19,14.789,33.858,14.755Z" fill="#464646"/>
    <path id="path905-7-3" d="M8.206,18.554a1,1,0,0,1-1,1h0a1,1,0,0,1-1-1h0a1,1,0,0,1,1.993,0Z" fill="#464646"/>
    <path id="path905-3-1" d="M21.623,6.653a1,1,0,0,1-1,1h0a1,1,0,1,1,1-1Z" fill="#464646"/>
    <path id="path905-3-8" d="M12.584,10.086a1,1,0,1,1-1.993,0h0a1,1,0,0,1,1-1h0A1,1,0,0,1,12.584,10.086Z" fill="#464646"/>
    <path id="path1247" d="M10.877,29.137a.433.433,0,0,1-.084-.251c0-.14.066-.21.614-.644a3.9,3.9,0,0,1,.7-.487.325.325,0,0,1,.313.328c0,.156-.049.208-.619.658a3.235,3.235,0,0,1-.729.489A.308.308,0,0,1,10.877,29.137Z" fill="#464646"/>
    <path id="path1249" d="M10.92,29.191a.4.4,0,0,1-.144-.346c.048-.126.219-.3.581-.58.179-.14.354-.278.387-.306a.222.222,0,0,1,.108-.051.209.209,0,0,0,.111-.076c.087-.106.235-.1.355.025.212.211.1.433-.432.833-.168.127-.339.262-.381.3a1.349,1.349,0,0,1-.478.238.22.22,0,0,1-.107-.038Z" fill="#464646"/>
    <path id="path1251" d="M9.192,30.787a.35.35,0,0,1-.107-.238c-.011-.15.037-.219.43-.617.367-.372.468-.448.6-.448.19,0,.289.106.289.309,0,.122-.087.237-.459.607C9.481,30.862,9.371,30.918,9.192,30.787Z" fill="#464646"/>
    <path id="path1255" d="M13.54,35.194c-.137-.173-.124-.222.243-.969.343-.7.472-.816.707-.642a.422.422,0,0,1,.157.208,5.859,5.859,0,0,1-.708,1.452A.242.242,0,0,1,13.54,35.194Z" fill="#464646"/>
    <path id="path1257" d="M18.624,39.6c-.093-.093-.1-.17-.1-.865s.009-.771.1-.864a.331.331,0,0,1,.386-.063c.129.086.161.278.159.95s-.007.715-.118.826A.271.271,0,0,1,18.624,39.6Z" fill="#464646"/>
    <path id="path1259" d="M18.85,41.919a.444.444,0,0,1-.127-.191c0-.036-.033-.3-.071-.574-.085-.636-.03-.786.288-.788.2,0,.272.151.341.686.032.252.071.519.087.594a.258.258,0,0,1-.1.267c-.163.163-.258.164-.417.006Z" fill="#464646"/>
    <path id="path1261" d="M25.121,41.4a6.048,6.048,0,0,1-.64-1.425.337.337,0,0,1,.152-.206c.249-.15.355-.045.736.73.326.661.338.7.267.828A.349.349,0,0,1,25.121,41.4Z" fill="#464646"/>
    <path id="path1263" d="M26.332,43.4a3.106,3.106,0,0,1-.661-1.128.308.308,0,0,1,.438-.225,4.349,4.349,0,0,1,.752,1.176.312.312,0,0,1-.294.291A.443.443,0,0,1,26.332,43.4Z" fill="#464646"/>
    <path id="path1265" d="M31.869,40.355a10.394,10.394,0,0,1-1-.8c-.214-.2-.249-.4-.1-.533.174-.157.328-.1.809.289.253.205.518.419.59.475.177.139.217.325.1.46A.312.312,0,0,1,31.869,40.355Z" fill="#464646"/>
    <path id="path1267" d="M33.4,41.416a2.847,2.847,0,0,1-.558-.409c-.094-.127-.1-.149-.025-.275.152-.271.274-.257.861.1a5.4,5.4,0,0,1,.572.374.367.367,0,0,1-.054.4C34.04,41.741,33.876,41.7,33.4,41.416Z" fill="#464646"/>
    <path id="path1269" d="M36.673,36.377c-.532-.131-.641-.175-.692-.276a.331.331,0,0,1,.154-.442,1.149,1.149,0,0,1,.59.083,1.526,1.526,0,0,0,.259.059,2.84,2.84,0,0,1,.816.252.381.381,0,0,1-.057.448C37.6,36.578,37.392,36.554,36.673,36.377Z" fill="#464646"/>
    <path id="path1273" d="M39.336,30.949a.347.347,0,0,1-.011-.425,4.14,4.14,0,0,1,.827-.229c.829-.175.957-.163,1.021.091a.36.36,0,0,1-.213.388,13.631,13.631,0,0,1-1.43.273A.338.338,0,0,1,39.336,30.949Z" fill="#464646"/>
    <path id="path1275" d="M41.915,30.315a.282.282,0,0,1,.015-.4,6.87,6.87,0,0,1,1.244-.427c.2,0,.337.314.223.493a3.715,3.715,0,0,1-1.265.473A.346.346,0,0,1,41.915,30.315Z" fill="#464646"/>
    <path id="path1277" d="M40.033,24.8c-.082-.133-.088-.18-.038-.275a5.623,5.623,0,0,1,1.341-.987.362.362,0,0,1,.321.312c0,.154-.33.451-.5.451s-.261.082-.261.207c0,.107-.5.454-.65.454C40.171,24.959,40.1,24.9,40.033,24.8Z" fill="#464646"/>
    <path id="path1279" d="M42.115,23.23c-.183-.183-.129-.3.372-.8s.645-.568.815-.38.114.358-.371.833S42.307,23.422,42.115,23.23Z" fill="#464646"/>
    <path id="path1283" d="M39.166,16.7c-.134-.143-.144-.089.165-.933a2.03,2.03,0,0,1,.246-.52.324.324,0,0,1,.481.334,4.845,4.845,0,0,1-.476,1.178A.291.291,0,0,1,39.166,16.7Z" fill="#464646"/>
    <path id="path1285" d="M38.059,19.083a.38.38,0,0,1-.068-.457c.024-.027.176-.308.336-.624.342-.678.47-.768.75-.528.137.118.111.227-.2.858C38.465,19.151,38.332,19.274,38.059,19.083Z" fill="#464646"/>
    <path id="path1289" d="M33.8,12.145c-.18-.068-.212-.162-.275-.812l-.062-.635.127-.109a.318.318,0,0,1,.436,0,3.23,3.23,0,0,1,.157,1.084c0,.35-.007.371-.14.439A.326.326,0,0,1,33.8,12.145Z" fill="#464646"/>
    <path id="path1291" d="M27.808,12.548c-.073-.058-.134-.127-.134-.153a6.285,6.285,0,0,0-.254-.611c-.277-.614-.3-.749-.161-.877a.293.293,0,0,1,.408.005,7.2,7.2,0,0,1,.668,1.422.551.551,0,0,1-.321.32.493.493,0,0,1-.206-.106Z" fill="#464646"/>
    <path id="path1293" d="M26.77,10.258a.493.493,0,0,1-.2-.2c-.048-.087-.2-.322-.328-.522-.264-.4-.281-.463-.161-.634.063-.09.12-.112.265-.1s.211.054.389.309c.113.161.273.419.357.574.141.261.147.289.076.413A.31.31,0,0,1,26.77,10.258Z" fill="#464646"/>
    <path id="path1295" d="M39.071,36.853c-.367-.048-.515-.15-.515-.356a.283.283,0,0,1,.287-.3,8.408,8.408,0,0,1,1.219.151c.181.074.18.4,0,.522a3.162,3.162,0,0,1-.989-.016Z" fill="#464646"/>
    <path id="path1291-7" d="M18.383,15.356c-.082-.046-.153-.1-.157-.13a6.044,6.044,0,0,0-.346-.564c-.369-.564-.415-.694-.3-.842a.293.293,0,0,1,.4-.058,7.257,7.257,0,0,1,.882,1.3.551.551,0,0,1-.268.366.479.479,0,0,1-.219-.072Z" fill="#464646"/>
    <path id="path1291-7-5" d="M13.881,20.347a.392.392,0,0,1-.2-.023,6.157,6.157,0,0,0-.6-.282c-.618-.268-.727-.351-.709-.54a.292.292,0,0,1,.3-.271,7.178,7.178,0,0,1,1.451.6.545.545,0,0,1-.023.452A.479.479,0,0,1,13.881,20.347Z" fill="#464646"/>
  </g>
</svg>
