<svg id="Livello_3" data-name="Livello 3" xmlns="http://www.w3.org/2000/svg" xmlns:xlink="http://www.w3.org/1999/xlink" width="48" height="48" viewBox="0 0 48 48">
  <defs>
    <linearGradient id="linear-gradient" x1="-11.097" y1="69.06" x2="5.248" y2="47.874" gradientTransform="matrix(1.121, 0, 0, -1.116, 26.432, 85.463)" gradientUnits="userSpaceOnUse">
      <stop offset="0" stop-color="#fff"/>
      <stop offset="0.232" stop-color="#fafafa"/>
      <stop offset="0.496" stop-color="#ededed"/>
      <stop offset="0.775" stop-color="#d6d6d6"/>
      <stop offset="1" stop-color="#bebebe"/>
    </linearGradient>
  </defs>
  <path id="path818-7" d="M8.46,39.146l-4.7-7.205c.5-1.455,1.89-2.123,3.093-2.956l6.99-.8,9.218.431,6.5.37,5.877-18.721,2.846-2.587L41,7l1.98.862L34.2,38.222l-1.732,1.355Z" fill="url(#linear-gradient)"/>
  <path id="path1032" d="M9.809,40.045H8.514c-.32-.086-.411-.185-1.22-1.328a41.528,41.528,0,0,1-3.671-5.953,2.715,2.715,0,0,1,1.358-3.2,20.3,20.3,0,0,1,4.776-1.538,27.539,27.539,0,0,1,5.579-.347c1.864-.025,3.664.038,5.08.094.871.055,2.284.182,3.915.35,3.416.46.669.05,4.049.562.448.085.706-.006.856-.3.063-.126.374-1.214.69-2.417,2.341-8.92,4.234-14.291,5.958-16.908A5.813,5.813,0,0,1,39.4,6.59a4.276,4.276,0,0,1,1.312-.071c.721.034,2.967.266,3.012.311.03.03-1.933,7.133-4.581,16.575-2.857,10.186-4.045,14.067-4.25,14.492a4.227,4.227,0,0,1-2.6,2.1C21.272,40.052,20.847,40,9.809,40.045ZM9.2,38.732a10.633,10.633,0,0,1,.95-1.39A7.088,7.088,0,0,0,11.869,34a5.763,5.763,0,0,0,.105-1.687,14.619,14.619,0,0,0-.136-1.625,5.259,5.259,0,0,0-.654-1.937c-.227,0-1.9.313-2.5.467a25.918,25.918,0,0,0-3.073,1.023,2.175,2.175,0,0,0-1,.91,2.084,2.084,0,0,0-.113,1.262A32.5,32.5,0,0,0,7.01,36.717,21.762,21.762,0,0,0,8.716,39,.472.472,0,0,0,9.2,38.732Zm7.821-.146a8.454,8.454,0,0,1,.671-1.015,8.783,8.783,0,0,0,1.895-3.416c.316-1.249.985-5.5-.175-5.524l-.3-.008H15.738c-1.854,0-3.37.021-3.369.047s.085.455.187.953.245,1.385.319,1.969a4.763,4.763,0,0,1,.034,1.781,7.377,7.377,0,0,1-.922,2.938,8.626,8.626,0,0,1-1.5,1.948c-.377.4-.685.746-.685.766s1.568.036,3.484.035h3.485Zm7.67.143a5.45,5.45,0,0,1,.47-.734l.851-1.115a6.558,6.558,0,0,0,1.4-3.288,16.227,16.227,0,0,0-.06-3.987c.01.047-.148-.01-.712-.13a57.426,57.426,0,0,0-6.5-.694c-.158.168.133.457.339,1.594a8.3,8.3,0,0,1-.021,4.033,8.7,8.7,0,0,1-1.933,3.558c-.416.516-.779.974-.8,1.017a18.955,18.955,0,0,0,3.38.078h3.428Zm7.363.2a2.1,2.1,0,0,0,1.292-.585A3.546,3.546,0,0,0,34.371,36.7c.57-1.779,5.255-18.45,7.08-25.2.924-3.414.937-3.478.76-3.731s-.485-.3-1.656-.3a3.749,3.749,0,0,0-1.5.143,5.668,5.668,0,0,0-2.977,2.866c-1.529,2.8-3.877,10.024-5.84,17.97L29.9,29.808l-.63-.039c-.728-.044-.846-.053-1.316-.108-.074.177.229.75.28,1.109a12.639,12.639,0,0,1-.115,3.994,9.909,9.909,0,0,1-1.906,3.391c-.315.412-.6.789-.626.837-.046.076.382.082,2.972.044C30.225,39.011,31.8,38.963,32.055,38.928Z" fill="#464646"/>
  <g id="g872-2-2-6">
    <path id="path866-7-5-3" d="M10.454,21.75a2.861,2.861,0,0,0-.615,1.91,4.077,4.077,0,0,0,.572,1.655c2.362,4.913,3.216,9.067-.129,12.5-1.262,1.369-.866,3.015-.086,4.724h0" fill="none" stroke="#0e7191" stroke-miterlimit="9.556" stroke-width="1.911"/>
    <path id="path868-4-1-0" d="M10.063,19l.679,1.176.678,1.176H8.705l.679-1.176Z" fill="none" stroke="#0e7191" stroke-linecap="square" stroke-miterlimit="9.556" stroke-width="1.911"/>
  </g>
  <g id="g872-2-2-6-1">
    <path id="path866-7-5-3-8" d="M18.258,21.708a2.861,2.861,0,0,0-.615,1.91,4.077,4.077,0,0,0,.572,1.655c2.362,4.913,3.216,9.067-.129,12.5-1.262,1.369-.866,3.015-.086,4.724h0" fill="none" stroke="#0e7191" stroke-miterlimit="9.556" stroke-width="1.911"/>
    <path id="path868-4-1-0-7" d="M17.867,18.958l.679,1.176.678,1.176H16.509l.679-1.176Z" fill="none" stroke="#0e7191" stroke-linecap="square" stroke-miterlimit="9.556" stroke-width="1.911"/>
  </g>
  <g id="g872-2-2-6-2">
    <path id="path866-7-5-3-5" d="M25.925,21.841a2.861,2.861,0,0,0-.615,1.909,4.087,4.087,0,0,0,.572,1.655c2.362,4.914,3.216,9.068-.129,12.5-1.262,1.369-.865,3.014-.086,4.724h0" fill="none" stroke="#0e7191" stroke-miterlimit="9.556" stroke-width="1.911"/>
    <path id="path868-4-1-0-8" d="M25.534,19.091l.679,1.175.679,1.176H24.176l.679-1.176Z" fill="none" stroke="#0e7191" stroke-linecap="square" stroke-miterlimit="9.556" stroke-width="1.911"/>
  </g>
</svg>
