<svg id="svg68" xmlns="http://www.w3.org/2000/svg" xmlns:xlink="http://www.w3.org/1999/xlink" viewBox="0 0 48 48">
  <defs>
    <linearGradient id="linear-gradient" x1="186.613" y1="977.869" x2="210.131" y2="1001.104" gradientTransform="translate(-136.231 -744.599) scale(0.763 0.77)" gradientUnits="userSpaceOnUse">
      <stop offset="0" stop-color="#fff"/>
      <stop offset="1" stop-color="#bebdbd"/>
    </linearGradient>
    <linearGradient id="linear-gradient-2" x1="193.864" y1="1004.522" x2="212.04" y2="1018.098" gradientTransform="translate(-136.231 -744.599) scale(0.763 0.77)" gradientUnits="userSpaceOnUse">
      <stop offset="0" stop-color="#73b4c8"/>
      <stop offset="1" stop-color="#177492"/>
    </linearGradient>
    <linearGradient id="linear-gradient-3" x1="100.706" y1="122.872" x2="107.241" y2="129.502" gradientTransform="matrix(1, 0, 0, -1.01, -12.7, 48.242)" xlink:href="#linear-gradient-2"/>
    <linearGradient id="linear-gradient-4" x1="119.812" y1="127.028" x2="124.403" y2="131.807" gradientTransform="matrix(1, 0, 0, -1.01, -12.7, 48.242)" xlink:href="#linear-gradient-2"/>
    <linearGradient id="linear-gradient-5" x1="183.184" y1="976.1" x2="187.083" y2="979.999" xlink:href="#linear-gradient"/>
    <linearGradient id="linear-gradient-6" x1="183.336" y1="974.291" x2="216.604" y2="1007.559" xlink:href="#linear-gradient"/>
    <radialGradient id="radial-gradient" cx="8.411" cy="-930.131" r="17.546" gradientTransform="matrix(0.984, -0.01, -0.008, -0.767, 20.272, -678.006)" gradientUnits="userSpaceOnUse">
      <stop offset="0" stop-color="#7ebacc"/>
      <stop offset="0.195" stop-color="#64a8bd"/>
      <stop offset="0.554" stop-color="#398ba5"/>
      <stop offset="0.835" stop-color="#1e7a97"/>
      <stop offset="1" stop-color="#147391"/>
    </radialGradient>
    <linearGradient id="linear-gradient-7" x1="444.867" y1="56.621" x2="469.96" y2="66.588" gradientTransform="matrix(0.533, 0.743, 0.743, -0.533, -262.412, -286.996)" gradientUnits="userSpaceOnUse">
      <stop offset="0" stop-color="#fff"/>
      <stop offset="0.221" stop-color="#f8f8f8"/>
      <stop offset="0.541" stop-color="#e5e5e5"/>
      <stop offset="0.92" stop-color="#c6c6c6"/>
      <stop offset="1" stop-color="#bebebe"/>
    </linearGradient>
  </defs>
  <g id="g941">
    <path id="path18-1" d="M20.081,6.691H9.329a5.4,5.4,0,0,0-.349-.527l-.017-.022a5,5,0,0,0-.879-.9l-.05-.038a4.8,4.8,0,0,0-.447-.3c-.029-.019-.058-.038-.088-.055a4.907,4.907,0,0,0-1.113-.476c-.05-.015-.1-.027-.153-.04-.148-.037-.3-.068-.451-.093-.057-.009-.113-.019-.171-.027A5.054,5.054,0,0,0,5,4.174,5.026,5.026,0,0,0,.039,9.809c.006.059.018.119.026.178.021.134.045.266.077.4.014.065.031.127.048.191.035.129.076.254.121.378.02.054.038.11.059.163a5.207,5.207,0,0,0,.229.5h0a5.052,5.052,0,0,0,.3.479c.029.043.061.082.092.124.08.109.163.215.252.318.039.045.078.088.119.132a4.016,4.016,0,0,0,.286.283c.039.035.076.071.114.1a5.1,5.1,0,0,0,.436.34l9.367,16.417H20.73L10.41,11.738h9.671Z" fill="url(#linear-gradient)"/>
    <path id="path20" d="M4.17,29.114H28.124A1.777,1.777,0,0,1,29.893,30.9h0V35H2.4V30.9a1.777,1.777,0,0,1,1.767-1.787h0Z" fill="url(#linear-gradient-2)"/>
    <path id="path22" d="M10,9.215A5,5,0,1,1,5,4.168H5A5.024,5.024,0,0,1,10,9.215Zm-5-2.1A2.1,2.1,0,1,0,7.082,9.219v0h0A2.092,2.092,0,0,0,5,7.113Z" fill="url(#linear-gradient-3)"/>
    <path id="rect24" d="M20.9,5.779h2.641v6.87H20.9Z" fill="url(#linear-gradient-4)"/>
    <g id="g38">
      <g id="g30">
        <path id="path26" d="M7.465,9.214a2.465,2.465,0,0,0-4.929,0,2.465,2.465,0,0,1,4.929,0Z" fill="url(#linear-gradient-5)"/>
        <path id="path28" d="M5,6.343A2.873,2.873,0,1,0,7.845,9.217h0A2.863,2.863,0,0,0,5,6.343Zm0,4.976A2.1,2.1,0,1,1,7.082,9.213v0h0A2.092,2.092,0,0,1,5,11.319Z" fill="#464646"/>
      </g>
      <g id="g36">
        <path id="path32" d="M2.782,30.9A1.4,1.4,0,0,1,4.17,29.5h7.655L6.072,19.415,11.785,29.43H20.07L9.75,11.352,20.112,29.5h8.012a1.4,1.4,0,0,1,1.388,1.4,1.4,1.4,0,0,0-1.388-1.4H4.174a1.4,1.4,0,0,0-1.388,1.4h0Zm2.9-17.074a4.621,4.621,0,0,0,3-1.8,4.6,4.6,0,0,1-3,1.8Zm-3.09-.508-.109-.193-.077-.05a4.664,4.664,0,0,1-.843-.751l-.011-.012c.032.037.065.073.1.107a2.8,2.8,0,0,0,.225.224c.058.055.1.1.146.133.093.081.182.147.27.213a4.733,4.733,0,0,0,1.177.625Zm17.921-1.963H20.46V7.076H9.135l.132.356a4.443,4.443,0,0,0-.2-.418l-.054-.092a5.161,5.161,0,0,0-.331-.5,5.225,5.225,0,0,0-.458-.527,4.518,4.518,0,0,1,.768.993l.111.193H20.515V5.394h0V11.35Zm3.4-.474V9.389l.2.166,3.621,1.994,1.884-1.042,1.558-.024-.9,1.089-2.545,1.409ZM1.429,12.161a4.474,4.474,0,0,1-.494-.732,4.205,4.205,0,0,1-.215-.462s-.062-.172-.077-.2l.077.216c.054.132.106.242.161.35s.1.184.152.273c.063.106.106.177.16.258C1.2,11.855,1.388,12.107,1.429,12.161Zm7.825-1.139-.04.109-.072.137c.042-.08.08-.163.115-.246Zm-8.76-.814a4.708,4.708,0,0,1-.111-.99h0a4.859,4.859,0,0,0,.034.539l.027.17C.458,10.02.474,10.116.494,10.208ZM23.919,7.5l3.819-2.1,2.547,1.413.9,1.09-1.563-.032L27.738,6.826l-3.82,2.1ZM7.776,5.5A4.5,4.5,0,0,0,7.4,5.243l-.107-.066a4.536,4.536,0,0,0-1.008-.433l-.044-.013.039.011a4.521,4.521,0,0,1,1.02.435l.082.051a4.326,4.326,0,0,1,.413.285l.029.021ZM6.136,4.7a3.963,3.963,0,0,0-.409-.085l-.153-.025c-.081-.011-.152-.017-.217-.022-.111-.009-.221-.017-.333-.018A4.59,4.59,0,0,1,6.136,4.7Z" fill="url(#linear-gradient-6)"/>
        <path id="path34" d="M6.115,5.093h0m21.623.742,2.3,1.273.32.389-.639-.01-1.619-.9-.366-.2-.366.2L24.3,8.285V7.729l.366-.2,3.073-1.693M24.3,10.094l3.072,1.693.366.2.365-.2L29.72,10.9l.636-.011-.319.39-2.3,1.273-3.072-1.693-.365-.2v-.565M5,4.165A5.024,5.024,0,0,0,0,9.212v.005H0a5.1,5.1,0,0,0,.138,1.155h0c.01.041.021.082.032.123.041.154.089.3.143.462.018.05.035.1.055.149h0a5.2,5.2,0,0,0,.228.505h0a5.148,5.148,0,0,0,.639.923h0l.042.047a5.09,5.09,0,0,0,.915.807l8.971,15.725H4.174A1.777,1.777,0,0,0,2.4,30.9h0V35H29.893V30.9a1.776,1.776,0,0,0-1.768-1.786h-7.8L10.41,11.738h9.725V13.42H24.3V11.527l3.438,1.893,2.8-1.546L32,10.088l-2.481.04-1.783.986L24.3,9.217V9.161l3.438-1.894,1.783.986L32,8.293,30.533,6.5l-2.8-1.546L24.3,6.851V5.01H20.135V6.691H9.325A5.045,5.045,0,0,0,8.063,5.233L8.03,5.208h0a4.8,4.8,0,0,0-.447-.3h0c-.029-.019-.058-.038-.088-.055h0a4.855,4.855,0,0,0-1.106-.476h0c-.049-.015-.1-.027-.152-.04h0A4.992,4.992,0,0,0,5,4.174Zm0,9.322a4.174,4.174,0,0,1-2.468-.807c-.085-.062-.169-.124-.263-.2-.045-.04-.088-.078-.131-.121-.072-.067-.142-.136-.208-.2-.044-.047-.087-.094-.129-.142-.063-.076-.123-.154-.181-.231-.036-.047-.076-.1-.107-.143-.058-.085-.1-.161-.148-.238s-.094-.165-.137-.25c-.05-.1-.1-.2-.148-.322-.021-.049-.037-.1-.056-.153-.037-.1-.071-.208-.1-.315C.908,10.307.9,10.254.883,10.2c-.026-.111-.047-.222-.064-.335L.809,9.8A.755.755,0,0,0,.8,9.713a4.571,4.571,0,0,1-.032-.5h0A4.262,4.262,0,0,1,5,4.934c.109,0,.216.009.322.016.064,0,.128.011.2.02a.831.831,0,0,1,.1.015l.044.007c.129.021.256.047.381.077l.026.007c.035.009.07.017.1.027a4.21,4.21,0,0,1,.923.4c.034.019.067.041.1.062a4.068,4.068,0,0,1,.346.237l.077.054a4.365,4.365,0,0,1,.739.761l.021.027a4.082,4.082,0,0,1,.273.412c.01.019.023.036.033.055l.047.081A4.294,4.294,0,0,1,7,12.976a4.193,4.193,0,0,1-2,.508Zm15.9-.838V5.779h2.64v6.87ZM9.683,10.968a5.013,5.013,0,0,0,0-3.506h10.4v3.506ZM5,14.261a4.993,4.993,0,0,0,4.423-2.7l.323.566L19.41,29.044h-7.4L3.427,14A4.894,4.894,0,0,0,5,14.261ZM3.164,34.231V30.9A1.011,1.011,0,0,1,4.17,29.885H28.124A1.012,1.012,0,0,1,29.131,30.9h0v3.332Z" fill="#464646"/>
      </g>
    </g>
    <path id="circle46" d="M47.565,39.752a7.843,7.843,0,1,1-7.843-7.843h0a7.843,7.843,0,0,1,7.843,7.841Z" stroke="#464646" stroke-linecap="round" stroke-linejoin="round" stroke-width="0.784" fill="url(#radial-gradient)"/>
    <path id="path60" d="M33.566,28.381l.445-2.707,2.476.406-.2-.281a6.867,6.867,0,0,0-9.572-1.574l-1.857,1.333-1.6-2.23L25.116,22a9.617,9.617,0,0,1,13.4,2.2l.2.276.4-2.466,2.709.442-1.159,7.1Z" stroke="#464646" stroke-miterlimit="10" stroke-width="0.915" fill="url(#linear-gradient-7)"/>
  </g>
</svg>
