<svg id="svg2" xmlns="http://www.w3.org/2000/svg" xmlns:xlink="http://www.w3.org/1999/xlink" viewBox="0 0 48 48">
  <defs>
    <linearGradient id="linear-gradient" x1="0.493" y1="47.334" x2="11.493" y2="36.147" gradientTransform="matrix(0.996, 0, 0, -1, -0.969, 50.004)" gradientUnits="userSpaceOnUse">
      <stop offset="0" stop-color="#afd7e1"/>
      <stop offset="1" stop-color="#73b4c8"/>
    </linearGradient>
    <linearGradient id="linear-gradient-2" x1="-1.363" y1="25.321" x2="17.951" y2="9.399" gradientTransform="matrix(0.996, 0, 0, -1, -0.969, 50.004)" gradientUnits="userSpaceOnUse">
      <stop offset="0" stop-color="#fff"/>
      <stop offset="0.221" stop-color="#f8f8f8"/>
      <stop offset="0.541" stop-color="#e5e5e5"/>
      <stop offset="0.92" stop-color="#c6c6c6"/>
      <stop offset="1" stop-color="#bebebe"/>
    </linearGradient>
    <linearGradient id="linear-gradient-3" x1="13.387" y1="50.305" x2="37.402" y2="32.154" xlink:href="#linear-gradient-2"/>
    <linearGradient id="linear-gradient-4" x1="21.273" y1="26.702" x2="33.974" y2="12.631" xlink:href="#linear-gradient"/>
  </defs>
  <g id="g1079">
    <path id="path850" d="M4.511,3.064c2.372,0,4.387.083,4.387-.006,3.169.063-.4-.039,2.748.006h8.9V24.433H.2v-4.37l.675.244a8.287,8.287,0,0,0,2.315.169,4.025,4.025,0,0,0,3.841-3.382,4.251,4.251,0,0,0-3.476-5.059,4.715,4.715,0,0,0-2.135.018c-.536.14-1.029.254-1.1.254S.2,7.872.2,6.166v-3.1Z" stroke="#464646" stroke-miterlimit="10" stroke-width="0.2" fill="url(#linear-gradient)"/>
    <path id="path848-5-5-2-5" d="M.2,24.461V45.842H6.176l-.184-.756a5,5,0,0,1,3.733-6.342A4.88,4.88,0,0,1,14.719,42a6.814,6.814,0,0,1-.106,3.438c-.148.375.069.406,2.834.406h2.994V24.461H.2Zm10.262,1.658a3.895,3.895,0,1,1-3.943,3.895A3.919,3.919,0,0,1,10.461,26.119Z" stroke="#464646" stroke-miterlimit="10" stroke-width="0.2" fill="url(#linear-gradient-2)"/>
    <path id="path997" d="M20.45,18.653c0-5.9-.023-6.8-.17-6.8a4.373,4.373,0,0,0-.718.6,4.006,4.006,0,0,1-1.88,1.146,3.309,3.309,0,0,1-4-2.4,4.081,4.081,0,0,1,.286-2.669,3.9,3.9,0,0,1,1.363-1.364,3.412,3.412,0,0,1,4.108.745c.278.266.6.554.708.64a.788.788,0,0,1,.246.305c.024.082.046-1.187.05-2.819l.007-2.969H26.5l-.018.189a4.953,4.953,0,0,1-.13.6A7.125,7.125,0,0,0,26.2,4.986a4.762,4.762,0,0,0,2.768,4.732,3.829,3.829,0,0,0,2.816.35A5.032,5.032,0,0,0,35.37,6.532a7.825,7.825,0,0,0,0-2.473c-.055-.265-.118-.6-.141-.738l-.042-.258h6.08V5.809a25.372,25.372,0,0,0,.064,2.745A5.048,5.048,0,0,0,42,7.973a3.872,3.872,0,0,1,1.591-1.068,3.321,3.321,0,0,1,3.459.816A3.271,3.271,0,0,1,48,10.167a3.26,3.26,0,0,1-.968,2.469,3.147,3.147,0,0,1-2.332,1,3.59,3.59,0,0,1-2.591-1.163,7.819,7.819,0,0,0-.715-.624c-.128-.069-.13.027-.13,6.246v6.316H20.45Z" stroke="#464646" stroke-width="0.2" fill="url(#linear-gradient-3)"/>
    <path id="path852" d="M30.845,45.847H41.264V42.676c0-2.925.039-3.39-.322-3.245a5.132,5.132,0,0,1-4.226,1.448c-3.894-1-5.118-4.23-4.364-6.9.9-3.187,3.926-5.062,8.53-2.945.349.139.382-.566.382-3.458V24.406h-9l.91-1.075a5.239,5.239,0,0,0,1.052-1.864,3.4,3.4,0,0,0-3.314-4.284c-3.142,0-4.473,3.972-2.105,6.274a2.193,2.193,0,0,1,.582.757,26.422,26.422,0,0,1-4.481.192H20.426V45.847Z" stroke="#464646" stroke-miterlimit="10" stroke-width="0.2" fill="url(#linear-gradient-4)"/>
  </g>
</svg>
