<svg id="Image" xmlns="http://www.w3.org/2000/svg" xmlns:xlink="http://www.w3.org/1999/xlink" viewBox="0 0 48 48">
  <defs>
    <linearGradient id="linear-gradient" x1="4" y1="746" x2="48" y2="790" gradientTransform="translate(0 -744)" gradientUnits="userSpaceOnUse">
      <stop offset="0" stop-color="#fff"/>
      <stop offset="1" stop-color="#dcdcdc"/>
    </linearGradient>
    <linearGradient id="linear-gradient-2" x1="60.574" y1="-22.911" x2="82.937" y2="-45.274" gradientTransform="matrix(0.858, 0, 0, -0.868, -36.431, -0.223)" gradientUnits="userSpaceOnUse">
      <stop offset="0" stop-color="#f8f8f9"/>
      <stop offset="0.5" stop-color="#d5d4d4"/>
      <stop offset="0.63" stop-color="#d1cfce"/>
      <stop offset="0.779" stop-color="#c4c1c1"/>
      <stop offset="0.938" stop-color="#aba8a7"/>
      <stop offset="0.99" stop-color="#a29f9d"/>
    </linearGradient>
    <linearGradient id="linear-gradient-3" x1="61.735" y1="-21.751" x2="84.097" y2="-44.114" xlink:href="#linear-gradient-2"/>
    <linearGradient id="linear-gradient-4" x1="69.807" y1="-29.823" x2="76.077" y2="-36.094" gradientTransform="matrix(0.858, 0, 0, -0.868, -36.431, -0.223)" gradientUnits="userSpaceOnUse">
      <stop offset="0" stop-color="#fff"/>
      <stop offset="0.221" stop-color="#fbfbfc"/>
      <stop offset="0.541" stop-color="#ececec"/>
      <stop offset="0.92" stop-color="#d0cecd"/>
      <stop offset="1" stop-color="#c9c6c5"/>
    </linearGradient>
    <linearGradient id="linear-gradient-5" x1="61.366" y1="810.546" x2="86.869" y2="832.75" gradientTransform="translate(-36.431 -691.248) scale(0.858 0.868)" gradientUnits="userSpaceOnUse">
      <stop offset="0" stop-color="#bedde8"/>
      <stop offset="1" stop-color="#7eb8cd"/>
    </linearGradient>
    <linearGradient id="linear-gradient-6" x1="67.066" y1="804.701" x2="80.095" y2="821.085" xlink:href="#linear-gradient-5"/>
  </defs>
  <g id="g1512">
    <path id="rect40" d="M5,1H47V47H5Z" fill="url(#linear-gradient)"/>
    <path id="path42" d="M5,1V11.062H1.5a.5.5,0,0,0,0,1H5v24H1.5a.5.5,0,0,0,0,1H5V47H47V1ZM46,46H6V37.062h5.312a.5.5,0,0,0,0-1H6v-24h5.312a.5.5,0,0,0,0-1H6V2H46Z" fill="#464646"/>
    <g id="g74">
      <g id="g60">
        <path id="path44" d="M26.55,32.253a4.215,4.215,0,0,1-4.184-4.167H13.345v1.321l4.283,1.538a.938.938,0,0,1,.581,1.185h0a.957.957,0,0,1-.042.1l-1.948,4.146,2.015,2.038,4.1-1.965a.9.9,0,0,1,.743-.018.953.953,0,0,1,.532.576l1.521,4.357h2.847l1.52-4.355a.974.974,0,0,1,.533-.592.893.893,0,0,1,.743.023l4.1,1.97,2.015-2.038-1.946-4.143a.943.943,0,0,1,.441-1.25h0a.789.789,0,0,1,.095-.039l4.283-1.537V28.086H30.734A4.215,4.215,0,0,1,26.55,32.253Z" fill="url(#linear-gradient-2)"/>
        <path id="path46" d="M40.141,29.684,35.6,31.313h0a.551.551,0,0,0-.338.7c.007.019.014.037.022.055l2.06,4.394-2.4,2.43L30.6,36.8a.527.527,0,0,0-.709.246h0a.5.5,0,0,0-.037.1l-1.606,4.612H24.854l-1.611-4.616a.545.545,0,0,0-.685-.36h0c-.02.007-.041.015-.061.024L18.151,38.89l-2.4-2.431,2.065-4.394a.548.548,0,0,0-.251-.723.65.65,0,0,0-.066-.027l-4.54-1.63v-1.6h-.387v1.6a.391.391,0,0,0,.258.368l4.54,1.63a.171.171,0,0,1,.1.092.156.156,0,0,1,0,.127l-2.065,4.394a.4.4,0,0,0,.076.445l2.4,2.431a.386.386,0,0,0,.439.076l4.345-2.083a.136.136,0,0,1,.115,0,.175.175,0,0,1,.1.114l1.607,4.612a.386.386,0,0,0,.364.26h3.395a.387.387,0,0,0,.364-.26l1.61-4.615a.215.215,0,0,1,.1-.131.14.14,0,0,1,.115.008l4.343,2.091a.386.386,0,0,0,.44-.077l2.4-2.43a.4.4,0,0,0,.076-.445L35.641,31.9a.16.16,0,0,1,0-.125.157.157,0,0,1,.1-.087h0l4.544-1.63a.389.389,0,0,0,.258-.368v-1.6h-.386Z" fill="#464646"/>
        <path id="path48" d="M39.755,29.408l-4.283,1.537a.941.941,0,0,0-.575,1.193h0c.012.032.025.064.039.095l1.946,4.143-2.015,2.038-4.1-1.97a.893.893,0,0,0-.743-.023.974.974,0,0,0-.533.592l-1.52,4.355H25.127l-1.521-4.357a.953.953,0,0,0-.532-.576.9.9,0,0,0-.743.018l-4.1,1.965-2.015-2.038,1.948-4.146a.94.94,0,0,0-.434-1.247h0a.733.733,0,0,0-.1-.043l-4.283-1.538V28.086h-.386v1.6l4.541,1.63a.547.547,0,0,1,.343.688c-.008.022-.017.045-.027.067l-2.063,4.4,2.4,2.43L22.5,36.811a.544.544,0,0,1,.723.274.656.656,0,0,1,.023.062l1.608,4.612h3.393l1.612-4.616a.531.531,0,0,1,.647-.384.59.59,0,0,1,.1.037l4.343,2.088,2.4-2.431-2.06-4.393a.552.552,0,0,1,.258-.731h0a.376.376,0,0,1,.055-.023h0l4.54-1.629V28.086h-.387Z" fill="#464646" stroke="#464646" stroke-width="0.1"/>
        <path id="path50" d="M26.55,31.471a3.438,3.438,0,0,0,3.412-3.386H23.138A3.438,3.438,0,0,0,26.55,31.471Z" fill="url(#linear-gradient-3)"/>
        <path id="path52" d="M26.55,31.471a3.438,3.438,0,0,0,3.412-3.386H23.138A3.438,3.438,0,0,0,26.55,31.471Z" fill="url(#linear-gradient-4)"/>
        <path id="path54" d="M26.55,31.863a3.822,3.822,0,0,1-3.8-3.776h-.386a4.184,4.184,0,0,0,8.368,0h-.386A3.822,3.822,0,0,1,26.55,31.863Z" fill="#4e4a48" stroke="#464646" stroke-width="0.1"/>
        <path id="path56" d="M26.55,31.863a3.822,3.822,0,0,0,3.8-3.776h-.386a3.412,3.412,0,0,1-6.824,0h-.386A3.822,3.822,0,0,0,26.55,31.863Z" fill="#4e4a48" stroke="#464646" stroke-width="0.1"/>
        <path id="path58" d="M41.228,28.086a.71.71,0,0,0,.3-.067A.71.71,0,0,1,41.228,28.086Z" fill="#177491"/>
      </g>
      <g id="g66">
        <path id="path62" d="M38.138,20.351V16.914c0-5.7-4.15-10.314-9.27-10.314H24.232c-5.12,0-9.27,4.618-9.27,10.314v3.437a1.642,1.642,0,0,1-1.545,1.719H11.872a.82.82,0,0,0-.772.86v4.3a.818.818,0,0,0,.772.859H41.228A.818.818,0,0,0,42,27.227v-4.3a.82.82,0,0,0-.772-.86H39.683A1.642,1.642,0,0,1,38.138,20.351Z" fill="url(#linear-gradient-5)"/>
        <path id="path64" d="M28.868,7.446c4.65,0,8.434,4.247,8.434,9.468v3.437a2.481,2.481,0,0,0,2.381,2.565h1.485a.017.017,0,0,0,0,.014l-.009,4.311H11.932a.017.017,0,0,0,0-.014l.009-4.311h1.476A2.481,2.481,0,0,0,15.8,20.351V16.914c0-5.221,3.784-9.468,8.434-9.468h4.636m0-.846H24.232c-5.12,0-9.27,4.618-9.27,10.314v3.437a1.642,1.642,0,0,1-1.545,1.719H11.872a.82.82,0,0,0-.772.86v4.3a.818.818,0,0,0,.772.859H41.228A.818.818,0,0,0,42,27.227v-4.3a.82.82,0,0,0-.772-.86H39.683a1.642,1.642,0,0,1-1.545-1.719V16.914C38.138,11.218,33.988,6.6,28.868,6.6Z" fill="#177491"/>
      </g>
      <g id="g72">
        <path id="polyline68" d="M23.074,21.836V6.6h6.952V21.836" fill="url(#linear-gradient-6)"/>
        <path id="polygon70" d="M30.429,21.836h-.8V7.007H23.476V21.836h-.8V6.194h7.758Z" fill="#177491"/>
      </g>
    </g>
  </g>
</svg>
