<svg id="svg2" xmlns="http://www.w3.org/2000/svg" xmlns:xlink="http://www.w3.org/1999/xlink" viewBox="0 0 48 48">
  <defs>
    <linearGradient id="linear-gradient" x1="22.789" y1="43.098" x2="-6.965" y2="57.492" gradientTransform="matrix(1.04, -0.071, 0, -1.108, 10.159, 73.8)" gradientUnits="userSpaceOnUse">
      <stop offset="0" stop-color="#b1b1b1"/>
      <stop offset="0.26" stop-color="#acacac"/>
      <stop offset="0.567" stop-color="#9e9e9e"/>
      <stop offset="0.897" stop-color="#868686"/>
      <stop offset="1" stop-color="#7d7d7d"/>
    </linearGradient>
    <linearGradient id="linear-gradient-2" x1="-10.704" y1="55.512" x2="2.444" y2="42.309" gradientTransform="matrix(1.04, -0.071, 0, -1.108, 10.159, 73.8)" gradientUnits="userSpaceOnUse">
      <stop offset="0" stop-color="#fff"/>
      <stop offset="1" stop-color="#bebdbd"/>
    </linearGradient>
    <linearGradient id="linear-gradient-3" x1="17.793" y1="32.464" x2="19.155" y2="32.15" gradientTransform="matrix(1.04, -0.071, 0, -1.108, 10.159, 73.8)" gradientUnits="userSpaceOnUse">
      <stop offset="0" stop-color="#bebdbd"/>
      <stop offset="1" stop-color="#979797"/>
    </linearGradient>
    <linearGradient id="linear-gradient-4" x1="358.771" y1="-559.352" x2="372.771" y2="-573.352" gradientTransform="matrix(0.442, -0.034, -0.01, -0.406, -152.423, -200.981)" gradientUnits="userSpaceOnUse">
      <stop offset="0" stop-color="#afd7e1"/>
      <stop offset="0.159" stop-color="#a4d0dc"/>
      <stop offset="0.706" stop-color="#80bcce"/>
      <stop offset="1" stop-color="#73b4c8"/>
    </linearGradient>
    <linearGradient id="linear-gradient-5" x1="349.194" y1="-568.928" x2="368.299" y2="-588.033" xlink:href="#linear-gradient-4"/>
    <linearGradient id="linear-gradient-6" x1="32.038" y1="17.153" x2="40.096" y2="9.096" gradientTransform="matrix(1, 0, 0, -1, -29.671, 27.618)" xlink:href="#linear-gradient-4"/>
    <linearGradient id="linear-gradient-7" x1="358.771" y1="-559.352" x2="372.771" y2="-573.352" gradientTransform="matrix(0.442, -0.034, -0.01, -0.406, -141.703, -199.82)" xlink:href="#linear-gradient-4"/>
    <linearGradient id="linear-gradient-8" x1="349.194" y1="-568.928" x2="368.299" y2="-588.033" gradientTransform="matrix(0.442, -0.034, -0.01, -0.406, -141.703, -199.82)" xlink:href="#linear-gradient-4"/>
    <linearGradient id="linear-gradient-9" x1="32.038" y1="17.153" x2="40.096" y2="9.096" gradientTransform="matrix(1, 0, 0, -1, -18.951, 28.78)" xlink:href="#linear-gradient-4"/>
    <linearGradient id="linear-gradient-10" x1="358.771" y1="-559.352" x2="372.771" y2="-573.352" gradientTransform="matrix(0.442, -0.034, -0.01, -0.406, -137.214, -194.8)" xlink:href="#linear-gradient-4"/>
    <linearGradient id="linear-gradient-11" x1="349.194" y1="-568.928" x2="368.299" y2="-588.033" gradientTransform="matrix(0.442, -0.034, -0.01, -0.406, -137.214, -194.8)" xlink:href="#linear-gradient-4"/>
    <linearGradient id="linear-gradient-12" x1="32.038" y1="17.153" x2="40.096" y2="9.096" gradientTransform="matrix(1, 0, 0, -1, -14.462, 33.799)" xlink:href="#linear-gradient-4"/>
    <linearGradient id="linear-gradient-13" x1="5.695" y1="51.856" x2="32.381" y2="37.856" xlink:href="#linear-gradient-2"/>
    <linearGradient id="linear-gradient-14" x1="-48.364" y1="-4.491" x2="-45.434" y2="-9.983" gradientTransform="matrix(0.987, 0.467, -0.155, -0.681, 59.531, 46.085)" gradientUnits="userSpaceOnUse">
      <stop offset="0" stop-color="#cde6eb"/>
      <stop offset="0.221" stop-color="#c6e2e8"/>
      <stop offset="0.542" stop-color="#b3d8e1"/>
      <stop offset="0.921" stop-color="#93c7d5"/>
      <stop offset="1" stop-color="#8cc3d2"/>
    </linearGradient>
  </defs>
  <g id="g1001">
    <path id="path1405" d="M28.467,31.89c-.379-.158-6.343-2.82-13.252-5.917-13.192-5.913-13.16-5.9-13.16-6.52a.887.887,0,0,1,.353-.745c.377-.241,15.613-6.468,16.308-6.665a5.629,5.629,0,0,1,1.5-.219c.708,0,1.372.2,12.7,3.808,6.575,2.1,12.083,3.872,12.239,3.946.953.449.811.9-.571,1.8-.339.221-3.494,2.563-7.012,5.2s-6.634,4.947-6.925,5.128A2.038,2.038,0,0,1,28.467,31.89Z" stroke="#464646" stroke-linecap="square" stroke-width="0.019" fill="url(#linear-gradient)"/>
    <path id="path1594" d="M24.093,37.254c-4.611-2.193-12.207-5.83-17.8-8.52-2.491-1.2-2.523-1.218-3-1.816l-.487-.6-.655-2.6c-.36-1.431-.679-2.683-.709-2.783C1.4,20.8,2.565,21.3,5.655,22.758c2.346,1.106,8.69,4.088,14.1,6.626L29.58,34l-.061,2.651c-.053,2.247-.084,2.671-.208,2.783a.535.535,0,0,1-.243.137C29.015,39.572,26.776,38.53,24.093,37.254Z" stroke="#46fd46" stroke-linecap="square" stroke-width="0.001" fill="url(#linear-gradient-2)"/>
    <path id="path1564" d="M44.649,27.231,46.081,22,30.171,33.658l-.674.254-.1,5.517Z" fill="#979797"/>
    <path id="rect1687" d="M29.211,33.506l-.079.377-1.211,5.734,1.391.211,1.29-6.11Z" fill="url(#linear-gradient-3)"/>
    <path id="rect1314-4-0" d="M19.431,17.8a6.361,6.361,0,0,0-1.969.556l-10.636,5.1.528.373,10.217-4.873a5.129,5.129,0,0,1,3.508-.5L40.972,25.7l.559-.445L21.4,17.956A4.41,4.41,0,0,0,19.431,17.8ZM3,25.363c-.77.715-.233,2.134.668,2.569l24.7,11.941c1.084.524,2.254-.689,3.263-1.5l10.963-8.784c.921-.738,3-2.271,1.7-3.235l-.271.891-.036-.017c-.045.575-1.193,1.263-1.973,2.048L31.426,37.671c-.943.761-1.981,1.918-3,1.427L4.14,27.361a1.425,1.425,0,0,1-.827-.866.712.712,0,0,1-.029-.1Z" fill="#464646"/>
    <path id="path1675" d="M2.938,26.34l-1.6-5.62" fill="none" stroke="#464646" stroke-width="0.644"/>
    <path id="path1677" d="M45.4,21.877v.013l-1.412,5.373.693.044,1.447-5.354v-.125Z" fill="#464646"/>
    <path id="polygon53-6-3-6-0-2-4" d="M21.443,22.9l-6.114,3.721-.162-6.546,6.113-3.761Z" fill="#3c91af"/>
    <path id="polygon55-5-0-9-2-8-23" d="M21.28,16.311l-6.113,3.761L8.892,17.254l6.1-3.76Z" fill="url(#linear-gradient-4)"/>
    <path id="polygon57-6-2-7-3-1-6" d="M9.055,23.84l-.163-6.586,6.275,2.818.162,6.546Z" fill="url(#linear-gradient-5)"/>
    <path id="line59-7-8-9-1-0-0" d="M15.167,20.072l.162,6.546" stroke="#147391" stroke-linejoin="round" stroke-width="0.424" fill="url(#linear-gradient-6)"/>
    <path id="polyline63-9-5-1-4-9-2" d="M9,17.07l-.213.369,6.275,2.817a.238.238,0,0,0,.221-.017L21.4,16.478l-.23-.334-6,3.693Z" fill="#147391"/>
    <path id="polygon65-2-6-0-2-2-3" d="M15,13.291a.249.249,0,0,0-.116.035l-6.1,3.761a.213.213,0,0,0-.106.184l.162,6.547a.188.188,0,0,0,.115.167L15.223,26.8a.241.241,0,0,0,.221-.016l6.113-3.761a.215.215,0,0,0,.106-.184L21.5,16.294a.188.188,0,0,0-.115-.167L15.1,13.31A.225.225,0,0,0,15,13.291Zm0,.438,6.063,2.716.156,6.312-5.895,3.627L9.272,23.667l-.156-6.312Z" fill="#464646"/>
    <path id="polygon53-6-3-6-0-2-4-0" d="M32.162,24.058,26.049,27.78l-.162-6.547L32,17.472Z" fill="#3c91af"/>
    <path id="polygon55-5-0-9-2-8-23-9" d="M32,17.472l-6.113,3.761-6.275-2.817,6.1-3.76Z" fill="url(#linear-gradient-7)"/>
    <path id="polygon57-6-2-7-3-1-6-4" d="M19.775,25l-.163-6.586,6.275,2.817.162,6.547Z" fill="url(#linear-gradient-8)"/>
    <path id="line59-7-8-9-1-0-0-7" d="M25.887,21.233l.162,6.547" stroke="#147391" stroke-linejoin="round" stroke-width="0.424" fill="url(#linear-gradient-9)"/>
    <path id="polyline63-9-5-1-4-9-2-0" d="M19.718,18.231l-.212.369,6.275,2.818A.241.241,0,0,0,26,21.4l6.113-3.761-.23-.335-6,3.693Z" fill="#147391"/>
    <path id="polygon65-2-6-0-2-2-3-6" d="M25.714,14.452a.254.254,0,0,0-.116.036l-6.1,3.76a.213.213,0,0,0-.106.185l.162,6.546a.186.186,0,0,0,.115.168l6.275,2.817a.238.238,0,0,0,.221-.017l6.112-3.761A.213.213,0,0,0,32.383,24l-.162-6.547a.189.189,0,0,0-.115-.167l-6.285-2.817A.242.242,0,0,0,25.714,14.452Zm.005.439,6.062,2.715.156,6.313-5.894,3.626-6.051-2.716-.156-6.313Z" fill="#464646"/>
    <path id="polygon53-6-3-6-0-2-4-0-9" d="M36.651,29.078,30.538,32.8l-.162-6.546,6.113-3.761Z" fill="#3c91af"/>
    <path id="polygon55-5-0-9-2-8-23-9-1" d="M36.489,22.492l-6.113,3.761L24.1,23.436l6.1-3.761Z" fill="url(#linear-gradient-10)"/>
    <path id="polygon57-6-2-7-3-1-6-4-9" d="M24.264,30.022,24.1,23.436l6.275,2.817.162,6.546Z" fill="url(#linear-gradient-11)"/>
    <path id="line59-7-8-9-1-0-0-7-6" d="M30.376,26.253l.162,6.546" stroke="#147391" stroke-linejoin="round" stroke-width="0.424" fill="url(#linear-gradient-12)"/>
    <path id="polyline63-9-5-1-4-9-2-0-4" d="M24.207,23.251,24,23.62l6.275,2.817a.238.238,0,0,0,.221-.017L36.6,22.66l-.23-.335-6,3.693Z" fill="#147391"/>
    <path id="polygon65-2-6-0-2-2-3-6-6" d="M30.2,19.472a.239.239,0,0,0-.116.036l-6.1,3.76a.212.212,0,0,0-.106.184L24.041,30a.192.192,0,0,0,.115.168l6.275,2.817a.243.243,0,0,0,.222-.017l6.112-3.761a.216.216,0,0,0,.107-.184l-.162-6.547a.189.189,0,0,0-.115-.167l-6.286-2.817A.223.223,0,0,0,30.2,19.472Zm0,.438,6.062,2.716.156,6.312-5.894,3.627-6.051-2.717-.156-6.312Z" fill="#464646"/>
    <path id="path1371" d="M28.282,33.192c-.126-.044-5.5-2.636-13.09-6.167L1.355,20.589,1.017,20.3A1.029,1.029,0,0,1,1.1,18.629c.2-.139,16.238-6.867,16.972-7.122a6.608,6.608,0,0,1,2.727-.393c.392.061,25.848,7.922,26.161,8.078.375.186.73.528.73.759,0,.333-.333.7-1.278,1.331-.485.325-13.459,10.168-15.186,11.517-.813.635-1.1.748-1.483.771a2.538,2.538,0,0,1-.692-.1Zm1.74-1.131a6.057,6.057,0,0,0,1.343-.77c.216-.159,3.177-2.207,6.58-4.762s6.257-4.8,6.566-5.006c1.022-.68,1.348-1.02,1.349-1.4,0-.246-.244-.489-.7-.693-.352-.16-23.722-7.532-24.171-7.629a4.815,4.815,0,0,0-2.477.248c-.77.253-15.42,6.3-15.693,6.474a.916.916,0,0,0-.467.825c0,.525.365.941,1.129,1.3C4.825,21.27,28.8,32.1,28.932,32.134a3.012,3.012,0,0,0,1.09-.073Z" stroke="#464646" stroke-linecap="square" stroke-width="0.009" fill="url(#linear-gradient-13)"/>
    <path id="rect1314-4" d="M21.47,11.721a5.327,5.327,0,0,0-3.721.408L2.776,18.376c-1.246.52-.964,1.715.215,2.243l25.7,11.516c1.18.528,2.151-.234,3.257-1.058L44.081,22.03c1.135-.846,3.292-2.059.858-2.834Zm-.345.39L44.59,19.652c1.825.587-.127,1.466-1.007,2.127L31.55,30.819c-1.414,1.062-1.658,1.306-3.183.617L3.693,20.3c-1.1-.5-1.785-1.047-.619-1.536L17.99,12.51A4.143,4.143,0,0,1,21.125,12.111Z" fill="#464646"/>
    <path id="rect1314" d="M21.552,10.778a7.141,7.141,0,0,0-4.406.609L1.029,18.139a1.669,1.669,0,0,0,.016,3.018L28.682,33.851c1.237.568,1.95.079,3.1-.807l14.068-10.81c1.19-.914,3.7-2.68,1.071-3.5Zm-.264.6,25.016,7.7c2.357.725-.387,2.427-.719,2.678L31.436,32.446c-1.087.821-1.46,1.313-2.539.812L1.748,20.667c-1.157-.536-1.4-1.613-.173-2.129l15.725-6.6A5.977,5.977,0,0,1,21.288,11.377Z" fill="#464646"/>
    <path id="rect967" d="M9.156,25.687l11.122,5.261.844,3.714L10,29.4Z" fill="url(#linear-gradient-14)"/>
    <path id="rect13" d="M20.285,30.519l.1.312,1.564,4.78L10.033,29.753,8.468,24.962Zm-.385.333L9.26,25.873l1.158,3.546L21.158,34.7Z" fill="#464646"/>
    <path id="rect1108" d="M10.4,26.759l-.151.009c-.006,0-.015.012-.011.025l.785,2.614c0,.013.016.039.011.024l.152-.009c.037,0,.01-.025.01-.025l-.785-2.614C10.4,26.77,10.4,26.758,10.4,26.759Z" fill="#464646"/>
    <path id="rect1108-6" d="M11.321,27.205l-.339.009c-.013,0-.027.012-.024.025l.739,2.509c0,.013.012.024.025.024l.339-.009.024-.025-.739-2.509C11.342,27.216,11.334,27.205,11.321,27.205Z" fill="#464646"/>
    <path id="rect1108-4" d="M11.655,27.359l-.151.009c-.006,0-.015.012-.011.025l.785,2.614c0,.013.016.039.012.024l.151-.009c.037,0,.011-.025.011-.025l-.786-2.614C11.663,27.37,11.661,27.358,11.655,27.359Z" fill="#464646"/>
    <path id="rect1108-4-4" d="M12,27.558l-.151.009c-.006,0-.015.012-.011.025l.785,2.614c0,.012.016.039.012.023l.151-.008c.037,0,.011-.025.011-.025l-.786-2.615C12.011,27.569,12.009,27.557,12,27.558Z" fill="#464646"/>
    <path id="rect1108-4-9" d="M12.475,27.789l-.151.009a.02.02,0,0,0-.011.025l.785,2.614c0,.013.016.04.011.024l.152-.009c.037,0,.01-.025.01-.025l-.785-2.614C12.482,27.8,12.481,27.789,12.475,27.789Z" fill="#464646"/>
    <path id="rect1108-4-4-7" d="M14.354,28.665l-.152.009a.02.02,0,0,0-.01.025l.785,2.614c0,.013.016.04.011.024l.152-.009c.037,0,.01-.025.01-.025l-.785-2.614C14.361,28.676,14.36,28.665,14.354,28.665Z" fill="#464646"/>
    <path id="rect1108-4-9-7" d="M14.857,28.936l-.152.009c-.006,0-.014.012-.011.025l.786,2.614c0,.013.016.04.011.024l.151-.009c.038,0,.011-.025.011-.025l-.785-2.614C14.864,28.947,14.863,28.936,14.857,28.936Z" fill="#464646"/>
    <path id="rect1108-4-8" d="M15.366,29.166l-.152.009c-.006,0-.014.012-.01.025l.785,2.614c0,.012.016.039.011.023l.151-.008c.038,0,.011-.025.011-.025l-.785-2.615C15.373,29.177,15.372,29.165,15.366,29.166Z" fill="#464646"/>
    <path id="rect1108-4-8-9" d="M16.049,29.5l-.152.009c-.006,0-.014.012-.01.025l.785,2.614c0,.012.016.039.011.023l.152-.009c.037,0,.01-.025.01-.025l-.785-2.614C16.056,29.51,16.055,29.5,16.049,29.5Z" fill="#464646"/>
    <path id="rect1108-4-4-6-6" d="M16.475,29.729l-.151.009c-.006,0-.015.012-.011.025l.785,2.614c0,.012.016.039.011.024l.152-.009c.037,0,.01-.025.01-.025l-.785-2.615C16.482,29.74,16.481,29.728,16.475,29.729Z" fill="#464646"/>
    <path id="rect1108-4-9-6" d="M17.668,30.312l-.152.009c-.006,0-.014.012-.01.025l.785,2.614c0,.013.016.04.011.024l.151-.009c.038,0,.011-.025.011-.025l-.785-2.614C17.675,30.323,17.674,30.312,17.668,30.312Z" fill="#464646"/>
    <path id="rect1108-6-9" d="M13.2,28.094l-.339.009c-.014,0-.028.012-.024.025l.739,2.509c0,.012.011.024.025.023l.339-.009.023-.025-.738-2.508C13.218,28.105,13.21,28.094,13.2,28.094Z" fill="#464646"/>
    <path id="rect1108-6-7" d="M13.837,28.414l-.339.009c-.013,0-.027.012-.023.025l.738,2.509c0,.013.012.024.025.024l.339-.009.024-.025-.739-2.509C13.858,28.425,13.851,28.414,13.837,28.414Z" fill="#464646"/>
    <path id="rect1108-6-7-7" d="M17.2,30.071l-.339.008c-.014,0-.028.012-.024.025l.739,2.509c0,.013.011.024.025.024l.339-.009.023-.025-.738-2.509C17.218,30.081,17.21,30.07,17.2,30.071Z" fill="#464646"/>
    <path id="rect1108-6-7-4" d="M18.408,30.68l-.339.009c-.014,0-.028.012-.024.025l.739,2.508c0,.013.011.025.025.024l.339-.009.023-.025L18.433,30.7C18.429,30.691,18.421,30.68,18.408,30.68Z" fill="#464646"/>
    <path id="rect1108-6-7-2" d="M19.118,30.992,18.78,31c-.014,0-.028.012-.024.025l.739,2.509a.027.027,0,0,0,.025.024l.339-.009.023-.025-.739-2.509A.027.027,0,0,0,19.118,30.992Z" fill="#464646"/>
  </g>
</svg>
