<svg id="Layer_1" data-name="Layer 1" xmlns="http://www.w3.org/2000/svg" xmlns:xlink="http://www.w3.org/1999/xlink" viewBox="0 0 48 48">
  <defs>
    <linearGradient id="linear-gradient" x1="86.987" y1="-91.199" x2="98.199" y2="-104.098" gradientTransform="matrix(0.721, 0, 0, -0.74, -62.22, -45.414)" gradientUnits="userSpaceOnUse">
      <stop offset="0" stop-color="#f2f2f2"/>
      <stop offset="0.5" stop-color="#ccc"/>
      <stop offset="0.63" stop-color="#c7c7c7"/>
      <stop offset="0.779" stop-color="#b9b9b9"/>
      <stop offset="0.938" stop-color="#a2a2a2"/>
      <stop offset="0.99" stop-color="#999"/>
    </linearGradient>
    <linearGradient id="linear-gradient-2" x1="86.987" y1="-91.199" x2="98.199" y2="-104.098" gradientTransform="matrix(0.721, 0, 0, -0.74, -39.819, -45.414)" xlink:href="#linear-gradient"/>
    <linearGradient id="linear-gradient-3" x1="66.41" y1="-454.256" x2="86.052" y2="-473.898" gradientTransform="matrix(0.867, 0, 0, -0.867, -31.067, -367.2)" gradientUnits="userSpaceOnUse">
      <stop offset="0" stop-color="#6ab1c3"/>
      <stop offset="0.175" stop-color="#64acbe"/>
      <stop offset="0.457" stop-color="#509cb0"/>
      <stop offset="0.809" stop-color="#31849d"/>
      <stop offset="1" stop-color="#1f7690"/>
    </linearGradient>
    <linearGradient id="linear-gradient-4" x1="86.987" y1="-91.199" x2="98.199" y2="-104.098" gradientTransform="matrix(0.721, 0, 0, -0.74, -51.019, -45.409)" xlink:href="#linear-gradient"/>
    <linearGradient id="linear-gradient-5" x1="86.987" y1="-91.199" x2="98.199" y2="-104.098" gradientTransform="matrix(0.721, 0, 0, -0.74, -37.775, -63.359)" gradientUnits="userSpaceOnUse">
      <stop offset="0" stop-color="#afd7e1"/>
      <stop offset="0.159" stop-color="#a4d0dc"/>
      <stop offset="0.706" stop-color="#80bcce"/>
      <stop offset="1" stop-color="#73b4c8"/>
    </linearGradient>
    <linearGradient id="linear-gradient-6" x1="86.987" y1="-91.199" x2="98.199" y2="-104.098" gradientTransform="matrix(0.721, 0, 0, -0.74, -48.975, -63.359)" xlink:href="#linear-gradient-5"/>
    <linearGradient id="linear-gradient-7" x1="86.987" y1="-91.199" x2="98.199" y2="-104.098" gradientTransform="matrix(0.721, 0, 0, -0.74, -26.575, -63.359)" xlink:href="#linear-gradient-5"/>
  </defs>
  <g id="g1571">
    <path id="rect1862-8-2-5-6" d="M0,25.254H34.623a.029.029,0,0,1,.029.029v1.652a.029.029,0,0,1-.029.029H0a.029.029,0,0,1-.029-.029V25.283A.029.029,0,0,1,0,25.254Z" fill="#32859e"/>
    <path id="rect1171-3" d="M8.645,19.984l1.838-1.144c.013-.008.024,0,.024.013V33.474a.059.059,0,0,1-.024.044L8.645,34.662c-.013.008-.024,0-.024-.013V20.028A.059.059,0,0,1,8.645,19.984Z" fill="#979797"/>
    <path id="rect1169-9" d="M4.331,18.283H10.1c.014,0,.017.007.005.016l-2.22,1.639a.092.092,0,0,1-.048.016H2.068c-.015,0-.017-.007,0-.016L4.283,18.3A.092.092,0,0,1,4.331,18.283Z" fill="#979797"/>
    <path id="rect1115-7" d="M1.874,20.09H8.411V35.038H1.874Z" fill="url(#linear-gradient)"/>
    <path id="rect989-8-2" d="M1.75,34.722h6.7a.336.336,0,0,1,.337.337v.048a.337.337,0,0,1-.337.338H1.75a.337.337,0,0,1-.337-.338v-.048A.336.336,0,0,1,1.75,34.722Z" fill="#464646"/>
    <path id="rect989-8-7-4" d="M1.75,19.548h6.7a.336.336,0,0,1,.337.337v.048a.336.336,0,0,1-.337.337H1.75a.336.336,0,0,1-.337-.337v-.048A.336.336,0,0,1,1.75,19.548Z" fill="#464646"/>
    <path id="rect989-8-7-2-52" d="M8.788,19.861V35.132a.312.312,0,0,1-.312.313H8.431a.313.313,0,0,1-.313-.313V19.861a.312.312,0,0,1,.313-.313h.045A.311.311,0,0,1,8.788,19.861Z" fill="#464646"/>
    <path id="rect989-8-7-2-5-0" d="M2.083,19.861V35.132a.312.312,0,0,1-.312.313H1.726a.312.312,0,0,1-.313-.313V19.861a.312.312,0,0,1,.313-.313h.045A.311.311,0,0,1,2.083,19.861Z" fill="#464646"/>
    <path id="rect989-8-7-2-7-3" d="M10.8,18.415V33.687a.312.312,0,0,1-.313.312h-.045a.312.312,0,0,1-.313-.312V18.415a.312.312,0,0,1,.313-.312h.045A.312.312,0,0,1,10.8,18.415Z" fill="#464646"/>
    <path id="path1068-4" d="M10.47,33.35a.3.3,0,0,0-.169.057L8.333,34.794a.355.355,0,0,0-.092.469.3.3,0,0,0,.436.1h0l1.968-1.387a.355.355,0,0,0,.1-.468A.309.309,0,0,0,10.47,33.35Z" fill="#464646"/>
    <path id="path1068-8-8" d="M10.484,18.053a.307.307,0,0,0-.169.058L8.348,19.5a.354.354,0,0,0-.11.464.3.3,0,0,0,.431.119l.023-.016,1.968-1.386a.354.354,0,0,0,.1-.467A.307.307,0,0,0,10.484,18.053Z" fill="#464646"/>
    <path id="path1068-8-2-1" d="M3.7,18.069a.284.284,0,0,0-.167.058L1.562,19.514a.355.355,0,0,0-.091.469.3.3,0,0,0,.436.1l1.968-1.387a.356.356,0,0,0,.1-.468A.309.309,0,0,0,3.7,18.069Z" fill="#464646"/>
    <path id="rect989-8-7-6-8" d="M3.762,18.056h6.7a.336.336,0,0,1,.337.337v.048a.336.336,0,0,1-.337.337h-6.7a.337.337,0,0,1-.338-.337v-.048A.337.337,0,0,1,3.762,18.056Z" fill="#464646"/>
    <path id="rect1440-9-0-1" d="M3.082,21.787H7.119a.029.029,0,0,1,.03.03v2.627a.029.029,0,0,1-.03.03H3.082a.029.029,0,0,1-.03-.03V21.817A.029.029,0,0,1,3.082,21.787Z" fill="#979797" stroke="#464646" stroke-linecap="round" stroke-miterlimit="10" stroke-width="0.6"/>
    <path id="rect1442-9-38-6" d="M3.086,27.5H7.1a.025.025,0,0,1,.024.025v6.416a.024.024,0,0,1-.024.024H3.086a.024.024,0,0,1-.024-.024V27.521A.024.024,0,0,1,3.086,27.5Z" fill="#979797" stroke="#464646" stroke-linecap="round" stroke-miterlimit="10" stroke-width="0.6"/>
    <path id="rect1171-7-14" d="M31.045,19.985l1.838-1.145c.013-.008.024,0,.024.014V33.475a.058.058,0,0,1-.024.043l-1.838,1.144c-.013.009-.024,0-.024-.013V20.028A.056.056,0,0,1,31.045,19.985Z" fill="#979797"/>
    <path id="rect1169-3-0" d="M26.731,18.284H32.5c.015,0,.017.007.005.015l-2.22,1.64a.1.1,0,0,1-.048.016H24.468c-.014,0-.017-.008,0-.016l2.22-1.64A.1.1,0,0,1,26.731,18.284Z" fill="#979797"/>
    <path id="rect1115-5-7" d="M24.274,20.09h6.537V35.039H24.274Z" fill="url(#linear-gradient-2)"/>
    <path id="rect989-8-3-6" d="M24.15,34.722h6.7a.338.338,0,0,1,.338.338v.048a.337.337,0,0,1-.338.337h-6.7a.336.336,0,0,1-.337-.337V35.06A.337.337,0,0,1,24.15,34.722Z" fill="#464646"/>
    <path id="rect989-8-7-3-0" d="M24.15,19.548h6.7a.337.337,0,0,1,.338.337v.048a.338.338,0,0,1-.338.338h-6.7a.337.337,0,0,1-.337-.338v-.048A.336.336,0,0,1,24.15,19.548Z" fill="#464646"/>
    <path id="rect989-8-7-2-0-3" d="M31.189,19.861V35.132a.313.313,0,0,1-.313.313h-.045a.313.313,0,0,1-.313-.313V19.861a.313.313,0,0,1,.313-.313h.045A.313.313,0,0,1,31.189,19.861Z" fill="#464646"/>
    <path id="rect989-8-7-2-5-8-0" d="M24.484,19.861V35.132a.313.313,0,0,1-.313.313h-.045a.313.313,0,0,1-.313-.313V19.861a.313.313,0,0,1,.313-.313h.045A.313.313,0,0,1,24.484,19.861Z" fill="#464646"/>
    <path id="rect989-8-7-2-7-8-5" d="M33.2,18.416V33.687a.313.313,0,0,1-.313.313h-.045a.312.312,0,0,1-.312-.313V18.416a.311.311,0,0,1,.312-.313h.045A.312.312,0,0,1,33.2,18.416Z" fill="#464646"/>
    <path id="path1068-6-2" d="M30.905,35.078l1.968-1.387" fill="none" stroke="#464646" stroke-linecap="round" stroke-width="0.653"/>
    <path id="path1068-8-24-6" d="M32.884,18.053a.307.307,0,0,0-.169.058L30.749,19.5a.355.355,0,0,0-.111.465.3.3,0,0,0,.431.119l.023-.016,1.968-1.386a.355.355,0,0,0,.1-.468A.311.311,0,0,0,32.884,18.053Z" fill="#464646"/>
    <path id="path1068-8-2-8-05" d="M26.1,18.069a.3.3,0,0,0-.167.058l-1.969,1.387a.356.356,0,0,0-.091.469.3.3,0,0,0,.435.1h0l1.968-1.388a.354.354,0,0,0,.1-.467A.312.312,0,0,0,26.1,18.069Z" fill="#464646"/>
    <path id="rect989-8-7-6-2-2" d="M26.162,18.056h6.7a.337.337,0,0,1,.337.337v.049a.337.337,0,0,1-.337.337h-6.7a.337.337,0,0,1-.337-.337v-.049A.337.337,0,0,1,26.162,18.056Z" fill="#464646"/>
    <path id="rect1440-9-0-9-2" d="M25.482,21.787h4.037a.03.03,0,0,1,.03.03v2.628a.029.029,0,0,1-.03.029H25.482a.03.03,0,0,1-.03-.029V21.817A.031.031,0,0,1,25.482,21.787Z" fill="#979797" stroke="#464646" stroke-linecap="round" stroke-miterlimit="10" stroke-width="0.6"/>
    <path id="rect1442-9-38-4-8" d="M25.486,27.5H29.5a.024.024,0,0,1,.024.024v6.416a.025.025,0,0,1-.024.025H25.486a.025.025,0,0,1-.024-.025V27.521A.024.024,0,0,1,25.486,27.5Z" fill="#979797" stroke="#464646" stroke-linecap="round" stroke-miterlimit="10" stroke-width="0.685"/>
    <path id="circle42-4" d="M47.037,35A12.037,12.037,0,0,1,35,47.037h0A12.037,12.037,0,0,1,22.963,35h0A12.037,12.037,0,0,1,35,22.963h0A12.037,12.037,0,0,1,47.037,35Z" fill="url(#linear-gradient-3)"/>
    <path id="path44" d="M35,48A13,13,0,1,1,48,35,13,13,0,0,1,35,48Zm0-25.037A12.037,12.037,0,1,0,47.038,35,12.036,12.036,0,0,0,35,22.963Z" fill="#3f4143"/>
    <path id="path2" d="M27.412,29.531l.286.179a14.694,14.694,0,0,1,6.965,12.545l-.024.423-1.757-1.335-.477.477L35,44.415l2.6-2.595-.477-.477-1.758,1.335-.024-.423A14.691,14.691,0,0,1,42.3,29.709l.285-.179a.337.337,0,0,0-.356-.572h0l-.286.18A15.343,15.343,0,0,0,35,39.049a15.348,15.348,0,0,0-6.945-9.911l-.286-.179a.337.337,0,0,0-.357.572Z" fill="#147391" stroke="#147391" stroke-width="2.494"/>
    <path id="path2-1" d="M27.412,29.531l.286.179a14.694,14.694,0,0,1,6.965,12.545v.871l-1.781-1.783-.476.477L35,44.415l2.6-2.595-.477-.477-1.783,1.783v-.871A14.691,14.691,0,0,1,42.3,29.709l.285-.179a.337.337,0,0,0-.356-.572h0l-.286.18A15.343,15.343,0,0,0,35,39.049a15.344,15.344,0,0,0-6.945-9.911l-.286-.179a.337.337,0,1,0-.358.571Z" fill="#fff" stroke="#fff" stroke-width="0.655"/>
    <path id="rect1862-8-2-5" d="M13.241,7.309H47.867a.029.029,0,0,1,.029.029V8.99a.029.029,0,0,1-.029.029H13.241a.029.029,0,0,1-.029-.029V7.338A.029.029,0,0,1,13.241,7.309Z" fill="#32859e"/>
    <path id="rect1171-7" d="M19.845,19.99l1.838-1.145c.013-.008.024,0,.024.014V33.48a.058.058,0,0,1-.024.043l-1.838,1.144c-.013.009-.024,0-.024-.013V20.033A.056.056,0,0,1,19.845,19.99Z" fill="#979797"/>
    <path id="rect1169-3" d="M15.531,18.289H21.3c.015,0,.017.007,0,.015l-2.22,1.64a.1.1,0,0,1-.048.016H13.268c-.014,0-.017-.008-.005-.016l2.22-1.64A.1.1,0,0,1,15.531,18.289Z" fill="#979797"/>
    <path id="rect1115-5" d="M13.074,20.1h6.537V35.044H13.074Z" fill="url(#linear-gradient-4)"/>
    <path id="rect989-8-3" d="M12.95,34.727h6.7a.338.338,0,0,1,.338.338v.048a.337.337,0,0,1-.338.337h-6.7a.336.336,0,0,1-.337-.337v-.048A.337.337,0,0,1,12.95,34.727Z" fill="#464646"/>
    <path id="rect989-8-7-3" d="M12.95,19.553h6.7a.337.337,0,0,1,.338.337v.048a.338.338,0,0,1-.338.338h-6.7a.337.337,0,0,1-.337-.338V19.89A.336.336,0,0,1,12.95,19.553Z" fill="#464646"/>
    <path id="rect989-8-7-2-0" d="M19.989,19.866V35.137a.313.313,0,0,1-.313.313h-.045a.313.313,0,0,1-.313-.313V19.866a.313.313,0,0,1,.313-.313h.045A.313.313,0,0,1,19.989,19.866Z" fill="#464646"/>
    <path id="rect989-8-7-2-5-8" d="M13.284,19.866V35.137a.313.313,0,0,1-.313.313h-.045a.313.313,0,0,1-.313-.313V19.866a.313.313,0,0,1,.313-.313h.045A.313.313,0,0,1,13.284,19.866Z" fill="#464646"/>
    <path id="rect989-8-7-2-7-8" d="M22,18.421V33.692a.313.313,0,0,1-.313.313h-.045a.312.312,0,0,1-.312-.313V18.421a.311.311,0,0,1,.312-.313h.045A.312.312,0,0,1,22,18.421Z" fill="#464646"/>
    <path id="path1068-6" d="M21.67,33.356a.3.3,0,0,0-.169.056L19.533,34.8a.356.356,0,0,0-.091.47.3.3,0,0,0,.435.1h0l1.969-1.388a.354.354,0,0,0,.094-.468A.308.308,0,0,0,21.67,33.356Z" fill="#464646"/>
    <path id="path1068-8-24" d="M21.684,18.059a.3.3,0,0,0-.169.057L19.549,19.5a.355.355,0,0,0-.111.465.3.3,0,0,0,.431.119l.023-.016,1.968-1.386a.355.355,0,0,0,.1-.468A.308.308,0,0,0,21.684,18.059Z" fill="#464646"/>
    <path id="path1068-8-2-8" d="M14.9,18.074a.3.3,0,0,0-.167.058l-1.969,1.387a.356.356,0,0,0-.091.469.3.3,0,0,0,.435.1h0L15.075,18.7a.354.354,0,0,0,.1-.467A.312.312,0,0,0,14.9,18.074Z" fill="#464646"/>
    <path id="rect989-8-7-6-2" d="M14.962,18.061h6.7A.337.337,0,0,1,22,18.4v.049a.337.337,0,0,1-.337.337h-6.7a.337.337,0,0,1-.337-.337V18.4A.337.337,0,0,1,14.962,18.061Z" fill="#464646"/>
    <path id="rect1440-9-0-9" d="M14.282,21.792h4.037a.03.03,0,0,1,.03.03V24.45a.029.029,0,0,1-.03.029H14.282a.03.03,0,0,1-.03-.029V21.822A.031.031,0,0,1,14.282,21.792Z" fill="#979797" stroke="#464646" stroke-linecap="round" stroke-miterlimit="10" stroke-width="0.6"/>
    <path id="rect1442-9-38-4" d="M14.286,27.5H18.3a.024.024,0,0,1,.024.024v6.416a.025.025,0,0,1-.024.025H14.286a.025.025,0,0,1-.024-.025V27.526A.024.024,0,0,1,14.286,27.5Z" fill="#979797" stroke="#464646" stroke-linecap="round" stroke-miterlimit="10" stroke-width="0.6"/>
    <path id="rect1171-7-1" d="M33.089,2.04,34.927.9c.013-.008.024,0,.024.014V15.53a.058.058,0,0,1-.024.043l-1.838,1.144c-.013.009-.024,0-.024-.013V2.083A.056.056,0,0,1,33.089,2.04Z" fill="#32859e"/>
    <path id="rect1169-3-8" d="M28.776.339h5.771c.015,0,.017.007.005.015l-2.22,1.64a.1.1,0,0,1-.048.016H26.513c-.015,0-.018-.008-.006-.016l2.22-1.64A.1.1,0,0,1,28.776.339Z" fill="#32859e"/>
    <path id="rect1115-5-1" d="M26.318,2.145h6.538V17.094H26.318Z" fill="url(#linear-gradient-5)"/>
    <path id="rect989-8-3-4" d="M26.194,16.777h6.7a.337.337,0,0,1,.337.338v.048a.337.337,0,0,1-.337.337h-6.7a.337.337,0,0,1-.337-.337v-.048A.337.337,0,0,1,26.194,16.777Z" fill="#464646"/>
    <path id="rect989-8-7-3-3" d="M26.194,1.6h6.7a.337.337,0,0,1,.337.337v.048a.337.337,0,0,1-.337.338h-6.7a.337.337,0,0,1-.337-.338V1.94A.337.337,0,0,1,26.194,1.6Z" fill="#464646"/>
    <path id="rect989-8-7-2-0-5" d="M33.233,1.916V17.187a.313.313,0,0,1-.313.313h-.045a.313.313,0,0,1-.313-.313V1.916a.313.313,0,0,1,.313-.313h.045A.313.313,0,0,1,33.233,1.916Z" fill="#464646"/>
    <path id="rect989-8-7-2-5-8-5" d="M26.528,1.916V17.187a.313.313,0,0,1-.313.313H26.17a.313.313,0,0,1-.313-.313V1.916A.313.313,0,0,1,26.17,1.6h.045A.313.313,0,0,1,26.528,1.916Z" fill="#464646"/>
    <path id="rect989-8-7-2-7-8-4" d="M35.244.471V15.742a.312.312,0,0,1-.313.313h-.044a.312.312,0,0,1-.313-.313V.471a.312.312,0,0,1,.313-.313h.044A.312.312,0,0,1,35.244.471Z" fill="#464646"/>
    <path id="path1068-6-7" d="M34.914,15.406a.3.3,0,0,0-.169.056l-1.968,1.387a.357.357,0,0,0-.092.47.3.3,0,0,0,.436.1h0l1.969-1.388a.354.354,0,0,0,.094-.468A.308.308,0,0,0,34.914,15.406Z" fill="#464646"/>
    <path id="path1068-8-24-9" d="M34.929.109a.3.3,0,0,0-.169.057L32.793,1.552a.355.355,0,0,0-.111.465.3.3,0,0,0,.431.119l.023-.016L35.1.734a.355.355,0,0,0,.1-.468A.31.31,0,0,0,34.929.109Z" fill="#464646"/>
    <path id="path1068-8-2-8-0" d="M28.142.124a.3.3,0,0,0-.167.058L26.006,1.569a.355.355,0,0,0-.091.469.3.3,0,0,0,.435.1h0L28.319.749a.354.354,0,0,0,.1-.467A.311.311,0,0,0,28.142.124Z" fill="#464646"/>
    <path id="rect989-8-7-6-2-6" d="M28.206.111h6.7a.337.337,0,0,1,.337.337V.5a.337.337,0,0,1-.337.337h-6.7A.337.337,0,0,1,27.869.5V.448A.337.337,0,0,1,28.206.111Z" fill="#464646"/>
    <path id="rect1440-9-0-9-8" d="M27.526,3.842h4.038a.031.031,0,0,1,.03.03V6.5a.03.03,0,0,1-.03.029H27.526A.03.03,0,0,1,27.5,6.5V3.872A.031.031,0,0,1,27.526,3.842Z" fill="#979797" stroke="#464646" stroke-linecap="round" stroke-miterlimit="10" stroke-width="0.6"/>
    <path id="rect1442-9-38-4-9" d="M27.53,9.552h4.011a.023.023,0,0,1,.024.024v6.416a.024.024,0,0,1-.024.025H27.53a.025.025,0,0,1-.024-.025V9.576A.024.024,0,0,1,27.53,9.552Z" fill="#979797" stroke="#464646" stroke-linecap="round" stroke-miterlimit="10" stroke-width="0.6"/>
    <path id="rect1171-7-1-5" d="M21.889,2.04,23.727.9c.013-.008.024,0,.024.014V15.53a.058.058,0,0,1-.024.043l-1.838,1.144c-.013.009-.024,0-.024-.013V2.083A.056.056,0,0,1,21.889,2.04Z" fill="#32859e"/>
    <path id="rect1169-3-8-6" d="M17.575.339h5.772c.015,0,.017.007,0,.015l-2.22,1.64a.1.1,0,0,1-.048.016H15.312c-.014,0-.017-.008,0-.016l2.22-1.64A.1.1,0,0,1,17.575.339Z" fill="#32859e"/>
    <path id="rect1115-5-1-2" d="M15.118,2.145h6.537V17.094H15.118Z" fill="url(#linear-gradient-6)"/>
    <path id="rect989-8-3-4-3" d="M14.994,16.777h6.7a.338.338,0,0,1,.338.338v.048a.337.337,0,0,1-.338.337h-6.7a.336.336,0,0,1-.337-.337v-.048A.337.337,0,0,1,14.994,16.777Z" fill="#464646"/>
    <path id="rect989-8-7-3-3-6" d="M14.994,1.6h6.7a.337.337,0,0,1,.338.337v.048a.338.338,0,0,1-.338.338h-6.7a.337.337,0,0,1-.337-.338V1.94A.336.336,0,0,1,14.994,1.6Z" fill="#464646"/>
    <path id="rect989-8-7-2-0-5-8" d="M22.033,1.916V17.187a.313.313,0,0,1-.313.313h-.045a.313.313,0,0,1-.313-.313V1.916a.313.313,0,0,1,.313-.313h.045A.313.313,0,0,1,22.033,1.916Z" fill="#464646"/>
    <path id="rect989-8-7-2-5-8-5-6" d="M15.328,1.916V17.187a.313.313,0,0,1-.313.313H14.97a.313.313,0,0,1-.313-.313V1.916A.313.313,0,0,1,14.97,1.6h.045A.313.313,0,0,1,15.328,1.916Z" fill="#464646"/>
    <path id="rect989-8-7-2-7-8-4-5" d="M24.044.471V15.742a.313.313,0,0,1-.313.313h-.045a.312.312,0,0,1-.312-.313V.471a.311.311,0,0,1,.312-.313h.045A.312.312,0,0,1,24.044.471Z" fill="#464646"/>
    <path id="path1068-6-7-1" d="M23.714,15.406a.3.3,0,0,0-.169.056l-1.968,1.387a.356.356,0,0,0-.091.47.3.3,0,0,0,.435.1h0l1.969-1.388a.354.354,0,0,0,.094-.468A.308.308,0,0,0,23.714,15.406Z" fill="#464646"/>
    <path id="path1068-8-24-9-4" d="M23.728.109a.3.3,0,0,0-.169.057L21.593,1.552a.355.355,0,0,0-.111.465.3.3,0,0,0,.431.119l.023-.016L23.9.734A.355.355,0,0,0,24,.266.308.308,0,0,0,23.728.109Z" fill="#464646"/>
    <path id="path1068-8-2-8-0-7" d="M16.942.124a.3.3,0,0,0-.167.058L14.806,1.569a.356.356,0,0,0-.091.469.3.3,0,0,0,.436.1h0L17.119.749a.354.354,0,0,0,.1-.467A.312.312,0,0,0,16.942.124Z" fill="#464646"/>
    <path id="rect989-8-7-6-2-6-3" d="M17.006.111h6.7a.337.337,0,0,1,.337.337V.5a.337.337,0,0,1-.337.337h-6.7A.337.337,0,0,1,16.669.5V.448A.337.337,0,0,1,17.006.111Z" fill="#464646"/>
    <path id="rect1440-9-0-9-8-7" d="M16.326,3.842h4.037a.03.03,0,0,1,.03.03V6.5a.029.029,0,0,1-.03.029H16.326A.03.03,0,0,1,16.3,6.5V3.872A.031.031,0,0,1,16.326,3.842Z" fill="#979797" stroke="#464646" stroke-linecap="round" stroke-miterlimit="10" stroke-width="0.6"/>
    <path id="rect1442-9-38-4-9-9" d="M16.33,9.552h4.011a.024.024,0,0,1,.024.024v6.416a.025.025,0,0,1-.024.025H16.33a.025.025,0,0,1-.024-.025V9.576A.024.024,0,0,1,16.33,9.552Z" fill="#979797" stroke="#464646" stroke-linecap="round" stroke-miterlimit="10" stroke-width="0.6"/>
    <path id="rect1171-7-1-3" d="M44.289,2.04,46.127.9c.013-.008.024,0,.024.014V15.53a.058.058,0,0,1-.024.043l-1.838,1.144c-.013.009-.024,0-.024-.013V2.083A.056.056,0,0,1,44.289,2.04Z" fill="#32859e"/>
    <path id="rect1169-3-8-9" d="M39.975.339h5.772c.015,0,.017.007.005.015l-2.22,1.64a.1.1,0,0,1-.048.016H37.712c-.014,0-.017-.008-.005-.016l2.22-1.64A.1.1,0,0,1,39.975.339Z" fill="#32859e"/>
    <path id="rect1115-5-1-95" d="M37.518,2.145h6.537V17.094H37.518Z" fill="url(#linear-gradient-7)"/>
    <path id="rect989-8-3-4-6" d="M37.394,16.777h6.7a.338.338,0,0,1,.338.338v.048a.337.337,0,0,1-.338.337h-6.7a.336.336,0,0,1-.337-.337v-.048A.337.337,0,0,1,37.394,16.777Z" fill="#464646"/>
    <path id="rect989-8-7-3-3-52" d="M37.394,1.6h6.7a.337.337,0,0,1,.338.337v.048a.338.338,0,0,1-.338.338h-6.7a.337.337,0,0,1-.337-.338V1.94A.336.336,0,0,1,37.394,1.6Z" fill="#464646"/>
    <path id="rect989-8-7-2-0-5-6" d="M44.433,1.916V17.187a.313.313,0,0,1-.313.313h-.045a.313.313,0,0,1-.313-.313V1.916a.313.313,0,0,1,.313-.313h.045A.313.313,0,0,1,44.433,1.916Z" fill="#464646"/>
    <path id="rect989-8-7-2-5-8-5-0" d="M37.728,1.916V17.187a.313.313,0,0,1-.313.313H37.37a.313.313,0,0,1-.313-.313V1.916A.313.313,0,0,1,37.37,1.6h.045A.313.313,0,0,1,37.728,1.916Z" fill="#464646"/>
    <path id="rect989-8-7-2-7-8-4-2" d="M46.444.471V15.742a.313.313,0,0,1-.313.313h-.045a.312.312,0,0,1-.312-.313V.471a.311.311,0,0,1,.312-.313h.045A.312.312,0,0,1,46.444.471Z" fill="#464646"/>
    <path id="path1068-6-7-36" d="M46.114,15.406a.3.3,0,0,0-.169.056l-1.968,1.387a.356.356,0,0,0-.092.47.3.3,0,0,0,.435.1h0l1.969-1.388a.354.354,0,0,0,.094-.468A.308.308,0,0,0,46.114,15.406Z" fill="#464646"/>
    <path id="path1068-8-24-9-1" d="M46.128.109a.3.3,0,0,0-.169.057L43.993,1.552a.355.355,0,0,0-.111.465.3.3,0,0,0,.431.119l.023-.016L46.3.734a.355.355,0,0,0,.1-.468A.308.308,0,0,0,46.128.109Z" fill="#464646"/>
    <path id="path1068-8-2-8-0-0" d="M39.342.124a.3.3,0,0,0-.167.058L37.206,1.569a.355.355,0,0,0-.091.469.3.3,0,0,0,.435.1h0L39.519.749a.354.354,0,0,0,.1-.467A.312.312,0,0,0,39.342.124Z" fill="#464646"/>
    <path id="rect989-8-7-6-2-6-7" d="M39.406.111h6.7a.337.337,0,0,1,.337.337V.5a.337.337,0,0,1-.337.337h-6.7A.337.337,0,0,1,39.069.5V.448A.337.337,0,0,1,39.406.111Z" fill="#464646"/>
    <path id="rect1440-9-0-9-8-0" d="M38.726,3.842h4.038a.03.03,0,0,1,.029.03V6.5a.029.029,0,0,1-.029.029H38.726A.03.03,0,0,1,38.7,6.5V3.872A.031.031,0,0,1,38.726,3.842Z" fill="#979797" stroke="#464646" stroke-linecap="round" stroke-miterlimit="10" stroke-width="0.6"/>
    <path id="rect1442-9-38-4-9-25" d="M38.73,9.552h4.011a.024.024,0,0,1,.024.024v6.416a.025.025,0,0,1-.024.025H38.73a.025.025,0,0,1-.024-.025V9.576A.024.024,0,0,1,38.73,9.552Z" fill="#979797" stroke="#464646" stroke-linecap="round" stroke-miterlimit="10" stroke-width="0.6"/>
  </g>
</svg>
