<svg id="Image" xmlns="http://www.w3.org/2000/svg" xmlns:xlink="http://www.w3.org/1999/xlink" viewBox="0 0 48 48">
  <defs>
    <linearGradient id="linear-gradient" x1="13.854" y1="26.476" x2="34.146" y2="46.77" gradientTransform="matrix(1, 0, 0, -1, -1, 47.8)" gradientUnits="userSpaceOnUse">
      <stop offset="0" stop-color="#fff"/>
      <stop offset="0.221" stop-color="#f9f9f9"/>
      <stop offset="0.541" stop-color="#e5e5e4"/>
      <stop offset="0.92" stop-color="#c7c6c6"/>
      <stop offset="1" stop-color="#bebdbe"/>
    </linearGradient>
    <linearGradient id="linear-gradient-2" x1="1.5" y1="19.375" x2="46.5" y2="19.375" gradientTransform="matrix(1, 0, 0, -1, -1, 47.8)" gradientUnits="userSpaceOnUse">
      <stop offset="0" stop-color="#f2f2f2"/>
      <stop offset="1" stop-color="#999"/>
    </linearGradient>
    <linearGradient id="linear-gradient-3" x1="37.129" y1="13.12" x2="41.371" y2="8.878" gradientTransform="matrix(1, 0, 0, -1, -1, 47.8)" gradientUnits="userSpaceOnUse">
      <stop offset="0" stop-color="#73b4c8"/>
      <stop offset="1" stop-color="#177491"/>
    </linearGradient>
    <linearGradient id="linear-gradient-4" x1="31.689" y1="12.06" x2="33.811" y2="9.938" xlink:href="#linear-gradient-3"/>
    <linearGradient id="linear-gradient-5" x1="25.05" y1="27.001" x2="47.204" y2="4.745" gradientTransform="matrix(1, 0, 0, -1, 0, 52)" gradientUnits="userSpaceOnUse">
      <stop offset="0" stop-color="#7fb8cd"/>
      <stop offset="0.175" stop-color="#72b0c8"/>
      <stop offset="0.457" stop-color="#559eb8"/>
      <stop offset="0.809" stop-color="#2982a1"/>
      <stop offset="1" stop-color="#0e7191"/>
    </linearGradient>
  </defs>
  <g id="g76">
    <g id="g42">
      <g id="g30">
        <polyline id="polyline26" points="32.899 21.571 32.899 0.783 13.101 0.783 13.101 21.571" fill="url(#linear-gradient)"/>
        <polygon id="polygon28" points="13.601 21.571 12.601 21.571 12.601 0.283 33.399 0.283 33.399 21.571 32.399 21.571 32.399 1.283 13.601 1.283 13.601 21.571" fill="#474647"/>
      </g>
      <g id="g36">
        <polyline id="polyline32" points="15.929 21.571 15.929 3.567 30.115 3.788 30.093 21.571" fill="#fff"/>
        <polygon id="polygon34" points="16.429 21.571 15.429 21.571 15.429 3.059 30.616 3.296 30.593 21.571 29.593 21.571 29.614 4.28 16.429 4.075 16.429 21.571" fill="#6f6f6e"/>
      </g>
      <rect id="rect38" x="18.05" y="8.202" width="9.9" height="1" fill="#474647"/>
      <rect id="rect40" x="18.05" y="6.081" width="9.9" height="1" fill="#474647"/>
    </g>
    <g id="g60">
      <path id="path44" d="M33.917,19.3a2.084,2.084,0,0,1,0,4.167H12.083a2.084,2.084,0,0,1,0-4.167H12.6V15.456H4.5a3.5,3.5,0,0,0-3.5,3.5V37.894a3.5,3.5,0,0,0,3.5,3.5h37a3.5,3.5,0,0,0,3.5-3.5V18.956a3.5,3.5,0,0,0-3.5-3.5H33.4V19.3Z" fill="url(#linear-gradient-2)"/>
      <path id="path46" d="M41.5,14.456H33.4v.5h8.1a4.013,4.013,0,0,1,4,4V37.894a4.013,4.013,0,0,1-4,4H4.5a4.013,4.013,0,0,1-4-4V18.956a4.013,4.013,0,0,1,4-4h8.1v-.5H4.5a4.505,4.505,0,0,0-4.5,4.5V37.894a4.505,4.505,0,0,0,4.5,4.5h37a4.505,4.505,0,0,0,4.5-4.5V18.956A4.505,4.505,0,0,0,41.5,14.456Z" fill="#464646"/>
      <path id="path48" d="M41.5,15.456a3.5,3.5,0,0,1,3.5,3.5V37.894a3.5,3.5,0,0,1-3.5,3.5H4.5a3.5,3.5,0,0,1-3.5-3.5V18.956a3.5,3.5,0,0,1,3.5-3.5h8.1v-.5H4.5a4.013,4.013,0,0,0-4,4V37.894a4.013,4.013,0,0,0,4,4h37a4.013,4.013,0,0,0,4-4V18.956a4.013,4.013,0,0,0-4-4H33.4v.5Z" fill="#464646"/>
      <path id="path50" d="M32.4,21.571H12.6V20.3h-.518a1.084,1.084,0,0,0,0,2.167H33.917a1.084,1.084,0,0,0,0-2.167H33.4v1.271Z" fill="#fff"/>
      <path id="path52" d="M33.917,19.8a1.584,1.584,0,0,1,0,3.167H12.083a1.584,1.584,0,0,1,0-3.167H12.6v-.5h-.518a2.084,2.084,0,0,0,0,4.167H33.917a2.084,2.084,0,0,0,0-4.167H33.4v.5Z" fill="#464646"/>
      <path id="path54" d="M33.917,20.3a1.084,1.084,0,0,1,0,2.167H12.083a1.084,1.084,0,0,1,0-2.167H12.6v-.5h-.518a1.584,1.584,0,0,0,0,3.167H33.917a1.584,1.584,0,0,0,0-3.167H33.4v.5Z" fill="#464646"/>
    </g>
    <path id="path62" d="M23,37.3H4.625a.5.5,0,0,1,0-1H23a.5.5,0,0,1,0,1Z" fill="#464646"/>
    <g id="g68">
      <circle id="circle64" cx="38.25" cy="36.801" r="3" fill="url(#linear-gradient-3)"/>
      <path id="path66" d="M38.25,40.3a3.5,3.5,0,1,1,3.5-3.5A3.5,3.5,0,0,1,38.25,40.3Zm0-6a2.5,2.5,0,1,0,2.5,2.5A2.5,2.5,0,0,0,38.25,34.3Z" fill="#464646"/>
    </g>
    <g id="g74">
      <circle id="circle70" cx="31.75" cy="36.801" r="1.5" fill="url(#linear-gradient-4)"/>
      <path id="path72" d="M31.75,38.8a2,2,0,1,1,2-2A2,2,0,0,1,31.75,38.8Zm0-3a1,1,0,1,0,1,1A1,1,0,0,0,31.75,35.8Z" fill="#464646"/>
    </g>
  </g>
  <g id="g26">
    <path id="circle22" d="M47.5,36A11.5,11.5,0,0,1,36,47.5h0A11.5,11.5,0,0,1,24.5,36h0a11.5,11.5,0,0,1,23,0Z" fill="url(#linear-gradient-5)"/>
    <path id="path24" d="M36,25A11,11,0,1,1,25,36,11,11,0,0,1,36,25m0-1A12,12,0,1,0,48,36,12,12,0,0,0,36,24Z" fill="#4e4a48"/>
  </g>
  <g id="g32">
    <path id="path28-9" d="M36,27.375a8.625,8.625,0,0,0,0,17.25,8.524,8.524,0,0,0,6.25-2.708v2h.958V40.125H39.417v.958h2.329A7.672,7.672,0,1,1,43.667,36a7.537,7.537,0,0,1-.487,2.788l-.043.111.869.386.046-.127A9.426,9.426,0,0,0,44.625,36,8.636,8.636,0,0,0,36,27.375Z" fill="#fff"/>
    <path id="polygon30" d="M31.625,35.875v.958h5.208V30.208h-.958v5.667Z" fill="#fff"/>
  </g>
</svg>
