<svg id="Layer_1" data-name="Layer 1" xmlns="http://www.w3.org/2000/svg" xmlns:xlink="http://www.w3.org/1999/xlink" viewBox="0 0 48 48">
  <defs>
    <linearGradient id="linear-gradient" x1="-43.306" y1="685.381" x2="-4.302" y2="724.385" gradientTransform="translate(53.184 -825.884) scale(1.205)" gradientUnits="userSpaceOnUse">
      <stop offset="0" stop-color="#fff"/>
      <stop offset="0.228" stop-color="#fafafa"/>
      <stop offset="0.488" stop-color="#ededed"/>
      <stop offset="0.762" stop-color="#d7d6d6"/>
      <stop offset="1" stop-color="#bdbcbc"/>
    </linearGradient>
    <linearGradient id="linear-gradient-2" x1="50.659" y1="760.694" x2="71.919" y2="778.782" gradientTransform="translate(-24.895 -781.294) scale(0.765 1.042)" gradientUnits="userSpaceOnUse">
      <stop offset="0" stop-color="#73b4c8"/>
      <stop offset="0.175" stop-color="#6aaec3"/>
      <stop offset="0.457" stop-color="#529eb5"/>
      <stop offset="0.809" stop-color="#2c839f"/>
      <stop offset="1" stop-color="#147391"/>
    </linearGradient>
    <linearGradient id="linear-gradient-3" x1="17.416" y1="48.632" x2="35.552" y2="27.777" gradientTransform="matrix(1, 0, 0, -1, -0.144, 50.719)" xlink:href="#linear-gradient-2"/>
    <linearGradient id="linear-gradient-4" x1="30.289" y1="49.061" x2="45.302" y2="28.285" gradientTransform="matrix(1, 0, 0, -1, -0.144, 50.719)" xlink:href="#linear-gradient-2"/>
    <linearGradient id="linear-gradient-5" x1="26.808" y1="776.754" x2="29.508" y2="779.45" gradientTransform="translate(0.226 -744)" xlink:href="#linear-gradient-2"/>
    <linearGradient id="linear-gradient-6" x1="34.818" y1="771.552" x2="37.606" y2="774.39" gradientTransform="translate(0.226 -744)" xlink:href="#linear-gradient-2"/>
    <linearGradient id="linear-gradient-7" x1="42.491" y1="776.518" x2="45.247" y2="779.57" gradientTransform="translate(0.226 -744)" xlink:href="#linear-gradient-2"/>
    <linearGradient id="linear-gradient-8" x1="34.039" y1="778.344" x2="38.38" y2="783.241" gradientTransform="translate(0.226 -744)" xlink:href="#linear-gradient-2"/>
    <linearGradient id="linear-gradient-9" x1="29.163" y1="786.208" x2="32.271" y2="789.189" gradientTransform="translate(0.226 -744)" xlink:href="#linear-gradient-2"/>
    <linearGradient id="linear-gradient-10" x1="39.94" y1="786.295" x2="42.769" y2="789.275" gradientTransform="translate(0.226 -744)" xlink:href="#linear-gradient-2"/>
  </defs>
  <g id="g892">
    <path id="rect13" d="M1,0H48V47H1Z" fill="url(#linear-gradient)"/>
    <path id="path868" d="M9.3,2.109H10v-.7H9.3Zm0,2.09H10V3.5H9.3Zm0,2.09H10V5.594H9.3Zm0,2.092H10v-.7H9.3Zm0,2.09H10v-.7H9.3Zm0,2.09H10v-.7H9.3Zm0,2.089H10v-.7H9.3Zm0,2.09H10v-.7H9.3Zm0,2.09H10v-.7H9.3Zm0,4.18H10v-.7H9.3Zm0,2.09H10v-.7H9.3Zm0,2.089H10v-.7H9.3Zm0,2.09H10v-.7H9.3Zm0,4.182H10v-.7H9.3Zm0,2.09H10v-.7H9.3Zm0,4.179H10v-.7H9.3Zm0,2.09H10v-.7H9.3Zm0,2.09H10v-.7H9.3ZM9.3,46H10v-.7H9.3Z" fill="#464646"/>
    <path id="path868-3" d="M19.8,2.109h.7v-.7h-.7Zm0,4.18h.7V5.594h-.7Zm0,2.092h.7v-.7h-.7Zm0,2.09h.7v-.7h-.7Zm0,2.09h.7v-.7h-.7Zm0,2.089h.7v-.7h-.7Zm0,2.09h.7v-.7h-.7Zm0,6.27h.7v-.7h-.7Zm0,6.269h.7v-.7h-.7Zm0,4.182h.7v-.7h-.7Zm0,2.09h.7v-.7h-.7Zm0,2.09h.7v-.7h-.7Zm0,2.089h.7v-.7h-.7Zm0,2.09h.7v-.7h-.7Zm0,2.09h.7v-.7h-.7Zm0,2.09h.7v-.7h-.7Z" fill="#464646"/>
    <path id="path868-3-6" d="M30.3,2.109H31v-.7h-.7Zm0,4.18H31V5.594h-.7Zm0,2.092H31v-.7h-.7Zm0,2.09H31v-.7h-.7Zm0,2.09H31v-.7h-.7Zm0,2.089H31v-.7h-.7Zm0,2.09H31v-.7h-.7Zm0,2.09H31v-.7h-.7Zm0,2.09H31v-.7h-.7Zm0,2.09H31v-.7h-.7Zm0,2.09H31v-.7h-.7Zm0,2.089H31v-.7h-.7Zm0,2.09H31v-.7h-.7Zm0,2.09H31v-.7h-.7Zm0,6.272H31v-.7h-.7Zm0,2.089H31v-.7h-.7Zm0,4.18H31v-.7h-.7Z" fill="#464646"/>
    <path id="path868-3-6-1" d="M40.7,2.109h.7v-.7h-.7Zm0,2.09h.7V3.5h-.7Zm0,2.09h.7V5.594h-.7Zm0,2.092h.7v-.7h-.7Zm0,2.09h.7v-.7h-.7Zm0,2.09h.7v-.7h-.7Zm0,1.5v.591h.7v-.7h-.7Zm0,8.951h.7v-.7h-.7Zm0,2.09h.7v-.7h-.7Zm0,2.089h.7v-.7h-.7Zm0,2.09h.7v-.7h-.7Zm0,2.09h.7v-.7h-.7Zm0,2.092h.7v-.7h-.7Zm0,2.09h.7v-.7h-.7Zm0,2.09h.7v-.7h-.7Zm0,2.089h.7v-.7h-.7Zm0,4.18h.7v-.7h-.7Z" fill="#464646"/>
    <path id="path868-2" d="M2,38.8h.7v-.7H2Zm4.18,0h.7v-.7h-.7Zm4.179,0h.7v-.7h-.7Zm2.09,0h.7v-.7h-.7Zm2.09,0h.7v-.7h-.7Zm2.092,0h.7v-.7h-.7Zm2.09,0h.7v-.7h-.7Zm2.09,0h.7v-.7h-.7Zm2.089,0h.7v-.7h-.7Zm2.09,0h.7v-.7h-.7Zm2.09,0h.7v-.7h-.7Zm2.09,0h.7v-.7h-.7Zm6.269,0h.7v-.7h-.7Zm2.09,0h.7v-.7h-.7Zm4.182,0h.7v-.7h-.7Zm2.09,0h.7v-.7h-.7Zm2.09,0h.7v-.7h-.7Z" fill="#464646"/>
    <path id="path868-3-0" d="M2,28.2h.7v-.7H2Zm2.09,0h.7v-.7h-.7Zm2.09,0h.7v-.7h-.7Zm2.09,0h.7v-.7h-.7Zm2.089,0h.7v-.7h-.7Zm2.09,0h.7v-.7h-.7Zm2.09,0h.7v-.7h-.7Zm2.092,0h.7v-.7h-.7Zm4.18,0h.7v-.7h-.7Zm6.269,0h.7v-.7h-.7Zm2.09,0h.7v-.7h-.7Zm2.09,0h.7v-.7h-.7Zm2.09,0h.7v-.7h-.7Zm2.089,0h.7v-.7h-.7Zm4.18,0h.7v-.7h-.7Zm2.092,0h.7v-.7h-.7Zm2.09,0h.7v-.7h-.7Zm2.09,0h.7v-.7h-.7Z" fill="#464646"/>
    <path id="path868-3-6-7" d="M2,17.9h.7v-.7H2Zm2.09,0h.7v-.7h-.7Zm2.09,0h.7v-.7h-.7Zm2.09,0h.7v-.7h-.7Zm2.089,0h.7v-.7h-.7Zm2.09,0h.7v-.7h-.7Zm2.09,0h.7v-.7h-.7Zm2.092,0h.7v-.7h-.7Zm10.449,0h.7v-.7h-.7Zm2.09,0h.7v-.7h-.7Zm2.09,0h.7v-.7h-.7Zm2.09,0h.7v-.7h-.7Zm2.089,0h.7v-.7h-.7Zm2.09,0h.7v-.7h-.7Zm2.09,0h.7v-.7h-.7Zm2.092,0h.7v-.7h-.7Zm2.09,0h.7v-.7h-.7Zm2.09,0h.7v-.7h-.7Z" fill="#464646"/>
    <path id="path868-3-6-1-7" d="M2,7.3h.7v-.7H2Zm2.09,0h.7v-.7h-.7Zm2.09,0h.7v-.7h-.7Zm2.09,0h.7v-.7h-.7Zm2.089,0h.7v-.7h-.7Zm2.09,0h.7v-.7h-.7Zm2.09,0h.7v-.7h-.7Zm2.092,0h.7v-.7h-.7Zm6.269,0h.7v-.7h-.7Zm6.27,0h.7v-.7h-.7Zm2.09,0h.7v-.7h-.7Zm4.179,0h.7v-.7h-.7Zm2.09,0h.7v-.7h-.7Zm4.182,0h.7v-.7h-.7Zm2.09,0h.7v-.7h-.7Zm2.09,0h.7v-.7h-.7Z" fill="#464646"/>
    <path id="path909" d="M20.066,20.156H16.111l-3.737-6.819-.756,1.247v5.572H8.393V3.119h3.225V10.83l4.468-7.711h3.737L14.935,11Z" stroke="#464646" stroke-width="0.769" fill="url(#linear-gradient-2)"/>
    <path id="path911" d="M31.982,8.5a8.614,8.614,0,0,1-.294,2.242,5.482,5.482,0,0,1-.839,1.831,5.348,5.348,0,0,1-1.672,1.521,4.6,4.6,0,0,1-2.284.515H24.886v5.549H21.662V3.119h5.307a6.123,6.123,0,0,1,2.007.286,4.125,4.125,0,0,1,1.453.835,4.284,4.284,0,0,1,1.15,1.728A7.073,7.073,0,0,1,31.982,8.5Zm-3.334.1a2.515,2.515,0,0,0-.285-1.235A1.748,1.748,0,0,0,27.7,6.63a2.269,2.269,0,0,0-.982-.3Q26.239,6.3,25.441,6.3h-.555v5.1h.924a5.534,5.534,0,0,0,1.352-.137,1.75,1.75,0,0,0,.9-.549,2.191,2.191,0,0,0,.445-.87A4.7,4.7,0,0,0,28.648,8.6Z" stroke="#464646" stroke-width="0.769" fill="url(#linear-gradient-3)"/>
    <path id="path913" d="M41.018,20.156H33.7v-3.02h2.049V6.141H33.7V3.119h7.323v3.02H38.969v11h2.049Z" stroke="#464646" stroke-width="0.769" fill="url(#linear-gradient-4)"/>
    <path id="rect844" d="M.173,0H.827A.172.172,0,0,1,1,.173V47.827A.172.172,0,0,1,.827,48H.173A.172.172,0,0,1,0,47.827V.173A.172.172,0,0,1,.173,0Z" fill="#3e90aa"/>
    <path id="rect844-1" d="M48,47.173v.654a.172.172,0,0,1-.173.173H.173A.172.172,0,0,1,0,47.827v-.654A.172.172,0,0,1,.173,47H47.827A.172.172,0,0,1,48,47.173Z" fill="#3e90aa"/>
    <g id="g2594">
      <path id="polyline62-3-2-6-7-2-0" d="M3.205,44.39l7.854-13.273,5.687,2.275,8.208-9.619" fill="none" stroke="#464646" stroke-width="2.8"/>
      <path id="path911-5-9-4-2-4-9" d="M26.906,21.261l-.423,3.388-.518,3.379-2.9-1.928-2.84-2,3.322-1.459Z" fill="#464646" stroke="#464646" stroke-linecap="round" stroke-width="0.019"/>
      <path id="path911-5-9-45-3-1" d="M26.3,22.076l-.318,2.518-.389,2.511-2.178-1.433-2.134-1.488,2.5-1.084Z" fill="#3e90aa"/>
      <path id="polyline62-3-2-7-8-8" d="M3.479,43.886l7.58-12.769,5.687,2.275,7.976-9.26" fill="none" stroke="#3e90aa" stroke-width="1.6"/>
    </g>
    <path id="path1140" d="M27.855,35.374a1.369,1.369,0,0,1,.159-2.543,1.276,1.276,0,0,1,1.366.352,1.341,1.341,0,0,1,.034,1.9,1.385,1.385,0,0,1-.253.2,1.626,1.626,0,0,1-1.306.094Z" fill="url(#linear-gradient-5)"/>
    <path id="path1142" d="M35.878,30.157a1.473,1.473,0,0,1-.909-1.5,1.311,1.311,0,0,1,1.257-1.129,1.2,1.2,0,0,1,1.119.451,1.367,1.367,0,0,1-1.467,2.178Z" fill="url(#linear-gradient-6)"/>
    <path id="path1144" d="M43.541,35.35a1.5,1.5,0,0,1-.7-1.017,1.409,1.409,0,0,1,1.408-1.547,1.635,1.635,0,0,1,1.077.614,1.54,1.54,0,0,1,.114,1.317,1.375,1.375,0,0,1-1.824.671Z" fill="url(#linear-gradient-7)"/>
    <path id="path1146" d="M35.832,39a2.462,2.462,0,0,1-1.58-1.323,2.548,2.548,0,0,1-.026-1.847A2.328,2.328,0,1,1,35.832,39Z" fill="url(#linear-gradient-8)"/>
    <path id="path1148" d="M30.426,45.054a1.4,1.4,0,0,1-.786-1.275A1.356,1.356,0,0,1,30.5,42.49a1.4,1.4,0,0,1,1.929,1.451,1.342,1.342,0,0,1-.653,1.03,1.07,1.07,0,0,1-.725.194A1.6,1.6,0,0,1,30.426,45.054Z" fill="url(#linear-gradient-9)"/>
    <path id="path1150" d="M40.969,45.054a1.4,1.4,0,0,1-.786-1.275,1.417,1.417,0,0,1,1.9-1.311,1.4,1.4,0,0,1,.26,2.478,1.008,1.008,0,0,1-.749.219A1.608,1.608,0,0,1,40.969,45.054Z" fill="url(#linear-gradient-10)"/>
    <path id="path2" d="M44.2,31.94a2.186,2.186,0,0,0-2.186,2.186,1.776,1.776,0,0,0,.024.23l-3,1a3.049,3.049,0,0,0-2.273-1.622v-2.71a2.185,2.185,0,1,0-.874,0v2.71a3.051,3.051,0,0,0-2.273,1.622l-3-1a1.986,1.986,0,0,0,.023-.231,2.208,2.208,0,1,0-.315,1.114l2.99,1a2.95,2.95,0,0,0,.822,2.649l-2.154,2.874a2.224,2.224,0,1,0,.742.563l2.164-2.885a2.94,2.94,0,0,0,2.868,0l2.17,2.882a2.163,2.163,0,0,0-.539,1.421,2.2,2.2,0,1,0,1.28-1.984l-2.154-2.874a3.048,3.048,0,0,0,.874-2.136,3.151,3.151,0,0,0-.051-.513l2.99-1a2.186,2.186,0,1,0,1.87-3.3Zm-15.737,3.5a1.312,1.312,0,1,1,1.311-1.313v0a1.311,1.311,0,0,1-1.311,1.311Zm6.557-6.557a1.312,1.312,0,1,1,1.316,1.308h-.008a1.311,1.311,0,0,1-1.308-1.311ZM31.084,45.054A1.312,1.312,0,1,1,32.4,43.741v0h0a1.311,1.311,0,0,1-1.311,1.311Zm11.8-1.311a1.311,1.311,0,1,1-1.311-1.312,1.311,1.311,0,0,1,1.311,1.312Zm-6.558-4.809a2.186,2.186,0,1,1,2.186-2.186h0A2.186,2.186,0,0,1,36.326,38.934Zm7.869-3.5a1.312,1.312,0,1,1,1.311-1.313v0A1.311,1.311,0,0,1,44.2,35.434Z" fill="#464646"/>
  </g>
</svg>
