<svg id="Image" xmlns="http://www.w3.org/2000/svg" xmlns:xlink="http://www.w3.org/1999/xlink" viewBox="0 0 48 48">
  <defs>
    <linearGradient id="linear-gradient" x1="4.437" y1="744" x2="48.437" y2="788" gradientTransform="translate(0 -742)" gradientUnits="userSpaceOnUse">
      <stop offset="0" stop-color="#fff"/>
      <stop offset="1" stop-color="#dcdcdc"/>
    </linearGradient>
    <linearGradient id="linear-gradient-2" x1="214.682" y1="-988.711" x2="242.672" y2="-1016.701" gradientTransform="matrix(0.718, 0, 0, -0.718, -138.561, -690.175)" gradientUnits="userSpaceOnUse">
      <stop offset="0" stop-color="#73b4c8"/>
      <stop offset="0.175" stop-color="#6aaec3"/>
      <stop offset="0.457" stop-color="#529eb5"/>
      <stop offset="0.809" stop-color="#2c839f"/>
      <stop offset="1" stop-color="#147391"/>
    </linearGradient>
    <linearGradient id="linear-gradient-3" x1="-252.065" y1="-1153.919" x2="-246.889" y2="-1171.45" gradientTransform="matrix(0.671, -0.357, -0.345, -0.699, -197.007, -873.351)" xlink:href="#linear-gradient-2"/>
  </defs>
  <g id="g951">
    <path id="rect16" d="M5.437,1h42V47h-42Z" fill="url(#linear-gradient)"/>
    <path id="path18" d="M5.438,1V11.062H1.5a.5.5,0,0,0,0,1H5.438v24H1.5a.5.5,0,0,0,0,1H5.438V47h42V1Zm41,45h-40V37.062h4.874a.5.5,0,0,0,0-1H6.438v-24h4.874a.5.5,0,0,0,0-1H6.438V2h40Z" fill="#464646"/>
    <g id="g937">
      <path id="rect969-0" d="M28.166,27.8V26.368H42.518V27.8Z" fill="#969696"/>
      <path id="rect969" d="M34.622,18.472h1.435V35.7H34.622Z" fill="#969696"/>
      <path id="path4" d="M24.357,10.7a5.788,5.788,0,0,0-6.018,5.215l-.312,2.911H16.033v4.307h1.338l-1.082,6.842c-.306,2.032-.909,3.06-1.794,3.06a1.963,1.963,0,0,1-.977-.224l-1.076-.621v4.584l.549.152.1.024.642.156a3.915,3.915,0,0,0,.933.116,5.463,5.463,0,0,0,4.221-1.859,9.133,9.133,0,0,0,2.06-4.892L22.1,23.138h2.548V18.831H22.75l.3-2.523a1.742,1.742,0,0,1,.517-1.068,1.4,1.4,0,0,1,.971-.349,2.74,2.74,0,0,1,.808.128,3.818,3.818,0,0,1,.447.167l1.01.451V11.124l-.511-.154a6.655,6.655,0,0,0-1.933-.267Z" fill="#464646"/>
      <path id="path17" d="M26.08,11.654a5.905,5.905,0,0,0-1.723-.232,5.074,5.074,0,0,0-5.3,4.595l-.381,3.533H16.749v2.871h1.46L17,30.088q-.555,3.664-2.5,3.665a2.63,2.63,0,0,1-1.337-.32v2.8q.363.086.749.182a3.269,3.269,0,0,0,.763.1,4.761,4.761,0,0,0,3.689-1.621,8.41,8.41,0,0,0,1.884-4.516l1.239-7.947h2.44V19.55H21.943l.388-3.33a2.468,2.468,0,0,1,.757-1.526,2.107,2.107,0,0,1,1.44-.528,3.52,3.52,0,0,1,1.018.16,4.525,4.525,0,0,1,.529.194Z" fill="url(#linear-gradient-2)"/>
      <path id="path841" d="M31.6,38.212H29.1a17.855,17.855,0,0,1-3-4.968,16.355,16.355,0,0,1-1.068-6.069A16.352,16.352,0,0,1,26.1,21.108a17.841,17.841,0,0,1,3-4.97h2.5v.112a14.148,14.148,0,0,0-1.688,1.9,15.09,15.09,0,0,0-1.483,2.491,16.209,16.209,0,0,0-1.068,3.038,15.637,15.637,0,0,0-.011,7.01,16.66,16.66,0,0,0,1.078,3.028A14.795,14.795,0,0,0,31.605,38.1Z" fill="#464646"/>
      <path id="path863" d="M28.879,37.21a15.91,15.91,0,0,1-3.087-6.794,17.556,17.556,0,0,1,.7-8.986,18.6,18.6,0,0,1,2.369-4.322l.38-.5h.939c.636,0,.274.018.274.04a5.121,5.121,0,0,1-.6.766,14.152,14.152,0,0,0-3.188,7.273,19.03,19.03,0,0,0-.132,4.083A14.236,14.236,0,0,0,27.8,33.507a12.945,12.945,0,0,0,2.218,3.585l.654.665H29.29Z" fill="#5ba4ba"/>
      <path id="path838" d="M38.874,38.212h2.5a17.8,17.8,0,0,0,3-4.968,16.337,16.337,0,0,0,1.071-6.069,16.332,16.332,0,0,0-1.068-6.067,17.79,17.79,0,0,0-3-4.968h-2.5v.111a14.224,14.224,0,0,1,1.691,1.9,15.214,15.214,0,0,1,1.48,2.491,16.426,16.426,0,0,1,1.068,3.038,15.637,15.637,0,0,1,.01,7.01,16.729,16.729,0,0,1-1.076,3.028,14.218,14.218,0,0,1-1.5,2.488,13.81,13.81,0,0,1-1.68,1.9Z" fill="#464646"/>
      <path id="path863-1" d="M41.6,37.21a15.92,15.92,0,0,0,3.086-6.794,17.545,17.545,0,0,0-.7-8.986,18.563,18.563,0,0,0-2.369-4.322l-.379-.5H40.3c-.636,0-.274.018-.274.04a5.193,5.193,0,0,0,.6.766,14.143,14.143,0,0,1,3.187,7.273,19.088,19.088,0,0,1,.141,4.082,14.219,14.219,0,0,1-1.273,4.733,12.949,12.949,0,0,1-2.219,3.585l-.653.665h1.38Z" fill="#5ba4ba"/>
      <path id="path967-7-8" d="M40.686,30.46l-5.352,3.2-5.347-3.23L29.992,24l5.352-3.2,5.342,3.223Z" stroke="#464646" stroke-linecap="round" stroke-width="0.78" fill="url(#linear-gradient-3)"/>
    </g>
  </g>
</svg>
