<svg id="Layer_1" data-name="Layer 1" xmlns="http://www.w3.org/2000/svg" xmlns:xlink="http://www.w3.org/1999/xlink" viewBox="0 0 48 48">
  <defs>
    <linearGradient id="linear-gradient" x1="13.717" y1="743.238" x2="20.089" y2="753.461" gradientTransform="translate(3.526 -804.412) scale(1.094 1.087)" gradientUnits="userSpaceOnUse">
      <stop offset="0" stop-color="#74b3c7"/>
      <stop offset="0.177" stop-color="#6badc2"/>
      <stop offset="0.464" stop-color="#539db4"/>
      <stop offset="0.822" stop-color="#2d839d"/>
      <stop offset="1" stop-color="#177490"/>
    </linearGradient>
    <linearGradient id="linear-gradient-2" x1="-13.432" y1="103.073" x2="-7.467" y2="113.666" gradientTransform="matrix(1.186, 0, 0, -1.178, 54.914, 113.454)" xlink:href="#linear-gradient"/>
    <linearGradient id="linear-gradient-3" x1="-28.21" y1="101.099" x2="-20.881" y2="114.963" gradientTransform="matrix(1.186, 0, 0, -1.178, 54.914, 113.454)" xlink:href="#linear-gradient"/>
    <linearGradient id="linear-gradient-4" x1="-0.9" y1="101.994" x2="6.836" y2="115.452" gradientTransform="matrix(1.186, 0, 0, -1.178, 54.914, 113.454)" xlink:href="#linear-gradient"/>
    <linearGradient id="linear-gradient-5" x1="-2.785" y1="108.736" x2="3.333" y2="119.007" gradientTransform="matrix(1.186, 0, 0, -1.178, 54.914, 113.454)" xlink:href="#linear-gradient"/>
    <linearGradient id="linear-gradient-6" x1="26.094" y1="23.958" x2="38.217" y2="12.069" gradientTransform="matrix(1, 0, 0, -1, -0.069, 50.113)" gradientUnits="userSpaceOnUse">
      <stop offset="0" stop-color="#fff"/>
      <stop offset="0.221" stop-color="#f8f8f8"/>
      <stop offset="0.541" stop-color="#e5e5e5"/>
      <stop offset="0.92" stop-color="#c6c6c6"/>
      <stop offset="1" stop-color="#bebebe"/>
    </linearGradient>
    <linearGradient id="linear-gradient-7" x1="32.484" y1="17.433" x2="40.437" y2="9.745" gradientTransform="matrix(1, 0, 0, -1, 0, 49.994)" xlink:href="#linear-gradient-6"/>
  </defs>
  <g id="g891">
    <path id="line53" d="M9.165,22h9.627" fill="none" stroke="#464646" stroke-miterlimit="10" stroke-width="1.599"/>
    <path id="line55" d="M23.606,22h9.627" fill="none" stroke="#464646" stroke-miterlimit="10" stroke-width="1.599"/>
    <path id="polyline59" d="M18.792,9.249H14.781V34.756h4.011" fill="none" stroke="#464646" stroke-miterlimit="13.533" stroke-width="1.599"/>
    <path id="rect43" d="M19.6,4.466h4.812v9.566H19.6Z" stroke="#147391" stroke-miterlimit="10" stroke-width="1.599" fill="url(#linear-gradient)"/>
    <path id="rect45" d="M19.6,17.22h4.812v9.569H19.6Z" stroke="#147391" stroke-miterlimit="10" stroke-width="1.599" fill="url(#linear-gradient-2)"/>
    <path id="rect47" d="M3.55,15.626H9.967V28.379H3.55Z" stroke="#147391" stroke-miterlimit="10" stroke-width="1.599" fill="url(#linear-gradient-3)"/>
    <path id="rect49" d="M34.035,15.626H40.45V28.379H34.035Z" stroke="#147391" stroke-miterlimit="10" stroke-width="1.599" fill="url(#linear-gradient-4)"/>
    <path id="rect51" d="M19.6,29.969h4.812v9.565H19.6Z" stroke="#147391" stroke-miterlimit="10" stroke-width="1.599" fill="url(#linear-gradient-5)"/>
    <path id="polyline57" d="M25.21,9.249h4.011V34.756H25.21" fill="none" stroke="#464646" stroke-miterlimit="13.533" stroke-width="1.599"/>
    <path id="path50-7" d="M43.324,37.994,47.5,36.513V33.394l-4.176-1.482a.5.5,0,0,1-.314-.634.549.549,0,0,1,.021-.051l1.9-4-2.208-2.208-3.995,1.9a.5.5,0,0,1-.668-.232.393.393,0,0,1-.018-.043L36.56,22.494H33.44l-1.482,4.155a.507.507,0,0,1-.656.285l-.03-.013-4-1.9-2.207,2.207,1.9,4a.5.5,0,0,1-.24.665.455.455,0,0,1-.051.021L22.5,33.394v3.12l4.176,1.48a.5.5,0,0,1,.314.634c-.006.017-.013.035-.021.052l-1.9,4,2.207,2.208,4-1.894a.5.5,0,0,1,.663.246.392.392,0,0,1,.023.06l1.482,4.2H36.56l1.482-4.2a.49.49,0,0,1,.686-.314l4,1.9,2.207-2.207-1.9-4a.5.5,0,0,1,.24-.665A.419.419,0,0,1,43.324,37.994Z" stroke="#464646" stroke-linejoin="round" fill="url(#linear-gradient-6)"/>
    <path id="circle52-9" d="M38.5,34.994a3.5,3.5,0,1,1-3.5-3.5A3.5,3.5,0,0,1,38.5,34.994Z" stroke="#464646" stroke-miterlimit="10" fill="url(#linear-gradient-7)"/>
  </g>
</svg>
