<svg id="Layer_1" data-name="Layer 1" xmlns="http://www.w3.org/2000/svg" xmlns:xlink="http://www.w3.org/1999/xlink" viewBox="0 0 48 48">
  <defs>
    <linearGradient id="linear-gradient" x1="-64.346" y1="107.115" x2="-45.346" y2="88.115" gradientTransform="matrix(1.3, 0, 0, -1.3, 95.3, 150.9)" gradientUnits="userSpaceOnUse">
      <stop offset="0" stop-color="#73b4c8"/>
      <stop offset="0.175" stop-color="#6aaec3"/>
      <stop offset="0.457" stop-color="#529eb5"/>
      <stop offset="0.809" stop-color="#2c839f"/>
      <stop offset="1" stop-color="#147391"/>
    </linearGradient>
    <linearGradient id="linear-gradient-2" x1="-460.921" y1="72.068" x2="-475.067" y2="57.585" gradientTransform="translate(-502.199 108.674) rotate(180) scale(1.147)" gradientUnits="userSpaceOnUse">
      <stop offset="0" stop-color="#fff"/>
      <stop offset="0.221" stop-color="#f8f8f8"/>
      <stop offset="0.541" stop-color="#e5e5e5"/>
      <stop offset="0.92" stop-color="#c6c6c6"/>
      <stop offset="1" stop-color="#bebebe"/>
    </linearGradient>
  </defs>
  <g id="g853">
    <path id="rect874" d="M23,0h2V48H23Z" fill="#969696"/>
    <path id="rect874-9" d="M48,23v2H0V23Z" fill="#969696"/>
    <path d="M11.65,11.65h24.7v24.7H11.65Z" stroke="#464646" stroke-miterlimit="10" stroke-width="1.3" fill="url(#linear-gradient)"/>
    <path id="path933" d="M41.225,43.4c1.745-1.8,3.785-3.711,4.357-4.3l1.255-1.25-5.98-6.493-6.2-6.023-3.82-.216-3.509.179L26.3,25.97l-.729.915.165,3.7-.033,3.9,5.9,6.142c3.187,3.318,5.926,5.93,6.02,6.029l.391.216ZM29.082,30.59a1.537,1.537,0,0,1-.543-2.727,1.437,1.437,0,0,1,2.466,1.087,1.467,1.467,0,0,1-.68,1.359C29.794,30.777,29.737,30.786,29.082,30.59Z" stroke="#464646" stroke-linecap="round" stroke-width="0.082" fill="url(#linear-gradient-2)"/>
    <path id="path8" d="M38.019,48.035l9.87-10.155-13-13.376H26.974l-1.958,2.018v8.14ZM46.5,37.88,38.019,46.6,26,34.239v-7.3l1.378-1.417h7.1Z" fill="#464646"/>
    <path id="rect2" d="M42.7,38.283l-6.9-7.1-.7.717L42,39Z" fill="#464646"/>
    <path id="rect4" d="M40.737,40.314l-5.928-6.092-.7.718,5.928,6.092Z" fill="#464646"/>
    <path id="rect6" d="M38.757,42.337l-6.9-7.1-.7.717,6.9,7.1Z" fill="#464646"/>
    <path id="path1050" d="M29.487,18.783A1.817,1.817,0,1,0,31.3,20.6v0A1.817,1.817,0,0,0,29.487,18.783Zm0,1a.8.8,0,0,1,.8.8h0a.8.8,0,0,1-.8.8h0a.8.8,0,0,1-.8-.8h0A.8.8,0,0,1,29.487,19.783Z" fill="#464646"/>
    <path id="path1050-2" d="M29.514,27.281A1.817,1.817,0,1,0,31.33,29.1a1.817,1.817,0,0,0-1.816-1.819Zm0,1a.8.8,0,0,1,.8.8h0a.8.8,0,0,1-.8.8h0a.8.8,0,0,1-.8-.8h0A.8.8,0,0,1,29.514,28.281Z" fill="#464646"/>
    <path id="path914" d="M29.389,20.66c-1.909,4.854.011,8.209.021,8.228" fill="none" stroke="#6e6e6e" stroke-linecap="round" stroke-width="1.15"/>
  </g>
</svg>
