<svg id="Image" xmlns="http://www.w3.org/2000/svg" xmlns:xlink="http://www.w3.org/1999/xlink" viewBox="0 0 48 48">
  <defs>
    <linearGradient id="linear-gradient" x1="0.024" y1="747.228" x2="40.274" y2="787.478" gradientTransform="translate(0 -744)" gradientUnits="userSpaceOnUse">
      <stop offset="0" stop-color="#afd7e1"/>
      <stop offset="1" stop-color="#73b4c8"/>
    </linearGradient>
    <linearGradient id="linear-gradient-2" x1="13.593" y1="753.913" x2="27.264" y2="767.583" gradientTransform="translate(0 -744)" gradientUnits="userSpaceOnUse">
      <stop offset="0" stop-color="#73b4c8"/>
      <stop offset="1" stop-color="#177491"/>
    </linearGradient>
    <linearGradient id="linear-gradient-3" x1="20" y1="18.213" x2="47.517" y2="2.491" gradientTransform="matrix(1, 0, 0, -1, -0.14, 50.206)" gradientUnits="userSpaceOnUse">
      <stop offset="0" stop-color="#73b4c8"/>
      <stop offset="0.175" stop-color="#6aaec3"/>
      <stop offset="0.457" stop-color="#529eb5"/>
      <stop offset="0.809" stop-color="#2c839f"/>
      <stop offset="1" stop-color="#147391"/>
    </linearGradient>
  </defs>
  <g id="g873">
    <g id="g28">
      <g id="g18">
        <g id="g895">
          <path id="path14" d="M37.5,44l.091-25.908v-.136H45.5a66.81,66.81,0,0,1-5.727-7.772C37.682,6.7,37.594,1.329,37.592.593V.5H.5V44h37" fill="url(#linear-gradient)"/>
        </g>
        <path id="path16" d="M37.5,44.5H.5A.5.5,0,0,1,0,44V.524A.5.5,0,0,1,.239.072.493.493,0,0,1,.55,0H37.59a.5.5,0,0,1,.5.5c0,.688.074,6.032,2.11,9.424a66.539,66.539,0,0,0,5.676,7.7.5.5,0,0,1-.378.827H38.092L38,44A.5.5,0,0,1,37.5,44.5ZM1,43.5H37l.09-25.544a.5.5,0,0,1,.5-.5h6.837a63.6,63.6,0,0,1-5.084-7.015C37.422,7.235,37.138,2.616,37.1,1H1Z" fill="#464646"/>
      </g>
      <path id="path20" d="M18.91,18.458A16.524,16.524,0,0,1,4.56,9.391C.7,1.948.153.905.076.762L.057.726A.5.5,0,0,1,.268.051H.274C.56-.1.662-.152.934.284L.951.276a.4.4,0,0,1,.036.1c.144.243.332.605.608,1.134.592,1.137,1.718,3.3,3.853,7.422a15.451,15.451,0,0,0,13.577,8.525H37.593a.5.5,0,0,1,0,1H18.91Z" fill="#464646"/>
      <g id="g26">
        <path id="path22" d="M30.638,17.959c-3.068-.611-9-6.753-9-6.753L7.969,13.287s4.949,4.632,10.157,4.672S30.638,17.959,30.638,17.959Z" fill="url(#linear-gradient-2)"/>
        <path id="path24" d="M23.671,18.476c-1.856,0-3.822,0-5.549-.018-5.342-.04-10.287-4.61-10.495-4.81a.5.5,0,0,1,.267-.86l13.669-2.08a.5.5,0,0,1,.435.147c.059.06,5.858,6.035,8.738,6.609a.5.5,0,0,1-.094.99C30.593,18.459,27.352,18.476,23.671,18.476ZM9.133,13.615c1.59,1.264,5.258,3.816,9,3.843,3.343.026,7.59.019,10.174.01a42.809,42.809,0,0,1-6.843-5.729Z" fill="#464646"/>
      </g>
    </g>
    <g id="g42">
      <path id="rect36-2" d="M3.876,29.456h24a1,1,0,0,1,1,1v1a1,1,0,0,1-1,1h-24a1,1,0,0,1-1-1v-1A1,1,0,0,1,3.876,29.456Z" fill="#fff"/>
      <path id="rect38-4" d="M3.876,23.248H34a1,1,0,0,1,1,1v1a1,1,0,0,1-1,1H3.876a1,1,0,0,1-1-1v-1A1,1,0,0,1,3.876,23.248Z" fill="#fff"/>
      <path id="rect40-4" d="M3.876,35.665h16.5a1,1,0,0,1,1,1v1a1,1,0,0,1-1,1H3.876a1,1,0,0,1-1-1v-1A1,1,0,0,1,3.876,35.665Z" fill="#fff"/>
    </g>
    <g id="g34">
      <path id="rect30" d="M8.209,7h27.25a1,1,0,0,1,1,1V9a1,1,0,0,1-1,1H8.209a1,1,0,0,1-1-1V8A1,1,0,0,1,8.209,7Z" fill="#fff"/>
      <path id="path32" d="M31.434,12.654H25.871a16.6,16.6,0,0,0,1.569,1.678,12.308,12.308,0,0,0,1.719,1.322h2.275a1,1,0,0,0,1-1v-1A1,1,0,0,0,31.434,12.654Z" fill="#fff"/>
    </g>
    <path id="rect45" d="M18.5,31.5h29v16h-29Z" stroke="#464646" stroke-miterlimit="10" fill="url(#linear-gradient-3)"/>
    <g id="text870-9">
      <g id="text903">
        <path id="path839" d="M26.421,45.155H19.9v-11.2h6.267v2.051H22.352V38.5h3.554v2.048H22.352v2.56h4.069Z" fill="#fff"/>
        <path id="path841" d="M37.3,45.155H34.485L32.8,42.272c-.126-.218-.248-.414-.364-.586a2.929,2.929,0,0,0-.356-.437,1.243,1.243,0,0,0-.371-.281.864.864,0,0,0-.417-.1h-.66v4.289H28.18v-11.2h3.88q3.956,0,3.956,3.047a3.235,3.235,0,0,1-.175,1.086,3.042,3.042,0,0,1-.492.89,3.132,3.132,0,0,1-.773.688,3.839,3.839,0,0,1-1,.453v.031a1.489,1.489,0,0,1,.47.258,3.19,3.19,0,0,1,.44.406,5.284,5.284,0,0,1,.4.508,6.317,6.317,0,0,1,.356.524Zm-6.67-9.312V38.96h1.061a1.726,1.726,0,0,0,1.266-.469,1.591,1.591,0,0,0,.485-1.18q0-1.468-1.7-1.468Z" fill="#fff"/>
        <path id="path843" d="M40.752,41.3v3.859H38.3v-11.2h3.835q4.107,0,4.108,3.57a3.479,3.479,0,0,1-1.187,2.732A4.579,4.579,0,0,1,41.915,41.3Zm0-5.406v3.492h.963q1.954,0,1.955-1.766,0-1.726-1.955-1.726Z" fill="#fff"/>
      </g>
    </g>
  </g>
</svg>
