<svg id="Livello_3" data-name="Livello 3" xmlns="http://www.w3.org/2000/svg" xmlns:xlink="http://www.w3.org/1999/xlink" viewBox="0 0 48 48">
  <defs>
    <linearGradient id="linear-gradient" x1="171.13" y1="-7.413" x2="192.509" y2="-7.413" gradientTransform="matrix(1, 0, 0.347, -0.938, -146.345, 21.351)" gradientUnits="userSpaceOnUse">
      <stop offset="0" stop-color="#74b5c8"/>
      <stop offset="0.175" stop-color="#6baec3"/>
      <stop offset="0.457" stop-color="#539eb5"/>
      <stop offset="0.809" stop-color="#2f849f"/>
      <stop offset="1" stop-color="#187491"/>
    </linearGradient>
    <linearGradient id="linear-gradient-2" x1="141.582" y1="928.123" x2="150.583" y2="928.123" gradientTransform="translate(-184.421 -1252.755) scale(1.33 1.363)" xlink:href="#linear-gradient"/>
    <linearGradient id="linear-gradient-3" x1="16.977" y1="10" x2="47.023" y2="10" gradientTransform="matrix(1, 0, 0, -1, 0, 46.977)" gradientUnits="userSpaceOnUse">
      <stop offset="0" stop-color="#fff"/>
      <stop offset="0.221" stop-color="#f7f8f8"/>
      <stop offset="0.541" stop-color="#e5e5e5"/>
      <stop offset="0.92" stop-color="#c7c6c6"/>
      <stop offset="1" stop-color="#bfbebe"/>
    </linearGradient>
    <linearGradient id="linear-gradient-4" x1="19.667" y1="9.631" x2="44.252" y2="9.631" gradientTransform="matrix(1, 0, 0, -1, 0, 46.977)" xlink:href="#linear-gradient"/>
  </defs>
  <g id="g880">
    <path id="rect968" d="M42.426,28.51h1.223v2.014H42.426Z" fill="#2a819c"/>
    <path id="rect862" d="M43.372,26.236h.862v5.68h-.862Z" fill="#464646"/>
    <path id="rect860" d="M25.22,25.565H42.609a.972.972,0,0,1,.977,1.4L42.6,29.635a2.3,2.3,0,0,1-2.018,1.4H23.192a.971.971,0,0,1-.977-1.4L23.2,26.97A2.3,2.3,0,0,1,25.22,25.565Z" stroke="#464646" stroke-width="0.994" fill="url(#linear-gradient)"/>
    <path id="path1610" d="M9.782,17.619c.062,3.531.122,7.063,1.3,8.9s3.456,1.989,5.457-.8,3.74-8.566,5.217-12.407,2.7-5.774,4.088-6.561,2.942-.43,4.075,1.487a19.786,19.786,0,0,1,1.872,4.341A78.242,78.242,0,0,1,34.422,25.4" fill="none" stroke="#474747"/>
    <path id="path1614" d="M6.278,2.766a.543.543,0,0,0-.5.58v4.34a.7.7,0,0,0,.014.08H2.246a.462.462,0,0,0-.462.463V8.3a.462.462,0,0,0,.462.463h.572l0,0v4.819h.008c.919,2.491,3.759,4.159,6.983,4.159s6.08-1.662,6.992-4.159V8.766h.5a.463.463,0,0,0,.463-.463V8.229a.463.463,0,0,0-.463-.463H13.755a.535.535,0,0,0,.014-.08V3.346a.5.5,0,1,0-1,0v4.34a.535.535,0,0,0,.014.08H6.765a.7.7,0,0,0,.014-.08V3.346A.543.543,0,0,0,6.278,2.766Z" fill="#474747" stroke="#6f6f6f" stroke-width="0.019"/>
    <path id="path1614-9" d="M3.838,8.737l-.02,4.776c.806,2.255,3.254,3.232,5.993,3.233S15,15.782,15.8,13.53V8.736Z" fill="url(#linear-gradient-2)"/>
    <path id="rect858" d="M19.131,30.455H44.869a1.65,1.65,0,0,1,1.654,1.654v9.737A1.651,1.651,0,0,1,44.869,43.5H19.131a1.651,1.651,0,0,1-1.654-1.654V32.109A1.65,1.65,0,0,1,19.131,30.455Z" stroke="#464646" fill="url(#linear-gradient-3)"/>
    <path id="rect864" d="M23.307,32.715H40.622c1.677,0,3.614,1.455,3.027,3.026l-1.2,3.21c-.587,1.571-1.35,3.026-3.026,3.026H24.607c-1.676,0-2.4-1.472-3.026-3.026l-1.3-3.21C19.652,34.187,21.631,32.715,23.307,32.715Z" stroke="#464646" fill="url(#linear-gradient-4)"/>
    <path id="path867" d="M25.011,35.995a1,1,0,1,1-1-1A1,1,0,0,1,25.011,35.995Z" fill="#464646"/>
    <path id="path867-4" d="M29.224,35.917a1,1,0,1,1-1-1A1,1,0,0,1,29.224,35.917Z" fill="#464646"/>
    <path id="path867-0" d="M33.323,36.025a1,1,0,1,1-1-1A1,1,0,0,1,33.323,36.025Z" fill="#464646"/>
    <path id="path867-1" d="M37.182,35.953a1,1,0,1,1-1-1A1,1,0,0,1,37.182,35.953Z" fill="#464646"/>
    <path id="path867-43" d="M41.233,35.989a1,1,0,1,1-1-1A1,1,0,0,1,41.233,35.989Z" fill="#464646"/>
    <path id="path867-47" d="M27.261,39.034a1,1,0,1,1-1-1A1,1,0,0,1,27.261,39.034Z" fill="#464646"/>
    <path id="path867-4-5" d="M31.475,38.955a1,1,0,1,1-1-1A1,1,0,0,1,31.475,38.955Z" fill="#464646"/>
    <path id="path867-0-8" d="M35.574,39.063a1,1,0,1,1-1-1A1,1,0,0,1,35.574,39.063Z" fill="#464646"/>
    <path id="path867-1-8" d="M39.432,38.991a1,1,0,1,1-1-1A1,1,0,0,1,39.432,38.991Z" fill="#464646"/>
  </g>
</svg>
