<svg id="Livello_3" data-name="Livello 3" xmlns="http://www.w3.org/2000/svg" xmlns:xlink="http://www.w3.org/1999/xlink" viewBox="0 0 48 48">
  <defs>
    <linearGradient id="linear-gradient" x1="42.596" y1="-1.857" x2="72.087" y2="-30.23" gradientTransform="matrix(0.907, 0, 0, -0.907, -27.911, 17.173)" gradientUnits="userSpaceOnUse">
      <stop offset="0" stop-color="#fff"/>
      <stop offset="1" stop-color="#dcdcdc"/>
    </linearGradient>
    <linearGradient id="linear-gradient-2" x1="10.778" y1="40.001" x2="25.584" y2="26.727" gradientTransform="matrix(1.019, 0, 0, -1.019, 0.456, 61.316)" gradientUnits="userSpaceOnUse">
      <stop offset="0" stop-color="#bfdee8"/>
      <stop offset="0.159" stop-color="#b3d6e2"/>
      <stop offset="0.706" stop-color="#8ec1d3"/>
      <stop offset="1" stop-color="#7fb8cd"/>
    </linearGradient>
    <linearGradient id="linear-gradient-3" x1="53.551" y1="-12.533" x2="56.961" y2="-16.033" xlink:href="#linear-gradient"/>
    <linearGradient id="linear-gradient-4" x1="30.489" y1="10.402" x2="47.904" y2="-5.97" gradientTransform="matrix(0.907, 0, 0, -0.907, -27.911, 17.173)" xlink:href="#linear-gradient-2"/>
    <linearGradient id="linear-gradient-5" x1="124.727" y1="1030.508" x2="149.227" y2="1055.008" gradientTransform="translate(-61.399 -769.847) scale(0.737 0.748)" gradientUnits="userSpaceOnUse">
      <stop offset="0" stop-color="#fff"/>
      <stop offset="0.232" stop-color="#fafafa"/>
      <stop offset="0.496" stop-color="#ededed"/>
      <stop offset="0.775" stop-color="#d6d6d6"/>
      <stop offset="1" stop-color="#bebebe"/>
    </linearGradient>
    <linearGradient id="linear-gradient-6" x1="94.254" y1="-61.003" x2="98.254" y2="-65.003" gradientTransform="matrix(0.813, 0, 0, -0.813, -42.603, -47.073)" gradientUnits="userSpaceOnUse">
      <stop offset="0" stop-color="#73b4c8"/>
      <stop offset="0.175" stop-color="#6aaec3"/>
      <stop offset="0.457" stop-color="#529eb5"/>
      <stop offset="0.809" stop-color="#2c839f"/>
      <stop offset="1" stop-color="#147391"/>
    </linearGradient>
    <linearGradient id="linear-gradient-7" x1="94.272" y1="-68.027" x2="98.272" y2="-72.027" gradientTransform="matrix(0.813, 0, 0, -0.813, -42.613, -46.406)" xlink:href="#linear-gradient-6"/>
    <linearGradient id="linear-gradient-8" x1="93.76" y1="-74.351" x2="97.76" y2="-78.351" gradientTransform="matrix(0.814, 0, 0, -0.814, -42.313, -45.264)" xlink:href="#linear-gradient-6"/>
  </defs>
  <g id="g1016">
    <path id="path1357" d="M39.554,29.9A17.344,17.344,0,1,1,22.211,12.415,17.417,17.417,0,0,1,39.554,29.9Z" fill="url(#linear-gradient)"/>
    <path id="path1059" d="M21.034,40.092a10.152,10.152,0,0,1-7.2-4.046,10.047,10.047,0,0,1-1.974-5.165,13.515,13.515,0,0,1,.058-2.326,10.2,10.2,0,0,1,2.117-4.884A13.022,13.022,0,0,1,15.6,22.1a10.288,10.288,0,0,1,4.89-2.137,15.45,15.45,0,0,1,2.925,0,10.46,10.46,0,0,1,3.719,1.328,10.133,10.133,0,0,1,4.915,7.795,13.372,13.372,0,0,1-.055,2.325,10.16,10.16,0,0,1-8.61,8.62A13.491,13.491,0,0,1,21.034,40.092Z" fill="url(#linear-gradient-2)"/>
    <path id="path828-1-1-9-9" d="M22.016,19.08a10.85,10.85,0,1,0,10.85,10.849A10.849,10.849,0,0,0,22.016,19.08Zm0,1.808a9.041,9.041,0,1,1-9.041,9.041A9.041,9.041,0,0,1,22.016,20.888Z" fill="#464646"/>
    <path id="path905-8" d="M16.454,29.96a.9.9,0,1,1-.9-.9A.9.9,0,0,1,16.454,29.96Z" fill="#464646"/>
    <path id="path905-7" d="M22.844,36.4a.9.9,0,1,1-.9-.9A.9.9,0,0,1,22.844,36.4Z" fill="#464646"/>
    <path id="path905-9" d="M29.418,29.868a.9.9,0,1,1-.9-.9A.9.9,0,0,1,29.418,29.868Z" fill="#464646"/>
    <path id="path905-3" d="M22.89,23.616a.9.9,0,0,1-.9.9h0a.9.9,0,0,1-.9-.9h0a.9.9,0,0,1,1.808,0Z" fill="#464646"/>
    <path id="path828-1-1-9-3" d="M22.016,26.313A3.616,3.616,0,0,0,18.4,29.93h0a3.616,3.616,0,0,0,3.616,3.616h0a3.617,3.617,0,1,0,0-7.233Zm0,1.808a1.809,1.809,0,0,1,1.809,1.809h0a1.809,1.809,0,0,1-1.809,1.808h0a1.809,1.809,0,0,1-1.808-1.808h0a1.809,1.809,0,0,1,1.808-1.809Z" fill="#464646"/>
    <path id="path1069" d="M21.628,31.677A1.841,1.841,0,0,1,20.261,30.3a1.79,1.79,0,1,1,3.492.053,1.681,1.681,0,0,1-.492.854A1.753,1.753,0,0,1,21.628,31.677Z" fill="url(#linear-gradient-3)"/>
    <path id="path1079" d="M2.514,26.049c-.769-.078-1.019-.189-1.077-.48a13.18,13.18,0,0,1,.939-4.136,21.6,21.6,0,0,1,1.412-2.91A18.7,18.7,0,0,1,11.5,11.491a22.552,22.552,0,0,1,5.568-1.825,9.345,9.345,0,0,1,1.887-.134c.18.037.194.053.231.254a27.57,27.57,0,0,1-.08,3.543c-.085.49-.376,1.782-.488,2.17l-.073.252-.348.1a14.016,14.016,0,0,0-5.3,2.559A21.375,21.375,0,0,0,10.339,21a11.671,11.671,0,0,0-2.217,4.348c-.071.257-.1.288-.28.369a6.094,6.094,0,0,1-1.309.29c-.507.07-3.435.1-4.019.042Z" fill="url(#linear-gradient-4)"/>
    <path id="path824" d="M21.258,47.966a18.1,18.1,0,0,1-8.55-2.577A17.031,17.031,0,0,1,9.02,42.426a17.94,17.94,0,0,1-4.871-9.9,13.872,13.872,0,0,1-.143-2.561c0-.894.032-1.816.069-2.048a1.912,1.912,0,0,0,.043-.451,8.514,8.514,0,0,0-.919-.084C1.388,27.273.7,26.948.19,25.969a3.943,3.943,0,0,1-.038-2.35A19.23,19.23,0,0,1,2.626,17.27a19.942,19.942,0,0,1,8.652-7.539c2.608-1.173,6.335-2,7.724-1.709a2.1,2.1,0,0,1,1.374,1c.188.367.191.393.22,1.644l.029,1.27.788-.045a16.272,16.272,0,0,1,1.795.03,17.871,17.871,0,0,1,10.643,4.386,18.237,18.237,0,0,1,5.446,8.4,17.7,17.7,0,0,1,.75,5.229,17.264,17.264,0,0,1-1.881,8.029A18.035,18.035,0,0,1,24.89,47.747,26.97,26.97,0,0,1,21.81,48c-.071-.006-.32-.02-.552-.03Zm1.885-1.779a15.846,15.846,0,0,0,6.079-1.651,16.327,16.327,0,0,0,8.884-11.968,20.728,20.728,0,0,0,.092-4.583,15.938,15.938,0,0,0-1.665-5.462A16.394,16.394,0,0,0,27.2,14.475a16.62,16.62,0,0,0-5.961-.828l-.756.047-.04.2c-.022.113-.16.7-.307,1.3-.4,1.65-.7,2.041-1.75,2.313a12.436,12.436,0,0,0-4.054,1.772,18.729,18.729,0,0,0-2.913,2.9,8.952,8.952,0,0,0-1.478,3.044c-.334,1.267-.678,1.588-2.046,1.907a11.5,11.5,0,0,1-1.258.2,5.728,5.728,0,0,0-.7.088,10.57,10.57,0,0,0-.186,2.552,13.387,13.387,0,0,0,.359,3.543A16.294,16.294,0,0,0,23.143,46.187ZM6.527,25.58a3.87,3.87,0,0,0,1.595-.388,5.453,5.453,0,0,0,.188-.626,13.221,13.221,0,0,1,9.112-8.606c.4-.106.742-.2.756-.217a20.1,20.1,0,0,0,.573-2.46,14.057,14.057,0,0,0,0-3.5,7.03,7.03,0,0,0-2.431.169,18.708,18.708,0,0,0-9.758,5.158,17.161,17.161,0,0,0-3.871,5.968c-.671,1.766-1.1,3.822-.886,4.225a.641.641,0,0,0,.35.209,17.845,17.845,0,0,0,4.37.072Z" fill="#464646"/>
    <path id="path1251-2" d="M9.881,40.3a.321.321,0,0,1-.182-.152c-.068-.118-.056-.194.107-.674.153-.449.205-.551.312-.6a.242.242,0,0,1,.358.138c.049.1.023.228-.134.677C10.146,40.244,10.078,40.334,9.881,40.3Z" fill="#464646"/>
    <path id="path1285-8" d="M28.9,19.657a.348.348,0,0,1-.256-.333c.008-.032,0-.321-.008-.643-.027-.688.034-.816.362-.749.161.033.188.131.217.77.037.83-.015.986-.315.955Z" fill="#464646"/>
    <path id="path905-7-3" d="M5.63,23.1a.9.9,0,0,1-.905.9h0a.9.9,0,0,1-.9-.9h0a.9.9,0,0,1,.9-.9h0a.9.9,0,0,1,.905.9Z" fill="#464646"/>
    <path id="path905-3-1" d="M17.8,12.308a.9.9,0,0,1-1.808,0h0a.9.9,0,0,1,.9-.9h0A.9.9,0,0,1,17.8,12.308Z" fill="#464646"/>
    <path id="path905-3-8" d="M9.6,15.422a.9.9,0,0,1-.9.9h0a.9.9,0,0,1-.9-.9h0a.9.9,0,1,1,1.808,0Z" fill="#464646"/>
    <path id="path1247" d="M8.053,32.7a.391.391,0,0,1-.077-.227c0-.128.06-.191.557-.585a3.555,3.555,0,0,1,.635-.441.293.293,0,0,1,.284.3c0,.141-.044.189-.561.6a2.946,2.946,0,0,1-.661.443A.278.278,0,0,1,8.053,32.7Z" fill="#464646"/>
    <path id="path1249" d="M8.092,32.752a.362.362,0,0,1-.131-.314c.044-.114.2-.269.527-.526.163-.127.321-.252.351-.277a.2.2,0,0,1,.1-.047.18.18,0,0,0,.1-.069c.08-.1.214-.087.323.023.192.192.087.393-.392.755-.152.116-.308.239-.346.274a1.237,1.237,0,0,1-.434.216A.2.2,0,0,1,8.092,32.752Z" fill="#464646"/>
    <path id="path1251" d="M6.524,34.2a.32.32,0,0,1-.1-.216c-.01-.136.034-.2.39-.56.333-.337.425-.406.544-.406.172,0,.262.1.262.28,0,.111-.079.215-.416.551C6.786,34.268,6.686,34.319,6.524,34.2Z" fill="#464646"/>
    <path id="path1255" d="M10.468,38.2c-.124-.157-.112-.2.221-.879.311-.634.428-.74.641-.581a.379.379,0,0,1,.143.188,5.355,5.355,0,0,1-.643,1.317A.219.219,0,0,1,10.468,38.2Z" fill="#464646"/>
    <path id="path1257" d="M15.08,42.2c-.084-.084-.093-.154-.093-.784s.009-.7.093-.784a.3.3,0,0,1,.35-.057c.117.078.146.251.145.861s-.007.649-.108.75a.246.246,0,0,1-.387.014Z" fill="#464646"/>
    <path id="path1259" d="M15.285,44.3a.409.409,0,0,1-.115-.173c0-.033-.03-.268-.064-.521-.078-.577-.028-.713.261-.715.178,0,.247.137.309.622.029.229.065.471.079.54a.234.234,0,0,1-.092.242c-.147.147-.234.149-.378.005Z" fill="#464646"/>
    <path id="path1261" d="M20.973,43.825a5.536,5.536,0,0,1-.58-1.292.306.306,0,0,1,.138-.187c.226-.136.322-.041.668.662.3.6.307.635.242.751A.316.316,0,0,1,20.973,43.825Z" fill="#464646"/>
    <path id="path1263" d="M22.072,45.645a2.836,2.836,0,0,1-.6-1.023.28.28,0,0,1,.4-.2,3.939,3.939,0,0,1,.682,1.066.282.282,0,0,1-.266.264A.4.4,0,0,1,22.072,45.645Z" fill="#464646"/>
    <path id="path1265" d="M27.1,42.879a9.278,9.278,0,0,1-.911-.722c-.194-.183-.226-.359-.088-.483.157-.143.3-.093.733.262.23.186.47.38.535.431.161.126.2.294.092.417A.282.282,0,0,1,27.1,42.879Z" fill="#464646"/>
    <path id="path1267" d="M28.48,43.841a2.471,2.471,0,0,1-.506-.371c-.085-.114-.087-.134-.023-.248.138-.246.249-.234.782.087a4.724,4.724,0,0,1,.518.339.331.331,0,0,1-.049.364C29.064,44.136,28.916,44.1,28.48,43.841Z" fill="#464646"/>
    <path id="path1269" d="M31.453,39.271c-.483-.119-.582-.159-.627-.251a.3.3,0,0,1,.139-.4,1.043,1.043,0,0,1,.535.075,1.345,1.345,0,0,0,.235.054,2.571,2.571,0,0,1,.74.229.344.344,0,0,1-.052.406C32.293,39.453,32.1,39.431,31.453,39.271Z" fill="#464646"/>
    <path id="path1273" d="M33.868,34.347a.317.317,0,0,1-.01-.386,3.786,3.786,0,0,1,.751-.207c.751-.159.868-.148.926.082a.327.327,0,0,1-.194.352,12.433,12.433,0,0,1-1.3.248.31.31,0,0,1-.177-.089Z" fill="#464646"/>
    <path id="path1275" d="M36.208,33.772a.256.256,0,0,1,.014-.367,6.186,6.186,0,0,1,1.128-.387c.177,0,.306.284.2.447a3.372,3.372,0,0,1-1.149.429A.314.314,0,0,1,36.208,33.772Z" fill="#464646"/>
    <path id="path1277" d="M34.5,28.767c-.073-.121-.079-.164-.034-.25a5.1,5.1,0,0,1,1.217-.9.329.329,0,0,1,.291.283c0,.14-.3.409-.455.409s-.236.075-.236.188c0,.1-.45.412-.59.412C34.626,28.913,34.558,28.861,34.5,28.767Z" fill="#464646"/>
    <path id="path1279" d="M36.39,27.345c-.166-.166-.118-.27.337-.724s.585-.516.739-.345.1.325-.337.756S36.563,27.518,36.39,27.345Z" fill="#464646"/>
    <path id="path1283" d="M33.715,21.418c-.122-.13-.131-.082.149-.846a1.837,1.837,0,0,1,.223-.473.294.294,0,0,1,.437.3,4.4,4.4,0,0,1-.432,1.069A.264.264,0,0,1,33.715,21.418Z" fill="#464646"/>
    <path id="path1285" d="M32.71,23.583a.346.346,0,0,1-.062-.415c.023-.024.16-.279.3-.566.311-.615.427-.7.681-.478.124.106.1.205-.185.777-.371.744-.492.855-.739.682Z" fill="#464646"/>
    <path id="path1289" d="M28.846,17.289c-.163-.062-.192-.147-.249-.737l-.056-.575.115-.1a.291.291,0,0,1,.4,0,2.934,2.934,0,0,1,.142.983c0,.318-.006.337-.127.4A.3.3,0,0,1,28.846,17.289Z" fill="#464646"/>
    <path id="path1291" d="M23.412,17.655c-.067-.053-.122-.115-.122-.139a5.725,5.725,0,0,0-.231-.554c-.251-.557-.274-.68-.146-.8a.266.266,0,0,1,.37,0,6.544,6.544,0,0,1,.607,1.29.5.5,0,0,1-.292.29A.43.43,0,0,1,23.412,17.655Z" fill="#464646"/>
    <path id="path1293" d="M22.47,15.578a.457.457,0,0,1-.185-.184c-.043-.08-.177-.293-.3-.474-.24-.362-.255-.421-.147-.575.058-.082.11-.1.241-.091s.192.049.353.28c.1.146.248.381.324.521.128.237.133.262.069.375A.283.283,0,0,1,22.47,15.578Z" fill="#464646"/>
    <path id="path1295" d="M33.628,39.7c-.333-.043-.467-.136-.467-.323a.257.257,0,0,1,.26-.273,7.468,7.468,0,0,1,1.106.138c.164.067.163.361,0,.473A2.857,2.857,0,0,1,33.628,39.7Z" fill="#464646"/>
    <path id="path1291-7" d="M14.861,20.2c-.074-.042-.138-.1-.142-.118a5.475,5.475,0,0,0-.314-.512c-.335-.511-.376-.629-.268-.763a.265.265,0,0,1,.366-.053,6.483,6.483,0,0,1,.8,1.18.5.5,0,0,1-.243.331A.44.44,0,0,1,14.861,20.2Z" fill="#464646"/>
    <path id="path1291-7-5" d="M10.778,24.729a.338.338,0,0,1-.183-.021c-.016-.017-.261-.132-.544-.255-.561-.243-.66-.319-.643-.49a.266.266,0,0,1,.277-.246A6.539,6.539,0,0,1,11,24.264a.5.5,0,0,1-.021.41A.436.436,0,0,1,10.778,24.729Z" fill="#464646"/>
    <path id="rect39" d="M31.4.4H47.6V20.6H31.4Z" stroke="#464646" stroke-miterlimit="10" stroke-width="0.795" fill="url(#linear-gradient-5)"/>
    <path id="line41-8" d="M39,4,46,4" fill="none" stroke="#6e6e6e" stroke-width="0.993"/>
    <path id="rect43-8" d="M34,2.5H37.25v3.25H34Z" stroke="#147391" stroke-miterlimit="10" stroke-width="0.998" fill="url(#linear-gradient-6)"/>
    <path id="line45-7" d="M39,10.5l7,.006" fill="none" stroke="#6e6e6e" stroke-width="0.993"/>
    <path id="rect47-8" d="M34,8.877H37.25v3.251H34Z" stroke="#147391" stroke-miterlimit="10" stroke-width="0.998" fill="url(#linear-gradient-7)"/>
    <path id="line49-5" d="M39,17,46,17" fill="none" stroke="#6e6e6e" stroke-width="0.993"/>
    <path id="rect51-8" d="M34,15.248h3.255V18.5H34Z" stroke="#147391" stroke-miterlimit="10" stroke-width="0.993" fill="url(#linear-gradient-8)"/>
  </g>
</svg>
