<svg id="Layer_1" data-name="Layer 1" xmlns="http://www.w3.org/2000/svg" xmlns:xlink="http://www.w3.org/1999/xlink" viewBox="0 0 48 48">
  <defs>
    <linearGradient id="linear-gradient" x1="-123.979" y1="72.756" x2="-104.384" y2="62.852" gradientTransform="matrix(1.86, 0, 0, -1.212, 235.703, 117.595)" gradientUnits="userSpaceOnUse">
      <stop offset="0" stop-color="#73b4c8"/>
      <stop offset="0.175" stop-color="#6aaec3"/>
      <stop offset="0.457" stop-color="#529eb5"/>
      <stop offset="0.809" stop-color="#2c839f"/>
      <stop offset="1" stop-color="#147391"/>
    </linearGradient>
    <linearGradient id="linear-gradient-3" x1="-128.499" y1="158.349" x2="-114.112" y2="148.599" gradientTransform="matrix(1.86, 0, 0, -1.664, 234.745, 278.443)" gradientUnits="userSpaceOnUse">
      <stop offset="0" stop-color="#cee6eb"/>
      <stop offset="0.221" stop-color="#c6e2e8"/>
      <stop offset="0.542" stop-color="#b3d8e1"/>
      <stop offset="0.921" stop-color="#93c7d4"/>
      <stop offset="1" stop-color="#8dc3d2"/>
    </linearGradient>
    <linearGradient id="linear-gradient-5" x1="3283.669" y1="1551.811" x2="3330.827" y2="1596.287" gradientTransform="matrix(0, 0.124, 0.409, 0, -628.286, -373.872)" gradientUnits="userSpaceOnUse">
      <stop offset="0" stop-color="#f2f2f2"/>
      <stop offset="0.217" stop-color="#eee"/>
      <stop offset="0.425" stop-color="#e3e3e3"/>
      <stop offset="0.628" stop-color="#cfcfcf"/>
      <stop offset="0.828" stop-color="#b5b5b5"/>
      <stop offset="0.99" stop-color="#999"/>
    </linearGradient>
    <linearGradient id="linear-gradient-6" x1="11.88" y1="29.758" x2="21.836" y2="24.632" gradientTransform="matrix(1, 0, 0, -1, -0.251, 48.338)" xlink:href="#linear-gradient-5"/>
    <linearGradient id="linear-gradient-7" x1="41.117" y1="42.661" x2="6.721" y2="47.258" gradientTransform="matrix(1, 0, 0, -1, -0.617, 48.616)" gradientUnits="userSpaceOnUse">
      <stop offset="0" stop-color="#464646"/>
      <stop offset="1" stop-color="#464646" stop-opacity="0"/>
    </linearGradient>
    <linearGradient id="linear-gradient-8" x1="8925.283" y1="6503.89" x2="8965.986" y2="6540.959" gradientTransform="matrix(0, 0.043, 0.05, 0, -295.444, -349.271)" xlink:href="#linear-gradient"/>
    <linearGradient id="linear-gradient-9" x1="8925.283" y1="6503.89" x2="8965.986" y2="6540.959" gradientTransform="matrix(0, 0.043, 0.05, 0, -291.335, -349.294)" xlink:href="#linear-gradient"/>
    <linearGradient id="linear-gradient-10" x1="3.447" y1="30.549" x2="41.189" y2="30.549" gradientTransform="matrix(1, 0, 0, -1, -1.23, 48.219)" xlink:href="#linear-gradient-5"/>
    <linearGradient id="linear-gradient-11" x1="26.262" y1="24.125" x2="42.539" y2="7.551" gradientTransform="matrix(1, 0, 0, -1, -0.069, 50.113)" gradientUnits="userSpaceOnUse">
      <stop offset="0" stop-color="#fff"/>
      <stop offset="0.221" stop-color="#f8f8f8"/>
      <stop offset="0.541" stop-color="#e5e5e5"/>
      <stop offset="0.92" stop-color="#c6c6c6"/>
      <stop offset="1" stop-color="#bebebe"/>
    </linearGradient>
    <linearGradient id="linear-gradient-12" x1="32.525" y1="17.475" x2="38.18" y2="11.82" gradientTransform="matrix(1, 0, 0, -1, 0, 49.994)" xlink:href="#linear-gradient-11"/>
  </defs>
  <g id="g1004">
    <path id="path908" d="M1.858,30.588V4.963L10.233.838h21.25L39.8,4.9l-.062,25.875Z" fill="#fff"/>
    <path id="path1183-5-9" d="M5.689,43.338a5.667,5.667,0,0,1-3.98-2.069c-.444-.708-.419-1.644.08-2.99.863-2.33,4.093-10.6,4.327-11.074a5.388,5.388,0,0,1,2.763-2.627c.657-.246.789-.258,3.694-.327,1.658-.039,6.647-.045,11.089-.013,8.03.058,8.079.06,8.693.277a5.64,5.64,0,0,1,2.828,2.545c.3.56,4.518,11.516,4.759,12.355.435,1.508-.809,2.975-3.174,3.746l-.691.226L21.312,43.4C13.191,43.408,6.161,43.38,5.689,43.338Z" stroke-miterlimit="10" stroke-width="0.516" fill="url(#linear-gradient)" stroke="url(#linear-gradient)"/>
    <path id="path1098-5-0-9-7-4-5" d="M20.883,23.6l0,1.046c-2.871-.006-5.379,0-7.221.01-.921.006-1.675.013-2.224.023s-.973.032-.931.027a4.836,4.836,0,0,0-3.362,1.719,8.315,8.315,0,0,0-1.579,2.9c-.3.752-1.342,3.229-2.32,5.528-.82,1.927-1.265,2.987-1.5,3.634a2.946,2.946,0,0,0-.257,1.184,1.463,1.463,0,0,0,.291,1.142,6.307,6.307,0,0,0,4.055,2.066c-.052-.006.164.01.428.016s.628.012,1.073.017c.89.012,2.11.022,3.548.029,2.877.015,6.63.022,10.393.022v1.045c-3.766,0-7.521-.007-10.4-.022-1.441-.007-2.664-.017-3.563-.028-.449-.006-.818-.012-1.095-.019s-.411-.006-.595-.027c-2.145-.246-4.245-1.3-5.109-2.652a2.547,2.547,0,0,1-.426-1.6,4,4,0,0,1,.3-1.447c.248-.692.694-1.751,1.515-3.68.977-2.3,2.023-4.788,2.314-5.512a9.515,9.515,0,0,1,1.742-3.164,6.509,6.509,0,0,1,4.33-2.19c.269-.03.551-.029,1.112-.038s1.32-.019,2.246-.025c1.85-.012,4.361-.015,7.236-.01Z" fill="#464646" stroke="#464646" stroke-miterlimit="10" stroke-width="0.17"/>
    <path id="path1098-5-0-9-7-4" d="M20.675,23.605l0,1.046c2.871-.006,5.379,0,7.221.01.921.006,1.674.013,2.223.023s.974.032.931.027a4.838,4.838,0,0,1,3.363,1.719,8.317,8.317,0,0,1,1.578,2.9c.3.752,1.342,3.229,2.321,5.528.82,1.927,1.265,2.987,1.5,3.634a2.958,2.958,0,0,1,.256,1.184,1.463,1.463,0,0,1-.291,1.142,6.3,6.3,0,0,1-4.054,2.066c.051-.006-.164.01-.428.016s-.628.012-1.074.017c-.89.012-2.109.022-3.547.029-2.877.015-6.63.022-10.393.022v1.045c3.765,0,7.52-.007,10.4-.022,1.441-.007,2.665-.017,3.564-.028.449-.006.817-.012,1.094-.019s.411-.006.6-.027c2.145-.246,4.245-1.3,5.108-2.652a2.535,2.535,0,0,0,.426-1.6,4,4,0,0,0-.3-1.447c-.249-.692-.694-1.751-1.515-3.68-.977-2.3-2.024-4.788-2.314-5.512A9.5,9.5,0,0,0,35.6,25.868a6.507,6.507,0,0,0-4.33-2.19c-.268-.03-.551-.029-1.112-.038s-1.32-.019-2.245-.025c-1.85-.012-4.361-.015-7.236-.01Z" fill="#464646" stroke="#464646" stroke-miterlimit="10" stroke-width="0.17"/>
    <path id="path1183-5" d="M5.689,39.849a5.478,5.478,0,0,1-3.98-2.424c-.444-.829-.42-1.927.079-3.5.864-2.73,4.094-12.416,4.328-12.976a5.851,5.851,0,0,1,2.763-3.079c.657-.289.789-.3,3.7-.383,1.657-.046,6.648-.053,11.09-.015,8.031.068,8.079.07,8.693.324a6.053,6.053,0,0,1,2.828,2.983c.3.655,4.518,13.493,4.76,14.477.435,1.767-.809,3.487-3.174,4.39l-.692.264-14.766.016C13.192,39.931,6.161,39.9,5.689,39.849Z" stroke-miterlimit="10" stroke-width="0.558" fill="url(#linear-gradient-3)" stroke="url(#linear-gradient-3)"/>
    <path id="path1098-5-0-9-7" d="M20.676,16.726l0,1.225c2.871-.006,5.379,0,7.221.012.921.007,1.675.016,2.224.027s.974.038.931.032a4.653,4.653,0,0,1,3.364,2.015A10.325,10.325,0,0,1,36,23.436c.3.882,1.342,3.784,2.32,6.478.821,2.259,1.266,3.5,1.5,4.259a3.984,3.984,0,0,1,.256,1.388,1.932,1.932,0,0,1-.291,1.337,6.077,6.077,0,0,1-4.055,2.422c.052-.007-.164.011-.428.018s-.628.014-1.073.021c-.89.013-2.11.024-3.548.033-2.877.018-6.631.026-10.394.025v1.225c3.766,0,7.521-.007,10.4-.025,1.441-.009,2.665-.02,3.564-.033.449-.007.818-.014,1.095-.022a5.319,5.319,0,0,0,.595-.032,7.034,7.034,0,0,0,5.109-3.107,3.367,3.367,0,0,0,.426-1.871,5.383,5.383,0,0,0-.3-1.7c-.249-.811-.694-2.052-1.515-4.312-.978-2.691-2.024-5.611-2.315-6.46A11.781,11.781,0,0,0,35.6,19.378a6.248,6.248,0,0,0-4.331-2.566,10.785,10.785,0,0,0-1.112-.045c-.561-.012-1.32-.022-2.245-.029-1.85-.014-4.362-.018-7.237-.012Z" fill="#464646"/>
    <path id="rect41-2" d="M26.075,32.338l.309,6-20.067.045.487-6Z" stroke="#464646" stroke-linejoin="round" stroke-width="0.9" fill="url(#linear-gradient-5)"/>
    <path id="rect1053-7" d="M.411,34.932h.2a.4.4,0,0,1,.4.4v3.985a.4.4,0,0,1-.4.4h-.2a.4.4,0,0,1-.4-.4V35.33A.4.4,0,0,1,.411,34.932Z" fill="#464646"/>
    <path id="path1051-1" d="M29.7,24.506c0,2.382-4.029,4.313-9,4.313s-9-1.931-9-4.313h0c0-2.381,4.03-4.312,9-4.312h0c4.971,0,9,1.931,9,4.312Z" fill="#464646"/>
    <path id="path1051" d="M29.749,23.276c0,2.382-4.029,4.312-9,4.312h0c-4.97,0-9-1.93-9-4.312h0c0-2.382,4.03-4.313,9-4.313h0c4.971,0,9,1.931,9,4.313Z" fill="url(#linear-gradient-6)"/>
    <path id="rect1269-0-4" d="M31.352.516c.367,0,.662.181.662.405V17.478c0,.225-.3.4-.662.4s-.663-.18-.663-.4V.921C30.689.7,30.984.516,31.352.516Z" fill="#464646"/>
    <path id="rect1269-0-4-9" d="M10.157.092a.61.61,0,0,1,.663.543V17.357a.61.61,0,0,1-.663.544.61.61,0,0,1-.662-.544V.635A.61.61,0,0,1,10.157.092Z" fill="#464646"/>
    <path id="path1418" d="M11.139,1.008,2.83,4.72l37.035.8-2.652-2.3-5.3-2.21Z" fill="url(#linear-gradient-7)"/>
    <path id="rect943-4-6" d="M10.3.1H31.37a.688.688,0,0,1,0,1.375H10.3A.688.688,0,1,1,10.3.1Z" fill="#464646"/>
    <path id="rect943-4-6-1" d="M31.7.18l8.166,4.014a.69.69,0,0,1,.329.915.681.681,0,0,1-.916.328L31.4,1.45A.692.692,0,0,1,31.07.535C31.232.19,31.353.012,31.7.18Z" fill="#464646"/>
    <path id="rect943-4-6-1-5" d="M9.7.225,1.672,4.23c-.345.172-.363.493-.2.844a.686.686,0,0,0,.924.335l7.8-3.906A.707.707,0,0,0,10.525.57.585.585,0,0,0,9.7.225Z" fill="#464646"/>
    <path id="rect41-2-3-4" d="M31.148,33.974l.038,2.087-2.45.015L28.8,33.99Z" stroke="#147391" stroke-linejoin="round" stroke-width="0.559" fill="url(#linear-gradient-8)"/>
    <path id="rect1053-7-4" d="M40.857,34.986l.164,0a.417.417,0,0,1,.429.407l.11,4.176a.418.418,0,0,1-.407.429l-.164,0a.417.417,0,0,1-.429-.407l-.11-4.176A.417.417,0,0,1,40.857,34.986Z" fill="#464646"/>
    <path id="rect41-2-3-4-4" d="M35.257,33.952l.038,2.086-2.45.016.059-2.087Z" stroke="#147391" stroke-linejoin="round" stroke-width="0.559" fill="url(#linear-gradient-9)"/>
    <g id="g1283">
      <path id="path1106-5-7-3-1-8" d="M16.212,36.992l-.129.115L15.953,37l-.13-.1-.021-.569-.021-.569.115-.108.115-.108.14.111.139.111.025.557.025.556Z" fill="#464646"/>
      <path id="path1106-5-7-3-8-4-0" d="M18.236,36.906l-.128.115-.13-.106-.13-.106-.021-.569-.021-.569.115-.108.115-.107.139.111.14.11.025.557.025.557Z" fill="#464646"/>
      <path id="path1106-5-7-3-8-1-3-6" d="M18.159,35.107l-.128.115-.131-.105-.13-.106-.021-.569-.021-.569.116-.108.115-.108.139.111.139.111.025.557.025.557Z" fill="#464646"/>
      <path id="path1106-5-7-3-8-1-9-1-5" d="M16.134,35.168l-.128.115-.13-.106-.131-.1-.02-.569-.021-.569.115-.108.115-.108.139.111.14.111.024.556.025.557Z" fill="#464646"/>
      <path id="path1106-5-7-2-2-3" d="M16.253,35.526l-.132-.12.121-.121.121-.121.652-.02.651-.019.123.107.123.107-.126.13-.127.13-.637.023-.638.023Z" fill="#464646"/>
      <path id="path1106-5-7-6-5-1" d="M16.222,33.72,16.1,33.6l.115-.121.116-.121.622-.019.621-.02.118.107.117.107-.12.13-.121.13-.609.023-.608.023Z" fill="#464646"/>
      <path id="path1106-5-7-2-0-6-9" d="M16.314,37.365l-.135-.12.124-.121L16.428,37l.672-.019.671-.02.127.107.127.107-.131.13-.13.13-.657.023-.657.023Z" fill="#464646"/>
      <path id="path1106-5-7-3-1-8-8" d="M19.434,36.991l-.129.115L19.175,37l-.13-.106-.021-.569L19,35.757l.115-.108.115-.107.14.11.139.111.025.557.025.557Z" fill="#464646"/>
      <path id="path1106-5-7-3-8-4-0-4" d="M21.458,36.905l-.128.115-.13-.106-.13-.106-.021-.569-.021-.569.115-.107.115-.108.139.111.14.11.025.557.025.557Z" fill="#464646"/>
      <path id="path1106-5-7-3-8-1-3-6-4" d="M21.381,35.107l-.128.114-.13-.1-.13-.106-.021-.569-.021-.569.115-.108.115-.107.139.11.14.111.025.557.024.557Z" fill="#464646"/>
      <path id="path1106-5-7-3-8-1-9-1-5-6" d="M19.356,35.167l-.128.115-.13-.1-.13-.106-.021-.569-.021-.569.115-.108.115-.108.139.111.14.111.025.557.025.557Z" fill="#464646"/>
      <path id="path1106-5-7-2-2-3-2" d="M19.475,35.525l-.132-.12.121-.121.121-.121.652-.019.651-.02.123.107.124.107-.127.13-.127.13-.637.023-.638.023Z" fill="#464646"/>
      <path id="path1106-5-7-6-5-1-9" d="M19.445,33.719l-.126-.119.116-.122.115-.121.622-.019.621-.02.118.108.118.107-.121.129-.121.13-.609.023-.608.024Z" fill="#464646"/>
      <path id="path1106-5-7-2-0-6-9-4" d="M19.536,37.364l-.135-.12.124-.121L19.65,37l.672-.019.671-.02.127.107.127.107-.13.13-.131.13-.657.023-.657.023Z" fill="#464646"/>
      <path id="path1106-5-7-3-1-8-0" d="M22.621,36.984l-.128.114-.13-.1-.13-.106-.021-.569-.021-.569.115-.108.115-.107.139.11.14.111.025.557.025.557Z" fill="#464646"/>
      <path id="path1106-5-7-3-8-4-0-1" d="M24.646,36.9l-.128.115-.131-.106-.13-.1-.021-.569-.02-.57.115-.107.115-.108.139.111.139.111.025.556.025.557Z" fill="#464646"/>
      <path id="path1106-5-7-3-8-1-3-6-1" d="M24.569,35.1l-.129.115-.13-.106L24.18,35l-.021-.569-.021-.569.115-.108.115-.107.14.111.139.11.025.557.025.557Z" fill="#464646"/>
      <path id="path1106-5-7-3-8-1-9-1-5-69" d="M22.544,35.16l-.129.114-.13-.105-.13-.106-.021-.569-.021-.569.115-.108.115-.107.14.11.139.111.025.557.025.557Z" fill="#464646"/>
      <path id="path1106-5-7-2-2-3-8" d="M22.662,35.517l-.131-.12.121-.121.121-.121.651-.019.652-.02.123.107.123.107-.127.13-.126.13-.638.023-.637.023Z" fill="#464646"/>
      <path id="path1106-5-7-6-5-1-8" d="M22.632,33.711l-.125-.119.115-.121.116-.121.621-.02.622-.019.118.107.117.107-.121.129-.121.13-.608.023-.608.024Z" fill="#464646"/>
      <path id="path1106-5-7-2-0-6-9-6" d="M22.724,37.356l-.136-.12.125-.121.125-.121.671-.019.672-.02.127.107.127.107-.131.13-.13.13-.658.023-.657.023Z" fill="#464646"/>
    </g>
    <path id="path1098-5-0-9-7-3" d="M20.8,16.721l0,1.225c-2.872-.006-5.38,0-7.222.012-.921.007-1.675.016-2.224.027s-.973.038-.931.032a4.651,4.651,0,0,0-3.363,2.015,10.3,10.3,0,0,0-1.578,3.4c-.3.882-1.342,3.784-2.321,6.478-.82,2.259-1.265,3.5-1.5,4.259A3.968,3.968,0,0,0,1.4,35.556,1.932,1.932,0,0,0,1.7,36.893,6.08,6.08,0,0,0,5.75,39.315c-.051-.007.164.011.428.018s.629.014,1.074.021c.89.013,2.109.024,3.548.033,2.877.018,6.63.026,10.394.025v1.225c-3.766,0-7.521-.007-10.4-.025-1.441-.009-2.665-.02-3.563-.033-.45-.007-.818-.014-1.1-.022a5.354,5.354,0,0,1-.6-.032A7.038,7.038,0,0,1,.427,37.418,3.375,3.375,0,0,1,0,35.547a5.391,5.391,0,0,1,.3-1.7C.552,33.041,1,31.8,1.819,29.54c.977-2.691,2.023-5.611,2.314-6.46a11.756,11.756,0,0,1,1.743-3.707,6.244,6.244,0,0,1,4.33-2.566,10.8,10.8,0,0,1,1.112-.045c.561-.012,1.32-.022,2.246-.029,1.85-.014,4.361-.018,7.237-.012Z" fill="#464646"/>
    <path id="rect1376" d="M2.573,4.853H39.6a.356.356,0,0,1,.356.356V30.13a.356.356,0,0,1-.356.356H2.573a.356.356,0,0,1-.356-.356V5.209A.356.356,0,0,1,2.573,4.853Z" opacity="0.4" fill="url(#linear-gradient-10)" style="isolation: isolate"/>
    <path id="rect943-4" d="M2.17,4.162H39.564a.688.688,0,1,1,0,1.375H2.17a.688.688,0,0,1,0-1.375Z" fill="#464646"/>
    <path id="rect943" d="M2.42,30.088H38.974a.356.356,0,0,1,.356.356v.663a.355.355,0,0,1-.356.356H2.42a.354.354,0,0,1-.356-.356v-.663A.355.355,0,0,1,2.42,30.088Z" fill="#464646"/>
    <path id="rect1269" d="M1.915,4.182a.668.668,0,0,1,.663.675V31.082a.663.663,0,1,1-1.326,0V4.857A.668.668,0,0,1,1.915,4.182Z" fill="#464646"/>
    <path id="rect1269-0" d="M39.289,4.389H39.9a.356.356,0,0,1,.356.356V31.123a.356.356,0,0,1-.356.356h-.614a.356.356,0,0,1-.356-.356V4.745A.356.356,0,0,1,39.289,4.389Z" fill="#464646"/>
    <path id="path50" d="M43.324,37.994,47.5,36.513V33.394l-4.176-1.482a.5.5,0,0,1-.314-.634.549.549,0,0,1,.021-.051l1.9-4-2.208-2.208-3.995,1.9a.5.5,0,0,1-.668-.232.393.393,0,0,1-.018-.043L36.56,22.494H33.44l-1.482,4.155a.507.507,0,0,1-.656.285l-.03-.013-4-1.9-2.207,2.207,1.9,4a.5.5,0,0,1-.24.665.455.455,0,0,1-.051.021L22.5,33.394v3.12l4.176,1.48a.5.5,0,0,1,.314.634c-.006.017-.013.035-.021.052l-1.9,4,2.207,2.208,4-1.894a.5.5,0,0,1,.663.246.392.392,0,0,1,.023.06l1.482,4.2H36.56l1.482-4.2a.49.49,0,0,1,.686-.314l4,1.9,2.207-2.207-1.9-4a.5.5,0,0,1,.24-.665A.419.419,0,0,1,43.324,37.994Z" stroke="#464646" stroke-linejoin="round" fill="url(#linear-gradient-11)"/>
    <path id="circle52" d="M38.5,34.994a3.5,3.5,0,1,1-3.5-3.5A3.5,3.5,0,0,1,38.5,34.994Z" stroke="#464646" stroke-miterlimit="10" fill="url(#linear-gradient-12)"/>
  </g>
</svg>
