<svg id="Layer_1" data-name="Layer 1" xmlns="http://www.w3.org/2000/svg" xmlns:xlink="http://www.w3.org/1999/xlink" viewBox="0 0 48 48">
  <defs>
    <linearGradient id="linear-gradient" x1="0.5" y1="49.5" x2="47.5" y2="2.5" gradientTransform="matrix(1, 0, 0, -1, 0, 50)" gradientUnits="userSpaceOnUse">
      <stop offset="0" stop-color="#fff"/>
      <stop offset="0.232" stop-color="#fafafa"/>
      <stop offset="0.496" stop-color="#ededed"/>
      <stop offset="0.775" stop-color="#d6d6d6"/>
      <stop offset="1" stop-color="#bebebe"/>
    </linearGradient>
    <linearGradient id="linear-gradient-2" x1="7.75" y1="39.75" x2="40.25" y2="7.25" gradientTransform="matrix(1, 0, 0, -1, 0, 50)" gradientUnits="userSpaceOnUse">
      <stop offset="0" stop-color="#fff"/>
      <stop offset="0.221" stop-color="#f8f8f8"/>
      <stop offset="0.541" stop-color="#e5e5e5"/>
      <stop offset="0.92" stop-color="#c6c6c6"/>
      <stop offset="1" stop-color="#bebebe"/>
    </linearGradient>
    <linearGradient id="linear-gradient-3" x1="10.75" y1="36.75" x2="37.25" y2="10.25" gradientTransform="matrix(1, 0, 0, -1, 0, 50)" gradientUnits="userSpaceOnUse">
      <stop offset="0" stop-color="#fff"/>
      <stop offset="0.335" stop-color="#f8f8f8"/>
      <stop offset="0.82" stop-color="#e5e5e5"/>
      <stop offset="1" stop-color="#dcdcdc"/>
    </linearGradient>
    <linearGradient id="linear-gradient-4" x1="24" y1="37.5" x2="24" y2="45.5" gradientTransform="matrix(1, 0, 0, -1, 0, 50)" gradientUnits="userSpaceOnUse">
      <stop offset="0" stop-color="#bebebe"/>
      <stop offset="0.045" stop-color="#c4c4c4"/>
      <stop offset="0.268" stop-color="#dedede"/>
      <stop offset="0.497" stop-color="#f0f0f0"/>
      <stop offset="0.736" stop-color="#fbfbfb"/>
      <stop offset="1" stop-color="#fff"/>
    </linearGradient>
    <linearGradient id="linear-gradient-5" x1="34.5" y1="49.5" x2="47.5" y2="36.5" xlink:href="#linear-gradient-2"/>
    <linearGradient id="linear-gradient-6" x1="38" y1="52" x2="50" y2="40" gradientTransform="matrix(1, 0, 0, -1, 0, 50)" gradientUnits="userSpaceOnUse">
      <stop offset="0" stop-color="#afd7e1"/>
      <stop offset="1" stop-color="#73b4c8"/>
    </linearGradient>
    <linearGradient id="linear-gradient-7" x1="35" y1="49" x2="47" y2="37" xlink:href="#linear-gradient-2"/>
  </defs>
  <g id="g875">
    <path id="rect53" d="M.5.5h47v47H.5Z" stroke="#464646" stroke-miterlimit="10" fill="url(#linear-gradient)"/>
    <path id="rect55" d="M9.5,8.5h29v36H9.5Z" stroke="#6e6e6e" stroke-miterlimit="10" fill="url(#linear-gradient-2)"/>
    <path id="rect57" d="M12.5,11.5h23v30h-23Z" stroke="#bebebe" stroke-miterlimit="10" fill="url(#linear-gradient-3)"/>
    <path id="path59" d="M29.5,7.5h-2a3,3,0,0,0-3-3h-1a3,3,0,0,0-3,3h-2a2,2,0,0,0-2,2v3h15v-3A2,2,0,0,0,29.5,7.5Z" stroke="#6e6e6e" stroke-miterlimit="10" fill="url(#linear-gradient-4)"/>
    <path id="circle61" d="M25,7a1,1,0,1,1-1-1A1,1,0,0,1,25,7Z" fill="#6e6e6e"/>
    <path id="rect63" d="M34.5.5h13v13h-13Z" fill="url(#linear-gradient-5)"/>
    <path id="polygon65" d="M47,13V1H35Z" fill="url(#linear-gradient-6)"/>
    <path id="line67" d="M35,1,47,13" stroke="#464646" stroke-miterlimit="10" fill="url(#linear-gradient-7)"/>
    <path id="rect69" d="M34.5.5h13v13h-13Z" fill="none" stroke="#464646" stroke-miterlimit="10"/>
    <path id="rect43" d="M15.823,18.467h15.54V22.42H15.823Z" fill="none" stroke="#147391" stroke-width="1.231"/>
    <path id="rect45" d="M15.823,25.583h15.54v3.953H15.823Z" fill="none" stroke="#147391" stroke-width="1.231"/>
    <path id="rect47" d="M15.823,32.7h15.54v3.954H15.823Z" fill="none" stroke="#147391" stroke-width="1.231"/>
  </g>
</svg>
