<svg id="Layer_1" data-name="Layer 1" xmlns="http://www.w3.org/2000/svg" xmlns:xlink="http://www.w3.org/1999/xlink" viewBox="0 0 48 48">
  <defs>
    <linearGradient id="linear-gradient" x1="-15.379" y1="727.937" x2="18.036" y2="761.353" gradientTransform="translate(20.574 -771.267) scale(1.073 1.073)" gradientUnits="userSpaceOnUse">
      <stop offset="0" stop-color="#fff"/>
      <stop offset="0.221" stop-color="#f8f8f8"/>
      <stop offset="0.541" stop-color="#e5e5e5"/>
      <stop offset="0.92" stop-color="#c6c6c6"/>
      <stop offset="1" stop-color="#bebebe"/>
    </linearGradient>
    <linearGradient id="linear-gradient-2" x1="-11.378" y1="713.109" x2="14.035" y2="738.521" gradientTransform="translate(20.574 -771.267) scale(1.073 1.073)" gradientUnits="userSpaceOnUse">
      <stop offset="0" stop-color="#73b4c8"/>
      <stop offset="0.175" stop-color="#6aaec3"/>
      <stop offset="0.457" stop-color="#529eb5"/>
      <stop offset="0.809" stop-color="#2c839f"/>
      <stop offset="1" stop-color="#147391"/>
    </linearGradient>
    <linearGradient id="linear-gradient-3" x1="26.168" y1="23.87" x2="43.829" y2="6.209" gradientTransform="matrix(1, 0, 0, -1, -0.069, 49.994)" xlink:href="#linear-gradient-2"/>
    <linearGradient id="linear-gradient-4" x1="32.525" y1="17.475" x2="37.475" y2="12.525" gradientTransform="matrix(1, 0, 0, -1, -0.069, 49.994)" xlink:href="#linear-gradient"/>
  </defs>
  <g id="g868">
    <g id="g854">
      <path id="path13" d="M.537,13.413v27.9a2.144,2.144,0,0,0,2.144,2.146H41.322a2.144,2.144,0,0,0,2.141-2.146v-27.9Z" fill="url(#linear-gradient)"/>
      <path id="path26" d="M43.463,13.413V2.683A2.144,2.144,0,0,0,41.322.537H2.683A2.146,2.146,0,0,0,.537,2.683h0v10.73Z" stroke="#147391" stroke-miterlimit="9.565" stroke-width="1.073" fill="url(#linear-gradient-2)"/>
      <path id="line28" d="M9.122,13.949V42.922" fill="none" stroke="#6e6e6e" stroke-miterlimit="3.826" stroke-width="1.073"/>
      <path id="line30" d="M17.707,13.949V42.922" fill="none" stroke="#6e6e6e" stroke-miterlimit="3.826" stroke-width="1.073"/>
      <path id="circle42" d="M15.561,6.439a1.61,1.61,0,0,1-3.22,0h0a1.61,1.61,0,0,1,1.61-1.61h0a1.61,1.61,0,0,1,1.61,1.608Z" fill="#fff" stroke="#147391" stroke-miterlimit="9.565" stroke-width="1.073"/>
      <path id="circle44" d="M31.661,6.439a1.61,1.61,0,1,1-1.61-1.61h0A1.612,1.612,0,0,1,31.661,6.439Z" fill="#fff" stroke="#147391" stroke-miterlimit="9.565" stroke-width="1.073"/>
      <path id="rect881" d="M.957,20.387H43.043v1.076H.957Z" fill="#6e6e6e"/>
      <path id="rect881-0" d="M.957,28.14H43.043v1.076H.957Z" fill="#6e6e6e"/>
      <path id="rect881-0-4" d="M.957,35.586H43.043v1.076H.957Z" fill="#6e6e6e"/>
      <path id="rect913" d="M25.756,13.947h1.073V43.039H25.756Z" fill="#6e6e6e"/>
      <path id="rect913-6" d="M34.339,13.947h1.073V43.039H34.339Z" fill="#6e6e6e"/>
      <path id="path46" d="M43.463,41.317V2.683A2.144,2.144,0,0,0,41.322.537H2.683A2.144,2.144,0,0,0,.537,2.681V41.317a2.144,2.144,0,0,0,2.144,2.146H41.322A2.144,2.144,0,0,0,43.463,41.317Z" fill="none" stroke="#464646" stroke-miterlimit="9.565" stroke-width="1.073"/>
    </g>
    <path id="path50" d="M43.255,37.994l4.176-1.481V33.394l-4.176-1.482a.5.5,0,0,1-.314-.634.549.549,0,0,1,.021-.051l1.9-4-2.208-2.208-4,1.9a.5.5,0,0,1-.668-.232.393.393,0,0,1-.018-.043l-1.482-4.155h-3.12l-1.482,4.155a.507.507,0,0,1-.656.285l-.03-.013-4-1.9L25,27.228l1.9,4a.5.5,0,0,1-.24.665.455.455,0,0,1-.051.021l-4.174,1.48v3.12l4.176,1.48a.5.5,0,0,1,.314.634c-.006.017-.013.035-.021.052l-1.9,4,2.207,2.208,4-1.894a.5.5,0,0,1,.663.246.392.392,0,0,1,.023.06l1.482,4.2h3.121l1.482-4.2a.49.49,0,0,1,.686-.314l4,1.9,2.207-2.207-1.9-4a.5.5,0,0,1,.24-.665A.419.419,0,0,1,43.255,37.994Z" stroke="#464646" stroke-linejoin="round" fill="url(#linear-gradient-3)"/>
    <path id="circle52" d="M38.431,34.994a3.5,3.5,0,1,1-3.5-3.5A3.5,3.5,0,0,1,38.431,34.994Z" stroke="#464646" stroke-miterlimit="10" fill="url(#linear-gradient-4)"/>
  </g>
</svg>
