<svg id="Layer_1" data-name="Layer 1" xmlns="http://www.w3.org/2000/svg" xmlns:xlink="http://www.w3.org/1999/xlink" viewBox="0 0 48 48">
  <defs>
    <linearGradient id="linear-gradient" x1="-44.696" y1="81.171" x2="-25.696" y2="62.171" gradientTransform="matrix(1.192, 0, 0, -1.192, 63.942, 107.408)" gradientUnits="userSpaceOnUse">
      <stop offset="0" stop-color="#73b4c8"/>
      <stop offset="0.175" stop-color="#6aaec3"/>
      <stop offset="0.457" stop-color="#529eb5"/>
      <stop offset="0.809" stop-color="#2c839f"/>
      <stop offset="1" stop-color="#147391"/>
    </linearGradient>
    <linearGradient id="linear-gradient-2" x1="26.161" y1="23.839" x2="43.839" y2="6.161" gradientTransform="matrix(1, 0, 0, -1, 0.025, 49.976)" gradientUnits="userSpaceOnUse">
      <stop offset="0" stop-color="#c8c8c8"/>
      <stop offset="0.175" stop-color="#c3c3c3"/>
      <stop offset="0.457" stop-color="#b5b5b5"/>
      <stop offset="0.809" stop-color="#9f9f9f"/>
      <stop offset="1" stop-color="#919191"/>
    </linearGradient>
  </defs>
  <g id="g862">
    <path id="rect874" d="M21.083,0h1.834V44H21.083Z" fill="#969696"/>
    <path id="rect874-9" d="M44,21.083v1.834H0V21.083Z" fill="#969696"/>
    <path d="M10.679,10.679H33.321V33.321H10.679Z" stroke="#464646" stroke-miterlimit="10" stroke-width="1.192" fill="url(#linear-gradient)"/>
    <path id="circle44" d="M47.525,34.975a12.5,12.5,0,0,1-12.5,12.5h0a12.5,12.5,0,0,1-12.5-12.5h0a12.5,12.5,0,0,1,25,0Z" stroke="#464646" stroke-linecap="round" stroke-linejoin="round" stroke-width="1.049" fill="url(#linear-gradient-2)"/>
    <path id="circle46" d="M37.025,41.975a2,2,0,1,1-2-2A2,2,0,0,1,37.025,41.975Z" fill="#fff"/>
    <path id="path48" d="M35.025,40.476a1.5,1.5,0,1,1-1.5,1.5,1.5,1.5,0,0,1,1.5-1.5m0-1a2.5,2.5,0,1,0,2.5,2.5A2.5,2.5,0,0,0,35.025,39.476Z" fill="#919191"/>
    <path id="rect50" d="M33.525,26.476h3v12h-3Z" fill="#fff"/>
    <path id="path52" d="M36.025,26.976v11h-2v-11h2m1-1h-4v13h4Z" fill="#919191"/>
  </g>
</svg>
