<svg id="Layer_1" data-name="Layer 1" xmlns="http://www.w3.org/2000/svg" xmlns:xlink="http://www.w3.org/1999/xlink" viewBox="0 0 48 48">
  <defs>
    <linearGradient id="linear-gradient" x1="-66.842" y1="625.658" x2="-44.342" y2="648.158" gradientTransform="translate(99.588 -1009.02) scale(1.495 1.621)" gradientUnits="userSpaceOnUse">
      <stop offset="0" stop-color="#73b4c8"/>
      <stop offset="0.175" stop-color="#6aaec3"/>
      <stop offset="0.457" stop-color="#529eb5"/>
      <stop offset="0.809" stop-color="#2c839f"/>
      <stop offset="1" stop-color="#147391"/>
    </linearGradient>
    <linearGradient id="linear-gradient-2" x1="23.659" y1="23.289" x2="44.632" y2="7.721" gradientTransform="matrix(1, 0, 0, -1, 0, 49.909)" xlink:href="#linear-gradient"/>
    <linearGradient id="linear-gradient-3" x1="56.397" y1="-19.51" x2="71.22" y2="-30.8" gradientTransform="matrix(0.896, 0, 0, -0.896, -34.599, 6.216)" gradientUnits="userSpaceOnUse">
      <stop offset="0" stop-color="#fff"/>
      <stop offset="0.232" stop-color="#fafafa"/>
      <stop offset="0.496" stop-color="#ededed"/>
      <stop offset="0.775" stop-color="#d6d6d6"/>
      <stop offset="1" stop-color="#bebebe"/>
    </linearGradient>
  </defs>
  <g id="g920">
    <path id="rect46" d="M3.651,22.4h6v13h-6Z" fill="#3c91af" stroke="#147391"/>
    <path id="rect25" d="M1.5,2.982H31.408V43.5H1.5Z" stroke="#464646" stroke-miterlimit="10" fill="url(#linear-gradient)"/>
    <path id="line33" d="M9,30.5h2" fill="none" stroke="#fff" stroke-miterlimit="10"/>
    <path id="line35" d="M9,27.5h2" fill="none" stroke="#fff" stroke-miterlimit="10"/>
    <path id="line37" d="M9,24.5h4" fill="none" stroke="#fff" stroke-miterlimit="10"/>
    <path id="polyline41" d="M16.574,36.5l2-1v6" fill="none" stroke="#fff" stroke-linejoin="round"/>
    <path id="line45" d="M17.074,41.5h3" fill="none" stroke="#fff" stroke-linejoin="round"/>
    <path id="path862" d="M5.726,30.494,3.863,31.8,2,33.1l.008-2.624.007-2.623,1.856,1.32Z" fill="#fff"/>
    <path id="line29-0" d="M9,21.5h2" fill="none" stroke="#fff" stroke-miterlimit="10"/>
    <path id="line33-9" d="M9,18.5h2" fill="none" stroke="#fff" stroke-miterlimit="10"/>
    <path id="line29-3" d="M9,36.5h2" fill="none" stroke="#fff" stroke-miterlimit="10"/>
    <path id="line33-4" d="M9,33.5h2" fill="none" stroke="#fff" stroke-miterlimit="10"/>
    <path id="line27-3" d="M9,39.5h4" fill="none" stroke="#fff" stroke-miterlimit="10"/>
    <path id="line33-9-5" d="M9,15.5h2" fill="none" stroke="#fff" stroke-miterlimit="10"/>
    <path id="line35-1-1" d="M9,12.5h2" fill="none" stroke="#fff" stroke-miterlimit="10"/>
    <path id="line37-6-5" d="M9,9.5h4" fill="none" stroke="#fff" stroke-miterlimit="10"/>
    <path id="polyline41-4" d="M14.845,6.456l2-1v6" fill="none" stroke="#fff" stroke-linejoin="round"/>
    <path id="line45-2" d="M15.345,11.456h3" fill="none" stroke="#fff" stroke-linejoin="round"/>
    <g id="text1093">
      <path id="path887" d="M23.319,8.439a6.138,6.138,0,0,1-.164,1.5,3.339,3.339,0,0,1-.469,1.1,2.063,2.063,0,0,1-.752.681,2.171,2.171,0,0,1-1.012.23,2.051,2.051,0,0,1-.962-.221,1.991,1.991,0,0,1-.708-.653,3.162,3.162,0,0,1-.438-1.047,6.135,6.135,0,0,1-.15-1.427,7.049,7.049,0,0,1,.155-1.56,3.437,3.437,0,0,1,.463-1.131,1.992,1.992,0,0,1,.753-.691,2.227,2.227,0,0,1,1.036-.235Q23.319,4.987,23.319,8.439Zm-.837.075q0-2.874-1.45-2.874Q19.5,5.64,19.5,8.566q0,2.728,1.5,2.729Q22.483,11.3,22.482,8.514Z" fill="#fff" stroke="#fff" stroke-width="0.096"/>
    </g>
    <path id="line52" d="M40.386,34.119v-8" fill="none" stroke="#147391" stroke-miterlimit="10" stroke-width="0.905"/>
    <path id="circle66" d="M47.5,35.409a12,12,0,1,1-12-12A12,12,0,0,1,47.5,35.409Z" stroke="#464646" stroke-linecap="round" stroke-linejoin="round" fill="url(#linear-gradient-2)"/>
    <path id="polyline31-1" d="M33.041,30.468,35.573,33l3.706-6.247" fill="none" stroke="#147391" stroke-linecap="round" stroke-linejoin="round" stroke-width="2.483"/>
    <path id="line33-4-0-0" d="M32.012,37.717,38.8,44.5" fill="none" stroke="#147391" stroke-linecap="round" stroke-miterlimit="10" stroke-width="2.204"/>
    <path id="line35-2-0" d="M32,44.5l6.808-6.808" fill="none" stroke="#147391" stroke-linecap="round" stroke-miterlimit="10" stroke-width="2.204"/>
    <path id="line33-4-0" d="M32.012,37.717,38.8,44.5" fill="none" stroke="#fff" stroke-linecap="round" stroke-miterlimit="10" stroke-width="1.357"/>
    <path id="line35-2" d="M32,44.5l6.808-6.808" fill="none" stroke="#fff" stroke-linecap="round" stroke-miterlimit="10" stroke-width="1.357"/>
    <path id="polyline31-1-2" d="M33.041,30.468,35.573,33l3.706-6.247" fill="none" stroke="#fff" stroke-linecap="round" stroke-linejoin="round" stroke-width="1.241"/>
    <path id="rect1224" d="M23.73,35.063H47.15v1H23.73Z" fill="#464646"/>
    <path id="path1228" d="M34.833,46.88a11.521,11.521,0,0,1-10.458-8.608,13.184,13.184,0,0,1-.313-1.843l-.025-.35H46.95v.153a11.227,11.227,0,0,1-.2,1.5,11.519,11.519,0,0,1-2.309,4.89,15.727,15.727,0,0,1-1.731,1.732,11.438,11.438,0,0,1-5.832,2.457A17.67,17.67,0,0,1,34.833,46.88Zm-2.419-1.35c.193-.071.307-.175,1.6-1.464l1.394-1.387,1.411,1.405c1.314,1.309,1.424,1.41,1.6,1.469a1.232,1.232,0,0,0,.9-.074,1.039,1.039,0,0,0,.572-.917c.029-.492.049-.466-1.534-2.057l-1.387-1.393,1.373-1.375c1.551-1.555,1.562-1.568,1.562-2.045a1.088,1.088,0,0,0-1.164-1.1c-.441.031-.479.061-1.988,1.571l-1.365,1.367-1.4-1.4c-1.3-1.3-1.417-1.4-1.595-1.46a1.315,1.315,0,0,0-.876.051,1.2,1.2,0,0,0-.5.506,1.376,1.376,0,0,0,0,.971,16.344,16.344,0,0,0,1.447,1.527l1.367,1.366-1.378,1.385C30.9,44.035,30.9,44.031,30.9,44.492a.976.976,0,0,0,.075.436,1.216,1.216,0,0,0,.73.645,1.319,1.319,0,0,0,.709-.043Z" fill="url(#linear-gradient-3)"/>
  </g>
</svg>
