<svg id="Layer_1" data-name="Layer 1" xmlns="http://www.w3.org/2000/svg" xmlns:xlink="http://www.w3.org/1999/xlink" viewBox="0 0 48 48">
  <defs>
    <linearGradient id="linear-gradient" x1="-10.858" y1="61.171" x2="23.557" y2="37.798" gradientTransform="matrix(1.069, 0, 0, -1.069, 17.739, 78.613)" gradientUnits="userSpaceOnUse">
      <stop offset="0" stop-color="#73b4c8"/>
      <stop offset="0.175" stop-color="#6aaec3"/>
      <stop offset="0.457" stop-color="#529eb5"/>
      <stop offset="0.809" stop-color="#2c839f"/>
      <stop offset="1" stop-color="#147391"/>
    </linearGradient>
  </defs>
  <g id="g833">
    <path id="path822" d="M8.319,34.891a8.6,8.6,0,0,1-6.1-3.736A10.413,10.413,0,0,1,.634,25.678,9.426,9.426,0,0,1,3.55,18.814a12.265,12.265,0,0,1,1.244-1.037l.587-.405.091-.746a13.828,13.828,0,0,1,5.161-9.178,12.187,12.187,0,0,1,4.3-2.236,9.216,9.216,0,0,1,2.526-.325,9.486,9.486,0,0,1,2.473.289A10.917,10.917,0,0,1,24.9,7.88l.644.609.722-.089a9.056,9.056,0,0,1,6.416,1.549,9.545,9.545,0,0,1,3.085,3.729,16.513,16.513,0,0,1,.527,1.588l.277,1,.342-.015a10.059,10.059,0,0,1,4.415.416A9.483,9.483,0,0,1,47,22.652a8.326,8.326,0,0,1,.412,3.295,8.011,8.011,0,0,1-.958,3.919,9.417,9.417,0,0,1-5.33,4.6c-1.5.5-.146.461-16.973.476C15.743,34.952,8.637,34.928,8.319,34.891Z" stroke="#464646" stroke-linejoin="round" stroke-width="1.069" fill="url(#linear-gradient)"/>
    <g id="g891">
      <path id="path887" d="M23.139,35.279v-7.7l-1.5,1.5-1.5,1.5-1-1-1-1,3.186-3.22,3.186-3.22L27.747,25.3l3.235,3.171-.99.994L29,30.461l-1.507-1.43L25.986,27.6v15.38H23.139Z" fill="#fff" stroke="#fff" stroke-linejoin="round" stroke-width="0.102"/>
      <path id="polygon17-4" d="M24.48,20.65l-7.824,7.957,3.494,3.436,1.95-1.982V44H27V30l2,1.967,3.436-3.492Zm.012,1.4,6.547,6.437L28.99,30.57l-2.978-2.929V42.994c-.929.019-1.946-.007-2.924,0V27.646l-2.949,3L18.055,28.6Z" fill="#147391"/>
    </g>
  </g>
</svg>
