<svg id="Layer_1" data-name="Layer 1" xmlns="http://www.w3.org/2000/svg" xmlns:xlink="http://www.w3.org/1999/xlink" viewBox="0 0 48 48">
  <defs>
    <linearGradient id="linear-gradient" x1="-12.292" y1="717.156" x2="1.339" y2="728.733" gradientTransform="translate(19.095 -741.8) scale(1.064 1.071)" gradientUnits="userSpaceOnUse">
      <stop offset="0" stop-color="#73b4c8"/>
      <stop offset="0.175" stop-color="#6aaec3"/>
      <stop offset="0.457" stop-color="#529eb5"/>
      <stop offset="0.809" stop-color="#2c839f"/>
      <stop offset="1" stop-color="#147391"/>
    </linearGradient>
    <linearGradient id="linear-gradient-2" x1="4.486" y1="727.684" x2="10.633" y2="733.851" gradientTransform="translate(4.807 -719.587) scale(1.012)" gradientUnits="userSpaceOnUse">
      <stop offset="0" stop-color="#fff"/>
      <stop offset="1" stop-color="#bebebe"/>
    </linearGradient>
    <linearGradient id="linear-gradient-3" x1="17.943" y1="-0.21" x2="24.758" y2="-0.21" gradientTransform="matrix(1.008, 0, 0, -0.892, 1.972, 4.803)" xlink:href="#linear-gradient-2"/>
    <linearGradient id="linear-gradient-4" x1="116.89" y1="83.259" x2="124.497" y2="80.122" gradientTransform="matrix(0.765, 0, 0, -1.143, -55.961, 104.31)" xlink:href="#linear-gradient-2"/>
  </defs>
  <g id="g905">
    <path id="path938" d="M5.075,31.939l.032-4.327.307-.63a6.067,6.067,0,0,1,1.841-2.09l.381-.2.846.4a8.252,8.252,0,0,0,3.929.872,8.783,8.783,0,0,0,4.132-.885l.833-.405.572.41A4.251,4.251,0,0,1,19.5,26.957l.372.758v8.564H5.046Z" fill="url(#linear-gradient)"/>
    <path id="path898" d="M12.4,14.753A4.512,4.512,0,0,0,7.845,19.2c0,2.626,2.022,5.662,4.551,5.662s4.55-3.033,4.55-5.662A4.513,4.513,0,0,0,12.4,14.753Z" fill="#464646"/>
    <path id="path896" d="M12.4,15.765a3.5,3.5,0,0,1,3.539,3.441c0,2.022-1.618,4.651-3.539,4.651s-3.539-2.626-3.539-4.651A3.5,3.5,0,0,1,12.4,15.765Z" fill="url(#linear-gradient-2)"/>
    <path id="path894" d="M7.847,24.135a3.808,3.808,0,0,0-1.072.478,7.623,7.623,0,0,0-1.552,1.492,5.234,5.234,0,0,0-.869,1.962,38.38,38.38,0,0,0-.077,4.263l-.014,3.949H5.327l.01-3.984.01-3.985.1-.349A4.591,4.591,0,0,1,6.681,26a6.258,6.258,0,0,1,1.012-.746l.115-.064.313.181a8.877,8.877,0,0,0,7.915.338c.263-.121.595-.286.735-.367l.257-.148.146.079a6.274,6.274,0,0,1,1.111.849A4.675,4.675,0,0,1,19.4,27.97l.083.272.01,4.019.013,4.018h1.061l-.012-4c-.012-3.984-.014-4-.095-4.337a5.1,5.1,0,0,0-1.137-2.208,7.494,7.494,0,0,0-1.227-1.1A3.746,3.746,0,0,0,17,24.14c-.145-.016-.186,0-.5.2a7.926,7.926,0,0,1-3.267,1.115,10.856,10.856,0,0,1-2.047-.054,7.8,7.8,0,0,1-2.859-1.08c-.286-.181-.328-.2-.471-.181Z" fill="#464646"/>
    <path id="path892" d="M7.35,31.223v5.056H8.361V31.223Z" fill="#464646"/>
    <path id="path2" d="M16.451,31.223v5.056h1.01V31.223Z" fill="#464646"/>
    <path id="rect874" d="M.356,41H47.644a.356.356,0,0,1,.356.356v.288a.356.356,0,0,1-.356.356H.356A.356.356,0,0,1,0,41.644v-.288A.356.356,0,0,1,.356,41Z" fill="#147391"/>
    <path id="rect874-1" d="M.356,7H47.644A.356.356,0,0,1,48,7.356v.288A.356.356,0,0,1,47.644,8H.356A.356.356,0,0,1,0,7.644V7.356A.356.356,0,0,1,.356,7Z" fill="#147391"/>
    <path id="rect891" d="M.337,7H.663A.336.336,0,0,1,1,7.337V41.663A.336.336,0,0,1,.663,42H.337A.336.336,0,0,1,0,41.663V7.337A.336.336,0,0,1,.337,7Z" fill="#147391"/>
    <path id="rect891-8" d="M47.337,7h.326A.336.336,0,0,1,48,7.337V41.663a.336.336,0,0,1-.337.337h-.326A.336.336,0,0,1,47,41.663V7.337A.336.336,0,0,1,47.337,7Z" fill="#147391"/>
    <path id="rect908" d="M20.37.477H26.6A.317.317,0,0,1,26.92.8V9.186A.316.316,0,0,1,26.6,9.5H20.37a.316.316,0,0,1-.317-.317V.8A.317.317,0,0,1,20.37.477Z" stroke="#464646" fill="url(#linear-gradient-3)"/>
    <path id="rect910" d="M33.407,10H44.593a.405.405,0,0,1,.407.407v4.186a.405.405,0,0,1-.407.407H33.407A.405.405,0,0,1,33,14.593V10.407A.405.405,0,0,1,33.407,10Z" stroke="#6e6e6e" stroke-width="0.992" fill="url(#linear-gradient-4)"/>
    <path id="rect920" d="M27.6,17h4.8a.6.6,0,0,1,.6.6v.8a.6.6,0,0,1-.6.6H27.6a.6.6,0,0,1-.6-.6v-.8A.6.6,0,0,1,27.6,17Z" fill="#147391"/>
    <path id="rect920-6" d="M27.6,22H41.4a.6.6,0,0,1,.6.6v.8a.6.6,0,0,1-.6.6H27.6a.6.6,0,0,1-.6-.6v-.8A.6.6,0,0,1,27.6,22Z" fill="#147391"/>
    <path id="rect920-6-0" d="M27.6,27H38.4a.6.6,0,0,1,.6.6v.8a.6.6,0,0,1-.6.6H27.6a.6.6,0,0,1-.6-.6v-.8A.6.6,0,0,1,27.6,27Z" fill="#147391"/>
    <path id="rect952" d="M2.878,12.505H22.257a.369.369,0,0,1,.369.369v25.18a.369.369,0,0,1-.369.369H2.878a.368.368,0,0,1-.369-.369V12.874A.368.368,0,0,1,2.878,12.505Z" fill="none" stroke="#6e6e6e" stroke-width="1.018"/>
    <path id="rect903" d="M27.412,33.05h1.655a.361.361,0,0,1,.361.362v1.031a.36.36,0,0,1-.361.361H27.412a.36.36,0,0,1-.361-.361V33.412A.361.361,0,0,1,27.412,33.05Z" fill="#6e6e6e"/>
    <path id="path950" d="M30.066,34.131h2.219l.006,2.995c.01.4.257.494.5.6h2.183l-.011,1.188-3.545,0-.025-2.822-1.322,0Z" fill="#6e6e6e" stroke="#6e6e6e" stroke-width="0.1"/>
    <path id="path952-8" d="M27.084,32.457l2.415.012c.314.151.275.405.267.763l.793-.008V31.236l-3.005.013c-.381.037-.444.306-.457.61Z" fill="#6e6e6e" stroke="#6e6e6e" stroke-width="0.1"/>
    <path id="path952-8-5" d="M34.976,32.435l-2.415.013c-.313.15-.274.4-.267.762L31.5,33.2V31.214l3,.013c.381.037.444.306.457.61Z" fill="#6e6e6e" stroke="#6e6e6e" stroke-width="0.1"/>
    <path id="path952-8-1" d="M27.051,37.689l2.415-.013c.314-.15.275-.405.267-.762l.793.008v1.987l-3-.012c-.381-.037-.444-.306-.457-.611Z" fill="#6e6e6e" stroke="#6e6e6e" stroke-width="0.1"/>
    <path id="rect903-8" d="M27.412,35.3h1.655a.361.361,0,0,1,.361.362v1.031a.36.36,0,0,1-.361.361H27.412a.36.36,0,0,1-.361-.361V35.658A.361.361,0,0,1,27.412,35.3Z" fill="#6e6e6e"/>
    <path id="rect903-8-9" d="M33,35.3h1.655a.361.361,0,0,1,.361.362v1.031a.36.36,0,0,1-.361.361H33a.36.36,0,0,1-.361-.361V35.658A.361.361,0,0,1,33,35.3Z" fill="#6e6e6e"/>
    <path id="rect903-8-9-2" d="M33.035,33.05H34.69a.361.361,0,0,1,.361.362v1.031a.36.36,0,0,1-.361.361H33.035a.36.36,0,0,1-.361-.361V33.412A.361.361,0,0,1,33.035,33.05Z" fill="#6e6e6e"/>
  </g>
</svg>
