<svg id="Layer_1" data-name="Layer 1" xmlns="http://www.w3.org/2000/svg" xmlns:xlink="http://www.w3.org/1999/xlink" viewBox="0 0 48 48">
  <defs>
    <linearGradient id="linear-gradient" x1="-11.208" y1="64.958" x2="33.792" y2="19.958" gradientTransform="matrix(1.043, 0, 0, -1.043, 12.217, 68.304)" gradientUnits="userSpaceOnUse">
      <stop offset="0" stop-color="#fff"/>
      <stop offset="0.228" stop-color="#fafafa"/>
      <stop offset="0.488" stop-color="#ededed"/>
      <stop offset="0.762" stop-color="#d7d6d6"/>
      <stop offset="1" stop-color="#bdbcbc"/>
    </linearGradient>
    <linearGradient id="linear-gradient-2" x1="143.804" y1="-138.741" x2="161.804" y2="-156.741" gradientTransform="matrix(0.667, 0, 0, -0.667, -63.417, -60.04)" gradientUnits="userSpaceOnUse">
      <stop offset="0" stop-color="#73b4c8"/>
      <stop offset="0.175" stop-color="#6aaec3"/>
      <stop offset="0.457" stop-color="#529eb5"/>
      <stop offset="0.809" stop-color="#2c839f"/>
      <stop offset="1" stop-color="#147391"/>
    </linearGradient>
    <linearGradient id="linear-gradient-3" x1="143.985" y1="-138.98" x2="161.985" y2="-156.98" gradientTransform="matrix(0.667, 0, 0, -0.667, -92.494, -89.157)" xlink:href="#linear-gradient-2"/>
    <linearGradient id="linear-gradient-4" x1="165.165" y1="-139.218" x2="183.165" y2="-157.218" gradientTransform="matrix(0.666, 0, 0, -0.666, -106.565, -60.273)" gradientUnits="userSpaceOnUse">
      <stop offset="0" stop-color="#fff"/>
      <stop offset="0.221" stop-color="#f8f8f8"/>
      <stop offset="0.541" stop-color="#e5e5e5"/>
      <stop offset="0.92" stop-color="#c6c6c6"/>
      <stop offset="1" stop-color="#bebebe"/>
    </linearGradient>
    <linearGradient id="linear-gradient-5" x1="167.144" y1="-141.831" x2="185.144" y2="-159.831" gradientTransform="matrix(0.663, 0, 0, -0.663, -78.335, -90.545)" xlink:href="#linear-gradient-4"/>
  </defs>
  <g id="g1105">
    <path id="rect13" d="M.522.522H47.478V47.478H.522Z" stroke="#464646" stroke-linecap="round" stroke-miterlimit="10" stroke-width="1.043" fill="url(#linear-gradient)"/>
    <path id="rect925" d="M9.058,13.322h.884A.058.058,0,0,1,10,13.38V27.942A.058.058,0,0,1,9.942,28H9.058A.058.058,0,0,1,9,27.942V13.38A.058.058,0,0,1,9.058,13.322Z" fill="#147391"/>
    <path id="rect925-3" d="M25,27.063v.874a.063.063,0,0,1-.063.063H9.063A.063.063,0,0,1,9,27.937v-.874A.063.063,0,0,1,9.063,27H24.937A.063.063,0,0,1,25,27.063Z" fill="#147391"/>
    <path id="rect925-6" d="M24.047,27h.906a.047.047,0,0,1,.047.047V38.953a.047.047,0,0,1-.047.047h-.906A.047.047,0,0,1,24,38.953V27.047A.047.047,0,0,1,24.047,27Z" fill="#147391"/>
    <path id="rect925-3-7" d="M28.144,38.016v.968a.016.016,0,0,1-.016.016H24.016A.016.016,0,0,1,24,38.984v-.968A.016.016,0,0,1,24.016,38h4.112A.016.016,0,0,1,28.144,38.016Z" fill="#147391"/>
    <path id="path849-7" d="M44.5,44.5H32.5V32.5H44.5Z" stroke="#147391" stroke-width="0.994" fill="url(#linear-gradient-2)"/>
    <path id="rect925-3-9" d="M21,38.024v.952a.024.024,0,0,1-.024.024H15.024A.024.024,0,0,1,15,38.976v-.952A.024.024,0,0,1,15.024,38h5.952A.024.024,0,0,1,21,38.024Z" fill="#464646"/>
    <path id="rect925-6-6" d="M20.061,23.036h.878A.061.061,0,0,1,21,23.1V38.439a.061.061,0,0,1-.061.061h-.878A.061.061,0,0,1,20,38.439V23.1A.061.061,0,0,1,20.061,23.036Z" fill="#464646"/>
    <path id="rect925-3-1" d="M39,23.072v.856a.072.072,0,0,1-.072.072H20.792a.072.072,0,0,1-.072-.072v-.856A.072.072,0,0,1,20.792,23H38.928A.072.072,0,0,1,39,23.072Z" fill="#464646"/>
    <path id="rect925-4" d="M38.018,19.459h.964a.018.018,0,0,1,.018.018v4.5a.018.018,0,0,1-.018.018h-.964A.018.018,0,0,1,38,23.982v-4.5A.018.018,0,0,1,38.018,19.459Z" fill="#464646"/>
    <path id="path1032-7" d="M31.918,38.5,27,41.3V35.7Z" fill="#147391"/>
    <path id="path849" d="M15.5,15.5H3.5V3.5h12Z" stroke="#147391" stroke-width="1" fill="url(#linear-gradient-3)"/>
    <path id="path847-5" d="M15.5,32.5H3.5v12h12Z" stroke="#147391" fill="url(#linear-gradient-4)"/>
    <path id="path847" d="M44.47,3.53H32.53V15.47H44.47Z" stroke="#147391" stroke-width="1.061" fill="url(#linear-gradient-5)"/>
    <path id="path1032-7-4" d="M38.535,16.074,41.32,21l-5.6-.018Z" fill="#464646"/>
  </g>
</svg>
