<svg id="Livello_3" data-name="Livello 3" xmlns="http://www.w3.org/2000/svg" xmlns:xlink="http://www.w3.org/1999/xlink" viewBox="0 0 48 48">
  <defs>
    <linearGradient id="linear-gradient" x1="50.149" y1="13.005" x2="67.473" y2="-4.63" gradientTransform="matrix(1, 0, 0, -1, -26.034, 36.831)" gradientUnits="userSpaceOnUse">
      <stop offset="0" stop-color="#fff"/>
      <stop offset="0.221" stop-color="#f7f8f8"/>
      <stop offset="0.541" stop-color="#e5e5e5"/>
      <stop offset="0.92" stop-color="#c7c6c6"/>
      <stop offset="1" stop-color="#bfbebe"/>
    </linearGradient>
    <linearGradient id="linear-gradient-2" x1="141.582" y1="928.123" x2="150.583" y2="928.123" gradientTransform="translate(-184.421 -1252.755) scale(1.33 1.363)" gradientUnits="userSpaceOnUse">
      <stop offset="0" stop-color="#74b5c8"/>
      <stop offset="0.175" stop-color="#6baec3"/>
      <stop offset="0.457" stop-color="#539eb5"/>
      <stop offset="0.809" stop-color="#2f849f"/>
      <stop offset="1" stop-color="#187491"/>
    </linearGradient>
    <linearGradient id="linear-gradient-3" x1="3.281" y1="35.902" x2="12.598" y2="33.869" gradientTransform="matrix(1.109, 0, 0, -1.046, 26.647, 67.665)" xlink:href="#linear-gradient-2"/>
  </defs>
  <g id="g932">
    <path id="path1610" d="M9.782,17.619c.062,3.531.122,7.063,1.3,8.9s3.456,1.989,5.457-.8,3.74-8.566,5.217-12.407,2.7-5.774,4.088-6.561,2.942-.43,4.075,1.487a19.786,19.786,0,0,1,1.872,4.341A78.242,78.242,0,0,1,34.422,25.4" fill="none" stroke="#474747"/>
    <path id="path988" d="M24.407,26.492v21.1l19.474.1.814-1.78,1.373-1.068L47.8,43.576l-.2-19.322-20.135.153.1,2.085Z" fill="url(#linear-gradient)"/>
    <path id="path1012" d="M28.278,33.51a.849.849,0,0,1-.836.863h0a.85.85,0,0,1-.836-.863h0a.836.836,0,1,1,1.672,0Z" fill="#fff"/>
    <path id="path1012-2" d="M32.412,39.508a.849.849,0,0,1-.836.863h0a.85.85,0,0,1-.836-.863h0a.85.85,0,0,1,.836-.862h0a.849.849,0,0,1,.836.862Z" fill="#fff"/>
    <path id="path1012-7" d="M28.446,43.525a.849.849,0,0,1-.836.863h0a.849.849,0,0,1-.836-.863h0a.849.849,0,0,1,.836-.862h0a.849.849,0,0,1,.836.862Z" fill="#fff"/>
    <path id="path1012-8" d="M37.446,43.475a.849.849,0,0,1-.836.862h0a.849.849,0,0,1-.836-.862h0a.849.849,0,0,1,.836-.863h0a.849.849,0,0,1,.836.863Z" fill="#fff"/>
    <path id="path1012-9" d="M42.378,43.576a.849.849,0,0,1-.836.863h0a.85.85,0,0,1-.836-.863h0a.851.851,0,0,1,.836-.863h0a.85.85,0,0,1,.836.863Z" fill="#fff"/>
    <path id="path1012-4" d="M45.378,35.492a.849.849,0,0,1-.836.862h0a.85.85,0,0,1-.836-.862h0a.85.85,0,0,1,.836-.863h0a.849.849,0,0,1,.836.863Z" fill="#fff"/>
    <path id="path1012-6" d="M45.429,27.508a.849.849,0,0,1-.836.863h0a.85.85,0,0,1-.836-.863h0a.85.85,0,0,1,.836-.862h0a.849.849,0,0,1,.836.862Z" fill="#fff"/>
    <path id="path1012-92" d="M29.361,29.441a.836.836,0,1,1-.836-.863A.85.85,0,0,1,29.361,29.441Z" fill="#fff"/>
    <path id="path1010" d="M29.447,29.5a.92.92,0,1,1-.917-.845A.883.883,0,0,1,29.447,29.5Z" fill="#fff"/>
    <path id="path1614" d="M6.278,2.766a.543.543,0,0,0-.5.58v4.34a.7.7,0,0,0,.014.08H2.246a.462.462,0,0,0-.462.463V8.3a.462.462,0,0,0,.462.463h.572l0,0v4.819h.008c.919,2.491,3.759,4.159,6.983,4.159s6.08-1.662,6.992-4.159V8.766h.5a.463.463,0,0,0,.463-.463V8.229a.463.463,0,0,0-.463-.463H13.755a.535.535,0,0,0,.014-.08V3.346a.5.5,0,1,0-1,0v4.34a.535.535,0,0,0,.014.08H6.765a.7.7,0,0,0,.014-.08V3.346A.543.543,0,0,0,6.278,2.766Z" fill="#474747" stroke="#6f6f6f" stroke-width="0.019"/>
    <path id="path1614-9" d="M3.838,8.737l-.02,4.776c.806,2.255,3.254,3.232,5.993,3.233S15,15.782,15.8,13.53V8.736Z" fill="url(#linear-gradient-2)"/>
    <path id="path1052-2-3" d="M41.492,42a1.5,1.5,0,1,0,1.5,1.5A1.5,1.5,0,0,0,41.492,42Zm0,1a.5.5,0,1,1-.5.5A.5.5,0,0,1,41.492,43Z" fill="#147391"/>
    <path id="path1052-2-1-5" d="M31.49,38a1.5,1.5,0,0,0-1.5,1.5h0a1.5,1.5,0,0,0,1.5,1.5h0a1.5,1.5,0,1,0,0-3Zm0,1a.5.5,0,1,1-.5.5A.5.5,0,0,1,31.49,39Z" fill="#147391"/>
    <path id="rect1193" d="M32.5,39h7.544v1H32.5Z" fill="#147391"/>
    <path id="rect1195" d="M41,40.739h1v2.32H41Z" fill="#147391"/>
    <path id="rect1195-4" d="M39.378,39.748,40.042,39,42,40.739l-.664.748Z" fill="#147391"/>
    <path id="rect1193-3" d="M29.025,43.034H35.61v1H29.025Z" fill="#147391"/>
    <path id="path1052-2-3-2" d="M36.534,41.949a1.5,1.5,0,1,0,1.5,1.5A1.5,1.5,0,0,0,36.534,41.949Zm0,1a.5.5,0,1,1-.5.5A.5.5,0,0,1,36.534,42.949Z" fill="#147391"/>
    <path id="path1052-2-3-8" d="M27.585,42.034a1.5,1.5,0,1,0,1.5,1.5A1.5,1.5,0,0,0,27.585,42.034Zm0,1a.5.5,0,1,1-.5.5A.5.5,0,0,1,27.585,43.034Z" fill="#147391"/>
    <path id="rect924-0" d="M27,24v2H24v6.681h1c.014-1.894.026-3.787,0-5.681h3V25H47V43.212a20,20,0,0,0-2.23,1.78A11.792,11.792,0,0,0,43.465,47H42v1h2.41a4.309,4.309,0,0,1,1.275-2.242A12.3,12.3,0,0,1,48,44V24Z" fill="#464646"/>
    <path id="rect851" d="M24,30.373h1V48H24Z" fill="#464646"/>
    <path id="rect851-5" d="M42,47v1H24V47Z" fill="#464646"/>
    <path id="path1052-7" d="M44.5,26A1.5,1.5,0,1,0,46,27.5h0A1.5,1.5,0,0,0,44.5,26Zm0,1a.5.5,0,1,1-.5.5A.5.5,0,0,1,44.5,27Z" fill="#147391"/>
    <path id="path1052-2-0" d="M44.5,34A1.5,1.5,0,1,0,46,35.5,1.5,1.5,0,0,0,44.5,34Zm0,1a.5.5,0,1,1-.5.5A.5.5,0,0,1,44.5,35Z" fill="#147391"/>
    <path id="path1052-2-1-1" d="M27.5,32A1.5,1.5,0,1,0,29,33.5,1.5,1.5,0,0,0,27.5,32Zm0,1a.5.5,0,1,1-.5.5A.5.5,0,0,1,27.5,33Z" fill="#147391"/>
    <path id="path1052-2-1-8-7" d="M28.5,28A1.5,1.5,0,0,0,27,29.5h0A1.5,1.5,0,0,0,28.5,31h0a1.5,1.5,0,0,0,0-3Zm0,1a.5.5,0,1,1-.5.5h0A.5.5,0,0,1,28.5,29Z" fill="#147391"/>
    <path id="rect845" d="M29.5,29h2.6v1H29.5Z" fill="#147391"/>
    <path id="rect847" d="M28.5,33H32v1H28.5Z" fill="#147391"/>
    <path id="path851" d="M43.273,35.063c-.036-.039-.279-.293-.539-.566l-.471-.5H41V32.984h.757c.832,0,.808,0,.919.055a.511.511,0,0,1,.1.074c.028.026.269.275.535.554s.49.514.5.522.059.06.115.117l.1.105-.325.34-.344.362-.02.02Z" fill="#147391"/>
    <path id="path851-1" d="M43.167,27.922l-.539.566-.472.5H40.893V30h.758c.831,0,.808,0,.919-.054a.511.511,0,0,0,.1-.074c.028-.026.268-.276.534-.555s.49-.514.5-.521l.115-.118.1-.1-.324-.345-.344-.361-.02-.021Z" fill="#147391"/>
    <path id="rect904" d="M31,28.059h2v3H31Z" fill="#464646"/>
    <path id="rect904-4" d="M40,28h2v3H40Z" fill="#464646"/>
    <path id="rect904-2" d="M31.009,32.059h2v3h-2Z" fill="#464646"/>
    <path id="path923" d="M32.731,31.416V26.754h1.635l1.837.051.013.479v.453l.362.055.3-.1.1-.418-.154-.635,1.972.114h1.591v9.324H32.731Z" stroke="#fff" stroke-width="0.001" fill="url(#linear-gradient-3)"/>
    <path id="rect859" d="M36.015,26.72h1.074v1.14H36.015Z" fill="#464646"/>
    <path id="rect960-8" d="M32,26h9v1H32Z" fill="#464646"/>
    <path id="rect958-9" d="M32,27h1v9H32Z" fill="#464646"/>
    <path id="rect960-0-7" d="M32,36h9v1H32Z" fill="#464646"/>
    <path id="rect958-3-9" d="M40,27h1v9H40Z" fill="#464646"/>
    <path id="rect904-6" d="M40,32h2v3H40Z" fill="#464646"/>
  </g>
</svg>
