<svg id="Artwork" xmlns="http://www.w3.org/2000/svg" xmlns:xlink="http://www.w3.org/1999/xlink" viewBox="0 0 48 48">
  <defs>
    <linearGradient id="linear-gradient" x1="-130.801" y1="571.869" x2="-108.534" y2="586.419" gradientTransform="translate(288.5 -1129.049) scale(2.177 1.993)" gradientUnits="userSpaceOnUse">
      <stop offset="0" stop-color="#73b4c8"/>
      <stop offset="0.319" stop-color="#6aaec3"/>
      <stop offset="0.57" stop-color="#529eb5"/>
      <stop offset="0.809" stop-color="#2c839f"/>
      <stop offset="1" stop-color="#147391"/>
    </linearGradient>
    <linearGradient id="linear-gradient-2" x1="-112.899" y1="504.636" x2="-83.688" y2="512.633" gradientTransform="translate(218.378 -1493.789) scale(1.896 2.955)" gradientUnits="userSpaceOnUse">
      <stop offset="0" stop-color="#73b4c8"/>
      <stop offset="0.175" stop-color="#6aaec3"/>
      <stop offset="0.457" stop-color="#529eb5"/>
      <stop offset="0.809" stop-color="#2c839f"/>
      <stop offset="1" stop-color="#147391"/>
    </linearGradient>
    <linearGradient id="linear-gradient-3" x1="-986.908" y1="672.384" x2="-1001.054" y2="686.867" gradientTransform="matrix(-1.147, 0, 0, 1.147, -1105.467, -745.248)" gradientUnits="userSpaceOnUse">
      <stop offset="0" stop-color="#fff"/>
      <stop offset="0.221" stop-color="#f8f8f8"/>
      <stop offset="0.541" stop-color="#e5e5e5"/>
      <stop offset="0.92" stop-color="#c6c6c6"/>
      <stop offset="1" stop-color="#bebebe"/>
    </linearGradient>
  </defs>
  <g id="g867">
    <g id="g946-1-5">
      <g id="g866">
        <path id="path915-2-2" d="M18.518,38.875l.353-6.762L11.4,20.2A137.812,137.812,0,0,0,2.956,8.268a2.534,2.534,0,0,1,1.355-.007,77.75,77.75,0,0,0,11.9,1.813c3.148.208,12.577.174,15.757-.057A73.21,73.21,0,0,0,44.482,7.94l-.019.265.015-.166c-.123.172-4.017,5.868-8.362,12.074A74.46,74.46,0,0,0,29.3,32.5l.075,1.032.034,4.3-.513,3.9-5.222,3.043A27.257,27.257,0,0,1,18.957,46.9c-.028,0-.245-3.155-.245-7.247Z" fill-rule="evenodd" fill="url(#linear-gradient)"/>
        <path id="path933-3-6" d="M18.871,10.872C11.7,10.273,5.7,8.557,3,6.327A1.9,1.9,0,0,1,2.565,5.9c0-.323,2.372-1.745,3.936-2.359C11.187,1.7,16.655.863,23.984.863c6.822,0,12.089.567,16.579,2.115,2.65.913,4.971,2.544,4.78,3.025a9.174,9.174,0,0,1-2.714,1.78,37.625,37.625,0,0,1-11.2,2.86A107.61,107.61,0,0,1,18.871,10.872Z" fill-rule="evenodd" fill="url(#linear-gradient-2)"/>
        <path id="path2" d="M46,6.455C46,2.24,34.634,0,24.005,0S2,2.119,2,6.334a1.945,1.945,0,0,0,.509,1.119L17.947,31,18,47.478c0,.4.672.522.873.522s10.711-6.054,10.711-6.054a.8.8,0,0,0,.4-.8L30,31.011,45.381,7.684A2.38,2.38,0,0,0,46,6.455ZM24,.886A55.988,55.988,0,0,1,39.635,2.832c3.635,1.112,5.424,2.52,5.424,3.223s-2.526,1.506-6.17,2.3a67.286,67.286,0,0,1-14.923,1.6A72.929,72.929,0,0,1,8.624,8.318C5.01,7.551,3.162,6.881,3.162,6.178S4.431,4.159,8.045,3.007A56.021,56.021,0,0,1,24,.886ZM29.639,29.7a3.842,3.842,0,0,0-.624,1.3l-.048,10.166-9.921,5.626L19.033,31a2.619,2.619,0,0,0-.515-1.074L4.3,8.332C8.708,9.737,17.582,11,24,11A77.793,77.793,0,0,0,43.693,8.307Z" fill="#464646"/>
      </g>
    </g>
    <path id="path933" d="M41.264,43.365c1.745-1.8,3.785-3.711,4.357-4.3l1.255-1.25L40.9,31.322,34.7,25.3l-3.82-.216-3.509.179-1.028.673-.729.915.165,3.7-.033,3.9,5.9,6.142c3.187,3.318,5.926,5.93,6.02,6.029l.391.216ZM29.121,30.555a1.537,1.537,0,0,1-.543-2.727,1.437,1.437,0,0,1,2.466,1.087,1.467,1.467,0,0,1-.68,1.359C29.833,30.742,29.776,30.751,29.121,30.555Z" stroke="#464646" stroke-linecap="round" stroke-width="0.082" fill="url(#linear-gradient-3)"/>
    <path id="path8" d="M38.058,48l9.87-10.155-13-13.376H27.013l-1.958,2.018v8.14Zm8.481-10.155-8.481,8.72L26.039,34.2V26.9l1.378-1.417h7.1Z" fill="#464646"/>
    <path id="rect2" d="M42.739,38.248l-6.9-7.1-.7.717,6.9,7.1Z" fill="#464646"/>
    <path id="rect4" d="M40.776,40.279l-5.928-6.092-.7.718L40.076,41Z" fill="#464646"/>
    <path id="rect6" d="M38.8,42.3l-6.9-7.1-.7.717,6.9,7.1Z" fill="#464646"/>
    <path id="path1050" d="M29.526,18.748a1.817,1.817,0,1,0,1.813,1.821v0h0A1.817,1.817,0,0,0,29.526,18.748Zm0,1a.8.8,0,0,1,.8.8h0a.8.8,0,0,1-.8.8h0a.8.8,0,0,1-.8-.8h0A.8.8,0,0,1,29.526,19.748Z" fill="#464646"/>
    <path id="path1050-2" d="M29.553,27.246a1.817,1.817,0,1,0,1.816,1.819,1.817,1.817,0,0,0-1.816-1.819Zm0,1a.8.8,0,0,1,.8.8h0a.8.8,0,0,1-.8.8h0a.8.8,0,0,1-.8-.8h0A.8.8,0,0,1,29.553,28.246Z" fill="#464646"/>
    <path id="path914" d="M29.428,20.625c-1.909,4.854.011,8.209.021,8.228" fill="none" stroke="#6e6e6e" stroke-linecap="round" stroke-width="1.15"/>
  </g>
</svg>
