<svg id="Layer_1" data-name="Layer 1" xmlns="http://www.w3.org/2000/svg" xmlns:xlink="http://www.w3.org/1999/xlink" viewBox="0 0 48 48">
  <defs>
    <linearGradient id="linear-gradient" x1="23.483" y1="18.017" x2="61.983" y2="-20.483" gradientTransform="matrix(0.938, 0, 0, -0.938, -23.187, 23.688)" gradientUnits="userSpaceOnUse">
      <stop offset="0" stop-color="#fff"/>
      <stop offset="0.221" stop-color="#f8f8f8"/>
      <stop offset="0.541" stop-color="#e5e5e5"/>
      <stop offset="0.92" stop-color="#c6c6c6"/>
      <stop offset="1" stop-color="#bebebe"/>
    </linearGradient>
    <linearGradient id="linear-gradient-2" x1="26.483" y1="15.017" x2="58.983" y2="-17.483" gradientTransform="matrix(0.938, 0, 0, -0.938, -23.187, 23.688)" gradientUnits="userSpaceOnUse">
      <stop offset="0" stop-color="#fff"/>
      <stop offset="0.335" stop-color="#f8f8f8"/>
      <stop offset="0.82" stop-color="#e5e5e5"/>
      <stop offset="1" stop-color="#dcdcdc"/>
    </linearGradient>
    <linearGradient id="linear-gradient-3" x1="42.733" y1="15.767" x2="42.733" y2="24.767" gradientTransform="matrix(0.938, 0, 0, -0.938, -23.187, 23.688)" gradientUnits="userSpaceOnUse">
      <stop offset="0" stop-color="#bebebe"/>
      <stop offset="0.045" stop-color="#c4c4c4"/>
      <stop offset="0.268" stop-color="#dedede"/>
      <stop offset="0.497" stop-color="#f0f0f0"/>
      <stop offset="0.736" stop-color="#fbfbfb"/>
      <stop offset="1" stop-color="#fff"/>
    </linearGradient>
    <linearGradient id="linear-gradient-4" x1="26.169" y1="23.87" x2="43.829" y2="6.208" gradientTransform="matrix(1, 0, 0, -1, 0.065, 49.91)" gradientUnits="userSpaceOnUse">
      <stop offset="0" stop-color="#73b4c8"/>
      <stop offset="0.175" stop-color="#6aaec3"/>
      <stop offset="0.457" stop-color="#529eb5"/>
      <stop offset="0.809" stop-color="#2c839f"/>
      <stop offset="1" stop-color="#147391"/>
    </linearGradient>
    <linearGradient id="linear-gradient-5" x1="32.525" y1="17.475" x2="37.475" y2="12.525" gradientTransform="matrix(1, 0, 0, -1, 0.065, 49.91)" xlink:href="#linear-gradient"/>
  </defs>
  <g id="g889">
    <path id="rect13" d="M.469,5.156H33.281V44.531H.469Z" stroke="#464646" stroke-miterlimit="10" stroke-width="0.938" fill="url(#linear-gradient)"/>
    <path id="rect24" d="M3.281,7.969H30.469v33.75H3.281Z" stroke="#bebebe" stroke-miterlimit="10" stroke-width="0.938" fill="url(#linear-gradient-2)"/>
    <path id="path39" d="M22.969,4.219H21.094V3.281A2.763,2.763,0,0,0,18.281.469H15.469a2.763,2.763,0,0,0-2.813,2.812v.938H10.781A1.881,1.881,0,0,0,8.906,6.094V8.906H24.844V6.094A1.881,1.881,0,0,0,22.969,4.219Z" stroke="#464646" stroke-miterlimit="10" stroke-width="0.938" fill="url(#linear-gradient-3)"/>
    <path id="circle41" d="M17.813,3.75a.938.938,0,0,1-.938.938h0a.937.937,0,0,1-.937-.938h0a.938.938,0,0,1,1.875,0Z" fill="#464646"/>
    <path id="rect43" d="M6.094,15.469H27.656v4.687H6.094Z" fill="none" stroke="#147391" stroke-width="0.938"/>
    <path id="rect45" d="M6.094,23.906H27.656v4.688H6.094Z" fill="none" stroke="#147391" stroke-width="0.938"/>
    <path id="rect47" d="M6.094,32.344H27.656v4.687H6.094Z" fill="none" stroke="#147391" stroke-width="0.938"/>
    <path id="path50" d="M43.389,37.91l4.176-1.481V33.31l-4.176-1.482a.5.5,0,0,1-.314-.634.389.389,0,0,1,.021-.051l1.9-4L42.788,24.94l-3.995,1.9a.5.5,0,0,1-.668-.233.379.379,0,0,1-.018-.042L36.625,22.41h-3.12l-1.482,4.155a.506.506,0,0,1-.656.284l-.03-.012-4-1.9L25.13,27.144l1.9,4a.5.5,0,0,1-.24.665.455.455,0,0,1-.051.021l-4.174,1.48v3.12l4.176,1.48a.5.5,0,0,1,.314.633c-.006.018-.013.035-.021.053l-1.9,4L27.341,44.8l3.995-1.894a.5.5,0,0,1,.663.245.449.449,0,0,1,.023.061l1.482,4.2h3.121l1.482-4.2a.486.486,0,0,1,.686-.314l4,1.9L45,42.6l-1.9-4a.5.5,0,0,1,.24-.666A.414.414,0,0,1,43.389,37.91Z" stroke="#464646" stroke-linejoin="round" fill="url(#linear-gradient-4)"/>
    <path id="circle52" d="M38.565,34.91a3.5,3.5,0,1,1-3.5-3.5A3.5,3.5,0,0,1,38.565,34.91Z" stroke="#464646" stroke-miterlimit="10" fill="url(#linear-gradient-5)"/>
  </g>
</svg>
