<svg id="Image" xmlns="http://www.w3.org/2000/svg" xmlns:xlink="http://www.w3.org/1999/xlink" viewBox="0 0 48 48">
  <defs>
    <linearGradient id="linear-gradient" x1="51.677" y1="26.256" x2="55.345" y2="19.353" gradientTransform="matrix(1, 0, 0, -1, -50.768, 25.91)" gradientUnits="userSpaceOnUse">
      <stop offset="0" stop-color="#fff"/>
      <stop offset="1" stop-color="#dcdcdc"/>
    </linearGradient>
    <linearGradient id="linear-gradient-2" x1="51.677" y1="26.256" x2="55.345" y2="19.353" gradientTransform="matrix(1, 0, 0, -1, -32.431, 47.196)" xlink:href="#linear-gradient"/>
    <linearGradient id="linear-gradient-3" x1="9.369" y1="51.648" x2="24.509" y2="38.56" gradientTransform="matrix(1, 0, 0, -1, 0, 50)" xlink:href="#linear-gradient"/>
    <linearGradient id="linear-gradient-4" x1="22.486" y1="754.034" x2="44.768" y2="774.517" gradientTransform="translate(0 -743.276)" gradientUnits="userSpaceOnUse">
      <stop offset="0" stop-color="#73b4c8"/>
      <stop offset="0.175" stop-color="#6caec3"/>
      <stop offset="0.457" stop-color="#549eb4"/>
      <stop offset="0.809" stop-color="#2f84a0"/>
      <stop offset="1" stop-color="#197492"/>
    </linearGradient>
    <linearGradient id="linear-gradient-5" x1="25.213" y1="749.485" x2="42.897" y2="761.128" gradientTransform="translate(0 -743.276)" gradientUnits="userSpaceOnUse">
      <stop offset="0" stop-color="#afd7e1"/>
      <stop offset="1" stop-color="#73b4c8"/>
    </linearGradient>
    <linearGradient id="linear-gradient-6" x1="4.871" y1="39.399" x2="21.619" y2="27.671" gradientTransform="matrix(1, 0, 0, -1, 20, 45)" xlink:href="#linear-gradient-5"/>
    <linearGradient id="linear-gradient-7" x1="10.943" y1="772.193" x2="28.551" y2="758.016" xlink:href="#linear-gradient-4"/>
    <linearGradient id="linear-gradient-8" x1="-2.052" y1="771.512" x2="14.697" y2="759.784" xlink:href="#linear-gradient-5"/>
    <linearGradient id="linear-gradient-9" x1="2.311" y1="27.073" x2="33.145" y2="5.644" gradientTransform="matrix(1, 0, 0, -1, 0, 50)" xlink:href="#linear-gradient"/>
  </defs>
  <g id="g906">
    <path id="rect887-5" d="M4.315,8.953h8.341v9.924H4.315Z" fill="url(#linear-gradient)"/>
    <path id="rect887" d="M22.651,30.238h8.342v9.924H22.651Z" fill="url(#linear-gradient-2)"/>
    <path id="line28" d="M1.5,29.5l4-27" fill="none" stroke="#464646" stroke-miterlimit="10"/>
    <path id="line30" d="M42.5,2.5l4,27" fill="none" stroke="#464646" stroke-miterlimit="10"/>
    <g id="g36">
      <path id="rect32" d="M5.5,2.5h37v17H5.5Z" fill="url(#linear-gradient-3)"/>
      <path id="path34" d="M42,3V19H6V3H42m1-1H5V20H43Z" fill="#464646"/>
    </g>
    <path id="path38" d="M45.5,12V28.714c0,1.734-1.159,3.466-3.381,4.789-4.47,2.661-11.744,2.661-16.229.009-2.264-1.339-3.395-3.1-3.39-4.853V12" fill="url(#linear-gradient-4)"/>
    <path id="path40" d="M42.117,7.4c4.493,2.531,4.517,6.65.038,9.19S30.389,19.134,25.9,16.6s-4.531-6.659-.053-9.2S37.609,4.865,42.117,7.4Z" fill="url(#linear-gradient-5)"/>
    <path id="path50-8" d="M42.117,7.4c4.493,2.531,4.517,6.65.038,9.19S30.389,19.134,25.9,16.6s-4.531-6.659-.053-9.2S37.609,4.865,42.117,7.4Z" fill="url(#linear-gradient-6)"/>
    <path id="path42" d="M45.5,12c.008,1.664-1.106,3.328-3.345,4.6-4.478,2.539-11.766,2.539-16.259.008-2.254-1.27-3.387-2.934-3.4-4.6" fill="none" stroke="#197492" stroke-miterlimit="10"/>
    <path id="path44" d="M42.117,7.4c-4.507-2.539-11.8-2.539-16.274,0C23.606,8.669,22.492,10.332,22.5,12V28.659c0,1.756,1.126,3.514,3.39,4.853,4.484,2.653,11.759,2.653,16.229-.009,2.222-1.323,3.376-3.056,3.381-4.789V12C45.494,10.335,44.365,8.671,42.117,7.4Z" fill="none" stroke="#474647" stroke-miterlimit="10"/>
    <path id="path48" d="M25.5,17V33.714c0,1.734-1.159,3.466-3.381,4.789-4.47,2.661-11.744,2.661-16.229.009-2.264-1.339-3.395-3.1-3.39-4.853V17" fill="url(#linear-gradient-7)"/>
    <path id="path50" d="M22.117,12.4c4.493,2.531,4.517,6.65.038,9.19S10.389,24.134,5.9,21.6s-4.531-6.659-.053-9.2S17.609,9.865,22.117,12.4Z" fill="url(#linear-gradient-8)"/>
    <path id="path52" d="M25.5,17c.008,1.664-1.106,3.328-3.345,4.6-4.478,2.539-11.766,2.539-16.259.008-2.254-1.27-3.387-2.934-3.4-4.6" fill="none" stroke="#197492" stroke-miterlimit="10"/>
    <path id="path54" d="M22.117,12.4c-4.507-2.539-11.8-2.539-16.274,0C3.606,13.669,2.492,15.332,2.5,17V33.659c0,1.756,1.126,3.514,3.39,4.853,4.484,2.653,11.759,2.653,16.229-.009,2.222-1.323,3.376-3.056,3.381-4.789V17C25.494,15.335,24.365,13.671,22.117,12.4Z" fill="none" stroke="#474647" stroke-miterlimit="10"/>
    <path id="path58" d="M1.5,46.5v-17h15a8,8,0,0,0,16,0h14v17Z" fill="url(#linear-gradient-9)"/>
    <path id="path60" d="M46,30V46H2V30H16.015a8.5,8.5,0,0,0,16.97,0H46m1-1H31.975c.011.166.025.331.025.5a7.5,7.5,0,0,1-15,0c0-.169.014-.334.025-.5H1V47H47Z" fill="#464646"/>
  </g>
</svg>
