<svg id="Layer_1" data-name="Layer 1" xmlns="http://www.w3.org/2000/svg" xmlns:xlink="http://www.w3.org/1999/xlink" viewBox="0 0 48 48">
  <defs>
    <linearGradient id="linear-gradient" x1="-15.379" y1="727.937" x2="18.036" y2="761.353" gradientTransform="translate(20.574 -771.268) scale(1.073 1.073)" gradientUnits="userSpaceOnUse">
      <stop offset="0" stop-color="#fff"/>
      <stop offset="0.221" stop-color="#f8f8f8"/>
      <stop offset="0.541" stop-color="#e5e5e5"/>
      <stop offset="0.92" stop-color="#c6c6c6"/>
      <stop offset="1" stop-color="#bebebe"/>
    </linearGradient>
    <linearGradient id="linear-gradient-2" x1="-11.378" y1="713.108" x2="14.035" y2="738.521" gradientTransform="translate(20.574 -771.268) scale(1.073 1.073)" gradientUnits="userSpaceOnUse">
      <stop offset="0" stop-color="#73b4c8"/>
      <stop offset="0.175" stop-color="#6aaec3"/>
      <stop offset="0.457" stop-color="#529eb5"/>
      <stop offset="0.809" stop-color="#2c839f"/>
      <stop offset="1" stop-color="#147391"/>
    </linearGradient>
    <linearGradient id="linear-gradient-3" x1="66.41" y1="-454.256" x2="86.052" y2="-473.898" gradientTransform="matrix(0.867, 0, 0, -0.867, -31.067, -367.2)" gradientUnits="userSpaceOnUse">
      <stop offset="0" stop-color="#6ab1c3"/>
      <stop offset="0.175" stop-color="#64acbe"/>
      <stop offset="0.457" stop-color="#509cb0"/>
      <stop offset="0.809" stop-color="#31849d"/>
      <stop offset="1" stop-color="#1f7690"/>
    </linearGradient>
  </defs>
  <g id="g878">
    <path id="path13" d="M.537,13.413v27.9a2.144,2.144,0,0,0,2.144,2.146H41.322a2.144,2.144,0,0,0,2.141-2.146v-27.9Z" fill="url(#linear-gradient)"/>
    <path id="path26" d="M43.463,13.413V2.683A2.144,2.144,0,0,0,41.322.537H2.683A2.146,2.146,0,0,0,.537,2.683h0v10.73Z" stroke="#147391" stroke-miterlimit="10" stroke-width="1.073" fill="url(#linear-gradient-2)"/>
    <path id="circle42" d="M15.561,6.439a1.61,1.61,0,0,1-3.22,0h0a1.61,1.61,0,0,1,1.61-1.61h0a1.609,1.609,0,0,1,1.61,1.608Z" fill="#fff" stroke="#147391" stroke-miterlimit="10" stroke-width="1.073"/>
    <path id="circle44" d="M31.661,6.439a1.61,1.61,0,1,1-1.61-1.61A1.609,1.609,0,0,1,31.661,6.439Z" fill="#fff" stroke="#147391" stroke-miterlimit="10" stroke-width="1.073"/>
    <path id="rect881-0-4" d="M.956,35.586H43.044v1.076H.956Z" fill="#6e6e6e"/>
    <path id="rect913" d="M25.756,13.946h1.073V43.039H25.756Z" fill="#6e6e6e"/>
    <path id="rect913-6" d="M34.339,13.946h1.073V43.039H34.339Z" fill="#6e6e6e"/>
    <path id="line28" d="M9.122,13.949V42.922" fill="none" stroke="#6e6e6e" stroke-width="1.073"/>
    <path id="line30" d="M17.707,13.949V42.922" fill="none" stroke="#6e6e6e" stroke-width="1.073"/>
    <path id="rect881" d="M.956,20.387H43.044v1.076H.956Z" fill="#6e6e6e"/>
    <path id="rect881-0" d="M.956,28.14H43.044v1.076H.956Z" fill="#6e6e6e"/>
    <path id="path46" d="M43.463,41.317V2.683A2.144,2.144,0,0,0,41.322.537H2.683A2.144,2.144,0,0,0,.537,2.681V41.317a2.144,2.144,0,0,0,2.144,2.146H41.322A2.144,2.144,0,0,0,43.463,41.317Z" fill="none" stroke="#464646" stroke-miterlimit="10" stroke-width="1.073"/>
    <g id="g46">
      <path id="circle42-4" d="M47.037,35A12.037,12.037,0,0,1,35,47.037h0A12.037,12.037,0,0,1,22.963,35h0A12.037,12.037,0,0,1,35,22.963h0A12.037,12.037,0,0,1,47.037,35Z" fill="url(#linear-gradient-3)"/>
      <path id="path44" d="M35,48A13,13,0,1,1,48,35,13,13,0,0,1,35,48Zm0-25.037A12.037,12.037,0,1,0,47.038,35,12.036,12.036,0,0,0,35,22.963Z" fill="#3f4143"/>
    </g>
    <g id="g52">
      <path id="polygon48" d="M40.793,27.492l-8.677,8.676V33.69H28.4v8.677h8.676V38.649H34.6l8.676-8.676Z" fill="#fff"/>
      <path id="path50" d="M37.694,42.985H27.778V33.07h4.958v1.6l8.06-8.06,3.353,3.361-8.06,8.06h1.6ZM29.02,41.746h7.437V39.267H33.1l9.3-9.294-1.6-1.6-9.3,9.294V34.307H29.02Z" fill="#1f7690"/>
    </g>
  </g>
</svg>
