<svg id="Layer_1" data-name="Layer 1" xmlns="http://www.w3.org/2000/svg" xmlns:xlink="http://www.w3.org/1999/xlink" viewBox="0 0 48 48">
  <defs>
    <linearGradient id="linear-gradient" x1="-61.825" y1="147.657" x2="-44.762" y2="138.469" gradientTransform="matrix(1.364, 0, 0, -1.364, 93.918, 200.218)" gradientUnits="userSpaceOnUse">
      <stop offset="0" stop-color="#cee6eb"/>
      <stop offset="0.221" stop-color="#c6e2e8"/>
      <stop offset="0.542" stop-color="#b3d8e1"/>
      <stop offset="0.921" stop-color="#93c7d4"/>
      <stop offset="1" stop-color="#8dc3d2"/>
    </linearGradient>
    <linearGradient id="linear-gradient-2" x1="-61.817" y1="147.673" x2="-44.754" y2="138.485" xlink:href="#linear-gradient"/>
    <linearGradient id="linear-gradient-3" x1="-128.666" y1="181.546" x2="-114.279" y2="171.797" gradientTransform="matrix(1.86, 0, 0, -1.86, 236.747, 351.719)" xlink:href="#linear-gradient"/>
    <linearGradient id="linear-gradient-5" x1="1057.856" y1="1653.681" x2="1103.845" y2="1699.669" gradientTransform="matrix(0, 0.48, 0.356, 0, -558.962, -484.329)" gradientUnits="userSpaceOnUse">
      <stop offset="0" stop-color="#f2f2f2"/>
      <stop offset="0.217" stop-color="#eee"/>
      <stop offset="0.425" stop-color="#e3e3e3"/>
      <stop offset="0.628" stop-color="#cfcfcf"/>
      <stop offset="0.828" stop-color="#b5b5b5"/>
      <stop offset="0.99" stop-color="#999"/>
    </linearGradient>
    <linearGradient id="linear-gradient-6" x1="60.023" y1="832.531" x2="66.525" y2="810.791" gradientTransform="translate(-19.113 -755.22) scale(0.962)" gradientUnits="userSpaceOnUse">
      <stop offset="0.01" stop-color="#999"/>
      <stop offset="0.295" stop-color="#bdbdbd"/>
      <stop offset="0.577" stop-color="#dadada"/>
      <stop offset="0.821" stop-color="#ececec"/>
      <stop offset="1" stop-color="#f2f2f2"/>
    </linearGradient>
    <linearGradient id="linear-gradient-7" x1="-3.334" y1="103.044" x2="2.017" y2="83.28" gradientTransform="matrix(1.099, 0, 0, -1.099, 21.911, 85.799)" xlink:href="#linear-gradient-6"/>
    <linearGradient id="linear-gradient-8" x1="618.304" y1="-1601.096" x2="627.222" y2="-1610.013" gradientTransform="matrix(0.502, 0, 0, -0.48, -277.952, -732.331)" gradientUnits="userSpaceOnUse">
      <stop offset="0" stop-color="#73b4c8"/>
      <stop offset="0.175" stop-color="#6aaec3"/>
      <stop offset="0.457" stop-color="#529eb5"/>
      <stop offset="0.809" stop-color="#2c839f"/>
      <stop offset="1" stop-color="#147391"/>
    </linearGradient>
    <linearGradient id="linear-gradient-9" x1="61.685" y1="815.769" x2="65.993" y2="820.331" gradientTransform="translate(-19.113 -755.22) scale(0.962)" xlink:href="#linear-gradient-8"/>
  </defs>
  <g id="g884">
    <path id="path1254" d="M19.136,11.944c-4.677-.5-8.731-2.84-10.117-5.836a8.712,8.712,0,0,1-.611-3.129V2.506H33.754l-.085,1.235A5.759,5.759,0,0,1,32.6,6.985a11.594,11.594,0,0,1-3.055,2.858,20.956,20.956,0,0,1-4.323,1.7A22.26,22.26,0,0,1,19.136,11.944Z" stroke-miterlimit="10" stroke-width="0.187" fill="url(#linear-gradient)" stroke="url(#linear-gradient-2)"/>
    <path id="rect818" d="M5.841,41.185H9.69v3.846H5.841Z" fill="#464646"/>
    <path id="rect888" d="M19.306,12.333h3.967v3.846H19.306Z" fill="#464646"/>
    <path id="path1124" d="M19.067,12.69A15.118,15.118,0,0,1,9.851,8.647,7.119,7.119,0,0,1,7.7,3.151V1.7h26.8l-.059,1.731a5.447,5.447,0,0,1-.578,2.887,10.5,10.5,0,0,1-3.891,4.168,19.333,19.333,0,0,1-5.352,1.97A23.647,23.647,0,0,1,19.067,12.69Z" fill="none" stroke="#464646" stroke-miterlimit="10" stroke-width="1.402"/>
    <path id="path1183-5" d="M6.733,40.759A5.454,5.454,0,0,1,2.753,38.2c-.444-.877-.419-2.037.08-3.7C3.7,31.605,6.926,21.366,7.16,20.773a6.082,6.082,0,0,1,2.763-3.256c.657-.3.789-.319,3.694-.4,1.657-.048,6.647-.055,11.089-.016,8.03.072,8.079.074,8.693.343a6.262,6.262,0,0,1,2.828,3.153c.3.693,4.518,14.266,4.759,15.306.435,1.867-.809,3.686-3.174,4.641l-.691.279-14.765.017c-8.121.009-15.151-.026-15.623-.077Z" stroke-miterlimit="10" stroke-width="0.574" fill="url(#linear-gradient-3)" stroke="url(#linear-gradient-3)"/>
    <path id="path936" d="M21.252,19.78A14.4,14.4,0,0,0,6.559,33.871h0c0,.167.013.335.024.5H8.489c-.015-.2-.021-.4-.026-.595A12.483,12.483,0,0,1,21.227,21.616,13.041,13.041,0,0,1,31,25.969h2.41A14.877,14.877,0,0,0,21.252,19.78Z" fill="#464646"/>
    <path id="path840" d="M20.07,37.912a3.262,3.262,0,0,1-2.118-2.844,2.511,2.511,0,0,1,.174-1.271l.212-.648-2.582-2.6-2.584-2.59.582-.582.583-.583,2.59,2.59,2.592,2.591.475-.187a3.784,3.784,0,0,1,2.438,0,3.52,3.52,0,0,1,1.726,1.638,2.352,2.352,0,0,1,.282,1.44,2.369,2.369,0,0,1-.246,1.364,3.657,3.657,0,0,1-1.584,1.58,2.688,2.688,0,0,1-1.271.271,2.347,2.347,0,0,1-1.271-.174Z" fill="#464646"/>
    <path id="path886" d="M24.662,34.843a3.362,3.362,0,0,1-3.4,3.321h-.005a3.321,3.321,0,1,1,3.41-3.321Z" fill="#464646"/>
    <g id="g1156">
      <path id="path1098-5-0-9" d="M21.8,16.347c-5.746-.015-10.031.021-10.483.088a5.382,5.382,0,0,0-3.847,2.551,12.921,12.921,0,0,0-1.66,3.958c-.3.964-1.339,4.206-2.317,7.205C1.846,35.182,1.709,35.681,1.7,36.64a3.194,3.194,0,0,0,.358,1.786A6.485,6.485,0,0,0,6.642,41.5c.533.08,8.02.119,15.549.118" fill="none" stroke="#464646" stroke-miterlimit="10" stroke-width="1.423"/>
      <path id="path1098-5-0-9-7" d="M21.719,15.665l0,1.365c2.871-.008,5.379,0,7.221.013.921.007,1.674.017,2.223.03s.974.042.931.035a4.6,4.6,0,0,1,3.363,2.245,12.08,12.08,0,0,1,1.578,3.786c.3.982,1.342,4.215,2.321,7.216.82,2.515,1.265,3.9,1.5,4.743a4.893,4.893,0,0,1,.256,1.546,2.352,2.352,0,0,1-.291,1.49,6.019,6.019,0,0,1-4.054,2.7c.051-.008-.164.012-.428.021s-.628.015-1.073.022c-.891.015-2.11.028-3.548.037-2.877.02-6.63.029-10.393.029V42.3c3.765,0,7.52-.008,10.4-.028,1.441-.01,2.665-.023,3.564-.037.449-.008.817-.016,1.094-.025a5.024,5.024,0,0,0,.6-.035,6.985,6.985,0,0,0,5.109-3.461,4.108,4.108,0,0,0,.425-2.084,6.621,6.621,0,0,0-.3-1.888c-.249-.9-.694-2.286-1.515-4.8-.977-3-2.024-6.25-2.314-7.195a13.765,13.765,0,0,0-1.743-4.129,6.166,6.166,0,0,0-4.33-2.858A9.839,9.839,0,0,0,31.2,15.71c-.561-.013-1.32-.024-2.245-.032C27.105,15.663,24.594,15.658,21.719,15.665Z" fill="#464646"/>
    </g>
    <path id="rect41" d="M46.492,23.914V46.52H30.454V23.914Z" stroke="#464646" stroke-miterlimit="10" stroke-width="0.96" fill="url(#linear-gradient-5)"/>
    <path id="rect45" d="M43,26.32V44.114h-2.51V26.32Z" stroke="#6e6e6e" stroke-miterlimit="10" stroke-width="0.958" fill="url(#linear-gradient-6)"/>
    <path id="rect47" d="M36.477,26.32V44.114H33.968V26.32Z" stroke="#6e6e6e" stroke-miterlimit="10" stroke-width="0.958" fill="url(#linear-gradient-7)"/>
    <path id="rect49" d="M37.481,37.382V41.23a.491.491,0,0,1-.5.481h-3.52a.492.492,0,0,1-.5-.481V37.382a.492.492,0,0,1,.5-.482h3.518a.491.491,0,0,1,.5.478v0Z" stroke="#147391" stroke-miterlimit="10" stroke-width="0.958" fill="url(#linear-gradient-8)"/>
    <path id="line51" d="M33.716,39.306h3.011" fill="none" stroke="#fff" stroke-miterlimit="10" stroke-width="0.958"/>
    <path id="rect53" d="M44,29.206v3.847a.49.49,0,0,1-.5.482H39.988a.491.491,0,0,1-.5-.478V29.209a.491.491,0,0,1,.5-.482H43.5A.49.49,0,0,1,44,29.206Z" stroke="#147391" stroke-miterlimit="10" stroke-width="0.958" fill="url(#linear-gradient-9)"/>
    <path id="line55" d="M40.24,31.129h3.012" fill="none" stroke="#fff" stroke-miterlimit="10" stroke-width="0.958"/>
  </g>
</svg>
