<svg id="Livello_3" data-name="Livello 3" xmlns="http://www.w3.org/2000/svg" xmlns:xlink="http://www.w3.org/1999/xlink" viewBox="0 0 48 48">
  <defs>
    <linearGradient id="linear-gradient" x1="18.206" y1="59.17" x2="34.551" y2="37.983" gradientTransform="matrix(1.004, 0, 0, -1.084, -8.891, 78.762)" gradientUnits="userSpaceOnUse">
      <stop offset="0" stop-color="#fff"/>
      <stop offset="0.232" stop-color="#fafafa"/>
      <stop offset="0.496" stop-color="#ededed"/>
      <stop offset="0.775" stop-color="#d6d6d6"/>
      <stop offset="1" stop-color="#bebebe"/>
    </linearGradient>
    <linearGradient id="linear-gradient-2" x1="124.727" y1="1030.508" x2="149.227" y2="1055.008" gradientTransform="translate(-61.399 -769.847) scale(0.737 0.748)" xlink:href="#linear-gradient"/>
    <linearGradient id="linear-gradient-3" x1="94.254" y1="-61.003" x2="98.254" y2="-65.003" gradientTransform="matrix(0.813, 0, 0, -0.813, -42.603, -47.073)" gradientUnits="userSpaceOnUse">
      <stop offset="0" stop-color="#73b4c8"/>
      <stop offset="0.175" stop-color="#6aaec3"/>
      <stop offset="0.457" stop-color="#529eb5"/>
      <stop offset="0.809" stop-color="#2c839f"/>
      <stop offset="1" stop-color="#147391"/>
    </linearGradient>
    <linearGradient id="linear-gradient-4" x1="94.272" y1="-68.027" x2="98.272" y2="-72.027" gradientTransform="matrix(0.813, 0, 0, -0.813, -42.613, -46.406)" xlink:href="#linear-gradient-3"/>
    <linearGradient id="linear-gradient-5" x1="93.76" y1="-74.351" x2="97.76" y2="-78.351" gradientTransform="matrix(0.814, 0, 0, -0.814, -42.313, -45.264)" xlink:href="#linear-gradient-3"/>
  </defs>
  <path id="path818-7" d="M4.44,44.506l-4.209-7C.679,36.1,1.923,35.448,3,34.638l6.259-.777,8.252.419,5.815.358,5.262-18.179,2.548-2.512,2.437-.658,1.772.837L27.48,43.609l-1.55,1.315Z" fill="url(#linear-gradient)"/>
  <path id="path1032" d="M5.648,45.144H4.49c-.287-.082-.369-.178-1.093-1.279A40.629,40.629,0,0,1,.112,38.131a2.7,2.7,0,0,1,1.215-3.08A17.336,17.336,0,0,1,5.6,33.57a22.932,22.932,0,0,1,4.993-.334c1.668-.024,3.28.037,4.547.091.779.053,2.044.174,3.5.337,3.057.442.6.048,3.624.541.4.082.631-.006.766-.293.057-.122.335-1.169.617-2.328,2.1-8.591,3.791-13.765,5.334-16.286a5.219,5.219,0,0,1,3.142-2.378,3.584,3.584,0,0,1,1.175-.069c.645.033,2.655.257,2.7.3s-1.73,6.87-4.1,15.965c-2.557,9.811-3.62,13.55-3.8,13.959a3.851,3.851,0,0,1-2.33,2.026C15.908,45.151,15.528,45.1,5.648,45.144ZM5.1,43.879a10.317,10.317,0,0,1,.85-1.338A7.029,7.029,0,0,0,7.492,39.32a5.931,5.931,0,0,0,.094-1.626,14.811,14.811,0,0,0-.122-1.565,5.356,5.356,0,0,0-.584-1.865,21.883,21.883,0,0,0-2.242.45,22.021,22.021,0,0,0-2.75.985,2,2,0,0,0-.9.876,2.154,2.154,0,0,0-.1,1.216,31.977,31.977,0,0,0,2.254,4.148,20.873,20.873,0,0,0,1.527,2.2A.412.412,0,0,0,5.1,43.879Zm7-.14a8.27,8.27,0,0,1,.6-.978,8.679,8.679,0,0,0,1.7-3.29c.283-1.2.881-5.293-.157-5.321l-.272-.007H10.955c-1.659,0-3.016.02-3.015.045s.076.438.167.918.219,1.333.286,1.9a4.938,4.938,0,0,1,.03,1.716A7.5,7.5,0,0,1,7.6,41.547a8.251,8.251,0,0,1-1.34,1.877c-.337.386-.613.718-.613.737s1.4.035,3.118.034h3.119l.222-.456Zm6.865.137a5.307,5.307,0,0,1,.421-.707l.761-1.073a6.573,6.573,0,0,0,1.25-3.167,16.833,16.833,0,0,0-.054-3.841c.009.045-.133-.009-.637-.125a48.068,48.068,0,0,0-5.814-.669c-.142.163.119.441.3,1.536a8.422,8.422,0,0,1-1.749,7.311c-.372.5-.7.938-.72.98a15.746,15.746,0,0,0,3.025.075h3.068Zm6.59.192a1.819,1.819,0,0,0,1.157-.564,3.453,3.453,0,0,0,.916-1.586c.51-1.713,4.7-17.771,6.337-24.27.827-3.289.839-3.35.68-3.594s-.434-.286-1.482-.286a3.13,3.13,0,0,0-1.343.139,5.243,5.243,0,0,0-2.664,2.76c-1.368,2.7-3.47,9.655-5.227,17.309l-.3,1.308-.564-.038c-.651-.042-.757-.051-1.178-.1-.066.17.206.722.251,1.068a13.119,13.119,0,0,1-.1,3.848,9.8,9.8,0,0,1-1.707,3.265c-.282.4-.534.761-.56.807-.041.072.342.078,2.66.042C23.921,44.148,25.328,44.1,25.559,44.068Z" fill="#464646"/>
  <path id="path906" d="M5.064,47.494a9.157,9.157,0,0,1-.47-1.629,6.088,6.088,0,0,1,.042-1.954,4.747,4.747,0,0,1,.911-1.631,7.134,7.134,0,0,0,.916-1.308c1.205-2.216.947-5.107-.814-9.118a8.82,8.82,0,0,1-.728-1.9,3.675,3.675,0,0,1,.071-1.806l.031-.122H4.135A8.542,8.542,0,0,1,3.246,28c0-.019,2.6-4.883,2.624-4.913.01-.011,2.635,4.881,2.635,4.911a6.884,6.884,0,0,1-.806.035l-.807.012-.174.344a1.3,1.3,0,0,0-.19.729c-.017.45.044.651.537,1.756a16.445,16.445,0,0,1,1.8,7.619A8.177,8.177,0,0,1,6.775,43.5a3.418,3.418,0,0,0-.407.606,1.49,1.49,0,0,0-.154.783,5.087,5.087,0,0,0,.5,2.19c.027.066-.081.132-.7.431-.4.194-.749.353-.769.353A1.408,1.408,0,0,1,5.064,47.494Z" fill="#147391"/>
  <path id="path908" d="M12.168,47.746c-.216-.55-.287-.748-.395-1.1a5.425,5.425,0,0,1-.252-1.908,2.988,2.988,0,0,1,.143-.98,4.1,4.1,0,0,1,.945-1.613,6.532,6.532,0,0,0,1.49-3.071,10.243,10.243,0,0,0,0-2.561,19.8,19.8,0,0,0-1.47-4.7,8.712,8.712,0,0,1-.749-2.022,3.869,3.869,0,0,1,.047-1.5c.036-.134.067-.258.067-.277a5.991,5.991,0,0,0-.883-.033c-.487,0-.884-.009-.884-.021s.579-1.1,1.287-2.419,1.3-2.423,1.315-2.452,2.657,4.783,2.657,4.868a6.673,6.673,0,0,1-.794.024H13.9l-.113.192a2.075,2.075,0,0,0-.289.985,3.818,3.818,0,0,0,.48,1.511c.147.323.4.91.552,1.3,1.654,4.165,1.77,7.22.376,9.838a7.442,7.442,0,0,1-.918,1.368c-.7.862-.8,1.09-.8,1.812a5.483,5.483,0,0,0,.507,2.048c.025.062-.1.141-.725.453l-.756.379Z" fill="#147391"/>
  <path id="path910" d="M18.894,47.532a6.658,6.658,0,0,1-.521-2.687,3.692,3.692,0,0,1,.86-2.276,8.417,8.417,0,0,0,1.11-1.6,5.947,5.947,0,0,0,.7-2.7c.076-1.871-.523-4.124-1.9-7.133a4.078,4.078,0,0,1-.444-1.857,3.242,3.242,0,0,1,.071-.8,2.689,2.689,0,0,0,.074-.319,3.005,3.005,0,0,0-.884-.06l-.883-.012,1.3-2.431c.717-1.337,1.318-2.435,1.336-2.441s.622,1.088,1.34,2.431l1.307,2.441-.808.012-.808.012-.179.363c-.339.687-.3,1.02.248,2.259,1.9,4.264,2.355,7.3,1.493,9.922a8.266,8.266,0,0,1-1.587,2.81,2.152,2.152,0,0,0-.684,1.65,4.7,4.7,0,0,0,.33,1.533c.089.243.172.476.185.517.018.06-.129.151-.73.452L19.073,48Z" fill="#147391"/>
  <path id="rect39" d="M31.4.4H47.6V20.6H31.4Z" stroke="#464646" stroke-miterlimit="10" stroke-width="0.795" fill="url(#linear-gradient-2)"/>
  <line id="line41-8" x1="39" y1="3.997" x2="46" y2="4.003" fill="none" stroke="#6e6e6e" stroke-width="0.993"/>
  <rect id="rect43-8" x="33.999" y="2.504" width="3.251" height="3.251" stroke="#147391" stroke-miterlimit="10" stroke-width="0.998" fill="url(#linear-gradient-3)"/>
  <line id="line45-7" x1="39" y1="10.497" x2="46" y2="10.503" fill="none" stroke="#6e6e6e" stroke-width="0.993"/>
  <rect id="rect47-8" x="33.999" y="8.877" width="3.251" height="3.251" stroke="#147391" stroke-miterlimit="10" stroke-width="0.998" fill="url(#linear-gradient-4)"/>
  <line id="line49-5" x1="39.001" y1="16.997" x2="46" y2="17.003" fill="none" stroke="#6e6e6e" stroke-width="0.993"/>
  <rect id="rect51-8" x="33.997" y="15.248" width="3.256" height="3.255" stroke="#147391" stroke-miterlimit="10" stroke-width="0.993" fill="url(#linear-gradient-5)"/>
</svg>
