<svg id="Layer_1" data-name="Layer 1" xmlns="http://www.w3.org/2000/svg" xmlns:xlink="http://www.w3.org/1999/xlink" viewBox="0 0 48 48">
  <defs>
    <linearGradient id="linear-gradient" x1="-53.034" y1="121.92" x2="-22.534" y2="91.42" gradientTransform="matrix(1.239, 0, 0, -1.239, 67.282, 150.803)" gradientUnits="userSpaceOnUse">
      <stop offset="0" stop-color="#fff"/>
      <stop offset="0.232" stop-color="#fafafa"/>
      <stop offset="0.496" stop-color="#ededed"/>
      <stop offset="0.775" stop-color="#d6d6d6"/>
      <stop offset="1" stop-color="#bebebe"/>
    </linearGradient>
    <linearGradient id="linear-gradient-2" x1="-47.034" y1="127.92" x2="-28.534" y2="109.42" gradientTransform="matrix(1.239, 0, 0, -1.239, 67.282, 150.803)" gradientUnits="userSpaceOnUse">
      <stop offset="0" stop-color="#73b4c8"/>
      <stop offset="0.175" stop-color="#6aaec3"/>
      <stop offset="0.457" stop-color="#529eb5"/>
      <stop offset="0.809" stop-color="#2c839f"/>
      <stop offset="1" stop-color="#147391"/>
    </linearGradient>
    <linearGradient id="linear-gradient-3" x1="-13.871" y1="711.14" x2="-9.868" y2="715.143" gradientTransform="translate(46.052 -786.112) scale(1.148)" xlink:href="#linear-gradient-2"/>
    <linearGradient id="linear-gradient-4" x1="-4.367" y1="701.639" x2="-0.367" y2="705.639" gradientTransform="translate(46.052 -786.112) scale(1.148)" gradientUnits="userSpaceOnUse">
      <stop offset="0" stop-color="#cde6eb"/>
      <stop offset="1" stop-color="#8cc3d2"/>
    </linearGradient>
    <linearGradient id="linear-gradient-5" x1="36.057" y1="745.271" x2="40.057" y2="749.271" gradientTransform="translate(-0.947 -728.382)" gradientUnits="userSpaceOnUse">
      <stop offset="0" stop-color="#afd7e1"/>
      <stop offset="1" stop-color="#73b4c8"/>
    </linearGradient>
    <linearGradient id="linear-gradient-6" x1="-24.871" y1="722.642" x2="-17.87" y2="722.642" gradientTransform="translate(46.052 -786.112) scale(1.148)" gradientUnits="userSpaceOnUse">
      <stop offset="0" stop-color="#fff"/>
      <stop offset="0.221" stop-color="#f8f8f8"/>
      <stop offset="0.541" stop-color="#e5e5e5"/>
      <stop offset="0.92" stop-color="#c6c6c6"/>
      <stop offset="1" stop-color="#bebebe"/>
    </linearGradient>
  </defs>
  <g id="g911">
    <path id="rect51" d="M.62.62H40.282V36.563H.62Z" fill="url(#linear-gradient)"/>
    <path id="rect53" d="M.62.62H40.282v6.2H.62Z" stroke="#464646" stroke-linecap="round" stroke-linejoin="round" stroke-width="1.239" fill="url(#linear-gradient-2)"/>
    <path id="line55" d="M10.535,7.437V36.563" fill="none" stroke="#6e6e6e" stroke-miterlimit="10" stroke-width="1.239"/>
    <path id="line63" d="M20.451,7.437V36.563" fill="none" stroke="#6e6e6e" stroke-miterlimit="10" stroke-width="1.239"/>
    <path id="line65" d="M30.366,7.437V36.475" fill="none" stroke="#6e6e6e" stroke-miterlimit="10" stroke-width="1.105"/>
    <path id="line67" d="M40.282,14.254H.62" fill="none" stroke="#6e6e6e" stroke-miterlimit="10" stroke-width="1.239"/>
    <path id="line69" d="M40.282,21.69H.62" fill="none" stroke="#6e6e6e" stroke-miterlimit="10" stroke-width="1.239"/>
    <path id="line71" d="M40.282,29.127H.62" fill="none" stroke="#6e6e6e" stroke-miterlimit="10" stroke-width="1.239"/>
    <path id="rect73" d="M.62.62H40.282V36.563H.62Z" fill="none" stroke="#464646" stroke-miterlimit="10" stroke-width="1.239"/>
    <path id="polygon78" d="M39.315,21.093l4.592,4.593-18.37,18.37-4.593-4.593Z" fill="url(#linear-gradient-3)"/>
    <path id="polygon85" d="M47.352,22.241l-3.445,3.445-4.592-4.593,3.452-3.444Z" fill="url(#linear-gradient-4)"/>
    <path id="line92" d="M43.907,25.686l-4.592-4.593" stroke="#147391" stroke-linejoin="round" stroke-width="1.148" fill="url(#linear-gradient-5)"/>
    <path id="polygon105" d="M25.537,44.056,17.5,47.5l3.444-8.037Z" fill="url(#linear-gradient-6)"/>
    <path id="polygon107" d="M47.352,22.241l-4.585-4.592L20.944,39.463,17.5,47.5l8.037-3.444Z" fill="none" stroke="#464646" stroke-linejoin="round"/>
    <path id="polygon109" d="M17.5,47.5l4.018-1.722-2.3-2.3Z" fill="#464646"/>
    <path id="rect971" d="M23.339,2.9h8V4.2h-8Z" fill="#464646"/>
    <path id="rect971-0" d="M3,2.9h9V4.2H3Z" fill="#464646"/>
    <path id="rect971-0-5-0" d="M14.576,2.9h6V4.2h-6Z" fill="#464646"/>
    <path id="rect965" d="M34,2.9h1.3V4.2H34Z" fill="#464646"/>
    <path id="rect965-1" d="M37,2.9h1.3V4.2H37Z" fill="#464646"/>
  </g>
</svg>
